# FamiTracker text export 0.4.2

# Song information
TITLE           ""
AUTHOR          "monster860"
COPYRIGHT       ""

# Song comment
COMMENT "UwU~"

# Global settings
MACHINE         0
FRAMERATE       0
EXPANSION       1
VIBRATO         1
SPLIT           32

# Macros
MACRO       0   0  -1  -1   0 : 7 15 11 6 3 1 1 0
MACRO       0   1  -1  -1   0 : 15 13 10 9 7 7 6 5 5 4 3 3 2 2 2 2 2 1 1 1 1 1 1 1 0
MACRO       0   2  -1  -1   0 : 15 13 11 9 8 7 6 6 5 5 4 4 3 3 3 3 2 2 2 2 2 1 1 1
MACRO       0   3  -1  16   0 : 6 11 14 15 15 15 14 14 14 13 12 12 12 11 10 9 8 7 6 6 5 5 5 4 4 3 2 2 1 1 0 0
MACRO       0   4  -1  -1   0 : 15 15 15 15 15 15 0
MACRO       0   5  -1  16   0 : 6 11 14 15 15 15 14 14 14 13 12 12 12 11 10 9 8 7 6 6 5 5 5 4 4 3 2 2 1 1 0 0
MACRO       1   0   0  -1   0 : 0 3 6
MACRO       1   1  -1  -1   0 : 0 3 5 0
MACRO       4   0  -1  -1   0 : 2
MACRO       4   1  -1  -1   0 : 2
MACRO       4   2  -1  -1   0 : 1
MACROVRC6   0   0  -1  -1   0 : 15 13 11 9 8 7 6 6 5 5 4 4 3 3 3 3 2 2 2 2 2 1 1 1
MACROVRC6   0   1  -1  16   0 : 6 11 14 15 15 15 14 14 14 13 12 12 12 11 10 9 8 7 6 6 5 5 5 4 4 3 2 2 1 1 0 0
MACROVRC6   0   2   6  10   0 : 15 13 11 12 13 11 9 10 11 10 9 9 8 7 6 5 3 1 0
MACROVRC6   4   0  -1  -1   0 : 6
MACROVRC6   4   1  -1  -1   0 : 2
MACROVRC6   4   2  -1  -1   0 : 5 4

# DPCM samples
DPCMDEF   0  2961 "blobattack"
DPCM : 55 55 55 55 55 55 55 55 55 55 55 55 55 55 55 55 55 55 55 55 55 55 55 55 55 55 55 55 55 55 55 55
DPCM : 55 D5 E4 54 D5 14 9F E1 31 35 79 94 4D 55 D5 54 4D 55 55 95 55 55 55 55 55 56 55 55 56 55 55 59
DPCM : 99 55 55 59 55 55 55 A6 66 6A 96 9A 69 69 5A 5A 56 6A 55 56 55 55 65 55 55 65 55 55 55 55 55 55
DPCM : 55 55 55 55 55 35 6D 34 75 52 D5 25 2D 75 16 A5 C7 83 0F 3E F9 00 FF 01 FC 7B 00 FF 01 F0 4F 80
DPCM : E3 3F C0 0F 91 FE 03 FC 04 87 5D 0B 4F 0F F0 3F 00 FC 1F 00 FF 03 E8 A7 0F 68 DB 03 FC 92 E8 F0
DPCM : 0F D8 07 F8 92 7E 02 FC 93 F0 1D E0 4F D0 C7 C1 C7 83 57 E1 53 59 25 D7 44 F1 0F E0 7F 00 FE 0F
DPCM : C0 FF 00 FC 0F 80 FF 03 D8 BF 00 DE 17 70 AD B1 32 69 37 54 D9 EB 00 F5 1F C0 EF 80 7C EA 60 4B
DPCM : 27 55 27 C3 C7 51 4D E5 26 D9 4C B5 86 D6 43 53 55 AD C1 F5 48 F6 50 CB 74 4A B5 52 F5 42 FA A2
DPCM : 58 BB 50 73 1C 9D B4 16 55 6D 4A 76 5A 34 9E 49 35 33 2D 4B 2E CD C1 AB 52 76 18 BE C1 87 C7 C1
DPCM : 1F E0 87 D6 81 F7 C0 D9 51 D9 B4 64 75 58 C5 75 64 55 55 4D 56 55 53 DA 51 D5 D4 71 60 1F 98 5F
DPCM : D0 0F F0 C3 47 E1 13 37 71 55 3C 72 95 56 5C 5A 5A 5A 69 69 55 A5 5A 95 96 66 69 59 69 55 95 55
DPCM : 95 56 95 55 55 55 55 55 95 55 55 55 55 55 55 55 55 55 55 55 55 35 55 D5 54 55 55 95 55 55 D5 09
DPCM : 67 07 5E A5 96 15 57 65 69 59 9A A6 96 15 47 C7 95 1A A7 66 66 8E 96 55 66 96 96 65 56 56 55 55
DPCM : 55 55 55 55 55 55 55 55 55 55 55 55 55 55 55 55 55 55 55 55 55 55 55 55 55 55 55 55 55 55 55 55
DPCM : 55 55 55 53 55 55 35 55 55 55 B5 4A 55 AD 54 B5 4A 4D 55 35 35 35 55 CB 34 D5 D2 D4 54 55 55 55
DPCM : 55 35 55 55 55 55 55 55 4B 35 55 35 55 53 53 D5 34 2D CD 54 D3 D4 4C D5 54 59 33 D5 D4 4C 8D DB
DPCM : 86 C3 31 FA E0 C1 47 B5 D4 51 55 D6 54 D6 38 59 16 57 59 55 4D 95 55 95 35 56 0D 67 69 5A 59 5A
DPCM : 65 39 DC C0 D7 C4 F8 C1 C5 0E 3E F0 27 F0 0F F8 03 FE 01 7F C0 47 45 E7 38 C8 3F E0 1F F0 03 7E
DPCM : 01 7F C0 1F EC 41 E7 C1 17 E2 C7 E4 0C 73 8C 3F F0 03 FC E1 C1 56 7C 98 3C CC 71 DA 98 27 0F 86
DPCM : E7 F0 83 F0 F1 E0 E1 E0 83 E7 C1 87 C7 93 11 1F B5 9C 09 DF 01 EB C3 1D 83 97 85 07 9F 0D 37 C1
DPCM : 3F 14 47 1B 5E E2 F1 78 F0 F0 F0 70 72 75 F0 30 F9 A1 EC 45 76 81 5F A2 CD E8 C3 D4 51 D3 52 CB
DPCM : CC CC 52 D3 CA 52 D5 CC 51 2E 33 4D 73 74 9C 51 9D 74 4C 75 7C C0 F1 72 98 F9 41 70 FF E1 E1 C1
DPCM : C1 83 87 07 67 CE 83 33 8E 0F 33 E6 78 98 95 C7 14 67 93 8B 95 4D 1C 8F 55 E6 54 53 8E 4B 35 66
DPCM : 56 69 69 D5 94 95 63 93 23 DB 34 53 B6 D1 54 E3 62 8D 53 59 65 65 55 95 59 4D CD 70 55 56 71 56
DPCM : D5 14 57 59 63 D3 0F CC F0 51 E6 C1 87 19 5F E0 4B 95 4D 96 85 8F 36 D6 94 59 4B 56 55 13 57 35
DPCM : 8D 4D 36 35 76 94 35 D5 1C 6E 54 39 95 36 D9 54 55 B5 64 53 35 55 75 98 07 1F 5C 8D A5 95 56 55
DPCM : 65 95 55 55 55 95 55 2D 35 55 D5 34 55 55 CD 54 55 2D B5 54 2B 55 55 53 4D 2D D5 54 55 55 35 35
DPCM : 35 55 55 55 55 55 53 55 55 95 4D D9 D4 34 4D 36 36 66 D3 2C 93 3C 5C 32 37 E5 94 C3 A5 63 0E CF
DPCM : 78 18 67 99 07 7E F8 E0 F0 21 0F 3E 7C 4C 5C 7C B4 F0 51 16 3B DA C4 35 5A C3 47 8E 19 3B 5A A5
DPCM : 87 39 E1 C3 0F F8 C1 C7 03 1F 5C F0 F1 C0 07 3F 06 6F 63 0E FE C0 07 1F 3A 66 78 63 E6 94 A5 15
DPCM : 57 5C 71 66 A5 96 66 95 65 C3 55 8D D9 18 57 D9 98 39 71 C6 59 26 8F 16 A7 99 8E B1 19 57 74 A9
DPCM : 95 55 59 C5 53 5A 66 4D 35 55 4D D5 54 A3 87 56 55 B5 D8 D4 8C 33 35 D5 54 D5 8A 1B 4D 35 CE 1C
DPCM : 13 77 D4 49 CB D8 71 64 8E D9 D8 D4 38 D5 34 95 4D 95 33 75 0E 3B 70 C7 E8 0E 53 1D 9D 1C 75 B4
DPCM : AA 32 6B 6C B4 A9 A6 C5 A6 2A C7 8D C9 15 D3 95 8E B4 99 9C 1A 9B 9A A5 74 72 C6 E9 98 D4 E2 8D
DPCM : 8C B9 63 64 BA 11 6B D6 51 6A 55 65 56 95 C5 5C 56 55 2A 37 8E 5C 19 C7 96 15 67 9C A5 25 9E 99
DPCM : B1 C6 66 9C 31 C7 1C 75 15 CD 56 66 5A 9A 72 A9 B1 C6 A6 CC CC 9C 8D 19 73 C6 A6 19 CD 9C 69 B4
DPCM : 56 99 AA 66 9C A9 A9 99 16 6B 65 96 99 59 66 5A 56 66 96 95 99 71 35 65 96 53 95 D6 4C 39 D3 54
DPCM : CD 34 35 CB D4 B4 CA CC 1C 75 D4 6C 2C AB CC AC CA CC AA A9 A6 66 AA A6 32 6B AA 2A 1B 2B 73 2C
DPCM : A7 CC 0E A7 D1 CA CA 4A AB 34 D3 34 D5 45 AD D4 2A D5 54 4D D5 34 55 55 55 65 D5 94 55 55 55 55
DPCM : 55 55 55 55 59 55 D5 D4 E8 62 53 95 55 39 4D D5 B1 1C 53 E3 34 C7 31 87 1D 67 1C E3 38 C7 31 B3
DPCM : D4 D1 72 D4 CA 34 33 33 4D 55 8E 53 55 96 55 55 55 55 65 59 55 59 66 69 69 A5 69 AA A6 9A 9A AA
DPCM : A9 9C CA B1 6A 72 9A AA AA AA CA 16 97 AA A6 5A 9A 69 69 71 D8 19 F9 C0 57 5C 71 16 6B 72 C9 A5
DPCM : B1 A9 66 5C B2 59 5C 5A 55 55 55 99 55 63 1D 9B 4D 32 B9 2C B3 5C B4 71 74 92 75 D8 92 CD 54 53
DPCM : 4D 63 35 59 93 8D CF 24 C5 5A A9 17 6E B4 CC D4 2C 93 4B B6 64 36 59 33 95 99 95 33 B6 2C 55 47
DPCM : DA 94 35 96 35 36 55 55 D5 4C 55 35 D9 34 D5 54 4D 53 4D 53 33 D3 54 35 55 53 D5 54 D5 54 35 33
DPCM : D5 54 35 35 4D 55 55 55 55 55 55 55 4D 96 55 55 56 65 96 66 55 96 65 95 55 69 96 95 95 56 55 55
DPCM : 95 95 55 55 55 55 55 55 55 55 55 D5 54 53 D5 54 D5 54 55 55 35 55 4D D5 32 95 1D 53 4B 4B 4D 55
DPCM : 4B 53 55 55 D5 34 35 55 4D 55 55 53 55 55 55 55 4D D5 54 D5 4C 33 AD CC CC 32 B3 AC 32 2B 47 CB
DPCM : B2 2C CD D2 B2 2C 4D 4D 35 55 55 55 55 55 53 4D 55 55 53 D5 64 D3 B4 A4 65 59 95 95 55 96 59 56
DPCM : 56 9A 59 9A 99 A6 69 59 5A 6A AA 69 9A 69 AA AA 9A 6A 6A AA 69 9A 96 69 9A 96 95 55 56 55 59 56
DPCM : 56 59 55 3C 66 3A 3C 39 5A 65 55 56 5A 3A 4E 39 96 55 1C 57 9C 95 56 96 C5 59 96 65 69 96 65 A5
DPCM : 59 69 55 55 55 55 65 55 55 55 55 55 55 55 55 55 55 55 4D 55 55 55 4D 55 35 4D 55 2B 35 53 4D 35
DPCM : 35 B5 D4 52 53 55 55 55 B5 D4 8A 87 1D FC E0 31 F1 03 FC 70 0F 75 4C 1E 36 4B B9 52 F6 E0 91 47
DPCM : B6 54 D3 54 B5 D4 4A 1E 55 53 35 55 35 55 B5 E4 52 55 55 55 55 55 55 55 55 55 55 55 55 55 55 59
DPCM : 55 55 55 55 59 55 55 99 55 5A A5 55 55 66 95 5A 59 55 59 55 55 56 63 A3 55 55 F6 E0 71 5C 9C 55
DPCM : EA 70 29 97 D9 C2 8B 8B C7 42 1D A7 B4 E2 D1 A3 F4 A2 3A F4 28 3D 59 DC 52 B2 AC 54 33 2D 4D 65
DPCM : 55 1D B4 46 1C 97 95 56 59 05 9F 56 70 6D D1 4C D5 8A 66 7C B2 46 5B 55 55 55 55 D5 D1 51 BD 2C
DPCM : 8B 45 DD 52 AE 2C 3E 16 FD 78 1C A5 0F 9E 8F 30 0F EB F0 60 3A 3C 94 1E F0 98 32 1D B4 EA B0 8F
DPCM : F1 0C F1 CF F9 1E 8E F3 C7 78 3C FC C3 3F 80 41 78 07 F0 C3 38 F8 E1 03 F8 EF C1 0F 83 3F 86 71
DPCM : F0 3F 07 3C FE F8 C0 70 F0 03 8F 3F 80 03 0E 8F 01 98 37 00 7C 0C E0 C7 1F 01 C0 FC 03 1E FC 87
DPCM : BF 7F F0 1B CF 78 7C 78 C0 FE 03 00 FC 46 D8 3F E0 0F E0 70 FA 3F F0 FF FF C0 E3 F3 61 EC 03 F4
DPCM : 00 3F 80 C1 00 0C 00 E0 07 18 FE C0 0F FE 18 00 3E C6 3F F0 C1 CF C3 1F 7E 08 0F 7C 7C DE 03 FE
DPCM : E0 EF 0C FE 07 3F 7C F0 C0 F1 E1 83 F1 7F A0 F1 40 F8 E7 00 FF 01 FE 01 1E 0F FE 61 2D C0 3F 83
DPCM : 8F E3 C1 1F E7 07 F8 1F 3E FC 85 F5 8B 87 47 28 1E 1C 38 0C 83 03 8E 18 86 70 60 30 1C 38 3E 30
DPCM : 1C 5D 70 9D 0F F0 28 1E CC E3 79 EA AC 31 ED BC 4C 6F 7D 7A F8 C6 DF E6 BD DD 3C F3 61 76 78 34
DPCM : 36 19 8E 58 3E 98 49 12 1F 59 3A 8E 3A E3 38 37 C4 5D 8C 6D 1C 74 AA C9 A1 D3 70 1A 39 C3 39 E4
DPCM : 68 36 E4 D0 5A 31 D5 52 59 65 95 93 B4 51 C7 47 97 99 A3 D9 25 8F D3 36 36 9D 9A F4 70 38 56 C6
DPCM : 32 63 1C 63 8C 71 A2 8E 72 54 2D 55 96 55 72 55 16 9E 95 69 66 59 65 55 AD 29 8F 35 1B 97 4E 2D
DPCM : 73 9C AA AA AC 34 96 C6 52 A6 54 55 A5 2A 66 AA 71 AC 2A 97 59 59 B5 B2 9A 56 D5 B4 9C D9 34 9B
DPCM : E9 B4 AA 55 AB DA B4 6A E3 C1 87 97 A1 0F D3 4A 69 95 2C 87 A6 A1 4D 72 8C 95 A5 AA 4C B5 58 55
DPCM : 59 CA A1 2A 2A AB 52 CD 52 35 55 55 47 59 53 4D 55 63 C7 B4 AA A9 55 3A B9 B2 1A 57 5A 5A CB D1
DPCM : AC CA 9A 55 55 53 8D A7 1A AB 5A 65 53 95 59 DA 38 65 25 A7 C5 9A AA B2 AC D4 B1 54 35 E3 94 EA
DPCM : 18 75 CA 68 69 A5 AA 42 55 CB 94 EA 4A 65 B5 AA AA 59 55 CD AA AA AA AA 6A 4A AB CA 54 4D 55 AA
DPCM : 95 AA AA A9 AA 5A AA 55 A9 56 56 55 55 55 55 53 55 4D 55 D5 54 33 4D 55 CD D4 54 13 55 55 69 65
DPCM : A9 AA 59 AA A9 69 95 55 55 B5 AC B2 2A AB AA AC 52 55 55 69 A9 AA AA AA AA AA 5A 55 55 B5 B4 AA
DPCM : AA AA AA AA AA 4A 55 55 65 99 AA AA AA AA 2C AB AA AA AA AA AA AA 9A AA AA 6A AA AA AA A9 6A 69
DPCM : 65 55 55 55 55 55 35 D5 D2 CA AA AA B2 AC CA D1 AA CA B2 CA AA AA 9A AA AA CA AA 54 4D 53 3A 96
DPCM : 96 5A 64 AA AA AA AA AA AA 5A 9A A5 55 55 55 55 55 69 5A AA AA AA AA AA AA AA AA AA A9 AA A6 96
DPCM : 5A 69 65 59 65 5A 5A 56 9A 96 A9 55 96 55 55 55 4D 4D 4B D3 CA AA AC AA AC 2A 35 59 55 95 A6 AA
DPCM : 2A 2B AD 54 B5 54 AD AC AA 2A A7 AA AA AA AA AA AA AA AA CA D2 52 55 55 55 55 33 CD CA AA AA AA
DPCM : AA 65 96 5A A6 A5 AA AA AA AA 2A AB AA B2 34 4D B3 AC B2 CA B2 AA AA AA AA AA AA 2C 4D 53 35 4D
DPCM : 4D AB 4C CD B2 AC 2A CB AA AA AA AA AA AA AA A2 D2 D4 54 55 35 55 39 4D 55 35 35 4D 53 D5 54 4D
DPCM : B5 54 53 4D 4B 4B 55 55 55 55 55 1D CE 32 B5 54 53 55 D3 34 35 55 55 55 56 56 5A 5A 9A 6A A9 A5
DPCM : AA A5 AA A5 55 59 55 55 55 55 55 55 55 55 55 55 55 55 55 55 55 55 55 55 55 55 55 55 65 55 65 A9
DPCM : 69 AA 62 AA AA AA AA AA AA AA 9A A6 AA 6A AA AA AA 9A AA AA AA AA AA AA AA AA AA AA AA AA AA AA
DPCM : AA AA AA AA AA AA AA AA AA AA AA AA AA AA AA AA AA AA AA AA AA AA AA AA AA AA AA AA AA AA AA AA
DPCM : AA CA B2 B2 B2 B2 2A 4B B3 2C 2D 2D 4D D3 54 B5 D4 34 55 D3 34 55 55 55 55 55 55 55 55 55 55 55
DPCM : 55 55 55 55 55 55 55 55 55 55 55 55 55 55 55 55 55 55 55 55 55 55 55 55 55 55 55 55 55 55 55 55
DPCM : 55 55 55 55 55 55 55 55 55 55 55 55 55 55 55 55 55 55 55 55 55 55 55 55 55 55 55 15 55 55 55 55
DPCM : 55 55 55 55 55 55 55 55 55 55 55 55 55 55 55 55 55 55 55 55 55 55 55 55 55 55 55 55 55 55 55 55
DPCM : 55 55 55 55 55 55 55 55 55 55 55 55 55 55 55 55 55 55 55 55 55 55 55 55 55 55 55 55 55 55 55 55
DPCM : 55 55 55 55 55 55 55 55 55 55 55 55 55 55 55 55 55 55 55 55 55 55 55 55 55 55 55 55 55 55 55 55
DPCM : 55 55 55 55 55 55 55 55 55 55 55 55 55 55 55 55 55

# Instruments
INST2A03   0    -1  -1  -1  -1  -1 "blank"
KEYDPCM   0   3   0     0  15   0     0  -1
INSTVRC6   1    -1  -1  -1  -1  -1 "blank"
INST2A03   2     0  -1  -1  -1  -1 "perc short"
INST2A03   3     1   0  -1  -1  -1 "perc long arp"
INSTVRC6   4     0  -1  -1  -1  -1 "bell"
INST2A03   5     2  -1  -1  -1  -1 "bell"
INST2A03   6     3  -1  -1  -1  -1 "long"
INSTVRC6   7     1  -1  -1  -1  -1 "long"
INSTVRC6   8     1  -1  -1  -1   0 "long square"
INSTVRC6   9     0  -1  -1  -1   0 "bell square"
INSTVRC6  10    -1  -1  -1  -1   0 "blank square"
INST2A03  11    -1  -1  -1  -1   0 "blank square"
INST2A03  12     3  -1  -1  -1   0 "long square"
INST2A03  13     2  -1  -1  -1   0 "bell square"
INST2A03  14     4   1  -1  -1  -1 "triangle kick"
INSTVRC6  15     1  -1  -1  -1   1 "medium long"
INST2A03  16     5  -1  -1  -1   2 "medium long"
INSTVRC6  17     2  -1  -1  -1   2 "legion lead"

# Tracks

TRACK 128   3 150 "King Goat 1"
COLUMNS : 1 1 1 1 1 1 1 1

ORDER 00 : 00 00 00 00 00 00 00 00
ORDER 01 : 01 01 01 01 01 01 01 01
ORDER 02 : 02 02 02 02 02 02 02 02
ORDER 03 : 03 03 03 03 03 03 03 03
ORDER 04 : 04 04 04 04 04 04 04 04
ORDER 05 : 05 05 05 05 05 05 05 05
ORDER 06 : 06 06 06 06 06 06 06 06
ORDER 07 : 07 07 07 07 07 07 07 07
ORDER 08 : 08 08 08 08 08 08 08 08
ORDER 09 : 07 07 07 07 07 07 07 07
ORDER 0A : 0A 0A 0A 0A 0A 0A 0A 0A
ORDER 0B : 09 09 09 09 09 09 09 09
ORDER 0C : 0B 0B 0B 0B 0B 0B 0B 0B
ORDER 0D : 0C 0C 0C 0C 0C 0C 0C 0C
ORDER 0E : 0D 0D 0D 0D 0D 0D 0D 0D
ORDER 0F : 0E 0E 0E 0E 0E 0E 0E 0E
ORDER 10 : 0F 0F 0F 0F 0F 0F 0F 0F

PATTERN 00
ROW 00 : --- .. . ... : --- .. . ... : --- .. . ... : --- .. . ... : --- .. . ... : C-3 04 F ... : D#3 04 F ... : --- .. F ...
ROW 01 : ... .. . ... : ... .. . ... : ... .. . ... : ... .. . ... : ... .. . ... : ... .. . ... : ... .. . ... : ... .. . ...
ROW 02 : C-4 05 4 ... : D#4 05 4 ... : ... .. . ... : ... .. . ... : ... .. . ... : ... .. . ... : ... .. . ... : ... .. . ...
ROW 03 : ... .. . ... : ... .. . ... : ... .. . ... : ... .. . ... : ... .. . ... : ... .. . ... : ... .. . ... : ... .. . ...
ROW 04 : ... .. . ... : ... .. . ... : ... .. . ... : ... .. . ... : ... .. . ... : ... .. . ... : ... .. . ... : ... .. . ...
ROW 05 : ... .. . ... : ... .. . ... : ... .. . ... : ... .. . ... : ... .. . ... : ... .. . ... : ... .. . ... : ... .. . ...
ROW 06 : ... .. . ... : ... .. . ... : ... .. . ... : ... .. . ... : ... .. . ... : ... .. . ... : ... .. . ... : ... .. . ...
ROW 07 : ... .. . ... : ... .. . ... : ... .. . ... : ... .. . ... : ... .. . ... : ... .. . ... : ... .. . ... : ... .. . ...
ROW 08 : ... .. . ... : ... .. . ... : ... .. . ... : ... .. . ... : ... .. . ... : C-3 04 . ... : E-3 04 . ... : ... .. . ...
ROW 09 : ... .. . ... : ... .. . ... : ... .. . ... : ... .. . ... : ... .. . ... : ... .. . ... : ... .. . ... : ... .. . ...
ROW 0A : C-4 05 . ... : E-4 05 . ... : ... .. . ... : ... .. . ... : ... .. . ... : ... .. . ... : ... .. . ... : ... .. . ...
ROW 0B : ... .. . ... : ... .. . ... : ... .. . ... : ... .. . ... : ... .. . ... : ... .. . ... : ... .. . ... : ... .. . ...
ROW 0C : ... .. . ... : ... .. . ... : ... .. . ... : ... .. . ... : ... .. . ... : ... .. . ... : ... .. . ... : ... .. . ...
ROW 0D : ... .. . ... : ... .. . ... : ... .. . ... : ... .. . ... : ... .. . ... : ... .. . ... : ... .. . ... : ... .. . ...
ROW 0E : ... .. . ... : ... .. . ... : ... .. . ... : ... .. . ... : ... .. . ... : ... .. . ... : ... .. . ... : ... .. . ...
ROW 0F : ... .. . ... : ... .. . ... : ... .. . ... : ... .. . ... : ... .. . ... : ... .. . ... : ... .. . ... : ... .. . ...
ROW 10 : ... .. . ... : ... .. . ... : ... .. . ... : ... .. . ... : ... .. . ... : C-3 04 . ... : D#3 04 . ... : ... .. . ...
ROW 11 : ... .. . ... : ... .. . ... : ... .. . ... : ... .. . ... : ... .. . ... : ... .. . ... : ... .. . ... : ... .. . ...
ROW 12 : C-4 05 . ... : D#4 05 . ... : ... .. . ... : ... .. . ... : ... .. . ... : ... .. . ... : ... .. . ... : ... .. . ...
ROW 13 : ... .. . ... : ... .. . ... : ... .. . ... : ... .. . ... : ... .. . ... : ... .. . ... : ... .. . ... : ... .. . ...
ROW 14 : ... .. . ... : ... .. . ... : ... .. . ... : ... .. . ... : ... .. . ... : ... .. . ... : ... .. . ... : ... .. . ...
ROW 15 : ... .. . ... : ... .. . ... : ... .. . ... : ... .. . ... : ... .. . ... : ... .. . ... : ... .. . ... : ... .. . ...
ROW 16 : ... .. . ... : ... .. . ... : ... .. . ... : ... .. . ... : ... .. . ... : ... .. . ... : ... .. . ... : ... .. . ...
ROW 17 : ... .. . ... : ... .. . ... : ... .. . ... : ... .. . ... : ... .. . ... : ... .. . ... : ... .. . ... : ... .. . ...
ROW 18 : ... .. . ... : ... .. . ... : ... .. . ... : ... .. . ... : ... .. . ... : C-3 04 . ... : D-3 04 . ... : ... .. . ...
ROW 19 : ... .. . ... : ... .. . ... : ... .. . ... : ... .. . ... : ... .. . ... : ... .. . ... : ... .. . ... : ... .. . ...
ROW 1A : C-4 05 . ... : D-4 05 . ... : ... .. . ... : ... .. . ... : ... .. . ... : ... .. . ... : ... .. . ... : ... .. . ...
ROW 1B : ... .. . ... : ... .. . ... : ... .. . ... : ... .. . ... : ... .. . ... : ... .. . ... : ... .. . ... : ... .. . ...
ROW 1C : ... .. . ... : ... .. . ... : ... .. . ... : ... .. . ... : ... .. . ... : ... .. . ... : ... .. . ... : ... .. . ...
ROW 1D : ... .. . ... : ... .. . ... : ... .. . ... : ... .. . ... : ... .. . ... : ... .. . ... : ... .. . ... : ... .. . ...
ROW 1E : ... .. . ... : ... .. . ... : ... .. . ... : ... .. . ... : ... .. . ... : ... .. . ... : ... .. . ... : ... .. . ...
ROW 1F : ... .. . ... : ... .. . ... : ... .. . ... : ... .. . ... : ... .. . ... : ... .. . ... : ... .. . ... : ... .. . ...
ROW 20 : ... .. . ... : ... .. . ... : ... .. . ... : ... .. . ... : ... .. . ... : C-3 04 . ... : D#3 04 . ... : ... .. . ...
ROW 21 : ... .. . ... : ... .. . ... : ... .. . ... : ... .. . ... : ... .. . ... : ... .. . ... : ... .. . ... : ... .. . ...
ROW 22 : C-4 05 . ... : D#4 05 . ... : ... .. . ... : ... .. . ... : ... .. . ... : ... .. . ... : ... .. . ... : ... .. . ...
ROW 23 : ... .. . ... : ... .. . ... : ... .. . ... : ... .. . ... : ... .. . ... : ... .. . ... : ... .. . ... : ... .. . ...
ROW 24 : ... .. . ... : ... .. . ... : ... .. . ... : ... .. . ... : ... .. . ... : ... .. . ... : ... .. . ... : G#2 04 . ...
ROW 25 : ... .. . ... : ... .. . ... : ... .. . ... : ... .. . ... : ... .. . ... : ... .. . ... : ... .. . ... : ... .. . ...
ROW 26 : ... .. . ... : ... .. . ... : ... .. . ... : ... .. . ... : ... .. . ... : ... .. . ... : ... .. . ... : ... .. . ...
ROW 27 : ... .. . ... : ... .. . ... : ... .. . ... : ... .. . ... : ... .. . ... : ... .. . ... : ... .. . ... : ... .. . ...
ROW 28 : ... .. . ... : ... .. . ... : ... .. . ... : ... .. . ... : ... .. . ... : C-3 04 . ... : E-3 04 . ... : ... .. . ...
ROW 29 : ... .. . ... : ... .. . ... : ... .. . ... : ... .. . ... : ... .. . ... : ... .. . ... : ... .. . ... : ... .. . ...
ROW 2A : C-4 05 . ... : E-4 05 . ... : ... .. . ... : ... .. . ... : ... .. . ... : ... .. . ... : ... .. . ... : ... .. . ...
ROW 2B : ... .. . ... : ... .. . ... : ... .. . ... : ... .. . ... : ... .. . ... : ... .. . ... : ... .. . ... : ... .. . ...
ROW 2C : ... .. . ... : ... .. . ... : ... .. . ... : ... .. . ... : ... .. . ... : ... .. . ... : ... .. . ... : A-2 04 . ...
ROW 2D : ... .. . ... : ... .. . ... : ... .. . ... : ... .. . ... : ... .. . ... : ... .. . ... : ... .. . ... : ... .. . ...
ROW 2E : ... .. . ... : ... .. . ... : ... .. . ... : ... .. . ... : ... .. . ... : ... .. . ... : ... .. . ... : ... .. . ...
ROW 2F : ... .. . ... : ... .. . ... : ... .. . ... : ... .. . ... : ... .. . ... : ... .. . ... : ... .. . ... : ... .. . ...
ROW 30 : ... .. . ... : ... .. . ... : ... .. . ... : ... .. . ... : ... .. . ... : C-3 04 . ... : D#3 04 . ... : ... .. . ...
ROW 31 : ... .. . ... : ... .. . ... : ... .. . ... : ... .. . ... : ... .. . ... : ... .. . ... : ... .. . ... : ... .. . ...
ROW 32 : C-4 05 . ... : D#4 05 . ... : ... .. . ... : ... .. . ... : ... .. . ... : ... .. . ... : ... .. . ... : ... .. . ...
ROW 33 : ... .. . ... : ... .. . ... : ... .. . ... : ... .. . ... : ... .. . ... : ... .. . ... : ... .. . ... : ... .. . ...
ROW 34 : ... .. . ... : ... .. . ... : ... .. . ... : ... .. . ... : ... .. . ... : ... .. . ... : ... .. . ... : G#2 04 . ...
ROW 35 : ... .. . ... : ... .. . ... : ... .. . ... : ... .. . ... : ... .. . ... : ... .. . ... : ... .. . ... : ... .. . ...
ROW 36 : ... .. . ... : ... .. . ... : ... .. . ... : ... .. . ... : ... .. . ... : ... .. . ... : ... .. . ... : ... .. . ...
ROW 37 : ... .. . ... : ... .. . ... : ... .. . ... : ... .. . ... : ... .. . ... : ... .. . ... : ... .. . ... : ... .. . ...
ROW 38 : ... .. . ... : ... .. . ... : ... .. . ... : ... .. . ... : ... .. . ... : C-3 04 . ... : D-3 04 . ... : ... .. . ...
ROW 39 : ... .. . ... : ... .. . ... : ... .. . ... : ... .. . ... : ... .. . ... : ... .. . ... : ... .. . ... : ... .. . ...
ROW 3A : C-4 05 . ... : D-4 05 . ... : ... .. . ... : ... .. . ... : ... .. . ... : ... .. . ... : ... .. . ... : ... .. . ...
ROW 3B : ... .. . ... : ... .. . ... : ... .. . ... : ... .. . ... : ... .. . ... : ... .. . ... : ... .. . ... : ... .. . ...
ROW 3C : ... .. . ... : ... .. . ... : ... .. . ... : ... .. . ... : ... .. . ... : ... .. . ... : ... .. . ... : G-2 04 . ...
ROW 3D : ... .. . ... : ... .. . ... : ... .. . ... : ... .. . ... : ... .. . ... : ... .. . ... : ... .. . ... : ... .. . ...
ROW 3E : ... .. . ... : ... .. . ... : ... .. . ... : ... .. . ... : ... .. . ... : ... .. . ... : ... .. . ... : ... .. . ...
ROW 3F : ... .. . ... : ... .. . ... : ... .. . ... : ... .. . ... : ... .. . ... : ... .. . ... : ... .. . ... : ... .. . ...
ROW 40 : ... .. . ... : ... .. . ... : C-2 00 . ... : ... .. . ... : ... .. . ... : C-3 04 . ... : D#3 04 . ... : ... .. . ...
ROW 41 : ... .. . ... : ... .. . ... : --- .. . ... : ... .. . ... : ... .. . ... : ... .. . ... : ... .. . ... : ... .. . ...
ROW 42 : C-4 05 . ... : D#4 05 . ... : C-2 00 . ... : ... .. . ... : ... .. . ... : ... .. . ... : ... .. . ... : ... .. . ...
ROW 43 : ... .. . ... : ... .. . ... : --- .. . ... : ... .. . ... : ... .. . ... : ... .. . ... : ... .. . ... : ... .. . ...
ROW 44 : ... .. . ... : ... .. . ... : C-2 00 . ... : ... .. . ... : ... .. . ... : ... .. . ... : ... .. . ... : G#2 04 . ...
ROW 45 : ... .. . ... : ... .. . ... : --- .. . ... : ... .. . ... : ... .. . ... : ... .. . ... : ... .. . ... : ... .. . ...
ROW 46 : ... .. . ... : ... .. . ... : C-2 00 . ... : ... .. . ... : ... .. . ... : ... .. . ... : ... .. . ... : ... .. . ...
ROW 47 : ... .. . ... : ... .. . ... : --- .. . ... : ... .. . ... : ... .. . ... : ... .. . ... : ... .. . ... : ... .. . ...
ROW 48 : ... .. . ... : ... .. . ... : C-2 00 . ... : ... .. . ... : ... .. . ... : C-3 04 . ... : E-3 04 . ... : ... .. . ...
ROW 49 : ... .. . ... : ... .. . ... : --- .. . ... : ... .. . ... : ... .. . ... : ... .. . ... : ... .. . ... : ... .. . ...
ROW 4A : C-4 05 . ... : E-4 05 . ... : C-2 00 . ... : ... .. . ... : ... .. . ... : ... .. . ... : ... .. . ... : ... .. . ...
ROW 4B : ... .. . ... : ... .. . ... : --- .. . ... : ... .. . ... : ... .. . ... : ... .. . ... : ... .. . ... : ... .. . ...
ROW 4C : ... .. . ... : ... .. . ... : C-2 00 . ... : ... .. . ... : ... .. . ... : ... .. . ... : ... .. . ... : A-2 04 . ...
ROW 4D : ... .. . ... : ... .. . ... : --- .. . ... : ... .. . ... : ... .. . ... : ... .. . ... : ... .. . ... : ... .. . ...
ROW 4E : ... .. . ... : ... .. . ... : C-2 00 . ... : ... .. . ... : ... .. . ... : ... .. . ... : ... .. . ... : ... .. . ...
ROW 4F : ... .. . ... : ... .. . ... : --- .. . ... : ... .. . ... : ... .. . ... : ... .. . ... : ... .. . ... : ... .. . ...
ROW 50 : ... .. . ... : ... .. . ... : C-2 00 . ... : ... .. . ... : ... .. . ... : C-3 04 . ... : D#3 04 . ... : ... .. . ...
ROW 51 : ... .. . ... : ... .. . ... : --- .. . ... : ... .. . ... : ... .. . ... : ... .. . ... : ... .. . ... : ... .. . ...
ROW 52 : C-4 05 . ... : D#4 05 . ... : C-2 00 . ... : ... .. . ... : ... .. . ... : ... .. . ... : ... .. . ... : ... .. . ...
ROW 53 : ... .. . ... : ... .. . ... : --- .. . ... : ... .. . ... : ... .. . ... : ... .. . ... : ... .. . ... : ... .. . ...
ROW 54 : ... .. . ... : ... .. . ... : C-2 00 . ... : ... .. . ... : ... .. . ... : ... .. . ... : ... .. . ... : G#2 04 . ...
ROW 55 : ... .. . ... : ... .. . ... : --- .. . ... : ... .. . ... : ... .. . ... : ... .. . ... : ... .. . ... : ... .. . ...
ROW 56 : ... .. . ... : ... .. . ... : C-2 00 . ... : ... .. . ... : ... .. . ... : ... .. . ... : ... .. . ... : ... .. . ...
ROW 57 : ... .. . ... : ... .. . ... : --- .. . ... : ... .. . ... : ... .. . ... : ... .. . ... : ... .. . ... : ... .. . ...
ROW 58 : ... .. . ... : ... .. . ... : C-2 00 . ... : ... .. . ... : ... .. . ... : C-3 04 . ... : D-3 04 . ... : ... .. . ...
ROW 59 : ... .. . ... : ... .. . ... : --- .. . ... : ... .. . ... : ... .. . ... : ... .. . ... : ... .. . ... : ... .. . ...
ROW 5A : C-4 05 . ... : D-4 05 . ... : C-2 00 . ... : ... .. . ... : ... .. . ... : ... .. . ... : ... .. . ... : ... .. . ...
ROW 5B : ... .. . ... : ... .. . ... : --- .. . ... : ... .. . ... : ... .. . ... : ... .. . ... : ... .. . ... : ... .. . ...
ROW 5C : ... .. . ... : ... .. . ... : C-2 00 . ... : ... .. . ... : ... .. . ... : ... .. . ... : ... .. . ... : G-2 04 . ...
ROW 5D : ... .. . ... : ... .. . ... : --- .. . ... : ... .. . ... : ... .. . ... : ... .. . ... : ... .. . ... : ... .. . ...
ROW 5E : ... .. . ... : ... .. . ... : C-2 00 . ... : ... .. . ... : ... .. . ... : ... .. . ... : ... .. . ... : ... .. . ...
ROW 5F : ... .. . ... : ... .. . ... : --- .. . ... : ... .. . ... : ... .. . ... : ... .. . ... : ... .. . ... : ... .. . ...
ROW 60 : ... .. . ... : ... .. . ... : D#2 00 . ... : ... .. . ... : ... .. . ... : C-3 04 . ... : D#3 04 . ... : ... .. . ...
ROW 61 : ... .. . ... : ... .. . ... : --- .. . ... : ... .. . ... : ... .. . ... : ... .. . ... : ... .. . ... : ... .. . ...
ROW 62 : C-4 05 . ... : D#4 05 . ... : C-2 00 . ... : ... .. . ... : ... .. . ... : ... .. . ... : ... .. . ... : ... .. . ...
ROW 63 : ... .. . ... : ... .. . ... : --- .. . ... : ... .. . ... : ... .. . ... : ... .. . ... : ... .. . ... : ... .. . ...
ROW 64 : ... .. . ... : ... .. . ... : C-2 00 . ... : ... .. . ... : ... .. . ... : ... .. . ... : ... .. . ... : G#2 04 . ...
ROW 65 : ... .. . ... : ... .. . ... : --- .. . ... : ... .. . ... : ... .. . ... : ... .. . ... : ... .. . ... : ... .. . ...
ROW 66 : ... .. . ... : ... .. . ... : C-2 00 . ... : ... .. . ... : ... .. . ... : ... .. . ... : ... .. . ... : ... .. . ...
ROW 67 : ... .. . ... : ... .. . ... : --- .. . ... : ... .. . ... : ... .. . ... : ... .. . ... : ... .. . ... : ... .. . ...
ROW 68 : ... .. . ... : ... .. . ... : E-2 00 . ... : ... .. . ... : ... .. . ... : C-3 04 . ... : E-3 04 . ... : ... .. . ...
ROW 69 : ... .. . ... : ... .. . ... : --- .. . ... : ... .. . ... : ... .. . ... : ... .. . ... : ... .. . ... : ... .. . ...
ROW 6A : C-4 05 . ... : E-4 05 . ... : C-2 00 . ... : ... .. . ... : ... .. . ... : ... .. . ... : ... .. . ... : ... .. . ...
ROW 6B : ... .. . ... : ... .. . ... : --- .. . ... : ... .. . ... : ... .. . ... : ... .. . ... : ... .. . ... : ... .. . ...
ROW 6C : ... .. . ... : ... .. . ... : C-2 00 . ... : ... .. . ... : ... .. . ... : ... .. . ... : ... .. . ... : A-2 04 . ...
ROW 6D : ... .. . ... : ... .. . ... : --- .. . ... : ... .. . ... : ... .. . ... : ... .. . ... : ... .. . ... : ... .. . ...
ROW 6E : ... .. . ... : ... .. . ... : C-2 00 . ... : ... .. . ... : ... .. . ... : ... .. . ... : ... .. . ... : ... .. . ...
ROW 6F : ... .. . ... : ... .. . ... : --- .. . ... : ... .. . ... : ... .. . ... : ... .. . ... : ... .. . ... : ... .. . ...
ROW 70 : ... .. . ... : ... .. . ... : F#2 00 . ... : ... .. . ... : ... .. . ... : C-3 04 . ... : F#3 04 . ... : ... .. . ...
ROW 71 : ... .. . ... : ... .. . ... : --- .. . ... : ... .. . ... : ... .. . ... : ... .. . ... : ... .. . ... : ... .. . ...
ROW 72 : C-4 05 . ... : F#4 05 . ... : C-2 00 . ... : ... .. . ... : ... .. . ... : ... .. . ... : ... .. . ... : ... .. . ...
ROW 73 : ... .. . ... : ... .. . ... : --- .. . ... : ... .. . ... : ... .. . ... : ... .. . ... : ... .. . ... : ... .. . ...
ROW 74 : ... .. . ... : ... .. . ... : C-2 00 . ... : ... .. . ... : ... .. . ... : ... .. . ... : ... .. . ... : G#2 04 . ...
ROW 75 : ... .. . ... : ... .. . ... : --- .. . ... : ... .. . ... : ... .. . ... : ... .. . ... : ... .. . ... : ... .. . ...
ROW 76 : ... .. . ... : ... .. . ... : C-2 00 . ... : ... .. . ... : ... .. . ... : ... .. . ... : ... .. . ... : ... .. . ...
ROW 77 : ... .. . ... : ... .. . ... : --- .. . ... : ... .. . ... : ... .. . ... : ... .. . ... : ... .. . ... : ... .. . ...
ROW 78 : ... .. . ... : ... .. . ... : F-2 00 . ... : ... .. . ... : ... .. . ... : C-3 04 . ... : F-3 04 . ... : ... .. . ...
ROW 79 : ... .. . ... : ... .. . ... : --- .. . ... : ... .. . ... : ... .. . ... : ... .. . ... : ... .. . ... : ... .. . ...
ROW 7A : C-4 05 . ... : F-4 05 . ... : C-2 00 . ... : ... .. . ... : ... .. . ... : ... .. . ... : ... .. . ... : ... .. . ...
ROW 7B : ... .. . ... : ... .. . ... : --- .. . ... : ... .. . ... : ... .. . ... : ... .. . ... : ... .. . ... : ... .. . ...
ROW 7C : ... .. . ... : ... .. . ... : D#2 00 . ... : ... .. . ... : ... .. . ... : ... .. . ... : ... .. . ... : G-2 04 . ...
ROW 7D : ... .. . ... : ... .. . ... : --- .. . ... : ... .. . ... : ... .. . ... : ... .. . ... : ... .. . ... : ... .. . ...
ROW 7E : ... .. . ... : ... .. . ... : C-2 00 . ... : ... .. . ... : ... .. . ... : ... .. . ... : ... .. . ... : ... .. . ...
ROW 7F : ... .. . ... : ... .. . ... : --- .. . ... : ... .. . ... : ... .. . ... : ... .. . ... : ... .. . ... : ... .. . ...

PATTERN 01
ROW 00 : ... .. . ... : ... .. . ... : C-1 05 . ... : ... .. . ... : ... .. . ... : C-3 04 F ... : D#3 04 F ... : ... .. . ...
ROW 01 : ... .. . ... : ... .. . ... : --- .. . ... : ... .. . ... : ... .. . ... : ... .. . ... : ... .. . ... : ... .. . ...
ROW 02 : C-4 05 4 ... : D#4 05 4 ... : C-2 05 . ... : ... .. . ... : ... .. . ... : ... .. . ... : ... .. . ... : ... .. . ...
ROW 03 : ... .. . ... : ... .. . ... : --- .. . ... : ... .. . ... : ... .. . ... : ... .. . ... : ... .. . ... : ... .. . ...
ROW 04 : ... .. . ... : ... .. . ... : C-2 05 . ... : ... .. . ... : ... .. . ... : ... .. . ... : ... .. . ... : G#2 04 . ...
ROW 05 : ... .. . ... : ... .. . ... : --- .. . ... : ... .. . ... : ... .. . ... : ... .. . ... : ... .. . ... : ... .. . ...
ROW 06 : ... .. . ... : ... .. . ... : C-2 05 . ... : ... .. . ... : ... .. . ... : ... .. . ... : ... .. . ... : ... .. . ...
ROW 07 : ... .. . ... : ... .. . ... : --- .. . ... : C-# 02 2 ... : ... .. . ... : ... .. . ... : ... .. . ... : ... .. . ...
ROW 08 : ... .. . ... : ... .. . ... : E-2 05 . ... : 3-# 03 6 ... : ... .. . ... : C-3 04 . ... : E-3 04 . ... : ... .. . ...
ROW 09 : ... .. . ... : ... .. . ... : --- .. . ... : ... .. . ... : ... .. . ... : ... .. . ... : ... .. . ... : ... .. . ...
ROW 0A : C-4 05 . ... : E-4 05 . ... : C-2 05 . ... : ... .. . ... : ... .. . ... : ... .. . ... : ... .. . ... : ... .. . ...
ROW 0B : ... .. . ... : ... .. . ... : --- .. . ... : ... .. . ... : ... .. . ... : ... .. . ... : ... .. . ... : ... .. . ...
ROW 0C : ... .. . ... : ... .. . ... : C-2 05 . ... : ... .. . ... : ... .. . ... : ... .. . ... : ... .. . ... : A-2 04 . ...
ROW 0D : ... .. . ... : ... .. . ... : --- .. . ... : ... .. . ... : ... .. . ... : ... .. . ... : ... .. . ... : ... .. . ...
ROW 0E : ... .. . ... : ... .. . ... : C-2 05 . ... : ... .. . ... : ... .. . ... : ... .. . ... : ... .. . ... : ... .. . ...
ROW 0F : ... .. . ... : ... .. . ... : --- .. . ... : ... .. . ... : ... .. . ... : ... .. . ... : ... .. . ... : ... .. . ...
ROW 10 : ... .. . ... : ... .. . ... : D#2 05 . ... : ... .. . ... : ... .. . ... : C-3 04 . ... : D#3 04 . ... : ... .. . ...
ROW 11 : ... .. . ... : ... .. . ... : --- .. . ... : ... .. . ... : ... .. . ... : ... .. . ... : ... .. . ... : ... .. . ...
ROW 12 : C-4 05 . ... : D#4 05 . ... : C-2 05 . ... : ... .. . ... : ... .. . ... : ... .. . ... : ... .. . ... : ... .. . ...
ROW 13 : ... .. . ... : ... .. . ... : --- .. . ... : ... .. . ... : ... .. . ... : ... .. . ... : ... .. . ... : ... .. . ...
ROW 14 : ... .. . ... : ... .. . ... : C-2 05 . ... : ... .. . ... : ... .. . ... : ... .. . ... : ... .. . ... : G#2 04 . ...
ROW 15 : ... .. . ... : ... .. . ... : --- .. . ... : ... .. . ... : ... .. . ... : ... .. . ... : ... .. . ... : ... .. . ...
ROW 16 : ... .. . ... : ... .. . ... : C-2 05 . ... : ... .. . ... : ... .. . ... : ... .. . ... : ... .. . ... : ... .. . ...
ROW 17 : ... .. . ... : ... .. . ... : --- 05 . ... : C-# 02 3 ... : ... .. . ... : ... .. . ... : ... .. . ... : ... .. . ...
ROW 18 : ... .. . ... : ... .. . ... : D-2 05 . ... : 3-# 03 8 ... : ... .. . ... : C-3 04 . ... : D-3 04 . ... : ... .. . ...
ROW 19 : ... .. . ... : ... .. . ... : --- .. . ... : ... .. . ... : ... .. . ... : ... .. . ... : ... .. . ... : ... .. . ...
ROW 1A : C-4 05 . ... : D-4 05 . ... : C-2 05 . ... : ... .. . ... : ... .. . ... : ... .. . ... : ... .. . ... : ... .. . ...
ROW 1B : ... .. . ... : ... .. . ... : --- .. . ... : ... .. . ... : ... .. . ... : ... .. . ... : ... .. . ... : ... .. . ...
ROW 1C : ... .. . ... : ... .. . ... : C-2 05 . ... : ... .. . ... : ... .. . ... : ... .. . ... : ... .. . ... : G-2 04 . ...
ROW 1D : ... .. . ... : ... .. . ... : --- .. . ... : ... .. . ... : ... .. . ... : ... .. . ... : ... .. . ... : ... .. . ...
ROW 1E : ... .. . ... : ... .. . ... : C-2 05 . ... : ... .. . ... : ... .. . ... : ... .. . ... : ... .. . ... : ... .. . ...
ROW 1F : ... .. . ... : ... .. . ... : --- .. . ... : ... .. . ... : ... .. . ... : ... .. . ... : ... .. . ... : ... .. . ...
ROW 20 : ... .. . ... : ... .. . ... : C-1 05 . ... : ... .. . ... : ... .. . ... : C-3 04 . ... : D#3 04 . ... : ... .. . ...
ROW 21 : ... .. . ... : ... .. . ... : --- 05 . ... : ... .. . ... : ... .. . ... : ... .. . ... : ... .. . ... : ... .. . ...
ROW 22 : C-4 05 . ... : D#4 05 . ... : C-2 05 . ... : ... .. . ... : ... .. . ... : ... .. . ... : ... .. . ... : ... .. . ...
ROW 23 : ... .. . ... : ... .. . ... : --- .. . ... : ... .. . ... : ... .. . ... : ... .. . ... : ... .. . ... : ... .. . ...
ROW 24 : ... .. . ... : ... .. . ... : C-2 05 . ... : ... .. . ... : ... .. . ... : ... .. . ... : ... .. . ... : G#2 04 . ...
ROW 25 : ... .. . ... : ... .. . ... : --- .. . ... : ... .. . ... : ... .. . ... : ... .. . ... : ... .. . ... : ... .. . ...
ROW 26 : ... .. . ... : ... .. . ... : C-2 05 . ... : ... .. . ... : ... .. . ... : ... .. . ... : ... .. . ... : ... .. . ...
ROW 27 : ... .. . ... : ... .. . ... : --- .. . ... : C-# 02 4 ... : ... .. . ... : ... .. . ... : ... .. . ... : ... .. . ...
ROW 28 : ... .. . ... : ... .. . ... : E-2 05 . ... : 3-# 03 A ... : ... .. . ... : C-3 04 . ... : E-3 04 . ... : ... .. . ...
ROW 29 : ... .. . ... : ... .. . ... : --- .. . ... : ... .. . ... : ... .. . ... : ... .. . ... : ... .. . ... : ... .. . ...
ROW 2A : C-4 05 . ... : E-4 05 . ... : C-2 05 . ... : ... .. . ... : ... .. . ... : ... .. . ... : ... .. . ... : ... .. . ...
ROW 2B : ... .. . ... : ... .. . ... : --- .. . ... : ... .. . ... : ... .. . ... : ... .. . ... : ... .. . ... : ... .. . ...
ROW 2C : ... .. . ... : ... .. . ... : C-2 05 . ... : ... .. . ... : ... .. . ... : ... .. . ... : ... .. . ... : A-2 04 . ...
ROW 2D : ... .. . ... : ... .. . ... : --- .. . ... : ... .. . ... : ... .. . ... : ... .. . ... : ... .. . ... : ... .. . ...
ROW 2E : ... .. . ... : ... .. . ... : C-2 05 . ... : ... .. . ... : ... .. . ... : ... .. . ... : ... .. . ... : ... .. . ...
ROW 2F : ... .. . ... : ... .. . ... : --- .. . ... : ... .. . ... : ... .. . ... : ... .. . ... : ... .. . ... : ... .. . ...
ROW 30 : ... .. . ... : ... .. . ... : D#2 05 . ... : ... .. . ... : ... .. . ... : C-3 04 . ... : D#3 04 . ... : ... .. . ...
ROW 31 : ... .. . ... : ... .. . ... : --- .. . ... : ... .. . ... : ... .. . ... : ... .. . ... : ... .. . ... : ... .. . ...
ROW 32 : C-4 05 . ... : D#4 05 . ... : C-2 05 . ... : ... .. . ... : ... .. . ... : ... .. . ... : ... .. . ... : ... .. . ...
ROW 33 : ... .. . ... : ... .. . ... : --- .. . ... : ... .. . ... : ... .. . ... : ... .. . ... : ... .. . ... : ... .. . ...
ROW 34 : ... .. . ... : ... .. . ... : C-2 05 . ... : ... .. . ... : ... .. . ... : ... .. . ... : ... .. . ... : G#2 04 . ...
ROW 35 : ... .. . ... : ... .. . ... : --- .. . ... : ... .. . ... : ... .. . ... : ... .. . ... : ... .. . ... : ... .. . ...
ROW 36 : ... .. . ... : ... .. . ... : C-2 05 . ... : ... .. . ... : ... .. . ... : ... .. . ... : ... .. . ... : ... .. . ...
ROW 37 : ... .. . ... : ... .. . ... : --- .. . ... : C-# 02 5 ... : ... .. . ... : ... .. . ... : ... .. . ... : ... .. . ...
ROW 38 : ... .. . ... : ... .. . ... : D-2 05 . ... : 3-# 03 C ... : ... .. . ... : C-3 04 . ... : D-3 04 . ... : ... .. . ...
ROW 39 : ... .. . ... : ... .. . ... : --- .. . ... : ... .. . ... : ... .. . ... : ... .. . ... : ... .. . ... : ... .. . ...
ROW 3A : C-4 05 . ... : D-4 05 . ... : C-2 05 . ... : ... .. . ... : ... .. . ... : ... .. . ... : ... .. . ... : ... .. . ...
ROW 3B : ... .. . ... : ... .. . ... : --- .. . ... : ... .. . ... : ... .. . ... : ... .. . ... : ... .. . ... : ... .. . ...
ROW 3C : ... .. . ... : ... .. . ... : C-2 05 . ... : ... .. . ... : ... .. . ... : ... .. . ... : ... .. . ... : G-2 04 . ...
ROW 3D : ... .. . ... : ... .. . ... : --- .. . ... : ... .. . ... : ... .. . ... : ... .. . ... : ... .. . ... : ... .. . ...
ROW 3E : ... .. . ... : ... .. . ... : C-2 05 . ... : ... .. . ... : ... .. . ... : ... .. . ... : ... .. . ... : ... .. . ...
ROW 3F : ... .. . ... : ... .. . ... : --- .. . ... : ... .. . ... : ... .. . ... : ... .. . ... : ... .. . ... : ... .. . ...
ROW 40 : ... .. . ... : ... .. . ... : C-1 05 . ... : ... .. . ... : ... .. . ... : C-3 04 . ... : D#3 04 . ... : ... .. . ...
ROW 41 : ... .. . ... : ... .. . ... : --- .. . ... : ... .. . ... : ... .. . ... : ... .. . ... : ... .. . ... : ... .. . ...
ROW 42 : C-4 05 . ... : D#4 05 . ... : C-2 05 . ... : ... .. . ... : ... .. . ... : ... .. . ... : ... .. . ... : ... .. . ...
ROW 43 : ... .. . ... : ... .. . ... : --- .. . ... : ... .. . ... : ... .. . ... : ... .. . ... : ... .. . ... : ... .. . ...
ROW 44 : ... .. . ... : ... .. . ... : C-2 05 . ... : ... .. . ... : ... .. . ... : ... .. . ... : ... .. . ... : G#2 04 . ...
ROW 45 : ... .. . ... : ... .. . ... : --- .. . ... : ... .. . ... : ... .. . ... : ... .. . ... : ... .. . ... : ... .. . ...
ROW 46 : ... .. . ... : ... .. . ... : C-2 05 . ... : ... .. . ... : ... .. . ... : ... .. . ... : ... .. . ... : ... .. . ...
ROW 47 : ... .. . ... : ... .. . ... : --- .. . ... : C-# 02 4 ... : ... .. . ... : ... .. . ... : ... .. . ... : ... .. . ...
ROW 48 : ... .. . ... : ... .. . ... : E-2 05 . ... : 3-# 03 A ... : ... .. . ... : C-3 04 . ... : E-3 04 . ... : ... .. . ...
ROW 49 : ... .. . ... : ... .. . ... : --- .. . ... : ... .. . ... : ... .. . ... : ... .. . ... : ... .. . ... : ... .. . ...
ROW 4A : C-4 05 . ... : E-4 05 . ... : C-2 05 . ... : ... .. . ... : ... .. . ... : ... .. . ... : ... .. . ... : ... .. . ...
ROW 4B : ... .. . ... : ... .. . ... : --- .. . ... : ... .. . ... : ... .. . ... : ... .. . ... : ... .. . ... : ... .. . ...
ROW 4C : ... .. . ... : ... .. . ... : C-2 05 . ... : ... .. . ... : ... .. . ... : ... .. . ... : ... .. . ... : A-2 04 . ...
ROW 4D : ... .. . ... : ... .. . ... : --- .. . ... : ... .. . ... : ... .. . ... : ... .. . ... : ... .. . ... : ... .. . ...
ROW 4E : ... .. . ... : ... .. . ... : C-2 05 . ... : ... .. . ... : ... .. . ... : ... .. . ... : ... .. . ... : ... .. . ...
ROW 4F : ... .. . ... : ... .. . ... : --- .. . ... : ... .. . ... : ... .. . ... : ... .. . ... : ... .. . ... : ... .. . ...
ROW 50 : ... .. . ... : ... .. . ... : D#2 05 . ... : ... .. . ... : ... .. . ... : C-3 04 . ... : D#3 04 . ... : ... .. . ...
ROW 51 : ... .. . ... : ... .. . ... : --- .. . ... : ... .. . ... : ... .. . ... : ... .. . ... : ... .. . ... : ... .. . ...
ROW 52 : C-4 05 . ... : D#4 05 . ... : C-2 05 . ... : ... .. . ... : ... .. . ... : ... .. . ... : ... .. . ... : ... .. . ...
ROW 53 : ... .. . ... : ... .. . ... : --- .. . ... : ... .. . ... : ... .. . ... : ... .. . ... : ... .. . ... : ... .. . ...
ROW 54 : ... .. . ... : ... .. . ... : C-2 05 . ... : ... .. . ... : ... .. . ... : ... .. . ... : ... .. . ... : G#2 04 . ...
ROW 55 : ... .. . ... : ... .. . ... : --- .. . ... : ... .. . ... : ... .. . ... : ... .. . ... : ... .. . ... : ... .. . ...
ROW 56 : ... .. . ... : ... .. . ... : C-2 05 . ... : ... .. . ... : ... .. . ... : ... .. . ... : ... .. . ... : ... .. . ...
ROW 57 : ... .. . ... : ... .. . ... : --- .. . ... : C-# 02 5 ... : ... .. . ... : ... .. . ... : ... .. . ... : ... .. . ...
ROW 58 : ... .. . ... : ... .. . ... : D-2 05 . ... : 3-# 03 C ... : ... .. . ... : C-3 04 . ... : D-3 04 . ... : ... .. . ...
ROW 59 : ... .. . ... : ... .. . ... : --- .. . ... : ... .. . ... : ... .. . ... : ... .. . ... : ... .. . ... : ... .. . ...
ROW 5A : C-4 05 . ... : D-4 05 . ... : C-2 05 . ... : ... .. . ... : ... .. . ... : ... .. . ... : ... .. . ... : ... .. . ...
ROW 5B : ... .. . ... : ... .. . ... : --- .. . ... : ... .. . ... : ... .. . ... : ... .. . ... : ... .. . ... : ... .. . ...
ROW 5C : ... .. . ... : ... .. . ... : C-2 05 . ... : ... .. . ... : ... .. . ... : ... .. . ... : ... .. . ... : G-2 04 . ...
ROW 5D : ... .. . ... : ... .. . ... : --- .. . ... : ... .. . ... : ... .. . ... : ... .. . ... : ... .. . ... : ... .. . ...
ROW 5E : ... .. . ... : ... .. . ... : C-2 05 . ... : ... .. . ... : ... .. . ... : ... .. . ... : ... .. . ... : ... .. . ...
ROW 5F : ... .. . ... : ... .. . ... : --- .. . ... : ... .. . ... : ... .. . ... : ... .. . ... : ... .. . ... : ... .. . ...
ROW 60 : ... .. . ... : ... .. . ... : C-1 05 . ... : ... .. . ... : ... .. . ... : C-3 04 . ... : D#3 04 . ... : ... .. . ...
ROW 61 : ... .. . ... : ... .. . ... : --- .. . ... : ... .. . ... : ... .. . ... : ... .. . ... : ... .. . ... : ... .. . ...
ROW 62 : C-4 05 . ... : D#4 05 . ... : C-2 05 . ... : ... .. . ... : ... .. . ... : ... .. . ... : ... .. . ... : ... .. . ...
ROW 63 : ... .. . ... : ... .. . ... : --- .. . ... : ... .. . ... : ... .. . ... : ... .. . ... : ... .. . ... : ... .. . ...
ROW 64 : ... .. . ... : ... .. . ... : C-2 05 . ... : ... .. . ... : ... .. . ... : ... .. . ... : ... .. . ... : C-2 04 . ...
ROW 65 : ... .. . ... : ... .. . ... : --- .. . ... : ... .. . ... : ... .. . ... : ... .. . ... : ... .. . ... : ... .. . ...
ROW 66 : ... .. . ... : ... .. . ... : C-2 05 . ... : ... .. . ... : ... .. . ... : ... .. . ... : ... .. . ... : ... .. . ...
ROW 67 : ... .. . ... : ... .. . ... : --- .. . ... : C-# 02 4 ... : ... .. . ... : ... .. . ... : ... .. . ... : ... .. . ...
ROW 68 : ... .. . ... : ... .. . ... : E-2 05 . ... : 3-# 03 A ... : ... .. . ... : C-3 04 . ... : E-3 04 . ... : ... .. . ...
ROW 69 : ... .. . ... : ... .. . ... : --- .. . ... : ... .. . ... : ... .. . ... : ... .. . ... : ... .. . ... : ... .. . ...
ROW 6A : C-4 05 . ... : E-4 05 . ... : C-2 05 . ... : ... .. . ... : ... .. . ... : ... .. . ... : ... .. . ... : ... .. . ...
ROW 6B : ... .. . ... : ... .. . ... : --- .. . ... : ... .. . ... : ... .. . ... : ... .. . ... : ... .. . ... : ... .. . ...
ROW 6C : ... .. . ... : ... .. . ... : C-2 05 . ... : ... .. . ... : ... .. . ... : ... .. . ... : ... .. . ... : A#1 04 . ...
ROW 6D : ... .. . ... : ... .. . ... : --- .. . ... : ... .. . ... : ... .. . ... : ... .. . ... : ... .. . ... : ... .. . ...
ROW 6E : ... .. . ... : ... .. . ... : C-2 05 . ... : ... .. . ... : ... .. . ... : ... .. . ... : ... .. . ... : ... .. . ...
ROW 6F : ... .. . ... : ... .. . ... : --- .. . ... : ... .. . ... : ... .. . ... : ... .. . ... : ... .. . ... : ... .. . ...
ROW 70 : ... .. . ... : ... .. . ... : F#2 05 . ... : ... .. . ... : ... .. . ... : C-3 04 . ... : F#3 04 . ... : ... .. . ...
ROW 71 : ... .. . ... : ... .. . ... : --- .. . ... : ... .. . ... : ... .. . ... : ... .. . ... : ... .. . ... : ... .. . ...
ROW 72 : C-4 05 . ... : F#4 05 . ... : C-2 05 . ... : ... .. . ... : ... .. . ... : ... .. . ... : ... .. . ... : ... .. . ...
ROW 73 : ... .. . ... : ... .. . ... : --- .. . ... : ... .. . ... : ... .. . ... : ... .. . ... : ... .. . ... : ... .. . ...
ROW 74 : ... .. . ... : ... .. . ... : C-2 05 . ... : ... .. . ... : ... .. . ... : ... .. . ... : ... .. . ... : G-1 04 . ...
ROW 75 : ... .. . ... : ... .. . ... : --- .. . ... : ... .. . ... : ... .. . ... : ... .. . ... : ... .. . ... : ... .. . ...
ROW 76 : ... .. . ... : ... .. . ... : C-2 05 . ... : ... .. . ... : ... .. . ... : ... .. . ... : ... .. . ... : ... .. . ...
ROW 77 : ... .. . ... : ... .. . ... : --- .. . ... : C-# 02 6 ... : ... .. . ... : ... .. . ... : ... .. . ... : ... .. . ...
ROW 78 : ... .. . ... : ... .. . ... : F-2 05 . ... : 3-# 03 F ... : ... .. . ... : C-3 04 . ... : F-3 04 . ... : ... .. . ...
ROW 79 : ... .. . ... : ... .. . ... : --- .. . ... : ... .. . ... : ... .. . ... : ... .. . ... : ... .. . ... : ... .. . ...
ROW 7A : C-4 05 . ... : F-4 05 . ... : C-2 05 . ... : 7-# 03 7 ... : ... .. . ... : ... .. . ... : ... .. . ... : ... .. . ...
ROW 7B : ... .. . ... : ... .. . ... : --- .. . ... : ... .. . ... : ... .. . ... : ... .. . ... : ... .. . ... : ... .. . ...
ROW 7C : ... .. . ... : ... .. . ... : C-2 05 . ... : 6-# 03 8 ... : ... .. . ... : ... .. . ... : ... .. . ... : A-1 04 . ...
ROW 7D : ... .. . ... : ... .. . ... : --- .. . ... : C-# 03 2 ... : ... .. . ... : ... .. . ... : ... .. . ... : ... .. . ...
ROW 7E : ... .. . ... : ... .. . ... : C-2 05 . ... : 3-# 03 6 ... : ... .. . ... : ... .. . ... : ... .. . ... : ... .. . ...
ROW 7F : ... .. . ... : ... .. . ... : --- .. . ... : C-# 03 2 ... : ... .. . ... : ... .. . ... : ... .. . ... : ... .. . ...

PATTERN 02
ROW 00 : ... .. . ... : ... .. . ... : C-2 05 . ... : F-# 02 8 ... : ... .. . ... : C-3 04 . ... : D#3 04 . ... : C-1 01 7 ...
ROW 01 : ... .. . ... : ... .. . ... : --- .. . ... : ... .. . ... : ... .. . ... : ... .. . ... : ... .. . ... : --- .. . ...
ROW 02 : C-4 05 4 ... : D#4 05 4 ... : C-2 05 . ... : F-# 02 2 ... : ... .. . ... : ... .. . ... : ... .. . ... : C-1 01 . ...
ROW 03 : ... .. . ... : ... .. . ... : --- .. . ... : F-# 02 4 ... : ... .. . ... : ... .. . ... : ... .. . ... : --- .. . ...
ROW 04 : ... .. . ... : ... .. . ... : C-2 05 . ... : F-# 02 6 ... : ... .. . ... : ... .. . ... : ... .. . ... : C-1 01 . ...
ROW 05 : ... .. . ... : ... .. . ... : --- .. . ... : ... .. . ... : ... .. . ... : ... .. . ... : ... .. . ... : --- .. . ...
ROW 06 : ... .. . ... : ... .. . ... : C-2 05 . ... : F-# 02 8 ... : ... .. . ... : ... .. . ... : ... .. . ... : C-1 01 . ...
ROW 07 : ... .. . ... : ... .. . ... : --- .. . ... : ... .. . ... : ... .. . ... : ... .. . ... : ... .. . ... : --- .. . ...
ROW 08 : ... .. . ... : ... .. . ... : C-3 05 . ... : 3-# 03 A ... : ... .. . ... : C-3 04 . ... : D#3 04 . ... : C-2 01 . ...
ROW 09 : ... .. . ... : ... .. . ... : --- .. . ... : ... .. . ... : ... .. . ... : ... .. . ... : ... .. . ... : --- .. . ...
ROW 0A : C-4 05 . ... : D#4 05 . ... : C-2 05 . ... : ... .. . ... : ... .. . ... : ... .. . ... : ... .. . ... : C-1 01 . ...
ROW 0B : ... .. . ... : ... .. . ... : --- .. . ... : C-# 03 3 ... : ... .. . ... : ... .. . ... : ... .. . ... : --- .. . ...
ROW 0C : ... .. . ... : ... .. . ... : C-2 05 . ... : D-# 03 8 ... : ... .. . ... : ... .. . ... : ... .. . ... : C-1 01 . ...
ROW 0D : ... .. . ... : ... .. . ... : --- .. . ... : ... .. . ... : ... .. . ... : ... .. . ... : ... .. . ... : --- .. . ...
ROW 0E : ... .. . ... : ... .. . ... : C-2 05 . ... : ... .. . ... : ... .. . ... : ... .. . ... : ... .. . ... : C-1 01 . ...
ROW 0F : ... .. . ... : ... .. . ... : --- .. . ... : ... .. . ... : ... .. . ... : ... .. . ... : ... .. . ... : --- .. . ...
ROW 10 : ... .. . ... : ... .. . ... : C-2 05 . ... : F-# 02 8 ... : ... .. . ... : C-3 04 . ... : D#3 04 . ... : C-1 01 . ...
ROW 11 : ... .. . ... : ... .. . ... : --- .. . ... : ... .. . ... : ... .. . ... : ... .. . ... : ... .. . ... : --- .. . ...
ROW 12 : C-4 05 . ... : D#4 05 . ... : C-2 05 . ... : F-# 02 2 ... : ... .. . ... : ... .. . ... : ... .. . ... : C-1 01 . ...
ROW 13 : ... .. . ... : ... .. . ... : --- .. . ... : F-# 02 4 ... : ... .. . ... : ... .. . ... : ... .. . ... : --- .. . ...
ROW 14 : ... .. . ... : ... .. . ... : C-2 05 . ... : F-# 02 6 ... : ... .. . ... : ... .. . ... : ... .. . ... : C-1 01 . ...
ROW 15 : ... .. . ... : ... .. . ... : --- .. . ... : ... .. . ... : ... .. . ... : ... .. . ... : ... .. . ... : --- .. . ...
ROW 16 : ... .. . ... : ... .. . ... : C-2 05 . ... : F-# 02 8 ... : ... .. . ... : ... .. . ... : ... .. . ... : C-1 01 . ...
ROW 17 : ... .. . ... : ... .. . ... : --- .. . ... : ... .. . ... : ... .. . ... : ... .. . ... : ... .. . ... : --- .. . ...
ROW 18 : ... .. . ... : ... .. . ... : C-3 05 . ... : 3-# 03 A ... : ... .. . ... : C-3 04 . ... : D#3 04 . ... : C-2 01 . ...
ROW 19 : ... .. . ... : ... .. . ... : --- .. . ... : ... .. . ... : ... .. . ... : ... .. . ... : ... .. . ... : --- .. . ...
ROW 1A : C-4 05 . ... : D#4 05 . ... : C-2 05 . ... : ... .. . ... : ... .. . ... : ... .. . ... : ... .. . ... : C-1 01 . ...
ROW 1B : ... .. . ... : ... .. . ... : --- .. . ... : ... .. . ... : ... .. . ... : ... .. . ... : ... .. . ... : --- .. . ...
ROW 1C : ... .. . ... : ... .. . ... : C-2 05 . ... : ... .. . ... : ... .. . ... : ... .. . ... : ... .. . ... : C-1 01 . ...
ROW 1D : ... .. . ... : ... .. . ... : --- .. . ... : ... .. . ... : ... .. . ... : ... .. . ... : ... .. . ... : --- .. . ...
ROW 1E : ... .. . ... : ... .. . ... : C-2 05 . ... : ... .. . ... : ... .. . ... : ... .. . ... : ... .. . ... : C-1 01 . ...
ROW 1F : ... .. . ... : ... .. . ... : --- .. . ... : ... .. . ... : ... .. . ... : ... .. . ... : ... .. . ... : --- .. . ...
ROW 20 : ... .. . ... : ... .. . ... : C-2 05 . ... : F-# 02 8 ... : ... .. . ... : C-3 04 . ... : D-3 04 . ... : D-1 01 . ...
ROW 21 : ... .. . ... : ... .. . ... : --- .. . ... : ... .. . ... : ... .. . ... : ... .. . ... : ... .. . ... : --- .. . ...
ROW 22 : C-4 05 . ... : D-4 05 . ... : C-2 05 . ... : F-# 02 2 ... : ... .. . ... : ... .. . ... : ... .. . ... : D-1 01 . ...
ROW 23 : ... .. . ... : ... .. . ... : --- .. . ... : F-# 02 4 ... : ... .. . ... : ... .. . ... : ... .. . ... : --- .. . ...
ROW 24 : ... .. . ... : ... .. . ... : C-2 05 . ... : F-# 02 6 ... : ... .. . ... : ... .. . ... : ... .. . ... : D-1 01 . ...
ROW 25 : ... .. . ... : ... .. . ... : --- .. . ... : ... .. . ... : ... .. . ... : ... .. . ... : ... .. . ... : --- .. . ...
ROW 26 : ... .. . ... : ... .. . ... : C-2 05 . ... : F-# 02 8 ... : ... .. . ... : ... .. . ... : ... .. . ... : D-1 01 . ...
ROW 27 : ... .. . ... : ... .. . ... : --- .. . ... : ... .. . ... : ... .. . ... : ... .. . ... : ... .. . ... : --- .. . ...
ROW 28 : ... .. . ... : ... .. . ... : C-3 05 . ... : 3-# 03 A ... : ... .. . ... : C-3 04 . ... : D-3 04 . ... : D-2 01 . ...
ROW 29 : ... .. . ... : ... .. . ... : --- .. . ... : ... .. . ... : ... .. . ... : ... .. . ... : ... .. . ... : --- .. . ...
ROW 2A : C-4 05 . ... : D-4 05 . ... : C-2 05 . ... : ... .. . ... : ... .. . ... : ... .. . ... : ... .. . ... : D-1 01 . ...
ROW 2B : ... .. . ... : ... .. . ... : --- .. . ... : C-# 03 3 ... : ... .. . ... : ... .. . ... : ... .. . ... : --- .. . ...
ROW 2C : ... .. . ... : ... .. . ... : C-2 05 . ... : D-# 03 8 ... : ... .. . ... : ... .. . ... : ... .. . ... : D-1 01 . ...
ROW 2D : ... .. . ... : ... .. . ... : --- .. . ... : ... .. . ... : ... .. . ... : ... .. . ... : ... .. . ... : --- .. . ...
ROW 2E : ... .. . ... : ... .. . ... : C-2 05 . ... : ... .. . ... : ... .. . ... : ... .. . ... : ... .. . ... : D-1 01 . ...
ROW 2F : ... .. . ... : ... .. . ... : --- .. . ... : ... .. . ... : ... .. . ... : ... .. . ... : ... .. . ... : --- .. . ...
ROW 30 : ... .. . ... : ... .. . ... : C-2 05 . ... : F-# 02 8 ... : ... .. . ... : C-3 04 . ... : G-3 04 . ... : D-1 01 . ...
ROW 31 : ... .. . ... : ... .. . ... : --- .. . ... : ... .. . ... : ... .. . ... : ... .. . ... : ... .. . ... : --- .. . ...
ROW 32 : C-4 05 . ... : G-4 05 . ... : C-2 05 . ... : F-# 02 2 ... : ... .. . ... : ... .. . ... : ... .. . ... : D-1 01 . ...
ROW 33 : ... .. . ... : ... .. . ... : --- .. . ... : F-# 02 4 ... : ... .. . ... : ... .. . ... : ... .. . ... : --- .. . ...
ROW 34 : ... .. . ... : ... .. . ... : C-2 05 . ... : F-# 02 6 ... : ... .. . ... : ... .. . ... : ... .. . ... : D-1 01 . ...
ROW 35 : ... .. . ... : ... .. . ... : --- .. . ... : ... .. . ... : ... .. . ... : ... .. . ... : ... .. . ... : --- .. . ...
ROW 36 : ... .. . ... : ... .. . ... : C-2 05 . ... : F-# 02 8 ... : ... .. . ... : ... .. . ... : ... .. . ... : D-1 01 . ...
ROW 37 : ... .. . ... : ... .. . ... : --- .. . ... : ... .. . ... : ... .. . ... : ... .. . ... : ... .. . ... : --- .. . ...
ROW 38 : ... .. . ... : ... .. . ... : C-3 05 . ... : 3-# 03 A ... : ... .. . ... : C-3 04 . ... : D-3 04 . ... : D-2 01 . ...
ROW 39 : ... .. . ... : ... .. . ... : --- .. . ... : 1-# 03 1 ... : ... .. . ... : ... .. . ... : ... .. . ... : --- .. . ...
ROW 3A : C-4 05 . ... : D-4 05 . ... : C-2 05 . ... : 1-# 03 2 ... : ... .. . ... : ... .. . ... : ... .. . ... : D-1 01 . ...
ROW 3B : ... .. . ... : ... .. . ... : --- .. . ... : 1-# 03 3 ... : ... .. . ... : ... .. . ... : ... .. . ... : --- .. . ...
ROW 3C : ... .. . ... : ... .. . ... : C-2 05 . ... : 1-# 03 4 ... : ... .. . ... : ... .. . ... : ... .. . ... : D-1 01 . ...
ROW 3D : ... .. . ... : ... .. . ... : --- .. . ... : 1-# 03 5 ... : ... .. . ... : ... .. . ... : ... .. . ... : --- .. . ...
ROW 3E : ... .. . ... : ... .. . ... : C-2 05 . ... : 1-# 03 6 ... : ... .. . ... : ... .. . ... : ... .. . ... : D-1 01 . ...
ROW 3F : ... .. . ... : ... .. . ... : --- .. . ... : 1-# 03 7 ... : ... .. . ... : ... .. . ... : ... .. . ... : --- .. . ...
ROW 40 : ... .. . ... : ... .. . ... : C-2 05 . ... : F-# 02 8 ... : ... .. . ... : C-3 04 . ... : D#3 04 . ... : D#1 01 . ...
ROW 41 : ... .. . ... : ... .. . ... : --- .. . ... : ... .. . ... : ... .. . ... : ... .. . ... : ... .. . ... : --- .. . ...
ROW 42 : C-4 05 . ... : D#4 05 . ... : C-2 05 . ... : F-# 02 2 ... : ... .. . ... : ... .. . ... : ... .. . ... : D#1 01 . ...
ROW 43 : ... .. . ... : ... .. . ... : --- .. . ... : F-# 02 4 ... : ... .. . ... : ... .. . ... : ... .. . ... : --- .. . ...
ROW 44 : ... .. . ... : ... .. . ... : C-2 05 . ... : F-# 02 6 ... : ... .. . ... : ... .. . ... : ... .. . ... : D#1 01 . ...
ROW 45 : ... .. . ... : ... .. . ... : --- .. . ... : ... .. . ... : ... .. . ... : ... .. . ... : ... .. . ... : --- .. . ...
ROW 46 : ... .. . ... : ... .. . ... : C-2 05 . ... : F-# 02 8 ... : ... .. . ... : ... .. . ... : ... .. . ... : D#1 01 . ...
ROW 47 : ... .. . ... : ... .. . ... : --- .. . ... : ... .. . ... : ... .. . ... : ... .. . ... : ... .. . ... : --- .. . ...
ROW 48 : ... .. . ... : ... .. . ... : C-3 05 . ... : 3-# 03 A ... : ... .. . ... : C-3 04 . ... : D#3 04 . ... : D#2 01 . ...
ROW 49 : ... .. . ... : ... .. . ... : --- .. . ... : ... .. . ... : ... .. . ... : ... .. . ... : ... .. . ... : --- .. . ...
ROW 4A : C-4 05 . ... : D#4 05 . ... : C-2 05 . ... : ... .. . ... : ... .. . ... : ... .. . ... : ... .. . ... : D#1 01 . ...
ROW 4B : ... .. . ... : ... .. . ... : --- .. . ... : C-# 03 3 ... : ... .. . ... : ... .. . ... : ... .. . ... : --- .. . ...
ROW 4C : ... .. . ... : ... .. . ... : C-2 05 . ... : D-# 03 8 ... : ... .. . ... : ... .. . ... : ... .. . ... : D#1 01 . ...
ROW 4D : ... .. . ... : ... .. . ... : --- .. . ... : ... .. . ... : ... .. . ... : ... .. . ... : ... .. . ... : --- .. . ...
ROW 4E : ... .. . ... : ... .. . ... : C-2 05 . ... : ... .. . ... : ... .. . ... : ... .. . ... : ... .. . ... : D#1 01 . ...
ROW 4F : ... .. . ... : ... .. . ... : --- .. . ... : ... .. . ... : ... .. . ... : ... .. . ... : ... .. . ... : --- .. . ...
ROW 50 : ... .. . ... : ... .. . ... : C-2 05 . ... : F-# 02 8 ... : ... .. . ... : C-3 04 . ... : E-3 04 . ... : E-1 01 . ...
ROW 51 : ... .. . ... : ... .. . ... : --- .. . ... : ... .. . ... : ... .. . ... : ... .. . ... : ... .. . ... : --- .. . ...
ROW 52 : C-4 05 . ... : E-4 05 . ... : C-2 05 . ... : F-# 02 2 ... : ... .. . ... : ... .. . ... : ... .. . ... : E-1 01 . ...
ROW 53 : ... .. . ... : ... .. . ... : --- .. . ... : F-# 02 4 ... : ... .. . ... : ... .. . ... : ... .. . ... : --- .. . ...
ROW 54 : ... .. . ... : ... .. . ... : C-2 05 . ... : F-# 02 6 ... : ... .. . ... : ... .. . ... : ... .. . ... : E-1 01 . ...
ROW 55 : ... .. . ... : ... .. . ... : --- .. . ... : ... .. . ... : ... .. . ... : ... .. . ... : ... .. . ... : --- .. . ...
ROW 56 : ... .. . ... : ... .. . ... : C-2 05 . ... : F-# 02 8 ... : ... .. . ... : ... .. . ... : ... .. . ... : E-1 01 . ...
ROW 57 : ... .. . ... : ... .. . ... : --- .. . ... : ... .. . ... : ... .. . ... : ... .. . ... : ... .. . ... : --- .. . ...
ROW 58 : ... .. . ... : ... .. . ... : C-3 05 . ... : 3-# 03 A ... : ... .. . ... : C-3 04 . ... : E-3 04 . ... : E-2 01 . ...
ROW 59 : ... .. . ... : ... .. . ... : --- .. . ... : ... .. . ... : ... .. . ... : ... .. . ... : ... .. . ... : --- .. . ...
ROW 5A : C-4 05 . ... : E-4 05 . ... : C-2 05 . ... : ... .. . ... : ... .. . ... : ... .. . ... : ... .. . ... : E-1 01 . ...
ROW 5B : ... .. . ... : ... .. . ... : --- .. . ... : ... .. . ... : ... .. . ... : ... .. . ... : ... .. . ... : --- .. . ...
ROW 5C : ... .. . ... : ... .. . ... : C-2 05 . ... : ... .. . ... : ... .. . ... : ... .. . ... : ... .. . ... : E-1 01 . ...
ROW 5D : ... .. . ... : ... .. . ... : --- .. . ... : ... .. . ... : ... .. . ... : ... .. . ... : ... .. . ... : --- .. . ...
ROW 5E : ... .. . ... : ... .. . ... : C-2 05 . ... : ... .. . ... : ... .. . ... : ... .. . ... : ... .. . ... : E-1 01 . ...
ROW 5F : ... .. . ... : ... .. . ... : --- .. . ... : ... .. . ... : ... .. . ... : ... .. . ... : ... .. . ... : --- .. . ...
ROW 60 : ... .. . ... : ... .. . ... : C-2 05 . ... : F-# 02 8 ... : ... .. . ... : C-3 04 . ... : D#3 04 . ... : D#1 01 . ...
ROW 61 : ... .. . ... : ... .. . ... : --- .. . ... : ... .. . ... : ... .. . ... : ... .. . ... : ... .. . ... : --- .. . ...
ROW 62 : C-4 05 . ... : D#4 05 . ... : C-2 05 . ... : F-# 02 2 ... : ... .. . ... : ... .. . ... : ... .. . ... : D#1 01 . ...
ROW 63 : ... .. . ... : ... .. . ... : --- .. . ... : F-# 02 4 ... : ... .. . ... : ... .. . ... : ... .. . ... : --- .. . ...
ROW 64 : ... .. . ... : ... .. . ... : C-2 05 . ... : F-# 02 6 ... : ... .. . ... : ... .. . ... : ... .. . ... : D#1 01 . ...
ROW 65 : ... .. . ... : ... .. . ... : --- .. . ... : ... .. . ... : ... .. . ... : ... .. . ... : ... .. . ... : --- .. . ...
ROW 66 : ... .. . ... : ... .. . ... : C-2 05 . ... : F-# 02 8 ... : ... .. . ... : ... .. . ... : ... .. . ... : D#1 01 . ...
ROW 67 : ... .. . ... : ... .. . ... : --- .. . ... : ... .. . ... : ... .. . ... : ... .. . ... : ... .. . ... : --- .. . ...
ROW 68 : ... .. . ... : ... .. . ... : C-3 05 . ... : 3-# 03 A ... : ... .. . ... : C-3 04 . ... : D#3 04 . ... : D#2 01 . ...
ROW 69 : ... .. . ... : ... .. . ... : --- .. . ... : ... .. . ... : ... .. . ... : ... .. . ... : ... .. . ... : --- .. . ...
ROW 6A : C-4 05 . ... : D#4 05 . ... : C-2 05 . ... : ... .. . ... : ... .. . ... : ... .. . ... : ... .. . ... : D#1 01 . ...
ROW 6B : ... .. . ... : ... .. . ... : --- .. . ... : C-# 03 3 ... : ... .. . ... : ... .. . ... : ... .. . ... : --- .. . ...
ROW 6C : ... .. . ... : ... .. . ... : C-2 05 . ... : D-# 03 8 ... : ... .. . ... : ... .. . ... : ... .. . ... : D#1 01 . ...
ROW 6D : ... .. . ... : ... .. . ... : --- .. . ... : ... .. . ... : ... .. . ... : ... .. . ... : ... .. . ... : --- .. . ...
ROW 6E : ... .. . ... : ... .. . ... : C-2 05 . ... : ... .. . ... : ... .. . ... : ... .. . ... : ... .. . ... : D#1 01 . ...
ROW 6F : ... .. . ... : ... .. . ... : --- .. . ... : ... .. . ... : ... .. . ... : ... .. . ... : ... .. . ... : --- .. . ...
ROW 70 : ... .. . ... : ... .. . ... : C-2 05 . ... : F-# 02 8 ... : ... .. . ... : D#3 04 . ... : F#3 04 . ... : C-1 01 . ...
ROW 71 : ... .. . ... : ... .. . ... : --- .. . ... : ... .. . ... : ... .. . ... : ... .. . ... : ... .. . ... : --- .. . ...
ROW 72 : D#4 05 . ... : F#4 05 . ... : C-2 05 . ... : F-# 02 2 ... : ... .. . ... : ... .. . ... : ... .. . ... : D#1 01 . ...
ROW 73 : ... .. . ... : ... .. . ... : --- .. . ... : F-# 02 4 ... : ... .. . ... : ... .. . ... : ... .. . ... : --- 01 . ...
ROW 74 : ... .. . ... : ... .. . ... : C-2 05 . ... : F-# 02 6 ... : ... .. . ... : ... .. . ... : ... .. . ... : D#1 01 . ...
ROW 75 : ... .. . ... : ... .. . ... : --- .. . ... : ... .. . ... : ... .. . ... : ... .. . ... : ... .. . ... : --- .. . ...
ROW 76 : ... .. . ... : ... .. . ... : C-2 05 . ... : F-# 02 8 ... : ... .. . ... : ... .. . ... : ... .. . ... : D#1 01 . ...
ROW 77 : ... .. . ... : ... .. . ... : --- .. . ... : ... .. . ... : ... .. . ... : ... .. . ... : ... .. . ... : --- .. . ...
ROW 78 : ... .. . ... : ... .. . ... : C-3 05 . ... : 3-# 03 A ... : ... .. . ... : D#3 04 . ... : G-3 04 . ... : C-2 01 . ...
ROW 79 : ... .. . ... : ... .. . ... : --- .. . ... : ... .. . ... : ... .. . ... : ... .. . ... : ... .. . ... : --- .. . ...
ROW 7A : D#4 05 . ... : G-4 05 . ... : C-2 05 . ... : 0-# 02 4 ... : ... .. . ... : ... .. . ... : ... .. . ... : D#1 01 . ...
ROW 7B : ... .. . ... : ... .. . ... : --- .. . ... : ... .. . ... : ... .. . ... : ... .. . ... : ... .. . ... : --- .. . ...
ROW 7C : ... .. . ... : ... .. . ... : C-2 05 . ... : 0-# 02 6 ... : ... .. . ... : ... .. . ... : ... .. . ... : C-1 01 . ...
ROW 7D : ... .. . ... : ... .. . ... : --- .. . ... : ... .. . ... : ... .. . ... : ... .. . ... : ... .. . ... : --- .. . ...
ROW 7E : ... .. . ... : ... .. . ... : C-2 05 . ... : 0-# 03 8 ... : ... .. . ... : ... .. . ... : ... .. . ... : D#1 01 . ...
ROW 7F : ... .. . ... : ... .. . ... : --- .. . ... : ... .. . ... : ... .. . ... : ... .. . ... : ... .. . ... : --- .. . ...

PATTERN 03
ROW 00 : ... .. . ... : ... .. . ... : C-2 05 . ... : F-# 02 8 ... : ... .. . ... : C-3 04 . ... : D#3 04 . ... : C-1 01 7 ...
ROW 01 : ... .. . ... : ... .. . ... : --- .. . ... : ... .. . ... : ... .. . ... : ... .. . ... : ... .. . ... : --- .. . ...
ROW 02 : C-4 05 4 ... : D#4 05 4 ... : C-2 05 . ... : F-# 02 2 ... : ... .. . ... : ... .. . ... : ... .. . ... : C-1 01 . ...
ROW 03 : ... .. . ... : ... .. . ... : --- .. . ... : F-# 02 4 ... : ... .. . ... : ... .. . ... : ... .. . ... : --- .. . ...
ROW 04 : ... .. . ... : ... .. . ... : C-2 05 . ... : F-# 02 6 ... : ... .. . ... : ... .. . ... : ... .. . ... : C-1 01 . ...
ROW 05 : ... .. . ... : ... .. . ... : --- .. . ... : ... .. . ... : ... .. . ... : ... .. . ... : ... .. . ... : --- .. . ...
ROW 06 : ... .. . ... : ... .. . ... : C-2 05 . ... : F-# 02 8 ... : ... .. . ... : ... .. . ... : ... .. . ... : C-1 01 . ...
ROW 07 : ... .. . ... : ... .. . ... : --- .. . ... : ... .. . ... : ... .. . ... : ... .. . ... : ... .. . ... : --- .. . ...
ROW 08 : ... .. . ... : ... .. . ... : C-3 05 . ... : 3-# 03 A ... : ... .. . ... : C-3 04 . ... : D#3 04 . ... : C-2 01 . ...
ROW 09 : ... .. . ... : ... .. . ... : --- .. . ... : ... .. . ... : ... .. . ... : ... .. . ... : ... .. . ... : --- .. . ...
ROW 0A : C-4 05 . ... : D#4 05 . ... : C-2 05 . ... : ... .. . ... : ... .. . ... : ... .. . ... : ... .. . ... : C-1 01 . ...
ROW 0B : ... .. . ... : ... .. . ... : --- .. . ... : C-# 03 3 ... : ... .. . ... : ... .. . ... : ... .. . ... : --- .. . ...
ROW 0C : ... .. . ... : ... .. . ... : C-2 05 . ... : D-# 03 8 ... : ... .. . ... : ... .. . ... : ... .. . ... : C-1 01 . ...
ROW 0D : ... .. . ... : ... .. . ... : --- .. . ... : ... .. . ... : ... .. . ... : ... .. . ... : ... .. . ... : --- .. . ...
ROW 0E : ... .. . ... : ... .. . ... : C-2 05 . ... : ... .. . ... : ... .. . ... : ... .. . ... : ... .. . ... : C-1 01 . ...
ROW 0F : ... .. . ... : ... .. . ... : --- .. . ... : ... .. . ... : ... .. . ... : ... .. . ... : ... .. . ... : --- .. . ...
ROW 10 : ... .. . ... : ... .. . ... : C-2 05 . ... : F-# 02 8 ... : ... .. . ... : C-3 04 . ... : D#3 04 . ... : C-1 01 . ...
ROW 11 : ... .. . ... : ... .. . ... : --- .. . ... : ... .. . ... : ... .. . ... : ... .. . ... : ... .. . ... : --- .. . ...
ROW 12 : C-4 05 . ... : D#4 05 . ... : C-2 05 . ... : F-# 02 2 ... : ... .. . ... : ... .. . ... : ... .. . ... : C-1 01 . ...
ROW 13 : ... .. . ... : ... .. . ... : --- .. . ... : F-# 02 4 ... : ... .. . ... : ... .. . ... : ... .. . ... : --- .. . ...
ROW 14 : ... .. . ... : ... .. . ... : C-2 05 . ... : F-# 02 6 ... : ... .. . ... : ... .. . ... : ... .. . ... : C-1 01 . ...
ROW 15 : ... .. . ... : ... .. . ... : --- .. . ... : ... .. . ... : ... .. . ... : ... .. . ... : ... .. . ... : --- .. . ...
ROW 16 : ... .. . ... : ... .. . ... : C-2 05 . ... : F-# 02 8 ... : ... .. . ... : ... .. . ... : ... .. . ... : C-1 01 . ...
ROW 17 : ... .. . ... : ... .. . ... : --- .. . ... : ... .. . ... : ... .. . ... : ... .. . ... : ... .. . ... : --- .. . ...
ROW 18 : ... .. . ... : ... .. . ... : C-3 05 . ... : 3-# 03 A ... : ... .. . ... : C-3 04 . ... : D#3 04 . ... : C-2 01 . ...
ROW 19 : ... .. . ... : ... .. . ... : --- .. . ... : ... .. . ... : ... .. . ... : ... .. . ... : ... .. . ... : --- .. . ...
ROW 1A : C-4 05 . ... : D#4 05 . ... : C-2 05 . ... : ... .. . ... : ... .. . ... : ... .. . ... : ... .. . ... : C-1 01 . ...
ROW 1B : ... .. . ... : ... .. . ... : --- .. . ... : ... .. . ... : ... .. . ... : ... .. . ... : ... .. . ... : --- .. . ...
ROW 1C : ... .. . ... : ... .. . ... : C-2 05 . ... : ... .. . ... : ... .. . ... : ... .. . ... : ... .. . ... : C-1 01 . ...
ROW 1D : ... .. . ... : ... .. . ... : --- .. . ... : ... .. . ... : ... .. . ... : ... .. . ... : ... .. . ... : --- .. . ...
ROW 1E : ... .. . ... : ... .. . ... : C-2 05 . ... : ... .. . ... : ... .. . ... : ... .. . ... : ... .. . ... : C-1 01 . ...
ROW 1F : ... .. . ... : ... .. . ... : --- .. . ... : ... .. . ... : ... .. . ... : ... .. . ... : ... .. . ... : --- .. . ...
ROW 20 : ... .. . ... : ... .. . ... : C-2 05 . ... : F-# 02 8 ... : ... .. . ... : C-3 04 . ... : D-3 04 . ... : D-1 01 . ...
ROW 21 : ... .. . ... : ... .. . ... : --- .. . ... : ... .. . ... : ... .. . ... : ... .. . ... : ... .. . ... : --- .. . ...
ROW 22 : C-4 05 . ... : D-4 05 . ... : C-2 05 . ... : F-# 02 2 ... : ... .. . ... : ... .. . ... : ... .. . ... : D-1 01 . ...
ROW 23 : ... .. . ... : ... .. . ... : --- .. . ... : F-# 02 4 ... : ... .. . ... : ... .. . ... : ... .. . ... : --- .. . ...
ROW 24 : ... .. . ... : ... .. . ... : C-2 05 . ... : F-# 02 6 ... : ... .. . ... : ... .. . ... : ... .. . ... : D-1 01 . ...
ROW 25 : ... .. . ... : ... .. . ... : --- .. . ... : ... .. . ... : ... .. . ... : ... .. . ... : ... .. . ... : --- .. . ...
ROW 26 : ... .. . ... : ... .. . ... : C-2 05 . ... : F-# 02 8 ... : ... .. . ... : ... .. . ... : ... .. . ... : D-1 01 . ...
ROW 27 : ... .. . ... : ... .. . ... : --- .. . ... : ... .. . ... : ... .. . ... : ... .. . ... : ... .. . ... : --- .. . ...
ROW 28 : ... .. . ... : ... .. . ... : C-3 05 . ... : 3-# 03 A ... : ... .. . ... : C-3 04 . ... : D-3 04 . ... : D-2 01 . ...
ROW 29 : ... .. . ... : ... .. . ... : --- .. . ... : ... .. . ... : ... .. . ... : ... .. . ... : ... .. . ... : --- .. . ...
ROW 2A : C-4 05 . ... : D-4 05 . ... : C-2 05 . ... : ... .. . ... : ... .. . ... : ... .. . ... : ... .. . ... : D-1 01 . ...
ROW 2B : ... .. . ... : ... .. . ... : --- .. . ... : C-# 03 3 ... : ... .. . ... : ... .. . ... : ... .. . ... : --- .. . ...
ROW 2C : ... .. . ... : ... .. . ... : C-2 05 . ... : D-# 03 8 ... : ... .. . ... : ... .. . ... : ... .. . ... : D-1 01 . ...
ROW 2D : ... .. . ... : ... .. . ... : --- .. . ... : ... .. . ... : ... .. . ... : ... .. . ... : ... .. . ... : --- .. . ...
ROW 2E : ... .. . ... : ... .. . ... : C-2 05 . ... : ... .. . ... : ... .. . ... : ... .. . ... : ... .. . ... : D-1 01 . ...
ROW 2F : ... .. . ... : ... .. . ... : --- .. . ... : ... .. . ... : ... .. . ... : ... .. . ... : ... .. . ... : --- .. . ...
ROW 30 : ... .. . ... : ... .. . ... : C-2 05 . ... : F-# 02 8 ... : ... .. . ... : C-3 04 . ... : G-3 04 . ... : D-1 01 . ...
ROW 31 : ... .. . ... : ... .. . ... : --- .. . ... : ... .. . ... : ... .. . ... : ... .. . ... : ... .. . ... : --- .. . ...
ROW 32 : C-4 05 . ... : G-4 05 . ... : C-2 05 . ... : F-# 02 2 ... : ... .. . ... : ... .. . ... : ... .. . ... : D-1 01 . ...
ROW 33 : ... .. . ... : ... .. . ... : --- .. . ... : F-# 02 4 ... : ... .. . ... : ... .. . ... : ... .. . ... : --- .. . ...
ROW 34 : ... .. . ... : ... .. . ... : C-2 05 . ... : F-# 02 6 ... : ... .. . ... : ... .. . ... : ... .. . ... : D-1 01 . ...
ROW 35 : ... .. . ... : ... .. . ... : --- .. . ... : ... .. . ... : ... .. . ... : ... .. . ... : ... .. . ... : --- .. . ...
ROW 36 : ... .. . ... : ... .. . ... : C-2 05 . ... : F-# 02 8 ... : ... .. . ... : ... .. . ... : ... .. . ... : D-1 01 . ...
ROW 37 : ... .. . ... : ... .. . ... : --- .. . ... : ... .. . ... : ... .. . ... : ... .. . ... : ... .. . ... : --- .. . ...
ROW 38 : ... .. . ... : ... .. . ... : C-3 05 . ... : 3-# 03 A ... : ... .. . ... : C-3 04 . ... : D-3 04 . ... : D-2 01 . ...
ROW 39 : ... .. . ... : ... .. . ... : --- .. . ... : 1-# 03 1 ... : ... .. . ... : ... .. . ... : ... .. . ... : --- .. . ...
ROW 3A : C-4 05 . ... : D-4 05 . ... : C-2 05 . ... : 1-# 03 2 ... : ... .. . ... : ... .. . ... : ... .. . ... : D-1 01 . ...
ROW 3B : ... .. . ... : ... .. . ... : --- .. . ... : 1-# 03 3 ... : ... .. . ... : ... .. . ... : ... .. . ... : --- .. . ...
ROW 3C : ... .. . ... : ... .. . ... : C-2 05 . ... : 1-# 03 4 ... : ... .. . ... : ... .. . ... : ... .. . ... : D-1 01 . ...
ROW 3D : ... .. . ... : ... .. . ... : --- .. . ... : 1-# 03 5 ... : ... .. . ... : ... .. . ... : ... .. . ... : --- .. . ...
ROW 3E : ... .. . ... : ... .. . ... : C-2 05 . ... : 1-# 03 6 ... : ... .. . ... : ... .. . ... : ... .. . ... : D-1 01 . ...
ROW 3F : ... .. . ... : ... .. . ... : --- .. . ... : 1-# 03 7 ... : ... .. . ... : ... .. . ... : ... .. . ... : --- .. . ...
ROW 40 : ... .. . ... : ... .. . ... : C-2 05 . ... : F-# 02 8 ... : ... .. . ... : C-3 04 . ... : D#3 04 . ... : D#1 01 . ...
ROW 41 : ... .. . ... : ... .. . ... : --- .. . ... : ... .. . ... : ... .. . ... : ... .. . ... : ... .. . ... : --- .. . ...
ROW 42 : C-4 05 . ... : D#4 05 . ... : C-2 05 . ... : F-# 02 2 ... : ... .. . ... : ... .. . ... : ... .. . ... : D#1 01 . ...
ROW 43 : ... .. . ... : ... .. . ... : --- .. . ... : F-# 02 4 ... : ... .. . ... : ... .. . ... : ... .. . ... : --- .. . ...
ROW 44 : ... .. . ... : ... .. . ... : C-2 05 . ... : F-# 02 6 ... : ... .. . ... : ... .. . ... : ... .. . ... : D#1 01 . ...
ROW 45 : ... .. . ... : ... .. . ... : --- .. . ... : ... .. . ... : ... .. . ... : ... .. . ... : ... .. . ... : --- .. . ...
ROW 46 : ... .. . ... : ... .. . ... : C-2 05 . ... : F-# 02 8 ... : ... .. . ... : ... .. . ... : ... .. . ... : D#1 01 . ...
ROW 47 : ... .. . ... : ... .. . ... : --- .. . ... : ... .. . ... : ... .. . ... : ... .. . ... : ... .. . ... : --- .. . ...
ROW 48 : ... .. . ... : ... .. . ... : C-3 05 . ... : 3-# 03 A ... : ... .. . ... : C-3 04 . ... : D#3 04 . ... : D#2 01 . ...
ROW 49 : ... .. . ... : ... .. . ... : --- .. . ... : ... .. . ... : ... .. . ... : ... .. . ... : ... .. . ... : --- .. . ...
ROW 4A : C-4 05 . ... : D#4 05 . ... : C-2 05 . ... : ... .. . ... : ... .. . ... : ... .. . ... : ... .. . ... : D#1 01 . ...
ROW 4B : ... .. . ... : ... .. . ... : --- .. . ... : C-# 03 3 ... : ... .. . ... : ... .. . ... : ... .. . ... : --- .. . ...
ROW 4C : ... .. . ... : ... .. . ... : C-2 05 . ... : D-# 03 8 ... : ... .. . ... : ... .. . ... : ... .. . ... : D#1 01 . ...
ROW 4D : ... .. . ... : ... .. . ... : --- .. . ... : ... .. . ... : ... .. . ... : ... .. . ... : ... .. . ... : --- .. . ...
ROW 4E : ... .. . ... : ... .. . ... : C-2 05 . ... : ... .. . ... : ... .. . ... : ... .. . ... : ... .. . ... : D#1 01 . ...
ROW 4F : ... .. . ... : ... .. . ... : --- .. . ... : ... .. . ... : ... .. . ... : ... .. . ... : ... .. . ... : --- .. . ...
ROW 50 : ... .. . ... : ... .. . ... : C-2 05 . ... : F-# 02 8 ... : ... .. . ... : C-3 04 . ... : E-3 04 . ... : E-1 01 . ...
ROW 51 : ... .. . ... : ... .. . ... : --- .. . ... : ... .. . ... : ... .. . ... : ... .. . ... : ... .. . ... : --- .. . ...
ROW 52 : C-4 05 . ... : E-4 05 . ... : C-2 05 . ... : F-# 02 2 ... : ... .. . ... : ... .. . ... : ... .. . ... : E-1 01 . ...
ROW 53 : ... .. . ... : ... .. . ... : --- .. . ... : F-# 02 4 ... : ... .. . ... : ... .. . ... : ... .. . ... : --- .. . ...
ROW 54 : ... .. . ... : ... .. . ... : C-2 05 . ... : F-# 02 6 ... : ... .. . ... : ... .. . ... : ... .. . ... : E-1 01 . ...
ROW 55 : ... .. . ... : ... .. . ... : --- .. . ... : ... .. . ... : ... .. . ... : ... .. . ... : ... .. . ... : --- .. . ...
ROW 56 : ... .. . ... : ... .. . ... : C-2 05 . ... : F-# 02 8 ... : ... .. . ... : ... .. . ... : ... .. . ... : E-1 01 . ...
ROW 57 : ... .. . ... : ... .. . ... : --- .. . ... : ... .. . ... : ... .. . ... : ... .. . ... : ... .. . ... : --- .. . ...
ROW 58 : ... .. . ... : ... .. . ... : C-3 05 . ... : 3-# 03 A ... : ... .. . ... : C-3 04 . ... : E-3 04 . ... : E-2 01 . ...
ROW 59 : ... .. . ... : ... .. . ... : --- .. . ... : ... .. . ... : ... .. . ... : ... .. . ... : ... .. . ... : --- .. . ...
ROW 5A : C-4 05 . ... : E-4 05 . ... : C-2 05 . ... : ... .. . ... : ... .. . ... : ... .. . ... : ... .. . ... : E-1 01 . ...
ROW 5B : ... .. . ... : ... .. . ... : --- .. . ... : ... .. . ... : ... .. . ... : ... .. . ... : ... .. . ... : --- .. . ...
ROW 5C : ... .. . ... : ... .. . ... : C-2 05 . ... : ... .. . ... : ... .. . ... : ... .. . ... : ... .. . ... : E-1 01 . ...
ROW 5D : ... .. . ... : ... .. . ... : --- .. . ... : ... .. . ... : ... .. . ... : ... .. . ... : ... .. . ... : --- .. . ...
ROW 5E : ... .. . ... : ... .. . ... : C-2 05 . ... : ... .. . ... : ... .. . ... : ... .. . ... : ... .. . ... : E-1 01 . ...
ROW 5F : ... .. . ... : ... .. . ... : --- .. . ... : ... .. . ... : ... .. . ... : ... .. . ... : ... .. . ... : --- .. . ...
ROW 60 : ... .. . ... : ... .. . ... : C-2 05 . ... : F-# 02 8 ... : ... .. . ... : C-3 04 . ... : F-3 04 . ... : D#1 01 . ...
ROW 61 : ... .. . ... : ... .. . ... : --- .. . ... : ... .. . ... : ... .. . ... : ... .. . ... : ... .. . ... : --- .. . ...
ROW 62 : C-4 05 . ... : F-4 05 . ... : C-2 05 . ... : F-# 02 2 ... : ... .. . ... : ... .. . ... : ... .. . ... : D#1 01 . ...
ROW 63 : ... .. . ... : ... .. . ... : --- .. . ... : F-# 02 4 ... : ... .. . ... : ... .. . ... : ... .. . ... : --- .. . ...
ROW 64 : ... .. . ... : ... .. . ... : C-2 05 . ... : F-# 02 6 ... : ... .. . ... : ... .. . ... : ... .. . ... : D#1 01 . ...
ROW 65 : ... .. . ... : ... .. . ... : --- .. . ... : ... .. . ... : ... .. . ... : ... .. . ... : ... .. . ... : --- .. . ...
ROW 66 : ... .. . ... : ... .. . ... : C-2 05 . ... : F-# 02 8 ... : ... .. . ... : ... .. . ... : ... .. . ... : D#1 01 . ...
ROW 67 : ... .. . ... : ... .. . ... : --- .. . ... : ... .. . ... : ... .. . ... : ... .. . ... : ... .. . ... : --- .. . ...
ROW 68 : ... .. . ... : ... .. . ... : C-3 05 . ... : 3-# 03 A ... : ... .. . ... : C-3 04 . ... : F-3 04 . ... : D#2 01 . ...
ROW 69 : ... .. . ... : ... .. . ... : --- .. . ... : ... .. . ... : ... .. . ... : ... .. . ... : ... .. . ... : --- .. . ...
ROW 6A : C-4 05 . ... : F-4 05 . ... : C-2 05 . ... : ... .. . ... : ... .. . ... : ... .. . ... : ... .. . ... : D#1 01 . ...
ROW 6B : ... .. . ... : ... .. . ... : --- .. . ... : C-# 03 3 ... : ... .. . ... : ... .. . ... : ... .. . ... : --- .. . ...
ROW 6C : ... .. . ... : ... .. . ... : C-2 05 . ... : D-# 03 8 ... : ... .. . ... : ... .. . ... : ... .. . ... : D#1 01 . ...
ROW 6D : ... .. . ... : ... .. . ... : --- .. . ... : ... .. . ... : ... .. . ... : ... .. . ... : ... .. . ... : --- .. . ...
ROW 6E : ... .. . ... : ... .. . ... : C-2 05 . ... : ... .. . ... : ... .. . ... : ... .. . ... : ... .. . ... : D#1 01 . ...
ROW 6F : ... .. . ... : ... .. . ... : --- .. . ... : ... .. . ... : ... .. . ... : ... .. . ... : ... .. . ... : --- .. . ...
ROW 70 : ... .. . ... : ... .. . ... : G-2 05 . ... : F-# 02 8 ... : ... .. . ... : B-2 04 . ... : D-3 04 . ... : C-1 01 . ...
ROW 71 : ... .. . ... : ... .. . ... : --- .. . ... : ... .. . ... : ... .. . ... : ... .. . ... : ... .. . ... : --- .. . ...
ROW 72 : ... .. . ... : D-4 05 . ... : G-2 05 . ... : F-# 02 2 ... : ... .. . ... : ... .. . ... : ... .. . ... : D#1 01 . ...
ROW 73 : ... .. . ... : ... .. . ... : --- .. . ... : F-# 02 4 ... : ... .. . ... : ... .. . ... : ... .. . ... : --- 01 . ...
ROW 74 : G-3 05 F ... : ... .. . ... : G-2 05 . ... : F-# 02 6 ... : ... .. . ... : ... .. . ... : ... .. . ... : D#1 01 . ...
ROW 75 : ... .. . ... : ... .. . ... : --- .. . ... : ... .. . ... : ... .. . ... : ... .. . ... : ... .. . ... : --- .. . ...
ROW 76 : ... .. . ... : ... .. . ... : G-2 05 . ... : F-# 02 8 ... : ... .. . ... : ... .. . ... : ... .. . ... : D#1 01 . ...
ROW 77 : ... .. . ... : ... .. . ... : --- .. . ... : ... .. . ... : ... .. . ... : ... .. . ... : ... .. . ... : --- .. . ...
ROW 78 : C-4 05 . ... : ... .. . ... : G-3 05 . ... : 3-# 03 A ... : ... .. . ... : B-2 04 . ... : D-3 04 . ... : C-2 01 . ...
ROW 79 : ... .. . ... : ... .. . ... : --- .. . ... : ... .. . ... : ... .. . ... : ... .. . ... : ... .. . ... : --- .. . ...
ROW 7A : D-4 05 . ... : D-4 05 . ... : G-2 05 . ... : 0-# 02 4 ... : ... .. . ... : ... .. . ... : ... .. . ... : D#1 01 . ...
ROW 7B : ... .. . ... : ... .. . ... : --- .. . ... : ... .. . ... : ... .. . ... : ... .. . ... : ... .. . ... : --- .. . ...
ROW 7C : ... .. . ... : ... .. . ... : G-2 05 . ... : 0-# 02 6 ... : ... .. . ... : ... .. . ... : ... .. . ... : C-1 01 . ...
ROW 7D : ... .. . ... : ... .. . ... : --- .. . ... : ... .. . ... : ... .. . ... : ... .. . ... : ... .. . ... : --- .. . ...
ROW 7E : ... .. . ... : ... .. . ... : G-2 05 . ... : 0-# 03 8 ... : ... .. . ... : ... .. . ... : ... .. . ... : D#1 01 . ...
ROW 7F : ... .. . ... : ... .. . ... : --- .. . ... : ... .. . ... : ... .. . ... : ... .. . ... : ... .. . ... : --- .. . ...

PATTERN 04
ROW 00 : D#4 06 F ... : ... .. . ... : C-2 00 . ... : F-# 02 8 ... : ... .. . ... : C-3 04 C ... : D#3 04 C ... : C-1 01 7 ...
ROW 01 : ... .. . ... : ... .. . ... : --- .. . ... : ... .. . ... : ... .. . ... : ... .. . ... : ... .. . ... : --- .. . ...
ROW 02 : ... .. . ... : D#4 06 4 ... : C-2 00 . ... : F-# 02 2 ... : ... .. . ... : ... .. . ... : ... .. . ... : C-1 01 . ...
ROW 03 : ... .. . ... : ... .. . ... : --- .. . ... : F-# 02 4 ... : ... .. . ... : ... .. . ... : ... .. . ... : --- .. . ...
ROW 04 : ... .. . ... : ... .. . ... : C-2 00 . ... : F-# 02 6 ... : ... .. . ... : ... .. . ... : ... .. . ... : C-1 01 . ...
ROW 05 : ... .. . ... : ... .. . ... : --- .. . ... : ... .. . ... : ... .. . ... : ... .. . ... : ... .. . ... : --- .. . ...
ROW 06 : ... .. . ... : ... .. . ... : C-2 00 . ... : F-# 02 8 ... : ... .. . ... : ... .. . ... : ... .. . ... : C-1 01 . ...
ROW 07 : ... .. . ... : ... .. . ... : --- .. . ... : ... .. . ... : ... .. . ... : ... .. . ... : ... .. . ... : --- .. . ...
ROW 08 : ... .. . ... : ... .. . ... : C-3 00 . ... : 3-# 03 A ... : ... .. . ... : C-2 04 A ... : D#2 04 A ... : C-2 01 . ...
ROW 09 : ... .. . ... : ... .. . ... : --- .. . ... : ... .. . ... : ... .. . ... : ... .. . ... : ... .. . ... : --- .. . ...
ROW 0A : ... .. . ... : ... .. . ... : C-2 00 . ... : ... .. . ... : ... .. . ... : ... .. . ... : ... .. . ... : C-1 01 . ...
ROW 0B : ... .. . ... : ... .. . ... : --- .. . ... : C-# 03 3 ... : ... .. . ... : ... .. . ... : ... .. . ... : --- .. . ...
ROW 0C : ... .. . ... : ... .. . ... : C-2 00 . ... : D-# 03 8 ... : ... .. . ... : ... .. . ... : ... .. . ... : C-1 01 . ...
ROW 0D : ... .. . ... : ... .. . ... : --- 00 . ... : ... .. . ... : ... .. . ... : ... .. . ... : ... .. . ... : --- .. . ...
ROW 0E : ... .. . ... : ... .. . ... : C-2 00 . ... : ... .. . ... : ... .. . ... : ... .. . ... : ... .. . ... : C-1 01 . ...
ROW 0F : ... .. . ... : ... .. . ... : --- .. . ... : ... .. . ... : ... .. . ... : ... .. . ... : ... .. . ... : --- .. . ...
ROW 10 : === .. . ... : ... .. . ... : C-2 00 . ... : F-# 02 8 ... : ... .. . ... : C-3 04 . ... : D#3 04 . ... : C-1 01 . ...
ROW 11 : ... .. . ... : ... .. . ... : --- .. . ... : ... .. . ... : ... .. . ... : ... .. . ... : ... .. . ... : --- .. . ...
ROW 12 : ... .. . ... : === .. . ... : C-2 00 . ... : F-# 02 2 ... : ... .. . ... : ... .. . ... : ... .. . ... : C-1 01 . ...
ROW 13 : ... .. . ... : ... .. . ... : --- .. . ... : F-# 02 4 ... : ... .. . ... : ... .. . ... : ... .. . ... : --- .. . ...
ROW 14 : D-4 06 . ... : ... .. . ... : C-2 00 . ... : F-# 02 6 ... : ... .. . ... : ... .. . ... : ... .. . ... : C-1 01 . ...
ROW 15 : ... .. . ... : ... .. . ... : --- .. . ... : ... .. . ... : ... .. . ... : ... .. . ... : ... .. . ... : --- .. . ...
ROW 16 : ... .. . ... : D-4 06 . ... : C-2 00 . ... : F-# 02 8 ... : ... .. . ... : ... .. . ... : ... .. . ... : C-1 01 . ...
ROW 17 : ... .. . ... : ... .. . ... : --- .. . ... : ... .. . ... : ... .. . ... : ... .. . ... : ... .. . ... : --- .. . ...
ROW 18 : D#4 06 . ... : ... .. . ... : C-3 00 . ... : 3-# 03 A ... : ... .. . ... : C-2 04 . ... : D#2 04 . ... : C-2 01 . ...
ROW 19 : ... .. . ... : ... .. . ... : --- .. . ... : ... .. . ... : ... .. . ... : ... .. . ... : ... .. . ... : --- .. . ...
ROW 1A : F-4 06 . ... : D#4 06 . ... : C-2 00 . ... : ... .. . ... : ... .. . ... : ... .. . ... : ... .. . ... : C-1 01 . ...
ROW 1B : ... .. . ... : ... .. . ... : --- .. . ... : ... .. . ... : ... .. . ... : ... .. . ... : ... .. . ... : --- .. . ...
ROW 1C : ... .. . ... : F-4 06 . ... : C-2 00 . ... : ... .. . ... : ... .. . ... : ... .. . ... : ... .. . ... : C-1 01 . ...
ROW 1D : ... .. . ... : ... .. . ... : --- .. . ... : ... .. . ... : ... .. . ... : ... .. . ... : ... .. . ... : --- .. . ...
ROW 1E : ... .. . ... : ... .. . ... : C-2 00 . ... : ... .. . ... : ... .. . ... : ... .. . ... : ... .. . ... : C-1 01 . ...
ROW 1F : ... .. . ... : ... .. . ... : --- .. . ... : ... .. . ... : ... .. . ... : ... .. . ... : ... .. . ... : --- .. . ...
ROW 20 : G-4 06 . ... : ... .. . ... : C-2 00 . ... : F-# 02 8 ... : ... .. . ... : C-3 04 . ... : D#3 04 . ... : C-1 01 . ...
ROW 21 : ... .. . ... : ... .. . ... : --- .. . ... : ... .. . ... : ... .. . ... : ... .. . ... : ... .. . ... : --- .. . ...
ROW 22 : ... .. . ... : G-4 06 . ... : C-2 00 . ... : F-# 02 2 ... : ... .. . ... : ... .. . ... : ... .. . ... : C-1 01 . ...
ROW 23 : ... .. . ... : ... .. . ... : --- .. . ... : F-# 02 4 ... : ... .. . ... : ... .. . ... : ... .. . ... : --- .. . ...
ROW 24 : ... .. . ... : ... .. . ... : C-2 00 . ... : F-# 02 6 ... : ... .. . ... : ... .. . ... : ... .. . ... : C-1 01 . ...
ROW 25 : ... .. . ... : ... .. . ... : --- .. . ... : ... .. . ... : ... .. . ... : ... .. . ... : ... .. . ... : --- .. . ...
ROW 26 : ... .. . ... : ... .. . ... : C-2 00 . ... : F-# 02 8 ... : ... .. . ... : ... .. . ... : ... .. . ... : C-1 01 . ...
ROW 27 : ... .. . ... : ... .. . ... : --- .. . ... : ... .. . ... : ... .. . ... : ... .. . ... : ... .. . ... : --- .. . ...
ROW 28 : D#4 06 . ... : ... .. . ... : C-3 00 . ... : 3-# 03 A ... : ... .. . ... : C-2 04 . ... : D#2 04 . ... : C-2 01 . ...
ROW 29 : ... .. . ... : ... .. . ... : --- .. . ... : ... .. . ... : ... .. . ... : ... .. . ... : ... .. . ... : --- .. . ...
ROW 2A : ... .. . ... : D#4 06 . ... : C-2 00 . ... : ... .. . ... : ... .. . ... : ... .. . ... : ... .. . ... : C-1 01 . ...
ROW 2B : ... .. . ... : ... .. . ... : --- .. . ... : C-# 03 3 ... : ... .. . ... : ... .. . ... : ... .. . ... : --- .. . ...
ROW 2C : ... .. . ... : ... .. . ... : C-2 00 . ... : D-# 03 8 ... : ... .. . ... : ... .. . ... : ... .. . ... : C-1 01 . ...
ROW 2D : ... .. . ... : ... .. . ... : --- .. . ... : ... .. . ... : ... .. . ... : ... .. . ... : ... .. . ... : --- .. . ...
ROW 2E : ... .. . ... : ... .. . ... : C-2 00 . ... : ... .. . ... : ... .. . ... : ... .. . ... : ... .. . ... : C-1 01 . ...
ROW 2F : ... .. . ... : ... .. . ... : --- .. . ... : ... .. . ... : ... .. . ... : ... .. . ... : ... .. . ... : --- .. . ...
ROW 30 : ... .. . ... : ... .. . ... : C-2 00 . ... : F-# 02 8 ... : ... .. . ... : C-3 04 . ... : D#3 04 . ... : C-1 01 . ...
ROW 31 : ... .. . ... : ... .. . ... : --- .. . ... : ... .. . ... : ... .. . ... : ... .. . ... : ... .. . ... : --- .. . ...
ROW 32 : ... .. . ... : ... .. . ... : C-2 00 . ... : F-# 02 2 ... : ... .. . ... : ... .. . ... : ... .. . ... : C-1 01 . ...
ROW 33 : ... .. . ... : ... .. . ... : --- .. . ... : F-# 02 4 ... : ... .. . ... : ... .. . ... : ... .. . ... : --- .. . ...
ROW 34 : === .. . ... : ... .. . ... : C-2 00 . ... : F-# 02 6 ... : ... .. . ... : ... .. . ... : ... .. . ... : C-1 01 . ...
ROW 35 : ... .. . ... : ... .. . ... : --- .. . ... : ... .. . ... : ... .. . ... : ... .. . ... : ... .. . ... : --- .. . ...
ROW 36 : ... .. . ... : === .. . ... : C-2 00 . ... : F-# 02 8 ... : ... .. . ... : ... .. . ... : ... .. . ... : C-1 01 . ...
ROW 37 : ... .. . ... : ... .. . ... : --- .. . ... : ... .. . ... : ... .. . ... : ... .. . ... : ... .. . ... : --- .. . ...
ROW 38 : D-4 06 . ... : ... .. . ... : C-3 00 . ... : 3-# 03 A ... : ... .. . ... : C-2 04 . ... : D#2 04 . ... : C-2 01 . ...
ROW 39 : ... .. . ... : ... .. . ... : --- .. . ... : 1-# 03 1 ... : ... .. . ... : ... .. . ... : ... .. . ... : --- .. . ...
ROW 3A : ... .. . ... : D-4 06 . ... : C-2 00 . ... : 1-# 03 2 ... : ... .. . ... : ... .. . ... : ... .. . ... : C-1 01 . ...
ROW 3B : ... .. . ... : ... .. . ... : --- .. . ... : 1-# 03 3 ... : ... .. . ... : ... .. . ... : ... .. . ... : --- .. . ...
ROW 3C : D#4 06 . ... : ... .. . ... : C-2 00 . ... : 1-# 03 4 ... : ... .. . ... : ... .. . ... : ... .. . ... : C-1 01 . ...
ROW 3D : ... .. . ... : ... .. . ... : --- .. . ... : 1-# 03 5 ... : ... .. . ... : ... .. . ... : ... .. . ... : --- .. . ...
ROW 3E : ... .. . ... : D#4 06 . ... : C-2 00 . ... : 1-# 03 6 ... : ... .. . ... : ... .. . ... : ... .. . ... : C-1 01 . ...
ROW 3F : ... .. . ... : ... .. . ... : --- .. . ... : 1-# 03 7 ... : ... .. . ... : ... .. . ... : ... .. . ... : --- .. . ...
ROW 40 : F-4 06 . ... : ... .. . ... : F-2 00 . ... : F-# 02 8 ... : ... .. . ... : C-3 04 . ... : F-3 04 . ... : F-1 01 . ...
ROW 41 : ... .. . ... : ... .. . ... : --- .. . ... : ... .. . ... : ... .. . ... : ... .. . ... : ... .. . ... : --- .. . ...
ROW 42 : ... .. . ... : F-4 06 . ... : F-2 00 . ... : F-# 02 2 ... : ... .. . ... : ... .. . ... : ... .. . ... : F-1 01 . ...
ROW 43 : ... .. . ... : ... .. . ... : --- .. . ... : F-# 02 4 ... : ... .. . ... : ... .. . ... : ... .. . ... : --- .. . ...
ROW 44 : ... .. . ... : ... .. . ... : F-2 00 . ... : F-# 02 6 ... : ... .. . ... : ... .. . ... : ... .. . ... : F-1 01 . ...
ROW 45 : ... .. . ... : ... .. . ... : --- .. . ... : ... .. . ... : ... .. . ... : ... .. . ... : ... .. . ... : --- .. . ...
ROW 46 : ... .. . ... : ... .. . ... : F-2 00 . ... : F-# 02 8 ... : ... .. . ... : ... .. . ... : ... .. . ... : F-1 01 . ...
ROW 47 : ... .. . ... : ... .. . ... : --- .. . ... : ... .. . ... : ... .. . ... : ... .. . ... : ... .. . ... : --- .. . ...
ROW 48 : ... .. . ... : ... .. . ... : F-3 00 . ... : 3-# 03 A ... : ... .. . ... : C-2 04 . ... : F-2 04 . ... : F-2 01 . ...
ROW 49 : ... .. . ... : ... .. . ... : --- .. . ... : ... .. . ... : ... .. . ... : ... .. . ... : ... .. . ... : --- .. . ...
ROW 4A : ... .. . ... : ... .. . ... : F-2 00 . ... : ... .. . ... : ... .. . ... : ... .. . ... : ... .. . ... : F-1 01 . ...
ROW 4B : ... .. . ... : ... .. . ... : --- .. . ... : C-# 03 3 ... : ... .. . ... : ... .. . ... : ... .. . ... : --- .. . ...
ROW 4C : ... .. . ... : ... .. . ... : F-2 00 . ... : D-# 03 8 ... : ... .. . ... : ... .. . ... : ... .. . ... : F-1 01 . ...
ROW 4D : ... .. . ... : ... .. . ... : --- .. . ... : ... .. . ... : ... .. . ... : ... .. . ... : ... .. . ... : --- .. . ...
ROW 4E : ... .. . ... : ... .. . ... : F-2 00 . ... : ... .. . ... : ... .. . ... : ... .. . ... : ... .. . ... : F-1 01 . ...
ROW 4F : ... .. . ... : ... .. . ... : --- .. . ... : ... .. . ... : ... .. . ... : ... .. . ... : ... .. . ... : --- .. . ...
ROW 50 : === .. . ... : ... .. . ... : F-2 00 . ... : F-# 02 8 ... : ... .. . ... : C-3 04 . ... : F-3 04 . ... : F-1 01 . ...
ROW 51 : ... .. . ... : ... .. . ... : --- .. . ... : ... .. . ... : ... .. . ... : ... .. . ... : ... .. . ... : --- .. . ...
ROW 52 : ... .. . ... : === .. . ... : F-2 00 . ... : F-# 02 2 ... : ... .. . ... : ... .. . ... : ... .. . ... : F-1 01 . ...
ROW 53 : ... .. . ... : ... .. . ... : --- .. . ... : F-# 02 4 ... : ... .. . ... : ... .. . ... : ... .. . ... : --- .. . ...
ROW 54 : C-4 06 . ... : ... .. . ... : F-2 00 . ... : F-# 02 6 ... : ... .. . ... : ... .. . ... : ... .. . ... : F-1 01 . ...
ROW 55 : ... .. . ... : ... .. . ... : --- .. . ... : ... .. . ... : ... .. . ... : ... .. . ... : ... .. . ... : --- .. . ...
ROW 56 : ... .. . ... : C-4 06 . ... : F-2 00 . ... : F-# 02 8 ... : ... .. . ... : ... .. . ... : ... .. . ... : F-1 01 . ...
ROW 57 : ... .. . ... : ... .. . ... : --- .. . ... : ... .. . ... : ... .. . ... : ... .. . ... : ... .. . ... : --- .. . ...
ROW 58 : D-4 06 . ... : ... .. . ... : F-3 00 . ... : 3-# 03 A ... : ... .. . ... : C-2 04 . ... : F-2 04 . ... : F-2 01 . ...
ROW 59 : ... .. . ... : ... .. . ... : --- .. . ... : ... .. . ... : ... .. . ... : ... .. . ... : ... .. . ... : --- .. . ...
ROW 5A : ... .. . ... : D-4 06 . ... : F-2 00 . ... : ... .. . ... : ... .. . ... : ... .. . ... : ... .. . ... : F-1 01 . ...
ROW 5B : ... .. . ... : ... .. . ... : --- .. . ... : ... .. . ... : ... .. . ... : ... .. . ... : ... .. . ... : --- .. . ...
ROW 5C : D#4 06 . ... : ... .. . ... : F-2 00 . ... : ... .. . ... : ... .. . ... : ... .. . ... : ... .. . ... : F-1 01 . ...
ROW 5D : ... .. . ... : ... .. . ... : --- .. . ... : ... .. . ... : ... .. . ... : ... .. . ... : ... .. . ... : --- .. . ...
ROW 5E : ... .. . ... : D#4 06 . ... : F-2 00 . ... : ... .. . ... : ... .. . ... : ... .. . ... : ... .. . ... : F-1 01 . ...
ROW 5F : ... .. . ... : ... .. . ... : --- .. . ... : ... .. . ... : ... .. . ... : ... .. . ... : ... .. . ... : --- .. . ...
ROW 60 : D-4 06 . ... : ... .. . ... : D-2 00 . ... : F-# 02 8 ... : ... .. . ... : D-3 04 . ... : G-3 04 . ... : D-1 01 . ...
ROW 61 : ... .. . ... : ... .. . ... : --- .. . ... : ... .. . ... : ... .. . ... : ... .. . ... : ... .. . ... : --- .. . ...
ROW 62 : ... .. . ... : D-4 06 . ... : D-2 00 . ... : F-# 02 2 ... : ... .. . ... : ... .. . ... : ... .. . ... : D-1 01 . ...
ROW 63 : ... .. . ... : ... .. . ... : --- .. . ... : F-# 02 4 ... : ... .. . ... : ... .. . ... : ... .. . ... : --- .. . ...
ROW 64 : ... .. . ... : ... .. . ... : D-2 00 . ... : F-# 02 6 ... : ... .. . ... : ... .. . ... : ... .. . ... : D-1 01 . ...
ROW 65 : ... .. . ... : ... .. . ... : --- .. . ... : ... .. . ... : ... .. . ... : ... .. . ... : ... .. . ... : --- .. . ...
ROW 66 : ... .. . ... : ... .. . ... : D-2 00 . ... : F-# 02 8 ... : ... .. . ... : ... .. . ... : ... .. . ... : D-1 01 . ...
ROW 67 : ... .. . ... : ... .. . ... : --- .. . ... : ... .. . ... : ... .. . ... : ... .. . ... : ... .. . ... : --- .. . ...
ROW 68 : ... .. . ... : ... .. . ... : D-3 00 . ... : 3-# 03 A ... : ... .. . ... : D-2 04 . ... : G-2 04 . ... : D-2 01 . ...
ROW 69 : ... .. . ... : ... .. . ... : --- .. . ... : ... .. . ... : ... .. . ... : ... .. . ... : ... .. . ... : --- .. . ...
ROW 6A : ... .. . ... : ... .. . ... : D-2 00 . ... : ... .. . ... : ... .. . ... : ... .. . ... : ... .. . ... : D-1 01 . ...
ROW 6B : ... .. . ... : ... .. . ... : --- .. . ... : C-# 03 3 ... : ... .. . ... : ... .. . ... : ... .. . ... : --- .. . ...
ROW 6C : ... .. . ... : ... .. . ... : D-2 00 . ... : D-# 03 8 ... : ... .. . ... : ... .. . ... : ... .. . ... : D-1 01 . ...
ROW 6D : ... .. . ... : ... .. . ... : --- .. . ... : ... .. . ... : ... .. . ... : ... .. . ... : ... .. . ... : --- .. . ...
ROW 6E : ... .. . ... : ... .. . ... : D-2 00 . ... : ... .. . ... : ... .. . ... : ... .. . ... : ... .. . ... : D-1 01 . ...
ROW 6F : ... .. . ... : ... .. . ... : --- .. . ... : ... .. . ... : ... .. . ... : ... .. . ... : ... .. . ... : --- .. . ...
ROW 70 : === .. . ... : ... .. . ... : B-1 00 . ... : F-# 02 8 ... : ... .. . ... : D-3 04 . ... : G-3 04 . ... : B-0 01 . ...
ROW 71 : ... .. . ... : ... .. . ... : --- .. . ... : ... .. . ... : ... .. . ... : ... .. . ... : ... .. . ... : --- .. . ...
ROW 72 : ... .. . ... : === .. . ... : B-1 00 . ... : F-# 02 2 ... : ... .. . ... : ... .. . ... : ... .. . ... : B-0 01 . ...
ROW 73 : ... .. . ... : ... .. . ... : --- .. . ... : F-# 02 4 ... : ... .. . ... : ... .. . ... : ... .. . ... : --- .. . ...
ROW 74 : B-3 06 . ... : ... .. . ... : B-1 00 . ... : F-# 02 6 ... : ... .. . ... : ... .. . ... : ... .. . ... : B-0 01 . ...
ROW 75 : ... .. . ... : ... .. . ... : --- .. . ... : ... .. . ... : ... .. . ... : ... .. . ... : ... .. . ... : --- .. . ...
ROW 76 : ... .. . ... : B-3 06 . ... : B-1 00 . ... : F-# 02 8 ... : ... .. . ... : ... .. . ... : ... .. . ... : B-0 01 . ...
ROW 77 : ... .. . ... : ... .. . ... : --- .. . ... : ... .. . ... : ... .. . ... : ... .. . ... : ... .. . ... : --- .. . ...
ROW 78 : ... .. . ... : ... .. . ... : B-2 00 . ... : 3-# 03 A ... : ... .. . ... : D-2 04 . ... : G-2 04 . ... : B-1 01 . ...
ROW 79 : ... .. . ... : ... .. . ... : --- .. . ... : 1-# 03 1 ... : ... .. . ... : ... .. . ... : ... .. . ... : --- .. . ...
ROW 7A : ... .. . ... : ... .. . ... : B-1 00 . ... : 1-# 03 2 ... : ... .. . ... : ... .. . ... : ... .. . ... : B-0 01 . ...
ROW 7B : ... .. . ... : ... .. . ... : --- .. . ... : 1-# 03 3 ... : ... .. . ... : ... .. . ... : ... .. . ... : --- .. . ...
ROW 7C : G-3 06 . ... : ... .. . ... : B-1 00 . ... : 1-# 03 4 ... : ... .. . ... : ... .. . ... : ... .. . ... : B-0 01 . ...
ROW 7D : ... .. . ... : ... .. . ... : --- .. . ... : 1-# 03 5 ... : ... .. . ... : ... .. . ... : ... .. . ... : --- .. . ...
ROW 7E : ... .. . ... : G-3 06 . ... : B-1 00 . ... : 1-# 03 6 ... : ... .. . ... : ... .. . ... : ... .. . ... : B-0 01 . ...
ROW 7F : ... .. . ... : ... .. . ... : --- .. . ... : 1-# 03 7 ... : ... .. . ... : ... .. . ... : ... .. . ... : --- .. . ...

PATTERN 05
ROW 00 : C-4 06 F ... : ... .. . ... : C-2 00 . ... : 4-# 03 F ... : ... .. . ... : C-3 04 A ... : D#3 04 A ... : D#1 01 7 ...
ROW 01 : ... .. . ... : ... .. . ... : --- .. . ... : ... .. . ... : ... .. . ... : ... .. . ... : ... .. . ... : --- .. . ...
ROW 02 : ... .. . ... : C-4 06 4 ... : C-2 00 . ... : F-# 02 2 ... : ... .. . ... : ... .. . ... : ... .. . ... : D#1 01 . ...
ROW 03 : ... .. . ... : ... .. . ... : --- .. . ... : F-# 02 4 ... : ... .. . ... : ... .. . ... : ... .. . ... : --- .. . ...
ROW 04 : ... .. . ... : ... .. . ... : C-2 00 . ... : F-# 02 6 ... : ... .. . ... : ... .. . ... : ... .. . ... : D#1 01 . ...
ROW 05 : ... .. . ... : ... .. . ... : --- .. . ... : ... .. . ... : ... .. . ... : ... .. . ... : ... .. . ... : --- .. . ...
ROW 06 : ... .. . ... : ... .. . ... : C-2 00 . ... : F-# 02 8 ... : ... .. . ... : G-2 04 . ... : C-3 04 . ... : D#1 01 . ...
ROW 07 : ... .. . ... : ... .. . ... : --- .. . ... : ... .. . ... : ... .. . ... : ... .. . ... : ... .. . ... : --- .. . ...
ROW 08 : ... .. . ... : ... .. . ... : C-3 00 . ... : 3-# 03 A ... : ... .. . ... : ... .. . ... : ... .. . ... : D#2 01 . ...
ROW 09 : ... .. . ... : ... .. . ... : --- .. . ... : ... .. . ... : ... .. . ... : ... .. . ... : ... .. . ... : --- .. . ...
ROW 0A : ... .. . ... : ... .. . ... : C-2 00 . ... : ... .. . ... : ... .. . ... : ... .. . ... : ... .. . ... : D#1 01 . ...
ROW 0B : ... .. . ... : ... .. . ... : --- .. . ... : C-# 03 3 ... : ... .. . ... : ... .. . ... : ... .. . ... : --- .. . ...
ROW 0C : ... .. . ... : ... .. . ... : C-2 00 . ... : D-# 03 8 ... : ... .. . ... : C-2 04 . ... : D#2 04 . ... : D#1 01 . ...
ROW 0D : ... .. . ... : ... .. . ... : --- .. . ... : ... .. . ... : ... .. . ... : ... .. . ... : ... .. . ... : --- .. . ...
ROW 0E : ... .. . ... : ... .. . ... : C-2 00 . ... : ... .. . ... : ... .. . ... : ... .. . ... : ... .. . ... : D#1 01 . ...
ROW 0F : ... .. . ... : ... .. . ... : --- .. . ... : ... .. . ... : ... .. . ... : ... .. . ... : ... .. . ... : --- .. . ...
ROW 10 : C-4 06 . ... : ... .. . ... : C-2 00 . ... : F-# 02 8 ... : ... .. . ... : C-3 04 . ... : D#3 04 . ... : D#1 01 . ...
ROW 11 : ... .. . ... : ... .. . ... : --- .. . ... : ... .. . ... : ... .. . ... : ... .. . ... : ... .. . ... : --- .. . ...
ROW 12 : ... .. . ... : C-4 06 . ... : C-2 00 . ... : F-# 02 2 ... : ... .. . ... : ... .. . ... : ... .. . ... : D#1 01 . ...
ROW 13 : ... .. . ... : ... .. . ... : --- .. . ... : F-# 02 4 ... : ... .. . ... : ... .. . ... : ... .. . ... : --- .. . ...
ROW 14 : ... .. . ... : ... .. . ... : C-2 00 . ... : F-# 02 6 ... : ... .. . ... : ... .. . ... : ... .. . ... : D#1 01 . ...
ROW 15 : ... .. . ... : ... .. . ... : --- .. . ... : ... .. . ... : ... .. . ... : ... .. . ... : ... .. . ... : --- .. . ...
ROW 16 : D-4 06 . ... : ... .. . ... : C-2 00 . ... : F-# 02 8 ... : ... .. . ... : G-2 04 . ... : C-3 04 . ... : D#1 01 . ...
ROW 17 : ... .. . ... : ... .. . ... : --- .. . ... : ... .. . ... : ... .. . ... : ... .. . ... : ... .. . ... : --- .. . ...
ROW 18 : ... .. . ... : D-4 06 . ... : C-3 00 . ... : 3-# 03 A ... : ... .. . ... : ... .. . ... : ... .. . ... : D#2 01 . ...
ROW 19 : ... .. . ... : ... .. . ... : --- .. . ... : ... .. . ... : ... .. . ... : ... .. . ... : ... .. . ... : --- .. . ...
ROW 1A : ... .. . ... : ... .. . ... : C-2 00 . ... : ... .. . ... : ... .. . ... : ... .. . ... : ... .. . ... : D#1 01 . ...
ROW 1B : ... .. . ... : ... .. . ... : --- .. . ... : ... .. . ... : ... .. . ... : ... .. . ... : ... .. . ... : --- .. . ...
ROW 1C : D#4 06 . ... : ... .. . ... : C-3 00 . ... : ... .. . ... : ... .. . ... : C-2 04 . ... : D#2 04 . ... : D#1 01 . ...
ROW 1D : ... .. . ... : ... .. . ... : C-2 00 . ... : ... .. . ... : ... .. . ... : ... .. . ... : ... .. . ... : --- .. . ...
ROW 1E : ... .. . ... : D#4 06 . ... : C-3 00 . ... : ... .. . ... : ... .. . ... : ... .. . ... : ... .. . ... : D#1 01 . ...
ROW 1F : ... .. . ... : ... .. . ... : --- .. . ... : ... .. . ... : ... .. . ... : ... .. . ... : ... .. . ... : --- .. . ...
ROW 20 : F-4 06 . ... : ... .. . ... : F-2 00 . ... : F-# 02 8 ... : ... .. . ... : C-3 04 . ... : F-3 04 . ... : C-1 01 . ...
ROW 21 : ... .. . ... : ... .. . ... : --- .. . ... : ... .. . ... : ... .. . ... : ... .. . ... : ... .. . ... : --- .. . ...
ROW 22 : ... .. . ... : F-4 06 . ... : F-2 00 . ... : F-# 02 2 ... : ... .. . ... : ... .. . ... : ... .. . ... : C-1 01 . ...
ROW 23 : ... .. . ... : ... .. . ... : --- .. . ... : F-# 02 4 ... : ... .. . ... : ... .. . ... : ... .. . ... : --- .. . ...
ROW 24 : ... .. . ... : ... .. . ... : F-2 00 . ... : F-# 02 6 ... : ... .. . ... : ... .. . ... : ... .. . ... : C-1 01 . ...
ROW 25 : ... .. . ... : ... .. . ... : --- .. . ... : ... .. . ... : ... .. . ... : ... .. . ... : ... .. . ... : --- .. . ...
ROW 26 : ... .. . ... : ... .. . ... : F-2 00 . ... : F-# 02 8 ... : ... .. . ... : G#2 04 . ... : C-3 04 . ... : C-1 01 . ...
ROW 27 : ... .. . ... : ... .. . ... : --- .. . ... : ... .. . ... : ... .. . ... : ... .. . ... : ... .. . ... : --- .. . ...
ROW 28 : D-4 06 . ... : ... .. . ... : F-3 00 . ... : 3-# 03 A ... : ... .. . ... : ... .. . ... : ... .. . ... : C-2 01 . ...
ROW 29 : ... .. . ... : ... .. . ... : --- .. . ... : ... .. . ... : ... .. . ... : ... .. . ... : ... .. . ... : --- .. . ...
ROW 2A : ... .. . ... : D-4 06 . ... : F-2 00 . ... : ... .. . ... : ... .. . ... : ... .. . ... : ... .. . ... : C-1 01 . ...
ROW 2B : ... .. . ... : ... .. . ... : --- .. . ... : C-# 03 3 ... : ... .. . ... : ... .. . ... : ... .. . ... : --- .. . ...
ROW 2C : D#4 06 . ... : ... .. . ... : F-2 00 . ... : D-# 03 8 ... : ... .. . ... : F-2 04 . ... : G#2 04 . ... : C-1 01 . ...
ROW 2D : ... .. . ... : ... .. . ... : --- .. . ... : ... .. . ... : ... .. . ... : ... .. . ... : ... .. . ... : --- .. . ...
ROW 2E : ... .. . ... : D#4 06 . ... : F-2 00 . ... : ... .. . ... : ... .. . ... : ... .. . ... : ... .. . ... : C-1 01 . ...
ROW 2F : ... .. . ... : ... .. . ... : --- .. . ... : ... .. . ... : ... .. . ... : ... .. . ... : ... .. . ... : --- .. . ...
ROW 30 : F-4 06 . ... : ... .. . ... : F-2 00 . ... : F-# 02 8 ... : ... .. . ... : C-3 04 . ... : F-3 04 . ... : C-1 01 . ...
ROW 31 : ... .. . ... : ... .. . ... : --- .. . ... : ... .. . ... : ... .. . ... : ... .. . ... : ... .. . ... : --- .. . ...
ROW 32 : ... .. . ... : F-4 06 . ... : F-2 00 . ... : F-# 02 2 ... : ... .. . ... : ... .. . ... : ... .. . ... : C-1 01 . ...
ROW 33 : ... .. . ... : ... .. . ... : --- .. . ... : F-# 02 4 ... : ... .. . ... : ... .. . ... : ... .. . ... : --- .. . ...
ROW 34 : ... .. . ... : ... .. . ... : F-2 00 . ... : F-# 02 6 ... : ... .. . ... : ... .. . ... : ... .. . ... : C-1 01 . ...
ROW 35 : ... .. . ... : ... .. . ... : --- .. . ... : ... .. . ... : ... .. . ... : ... .. . ... : ... .. . ... : --- .. . ...
ROW 36 : ... .. . ... : ... .. . ... : F-2 00 . ... : F-# 02 8 ... : ... .. . ... : G#2 04 . ... : C-3 04 . ... : C-1 01 . ...
ROW 37 : ... .. . ... : ... .. . ... : --- .. . ... : ... .. . ... : ... .. . ... : ... .. . ... : ... .. . ... : --- 01 . ...
ROW 38 : C-4 06 . ... : ... .. . ... : F-3 00 . ... : 3-# 03 A ... : ... .. . ... : ... .. . ... : ... .. . ... : C-2 01 . ...
ROW 39 : ... .. . ... : ... .. . ... : --- .. . ... : 1-# 03 1 ... : ... .. . ... : ... .. . ... : ... .. . ... : --- .. . ...
ROW 3A : ... .. . ... : C-4 06 . ... : F-2 00 . ... : 1-# 03 2 ... : ... .. . ... : ... .. . ... : ... .. . ... : C-1 01 . ...
ROW 3B : ... .. . ... : ... .. . ... : --- .. . ... : 1-# 03 3 ... : ... .. . ... : ... .. . ... : ... .. . ... : --- .. . ...
ROW 3C : ... .. . ... : ... .. . ... : F-3 00 . ... : 1-# 03 4 ... : ... .. . ... : F-2 04 . ... : G#2 04 . ... : C-1 01 . ...
ROW 3D : ... .. . ... : ... .. . ... : F-2 00 . ... : 1-# 03 5 ... : ... .. . ... : ... .. . ... : ... .. . ... : --- .. . ...
ROW 3E : ... .. . ... : ... .. . ... : F-3 00 . ... : 1-# 03 6 ... : ... .. . ... : ... .. . ... : ... .. . ... : C-1 01 . ...
ROW 3F : ... .. . ... : ... .. . ... : --- .. . ... : 1-# 03 7 ... : ... .. . ... : ... .. . ... : ... .. . ... : --- .. . ...
ROW 40 : A#3 06 . ... : ... .. . ... : D-2 00 . ... : F-# 02 8 ... : ... .. . ... : D-3 04 . ... : A#1 04 . ... : A#1 01 . ...
ROW 41 : ... .. . ... : ... .. . ... : --- .. . ... : ... .. . ... : ... .. . ... : ... .. . ... : ... .. . ... : --- .. . ...
ROW 42 : ... .. . ... : A#3 06 . ... : D-2 00 . ... : F-# 02 2 ... : ... .. . ... : ... .. . ... : ... .. . ... : A#1 01 . ...
ROW 43 : ... .. . ... : ... .. . ... : --- .. . ... : F-# 02 4 ... : ... .. . ... : ... .. . ... : ... .. . ... : --- .. . ...
ROW 44 : ... .. . ... : ... .. . ... : D-2 00 . ... : F-# 02 6 ... : ... .. . ... : ... .. . ... : ... .. . ... : A#1 01 . ...
ROW 45 : ... .. . ... : ... .. . ... : --- .. . ... : ... .. . ... : ... .. . ... : ... .. . ... : ... .. . ... : --- .. . ...
ROW 46 : ... .. . ... : ... .. . ... : D-2 00 . ... : F-# 02 8 ... : ... .. . ... : A#1 04 . ... : F-2 04 . ... : A#1 01 . ...
ROW 47 : ... .. . ... : ... .. . ... : --- .. . ... : ... .. . ... : ... .. . ... : ... .. . ... : ... .. . ... : --- .. . ...
ROW 48 : ... .. . ... : ... .. . ... : D-3 00 . ... : 3-# 03 A ... : ... .. . ... : ... .. . ... : ... .. . ... : A#2 01 . ...
ROW 49 : ... .. . ... : ... .. . ... : --- .. . ... : ... .. . ... : ... .. . ... : ... .. . ... : ... .. . ... : --- .. . ...
ROW 4A : ... .. . ... : ... .. . ... : D-2 00 . ... : ... .. . ... : ... .. . ... : ... .. . ... : ... .. . ... : A#1 01 . ...
ROW 4B : ... .. . ... : ... .. . ... : --- .. . ... : C-# 03 3 ... : ... .. . ... : ... .. . ... : ... .. . ... : --- .. . ...
ROW 4C : ... .. . ... : ... .. . ... : D-2 00 . ... : D-# 03 8 ... : ... .. . ... : F-2 04 . ... : D-2 04 . ... : A#1 01 . ...
ROW 4D : ... .. . ... : ... .. . ... : --- .. . ... : ... .. . ... : ... .. . ... : ... .. . ... : ... .. . ... : --- .. . ...
ROW 4E : ... .. . ... : ... .. . ... : D-2 00 . ... : ... .. . ... : ... .. . ... : ... .. . ... : ... .. . ... : A#1 01 . ...
ROW 4F : ... .. . ... : ... .. . ... : --- .. . ... : ... .. . ... : ... .. . ... : ... .. . ... : ... .. . ... : --- .. . ...
ROW 50 : ... .. . ... : ... .. . ... : D-2 00 . ... : F-# 02 8 ... : ... .. . ... : D-3 04 . ... : A#1 04 . ... : A#1 01 . ...
ROW 51 : ... .. . ... : ... .. . ... : --- .. . ... : ... .. . ... : ... .. . ... : ... .. . ... : ... .. . ... : --- .. . ...
ROW 52 : ... .. . ... : ... .. . ... : D-2 00 . ... : F-# 02 2 ... : ... .. . ... : ... .. . ... : ... .. . ... : A#1 01 . ...
ROW 53 : ... .. . ... : ... .. . ... : --- .. . ... : F-# 02 4 ... : ... .. . ... : ... .. . ... : ... .. . ... : --- 01 . ...
ROW 54 : ... .. . ... : ... .. . ... : D-2 00 . ... : F-# 02 6 ... : ... .. . ... : ... .. . ... : ... .. . ... : A#1 01 . ...
ROW 55 : ... .. . ... : ... .. . ... : --- .. . ... : ... .. . ... : ... .. . ... : ... .. . ... : ... .. . ... : --- .. . ...
ROW 56 : ... .. . ... : ... .. . ... : D-2 00 . ... : F-# 02 8 ... : ... .. . ... : A#1 04 . ... : F-2 04 . ... : A#1 01 . ...
ROW 57 : ... .. . ... : ... .. . ... : --- .. . ... : ... .. . ... : ... .. . ... : ... .. . ... : ... .. . ... : --- .. . ...
ROW 58 : ... .. . ... : ... .. . ... : D-3 00 . ... : 3-# 03 A ... : ... .. . ... : ... .. . ... : ... .. . ... : A#2 01 . ...
ROW 59 : ... .. . ... : ... .. . ... : --- .. . ... : ... .. . ... : ... .. . ... : ... .. . ... : ... .. . ... : --- .. . ...
ROW 5A : ... .. . ... : ... .. . ... : D-2 00 . ... : ... .. . ... : ... .. . ... : ... .. . ... : ... .. . ... : A#1 01 . ...
ROW 5B : ... .. . ... : ... .. . ... : --- .. . ... : ... .. . ... : ... .. . ... : ... .. . ... : ... .. . ... : --- .. . ...
ROW 5C : === .. . ... : ... .. . ... : D-2 00 . ... : ... .. . ... : ... .. . ... : F-2 04 . ... : D-2 04 . ... : A#1 01 . ...
ROW 5D : ... .. . ... : ... .. . ... : --- .. . ... : ... .. . ... : ... .. . ... : ... .. . ... : ... .. . ... : --- .. . ...
ROW 5E : ... .. . ... : === .. . ... : D-2 00 . ... : ... .. . ... : ... .. . ... : ... .. . ... : ... .. . ... : A#1 01 . ...
ROW 5F : ... .. . ... : ... .. . ... : --- .. . ... : ... .. . ... : ... .. . ... : ... .. . ... : ... .. . ... : --- .. . ...
ROW 60 : B-3 06 . ... : ... .. . ... : B-2 00 . ... : F-# 02 8 ... : ... .. . ... : D-3 04 . ... : B-2 04 . ... : D-1 01 . ...
ROW 61 : ... .. . ... : ... .. . ... : --- .. . ... : ... .. . ... : ... .. . ... : ... .. . ... : ... .. . ... : --- .. . ...
ROW 62 : ... .. . ... : B-3 06 . ... : B-2 00 . ... : F-# 02 2 ... : ... .. . ... : ... .. . ... : ... .. . ... : D-1 01 . ...
ROW 63 : ... .. . ... : ... .. . ... : --- .. . ... : F-# 02 4 ... : ... .. . ... : ... .. . ... : ... .. . ... : --- .. . ...
ROW 64 : ... .. . ... : ... .. . ... : B-2 00 . ... : F-# 02 6 ... : ... .. . ... : ... .. . ... : ... .. . ... : D-1 01 . ...
ROW 65 : ... .. . ... : ... .. . ... : --- .. . ... : ... .. . ... : ... .. . ... : ... .. . ... : ... .. . ... : --- .. . ...
ROW 66 : ... .. . ... : ... .. . ... : B-2 00 . ... : F-# 02 8 ... : ... .. . ... : B-2 04 . ... : G-2 04 . ... : D-1 01 . ...
ROW 67 : ... .. . ... : ... .. . ... : --- .. . ... : ... .. . ... : ... .. . ... : ... .. . ... : ... .. . ... : --- .. . ...
ROW 68 : ... .. . ... : ... .. . ... : B-3 00 . ... : 3-# 03 A ... : ... .. . ... : ... .. . ... : ... .. . ... : D-2 01 . ...
ROW 69 : ... .. . ... : ... .. . ... : --- .. . ... : ... .. . ... : ... .. . ... : ... .. . ... : ... .. . ... : --- .. . ...
ROW 6A : ... .. . ... : ... .. . ... : B-2 00 . ... : ... .. . ... : ... .. . ... : ... .. . ... : ... .. . ... : D-1 01 . ...
ROW 6B : ... .. . ... : ... .. . ... : --- 06 . ... : C-# 03 3 ... : ... .. . ... : ... .. . ... : ... .. . ... : --- .. . ...
ROW 6C : === .. . ... : ... .. . ... : B-2 00 . ... : D-# 03 8 ... : ... .. . ... : G-2 04 . ... : D-2 04 . ... : D-1 01 . ...
ROW 6D : ... .. . ... : ... .. . ... : --- 06 . ... : ... .. . ... : ... .. . ... : ... .. . ... : ... .. . ... : --- .. . ...
ROW 6E : ... .. . ... : === .. . ... : B-2 00 . ... : ... .. . ... : ... .. . ... : ... .. . ... : ... .. . ... : D-1 01 . ...
ROW 6F : ... .. . ... : ... .. . ... : --- .. . ... : ... .. . ... : ... .. . ... : ... .. . ... : ... .. . ... : --- .. . ...
ROW 70 : G-3 06 . ... : ... .. . ... : B-2 00 . ... : 6-# 03 F ... : ... .. . ... : D-3 04 . ... : B-2 04 . ... : D-1 01 . ...
ROW 71 : ... .. . ... : ... .. . ... : --- .. . ... : ... .. . ... : ... .. . ... : ... .. . ... : ... .. . ... : --- .. . ...
ROW 72 : ... .. . ... : G-3 06 . ... : B-2 00 . ... : F-# 02 2 ... : ... .. . ... : ... .. . ... : ... .. . ... : D-1 01 . ...
ROW 73 : ... .. . ... : ... .. . ... : --- .. . ... : F-# 02 4 ... : ... .. . ... : ... .. . ... : ... .. . ... : --- .. . ...
ROW 74 : ... .. . ... : ... .. . ... : B-2 00 . ... : 3-# 02 F ... : ... .. . ... : ... .. . ... : ... .. . ... : D-1 01 . ...
ROW 75 : ... .. . ... : ... .. . ... : --- .. . ... : ... .. . ... : ... .. . ... : ... .. . ... : ... .. . ... : --- .. . ...
ROW 76 : ... .. . ... : ... .. . ... : B-2 00 . ... : 5-# 03 F ... : ... .. . ... : B-2 04 . ... : G-2 04 . ... : D-1 01 . ...
ROW 77 : ... .. . ... : ... .. . ... : --- .. . ... : ... .. . ... : ... .. . ... : ... .. . ... : ... .. . ... : --- .. . ...
ROW 78 : B-3 06 . ... : ... .. . ... : B-3 00 . ... : 4-# 03 5 ... : ... .. . ... : ... .. . ... : ... .. . ... : D-2 01 . ...
ROW 79 : ... .. . ... : ... .. . ... : --- .. . ... : ... .. . ... : ... .. . ... : ... .. . ... : ... .. . ... : --- .. . ...
ROW 7A : ... .. . ... : B-3 06 . ... : B-2 00 . ... : ... .. . ... : ... .. . ... : ... .. . ... : ... .. . ... : D-1 01 . ...
ROW 7B : ... .. . ... : ... .. . ... : --- .. . ... : 7-# 03 F ... : ... .. . ... : ... .. . ... : ... .. . ... : --- .. . ...
ROW 7C : ... .. . ... : ... .. . ... : B-2 00 . ... : ... .. . ... : ... .. . ... : G-2 04 . ... : D-2 04 . ... : D-1 01 . ...
ROW 7D : ... .. . ... : ... .. . ... : --- .. . ... : ... .. . ... : ... .. . ... : ... .. . ... : ... .. . ... : --- .. . ...
ROW 7E : ... .. . ... : ... .. . ... : B-2 00 . ... : ... .. . ... : ... .. . ... : ... .. . ... : ... .. . ... : D-1 01 . ...
ROW 7F : ... .. . ... : ... .. . ... : --- .. . ... : ... .. . ... : ... .. . ... : ... .. . ... : ... .. . ... : --- .. . ...

PATTERN 06
ROW 00 : C-4 06 C ... : ... .. . ... : C-2 00 . ... : 8-# 03 F ... : ... .. . ... : C-3 04 A ... : D#3 04 A ... : D#1 01 C ...
ROW 01 : ... .. . ... : ... .. . ... : --- .. . ... : ... .. . ... : ... .. . ... : ... .. . ... : ... .. . ... : --- .. . ...
ROW 02 : G-3 06 . ... : C-4 06 4 ... : C-2 00 . ... : ... .. . ... : ... .. . ... : ... .. . ... : ... .. . ... : D#1 01 . ...
ROW 03 : ... .. . ... : ... .. . ... : --- .. . ... : ... .. . ... : ... .. . ... : ... .. . ... : ... .. . ... : --- .. . ...
ROW 04 : D#3 06 . ... : G-3 06 . ... : C-2 00 . ... : ... .. . ... : ... .. . ... : ... .. . ... : ... .. . ... : D#1 01 . ...
ROW 05 : ... .. . ... : ... .. . ... : --- .. . ... : ... .. . ... : ... .. . ... : ... .. . ... : ... .. . ... : --- .. . ...
ROW 06 : C-3 06 . ... : D#3 06 . ... : C-2 00 . ... : F-# 02 8 ... : ... .. . ... : G-2 04 . ... : C-3 04 . ... : D#1 01 . ...
ROW 07 : ... .. . ... : ... .. . ... : --- .. . ... : ... .. . ... : ... .. . ... : ... .. . ... : ... .. . ... : --- .. . ...
ROW 08 : G-3 06 . ... : C-3 06 . ... : C-3 00 . ... : 3-# 03 A ... : ... .. . ... : ... .. . ... : ... .. . ... : D#2 01 . ...
ROW 09 : ... .. . ... : ... .. . ... : --- .. . ... : ... .. . ... : ... .. . ... : ... .. . ... : ... .. . ... : --- .. . ...
ROW 0A : D#3 06 . ... : G-3 06 . ... : C-2 00 . ... : ... .. . ... : ... .. . ... : ... .. . ... : ... .. . ... : D#1 01 . ...
ROW 0B : ... .. . ... : ... .. . ... : --- .. . ... : C-# 03 3 ... : ... .. . ... : ... .. . ... : ... .. . ... : --- .. . ...
ROW 0C : C-3 06 . ... : D#3 06 . ... : C-2 00 . ... : D-# 03 8 ... : ... .. . ... : C-2 04 . ... : D#2 04 . ... : D#1 01 . ...
ROW 0D : ... .. . ... : ... .. . ... : --- .. . ... : ... .. . ... : ... .. . ... : ... .. . ... : ... .. . ... : --- .. . ...
ROW 0E : G-2 06 . ... : C-3 06 . ... : C-2 00 . ... : ... .. . ... : ... .. . ... : ... .. . ... : ... .. . ... : D#1 01 . ...
ROW 0F : ... .. . ... : ... .. . ... : --- .. . ... : ... .. . ... : ... .. . ... : ... .. . ... : ... .. . ... : --- .. . ...
ROW 10 : C-4 06 . ... : G-2 06 . ... : C-2 00 . ... : F-# 02 8 ... : ... .. . ... : C-3 04 . ... : D#3 04 . ... : D#1 01 . ...
ROW 11 : ... .. . ... : ... .. . ... : --- .. . ... : ... .. . ... : ... .. . ... : ... .. . ... : ... .. . ... : --- .. . ...
ROW 12 : G-3 06 . ... : C-4 06 . ... : C-2 00 . ... : F-# 02 2 ... : ... .. . ... : ... .. . ... : ... .. . ... : D#1 01 . ...
ROW 13 : ... .. . ... : ... .. . ... : --- .. . ... : F-# 02 4 ... : ... .. . ... : ... .. . ... : ... .. . ... : --- .. . ...
ROW 14 : D#3 06 . ... : G-3 06 . ... : C-2 00 . ... : F-# 02 6 ... : ... .. . ... : ... .. . ... : ... .. . ... : D#1 01 . ...
ROW 15 : ... .. . ... : ... .. . ... : --- .. . ... : ... .. . ... : ... .. . ... : ... .. . ... : ... .. . ... : --- .. . ...
ROW 16 : C-3 06 . ... : D#3 06 . ... : C-2 00 . ... : F-# 02 8 ... : ... .. . ... : G-2 04 . ... : C-3 04 . ... : D#1 01 . ...
ROW 17 : ... .. . ... : ... .. . ... : --- .. . ... : ... .. . ... : ... .. . ... : ... .. . ... : ... .. . ... : --- .. . ...
ROW 18 : G-3 06 . ... : C-3 06 . ... : C-3 00 . ... : 3-# 03 A ... : ... .. . ... : ... .. . ... : ... .. . ... : D#2 01 . ...
ROW 19 : ... .. . ... : ... .. . ... : --- .. . ... : ... .. . ... : ... .. . ... : ... .. . ... : ... .. . ... : --- .. . ...
ROW 1A : D#3 06 . ... : G-3 06 . ... : C-2 00 . ... : ... .. . ... : ... .. . ... : ... .. . ... : ... .. . ... : D#1 01 . ...
ROW 1B : ... .. . ... : ... .. . ... : --- .. . ... : ... .. . ... : ... .. . ... : ... .. . ... : ... .. . ... : --- .. . ...
ROW 1C : C-3 06 . ... : D#3 06 . ... : C-3 00 . ... : ... .. . ... : ... .. . ... : C-2 04 . ... : D#2 04 . ... : D#1 01 . ...
ROW 1D : ... .. . ... : ... .. . ... : C-2 00 . ... : ... .. . ... : ... .. . ... : ... .. . ... : ... .. . ... : --- .. . ...
ROW 1E : G-2 06 . ... : C-3 06 . ... : C-3 00 . ... : ... .. . ... : ... .. . ... : ... .. . ... : ... .. . ... : D#1 01 . ...
ROW 1F : ... .. . ... : ... .. . ... : --- .. . ... : ... .. . ... : ... .. . ... : ... .. . ... : ... .. . ... : --- .. . ...
ROW 20 : C-4 06 . ... : G#2 06 . ... : D#2 00 . ... : F-# 02 8 ... : ... .. . ... : C-3 04 . ... : D#3 04 . ... : G#1 01 . ...
ROW 21 : ... .. . ... : ... .. . ... : --- .. . ... : ... .. . ... : ... .. . ... : ... .. . ... : ... .. . ... : --- .. . ...
ROW 22 : G#3 06 . ... : C-4 06 . ... : D#2 00 . ... : F-# 02 2 ... : ... .. . ... : ... .. . ... : ... .. . ... : G#1 01 . ...
ROW 23 : ... .. . ... : ... .. . ... : --- .. . ... : F-# 02 4 ... : ... .. . ... : ... .. . ... : ... .. . ... : --- .. . ...
ROW 24 : D#3 06 . ... : G#3 06 . ... : D#2 00 . ... : F-# 02 6 ... : ... .. . ... : ... .. . ... : ... .. . ... : G#1 01 . ...
ROW 25 : ... .. . ... : ... .. . ... : --- .. . ... : ... .. . ... : ... .. . ... : ... .. . ... : ... .. . ... : --- .. . ...
ROW 26 : C-3 06 . ... : D#3 06 . ... : D#2 00 . ... : F-# 02 8 ... : ... .. . ... : G#2 04 . ... : C-3 04 . ... : G#1 01 . ...
ROW 27 : ... .. . ... : ... .. . ... : --- .. . ... : ... .. . ... : ... .. . ... : ... .. . ... : ... .. . ... : --- .. . ...
ROW 28 : G#3 06 . ... : C-3 06 . ... : D#3 00 . ... : 3-# 03 A ... : ... .. . ... : ... .. . ... : ... .. . ... : G#2 01 . ...
ROW 29 : ... .. . ... : ... .. . ... : --- .. . ... : ... .. . ... : ... .. . ... : ... .. . ... : ... .. . ... : --- .. . ...
ROW 2A : D#3 06 . ... : G#3 06 . ... : D#2 00 . ... : ... .. . ... : ... .. . ... : ... .. . ... : ... .. . ... : G#1 01 . ...
ROW 2B : ... .. . ... : ... .. . ... : --- .. . ... : C-# 03 3 ... : ... .. . ... : ... .. . ... : ... .. . ... : --- .. . ...
ROW 2C : C-3 06 . ... : D#3 06 . ... : D#2 00 . ... : D-# 03 8 ... : ... .. . ... : D#2 04 . ... : G#2 04 . ... : G#1 01 . ...
ROW 2D : ... .. . ... : ... .. . ... : --- .. . ... : ... .. . ... : ... .. . ... : ... .. . ... : ... .. . ... : --- .. . ...
ROW 2E : G#2 06 . ... : C-3 06 . ... : D#2 00 . ... : ... .. . ... : ... .. . ... : ... .. . ... : ... .. . ... : G#1 01 . ...
ROW 2F : ... .. . ... : ... .. . ... : --- .. . ... : ... .. . ... : ... .. . ... : ... .. . ... : ... .. . ... : --- .. . ...
ROW 30 : C-4 06 . ... : G#2 06 . ... : D#2 00 . ... : F-# 02 8 ... : ... .. . ... : C-3 04 . ... : D#3 04 . ... : G#1 01 . ...
ROW 31 : ... .. . ... : ... .. . ... : --- .. . ... : ... .. . ... : ... .. . ... : ... .. . ... : ... .. . ... : --- .. . ...
ROW 32 : G#3 06 . ... : C-4 06 . ... : D#2 00 . ... : F-# 02 2 ... : ... .. . ... : ... .. . ... : ... .. . ... : G#1 01 . ...
ROW 33 : ... .. . ... : ... .. . ... : --- .. . ... : F-# 02 4 ... : ... .. . ... : ... .. . ... : ... .. . ... : --- .. . ...
ROW 34 : D#3 06 . ... : G#3 06 . ... : D#2 00 . ... : F-# 02 6 ... : ... .. . ... : ... .. . ... : ... .. . ... : G#1 01 . ...
ROW 35 : ... .. . ... : ... .. . ... : --- .. . ... : ... .. . ... : ... .. . ... : ... .. . ... : ... .. . ... : --- .. . ...
ROW 36 : C-3 06 . ... : D#3 06 . ... : D#2 00 . ... : F-# 02 8 ... : ... .. . ... : G#2 04 . ... : C-3 04 . ... : G#1 01 . ...
ROW 37 : ... .. . ... : ... .. . ... : --- .. . ... : ... .. . ... : ... .. . ... : ... .. . ... : ... .. . ... : --- .. . ...
ROW 38 : G#3 06 . ... : C-3 06 . ... : D#3 00 . ... : 3-# 03 A ... : ... .. . ... : ... .. . ... : ... .. . ... : G#2 01 . ...
ROW 39 : ... .. . ... : ... .. . ... : --- .. . ... : ... .. . ... : ... .. . ... : ... .. . ... : ... .. . ... : --- .. . ...
ROW 3A : D#3 06 . ... : G#3 06 . ... : D#2 00 . ... : ... .. . ... : ... .. . ... : ... .. . ... : ... .. . ... : G#1 01 . ...
ROW 3B : ... .. . ... : ... .. . ... : --- .. . ... : ... .. . ... : ... .. . ... : ... .. . ... : ... .. . ... : --- .. . ...
ROW 3C : C-3 06 . ... : D#3 06 . ... : D#3 00 . ... : ... .. . ... : ... .. . ... : D#2 04 . ... : G#2 04 . ... : G#1 01 . ...
ROW 3D : ... .. . ... : ... .. . ... : D#2 00 . ... : ... .. . ... : ... .. . ... : ... .. . ... : ... .. . ... : --- .. . ...
ROW 3E : G#2 06 . ... : C-3 06 . ... : D#3 00 . ... : ... .. . ... : ... .. . ... : ... .. . ... : ... .. . ... : G#1 01 . ...
ROW 3F : ... .. . ... : ... .. . ... : --- .. . ... : ... .. . ... : ... .. . ... : ... .. . ... : ... .. . ... : --- .. . ...
ROW 40 : C-4 06 . ... : G-2 06 . ... : F-2 00 . ... : F-# 02 8 ... : ... .. . ... : C-3 04 . ... : F-3 04 . ... : C-1 01 . ...
ROW 41 : ... .. . ... : ... .. . ... : --- .. . ... : ... .. . ... : ... .. . ... : ... .. . ... : ... .. . ... : --- .. . ...
ROW 42 : G#3 06 . ... : C-4 06 . ... : F-2 00 . ... : F-# 02 2 ... : ... .. . ... : ... .. . ... : ... .. . ... : C-1 01 . ...
ROW 43 : ... .. . ... : ... .. . ... : --- .. . ... : F-# 02 4 ... : ... .. . ... : ... .. . ... : ... .. . ... : --- .. . ...
ROW 44 : F-3 06 . ... : G#3 06 . ... : F-2 00 . ... : F-# 02 6 ... : ... .. . ... : ... .. . ... : ... .. . ... : C-1 01 . ...
ROW 45 : ... .. . ... : ... .. . ... : --- .. . ... : ... .. . ... : ... .. . ... : ... .. . ... : ... .. . ... : --- .. . ...
ROW 46 : C-3 06 . ... : F-3 06 . ... : F-2 00 . ... : F-# 02 8 ... : ... .. . ... : G#2 04 . ... : C-3 04 . ... : C-1 01 . ...
ROW 47 : ... .. . ... : ... .. . ... : --- .. . ... : ... .. . ... : ... .. . ... : ... .. . ... : ... .. . ... : --- .. . ...
ROW 48 : G#3 06 . ... : C-3 06 . ... : F-3 00 . ... : 3-# 03 A ... : ... .. . ... : ... .. . ... : ... .. . ... : C-2 01 . ...
ROW 49 : ... .. . ... : ... .. . ... : --- .. . ... : ... .. . ... : ... .. . ... : ... .. . ... : ... .. . ... : --- .. . ...
ROW 4A : F-3 06 . ... : G#3 06 . ... : F-2 00 . ... : ... .. . ... : ... .. . ... : ... .. . ... : ... .. . ... : C-1 01 . ...
ROW 4B : ... .. . ... : ... .. . ... : --- .. . ... : C-# 03 3 ... : ... .. . ... : ... .. . ... : ... .. . ... : --- .. . ...
ROW 4C : C-3 06 . ... : F-3 06 . ... : F-2 00 . ... : D-# 03 8 ... : ... .. . ... : F-2 04 . ... : G#2 04 . ... : C-1 01 . ...
ROW 4D : ... .. . ... : ... .. . ... : --- .. . ... : ... .. . ... : ... .. . ... : ... .. . ... : ... .. . ... : --- .. . ...
ROW 4E : G#2 06 . ... : C-3 06 . ... : F-2 00 . ... : ... .. . ... : ... .. . ... : ... .. . ... : ... .. . ... : C-1 01 . ...
ROW 4F : ... .. . ... : ... .. . ... : --- .. . ... : ... .. . ... : ... .. . ... : ... .. . ... : ... .. . ... : --- .. . ...
ROW 50 : C-4 06 . ... : G#2 06 . ... : F-2 00 . ... : F-# 02 8 ... : ... .. . ... : C-3 04 . ... : F-3 04 . ... : C-1 01 . ...
ROW 51 : ... .. . ... : ... .. . ... : --- .. . ... : ... .. . ... : ... .. . ... : ... .. . ... : ... .. . ... : --- .. . ...
ROW 52 : G#3 06 . ... : C-4 06 . ... : F-2 00 . ... : F-# 02 2 ... : ... .. . ... : ... .. . ... : ... .. . ... : C-1 01 . ...
ROW 53 : ... .. . ... : ... .. . ... : --- .. . ... : F-# 02 4 ... : ... .. . ... : ... .. . ... : ... .. . ... : --- .. . ...
ROW 54 : F-3 06 . ... : G#3 06 . ... : F-2 00 . ... : F-# 02 6 ... : ... .. . ... : ... .. . ... : ... .. . ... : C-1 01 . ...
ROW 55 : ... .. . ... : ... .. . ... : --- .. . ... : ... .. . ... : ... .. . ... : ... .. . ... : ... .. . ... : --- .. . ...
ROW 56 : C-3 06 . ... : F-3 06 . ... : F-2 00 . ... : F-# 02 8 ... : ... .. . ... : G#2 04 . ... : C-3 04 . ... : C-1 01 . ...
ROW 57 : ... .. . ... : ... .. . ... : --- .. . ... : ... .. . ... : ... .. . ... : ... .. . ... : ... .. . ... : --- .. . ...
ROW 58 : G#3 06 . ... : C-3 06 . ... : F-3 00 . ... : 3-# 03 A ... : ... .. . ... : ... .. . ... : ... .. . ... : C-2 01 . ...
ROW 59 : ... .. . ... : ... .. . ... : --- .. . ... : 1-# 03 1 ... : ... .. . ... : ... .. . ... : ... .. . ... : --- .. . ...
ROW 5A : F-3 06 . ... : G#3 06 . ... : F-2 00 . ... : 1-# 03 2 ... : ... .. . ... : ... .. . ... : ... .. . ... : C-1 01 . ...
ROW 5B : ... .. . ... : ... .. . ... : --- .. . ... : 1-# 03 3 ... : ... .. . ... : ... .. . ... : ... .. . ... : --- .. . ...
ROW 5C : C-3 06 . ... : F-3 06 . ... : F-3 00 . ... : 1-# 03 4 ... : ... .. . ... : F-2 04 . ... : G#2 04 . ... : C-1 01 . ...
ROW 5D : ... .. . ... : ... .. . ... : F-2 00 . ... : 1-# 03 5 ... : ... .. . ... : ... .. . ... : ... .. . ... : --- .. . ...
ROW 5E : G#2 06 . ... : C-3 06 . ... : F-3 00 . ... : 1-# 03 6 ... : ... .. . ... : ... .. . ... : ... .. . ... : C-1 01 . ...
ROW 5F : ... .. . ... : ... .. . ... : --- .. . ... : 1-# 03 7 ... : ... .. . ... : ... .. . ... : ... .. . ... : --- .. . ...
ROW 60 : C-4 06 . ... : G#2 06 . ... : D#2 00 . ... : F-# 02 8 ... : ... .. . ... : C-3 04 . ... : D#3 04 . ... : G#1 01 . ...
ROW 61 : ... .. . ... : ... .. . ... : --- .. . ... : ... .. . ... : ... .. . ... : ... .. . ... : ... .. . ... : --- .. . ...
ROW 62 : G#3 06 . ... : C-4 06 . ... : D#2 00 . ... : F-# 02 2 ... : ... .. . ... : ... .. . ... : ... .. . ... : G#1 01 . ...
ROW 63 : ... .. . ... : ... .. . ... : --- .. . ... : F-# 02 4 ... : ... .. . ... : ... .. . ... : ... .. . ... : --- .. . ...
ROW 64 : D#3 06 . ... : G#3 06 . ... : D#2 00 . ... : F-# 02 6 ... : ... .. . ... : ... .. . ... : ... .. . ... : G#1 01 . ...
ROW 65 : ... .. . ... : ... .. . ... : --- .. . ... : ... .. . ... : ... .. . ... : ... .. . ... : ... .. . ... : --- .. . ...
ROW 66 : C-3 06 . ... : D#3 06 . ... : D#2 00 . ... : F-# 02 8 ... : ... .. . ... : G#2 04 . ... : C-3 04 . ... : G#1 01 . ...
ROW 67 : ... .. . ... : ... .. . ... : --- .. . ... : ... .. . ... : ... .. . ... : ... .. . ... : ... .. . ... : --- .. . ...
ROW 68 : G#3 06 . ... : C-3 06 . ... : D#3 00 . ... : 3-# 03 A ... : ... .. . ... : ... .. . ... : ... .. . ... : G#2 01 . ...
ROW 69 : ... .. . ... : ... .. . ... : --- .. . ... : ... .. . ... : ... .. . ... : ... .. . ... : ... .. . ... : --- .. . ...
ROW 6A : D#3 06 . ... : G#3 06 . ... : D#2 00 . ... : ... .. . ... : ... .. . ... : ... .. . ... : ... .. . ... : G#1 01 . ...
ROW 6B : ... .. . ... : ... .. . ... : --- .. . ... : C-# 03 3 ... : ... .. . ... : ... .. . ... : ... .. . ... : --- .. . ...
ROW 6C : C-3 06 C ... : D#3 06 . ... : D#2 00 . ... : D-# 03 8 ... : ... .. . ... : D#2 04 . ... : G#2 04 . ... : G#1 01 . ...
ROW 6D : ... .. B ... : ... .. . ... : --- .. . ... : ... .. . ... : ... .. . ... : ... .. . ... : ... .. . ... : --- .. . ...
ROW 6E : G#2 06 A ... : C-3 06 . ... : D#2 00 . ... : ... .. . ... : ... .. . ... : ... .. . ... : ... .. . ... : G#1 01 . ...
ROW 6F : ... .. 8 ... : ... .. . ... : --- .. . ... : ... .. . ... : ... .. . ... : ... .. . ... : ... .. . ... : --- .. . ...
ROW 70 : C-4 06 8 ... : G#2 06 . ... : D#2 00 . ... : F-# 02 8 ... : ... .. . ... : C-4 08 F ... : D#3 04 . ... : G#1 01 . ...
ROW 71 : ... .. . ... : ... .. . ... : --- .. . ... : ... .. . ... : ... .. . ... : ... .. . ... : ... .. . ... : --- .. . ...
ROW 72 : G#3 06 . ... : C-4 06 . ... : D#2 00 . ... : F-# 02 2 ... : ... .. . ... : ... .. . ... : C-4 08 4 ... : G#1 01 . ...
ROW 73 : ... .. . ... : ... .. . ... : --- .. . ... : F-# 02 4 ... : ... .. . ... : ... .. . ... : ... .. . ... : --- .. . ...
ROW 74 : D#3 06 . ... : G#3 06 . ... : D#2 00 . ... : F-# 02 6 ... : ... .. . ... : D-4 08 . ... : ... .. . ... : G#1 01 . ...
ROW 75 : ... .. . ... : ... .. . ... : --- .. . ... : ... .. . ... : ... .. . ... : ... .. . ... : ... .. . ... : --- .. . ...
ROW 76 : C-3 06 . ... : D#3 06 . ... : D#2 00 . ... : F-# 02 8 ... : ... .. . ... : ... .. . ... : D-4 08 . ... : G#1 01 . ...
ROW 77 : ... .. . ... : ... .. . ... : --- .. . ... : ... .. . ... : ... .. . ... : ... .. . ... : ... .. . ... : --- .. . ...
ROW 78 : G#3 06 . ... : C-3 06 . ... : D#3 00 . ... : 3-# 03 A ... : ... .. . ... : D#4 08 . ... : ... .. . ... : G#2 01 . ...
ROW 79 : ... .. . ... : ... .. . ... : --- .. . ... : ... .. . ... : ... .. . ... : ... .. . ... : ... .. . ... : --- .. . ...
ROW 7A : D#3 06 . ... : G#3 06 . ... : D#2 00 . ... : ... .. . ... : ... .. . ... : ... .. . ... : D#4 08 . ... : G#1 01 . ...
ROW 7B : ... .. . ... : ... .. . ... : --- .. . ... : ... .. . ... : ... .. . ... : F-4 08 . ... : ... .. . ... : --- .. . ...
ROW 7C : C-3 06 . ... : D#3 06 . ... : D#3 00 . ... : ... .. . ... : ... .. . ... : ... .. . ... : ... .. . ... : G#1 01 . ...
ROW 7D : ... .. . ... : ... .. . ... : D#2 00 . ... : ... .. . ... : ... .. . ... : ... .. . ... : F-4 08 . ... : --- .. . ...
ROW 7E : G#2 06 . ... : C-3 06 . ... : D#3 00 . ... : ... .. . ... : ... .. . ... : ... .. . ... : ... .. . ... : G#1 01 . ...
ROW 7F : ... .. . ... : ... .. . ... : --- .. . ... : ... .. . ... : ... .. . ... : ... .. . ... : ... .. . ... : --- .. . ...

PATTERN 07
ROW 00 : C-4 06 8 ... : ... .. . ... : C-2 00 . ... : F-# 02 8 ... : ... .. . ... : G-4 08 F ... : ... .. . ... : D#1 01 C ...
ROW 01 : ... .. . ... : ... .. . ... : --- .. . ... : ... .. . ... : ... .. . ... : ... .. . ... : ... .. . ... : --- .. . ...
ROW 02 : G-3 06 . ... : C-4 06 4 ... : C-2 00 . ... : F-# 02 2 ... : ... .. . ... : ... .. . ... : G-4 08 7 ... : D#1 01 . ...
ROW 03 : ... .. . ... : ... .. . ... : --- .. . ... : F-# 02 4 ... : ... .. . ... : ... .. . ... : ... .. . ... : --- .. . ...
ROW 04 : D#3 06 . ... : G-3 06 . ... : C-2 00 . ... : F-# 02 6 ... : ... .. . ... : ... .. . ... : ... .. . ... : D#1 01 . ...
ROW 05 : ... .. . ... : ... .. . ... : --- .. . ... : ... .. . ... : ... .. . ... : ... .. . ... : ... .. . ... : --- .. . ...
ROW 06 : C-3 06 . ... : D#3 06 . ... : C-2 00 . ... : F-# 02 8 ... : ... .. . ... : ... .. . ... : ... .. . ... : D#1 01 . ...
ROW 07 : ... .. . ... : ... .. . ... : --- .. . ... : ... .. . ... : ... .. . ... : ... .. . ... : ... .. . ... : --- .. . ...
ROW 08 : G-3 06 . ... : C-3 06 . ... : C-3 00 . ... : 3-# 03 A ... : ... .. . ... : F-4 08 . ... : ... .. . ... : D#2 01 . ...
ROW 09 : ... .. . ... : ... .. . ... : --- .. . ... : ... .. . ... : ... .. . ... : ... .. . ... : ... .. . ... : --- .. . ...
ROW 0A : D#3 06 . ... : G-3 06 . ... : C-2 00 . ... : ... .. . ... : ... .. . ... : ... .. . ... : F-4 08 . ... : D#1 01 . ...
ROW 0B : ... .. . ... : ... .. . ... : --- .. . ... : C-# 03 3 ... : ... .. . ... : ... .. . ... : ... .. . ... : --- .. . ...
ROW 0C : C-3 06 . ... : D#3 06 . ... : C-2 00 . ... : D-# 03 8 ... : ... .. . ... : D#4 08 . ... : ... .. . ... : D#1 01 . ...
ROW 0D : ... .. . ... : ... .. . ... : --- .. . ... : ... .. . ... : ... .. . ... : ... .. . ... : ... .. . ... : --- .. . ...
ROW 0E : G-2 06 . ... : C-3 06 . ... : C-2 00 . ... : ... .. . ... : ... .. . ... : ... .. . ... : D#4 08 . ... : D#1 01 . ...
ROW 0F : ... .. . ... : ... .. . ... : --- .. . ... : ... .. . ... : ... .. . ... : ... .. . ... : ... .. . ... : --- .. . ...
ROW 10 : C-4 06 . ... : G-2 06 . ... : C-2 00 . ... : F-# 02 8 ... : ... .. . ... : D-4 08 . ... : ... .. . ... : D#1 01 . ...
ROW 11 : ... .. . ... : ... .. . ... : --- .. . ... : ... .. . ... : ... .. . ... : ... .. . ... : ... .. . ... : --- .. . ...
ROW 12 : G-3 06 . ... : C-4 06 . ... : C-2 00 . ... : F-# 02 2 ... : ... .. . ... : ... .. . ... : D-4 08 . ... : D#1 01 . ...
ROW 13 : ... .. . ... : ... .. . ... : --- .. . ... : F-# 02 4 ... : ... .. . ... : ... .. . ... : ... .. . ... : --- .. . ...
ROW 14 : D#3 06 . ... : G-3 06 . ... : C-2 00 . ... : F-# 02 6 ... : ... .. . ... : ... .. . ... : ... .. . ... : D#1 01 . ...
ROW 15 : ... .. . ... : ... .. . ... : --- .. . ... : ... .. . ... : ... .. . ... : ... .. . ... : ... .. . ... : --- .. . ...
ROW 16 : C-3 06 . ... : D#3 06 . ... : C-2 00 . ... : F-# 02 8 ... : ... .. . ... : ... .. . ... : ... .. . ... : D#1 01 . ...
ROW 17 : ... .. . ... : ... .. . ... : --- .. . ... : ... .. . ... : ... .. . ... : ... .. . ... : ... .. . ... : --- .. . ...
ROW 18 : G-3 06 . ... : C-3 06 . ... : C-3 00 . ... : 3-# 03 A ... : ... .. . ... : D#4 09 . ... : ... .. . ... : D#2 01 . ...
ROW 19 : ... .. . ... : ... .. . ... : --- .. . ... : ... .. . ... : ... .. . ... : D-4 09 . ... : ... .. . ... : --- .. . ...
ROW 1A : D#3 06 . ... : G-3 06 . ... : C-2 00 . ... : ... .. . ... : ... .. . ... : D#4 09 . ... : D#4 09 . ... : D#1 01 . ...
ROW 1B : ... .. . ... : ... .. . ... : --- .. . ... : ... .. . ... : ... .. . ... : D-4 09 . ... : D-4 09 . ... : --- .. . ...
ROW 1C : C-3 06 . ... : D#3 06 . ... : C-3 00 . ... : ... .. . ... : ... .. . ... : D#4 09 . ... : D#4 09 . ... : D#1 01 . ...
ROW 1D : ... .. . ... : ... .. . ... : C-2 00 . ... : ... .. . ... : ... .. . ... : D-4 09 . ... : D-4 09 . ... : --- .. . ...
ROW 1E : G-2 06 . ... : C-3 06 . ... : C-3 00 . ... : ... .. . ... : ... .. . ... : D#4 09 . ... : D#4 09 . ... : D#1 01 . ...
ROW 1F : ... .. . ... : ... .. . ... : --- .. . ... : ... .. . ... : ... .. . ... : D-4 09 . ... : D-4 09 . ... : --- .. . ...
ROW 20 : C-4 06 . ... : G#2 06 . ... : D#2 00 . ... : F-# 02 8 ... : ... .. . ... : D#4 08 . ... : D#4 09 . ... : G#1 01 . ...
ROW 21 : ... .. . ... : ... .. . ... : --- .. . ... : ... .. . ... : ... .. . ... : ... .. . ... : D-4 09 . ... : --- .. . ...
ROW 22 : G#3 06 . ... : C-4 06 . ... : D#2 00 . ... : F-# 02 2 ... : ... .. . ... : ... .. . ... : D#4 08 . ... : G#1 01 . ...
ROW 23 : ... .. . ... : ... .. . ... : --- .. . ... : F-# 02 4 ... : ... .. . ... : ... .. . ... : ... .. . ... : --- .. . ...
ROW 24 : D#3 06 . ... : G#3 06 . ... : D#2 00 . ... : F-# 02 6 ... : ... .. . ... : ... .. . ... : ... .. . ... : G#1 01 . ...
ROW 25 : ... .. . ... : ... .. . ... : --- .. . ... : ... .. . ... : ... .. . ... : ... .. . ... : ... .. . ... : --- .. . ...
ROW 26 : C-3 06 . ... : D#3 06 . ... : D#2 00 . ... : F-# 02 8 ... : ... .. . ... : ... .. . ... : ... .. . ... : G#1 01 . ...
ROW 27 : ... .. . ... : ... .. . ... : --- .. . ... : ... .. . ... : ... .. . ... : ... .. . ... : ... .. . ... : --- .. . ...
ROW 28 : G#3 06 . ... : C-3 06 . ... : D#3 00 . ... : 3-# 03 A ... : ... .. . ... : ... .. . ... : ... .. . ... : G#2 01 . ...
ROW 29 : ... .. . ... : ... .. . ... : --- .. . ... : ... .. . ... : ... .. . ... : ... .. . ... : ... .. . ... : --- .. . ...
ROW 2A : D#3 06 . ... : G#3 06 . ... : D#2 00 . ... : ... .. . ... : ... .. . ... : ... .. . ... : ... .. . ... : G#1 01 . ...
ROW 2B : ... .. . ... : ... .. . ... : --- .. . ... : C-# 03 3 ... : ... .. . ... : ... .. . ... : ... .. . ... : --- .. . ...
ROW 2C : C-3 06 . ... : D#3 06 . ... : D#2 00 . ... : D-# 03 8 ... : ... .. . ... : C-4 08 . ... : ... .. . ... : G#1 01 . ...
ROW 2D : ... .. . ... : ... .. . ... : --- .. . ... : ... .. . ... : ... .. . ... : ... .. . ... : ... .. . ... : --- .. . ...
ROW 2E : G#2 06 . ... : C-3 06 . ... : D#2 00 . ... : ... .. . ... : ... .. . ... : ... .. . ... : C-4 08 . ... : G#1 01 . ...
ROW 2F : ... .. . ... : ... .. . ... : --- .. . ... : ... .. . ... : ... .. . ... : ... .. . ... : ... .. . ... : --- .. . ...
ROW 30 : C-4 06 . ... : G#2 06 . ... : D#2 00 . ... : F-# 02 8 ... : ... .. . ... : C-4 08 . ... : ... .. . ... : G#1 01 . ...
ROW 31 : ... .. . ... : ... .. . ... : --- .. . ... : ... .. . ... : ... .. . ... : ... .. . ... : ... .. . ... : --- .. . ...
ROW 32 : G#3 06 . ... : C-4 06 . ... : D#2 00 . ... : F-# 02 2 ... : ... .. . ... : ... .. . ... : C-4 08 . ... : G#1 01 . ...
ROW 33 : ... .. . ... : ... .. . ... : --- .. . ... : F-# 02 4 ... : ... .. . ... : ... .. . ... : ... .. . ... : --- .. . ...
ROW 34 : D#3 06 . ... : G#3 06 . ... : D#2 00 . ... : F-# 02 6 ... : ... .. . ... : ... .. . ... : ... .. . ... : G#1 01 . ...
ROW 35 : ... .. . ... : ... .. . ... : --- .. . ... : ... .. . ... : ... .. . ... : ... .. . ... : ... .. . ... : --- .. . ...
ROW 36 : C-3 06 . ... : D#3 06 . ... : D#2 00 . ... : F-# 02 8 ... : ... .. . ... : ... .. . ... : ... .. . ... : G#1 01 . ...
ROW 37 : ... .. . ... : ... .. . ... : --- .. . ... : ... .. . ... : ... .. . ... : ... .. . ... : ... .. . ... : --- .. . ...
ROW 38 : G#3 06 . ... : C-3 06 . ... : D#3 00 . ... : 3-# 03 A ... : ... .. . ... : ... .. . ... : ... .. . ... : G#2 01 . ...
ROW 39 : ... .. . ... : ... .. . ... : --- .. . ... : ... .. . ... : ... .. . ... : ... .. . ... : ... .. . ... : --- .. . ...
ROW 3A : D#3 06 . ... : G#3 06 . ... : D#2 00 . ... : ... .. . ... : ... .. . ... : ... .. . ... : ... .. . ... : G#1 01 . ...
ROW 3B : ... .. . ... : ... .. . ... : --- .. . ... : ... .. . ... : ... .. . ... : ... .. . ... : ... .. . ... : --- .. . ...
ROW 3C : C-3 06 . ... : D#3 06 . ... : D#3 00 . ... : ... .. . ... : ... .. . ... : === 04 . ... : ... .. . ... : G#1 01 . ...
ROW 3D : ... .. . ... : ... .. . ... : D#2 00 . ... : ... .. . ... : ... .. . ... : ... .. . ... : ... .. . ... : --- .. . ...
ROW 3E : G#2 06 . ... : C-3 06 . ... : D#3 00 . ... : ... .. . ... : ... .. . ... : ... .. . ... : === 04 . ... : G#1 01 . ...
ROW 3F : ... .. . ... : ... .. . ... : --- .. . ... : ... .. . ... : ... .. . ... : ... .. . ... : ... .. . ... : --- .. . ...
ROW 40 : C-4 06 . ... : G-2 06 . ... : F-2 00 . ... : F-# 02 8 ... : ... .. . ... : F-4 08 . ... : ... .. . ... : C-1 01 . ...
ROW 41 : ... .. . ... : ... .. . ... : --- .. . ... : ... .. . ... : ... .. . ... : ... .. . ... : ... .. . ... : --- .. . ...
ROW 42 : G#3 06 . ... : C-4 06 . ... : F-2 00 . ... : F-# 02 2 ... : ... .. . ... : ... .. . ... : F-4 08 . ... : C-1 01 . ...
ROW 43 : ... .. . ... : ... .. . ... : --- .. . ... : F-# 02 4 ... : ... .. . ... : ... .. . ... : ... .. . ... : --- .. . ...
ROW 44 : F-3 06 . ... : G#3 06 . ... : F-2 00 . ... : F-# 02 6 ... : ... .. . ... : ... .. . ... : ... .. . ... : C-1 01 . ...
ROW 45 : ... .. . ... : ... .. . ... : --- .. . ... : ... .. . ... : ... .. . ... : ... .. . ... : ... .. . ... : --- .. . ...
ROW 46 : C-3 06 . ... : F-3 06 . ... : F-2 00 . ... : F-# 02 8 ... : ... .. . ... : ... .. . ... : ... .. . ... : C-1 01 . ...
ROW 47 : ... .. . ... : ... .. . ... : --- .. . ... : ... .. . ... : ... .. . ... : ... .. . ... : ... .. . ... : --- .. . ...
ROW 48 : G#3 06 . ... : C-3 06 . ... : F-3 00 . ... : 3-# 03 A ... : ... .. . ... : F-4 08 . ... : ... .. . ... : C-2 01 . ...
ROW 49 : ... .. . ... : ... .. . ... : --- .. . ... : ... .. . ... : ... .. . ... : ... .. . ... : ... .. . ... : --- .. . ...
ROW 4A : F-3 06 . ... : G#3 06 . ... : F-2 00 . ... : ... .. . ... : ... .. . ... : ... .. . ... : F-4 08 . ... : C-1 01 . ...
ROW 4B : ... .. . ... : ... .. . ... : --- .. . ... : C-# 03 3 ... : ... .. . ... : ... .. . ... : ... .. . ... : --- .. . ...
ROW 4C : C-3 06 . ... : F-3 06 . ... : F-2 00 . ... : D-# 03 8 ... : ... .. . ... : G-4 08 . ... : ... .. . ... : C-1 01 . ...
ROW 4D : ... .. . ... : ... .. . ... : --- .. . ... : ... .. . ... : ... .. . ... : ... .. . ... : ... .. . ... : --- .. . ...
ROW 4E : G#2 06 . ... : C-3 06 . ... : F-2 00 . ... : ... .. . ... : ... .. . ... : ... .. . ... : G-4 08 . ... : C-1 01 . ...
ROW 4F : ... .. . ... : ... .. . ... : --- .. . ... : ... .. . ... : ... .. . ... : ... .. . ... : ... .. . ... : --- .. . ...
ROW 50 : C-4 06 . ... : G#2 06 . ... : F-2 00 . ... : F-# 02 8 ... : ... .. . ... : G#4 08 . ... : ... .. . ... : C-1 01 . ...
ROW 51 : ... .. . ... : ... .. . ... : --- .. . ... : ... .. . ... : ... .. . ... : ... .. . ... : ... .. . ... : --- .. . ...
ROW 52 : G#3 06 . ... : C-4 06 . ... : F-2 00 . ... : F-# 02 2 ... : ... .. . ... : ... .. . ... : G#4 08 . ... : C-1 01 . ...
ROW 53 : ... .. . ... : ... .. . ... : --- .. . ... : F-# 02 4 ... : ... .. . ... : ... .. . ... : ... .. . ... : --- .. . ...
ROW 54 : F-3 06 . ... : G#3 06 . ... : F-2 00 . ... : F-# 02 6 ... : ... .. . ... : G-4 08 . ... : ... .. . ... : C-1 01 . ...
ROW 55 : ... .. . ... : ... .. . ... : --- .. . ... : ... .. . ... : ... .. . ... : ... .. . ... : ... .. . ... : --- .. . ...
ROW 56 : C-3 06 . ... : F-3 06 . ... : F-2 00 . ... : F-# 02 8 ... : ... .. . ... : F-4 08 . ... : G-4 08 . ... : C-1 01 . ...
ROW 57 : ... .. . ... : ... .. . ... : --- .. . ... : ... .. . ... : ... .. . ... : ... .. . ... : ... .. . ... : --- .. . ...
ROW 58 : G#3 06 . ... : C-3 06 . ... : F-3 00 . ... : 3-# 03 A ... : ... .. . ... : ... .. . ... : F-4 08 . ... : C-2 01 . ...
ROW 59 : ... .. . ... : ... .. . ... : --- .. . ... : 1-# 03 1 ... : ... .. . ... : ... .. . ... : ... .. . ... : --- .. . ...
ROW 5A : F-3 06 . ... : G#3 06 . ... : F-2 00 . ... : 1-# 03 2 ... : ... .. . ... : ... .. . ... : ... .. . ... : C-1 01 . ...
ROW 5B : ... .. . ... : ... .. . ... : --- .. . ... : 1-# 03 3 ... : ... .. . ... : ... .. . ... : ... .. . ... : --- .. . ...
ROW 5C : C-3 06 . ... : F-3 06 . ... : F-3 00 . ... : 1-# 03 4 ... : ... .. . ... : G#4 08 . ... : ... .. . ... : C-1 01 . ...
ROW 5D : ... .. . ... : ... .. . ... : F-2 00 . ... : 1-# 03 5 ... : ... .. . ... : ... .. . ... : ... .. . ... : --- .. . ...
ROW 5E : G#2 06 . ... : C-3 06 . ... : F-3 00 . ... : 1-# 03 6 ... : ... .. . ... : F-4 08 . ... : G#4 08 . ... : C-1 01 . ...
ROW 5F : ... .. . ... : ... .. . ... : --- .. . ... : 1-# 03 7 ... : ... .. . ... : ... .. . ... : ... .. . ... : --- .. . ...
ROW 60 : C-4 06 . ... : G#2 06 . ... : D#2 00 . ... : F-# 02 8 ... : ... .. . ... : D#4 08 . ... : F-4 08 . ... : G#1 01 . ...
ROW 61 : ... .. . ... : ... .. . ... : --- .. . ... : ... .. . ... : ... .. . ... : ... .. . ... : ... .. . ... : --- .. . ...
ROW 62 : G#3 06 . ... : C-4 06 . ... : D#2 00 . ... : F-# 02 2 ... : ... .. . ... : ... .. . ... : D#4 08 . ... : G#1 01 . ...
ROW 63 : ... .. . ... : ... .. . ... : --- .. . ... : F-# 02 4 ... : ... .. . ... : ... .. . ... : ... .. . ... : --- .. . ...
ROW 64 : D#3 06 . ... : G#3 06 . ... : D#2 00 . ... : F-# 02 6 ... : ... .. . ... : ... .. . ... : ... .. . ... : G#1 01 . ...
ROW 65 : ... .. . ... : ... .. . ... : --- .. . ... : ... .. . ... : ... .. . ... : ... .. . ... : ... .. . ... : --- .. . ...
ROW 66 : C-3 06 . ... : D#3 06 . ... : D#2 00 . ... : F-# 02 8 ... : ... .. . ... : ... .. . ... : ... .. . ... : G#1 01 . ...
ROW 67 : ... .. . ... : ... .. . ... : --- .. . ... : ... .. . ... : ... .. . ... : ... .. . ... : ... .. . ... : --- .. . ...
ROW 68 : G#3 06 . ... : C-3 06 . ... : D#3 00 . ... : 3-# 03 A ... : ... .. . ... : ... .. . ... : ... .. . ... : G#2 01 . ...
ROW 69 : ... .. . ... : ... .. . ... : --- .. . ... : ... .. . ... : ... .. . ... : ... .. . ... : ... .. . ... : --- .. . ...
ROW 6A : D#3 06 . ... : G#3 06 . ... : D#2 00 . ... : ... .. . ... : ... .. . ... : ... .. . ... : ... .. . ... : G#1 01 . ...
ROW 6B : ... .. . ... : ... .. . ... : --- .. . ... : C-# 03 3 ... : ... .. . ... : ... .. . ... : ... .. . ... : --- .. . ...
ROW 6C : C-3 06 . ... : D#3 06 . ... : D#2 00 . ... : D-# 03 8 ... : ... .. . ... : D#4 08 . ... : ... .. . ... : G#1 01 . ...
ROW 6D : ... .. . ... : ... .. . ... : --- .. . ... : ... .. . ... : ... .. . ... : ... .. . ... : ... .. . ... : --- .. . ...
ROW 6E : G#2 06 . ... : C-3 06 . ... : D#2 00 . ... : ... .. . ... : ... .. . ... : D-4 08 . ... : D#4 08 . ... : G#1 01 . ...
ROW 6F : ... .. . ... : ... .. . ... : --- .. . ... : ... .. . ... : ... .. . ... : ... .. . ... : ... .. . ... : --- .. . ...
ROW 70 : C-4 06 . ... : G#2 06 . ... : D#2 00 . ... : F-# 02 8 ... : ... .. . ... : D#4 08 . ... : D-4 08 . ... : G#1 01 . ...
ROW 71 : ... .. . ... : ... .. . ... : --- .. . ... : ... .. . ... : ... .. . ... : ... .. . ... : ... .. . ... : --- .. . ...
ROW 72 : G#3 06 . ... : C-4 06 . ... : D#2 00 . ... : F-# 02 2 ... : ... .. . ... : ... .. . ... : D#4 08 . ... : G#1 01 . ...
ROW 73 : ... .. . ... : ... .. . ... : --- .. . ... : F-# 02 4 ... : ... .. . ... : ... .. . ... : ... .. . ... : --- .. . ...
ROW 74 : D#3 06 . ... : G#3 06 . ... : D#2 00 . ... : F-# 02 6 ... : ... .. . ... : ... .. . ... : ... .. . ... : G#1 01 . ...
ROW 75 : ... .. . ... : ... .. . ... : --- .. . ... : ... .. . ... : ... .. . ... : ... .. . ... : ... .. . ... : --- .. . ...
ROW 76 : C-3 06 . ... : D#3 06 . ... : D#2 00 . ... : F-# 02 8 ... : ... .. . ... : ... .. . ... : ... .. . ... : G#1 01 . ...
ROW 77 : ... .. . ... : ... .. . ... : --- .. . ... : ... .. . ... : ... .. . ... : ... .. . ... : ... .. . ... : --- .. . ...
ROW 78 : G#3 06 . ... : C-3 06 . ... : D#3 00 . ... : 3-# 03 A ... : ... .. . ... : F-4 08 . ... : ... .. . ... : G#2 01 . ...
ROW 79 : ... .. . ... : ... .. . ... : --- .. . ... : ... .. . ... : ... .. . ... : ... .. . ... : ... .. . ... : --- .. . ...
ROW 7A : D#3 06 . ... : G#3 06 . ... : D#2 00 . ... : ... .. . ... : ... .. . ... : ... .. . ... : F-4 08 . ... : G#1 01 . ...
ROW 7B : ... .. . ... : ... .. . ... : --- .. . ... : ... .. . ... : ... .. . ... : ... .. . ... : ... .. . ... : --- .. . ...
ROW 7C : C-3 06 . ... : D#3 06 . ... : D#3 00 . ... : ... .. . ... : ... .. . ... : D-4 08 . ... : ... .. . ... : G#1 01 . ...
ROW 7D : ... .. . ... : ... .. . ... : D#2 00 . ... : ... .. . ... : ... .. . ... : ... .. . ... : ... .. . ... : --- .. . ...
ROW 7E : G#2 06 . ... : C-3 06 . ... : D#3 00 . ... : ... .. . ... : ... .. . ... : ... .. . ... : D-4 08 . ... : G#1 01 . ...
ROW 7F : ... .. . ... : ... .. . ... : --- .. . ... : ... .. . ... : ... .. . ... : ... .. . ... : ... .. . ... : --- .. . ...

PATTERN 08
ROW 00 : C-4 06 8 ... : ... .. . ... : C-2 00 . ... : F-# 02 8 ... : ... .. . ... : C-4 08 F ... : ... .. . ... : D#1 01 C ...
ROW 01 : ... .. . ... : ... .. . ... : --- .. . ... : ... .. . ... : ... .. . ... : ... .. . ... : ... .. . ... : --- .. . ...
ROW 02 : G-3 06 . ... : C-4 06 4 ... : C-2 00 . ... : F-# 02 2 ... : ... .. . ... : ... .. . ... : C-4 08 7 ... : D#1 01 . ...
ROW 03 : ... .. . ... : ... .. . ... : --- .. . ... : F-# 02 4 ... : ... .. . ... : ... .. . ... : ... .. . ... : --- .. . ...
ROW 04 : D#3 06 . ... : G-3 06 . ... : C-2 00 . ... : F-# 02 6 ... : ... .. . ... : ... .. . ... : ... .. . ... : D#1 01 . ...
ROW 05 : ... .. . ... : ... .. . ... : --- .. . ... : ... .. . ... : ... .. . ... : ... .. . ... : ... .. . ... : --- .. . ...
ROW 06 : C-3 06 . ... : D#3 06 . ... : C-2 00 . ... : F-# 02 8 ... : ... .. . ... : ... .. . ... : ... .. . ... : D#1 01 . ...
ROW 07 : ... .. . ... : ... .. . ... : --- .. . ... : ... .. . ... : ... .. . ... : ... .. . ... : ... .. . ... : --- .. . ...
ROW 08 : G-3 06 . ... : C-3 06 . ... : C-3 00 . ... : 3-# 03 A ... : ... .. . ... : D-4 08 . ... : ... .. . ... : D#2 01 . ...
ROW 09 : ... .. . ... : ... .. . ... : --- .. . ... : ... .. . ... : ... .. . ... : ... .. . ... : ... .. . ... : --- .. . ...
ROW 0A : D#3 06 . ... : G-3 06 . ... : C-2 00 . ... : ... .. . ... : ... .. . ... : ... .. . ... : D-4 08 . ... : D#1 01 . ...
ROW 0B : ... .. . ... : ... .. . ... : --- .. . ... : C-# 03 3 ... : ... .. . ... : ... .. . ... : ... .. . ... : --- .. . ...
ROW 0C : C-3 06 . ... : D#3 06 . ... : C-2 00 . ... : D-# 03 8 ... : ... .. . ... : D#4 08 . ... : ... .. . ... : D#1 01 . ...
ROW 0D : ... .. . ... : ... .. . ... : --- .. . ... : ... .. . ... : ... .. . ... : ... .. . ... : ... .. . ... : --- .. . ...
ROW 0E : G-2 06 . ... : C-3 06 . ... : C-2 00 . ... : ... .. . ... : ... .. . ... : ... .. . ... : D#4 08 . ... : D#1 01 . ...
ROW 0F : ... .. . ... : ... .. . ... : --- .. . ... : ... .. . ... : ... .. . ... : ... .. . ... : ... .. . ... : --- .. . ...
ROW 10 : C-4 06 . ... : G-2 06 . ... : C-2 00 . ... : F-# 02 8 ... : ... .. . ... : D-4 08 . ... : ... .. . ... : D#1 01 . ...
ROW 11 : ... .. . ... : ... .. . ... : --- .. . ... : ... .. . ... : ... .. . ... : ... .. . ... : ... .. . ... : --- .. . ...
ROW 12 : G-3 06 . ... : C-4 06 . ... : C-2 00 . ... : F-# 02 2 ... : ... .. . ... : ... .. . ... : D-4 08 . ... : D#1 01 . ...
ROW 13 : ... .. . ... : ... .. . ... : --- .. . ... : F-# 02 4 ... : ... .. . ... : ... .. . ... : ... .. . ... : --- .. . ...
ROW 14 : D#3 06 . ... : G-3 06 . ... : C-2 00 . ... : F-# 02 6 ... : ... .. . ... : ... .. . ... : ... .. . ... : D#1 01 . ...
ROW 15 : ... .. . ... : ... .. . ... : --- .. . ... : ... .. . ... : ... .. . ... : ... .. . ... : ... .. . ... : --- .. . ...
ROW 16 : C-3 06 . ... : D#3 06 . ... : C-2 00 . ... : F-# 02 8 ... : ... .. . ... : ... .. . ... : ... .. . ... : D#1 01 . ...
ROW 17 : ... .. . ... : ... .. . ... : --- .. . ... : ... .. . ... : ... .. . ... : ... .. . ... : ... .. . ... : --- .. . ...
ROW 18 : G-3 06 . ... : C-3 06 . ... : C-3 00 . ... : 3-# 03 A ... : ... .. . ... : D#4 09 . ... : ... .. . ... : D#2 01 . ...
ROW 19 : ... .. . ... : ... .. . ... : --- .. . ... : ... .. . ... : ... .. . ... : D-4 09 . ... : ... .. . ... : --- .. . ...
ROW 1A : D#3 06 . ... : G-3 06 . ... : C-2 00 . ... : ... .. . ... : ... .. . ... : D#4 09 . ... : D#4 09 . ... : D#1 01 . ...
ROW 1B : ... .. . ... : ... .. . ... : --- .. . ... : ... .. . ... : ... .. . ... : D-4 09 . ... : D-4 09 . ... : --- .. . ...
ROW 1C : C-3 06 . ... : D#3 06 . ... : C-3 00 . ... : ... .. . ... : ... .. . ... : D#4 09 . ... : D#4 09 . ... : D#1 01 . ...
ROW 1D : ... .. . ... : ... .. . ... : C-2 00 . ... : ... .. . ... : ... .. . ... : D-4 09 . ... : D-4 09 . ... : --- .. . ...
ROW 1E : G-2 06 . ... : C-3 06 . ... : C-3 00 . ... : ... .. . ... : ... .. . ... : D#4 09 . ... : D#4 09 . ... : D#1 01 . ...
ROW 1F : ... .. . ... : ... .. . ... : --- .. . ... : ... .. . ... : ... .. . ... : D-4 09 . ... : D-4 09 . ... : --- .. . ...
ROW 20 : C-4 06 . ... : G#2 06 . ... : D#2 00 . ... : F-# 02 8 ... : ... .. . ... : D#4 08 . ... : D#4 09 . ... : G#1 01 . ...
ROW 21 : ... .. . ... : ... .. . ... : --- .. . ... : ... .. . ... : ... .. . ... : ... .. . ... : D-4 09 . ... : --- .. . ...
ROW 22 : G#3 06 . ... : C-4 06 . ... : D#2 00 . ... : F-# 02 2 ... : ... .. . ... : ... .. . ... : D#4 08 . ... : G#1 01 . ...
ROW 23 : ... .. . ... : ... .. . ... : --- .. . ... : F-# 02 4 ... : ... .. . ... : ... .. . ... : ... .. . ... : --- .. . ...
ROW 24 : D#3 06 . ... : G#3 06 . ... : D#2 00 . ... : F-# 02 6 ... : ... .. . ... : ... .. . ... : ... .. . ... : G#1 01 . ...
ROW 25 : ... .. . ... : ... .. . ... : --- .. . ... : ... .. . ... : ... .. . ... : ... .. . ... : ... .. . ... : --- .. . ...
ROW 26 : C-3 06 . ... : D#3 06 . ... : D#2 00 . ... : F-# 02 8 ... : ... .. . ... : ... .. . ... : ... .. . ... : G#1 01 . ...
ROW 27 : ... .. . ... : ... .. . ... : --- .. . ... : ... .. . ... : ... .. . ... : ... .. . ... : ... .. . ... : --- .. . ...
ROW 28 : G#3 06 . ... : C-3 06 . ... : D#3 00 . ... : 3-# 03 A ... : ... .. . ... : ... .. . ... : ... .. . ... : G#2 01 . ...
ROW 29 : ... .. . ... : ... .. . ... : --- .. . ... : ... .. . ... : ... .. . ... : ... .. . ... : ... .. . ... : --- .. . ...
ROW 2A : D#3 06 . ... : G#3 06 . ... : D#2 00 . ... : ... .. . ... : ... .. . ... : ... .. . ... : ... .. . ... : G#1 01 . ...
ROW 2B : ... .. . ... : ... .. . ... : --- .. . ... : C-# 03 3 ... : ... .. . ... : ... .. . ... : ... .. . ... : --- .. . ...
ROW 2C : C-3 06 . ... : D#3 06 . ... : D#2 00 . ... : D-# 03 8 ... : ... .. . ... : C-4 08 . ... : ... .. . ... : G#1 01 . ...
ROW 2D : ... .. . ... : ... .. . ... : --- .. . ... : ... .. . ... : ... .. . ... : ... .. . ... : ... .. . ... : --- .. . ...
ROW 2E : G#2 06 . ... : C-3 06 . ... : D#2 00 . ... : ... .. . ... : ... .. . ... : ... .. . ... : C-4 08 . ... : G#1 01 . ...
ROW 2F : ... .. . ... : ... .. . ... : --- .. . ... : ... .. . ... : ... .. . ... : ... .. . ... : ... .. . ... : --- .. . ...
ROW 30 : C-4 06 . ... : G#2 06 . ... : D#2 00 . ... : F-# 02 8 ... : ... .. . ... : C-4 08 . ... : ... .. . ... : G#1 01 . ...
ROW 31 : ... .. . ... : ... .. . ... : --- .. . ... : ... .. . ... : ... .. . ... : ... .. . ... : ... .. . ... : --- .. . ...
ROW 32 : G#3 06 . ... : C-4 06 . ... : D#2 00 . ... : F-# 02 2 ... : ... .. . ... : ... .. . ... : C-4 08 . ... : G#1 01 . ...
ROW 33 : ... .. . ... : ... .. . ... : --- .. . ... : F-# 02 4 ... : ... .. . ... : ... .. . ... : ... .. . ... : --- .. . ...
ROW 34 : D#3 06 . ... : G#3 06 . ... : D#2 00 . ... : F-# 02 6 ... : ... .. . ... : ... .. . ... : ... .. . ... : G#1 01 . ...
ROW 35 : ... .. . ... : ... .. . ... : --- .. . ... : ... .. . ... : ... .. . ... : ... .. . ... : ... .. . ... : --- .. . ...
ROW 36 : C-3 06 . ... : D#3 06 . ... : D#2 00 . ... : F-# 02 8 ... : ... .. . ... : ... .. . ... : ... .. . ... : G#1 01 . ...
ROW 37 : ... .. . ... : ... .. . ... : --- .. . ... : ... .. . ... : ... .. . ... : ... .. . ... : ... .. . ... : --- .. . ...
ROW 38 : G#3 06 . ... : C-3 06 . ... : D#3 00 . ... : 3-# 03 A ... : ... .. . ... : ... .. . ... : ... .. . ... : G#2 01 . ...
ROW 39 : ... .. . ... : ... .. . ... : --- .. . ... : ... .. . ... : ... .. . ... : ... .. . ... : ... .. . ... : --- .. . ...
ROW 3A : D#3 06 . ... : G#3 06 . ... : D#2 00 . ... : ... .. . ... : ... .. . ... : ... .. . ... : ... .. . ... : G#1 01 . ...
ROW 3B : ... .. . ... : ... .. . ... : --- .. . ... : ... .. . ... : ... .. . ... : ... .. . ... : ... .. . ... : --- .. . ...
ROW 3C : C-3 06 . ... : D#3 06 . ... : D#3 00 . ... : ... .. . ... : ... .. . ... : === 04 . ... : ... .. . ... : G#1 01 . ...
ROW 3D : ... .. . ... : ... .. . ... : D#2 00 . ... : ... .. . ... : ... .. . ... : ... .. . ... : ... .. . ... : --- .. . ...
ROW 3E : G#2 06 . ... : C-3 06 . ... : D#3 00 . ... : ... .. . ... : ... .. . ... : ... .. . ... : === 04 . ... : G#1 01 . ...
ROW 3F : ... .. . ... : ... .. . ... : --- .. . ... : ... .. . ... : ... .. . ... : ... .. . ... : ... .. . ... : --- .. . ...
ROW 40 : C-4 06 . ... : G-2 06 . ... : F-2 00 . ... : F-# 02 8 ... : ... .. . ... : D-4 08 . ... : ... .. . ... : C-1 01 . ...
ROW 41 : ... .. . ... : ... .. . ... : --- .. . ... : ... .. . ... : ... .. . ... : ... .. . ... : ... .. . ... : --- .. . ...
ROW 42 : G#3 06 . ... : C-4 06 . ... : F-2 00 . ... : F-# 02 2 ... : ... .. . ... : ... .. . ... : D-4 08 . ... : C-1 01 . ...
ROW 43 : ... .. . ... : ... .. . ... : --- .. . ... : F-# 02 4 ... : ... .. . ... : ... .. . ... : ... .. . ... : --- .. . ...
ROW 44 : F-3 06 . ... : G#3 06 . ... : F-2 00 . ... : F-# 02 6 ... : ... .. . ... : ... .. . ... : ... .. . ... : C-1 01 . ...
ROW 45 : ... .. . ... : ... .. . ... : --- .. . ... : ... .. . ... : ... .. . ... : ... .. . ... : ... .. . ... : --- .. . ...
ROW 46 : C-3 06 . ... : F-3 06 . ... : F-2 00 . ... : F-# 02 8 ... : ... .. . ... : ... .. . ... : ... .. . ... : C-1 01 . ...
ROW 47 : ... .. . ... : ... .. . ... : --- .. . ... : ... .. . ... : ... .. . ... : ... .. . ... : ... .. . ... : --- .. . ...
ROW 48 : G#3 06 . ... : C-3 06 . ... : F-3 00 . ... : 3-# 03 A ... : ... .. . ... : D#4 08 . ... : ... .. . ... : C-2 01 . ...
ROW 49 : ... .. . ... : ... .. . ... : --- .. . ... : ... .. . ... : ... .. . ... : ... .. . ... : ... .. . ... : --- .. . ...
ROW 4A : F-3 06 . ... : G#3 06 . ... : F-2 00 . ... : ... .. . ... : ... .. . ... : ... .. . ... : D#4 08 . ... : C-1 01 . ...
ROW 4B : ... .. . ... : ... .. . ... : --- .. . ... : C-# 03 3 ... : ... .. . ... : ... .. . ... : ... .. . ... : --- .. . ...
ROW 4C : C-3 06 . ... : F-3 06 . ... : F-2 00 . ... : D-# 03 8 ... : ... .. . ... : ... .. . ... : ... .. . ... : C-1 01 . ...
ROW 4D : ... .. . ... : ... .. . ... : --- .. . ... : ... .. . ... : ... .. . ... : ... .. . ... : ... .. . ... : --- .. . ...
ROW 4E : G#2 06 . ... : C-3 06 . ... : F-2 00 . ... : ... .. . ... : ... .. . ... : ... .. . ... : ... .. . ... : C-1 01 . ...
ROW 4F : ... .. . ... : ... .. . ... : --- .. . ... : ... .. . ... : ... .. . ... : ... .. . ... : ... .. . ... : --- .. . ...
ROW 50 : C-4 06 . ... : G#2 06 . ... : F-2 00 . ... : F-# 02 8 ... : ... .. . ... : F-4 08 . ... : ... .. . ... : C-1 01 . ...
ROW 51 : ... .. . ... : ... .. . ... : --- .. . ... : ... .. . ... : ... .. . ... : ... .. . ... : ... .. . ... : --- .. . ...
ROW 52 : G#3 06 . ... : C-4 06 . ... : F-2 00 . ... : F-# 02 2 ... : ... .. . ... : ... .. . ... : F-4 08 . ... : C-1 01 . ...
ROW 53 : ... .. . ... : ... .. . ... : --- .. . ... : F-# 02 4 ... : ... .. . ... : ... .. . ... : ... .. . ... : --- .. . ...
ROW 54 : F-3 06 . ... : G#3 06 . ... : F-2 00 . ... : F-# 02 6 ... : ... .. . ... : ... .. . ... : ... .. . ... : C-1 01 . ...
ROW 55 : ... .. . ... : ... .. . ... : --- .. . ... : ... .. . ... : ... .. . ... : ... .. . ... : ... .. . ... : --- .. . ...
ROW 56 : C-3 06 . ... : F-3 06 . ... : F-2 00 . ... : F-# 02 8 ... : ... .. . ... : ... .. . ... : ... .. . ... : C-1 01 . ...
ROW 57 : ... .. . ... : ... .. . ... : --- .. . ... : ... .. . ... : ... .. . ... : ... .. . ... : ... .. . ... : --- .. . ...
ROW 58 : G#3 06 . ... : C-3 06 . ... : F-3 00 . ... : 3-# 03 A ... : ... .. . ... : D-4 08 . ... : ... .. . ... : C-2 01 . ...
ROW 59 : ... .. . ... : ... .. . ... : --- .. . ... : 1-# 03 1 ... : ... .. . ... : ... .. . ... : ... .. . ... : --- .. . ...
ROW 5A : F-3 06 . ... : G#3 06 . ... : F-2 00 . ... : 1-# 03 2 ... : ... .. . ... : ... .. . ... : D-4 08 . ... : C-1 01 . ...
ROW 5B : ... .. . ... : ... .. . ... : --- .. . ... : 1-# 03 3 ... : ... .. . ... : ... .. . ... : ... .. . ... : --- .. . ...
ROW 5C : C-3 06 . ... : F-3 06 . ... : F-3 00 . ... : 1-# 03 4 ... : ... .. . ... : ... .. . ... : ... .. . ... : C-1 01 . ...
ROW 5D : ... .. . ... : ... .. . ... : F-2 00 . ... : 1-# 03 5 ... : ... .. . ... : ... .. . ... : ... .. . ... : --- .. . ...
ROW 5E : G#2 06 . ... : C-3 06 . ... : F-3 00 . ... : 1-# 03 6 ... : ... .. . ... : ... .. . ... : ... .. . ... : C-1 01 . ...
ROW 5F : ... .. . ... : ... .. . ... : --- .. . ... : 1-# 03 7 ... : ... .. . ... : ... .. . ... : ... .. . ... : --- .. . ...
ROW 60 : C-4 06 . ... : G#2 06 . ... : D#2 00 . ... : F-# 02 8 ... : ... .. . ... : D#4 0A F ... : G#3 0A F ... : G#1 01 . ...
ROW 61 : ... .. . ... : ... .. . ... : --- .. . ... : ... .. . ... : ... .. . ... : ... .. E ... : ... .. E ... : --- .. . ...
ROW 62 : G#3 06 . ... : C-4 06 . ... : D#2 00 . ... : F-# 02 2 ... : ... .. . ... : ... .. D ... : ... .. D ... : G#1 01 . ...
ROW 63 : ... .. . ... : ... .. . ... : --- .. . ... : F-# 02 4 ... : ... .. . ... : ... .. C ... : ... .. C ... : --- .. . ...
ROW 64 : D#3 06 . ... : G#3 06 . ... : D#2 00 . ... : F-# 02 6 ... : ... .. . ... : ... .. B ... : ... .. B ... : G#1 01 . ...
ROW 65 : ... .. . ... : ... .. . ... : --- .. . ... : ... .. . ... : ... .. . ... : ... .. A ... : ... .. A ... : --- .. . ...
ROW 66 : C-3 06 . ... : D#3 06 . ... : D#2 00 . ... : F-# 02 8 ... : ... .. . ... : ... .. 9 ... : ... .. 9 ... : G#1 01 . ...
ROW 67 : ... .. . ... : ... .. . ... : --- .. . ... : ... .. . ... : ... .. . ... : ... .. 8 ... : ... .. 8 ... : --- .. . ...
ROW 68 : G#3 06 . ... : C-3 06 . ... : D#3 00 . ... : 3-# 03 A ... : ... .. . ... : ... .. 7 ... : ... .. 7 ... : G#2 01 . ...
ROW 69 : ... .. . ... : ... .. . ... : --- .. . ... : ... .. . ... : ... .. . ... : ... .. 6 ... : ... .. 6 ... : --- .. . ...
ROW 6A : D#3 06 . ... : G#3 06 . ... : D#2 00 . ... : ... .. . ... : ... .. . ... : ... .. 5 ... : ... .. 5 ... : G#1 01 . ...
ROW 6B : ... .. . ... : ... .. . ... : --- .. . ... : C-# 03 3 ... : ... .. . ... : ... .. 4 ... : ... .. 4 ... : --- .. . ...
ROW 6C : C-3 06 . ... : D#3 06 . ... : D#2 00 . ... : D-# 03 8 ... : ... .. . ... : ... .. 3 ... : ... .. 3 ... : G#1 01 . ...
ROW 6D : ... .. . ... : ... .. . ... : --- .. . ... : ... .. . ... : ... .. . ... : ... .. 2 ... : ... .. 2 ... : --- .. . ...
ROW 6E : G#2 06 . ... : C-3 06 . ... : D#2 00 . ... : ... .. . ... : ... .. . ... : ... .. 1 ... : ... .. 1 ... : G#1 01 . ...
ROW 6F : ... .. . ... : ... .. . ... : --- .. . ... : ... .. . ... : ... .. . ... : ... .. . ... : ... .. . ... : --- .. . ...
ROW 70 : C-4 06 . ... : G#2 06 . ... : D#2 00 . ... : F-# 02 8 ... : ... .. . ... : C-4 0A 1 ... : ... .. 1 ... : G#1 01 . ...
ROW 71 : ... .. . ... : ... .. . ... : --- .. . ... : ... .. . ... : ... .. . ... : ... .. 2 ... : ... .. 2 ... : --- .. . ...
ROW 72 : G#3 06 . ... : C-4 06 . ... : D#2 00 . ... : F-# 02 2 ... : ... .. . ... : ... .. 3 ... : ... .. 3 ... : G#1 01 . ...
ROW 73 : ... .. . ... : ... .. . ... : --- .. . ... : F-# 02 4 ... : ... .. . ... : ... .. 4 ... : ... .. 4 ... : --- .. . ...
ROW 74 : D#3 06 . ... : G#3 06 . ... : D#2 00 . ... : F-# 02 6 ... : ... .. . ... : D-4 0A 5 ... : ... .. 5 ... : G#1 01 F ...
ROW 75 : ... .. . ... : ... .. . ... : --- .. . ... : ... .. . ... : ... .. . ... : ... .. 6 ... : ... .. 6 ... : --- .. . ...
ROW 76 : C-3 06 . ... : D#3 06 . ... : D#2 00 . ... : F-# 02 8 ... : ... .. . ... : ... .. 7 ... : ... .. 7 ... : G#1 01 . ...
ROW 77 : ... .. . ... : ... .. . ... : --- .. . ... : ... .. . ... : ... .. . ... : ... .. 8 ... : ... .. 8 ... : --- .. . ...
ROW 78 : G#3 06 . ... : C-3 06 . ... : D-3 00 . ... : 3-# 03 A ... : ... .. . ... : D#4 08 F ... : ... .. 8 ... : G#2 01 . ...
ROW 79 : ... .. . ... : ... .. . ... : --- .. . ... : ... .. . ... : ... .. . ... : ... .. . ... : ... .. A ... : --- .. . ...
ROW 7A : D#3 06 . ... : G#3 06 . ... : D-2 00 . ... : ... .. . ... : ... .. . ... : ... .. . ... : D#4 08 7 ... : G#1 01 . ...
ROW 7B : ... .. . ... : ... .. . ... : --- .. . ... : ... .. . ... : ... .. . ... : ... .. . ... : ... .. . ... : --- .. . ...
ROW 7C : C-3 06 . ... : D#3 06 . ... : D-3 00 . ... : ... .. . ... : ... .. . ... : F-4 08 . ... : ... .. . ... : G#1 01 . ...
ROW 7D : ... .. . ... : ... .. . ... : D-2 00 . ... : ... .. . ... : ... .. . ... : ... .. . ... : ... .. . ... : --- .. . ...
ROW 7E : G#2 06 . ... : C-3 06 . ... : D-3 00 . ... : ... .. . ... : ... .. . ... : ... .. . ... : F-4 08 . ... : G#1 01 . ...
ROW 7F : ... .. . ... : ... .. . ... : --- .. . ... : ... .. . ... : ... .. . ... : ... .. . ... : ... .. . ... : --- .. . ...

PATTERN 09
ROW 00 : C-1 0B C ... : --- .. . ... : C-2 00 . ... : F-# 02 8 ... : ... .. . ... : C-4 09 C ... : ... .. . ... : D#4 07 C ...
ROW 01 : --- .. . ... : ... .. . ... : --- .. . ... : ... .. . ... : ... .. . ... : ... .. . ... : ... .. . ... : ... .. . ...
ROW 02 : C-1 0B . ... : D#4 06 8 ... : C-2 00 . ... : F-# 02 2 ... : ... .. . ... : G-3 09 . ... : C-4 09 4 ... : ... .. . ...
ROW 03 : --- .. . ... : ... .. . ... : --- .. . ... : F-# 02 4 ... : ... .. . ... : ... .. . ... : ... .. . ... : ... .. . ...
ROW 04 : C-1 0B . ... : ... .. . ... : C-2 00 . ... : F-# 02 6 ... : ... .. . ... : D#3 09 . ... : G-3 09 . ... : ... .. . ...
ROW 05 : --- .. . ... : ... .. . ... : --- .. . ... : ... .. . ... : ... .. . ... : ... .. . ... : ... .. . ... : ... .. . ...
ROW 06 : C-1 0B . ... : ... .. . ... : C-2 00 . ... : F-# 02 8 ... : ... .. . ... : C-3 09 . ... : D#3 09 . ... : ... .. . ...
ROW 07 : --- .. . ... : ... .. . ... : --- .. . ... : ... .. . ... : ... .. . ... : ... .. . ... : ... .. . ... : ... .. . ...
ROW 08 : C-2 0B . ... : ... .. . ... : C-3 00 . ... : 3-# 03 A ... : ... .. . ... : G-3 09 . ... : C-3 09 . ... : ... .. . ...
ROW 09 : --- .. . ... : ... .. . ... : --- .. . ... : ... .. . ... : ... .. . ... : ... .. . ... : ... .. . ... : ... .. . ...
ROW 0A : C-1 0B . ... : ... .. . ... : C-2 00 . ... : ... .. . ... : ... .. . ... : D#3 09 . ... : G-3 09 . ... : ... .. . ...
ROW 0B : --- .. . ... : ... .. . ... : --- .. . ... : C-# 03 3 ... : ... .. . ... : ... .. . ... : ... .. . ... : ... .. . ...
ROW 0C : C-1 0B . ... : ... .. . ... : C-2 00 . ... : D-# 03 8 ... : ... .. . ... : C-3 09 . ... : D#3 09 . ... : ... .. . ...
ROW 0D : --- .. . ... : ... .. . ... : --- 00 . ... : ... .. . ... : ... .. . ... : ... .. . ... : ... .. . ... : ... .. . ...
ROW 0E : C-1 0B . ... : ... .. . ... : C-2 00 . ... : ... .. . ... : ... .. . ... : G-2 09 . ... : C-3 09 . ... : ... .. . ...
ROW 0F : --- .. . ... : ... .. . ... : --- .. . ... : ... .. . ... : ... .. . ... : ... .. . ... : ... .. . ... : ... .. . ...
ROW 10 : C-1 0B . ... : ... .. . ... : C-2 00 . ... : F-# 02 8 ... : ... .. . ... : C-4 09 . ... : G-2 09 . ... : === .. . ...
ROW 11 : --- .. . ... : ... .. . ... : --- .. . ... : ... .. . ... : ... .. . ... : ... .. . ... : ... .. . ... : ... .. . ...
ROW 12 : C-1 0B . ... : === .. . ... : C-2 00 . ... : F-# 02 2 ... : ... .. . ... : G-3 09 . ... : C-4 09 . ... : ... .. . ...
ROW 13 : --- .. . ... : ... .. . ... : --- .. . ... : F-# 02 4 ... : ... .. . ... : ... .. . ... : ... .. . ... : ... .. . ...
ROW 14 : C-1 0B . ... : ... .. . ... : C-2 00 . ... : F-# 02 6 ... : ... .. . ... : D#3 09 . ... : G-3 09 . ... : D-4 07 . ...
ROW 15 : --- .. . ... : ... .. . ... : --- .. . ... : ... .. . ... : ... .. . ... : ... .. . ... : ... .. . ... : ... .. . ...
ROW 16 : C-1 0B . ... : D-4 06 . ... : C-2 00 . ... : F-# 02 8 ... : ... .. . ... : C-3 09 . ... : D#3 09 . ... : ... .. . ...
ROW 17 : --- .. . ... : ... .. . ... : --- .. . ... : ... .. . ... : ... .. . ... : ... .. . ... : ... .. . ... : ... .. . ...
ROW 18 : C-2 0B . ... : ... .. . ... : C-3 00 . ... : 3-# 03 A ... : ... .. . ... : G-3 09 . ... : C-3 09 . ... : D#4 07 . ...
ROW 19 : --- .. . ... : ... .. . ... : --- .. . ... : ... .. . ... : ... .. . ... : ... .. . ... : ... .. . ... : ... .. . ...
ROW 1A : C-1 0B . ... : D#4 06 . ... : C-2 00 . ... : ... .. . ... : ... .. . ... : D#3 09 . ... : G-3 09 . ... : F-4 07 . ...
ROW 1B : --- .. . ... : ... .. . ... : --- .. . ... : ... .. . ... : ... .. . ... : ... .. . ... : ... .. . ... : ... .. . ...
ROW 1C : C-1 0B . ... : F-4 06 . ... : C-2 00 . ... : ... .. . ... : ... .. . ... : C-3 09 . ... : D#3 09 . ... : ... .. . ...
ROW 1D : --- .. . ... : ... .. . ... : --- .. . ... : ... .. . ... : ... .. . ... : ... .. . ... : ... .. . ... : ... .. . ...
ROW 1E : C-1 0B . ... : ... .. . ... : C-2 00 . ... : ... .. . ... : ... .. . ... : G-2 09 . ... : C-3 09 . ... : ... .. . ...
ROW 1F : --- .. . ... : ... .. . ... : --- .. . ... : ... .. . ... : ... .. . ... : ... .. . ... : ... .. . ... : ... .. . ...
ROW 20 : C-1 0B . ... : ... .. . ... : C-2 00 . ... : F-# 02 8 ... : ... .. . ... : C-4 09 . ... : G-2 09 . ... : G-4 07 . ...
ROW 21 : --- .. . ... : ... .. . ... : --- .. . ... : ... .. . ... : ... .. . ... : ... .. . ... : ... .. . ... : ... .. . ...
ROW 22 : C-1 0B . ... : G-4 06 . ... : C-2 00 . ... : F-# 02 2 ... : ... .. . ... : G-3 09 . ... : C-4 09 . ... : ... .. . ...
ROW 23 : --- .. . ... : ... .. . ... : --- .. . ... : F-# 02 4 ... : ... .. . ... : ... .. . ... : ... .. . ... : ... .. . ...
ROW 24 : C-1 0B . ... : ... .. . ... : C-2 00 . ... : F-# 02 6 ... : ... .. . ... : D#3 09 . ... : G-3 09 . ... : ... .. . ...
ROW 25 : --- .. . ... : ... .. . ... : --- .. . ... : ... .. . ... : ... .. . ... : ... .. . ... : ... .. . ... : ... .. . ...
ROW 26 : C-1 0B . ... : ... .. . ... : C-2 00 . ... : F-# 02 8 ... : ... .. . ... : C-3 09 . ... : D#3 09 . ... : ... .. . ...
ROW 27 : --- .. . ... : ... .. . ... : --- .. . ... : ... .. . ... : ... .. . ... : ... .. . ... : ... .. . ... : ... .. . ...
ROW 28 : C-2 0B . ... : ... .. . ... : C-3 00 . ... : 3-# 03 A ... : ... .. . ... : G-3 09 . ... : C-3 09 . ... : D#4 07 . ...
ROW 29 : --- .. . ... : ... .. . ... : --- .. . ... : ... .. . ... : ... .. . ... : ... .. . ... : ... .. . ... : ... .. . ...
ROW 2A : C-1 0B . ... : D#4 06 . ... : C-2 00 . ... : ... .. . ... : ... .. . ... : D#3 09 . ... : G-3 09 . ... : ... .. . ...
ROW 2B : --- .. . ... : ... .. . ... : --- .. . ... : C-# 03 3 ... : ... .. . ... : ... .. . ... : ... .. . ... : ... .. . ...
ROW 2C : C-1 0B . ... : ... .. . ... : C-2 00 . ... : D-# 03 8 ... : ... .. . ... : C-3 09 . ... : D#3 09 . ... : ... .. . ...
ROW 2D : --- .. . ... : ... .. . ... : --- .. . ... : ... .. . ... : ... .. . ... : ... .. . ... : ... .. . ... : ... .. . ...
ROW 2E : C-1 0B . ... : ... .. . ... : C-2 00 . ... : ... .. . ... : ... .. . ... : G-2 09 . ... : C-3 09 . ... : ... .. . ...
ROW 2F : --- .. . ... : ... .. . ... : --- .. . ... : ... .. . ... : ... .. . ... : ... .. . ... : ... .. . ... : ... .. . ...
ROW 30 : C-1 0B . ... : ... .. . ... : C-2 00 . ... : F-# 02 8 ... : ... .. . ... : C-4 09 . ... : G-2 09 . ... : ... .. . ...
ROW 31 : --- .. . ... : ... .. . ... : --- .. . ... : ... .. . ... : ... .. . ... : ... .. . ... : ... .. . ... : ... .. . ...
ROW 32 : C-1 0B . ... : ... .. . ... : C-2 00 . ... : F-# 02 2 ... : ... .. . ... : G-3 09 . ... : C-4 09 . ... : ... .. . ...
ROW 33 : --- .. . ... : ... .. . ... : --- .. . ... : F-# 02 4 ... : ... .. . ... : ... .. . ... : ... .. . ... : ... .. . ...
ROW 34 : C-1 0B . ... : ... .. . ... : C-2 00 . ... : F-# 02 6 ... : ... .. . ... : D#3 09 . ... : G-3 09 . ... : === .. . ...
ROW 35 : --- .. . ... : ... .. . ... : --- .. . ... : ... .. . ... : ... .. . ... : ... .. . ... : ... .. . ... : ... .. . ...
ROW 36 : C-1 0B . ... : === .. . ... : C-2 00 . ... : F-# 02 8 ... : ... .. . ... : C-3 09 . ... : D#3 09 . ... : ... .. . ...
ROW 37 : --- .. . ... : ... .. . ... : --- .. . ... : ... .. . ... : ... .. . ... : ... .. . ... : ... .. . ... : ... .. . ...
ROW 38 : C-2 0B . ... : ... .. . ... : C-3 00 . ... : 3-# 03 A ... : ... .. . ... : G-3 09 . ... : C-3 09 . ... : D-4 07 . ...
ROW 39 : --- .. . ... : ... .. . ... : --- .. . ... : 1-# 03 1 ... : ... .. . ... : ... .. . ... : ... .. . ... : ... .. . ...
ROW 3A : C-1 0B . ... : D-4 06 . ... : C-2 00 . ... : 1-# 03 2 ... : ... .. . ... : D#3 09 . ... : G-3 09 . ... : ... .. . ...
ROW 3B : --- .. . ... : ... .. . ... : --- .. . ... : 1-# 03 3 ... : ... .. . ... : ... .. . ... : ... .. . ... : ... .. . ...
ROW 3C : C-1 0B . ... : ... .. . ... : C-2 00 . ... : 1-# 03 4 ... : ... .. . ... : C-3 09 . ... : D#3 09 . ... : D#4 07 . ...
ROW 3D : --- .. . ... : ... .. . ... : --- .. . ... : 1-# 03 5 ... : ... .. . ... : ... .. . ... : ... .. . ... : ... .. . ...
ROW 3E : C-1 0B . ... : D#4 06 . ... : C-2 00 . ... : 1-# 03 6 ... : ... .. . ... : G-2 09 . ... : C-3 09 . ... : ... .. . ...
ROW 3F : --- .. . ... : ... .. . ... : --- .. . ... : 1-# 03 7 ... : ... .. . ... : ... .. . ... : ... .. . ... : ... .. . ...
ROW 40 : F-1 0B . ... : ... .. . ... : F-2 00 . ... : F-# 02 8 ... : ... .. . ... : C-4 09 . ... : G-2 09 . ... : F-4 07 . ...
ROW 41 : --- .. . ... : ... .. . ... : --- .. . ... : ... .. . ... : ... .. . ... : ... .. . ... : ... .. . ... : ... .. . ...
ROW 42 : F-1 0B . ... : F-4 06 . ... : F-2 00 . ... : F-# 02 2 ... : ... .. . ... : G#3 09 . ... : C-4 09 . ... : ... .. . ...
ROW 43 : --- .. . ... : ... .. . ... : --- .. . ... : F-# 02 4 ... : ... .. . ... : ... .. . ... : ... .. . ... : ... .. . ...
ROW 44 : F-1 0B . ... : ... .. . ... : F-2 00 . ... : F-# 02 6 ... : ... .. . ... : F-3 09 . ... : G#3 09 . ... : ... .. . ...
ROW 45 : --- .. . ... : ... .. . ... : --- .. . ... : ... .. . ... : ... .. . ... : ... .. . ... : ... .. . ... : ... .. . ...
ROW 46 : F-1 0B . ... : ... .. . ... : F-2 00 . ... : F-# 02 8 ... : ... .. . ... : C-3 09 . ... : F-3 09 . ... : ... .. . ...
ROW 47 : --- .. . ... : ... .. . ... : --- .. . ... : ... .. . ... : ... .. . ... : ... .. . ... : ... .. . ... : ... .. . ...
ROW 48 : F-2 0B . ... : ... .. . ... : F-3 00 . ... : 3-# 03 A ... : ... .. . ... : G#3 09 . ... : C-3 09 . ... : ... .. . ...
ROW 49 : --- .. . ... : ... .. . ... : --- .. . ... : ... .. . ... : ... .. . ... : ... .. . ... : ... .. . ... : ... .. . ...
ROW 4A : F-1 0B . ... : ... .. . ... : F-2 00 . ... : ... .. . ... : ... .. . ... : F-3 09 . ... : G#3 09 . ... : ... .. . ...
ROW 4B : --- .. . ... : ... .. . ... : --- .. . ... : C-# 03 3 ... : ... .. . ... : ... .. . ... : ... .. . ... : ... .. . ...
ROW 4C : F-1 0B . ... : ... .. . ... : F-2 00 . ... : D-# 03 8 ... : ... .. . ... : C-3 09 . ... : F-3 09 . ... : ... .. . ...
ROW 4D : --- .. . ... : ... .. . ... : --- .. . ... : ... .. . ... : ... .. . ... : ... .. . ... : ... .. . ... : ... .. . ...
ROW 4E : F-1 0B . ... : ... .. . ... : F-2 00 . ... : ... .. . ... : ... .. . ... : G#2 09 . ... : C-3 09 . ... : ... .. . ...
ROW 4F : --- .. . ... : ... .. . ... : --- .. . ... : ... .. . ... : ... .. . ... : ... .. . ... : ... .. . ... : ... .. . ...
ROW 50 : F-1 0B . ... : ... .. . ... : F-2 00 . ... : F-# 02 8 ... : ... .. . ... : C-4 09 . ... : G#2 09 . ... : === .. . ...
ROW 51 : --- .. . ... : ... .. . ... : --- .. . ... : ... .. . ... : ... .. . ... : ... .. . ... : ... .. . ... : ... .. . ...
ROW 52 : F-1 0B . ... : === .. . ... : F-2 00 . ... : F-# 02 2 ... : ... .. . ... : G#3 09 . ... : C-4 09 . ... : ... .. . ...
ROW 53 : --- .. . ... : ... .. . ... : --- .. . ... : F-# 02 4 ... : ... .. . ... : ... .. . ... : ... .. . ... : ... .. . ...
ROW 54 : F-1 0B . ... : ... .. . ... : F-2 00 . ... : F-# 02 6 ... : ... .. . ... : F-3 09 . ... : G#3 09 . ... : C-4 07 . ...
ROW 55 : --- .. . ... : ... .. . ... : --- .. . ... : ... .. . ... : ... .. . ... : ... .. . ... : ... .. . ... : ... .. . ...
ROW 56 : F-1 0B . ... : C-4 06 . ... : F-2 00 . ... : F-# 02 8 ... : ... .. . ... : C-3 09 . ... : F-3 09 . ... : ... .. . ...
ROW 57 : --- .. . ... : ... .. . ... : --- .. . ... : ... .. . ... : ... .. . ... : ... .. . ... : ... .. . ... : ... .. . ...
ROW 58 : F-2 0B . ... : ... .. . ... : F-3 00 . ... : 3-# 03 A ... : ... .. . ... : G#3 09 . ... : C-3 09 . ... : D-4 07 . ...
ROW 59 : --- .. . ... : ... .. . ... : --- .. . ... : ... .. . ... : ... .. . ... : ... .. . ... : ... .. . ... : ... .. . ...
ROW 5A : F-1 0B . ... : D-4 06 . ... : F-2 00 . ... : ... .. . ... : ... .. . ... : F-3 09 . ... : G#3 09 . ... : ... .. . ...
ROW 5B : --- .. . ... : ... .. . ... : --- .. . ... : ... .. . ... : ... .. . ... : ... .. . ... : ... .. . ... : ... .. . ...
ROW 5C : F-1 0B . ... : ... .. . ... : F-2 00 . ... : ... .. . ... : ... .. . ... : C-3 09 . ... : F-3 09 . ... : D#4 07 . ...
ROW 5D : --- .. . ... : ... .. . ... : --- .. . ... : ... .. . ... : ... .. . ... : ... .. . ... : ... .. . ... : ... .. . ...
ROW 5E : F-1 0B . ... : D#4 06 . ... : F-2 00 . ... : ... .. . ... : ... .. . ... : G#2 09 . ... : C-3 09 . ... : ... .. . ...
ROW 5F : --- .. . ... : ... .. . ... : --- .. . ... : ... .. . ... : ... .. . ... : ... .. . ... : ... .. . ... : ... .. . ...
ROW 60 : D-1 0B . ... : ... .. . ... : D-2 00 . ... : F-# 02 8 ... : ... .. . ... : D-4 09 . ... : G#2 09 . ... : D-4 07 . ...
ROW 61 : --- .. . ... : ... .. . ... : --- .. . ... : ... .. . ... : ... .. . ... : ... .. . ... : ... .. . ... : ... .. . ...
ROW 62 : D-1 0B . ... : D-4 06 . ... : D-2 00 . ... : F-# 02 2 ... : ... .. . ... : G-3 09 . ... : D-4 09 . ... : ... .. . ...
ROW 63 : --- .. . ... : ... .. . ... : --- .. . ... : F-# 02 4 ... : ... .. . ... : ... .. . ... : ... .. . ... : ... .. . ...
ROW 64 : D-1 0B . ... : ... .. . ... : D-2 00 . ... : F-# 02 6 ... : ... .. . ... : D-3 09 . ... : G-3 09 . ... : ... .. . ...
ROW 65 : --- .. . ... : ... .. . ... : --- .. . ... : ... .. . ... : ... .. . ... : ... .. . ... : ... .. . ... : ... .. . ...
ROW 66 : D-1 0B . ... : ... .. . ... : D-2 00 . ... : F-# 02 8 ... : ... .. . ... : B-2 09 . ... : D-3 09 . ... : ... .. . ...
ROW 67 : --- .. . ... : ... .. . ... : --- .. . ... : ... .. . ... : ... .. . ... : ... .. . ... : ... .. . ... : ... .. . ...
ROW 68 : D-2 0B . ... : ... .. . ... : D-3 00 . ... : 3-# 03 A ... : ... .. . ... : G-3 09 . ... : B-2 09 . ... : ... .. . ...
ROW 69 : --- .. . ... : ... .. . ... : --- .. . ... : ... .. . ... : ... .. . ... : ... .. . ... : ... .. . ... : ... .. . ...
ROW 6A : D-1 0B . ... : ... .. . ... : D-2 00 . ... : ... .. . ... : ... .. . ... : D-3 09 . ... : G-3 09 . ... : ... .. . ...
ROW 6B : --- .. . ... : ... .. . ... : --- .. . ... : C-# 03 3 ... : ... .. . ... : ... .. . ... : ... .. . ... : ... .. . ...
ROW 6C : D-1 0B . ... : ... .. . ... : D-2 00 . ... : D-# 03 8 ... : ... .. . ... : B-2 09 . ... : D-3 09 . ... : ... .. . ...
ROW 6D : --- .. . ... : ... .. . ... : --- .. . ... : ... .. . ... : ... .. . ... : ... .. . ... : ... .. . ... : ... .. . ...
ROW 6E : D-1 0B . ... : ... .. . ... : D-2 00 . ... : ... .. . ... : ... .. . ... : G-2 09 . ... : B-2 09 . ... : ... .. . ...
ROW 6F : --- .. . ... : ... .. . ... : --- .. . ... : ... .. . ... : ... .. . ... : ... .. . ... : ... .. . ... : ... .. . ...
ROW 70 : B-0 0B . ... : ... .. . ... : B-1 00 . ... : F-# 02 8 ... : ... .. . ... : D-4 09 . ... : G-2 09 . ... : === .. . ...
ROW 71 : --- .. . ... : ... .. . ... : --- .. . ... : ... .. . ... : ... .. . ... : ... .. . ... : ... .. . ... : ... .. . ...
ROW 72 : B-0 0B . ... : === .. . ... : B-1 00 . ... : F-# 02 2 ... : ... .. . ... : G-3 09 . ... : D-4 09 . ... : ... .. . ...
ROW 73 : --- .. . ... : ... .. . ... : --- .. . ... : F-# 02 4 ... : ... .. . ... : ... .. . ... : ... .. . ... : ... .. . ...
ROW 74 : B-0 0B . ... : ... .. . ... : B-1 00 . ... : F-# 02 6 ... : ... .. . ... : D-3 09 . ... : G-3 09 . ... : B-4 07 . ...
ROW 75 : --- .. . ... : ... .. . ... : --- .. . ... : ... .. . ... : ... .. . ... : ... .. . ... : ... .. . ... : ... .. . ...
ROW 76 : B-0 0B . ... : B-3 06 . ... : B-1 00 . ... : F-# 02 8 ... : ... .. . ... : B-2 09 . ... : D-3 09 . ... : ... .. . ...
ROW 77 : --- .. . ... : ... .. . ... : --- .. . ... : ... .. . ... : ... .. . ... : ... .. . ... : ... .. . ... : ... .. . ...
ROW 78 : B-1 0B . ... : ... .. . ... : B-2 00 . ... : 3-# 03 A ... : ... .. . ... : G-3 09 . ... : B-2 09 . ... : ... .. . ...
ROW 79 : --- .. . ... : ... .. . ... : --- .. . ... : 1-# 03 1 ... : ... .. . ... : ... .. . ... : ... .. . ... : ... .. . ...
ROW 7A : B-0 0B . ... : ... .. . ... : B-1 00 . ... : 1-# 03 2 ... : ... .. . ... : D-3 09 . ... : G-3 09 . ... : ... .. . ...
ROW 7B : --- .. . ... : ... .. . ... : --- .. . ... : 1-# 03 3 ... : ... .. . ... : ... .. . ... : ... .. . ... : ... .. . ...
ROW 7C : B-0 0B . ... : ... .. . ... : B-1 00 . ... : 1-# 03 4 ... : ... .. . ... : B-2 09 . ... : D-3 09 . ... : G-4 07 . ...
ROW 7D : --- .. . ... : ... .. . ... : --- .. . ... : 1-# 03 5 ... : ... .. . ... : ... .. . ... : ... .. . ... : ... .. . ...
ROW 7E : B-0 0B . ... : G-3 06 . ... : B-1 00 . ... : 1-# 03 6 ... : ... .. . ... : G-2 09 . ... : B-2 09 . ... : ... .. . ...
ROW 7F : --- .. . ... : ... .. . ... : --- .. . ... : 1-# 03 7 ... : ... .. . ... : ... .. . ... : ... .. . ... : ... .. . ...

PATTERN 0A
ROW 00 : C-4 06 8 ... : ... .. . ... : C-2 00 . ... : F-# 02 8 ... : ... .. . ... : C-4 08 F ... : ... .. . ... : D#1 01 C ...
ROW 01 : ... .. . ... : ... .. . ... : --- .. . ... : ... .. . ... : ... .. . ... : ... .. . ... : ... .. . ... : --- .. . ...
ROW 02 : G-3 06 . ... : C-4 06 4 ... : C-2 00 . ... : F-# 02 2 ... : ... .. . ... : ... .. . ... : C-4 08 7 ... : D#1 01 . ...
ROW 03 : ... .. . ... : ... .. . ... : --- .. . ... : F-# 02 4 ... : ... .. . ... : ... .. . ... : ... .. . ... : --- .. . ...
ROW 04 : D#3 06 . ... : G-3 06 . ... : C-2 00 . ... : F-# 02 6 ... : ... .. . ... : ... .. . ... : ... .. . ... : D#1 01 . ...
ROW 05 : ... .. . ... : ... .. . ... : --- .. . ... : ... .. . ... : ... .. . ... : ... .. . ... : ... .. . ... : --- .. . ...
ROW 06 : C-3 06 . ... : D#3 06 . ... : C-2 00 . ... : F-# 02 8 ... : ... .. . ... : ... .. . ... : ... .. . ... : D#1 01 . ...
ROW 07 : ... .. . ... : ... .. . ... : --- .. . ... : ... .. . ... : ... .. . ... : ... .. . ... : ... .. . ... : --- .. . ...
ROW 08 : G-3 06 . ... : C-3 06 . ... : C-3 00 . ... : 3-# 03 A ... : ... .. . ... : D-4 08 . ... : ... .. . ... : D#2 01 . ...
ROW 09 : ... .. . ... : ... .. . ... : --- .. . ... : ... .. . ... : ... .. . ... : ... .. . ... : ... .. . ... : --- .. . ...
ROW 0A : D#3 06 . ... : G-3 06 . ... : C-2 00 . ... : ... .. . ... : ... .. . ... : ... .. . ... : D-4 08 . ... : D#1 01 . ...
ROW 0B : ... .. . ... : ... .. . ... : --- .. . ... : C-# 03 3 ... : ... .. . ... : ... .. . ... : ... .. . ... : --- .. . ...
ROW 0C : C-3 06 . ... : D#3 06 . ... : C-2 00 . ... : D-# 03 8 ... : ... .. . ... : D#4 08 . ... : ... .. . ... : D#1 01 . ...
ROW 0D : ... .. . ... : ... .. . ... : --- .. . ... : ... .. . ... : ... .. . ... : ... .. . ... : ... .. . ... : --- .. . ...
ROW 0E : G-2 06 . ... : C-3 06 . ... : C-2 00 . ... : ... .. . ... : ... .. . ... : ... .. . ... : D#4 08 . ... : D#1 01 . ...
ROW 0F : ... .. . ... : ... .. . ... : --- .. . ... : ... .. . ... : ... .. . ... : ... .. . ... : ... .. . ... : --- .. . ...
ROW 10 : C-4 06 . ... : G-2 06 . ... : C-2 00 . ... : F-# 02 8 ... : ... .. . ... : D-4 08 . ... : ... .. . ... : D#1 01 . ...
ROW 11 : ... .. . ... : ... .. . ... : --- .. . ... : ... .. . ... : ... .. . ... : ... .. . ... : ... .. . ... : --- .. . ...
ROW 12 : G-3 06 . ... : C-4 06 . ... : C-2 00 . ... : F-# 02 2 ... : ... .. . ... : ... .. . ... : D-4 08 . ... : D#1 01 . ...
ROW 13 : ... .. . ... : ... .. . ... : --- .. . ... : F-# 02 4 ... : ... .. . ... : ... .. . ... : ... .. . ... : --- .. . ...
ROW 14 : D#3 06 . ... : G-3 06 . ... : C-2 00 . ... : F-# 02 6 ... : ... .. . ... : ... .. . ... : ... .. . ... : D#1 01 . ...
ROW 15 : ... .. . ... : ... .. . ... : --- .. . ... : ... .. . ... : ... .. . ... : ... .. . ... : ... .. . ... : --- .. . ...
ROW 16 : C-3 06 . ... : D#3 06 . ... : C-2 00 . ... : F-# 02 8 ... : ... .. . ... : ... .. . ... : ... .. . ... : D#1 01 . ...
ROW 17 : ... .. . ... : ... .. . ... : --- .. . ... : ... .. . ... : ... .. . ... : ... .. . ... : ... .. . ... : --- .. . ...
ROW 18 : G-3 06 . ... : C-3 06 . ... : C-3 00 . ... : 3-# 03 A ... : ... .. . ... : D#4 09 . ... : ... .. . ... : D#2 01 . ...
ROW 19 : ... .. . ... : ... .. . ... : --- .. . ... : ... .. . ... : ... .. . ... : D-4 09 . ... : ... .. . ... : --- .. . ...
ROW 1A : D#3 06 . ... : G-3 06 . ... : C-2 00 . ... : ... .. . ... : ... .. . ... : D#4 09 . ... : D#4 09 . ... : D#1 01 . ...
ROW 1B : ... .. . ... : ... .. . ... : --- .. . ... : ... .. . ... : ... .. . ... : D-4 09 . ... : D-4 09 . ... : --- .. . ...
ROW 1C : C-3 06 . ... : D#3 06 . ... : C-3 00 . ... : ... .. . ... : ... .. . ... : D#4 09 . ... : D#4 09 . ... : D#1 01 . ...
ROW 1D : ... .. . ... : ... .. . ... : C-2 00 . ... : ... .. . ... : ... .. . ... : D-4 09 . ... : D-4 09 . ... : --- .. . ...
ROW 1E : G-2 06 . ... : C-3 06 . ... : C-3 00 . ... : ... .. . ... : ... .. . ... : D#4 09 . ... : D#4 09 . ... : D#1 01 . ...
ROW 1F : ... .. . ... : ... .. . ... : --- .. . ... : ... .. . ... : ... .. . ... : D-4 09 . ... : D-4 09 . ... : --- .. . ...
ROW 20 : C-4 06 . ... : G#2 06 . ... : D#2 00 . ... : F-# 02 8 ... : ... .. . ... : D#4 08 . ... : D#4 09 . ... : G#1 01 . ...
ROW 21 : ... .. . ... : ... .. . ... : --- .. . ... : ... .. . ... : ... .. . ... : ... .. . ... : D-4 09 . ... : --- .. . ...
ROW 22 : G#3 06 . ... : C-4 06 . ... : D#2 00 . ... : F-# 02 2 ... : ... .. . ... : ... .. . ... : D#4 08 . ... : G#1 01 . ...
ROW 23 : ... .. . ... : ... .. . ... : --- .. . ... : F-# 02 4 ... : ... .. . ... : ... .. . ... : ... .. . ... : --- .. . ...
ROW 24 : D#3 06 . ... : G#3 06 . ... : D#2 00 . ... : F-# 02 6 ... : ... .. . ... : ... .. . ... : ... .. . ... : G#1 01 . ...
ROW 25 : ... .. . ... : ... .. . ... : --- .. . ... : ... .. . ... : ... .. . ... : ... .. . ... : ... .. . ... : --- .. . ...
ROW 26 : C-3 06 . ... : D#3 06 . ... : D#2 00 . ... : F-# 02 8 ... : ... .. . ... : ... .. . ... : ... .. . ... : G#1 01 . ...
ROW 27 : ... .. . ... : ... .. . ... : --- .. . ... : ... .. . ... : ... .. . ... : ... .. . ... : ... .. . ... : --- .. . ...
ROW 28 : G#3 06 . ... : C-3 06 . ... : D#3 00 . ... : 3-# 03 A ... : ... .. . ... : ... .. . ... : ... .. . ... : G#2 01 . ...
ROW 29 : ... .. . ... : ... .. . ... : --- .. . ... : ... .. . ... : ... .. . ... : ... .. . ... : ... .. . ... : --- .. . ...
ROW 2A : D#3 06 . ... : G#3 06 . ... : D#2 00 . ... : ... .. . ... : ... .. . ... : ... .. . ... : ... .. . ... : G#1 01 . ...
ROW 2B : ... .. . ... : ... .. . ... : --- .. . ... : C-# 03 3 ... : ... .. . ... : ... .. . ... : ... .. . ... : --- .. . ...
ROW 2C : C-3 06 . ... : D#3 06 . ... : D#2 00 . ... : D-# 03 8 ... : ... .. . ... : C-4 08 . ... : ... .. . ... : G#1 01 . ...
ROW 2D : ... .. . ... : ... .. . ... : --- .. . ... : ... .. . ... : ... .. . ... : ... .. . ... : ... .. . ... : --- .. . ...
ROW 2E : G#2 06 . ... : C-3 06 . ... : D#2 00 . ... : ... .. . ... : ... .. . ... : ... .. . ... : C-4 08 . ... : G#1 01 . ...
ROW 2F : ... .. . ... : ... .. . ... : --- .. . ... : ... .. . ... : ... .. . ... : ... .. . ... : ... .. . ... : --- .. . ...
ROW 30 : C-4 06 . ... : G#2 06 . ... : D#2 00 . ... : F-# 02 8 ... : ... .. . ... : C-4 08 . ... : ... .. . ... : G#1 01 . ...
ROW 31 : ... .. . ... : ... .. . ... : --- .. . ... : ... .. . ... : ... .. . ... : ... .. . ... : ... .. . ... : --- .. . ...
ROW 32 : G#3 06 . ... : C-4 06 . ... : D#2 00 . ... : F-# 02 2 ... : ... .. . ... : ... .. . ... : C-4 08 . ... : G#1 01 . ...
ROW 33 : ... .. . ... : ... .. . ... : --- .. . ... : F-# 02 4 ... : ... .. . ... : ... .. . ... : ... .. . ... : --- .. . ...
ROW 34 : D#3 06 . ... : G#3 06 . ... : D#2 00 . ... : F-# 02 6 ... : ... .. . ... : ... .. . ... : ... .. . ... : G#1 01 . ...
ROW 35 : ... .. . ... : ... .. . ... : --- .. . ... : ... .. . ... : ... .. . ... : ... .. . ... : ... .. . ... : --- .. . ...
ROW 36 : C-3 06 . ... : D#3 06 . ... : D#2 00 . ... : F-# 02 8 ... : ... .. . ... : ... .. . ... : ... .. . ... : G#1 01 . ...
ROW 37 : ... .. . ... : ... .. . ... : --- .. . ... : ... .. . ... : ... .. . ... : ... .. . ... : ... .. . ... : --- .. . ...
ROW 38 : G#3 06 . ... : C-3 06 . ... : D#3 00 . ... : 3-# 03 A ... : ... .. . ... : ... .. . ... : ... .. . ... : G#2 01 . ...
ROW 39 : ... .. . ... : ... .. . ... : --- .. . ... : ... .. . ... : ... .. . ... : ... .. . ... : ... .. . ... : --- .. . ...
ROW 3A : D#3 06 . ... : G#3 06 . ... : D#2 00 . ... : ... .. . ... : ... .. . ... : ... .. . ... : ... .. . ... : G#1 01 . ...
ROW 3B : ... .. . ... : ... .. . ... : --- .. . ... : ... .. . ... : ... .. . ... : ... .. . ... : ... .. . ... : --- .. . ...
ROW 3C : C-3 06 . ... : D#3 06 . ... : D#3 00 . ... : ... .. . ... : ... .. . ... : === 04 . ... : ... .. . ... : G#1 01 . ...
ROW 3D : ... .. . ... : ... .. . ... : D#2 00 . ... : ... .. . ... : ... .. . ... : ... .. . ... : ... .. . ... : --- .. . ...
ROW 3E : G#2 06 . ... : C-3 06 . ... : D#3 00 . ... : ... .. . ... : ... .. . ... : ... .. . ... : === 04 . ... : G#1 01 . ...
ROW 3F : ... .. . ... : ... .. . ... : --- .. . ... : ... .. . ... : ... .. . ... : ... .. . ... : ... .. . ... : --- .. . ...
ROW 40 : C-4 06 . ... : G-2 06 . ... : F-2 00 . ... : F-# 02 8 ... : ... .. . ... : D-4 08 . ... : ... .. . ... : C-1 01 . ...
ROW 41 : ... .. . ... : ... .. . ... : --- .. . ... : ... .. . ... : ... .. . ... : ... .. . ... : ... .. . ... : --- .. . ...
ROW 42 : G#3 06 . ... : C-4 06 . ... : F-2 00 . ... : F-# 02 2 ... : ... .. . ... : ... .. . ... : D-4 08 . ... : C-1 01 . ...
ROW 43 : ... .. . ... : ... .. . ... : --- .. . ... : F-# 02 4 ... : ... .. . ... : ... .. . ... : ... .. . ... : --- .. . ...
ROW 44 : F-3 06 . ... : G#3 06 . ... : F-2 00 . ... : F-# 02 6 ... : ... .. . ... : ... .. . ... : ... .. . ... : C-1 01 . ...
ROW 45 : ... .. . ... : ... .. . ... : --- .. . ... : ... .. . ... : ... .. . ... : ... .. . ... : ... .. . ... : --- .. . ...
ROW 46 : C-3 06 . ... : F-3 06 . ... : F-2 00 . ... : F-# 02 8 ... : ... .. . ... : ... .. . ... : ... .. . ... : C-1 01 . ...
ROW 47 : ... .. . ... : ... .. . ... : --- .. . ... : ... .. . ... : ... .. . ... : ... .. . ... : ... .. . ... : --- .. . ...
ROW 48 : G#3 06 . ... : C-3 06 . ... : F-3 00 . ... : 3-# 03 A ... : ... .. . ... : D#4 08 . ... : ... .. . ... : C-2 01 . ...
ROW 49 : ... .. . ... : ... .. . ... : --- .. . ... : ... .. . ... : ... .. . ... : ... .. . ... : ... .. . ... : --- .. . ...
ROW 4A : F-3 06 . ... : G#3 06 . ... : F-2 00 . ... : ... .. . ... : ... .. . ... : ... .. . ... : D#4 08 . ... : C-1 01 . ...
ROW 4B : ... .. . ... : ... .. . ... : --- .. . ... : C-# 03 3 ... : ... .. . ... : ... .. . ... : ... .. . ... : --- .. . ...
ROW 4C : C-3 06 . ... : F-3 06 . ... : F-2 00 . ... : D-# 03 8 ... : ... .. . ... : ... .. . ... : ... .. . ... : C-1 01 . ...
ROW 4D : ... .. . ... : ... .. . ... : --- .. . ... : ... .. . ... : ... .. . ... : ... .. . ... : ... .. . ... : --- .. . ...
ROW 4E : G#2 06 . ... : C-3 06 . ... : F-2 00 . ... : ... .. . ... : ... .. . ... : ... .. . ... : ... .. . ... : C-1 01 . ...
ROW 4F : ... .. . ... : ... .. . ... : --- .. . ... : ... .. . ... : ... .. . ... : ... .. . ... : ... .. . ... : --- .. . ...
ROW 50 : C-4 06 . ... : G#2 06 . ... : F-2 00 . ... : F-# 02 8 ... : ... .. . ... : F-4 08 . ... : ... .. . ... : C-1 01 . ...
ROW 51 : ... .. . ... : ... .. . ... : --- .. . ... : ... .. . ... : ... .. . ... : ... .. . ... : ... .. . ... : --- .. . ...
ROW 52 : G#3 06 . ... : C-4 06 . ... : F-2 00 . ... : F-# 02 2 ... : ... .. . ... : ... .. . ... : F-4 08 . ... : C-1 01 . ...
ROW 53 : ... .. . ... : ... .. . ... : --- .. . ... : F-# 02 4 ... : ... .. . ... : ... .. . ... : ... .. . ... : --- .. . ...
ROW 54 : F-3 06 . ... : G#3 06 . ... : F-2 00 . ... : F-# 02 6 ... : ... .. . ... : ... .. . ... : ... .. . ... : C-1 01 . ...
ROW 55 : ... .. . ... : ... .. . ... : --- .. . ... : ... .. . ... : ... .. . ... : ... .. . ... : ... .. . ... : --- .. . ...
ROW 56 : C-3 06 . ... : F-3 06 . ... : F-2 00 . ... : F-# 02 8 ... : ... .. . ... : ... .. . ... : ... .. . ... : C-1 01 . ...
ROW 57 : ... .. . ... : ... .. . ... : --- .. . ... : ... .. . ... : ... .. . ... : ... .. . ... : ... .. . ... : --- .. . ...
ROW 58 : G#3 06 . ... : C-3 06 . ... : F-3 00 . ... : 3-# 03 A ... : ... .. . ... : D-4 08 . ... : ... .. . ... : C-2 01 . ...
ROW 59 : ... .. . ... : ... .. . ... : --- .. . ... : 1-# 03 1 ... : ... .. . ... : ... .. . ... : ... .. . ... : --- .. . ...
ROW 5A : F-3 06 . ... : G#3 06 . ... : F-2 00 . ... : 1-# 03 2 ... : ... .. . ... : ... .. . ... : D-4 08 . ... : C-1 01 . ...
ROW 5B : ... .. . ... : ... .. . ... : --- .. . ... : 1-# 03 3 ... : ... .. . ... : ... .. . ... : ... .. . ... : --- .. . ...
ROW 5C : C-3 06 . ... : F-3 06 . ... : F-3 00 . ... : 1-# 03 4 ... : ... .. . ... : ... .. . ... : ... .. . ... : C-1 01 . ...
ROW 5D : ... .. . ... : ... .. . ... : F-2 00 . ... : 1-# 03 5 ... : ... .. . ... : ... .. . ... : ... .. . ... : --- .. . ...
ROW 5E : G#2 06 . ... : C-3 06 . ... : F-3 00 . ... : 1-# 03 6 ... : ... .. . ... : ... .. . ... : ... .. . ... : C-1 01 . ...
ROW 5F : ... .. . ... : ... .. . ... : --- .. . ... : 1-# 03 7 ... : ... .. . ... : ... .. . ... : ... .. . ... : --- .. . ...
ROW 60 : C-4 06 . ... : G#2 06 . ... : D#2 00 . ... : 3-# 03 F ... : ... .. . ... : D#4 0A F ... : G#3 0A F ... : G#1 01 . ...
ROW 61 : ... .. . ... : ... .. . ... : --- .. . ... : ... .. . ... : ... .. . ... : ... .. E ... : ... .. E ... : --- .. . ...
ROW 62 : G#3 06 . ... : C-4 06 . ... : D#2 00 . ... : ... .. . ... : ... .. . ... : ... .. D ... : ... .. D ... : G#1 01 . ...
ROW 63 : ... .. . ... : ... .. . ... : --- .. . ... : ... .. . ... : ... .. . ... : ... .. C ... : ... .. C ... : --- .. . ...
ROW 64 : D#3 06 . ... : G#3 06 . ... : D#2 00 . ... : ... .. . ... : ... .. . ... : ... .. B ... : ... .. B ... : G#1 01 . ...
ROW 65 : ... .. . ... : ... .. . ... : --- .. . ... : ... .. . ... : ... .. . ... : ... .. A ... : ... .. A ... : --- .. . ...
ROW 66 : C-3 06 . ... : D#3 06 . ... : D#2 00 . ... : ... .. . ... : ... .. . ... : ... .. 9 ... : ... .. 9 ... : G#1 01 . ...
ROW 67 : ... .. . ... : ... .. . ... : --- .. . ... : ... .. . ... : ... .. . ... : ... .. 8 ... : ... .. 8 ... : --- .. . ...
ROW 68 : G#3 06 . ... : C-3 06 . ... : D#3 00 . ... : D-# 03 F ... : ... .. . ... : ... .. 7 ... : ... .. 7 ... : G#2 01 . ...
ROW 69 : ... .. . ... : ... .. . ... : --- .. . ... : ... .. . ... : ... .. . ... : ... .. 6 ... : ... .. 6 ... : --- .. . ...
ROW 6A : D#3 06 . ... : G#3 06 . ... : D#2 00 . ... : ... .. . ... : ... .. . ... : ... .. 5 ... : ... .. 5 ... : G#1 01 . ...
ROW 6B : ... .. . ... : ... .. . ... : --- .. . ... : ... .. . ... : ... .. . ... : ... .. 4 ... : ... .. 4 ... : --- .. . ...
ROW 6C : C-3 06 . ... : D#3 06 . ... : D#2 00 . ... : D-# 03 C ... : ... .. . ... : ... .. 3 ... : ... .. 3 ... : G#1 01 . ...
ROW 6D : ... .. . ... : ... .. . ... : --- .. . ... : ... .. . ... : ... .. . ... : ... .. 2 ... : ... .. 2 ... : --- .. . ...
ROW 6E : G#2 06 . ... : C-3 06 . ... : D#2 00 . ... : --- .. . ... : ... .. . ... : ... .. 1 ... : ... .. 1 ... : G#1 01 . ...
ROW 6F : ... .. . ... : ... .. . ... : --- .. . ... : ... .. . ... : ... .. . ... : ... .. . ... : ... .. . ... : --- .. . ...
ROW 70 : C-4 06 8 ... : G#2 06 4 ... : D#2 00 . ... : C-# 03 1 ... : ... .. . ... : C-4 0A 1 ... : ... .. 1 ... : G#1 01 . ...
ROW 71 : ... .. . ... : ... .. . ... : --- .. . ... : D-# 03 2 ... : ... .. . ... : ... .. 2 ... : ... .. 2 ... : --- .. . ...
ROW 72 : G#3 06 7 ... : C-4 06 . ... : D#2 00 . ... : C-# 03 3 ... : ... .. . ... : ... .. 3 ... : ... .. 3 ... : G#1 01 . ...
ROW 73 : ... .. . ... : ... .. . ... : --- .. . ... : D-# 03 4 ... : ... .. . ... : ... .. 4 ... : ... .. 4 ... : --- .. . ...
ROW 74 : D#3 06 6 ... : G#3 06 3 ... : D#2 00 . ... : C-# 03 5 ... : ... .. . ... : D-4 0A 5 ... : ... .. 5 ... : G-3 07 F ...
ROW 75 : ... .. . ... : ... .. . ... : --- .. . ... : D-# 03 6 ... : ... .. . ... : ... .. 6 ... : ... .. 6 ... : ... .. . ...
ROW 76 : C-3 06 5 ... : D#3 06 . ... : D#2 00 . ... : C-# 03 7 ... : ... .. . ... : G#1 01 C ... : G-3 07 4 ... : ... .. . ...
ROW 77 : ... .. . ... : ... .. . ... : --- .. . ... : D-# 03 8 ... : ... .. . ... : --- .. . ... : ... .. . ... : ... .. . ...
ROW 78 : G#3 06 4 ... : C-3 06 2 ... : D-3 00 . ... : C-# 03 9 ... : ... .. . ... : G#1 01 . ... : ... .. . ... : C-4 07 . ...
ROW 79 : ... .. . ... : ... .. . ... : --- .. . ... : D-# 03 A ... : ... .. . ... : --- .. . ... : ... .. . ... : ... .. . ...
ROW 7A : D#3 06 3 ... : G#3 06 . ... : D-2 00 . ... : C-# 03 B ... : ... .. . ... : G#2 01 . ... : C-4 07 . ... : D-4 07 . ...
ROW 7B : ... .. . ... : ... .. . ... : --- .. . ... : D-# 03 C ... : ... .. . ... : --- .. . ... : ... .. . ... : ... .. . ...
ROW 7C : C-3 06 2 ... : D#3 06 1 ... : D-3 00 . ... : C-# 03 D ... : ... .. . ... : G#1 01 . ... : D-4 07 . ... : ... .. . ...
ROW 7D : ... .. . ... : ... .. . ... : D-2 00 . ... : D-# 03 E ... : ... .. . ... : --- .. . ... : ... .. . ... : ... .. . ...
ROW 7E : G#2 06 1 ... : C-3 06 . ... : D-3 00 . ... : C-# 03 F ... : ... .. . ... : G#1 01 . ... : ... .. . ... : ... .. . ...
ROW 7F : ... .. . ... : ... .. . ... : --- .. . ... : D-# 03 . ... : ... .. . ... : --- .. . ... : ... .. . ... : ... .. . ...

PATTERN 0B
ROW 00 : C-1 0B C ... : D#3 06 C ... : C-2 00 . ... : F-# 02 8 ... : ... .. . ... : C-4 09 C ... : ... .. . ... : C-5 07 C ...
ROW 01 : --- .. . ... : ... .. . ... : --- .. . ... : ... .. . ... : ... .. . ... : ... .. . ... : ... .. . ... : ... .. . ...
ROW 02 : C-1 0B . ... : ... .. . ... : C-2 00 . ... : F-# 02 2 ... : ... .. . ... : G-3 09 . ... : C-4 09 4 ... : ... .. . ...
ROW 03 : --- .. . ... : ... .. . ... : --- .. . ... : F-# 02 4 ... : ... .. . ... : ... .. . ... : ... .. . ... : ... .. . ...
ROW 04 : C-1 0B . ... : ... .. . ... : C-2 00 . ... : F-# 02 6 ... : ... .. . ... : D#3 09 . ... : G-3 09 . ... : ... .. . ...
ROW 05 : --- .. . ... : ... .. . ... : --- .. . ... : ... .. . ... : ... .. . ... : ... .. . ... : ... .. . ... : ... .. . ...
ROW 06 : C-1 0B . ... : ... .. . ... : C-2 00 . ... : F-# 02 8 ... : ... .. . ... : C-3 09 . ... : D#3 09 . ... : A#4 07 . ...
ROW 07 : --- .. . ... : ... .. . ... : --- .. . ... : ... .. . ... : ... .. . ... : ... .. . ... : ... .. . ... : ... .. . ...
ROW 08 : C-2 0B . ... : ... .. . ... : C-3 00 . ... : 3-# 03 A ... : ... .. . ... : G-3 09 . ... : C-3 09 . ... : ... .. . ...
ROW 09 : --- .. . ... : ... .. . ... : --- .. . ... : ... .. . ... : ... .. . ... : ... .. . ... : ... .. . ... : ... .. . ...
ROW 0A : C-1 0B . ... : ... .. . ... : C-2 00 . ... : ... .. . ... : ... .. . ... : D#3 09 . ... : G-3 09 . ... : ... .. . ...
ROW 0B : --- .. . ... : ... .. . ... : --- .. . ... : C-# 03 3 ... : ... .. . ... : ... .. . ... : ... .. . ... : ... .. . ...
ROW 0C : C-1 0B . ... : ... .. . ... : C-2 00 . ... : D-# 03 8 ... : ... .. . ... : C-3 09 . ... : D#3 09 . ... : G#4 07 . ...
ROW 0D : --- .. . ... : ... .. . ... : --- 00 . ... : ... .. . ... : ... .. . ... : ... .. . ... : ... .. . ... : ... .. . ...
ROW 0E : C-1 0B . ... : ... .. . ... : C-2 00 . ... : ... .. . ... : ... .. . ... : G-2 09 . ... : C-3 09 . ... : ... .. . ...
ROW 0F : --- .. . ... : ... .. . ... : --- .. . ... : ... .. . ... : ... .. . ... : ... .. . ... : ... .. . ... : ... .. . ...
ROW 10 : C-1 0B . ... : === .. . ... : C-2 00 . ... : F-# 02 8 ... : ... .. . ... : C-4 09 . ... : G-2 09 . ... : G-4 07 . ...
ROW 11 : --- .. . ... : ... .. . ... : --- .. . ... : ... .. . ... : ... .. . ... : ... .. . ... : ... .. . ... : ... .. . ...
ROW 12 : C-1 0B . ... : ... .. . ... : C-2 00 . ... : F-# 02 2 ... : ... .. . ... : G-3 09 . ... : C-4 09 . ... : ... .. . ...
ROW 13 : --- .. . ... : ... .. . ... : --- .. . ... : F-# 02 4 ... : ... .. . ... : ... .. . ... : ... .. . ... : ... .. . ...
ROW 14 : C-1 0B . ... : D-3 06 . ... : C-2 00 . ... : F-# 02 6 ... : ... .. . ... : D#3 09 . ... : G-3 09 . ... : ... .. . ...
ROW 15 : --- .. . ... : ... .. . ... : --- .. . ... : ... .. . ... : ... .. . ... : ... .. . ... : ... .. . ... : ... .. . ...
ROW 16 : C-1 0B . ... : ... .. . ... : C-2 00 . ... : F-# 02 8 ... : ... .. . ... : C-3 09 . ... : D#3 09 . ... : ... .. . ...
ROW 17 : --- .. . ... : ... .. . ... : --- .. . ... : ... .. . ... : ... .. . ... : ... .. . ... : ... .. . ... : ... .. . ...
ROW 18 : C-2 0B . ... : D#3 06 . ... : C-3 00 . ... : 3-# 03 A ... : ... .. . ... : G-3 09 . ... : C-3 09 . ... : ... .. . ...
ROW 19 : --- .. . ... : ... .. . ... : --- .. . ... : ... .. . ... : ... .. . ... : ... .. . ... : ... .. . ... : ... .. . ...
ROW 1A : C-1 0B . ... : F-3 06 . ... : C-2 00 . ... : ... .. . ... : ... .. . ... : D#3 09 . ... : G-3 09 . ... : ... .. . ...
ROW 1B : --- .. . ... : ... .. . ... : --- .. . ... : ... .. . ... : ... .. . ... : ... .. . ... : ... .. . ... : ... .. . ...
ROW 1C : C-1 0B . ... : ... .. . ... : C-2 00 . ... : ... .. . ... : ... .. . ... : C-3 09 . ... : D#3 09 . ... : D#4 07 . ...
ROW 1D : --- .. . ... : ... .. . ... : --- .. . ... : ... .. . ... : ... .. . ... : ... .. . ... : ... .. . ... : ... .. . ...
ROW 1E : C-1 0B . ... : ... .. . ... : C-2 00 . ... : ... .. . ... : ... .. . ... : G-2 09 . ... : C-3 09 . ... : ... .. . ...
ROW 1F : --- .. . ... : ... .. . ... : --- .. . ... : ... .. . ... : ... .. . ... : ... .. . ... : ... .. . ... : ... .. . ...
ROW 20 : C-1 0B . ... : G-3 06 . ... : C-2 00 . ... : F-# 02 8 ... : ... .. . ... : C-4 09 . ... : G-2 09 . ... : C-4 07 . ...
ROW 21 : --- .. . ... : ... .. . ... : --- .. . ... : ... .. . ... : ... .. . ... : ... .. . ... : ... .. . ... : ... .. . ...
ROW 22 : C-1 0B . ... : ... .. . ... : C-2 00 . ... : F-# 02 2 ... : ... .. . ... : G-3 09 . ... : C-4 09 . ... : ... .. . ...
ROW 23 : --- .. . ... : ... .. . ... : --- .. . ... : F-# 02 4 ... : ... .. . ... : ... .. . ... : ... .. . ... : ... .. . ...
ROW 24 : C-1 0B . ... : ... .. . ... : C-2 00 . ... : F-# 02 6 ... : ... .. . ... : D#3 09 . ... : G-3 09 . ... : ... .. . ...
ROW 25 : --- .. . ... : ... .. . ... : --- .. . ... : ... .. . ... : ... .. . ... : ... .. . ... : ... .. . ... : ... .. . ...
ROW 26 : C-1 0B . ... : ... .. . ... : C-2 00 . ... : F-# 02 8 ... : ... .. . ... : C-3 09 . ... : D#3 09 . ... : ... .. . ...
ROW 27 : --- .. . ... : ... .. . ... : --- .. . ... : ... .. . ... : ... .. . ... : ... .. . ... : ... .. . ... : ... .. . ...
ROW 28 : C-2 0B . ... : D#3 06 . ... : C-3 00 . ... : 3-# 03 A ... : ... .. . ... : G-3 09 . ... : C-3 09 . ... : G-4 07 . ...
ROW 29 : --- .. . ... : ... .. . ... : --- .. . ... : ... .. . ... : ... .. . ... : ... .. . ... : ... .. . ... : ... .. . ...
ROW 2A : C-1 0B . ... : ... .. . ... : C-2 00 . ... : ... .. . ... : ... .. . ... : D#3 09 . ... : G-3 09 . ... : ... .. . ...
ROW 2B : --- .. . ... : ... .. . ... : --- .. . ... : C-# 03 3 ... : ... .. . ... : ... .. . ... : ... .. . ... : ... .. . ...
ROW 2C : C-1 0B . ... : ... .. . ... : C-2 00 . ... : D-# 03 8 ... : ... .. . ... : C-3 09 . ... : D#3 09 . ... : ... .. . ...
ROW 2D : --- .. . ... : ... .. . ... : --- .. . ... : ... .. . ... : ... .. . ... : ... .. . ... : ... .. . ... : ... .. . ...
ROW 2E : C-1 0B . ... : ... .. . ... : C-2 00 . ... : ... .. . ... : ... .. . ... : G-2 09 . ... : C-3 09 . ... : ... .. . ...
ROW 2F : --- .. . ... : ... .. . ... : --- .. . ... : ... .. . ... : ... .. . ... : ... .. . ... : ... .. . ... : ... .. . ...
ROW 30 : C-1 0B . ... : ... .. . ... : C-2 00 . ... : F-# 02 8 ... : ... .. . ... : C-4 09 . ... : G-2 09 . ... : ... .. . ...
ROW 31 : --- .. . ... : ... .. . ... : --- .. . ... : ... .. . ... : ... .. . ... : ... .. . ... : ... .. . ... : ... .. . ...
ROW 32 : C-1 0B . ... : ... .. . ... : C-2 00 . ... : F-# 02 2 ... : ... .. . ... : G-3 09 . ... : C-4 09 . ... : ... .. . ...
ROW 33 : --- .. . ... : ... .. . ... : --- .. . ... : F-# 02 4 ... : ... .. . ... : ... .. . ... : ... .. . ... : ... .. . ...
ROW 34 : C-1 0B . ... : === .. . ... : C-2 00 . ... : F-# 02 6 ... : ... .. . ... : D#3 09 . ... : G-3 09 . ... : ... .. . ...
ROW 35 : --- .. . ... : ... .. . ... : --- .. . ... : ... .. . ... : ... .. . ... : ... .. . ... : ... .. . ... : ... .. . ...
ROW 36 : C-1 0B . ... : ... .. . ... : C-2 00 . ... : F-# 02 8 ... : ... .. . ... : C-3 09 . ... : D#3 09 . ... : ... .. . ...
ROW 37 : --- .. . ... : ... .. . ... : --- .. . ... : ... .. . ... : ... .. . ... : ... .. . ... : ... .. . ... : ... .. . ...
ROW 38 : C-2 0B . ... : D-3 06 . ... : C-3 00 . ... : 3-# 03 A ... : ... .. . ... : G-3 09 . ... : C-3 09 . ... : ... .. . ...
ROW 39 : --- .. . ... : ... .. . ... : --- .. . ... : 1-# 03 1 ... : ... .. . ... : ... .. . ... : ... .. . ... : ... .. . ...
ROW 3A : C-1 0B . ... : ... .. . ... : C-2 00 . ... : 1-# 03 2 ... : ... .. . ... : D#3 09 . ... : G-3 09 . ... : ... .. . ...
ROW 3B : --- .. . ... : ... .. . ... : --- .. . ... : 1-# 03 3 ... : ... .. . ... : ... .. . ... : ... .. . ... : ... .. . ...
ROW 3C : C-1 0B . ... : D#3 06 . ... : C-2 00 . ... : 1-# 03 4 ... : ... .. . ... : C-3 09 . ... : D#3 09 . ... : C-4 07 . ...
ROW 3D : --- .. . ... : ... .. . ... : --- .. . ... : 1-# 03 5 ... : ... .. . ... : ... .. . ... : ... .. . ... : ... .. . ...
ROW 3E : C-1 0B . ... : ... .. . ... : C-2 00 . ... : 1-# 03 6 ... : ... .. . ... : G-2 09 . ... : C-3 09 . ... : ... .. . ...
ROW 3F : --- .. . ... : ... .. . ... : --- .. . ... : 1-# 03 7 ... : ... .. . ... : ... .. . ... : ... .. . ... : ... .. . ...
ROW 40 : F-1 0B . ... : F-3 06 . ... : F-2 00 . ... : F-# 02 8 ... : ... .. . ... : C-4 09 . ... : G-2 09 . ... : G#4 07 . ...
ROW 41 : --- .. . ... : ... .. . ... : --- .. . ... : ... .. . ... : ... .. . ... : ... .. . ... : ... .. . ... : ... .. . ...
ROW 42 : F-1 0B . ... : ... .. . ... : F-2 00 . ... : F-# 02 2 ... : ... .. . ... : G#3 09 . ... : C-4 09 . ... : ... .. . ...
ROW 43 : --- .. . ... : ... .. . ... : --- .. . ... : F-# 02 4 ... : ... .. . ... : ... .. . ... : ... .. . ... : ... .. . ...
ROW 44 : F-1 0B . ... : ... .. . ... : F-2 00 . ... : F-# 02 6 ... : ... .. . ... : F-3 09 . ... : G#3 09 . ... : ... .. . ...
ROW 45 : --- .. . ... : ... .. . ... : --- .. . ... : ... .. . ... : ... .. . ... : ... .. . ... : ... .. . ... : ... .. . ...
ROW 46 : F-1 0B . ... : ... .. . ... : F-2 00 . ... : F-# 02 8 ... : ... .. . ... : C-3 09 . ... : F-3 09 . ... : ... .. . ...
ROW 47 : --- .. . ... : ... .. . ... : --- .. . ... : ... .. . ... : ... .. . ... : ... .. . ... : ... .. . ... : ... .. . ...
ROW 48 : F-2 0B . ... : ... .. . ... : F-3 00 . ... : 3-# 03 A ... : ... .. . ... : G#3 09 . ... : C-3 09 . ... : ... .. . ...
ROW 49 : --- .. . ... : ... .. . ... : --- .. . ... : ... .. . ... : ... .. . ... : ... .. . ... : ... .. . ... : ... .. . ...
ROW 4A : F-1 0B . ... : ... .. . ... : F-2 00 . ... : ... .. . ... : ... .. . ... : F-3 09 . ... : G#3 09 . ... : ... .. . ...
ROW 4B : --- .. . ... : ... .. . ... : --- .. . ... : C-# 03 3 ... : ... .. . ... : ... .. . ... : ... .. . ... : ... .. . ...
ROW 4C : F-1 0B . ... : ... .. . ... : F-2 00 . ... : D-# 03 8 ... : ... .. . ... : C-3 09 . ... : F-3 09 . ... : ... .. . ...
ROW 4D : --- .. . ... : ... .. . ... : --- .. . ... : ... .. . ... : ... .. . ... : ... .. . ... : ... .. . ... : ... .. . ...
ROW 4E : F-1 0B . ... : ... .. . ... : F-2 00 . ... : ... .. . ... : ... .. . ... : G#2 09 . ... : C-3 09 . ... : ... .. . ...
ROW 4F : --- .. . ... : ... .. . ... : --- .. . ... : ... .. . ... : ... .. . ... : ... .. . ... : ... .. . ... : ... .. . ...
ROW 50 : F-1 0B . ... : === .. . ... : F-2 00 . ... : F-# 02 8 ... : ... .. . ... : C-4 09 . ... : G#2 09 . ... : ... .. . ...
ROW 51 : --- .. . ... : ... .. . ... : --- .. . ... : ... .. . ... : ... .. . ... : ... .. . ... : ... .. . ... : ... .. . ...
ROW 52 : F-1 0B . ... : ... .. . ... : F-2 00 . ... : F-# 02 2 ... : ... .. . ... : G#3 09 . ... : C-4 09 . ... : ... .. . ...
ROW 53 : --- .. . ... : ... .. . ... : --- .. . ... : F-# 02 4 ... : ... .. . ... : ... .. . ... : ... .. . ... : ... .. . ...
ROW 54 : F-1 0B . ... : C-3 06 . ... : F-2 00 . ... : F-# 02 6 ... : ... .. . ... : F-3 09 . ... : G#3 09 . ... : A#4 07 . ...
ROW 55 : --- .. . ... : ... .. . ... : --- .. . ... : ... .. . ... : ... .. . ... : ... .. . ... : ... .. . ... : ... .. . ...
ROW 56 : F-1 0B . ... : ... .. . ... : F-2 00 . ... : F-# 02 8 ... : ... .. . ... : C-3 09 . ... : F-3 09 . ... : ... .. . ...
ROW 57 : --- .. . ... : ... .. . ... : --- .. . ... : ... .. . ... : ... .. . ... : ... .. . ... : ... .. . ... : ... .. . ...
ROW 58 : F-2 0B . ... : D-3 06 . ... : F-3 00 . ... : 3-# 03 A ... : ... .. . ... : G#3 09 . ... : C-3 09 . ... : C-5 07 . ...
ROW 59 : --- .. . ... : ... .. . ... : --- .. . ... : ... .. . ... : ... .. . ... : ... .. . ... : ... .. . ... : ... .. . ...
ROW 5A : F-1 0B . ... : ... .. . ... : F-2 00 . ... : ... .. . ... : ... .. . ... : F-3 09 . ... : G#3 09 . ... : ... .. . ...
ROW 5B : --- .. . ... : ... .. . ... : --- .. . ... : ... .. . ... : ... .. . ... : ... .. . ... : ... .. . ... : ... .. . ...
ROW 5C : F-1 0B . ... : D#3 06 . ... : F-2 00 . ... : ... .. . ... : ... .. . ... : C-3 09 . ... : F-3 09 . ... : G#4 07 . ...
ROW 5D : --- .. . ... : ... .. . ... : --- .. . ... : ... .. . ... : ... .. . ... : ... .. . ... : ... .. . ... : ... .. . ...
ROW 5E : F-1 0B . ... : ... .. . ... : F-2 00 . ... : ... .. . ... : ... .. . ... : G#2 09 . ... : C-3 09 . ... : ... .. . ...
ROW 5F : --- .. . ... : ... .. . ... : --- .. . ... : ... .. . ... : ... .. . ... : ... .. . ... : ... .. . ... : ... .. . ...
ROW 60 : D-1 0B . ... : D-3 06 . ... : D-2 00 . ... : F-# 02 8 ... : ... .. . ... : D-4 09 . ... : G#2 09 . ... : F-4 07 . ...
ROW 61 : --- .. . ... : ... .. . ... : --- .. . ... : ... .. . ... : ... .. . ... : ... .. . ... : ... .. . ... : ... .. . ...
ROW 62 : D-1 0B . ... : ... .. . ... : D-2 00 . ... : F-# 02 2 ... : ... .. . ... : G-3 09 . ... : D-4 09 . ... : ... .. . ...
ROW 63 : --- .. . ... : ... .. . ... : --- .. . ... : F-# 02 4 ... : ... .. . ... : ... .. . ... : ... .. . ... : ... .. . ...
ROW 64 : D-1 0B . ... : ... .. . ... : D-2 00 . ... : F-# 02 6 ... : ... .. . ... : D-3 09 . ... : G-3 09 . ... : ... .. . ...
ROW 65 : --- .. . ... : ... .. . ... : --- .. . ... : ... .. . ... : ... .. . ... : ... .. . ... : ... .. . ... : ... .. . ...
ROW 66 : D-1 0B . ... : ... .. . ... : D-2 00 . ... : F-# 02 8 ... : ... .. . ... : B-2 09 . ... : D-3 09 . ... : ... .. . ...
ROW 67 : --- .. . ... : ... .. . ... : --- .. . ... : ... .. . ... : ... .. . ... : ... .. . ... : ... .. . ... : ... .. . ...
ROW 68 : D-2 0B . ... : ... .. . ... : D-3 00 . ... : 3-# 03 A ... : ... .. . ... : G-3 09 . ... : B-2 09 . ... : ... .. . ...
ROW 69 : --- .. . ... : ... .. . ... : --- .. . ... : ... .. . ... : ... .. . ... : ... .. . ... : ... .. . ... : ... .. . ...
ROW 6A : D-1 0B . ... : ... .. . ... : D-2 00 . ... : ... .. . ... : ... .. . ... : D-3 09 . ... : G-3 09 . ... : ... .. . ...
ROW 6B : --- .. . ... : ... .. . ... : --- .. . ... : C-# 03 3 ... : ... .. . ... : ... .. . ... : ... .. . ... : ... .. . ...
ROW 6C : D-1 0B . ... : ... .. . ... : D-2 00 . ... : D-# 03 8 ... : ... .. . ... : B-2 09 . ... : D-3 09 . ... : ... .. . ...
ROW 6D : --- .. . ... : ... .. . ... : --- .. . ... : ... .. . ... : ... .. . ... : ... .. . ... : ... .. . ... : ... .. . ...
ROW 6E : D-1 0B . ... : ... .. . ... : D-2 00 . ... : ... .. . ... : ... .. . ... : G-2 09 . ... : B-2 09 . ... : ... .. . ...
ROW 6F : --- .. . ... : ... .. . ... : --- .. . ... : ... .. . ... : ... .. . ... : ... .. . ... : ... .. . ... : ... .. . ...
ROW 70 : B-0 0B . ... : === .. . ... : B-1 00 . ... : F-# 02 8 ... : ... .. . ... : D-4 09 . ... : G-2 09 . ... : D#4 07 . ...
ROW 71 : --- .. . ... : ... .. . ... : --- .. . ... : ... .. . ... : ... .. . ... : ... .. . ... : ... .. . ... : ... .. . ...
ROW 72 : B-0 0B . ... : ... .. . ... : B-1 00 . ... : F-# 02 2 ... : ... .. . ... : G-3 09 . ... : D-4 09 . ... : ... .. . ...
ROW 73 : --- .. . ... : ... .. . ... : --- .. . ... : F-# 02 4 ... : ... .. . ... : ... .. . ... : ... .. . ... : ... .. . ...
ROW 74 : B-0 0B . ... : B-3 06 . ... : B-1 00 . ... : F-# 02 6 ... : ... .. . ... : D-3 09 . ... : G-3 09 . ... : ... .. . ...
ROW 75 : --- .. . ... : ... .. . ... : --- .. . ... : ... .. . ... : ... .. . ... : ... .. . ... : ... .. . ... : ... .. . ...
ROW 76 : B-0 0B . ... : ... .. . ... : B-1 00 . ... : F-# 02 8 ... : ... .. . ... : B-2 09 . ... : D-3 09 . ... : F-4 07 . ...
ROW 77 : --- .. . ... : ... .. . ... : --- .. . ... : ... .. . ... : ... .. . ... : ... .. . ... : ... .. . ... : ... .. . ...
ROW 78 : B-1 0B . ... : ... .. . ... : B-2 00 . ... : 3-# 03 A ... : ... .. . ... : G-3 09 . ... : B-2 09 . ... : ... .. . ...
ROW 79 : --- .. . ... : ... .. . ... : --- .. . ... : 1-# 03 1 ... : ... .. . ... : ... .. . ... : ... .. . ... : ... .. . ...
ROW 7A : B-0 0B . ... : ... .. . ... : B-1 00 . ... : 1-# 03 2 ... : ... .. . ... : D-3 09 . ... : G-3 09 . ... : ... .. . ...
ROW 7B : --- .. . ... : ... .. . ... : --- .. . ... : 1-# 03 3 ... : ... .. . ... : ... .. . ... : ... .. . ... : ... .. . ...
ROW 7C : B-0 0B . ... : G-3 06 . ... : B-1 00 . ... : 1-# 03 4 ... : ... .. . ... : B-2 09 . ... : D-3 09 . ... : D-4 07 . ...
ROW 7D : --- .. . ... : ... .. . ... : --- .. . ... : 1-# 03 5 ... : ... .. . ... : ... .. . ... : ... .. . ... : ... .. . ...
ROW 7E : B-0 0B . ... : ... .. . ... : B-1 00 . ... : 1-# 03 6 ... : ... .. . ... : G-2 09 . ... : B-2 09 . ... : ... .. . ...
ROW 7F : --- .. . ... : ... .. . ... : --- .. . ... : 1-# 03 7 ... : ... .. . ... : ... .. . ... : ... .. . ... : ... .. . ...

PATTERN 0C
ROW 00 : C-1 0B C ... : D#2 06 C ... : C-2 00 . ... : F-# 02 8 ... : ... .. . ... : C-4 09 C ... : C-4 07 C ... : G-4 07 C ...
ROW 01 : --- .. . ... : ... .. . ... : --- .. . ... : ... .. . ... : ... .. . ... : ... .. . ... : ... .. . ... : ... .. . ...
ROW 02 : C-1 0B . ... : ... .. . ... : C-2 00 . ... : F-# 02 2 ... : ... .. . ... : G-3 09 . ... : ... .. . ... : ... .. . ...
ROW 03 : --- .. . ... : ... .. . ... : --- .. . ... : F-# 02 4 ... : ... .. . ... : ... .. . ... : ... .. . ... : ... .. . ...
ROW 04 : C-1 0B . ... : ... .. . ... : C-2 00 . ... : F-# 02 6 ... : ... .. . ... : D#3 09 . ... : ... .. . ... : ... .. . ...
ROW 05 : --- .. . ... : ... .. . ... : --- .. . ... : ... .. . ... : ... .. . ... : ... .. . ... : ... .. . ... : ... .. . ...
ROW 06 : C-1 0B . ... : ... .. . ... : C-2 00 . ... : F-# 02 8 ... : ... .. . ... : C-3 09 . ... : A#3 07 . ... : ... .. . ...
ROW 07 : --- .. . ... : ... .. . ... : --- .. . ... : ... .. . ... : ... .. . ... : ... .. . ... : ... .. . ... : ... .. . ...
ROW 08 : C-2 0B . ... : ... .. . ... : C-3 00 . ... : 3-# 03 A ... : ... .. . ... : G-3 09 . ... : ... .. . ... : ... .. . ...
ROW 09 : --- .. . ... : ... .. . ... : --- .. . ... : ... .. . ... : ... .. . ... : ... .. . ... : ... .. . ... : ... .. . ...
ROW 0A : C-1 0B . ... : ... .. . ... : C-2 00 . ... : ... .. . ... : ... .. . ... : D#3 09 . ... : ... .. . ... : ... .. . ...
ROW 0B : --- .. . ... : ... .. . ... : --- .. . ... : C-# 03 3 ... : ... .. . ... : ... .. . ... : ... .. . ... : ... .. . ...
ROW 0C : C-1 0B . ... : ... .. . ... : C-2 00 . ... : D-# 03 8 ... : ... .. . ... : C-3 09 . ... : G#3 07 . ... : D#4 07 . ...
ROW 0D : --- .. . ... : ... .. . ... : --- 00 . ... : ... .. . ... : ... .. . ... : ... .. . ... : ... .. . ... : ... .. . ...
ROW 0E : C-1 0B . ... : ... .. . ... : C-2 00 . ... : ... .. . ... : ... .. . ... : G-2 09 . ... : ... .. . ... : ... .. . ...
ROW 0F : --- .. . ... : ... .. . ... : --- .. . ... : ... .. . ... : ... .. . ... : ... .. . ... : ... .. . ... : ... .. . ...
ROW 10 : C-1 0B . ... : === .. . ... : C-2 00 . ... : F-# 02 8 ... : ... .. . ... : C-4 09 . ... : G-3 07 . ... : C-4 07 . ...
ROW 11 : --- .. . ... : ... .. . ... : --- .. . ... : ... .. . ... : ... .. . ... : ... .. . ... : ... .. . ... : ... .. . ...
ROW 12 : C-1 0B . ... : ... .. . ... : C-2 00 . ... : F-# 02 2 ... : ... .. . ... : G-3 09 . ... : ... .. . ... : ... .. . ...
ROW 13 : --- .. . ... : ... .. . ... : --- .. . ... : F-# 02 4 ... : ... .. . ... : ... .. . ... : ... .. . ... : ... .. . ...
ROW 14 : C-1 0B . ... : D-2 06 . ... : C-2 00 . ... : F-# 02 6 ... : ... .. . ... : D#3 09 . ... : ... .. . ... : ... .. . ...
ROW 15 : --- .. . ... : ... .. . ... : --- .. . ... : ... .. . ... : ... .. . ... : ... .. . ... : ... .. . ... : ... .. . ...
ROW 16 : C-1 0B . ... : ... .. . ... : C-2 00 . ... : F-# 02 8 ... : ... .. . ... : C-3 09 . ... : ... .. . ... : ... .. . ...
ROW 17 : --- .. . ... : ... .. . ... : --- .. . ... : ... .. . ... : ... .. . ... : ... .. . ... : ... .. . ... : ... .. . ...
ROW 18 : C-2 0B . ... : D#2 06 . ... : C-3 00 . ... : 3-# 03 A ... : ... .. . ... : G-3 09 . ... : ... .. . ... : D#4 07 . ...
ROW 19 : --- .. . ... : ... .. . ... : --- .. . ... : ... .. . ... : ... .. . ... : ... .. . ... : ... .. . ... : ... .. . ...
ROW 1A : C-1 0B . ... : F-2 06 . ... : C-2 00 . ... : ... .. . ... : ... .. . ... : D#3 09 . ... : ... .. . ... : ... .. . ...
ROW 1B : --- .. . ... : ... .. . ... : --- .. . ... : ... .. . ... : ... .. . ... : ... .. . ... : ... .. . ... : ... .. . ...
ROW 1C : C-1 0B . ... : ... .. . ... : C-2 00 . ... : ... .. . ... : ... .. . ... : C-3 09 . ... : D#3 07 . ... : F-4 07 . ...
ROW 1D : --- .. . ... : ... .. . ... : --- .. . ... : ... .. . ... : ... .. . ... : ... .. . ... : ... .. . ... : ... .. . ...
ROW 1E : C-1 0B . ... : ... .. . ... : C-2 00 . ... : ... .. . ... : ... .. . ... : G-2 09 . ... : ... .. . ... : ... .. . ...
ROW 1F : --- .. . ... : ... .. . ... : --- .. . ... : ... .. . ... : ... .. . ... : ... .. . ... : ... .. . ... : ... .. . ...
ROW 20 : C-1 0B . ... : G-2 06 . ... : C-2 00 . ... : F-# 02 8 ... : ... .. . ... : C-4 09 . ... : C-3 07 . ... : D#4 07 . ...
ROW 21 : --- .. . ... : ... .. . ... : --- .. . ... : ... .. . ... : ... .. . ... : ... .. . ... : ... .. . ... : ... .. . ...
ROW 22 : C-1 0B . ... : ... .. . ... : C-2 00 . ... : F-# 02 2 ... : ... .. . ... : G-3 09 . ... : ... .. . ... : ... .. . ...
ROW 23 : --- .. . ... : ... .. . ... : --- .. . ... : F-# 02 4 ... : ... .. . ... : ... .. . ... : ... .. . ... : ... .. . ...
ROW 24 : C-1 0B . ... : ... .. . ... : C-2 00 . ... : F-# 02 6 ... : ... .. . ... : D#3 09 . ... : ... .. . ... : ... .. . ...
ROW 25 : --- .. . ... : ... .. . ... : --- .. . ... : ... .. . ... : ... .. . ... : ... .. . ... : ... .. . ... : ... .. . ...
ROW 26 : C-1 0B . ... : ... .. . ... : C-2 00 . ... : F-# 02 8 ... : ... .. . ... : C-3 09 . ... : ... .. . ... : ... .. . ...
ROW 27 : --- .. . ... : ... .. . ... : --- .. . ... : ... .. . ... : ... .. . ... : ... .. . ... : ... .. . ... : ... .. . ...
ROW 28 : C-2 0B . ... : D#2 06 . ... : C-3 00 . ... : 3-# 03 A ... : ... .. . ... : G-3 09 . ... : G-3 07 . ... : C-4 07 . ...
ROW 29 : --- .. . ... : ... .. . ... : --- .. . ... : ... .. . ... : ... .. . ... : ... .. . ... : ... .. . ... : ... .. . ...
ROW 2A : C-1 0B . ... : ... .. . ... : C-2 00 . ... : ... .. . ... : ... .. . ... : D#3 09 . ... : ... .. . ... : ... .. . ...
ROW 2B : --- .. . ... : ... .. . ... : --- .. . ... : C-# 03 3 ... : ... .. . ... : ... .. . ... : ... .. . ... : ... .. . ...
ROW 2C : C-1 0B . ... : ... .. . ... : C-2 00 . ... : D-# 03 8 ... : ... .. . ... : C-3 09 . ... : ... .. . ... : ... .. . ...
ROW 2D : --- .. . ... : ... .. . ... : --- .. . ... : ... .. . ... : ... .. . ... : ... .. . ... : ... .. . ... : ... .. . ...
ROW 2E : C-1 0B . ... : ... .. . ... : C-2 00 . ... : ... .. . ... : ... .. . ... : G-2 09 . ... : ... .. . ... : ... .. . ...
ROW 2F : --- .. . ... : ... .. . ... : --- .. . ... : ... .. . ... : ... .. . ... : ... .. . ... : ... .. . ... : ... .. . ...
ROW 30 : C-1 0B . ... : ... .. . ... : C-2 00 . ... : F-# 02 8 ... : ... .. . ... : C-4 09 . ... : ... .. . ... : D-4 07 . ...
ROW 31 : --- .. . ... : ... .. . ... : --- .. . ... : ... .. . ... : ... .. . ... : ... .. . ... : ... .. . ... : ... .. . ...
ROW 32 : C-1 0B . ... : ... .. . ... : C-2 00 . ... : F-# 02 2 ... : ... .. . ... : G-3 09 . ... : ... .. . ... : ... .. . ...
ROW 33 : --- .. . ... : ... .. . ... : --- .. . ... : F-# 02 4 ... : ... .. . ... : ... .. . ... : ... .. . ... : ... .. . ...
ROW 34 : C-1 0B . ... : === .. . ... : C-2 00 . ... : F-# 02 6 ... : ... .. . ... : D#3 09 . ... : ... .. . ... : ... .. . ...
ROW 35 : --- .. . ... : ... .. . ... : --- .. . ... : ... .. . ... : ... .. . ... : ... .. . ... : ... .. . ... : ... .. . ...
ROW 36 : C-1 0B . ... : ... .. . ... : C-2 00 . ... : F-# 02 8 ... : ... .. . ... : C-3 09 . ... : ... .. . ... : ... .. . ...
ROW 37 : --- .. . ... : ... .. . ... : --- .. . ... : ... .. . ... : ... .. . ... : ... .. . ... : ... .. . ... : ... .. . ...
ROW 38 : C-2 0B . ... : D-2 06 . ... : C-3 00 . ... : 3-# 03 A ... : ... .. . ... : G-3 09 . ... : ... .. . ... : D#4 07 . ...
ROW 39 : --- .. . ... : ... .. . ... : --- .. . ... : 1-# 03 1 ... : ... .. . ... : ... .. . ... : ... .. . ... : ... .. . ...
ROW 3A : C-1 0B . ... : ... .. . ... : C-2 00 . ... : 1-# 03 2 ... : ... .. . ... : D#3 09 . ... : ... .. . ... : ... .. . ...
ROW 3B : --- .. . ... : ... .. . ... : --- .. . ... : 1-# 03 3 ... : ... .. . ... : ... .. . ... : ... .. . ... : ... .. . ...
ROW 3C : C-1 0B . ... : D#2 06 . ... : C-2 00 . ... : 1-# 03 4 ... : ... .. . ... : C-3 09 . ... : C-3 07 . ... : ... .. . ...
ROW 3D : --- .. . ... : ... .. . ... : --- .. . ... : 1-# 03 5 ... : ... .. . ... : ... .. . ... : ... .. . ... : ... .. . ...
ROW 3E : C-1 0B . ... : ... .. . ... : C-2 00 . ... : 1-# 03 6 ... : ... .. . ... : G-2 09 . ... : ... .. . ... : ... .. . ...
ROW 3F : --- .. . ... : ... .. . ... : --- .. . ... : 1-# 03 7 ... : ... .. . ... : ... .. . ... : ... .. . ... : ... .. . ...
ROW 40 : F-1 0B . ... : F-2 06 . ... : F-2 00 . ... : F-# 02 8 ... : ... .. . ... : C-4 09 . ... : G#3 07 . ... : ... .. . ...
ROW 41 : --- .. . ... : ... .. . ... : --- .. . ... : ... .. . ... : ... .. . ... : ... .. . ... : ... .. . ... : ... .. . ...
ROW 42 : F-1 0B . ... : ... .. . ... : F-2 00 . ... : F-# 02 2 ... : ... .. . ... : G#3 09 . ... : ... .. . ... : ... .. . ...
ROW 43 : --- .. . ... : ... .. . ... : --- .. . ... : F-# 02 4 ... : ... .. . ... : ... .. . ... : ... .. . ... : ... .. . ...
ROW 44 : F-1 0B . ... : ... .. . ... : F-2 00 . ... : F-# 02 6 ... : ... .. . ... : F-3 09 . ... : ... .. . ... : ... .. . ...
ROW 45 : --- .. . ... : ... .. . ... : --- .. . ... : ... .. . ... : ... .. . ... : ... .. . ... : ... .. . ... : ... .. . ...
ROW 46 : F-1 0B . ... : ... .. . ... : F-2 00 . ... : F-# 02 8 ... : ... .. . ... : C-3 09 . ... : ... .. . ... : ... .. . ...
ROW 47 : --- .. . ... : ... .. . ... : --- .. . ... : ... .. . ... : ... .. . ... : ... .. . ... : ... .. . ... : ... .. . ...
ROW 48 : F-2 0B . ... : ... .. . ... : F-3 00 . ... : 3-# 03 A ... : ... .. . ... : G#3 09 . ... : ... .. . ... : ... .. . ...
ROW 49 : --- .. . ... : ... .. . ... : --- .. . ... : ... .. . ... : ... .. . ... : ... .. . ... : ... .. . ... : ... .. . ...
ROW 4A : F-1 0B . ... : ... .. . ... : F-2 00 . ... : ... .. . ... : ... .. . ... : F-3 09 . ... : ... .. . ... : ... .. . ...
ROW 4B : --- .. . ... : ... .. . ... : --- .. . ... : C-# 03 3 ... : ... .. . ... : ... .. . ... : ... .. . ... : ... .. . ...
ROW 4C : F-1 0B . ... : ... .. . ... : F-2 00 . ... : D-# 03 8 ... : ... .. . ... : C-3 09 . ... : ... .. . ... : ... .. . ...
ROW 4D : --- .. . ... : ... .. . ... : --- .. . ... : ... .. . ... : ... .. . ... : ... .. . ... : ... .. . ... : ... .. . ...
ROW 4E : F-1 0B . ... : ... .. . ... : F-2 00 . ... : ... .. . ... : ... .. . ... : G#2 09 . ... : ... .. . ... : ... .. . ...
ROW 4F : --- .. . ... : ... .. . ... : --- .. . ... : ... .. . ... : ... .. . ... : ... .. . ... : ... .. . ... : ... .. . ...
ROW 50 : F-1 0B . ... : === .. . ... : F-2 00 . ... : F-# 02 8 ... : ... .. . ... : C-4 09 . ... : ... .. . ... : D-4 07 . ...
ROW 51 : --- .. . ... : ... .. . ... : --- .. . ... : ... .. . ... : ... .. . ... : ... .. . ... : ... .. . ... : ... .. . ...
ROW 52 : F-1 0B . ... : ... .. . ... : F-2 00 . ... : F-# 02 2 ... : ... .. . ... : G#3 09 . ... : ... .. . ... : ... .. . ...
ROW 53 : --- .. . ... : ... .. . ... : --- .. . ... : F-# 02 4 ... : ... .. . ... : ... .. . ... : ... .. . ... : ... .. . ...
ROW 54 : F-1 0B . ... : C-2 06 . ... : F-2 00 . ... : F-# 02 6 ... : ... .. . ... : F-3 09 . ... : A#3 07 . ... : ... .. . ...
ROW 55 : --- .. . ... : ... .. . ... : --- .. . ... : ... .. . ... : ... .. . ... : ... .. . ... : ... .. . ... : ... .. . ...
ROW 56 : F-1 0B . ... : ... .. . ... : F-2 00 . ... : F-# 02 8 ... : ... .. . ... : C-3 09 . ... : ... .. . ... : ... .. . ...
ROW 57 : --- .. . ... : ... .. . ... : --- .. . ... : ... .. . ... : ... .. . ... : ... .. . ... : ... .. . ... : ... .. . ...
ROW 58 : F-2 0B . ... : D-2 06 . ... : F-3 00 . ... : 3-# 03 A ... : ... .. . ... : G#3 09 . ... : C-4 07 . ... : F-4 07 . ...
ROW 59 : --- .. . ... : ... .. . ... : --- .. . ... : ... .. . ... : ... .. . ... : ... .. . ... : ... .. . ... : ... .. . ...
ROW 5A : F-1 0B . ... : ... .. . ... : F-2 00 . ... : ... .. . ... : ... .. . ... : F-3 09 . ... : ... .. . ... : ... .. . ...
ROW 5B : --- .. . ... : ... .. . ... : --- .. . ... : ... .. . ... : ... .. . ... : ... .. . ... : ... .. . ... : ... .. . ...
ROW 5C : F-1 0B . ... : D#2 06 . ... : F-2 00 . ... : ... .. . ... : ... .. . ... : C-3 09 . ... : G#3 07 . ... : ... .. . ...
ROW 5D : --- .. . ... : ... .. . ... : --- .. . ... : ... .. . ... : ... .. . ... : ... .. . ... : ... .. . ... : ... .. . ...
ROW 5E : F-1 0B . ... : ... .. . ... : F-2 00 . ... : ... .. . ... : ... .. . ... : G#2 09 . ... : ... .. . ... : ... .. . ...
ROW 5F : --- .. . ... : ... .. . ... : --- .. . ... : ... .. . ... : ... .. . ... : ... .. . ... : ... .. . ... : ... .. . ...
ROW 60 : D-1 0B . ... : D-2 06 . ... : D-2 00 . ... : F-# 02 8 ... : ... .. . ... : D-4 09 . ... : F-3 07 . ... : F-4 07 . ...
ROW 61 : --- .. . ... : ... .. . ... : --- .. . ... : ... .. . ... : ... .. . ... : ... .. . ... : ... .. . ... : ... .. . ...
ROW 62 : D-1 0B . ... : ... .. . ... : D-2 00 . ... : F-# 02 2 ... : ... .. . ... : G-3 09 . ... : ... .. . ... : ... .. . ...
ROW 63 : --- .. . ... : ... .. . ... : --- .. . ... : F-# 02 4 ... : ... .. . ... : ... .. . ... : ... .. . ... : ... .. . ...
ROW 64 : D-1 0B . ... : ... .. . ... : D-2 00 . ... : F-# 02 6 ... : ... .. . ... : D-3 09 . ... : ... .. . ... : ... .. . ...
ROW 65 : --- .. . ... : ... .. . ... : --- .. . ... : ... .. . ... : ... .. . ... : ... .. . ... : ... .. . ... : ... .. . ...
ROW 66 : D-1 0B . ... : ... .. . ... : D-2 00 . ... : F-# 02 8 ... : ... .. . ... : B-2 09 . ... : ... .. . ... : ... .. . ...
ROW 67 : --- .. . ... : ... .. . ... : --- .. . ... : ... .. . ... : ... .. . ... : ... .. . ... : ... .. . ... : ... .. . ...
ROW 68 : D-2 0B . ... : ... .. . ... : D-3 00 . ... : 3-# 03 A ... : ... .. . ... : G-3 09 . ... : ... .. . ... : C-4 07 . ...
ROW 69 : --- .. . ... : ... .. . ... : --- .. . ... : ... .. . ... : ... .. . ... : ... .. . ... : ... .. . ... : ... .. . ...
ROW 6A : D-1 0B . ... : ... .. . ... : D-2 00 . ... : ... .. . ... : ... .. . ... : D-3 09 . ... : ... .. . ... : ... .. . ...
ROW 6B : --- .. . ... : ... .. . ... : --- .. . ... : C-# 03 3 ... : ... .. . ... : ... .. . ... : ... .. . ... : ... .. . ...
ROW 6C : D-1 0B . ... : ... .. . ... : D-2 00 . ... : D-# 03 8 ... : ... .. . ... : B-2 09 . ... : ... .. . ... : ... .. . ...
ROW 6D : --- .. . ... : ... .. . ... : --- .. . ... : ... .. . ... : ... .. . ... : ... .. . ... : ... .. . ... : ... .. . ...
ROW 6E : D-1 0B . ... : ... .. . ... : D-2 00 . ... : ... .. . ... : ... .. . ... : G-2 09 . ... : ... .. . ... : ... .. . ...
ROW 6F : --- .. . ... : ... .. . ... : --- .. . ... : ... .. . ... : ... .. . ... : ... .. . ... : ... .. . ... : ... .. . ...
ROW 70 : B-0 0B . ... : === .. . ... : B-1 00 . ... : F-# 02 8 ... : ... .. . ... : D-4 09 . ... : D#3 07 . ... : B-3 07 . ...
ROW 71 : --- .. . ... : ... .. . ... : --- .. . ... : ... .. . ... : ... .. . ... : ... .. . ... : ... .. . ... : ... .. . ...
ROW 72 : B-0 0B . ... : ... .. . ... : B-1 00 . ... : F-# 02 2 ... : ... .. . ... : G-3 09 . ... : ... .. . ... : ... .. . ...
ROW 73 : --- .. . ... : ... .. . ... : --- .. . ... : F-# 02 4 ... : ... .. . ... : ... .. . ... : ... .. . ... : ... .. . ...
ROW 74 : B-0 0B . ... : B-1 06 . ... : B-1 00 . ... : F-# 02 6 ... : ... .. . ... : D-3 09 . ... : ... .. . ... : ... .. . ...
ROW 75 : --- .. . ... : ... .. . ... : --- .. . ... : ... .. . ... : ... .. . ... : ... .. . ... : ... .. . ... : ... .. . ...
ROW 76 : B-0 0B . ... : ... .. . ... : B-1 00 . ... : F-# 02 8 ... : ... .. . ... : B-2 09 . ... : F-3 07 . ... : ... .. . ...
ROW 77 : --- .. . ... : ... .. . ... : --- .. . ... : ... .. . ... : ... .. . ... : ... .. . ... : ... .. . ... : ... .. . ...
ROW 78 : B-1 0B . ... : ... .. . ... : B-2 00 . ... : 3-# 03 A ... : ... .. . ... : G-3 09 . ... : ... .. . ... : D-4 07 . ...
ROW 79 : --- .. . ... : ... .. . ... : --- .. . ... : 1-# 03 1 ... : ... .. . ... : ... .. . ... : ... .. . ... : ... .. . ...
ROW 7A : B-0 0B . ... : ... .. . ... : B-1 00 . ... : 1-# 03 2 ... : ... .. . ... : D-3 09 . ... : ... .. . ... : ... .. . ...
ROW 7B : --- .. . ... : ... .. . ... : --- .. . ... : 1-# 03 3 ... : ... .. . ... : ... .. . ... : ... .. . ... : ... .. . ...
ROW 7C : B-0 0B . ... : G-1 06 . ... : B-1 00 . ... : 1-# 03 4 ... : ... .. . ... : B-2 09 . ... : D-3 07 . ... : ... .. . ...
ROW 7D : --- .. . ... : ... .. . ... : --- .. . ... : 1-# 03 5 ... : ... .. . ... : ... .. . ... : ... .. . ... : ... .. . ...
ROW 7E : B-0 0B . ... : ... .. . ... : B-1 00 . ... : 1-# 03 6 ... : ... .. . ... : G-2 09 . ... : ... .. . ... : ... .. . ...
ROW 7F : --- .. . ... : ... .. . ... : --- .. . ... : 1-# 03 7 ... : ... .. . ... : ... .. . ... : ... .. . ... : ... .. . ...

PATTERN 0D
ROW 00 : C-1 0B C ... : D#2 06 F ... : C-2 00 . ... : F-# 02 8 ... : ... .. . ... : C-4 09 C ... : ... .. . ... : D#4 07 F ...
ROW 01 : --- .. . ... : ... .. . ... : --- .. . ... : ... .. . ... : ... .. . ... : ... .. . ... : ... .. . ... : ... .. . ...
ROW 02 : C-1 0B . ... : ... .. . ... : C-2 00 . ... : F-# 02 2 ... : ... .. . ... : G-3 09 . ... : C-4 09 4 ... : ... .. . ...
ROW 03 : --- .. . ... : ... .. . ... : --- .. . ... : F-# 02 4 ... : ... .. . ... : ... .. . ... : ... .. . ... : ... .. . ...
ROW 04 : C-1 0B . ... : ... .. . ... : C-2 00 . ... : F-# 02 6 ... : ... .. . ... : D#3 09 . ... : G-3 09 . ... : ... .. . ...
ROW 05 : --- .. . ... : ... .. . ... : --- .. . ... : ... .. . ... : ... .. . ... : ... .. . ... : ... .. . ... : ... .. . ...
ROW 06 : C-1 0B . ... : ... .. . ... : C-2 00 . ... : F-# 02 8 ... : ... .. . ... : C-3 09 . ... : D#3 09 . ... : ... .. . ...
ROW 07 : --- .. . ... : ... .. . ... : --- .. . ... : ... .. . ... : ... .. . ... : ... .. . ... : ... .. . ... : ... .. . ...
ROW 08 : C-2 0B . ... : ... .. . ... : C-3 00 . ... : 3-# 03 A ... : ... .. . ... : G-3 09 . ... : C-3 09 . ... : ... .. . ...
ROW 09 : --- .. . ... : ... .. . ... : --- .. . ... : ... .. . ... : ... .. . ... : ... .. . ... : ... .. . ... : ... .. . ...
ROW 0A : C-1 0B . ... : ... .. . ... : C-2 00 . ... : ... .. . ... : ... .. . ... : D#3 09 . ... : G-3 09 . ... : ... .. . ...
ROW 0B : --- .. . ... : ... .. . ... : --- .. . ... : C-# 03 3 ... : ... .. . ... : ... .. . ... : ... .. . ... : ... .. . ...
ROW 0C : C-1 0B . ... : ... .. . ... : C-2 00 . ... : D-# 03 8 ... : ... .. . ... : C-3 09 . ... : D#3 09 . ... : ... .. . ...
ROW 0D : --- .. . ... : ... .. . ... : --- 00 . ... : ... .. . ... : ... .. . ... : ... .. . ... : ... .. . ... : ... .. . ...
ROW 0E : C-1 0B . ... : ... .. . ... : C-2 00 . ... : ... .. . ... : ... .. . ... : G-2 09 . ... : C-3 09 . ... : ... .. . ...
ROW 0F : --- .. . ... : ... .. . ... : --- .. . ... : ... .. . ... : ... .. . ... : ... .. . ... : ... .. . ... : ... .. . ...
ROW 10 : C-1 0B . ... : === .. . ... : C-2 00 . ... : F-# 02 8 ... : ... .. . ... : C-4 09 . ... : G-2 09 . ... : === .. . ...
ROW 11 : --- .. . ... : ... .. . ... : --- .. . ... : ... .. . ... : ... .. . ... : ... .. . ... : ... .. . ... : ... .. . ...
ROW 12 : C-1 0B . ... : ... .. . ... : C-2 00 . ... : F-# 02 2 ... : ... .. . ... : G-3 09 . ... : C-4 09 . ... : ... .. . ...
ROW 13 : --- .. . ... : ... .. . ... : --- .. . ... : F-# 02 4 ... : ... .. . ... : ... .. . ... : ... .. . ... : ... .. . ...
ROW 14 : C-1 0B . ... : D-2 06 . ... : C-2 00 . ... : F-# 02 6 ... : ... .. . ... : D#3 09 . ... : G-3 09 . ... : D-4 07 . ...
ROW 15 : --- .. . ... : ... .. . ... : --- .. . ... : ... .. . ... : ... .. . ... : ... .. . ... : ... .. . ... : ... .. . ...
ROW 16 : C-1 0B . ... : ... .. . ... : C-2 00 . ... : F-# 02 8 ... : ... .. . ... : C-3 09 . ... : D#3 09 . ... : ... .. . ...
ROW 17 : --- .. . ... : ... .. . ... : --- .. . ... : ... .. . ... : ... .. . ... : ... .. . ... : ... .. . ... : ... .. . ...
ROW 18 : C-2 0B . ... : D#2 06 . ... : C-3 00 . ... : 3-# 03 A ... : ... .. . ... : G-3 09 . ... : C-3 09 . ... : D#4 07 . ...
ROW 19 : --- .. . ... : ... .. . ... : --- .. . ... : ... .. . ... : ... .. . ... : ... .. . ... : ... .. . ... : ... .. . ...
ROW 1A : C-1 0B . ... : F-2 06 . ... : C-2 00 . ... : ... .. . ... : ... .. . ... : D#3 09 . ... : G-3 09 . ... : F-4 07 . ...
ROW 1B : --- .. . ... : ... .. . ... : --- .. . ... : ... .. . ... : ... .. . ... : ... .. . ... : ... .. . ... : ... .. . ...
ROW 1C : C-1 0B . ... : ... .. . ... : C-2 00 . ... : ... .. . ... : ... .. . ... : C-3 09 . ... : D#3 09 . ... : ... .. . ...
ROW 1D : --- .. . ... : ... .. . ... : --- .. . ... : ... .. . ... : ... .. . ... : ... .. . ... : ... .. . ... : ... .. . ...
ROW 1E : C-1 0B . ... : ... .. . ... : C-2 00 . ... : ... .. . ... : ... .. . ... : G-2 09 . ... : C-3 09 . ... : ... .. . ...
ROW 1F : --- .. . ... : ... .. . ... : --- .. . ... : ... .. . ... : ... .. . ... : ... .. . ... : ... .. . ... : ... .. . ...
ROW 20 : C-1 0B . ... : G-2 06 . ... : C-2 00 . ... : F-# 02 8 ... : ... .. . ... : C-4 09 . ... : G-2 09 . ... : G-4 07 . ...
ROW 21 : --- .. . ... : ... .. . ... : --- .. . ... : ... .. . ... : ... .. . ... : ... .. . ... : ... .. . ... : ... .. . ...
ROW 22 : C-1 0B . ... : ... .. . ... : C-2 00 . ... : F-# 02 2 ... : ... .. . ... : G-3 09 . ... : C-4 09 . ... : ... .. . ...
ROW 23 : --- .. . ... : ... .. . ... : --- .. . ... : F-# 02 4 ... : ... .. . ... : ... .. . ... : ... .. . ... : ... .. . ...
ROW 24 : C-1 0B . ... : ... .. . ... : C-2 00 . ... : F-# 02 6 ... : ... .. . ... : D#3 09 . ... : G-3 09 . ... : ... .. . ...
ROW 25 : --- .. . ... : ... .. . ... : --- .. . ... : ... .. . ... : ... .. . ... : ... .. . ... : ... .. . ... : ... .. . ...
ROW 26 : C-1 0B . ... : ... .. . ... : C-2 00 . ... : F-# 02 8 ... : ... .. . ... : C-3 09 . ... : D#3 09 . ... : ... .. . ...
ROW 27 : --- .. . ... : ... .. . ... : --- .. . ... : ... .. . ... : ... .. . ... : ... .. . ... : ... .. . ... : ... .. . ...
ROW 28 : C-2 0B . ... : D#2 06 . ... : C-3 00 . ... : 3-# 03 A ... : ... .. . ... : G-3 09 . ... : C-3 09 . ... : D#4 07 . ...
ROW 29 : --- .. . ... : ... .. . ... : --- .. . ... : ... .. . ... : ... .. . ... : ... .. . ... : ... .. . ... : ... .. . ...
ROW 2A : C-1 0B . ... : ... .. . ... : C-2 00 . ... : ... .. . ... : ... .. . ... : D#3 09 . ... : G-3 09 . ... : ... .. . ...
ROW 2B : --- .. . ... : ... .. . ... : --- .. . ... : C-# 03 3 ... : ... .. . ... : ... .. . ... : ... .. . ... : ... .. . ...
ROW 2C : C-1 0B . ... : ... .. . ... : C-2 00 . ... : D-# 03 8 ... : ... .. . ... : C-3 09 . ... : D#3 09 . ... : ... .. . ...
ROW 2D : --- .. . ... : ... .. . ... : --- .. . ... : ... .. . ... : ... .. . ... : ... .. . ... : ... .. . ... : ... .. . ...
ROW 2E : C-1 0B . ... : ... .. . ... : C-2 00 . ... : ... .. . ... : ... .. . ... : G-2 09 . ... : C-3 09 . ... : ... .. . ...
ROW 2F : --- .. . ... : ... .. . ... : --- .. . ... : ... .. . ... : ... .. . ... : ... .. . ... : ... .. . ... : ... .. . ...
ROW 30 : C-1 0B . ... : ... .. . ... : C-2 00 . ... : F-# 02 8 ... : ... .. . ... : C-4 09 . ... : G-2 09 . ... : ... .. . ...
ROW 31 : --- .. . ... : ... .. . ... : --- .. . ... : ... .. . ... : ... .. . ... : ... .. . ... : ... .. . ... : ... .. . ...
ROW 32 : C-1 0B . ... : ... .. . ... : C-2 00 . ... : F-# 02 2 ... : ... .. . ... : G-3 09 . ... : C-4 09 . ... : ... .. . ...
ROW 33 : --- .. . ... : ... .. . ... : --- .. . ... : F-# 02 4 ... : ... .. . ... : ... .. . ... : ... .. . ... : ... .. . ...
ROW 34 : C-1 0B . ... : === .. . ... : C-2 00 . ... : F-# 02 6 ... : ... .. . ... : D#3 09 . ... : G-3 09 . ... : === .. . ...
ROW 35 : --- .. . ... : ... .. . ... : --- .. . ... : ... .. . ... : ... .. . ... : ... .. . ... : ... .. . ... : ... .. . ...
ROW 36 : C-1 0B . ... : ... .. . ... : C-2 00 . ... : F-# 02 8 ... : ... .. . ... : C-3 09 . ... : D#3 09 . ... : ... .. . ...
ROW 37 : --- .. . ... : ... .. . ... : --- .. . ... : ... .. . ... : ... .. . ... : ... .. . ... : ... .. . ... : ... .. . ...
ROW 38 : C-2 0B . ... : D-2 06 . ... : C-3 00 . ... : 3-# 03 A ... : ... .. . ... : G-3 09 . ... : C-3 09 . ... : D-4 07 . ...
ROW 39 : --- .. . ... : ... .. . ... : --- .. . ... : 1-# 03 1 ... : ... .. . ... : ... .. . ... : ... .. . ... : ... .. . ...
ROW 3A : C-1 0B . ... : ... .. . ... : C-2 00 . ... : 1-# 03 2 ... : ... .. . ... : D#3 09 . ... : G-3 09 . ... : ... .. . ...
ROW 3B : --- .. . ... : ... .. . ... : --- .. . ... : 1-# 03 3 ... : ... .. . ... : ... .. . ... : ... .. . ... : ... .. . ...
ROW 3C : C-1 0B . ... : D#2 06 . ... : C-2 00 . ... : 1-# 03 4 ... : ... .. . ... : C-3 09 . ... : D#3 09 . ... : D#4 07 . ...
ROW 3D : --- .. . ... : ... .. . ... : --- .. . ... : 1-# 03 5 ... : ... .. . ... : ... .. . ... : ... .. . ... : ... .. . ...
ROW 3E : C-1 0B . ... : ... .. . ... : C-2 00 . ... : 1-# 03 6 ... : ... .. . ... : G-2 09 . ... : C-3 09 . ... : ... .. . ...
ROW 3F : --- .. . ... : ... .. . ... : --- .. . ... : 1-# 03 7 ... : ... .. . ... : ... .. . ... : ... .. . ... : ... .. . ...
ROW 40 : F-1 0B . ... : F-2 06 . ... : F-2 00 . ... : F-# 02 8 ... : ... .. . ... : C-4 09 . ... : G-2 09 . ... : F-4 07 . ...
ROW 41 : --- .. . ... : ... .. . ... : --- .. . ... : ... .. . ... : ... .. . ... : ... .. . ... : ... .. . ... : ... .. . ...
ROW 42 : F-1 0B . ... : ... .. . ... : F-2 00 . ... : F-# 02 2 ... : ... .. . ... : G#3 09 . ... : C-4 09 . ... : ... .. . ...
ROW 43 : --- .. . ... : ... .. . ... : --- .. . ... : F-# 02 4 ... : ... .. . ... : ... .. . ... : ... .. . ... : ... .. . ...
ROW 44 : F-1 0B . ... : ... .. . ... : F-2 00 . ... : F-# 02 6 ... : ... .. . ... : F-3 09 . ... : G#3 09 . ... : ... .. . ...
ROW 45 : --- .. . ... : ... .. . ... : --- .. . ... : ... .. . ... : ... .. . ... : ... .. . ... : ... .. . ... : ... .. . ...
ROW 46 : F-1 0B . ... : ... .. . ... : F-2 00 . ... : F-# 02 8 ... : ... .. . ... : C-3 09 . ... : F-3 09 . ... : ... .. . ...
ROW 47 : --- .. . ... : ... .. . ... : --- .. . ... : ... .. . ... : ... .. . ... : ... .. . ... : ... .. . ... : ... .. . ...
ROW 48 : F-2 0B . ... : ... .. . ... : F-3 00 . ... : 3-# 03 A ... : ... .. . ... : G#3 09 . ... : C-3 09 . ... : ... .. . ...
ROW 49 : --- .. . ... : ... .. . ... : --- .. . ... : ... .. . ... : ... .. . ... : ... .. . ... : ... .. . ... : ... .. . ...
ROW 4A : F-1 0B . ... : ... .. . ... : F-2 00 . ... : ... .. . ... : ... .. . ... : F-3 09 . ... : G#3 09 . ... : ... .. . ...
ROW 4B : --- .. . ... : ... .. . ... : --- .. . ... : C-# 03 3 ... : ... .. . ... : ... .. . ... : ... .. . ... : ... .. . ...
ROW 4C : F-1 0B . ... : ... .. . ... : F-2 00 . ... : D-# 03 8 ... : ... .. . ... : C-3 09 . ... : F-3 09 . ... : ... .. . ...
ROW 4D : --- .. . ... : ... .. . ... : --- .. . ... : ... .. . ... : ... .. . ... : ... .. . ... : ... .. . ... : ... .. . ...
ROW 4E : F-1 0B . ... : ... .. . ... : F-2 00 . ... : ... .. . ... : ... .. . ... : G#2 09 . ... : C-3 09 . ... : ... .. . ...
ROW 4F : --- .. . ... : ... .. . ... : --- .. . ... : ... .. . ... : ... .. . ... : ... .. . ... : ... .. . ... : ... .. . ...
ROW 50 : F-1 0B . ... : === .. . ... : F-2 00 . ... : F-# 02 8 ... : ... .. . ... : C-4 09 . ... : G#2 09 . ... : === .. . ...
ROW 51 : --- .. . ... : ... .. . ... : --- .. . ... : ... .. . ... : ... .. . ... : ... .. . ... : ... .. . ... : ... .. . ...
ROW 52 : F-1 0B . ... : ... .. . ... : F-2 00 . ... : F-# 02 2 ... : ... .. . ... : G#3 09 . ... : C-4 09 . ... : ... .. . ...
ROW 53 : --- .. . ... : ... .. . ... : --- .. . ... : F-# 02 4 ... : ... .. . ... : ... .. . ... : ... .. . ... : ... .. . ...
ROW 54 : F-1 0B . ... : D#2 06 . ... : F-2 00 . ... : F-# 02 6 ... : ... .. . ... : F-3 09 . ... : G#3 09 . ... : D#4 07 . ...
ROW 55 : --- .. . ... : ... .. . ... : --- .. . ... : ... .. . ... : ... .. . ... : ... .. . ... : ... .. . ... : ... .. . ...
ROW 56 : F-1 0B . ... : ... .. . ... : F-2 00 . ... : F-# 02 8 ... : ... .. . ... : C-3 09 . ... : F-3 09 . ... : ... .. . ...
ROW 57 : --- .. . ... : ... .. . ... : --- .. . ... : ... .. . ... : ... .. . ... : ... .. . ... : ... .. . ... : ... .. . ...
ROW 58 : F-2 0B . ... : F-2 06 . ... : F-3 00 . ... : 3-# 03 A ... : ... .. . ... : G#3 09 . ... : C-3 09 . ... : F-4 07 . ...
ROW 59 : --- .. . ... : ... .. . ... : --- .. . ... : ... .. . ... : ... .. . ... : ... .. . ... : ... .. . ... : ... .. . ...
ROW 5A : F-1 0B . ... : G-2 06 . ... : F-2 00 . ... : ... .. . ... : ... .. . ... : F-3 09 . ... : G#3 09 . ... : G-4 07 . ...
ROW 5B : --- .. . ... : ... .. . ... : --- .. . ... : ... .. . ... : ... .. . ... : ... .. . ... : ... .. . ... : ... .. . ...
ROW 5C : F-1 0B . ... : ... .. . ... : F-2 00 . ... : ... .. . ... : ... .. . ... : C-3 09 . ... : F-3 09 . ... : ... .. . ...
ROW 5D : --- .. . ... : ... .. . ... : --- .. . ... : ... .. . ... : ... .. . ... : ... .. . ... : ... .. . ... : ... .. . ...
ROW 5E : F-1 0B . ... : ... .. . ... : F-2 00 . ... : ... .. . ... : ... .. . ... : G#2 09 . ... : C-3 09 . ... : ... .. . ...
ROW 5F : --- .. . ... : ... .. . ... : --- .. . ... : ... .. . ... : ... .. . ... : ... .. . ... : ... .. . ... : ... .. . ...
ROW 60 : D-1 0B . ... : G#2 06 . ... : D-2 00 . ... : F-# 02 8 ... : ... .. . ... : D-4 09 . ... : G#2 09 . ... : G#4 07 . ...
ROW 61 : --- .. . ... : ... .. . ... : --- .. . ... : ... .. . ... : ... .. . ... : ... .. . ... : ... .. . ... : ... .. . ...
ROW 62 : D-1 0B . ... : ... .. . ... : D-2 00 . ... : F-# 02 2 ... : ... .. . ... : G-3 09 . ... : D-4 09 . ... : ... .. . ...
ROW 63 : --- .. . ... : ... .. . ... : --- .. . ... : F-# 02 4 ... : ... .. . ... : ... .. . ... : ... .. . ... : ... .. . ...
ROW 64 : D-1 0B . ... : ... .. . ... : D-2 00 . ... : F-# 02 6 ... : ... .. . ... : D-3 09 . ... : G-3 09 . ... : ... .. . ...
ROW 65 : --- .. . ... : ... .. . ... : --- .. . ... : ... .. . ... : ... .. . ... : ... .. . ... : ... .. . ... : ... .. . ...
ROW 66 : D-1 0B . ... : ... .. . ... : D-2 00 . ... : F-# 02 8 ... : ... .. . ... : B-2 09 . ... : D-3 09 . ... : ... .. . ...
ROW 67 : --- .. . ... : ... .. . ... : --- .. . ... : ... .. . ... : ... .. . ... : ... .. . ... : ... .. . ... : ... .. . ...
ROW 68 : D-2 0B . ... : F-2 06 . ... : D-3 00 . ... : 3-# 03 A ... : ... .. . ... : G-3 09 . ... : B-2 09 . ... : F-4 07 . ...
ROW 69 : --- .. . ... : ... .. . ... : --- .. . ... : ... .. . ... : ... .. . ... : ... .. . ... : ... .. . ... : ... .. . ...
ROW 6A : D-1 0B . ... : ... .. . ... : D-2 00 . ... : ... .. . ... : ... .. . ... : D-3 09 . ... : G-3 09 . ... : ... .. . ...
ROW 6B : --- .. . ... : ... .. . ... : --- .. . ... : C-# 03 3 ... : ... .. . ... : ... .. . ... : ... .. . ... : ... .. . ...
ROW 6C : D-1 0B . ... : ... .. . ... : D-2 00 . ... : D-# 03 8 ... : ... .. . ... : B-2 09 . ... : D-3 09 . ... : ... .. . ...
ROW 6D : --- .. . ... : ... .. . ... : --- .. . ... : ... .. . ... : ... .. . ... : ... .. . ... : ... .. . ... : ... .. . ...
ROW 6E : D-1 0B . ... : ... .. . ... : D-2 00 . ... : ... .. . ... : ... .. . ... : G-2 09 . ... : B-2 09 . ... : ... .. . ...
ROW 6F : --- .. . ... : ... .. . ... : --- .. . ... : ... .. . ... : ... .. . ... : ... .. . ... : ... .. . ... : ... .. . ...
ROW 70 : B-0 0B . ... : === .. . ... : B-1 00 . ... : F-# 02 8 ... : ... .. . ... : D-4 09 . ... : G-2 09 . ... : === .. . ...
ROW 71 : --- .. . ... : ... .. . ... : --- .. . ... : ... .. . ... : ... .. . ... : ... .. . ... : ... .. . ... : ... .. . ...
ROW 72 : B-0 0B . ... : ... .. . ... : B-1 00 . ... : F-# 02 2 ... : ... .. . ... : G-3 09 . ... : D-4 09 . ... : ... .. . ...
ROW 73 : --- .. . ... : ... .. . ... : --- .. . ... : F-# 02 4 ... : ... .. . ... : ... .. . ... : ... .. . ... : ... .. . ...
ROW 74 : B-0 0B . ... : F-2 06 . ... : B-1 00 . ... : F-# 02 6 ... : ... .. . ... : D-3 09 . ... : G-3 09 . ... : F-4 07 . ...
ROW 75 : --- .. . ... : ... .. . ... : --- .. . ... : ... .. . ... : ... .. . ... : ... .. . ... : ... .. . ... : ... .. . ...
ROW 76 : B-0 0B . ... : ... .. . ... : B-1 00 . ... : F-# 02 8 ... : ... .. . ... : B-2 09 . ... : D-3 09 . ... : ... .. . ...
ROW 77 : --- .. . ... : ... .. . ... : --- .. . ... : ... .. . ... : ... .. . ... : ... .. . ... : ... .. . ... : ... .. . ...
ROW 78 : B-1 0B . ... : ... .. . ... : B-2 00 . ... : 3-# 03 A ... : ... .. . ... : G-3 09 . ... : B-2 09 . ... : ... .. . ...
ROW 79 : --- .. . ... : ... .. . ... : --- .. . ... : 1-# 03 1 ... : ... .. . ... : ... .. . ... : ... .. . ... : ... .. . ...
ROW 7A : B-0 0B . ... : ... .. . ... : B-1 00 . ... : 1-# 03 2 ... : ... .. . ... : D-3 09 . ... : G-3 09 . ... : ... .. . ...
ROW 7B : --- .. . ... : ... .. . ... : --- .. . ... : 1-# 03 3 ... : ... .. . ... : ... .. . ... : ... .. . ... : ... .. . ...
ROW 7C : B-0 0B . ... : D-2 06 . ... : B-1 00 . ... : 1-# 03 4 ... : ... .. . ... : B-2 09 . ... : D-3 09 . ... : D-4 07 . ...
ROW 7D : --- .. . ... : ... .. . ... : --- .. . ... : 1-# 03 5 ... : ... .. . ... : ... .. . ... : ... .. . ... : ... .. . ...
ROW 7E : B-0 0B . ... : ... .. . ... : B-1 00 . ... : 1-# 03 6 ... : ... .. . ... : G-2 09 . ... : B-2 09 . ... : ... .. . ...
ROW 7F : --- .. . ... : ... .. . ... : --- .. . ... : 1-# 03 7 ... : ... .. . ... : ... .. . ... : ... .. . ... : ... .. . ...

PATTERN 0E
ROW 00 : C-1 0B C ... : G-2 0C F ... : C-2 00 . ... : F-# 02 8 ... : ... .. . ... : C-4 09 C ... : ... .. . ... : D#4 07 C ...
ROW 01 : --- .. . ... : ... .. . ... : --- .. . ... : ... .. . ... : ... .. . ... : ... .. . ... : ... .. . ... : ... .. . ...
ROW 02 : C-1 0B . ... : ... .. . ... : C-2 00 . ... : F-# 02 2 ... : ... .. . ... : G-3 09 . ... : C-4 09 4 ... : ... .. . ...
ROW 03 : --- .. . ... : ... .. . ... : --- .. . ... : F-# 02 4 ... : ... .. . ... : ... .. . ... : ... .. . ... : ... .. . ...
ROW 04 : C-1 0B . ... : ... .. . ... : C-2 00 . ... : F-# 02 6 ... : ... .. . ... : D#3 09 . ... : G-3 09 . ... : ... .. . ...
ROW 05 : --- .. . ... : ... .. . ... : --- .. . ... : ... .. . ... : ... .. . ... : ... .. . ... : ... .. . ... : ... .. . ...
ROW 06 : C-1 0B . ... : ... .. . ... : C-2 00 . ... : F-# 02 8 ... : ... .. . ... : C-3 09 . ... : D#3 09 . ... : ... .. . ...
ROW 07 : --- .. . ... : ... .. . ... : --- .. . ... : ... .. . ... : ... .. . ... : ... .. . ... : ... .. . ... : ... .. . ...
ROW 08 : C-2 0B . ... : F-2 0C . ... : C-3 00 . ... : 3-# 03 A ... : ... .. . ... : G-3 09 . ... : C-3 09 . ... : ... .. . ...
ROW 09 : --- .. . ... : ... .. . ... : --- .. . ... : ... .. . ... : ... .. . ... : ... .. . ... : ... .. . ... : ... .. . ...
ROW 0A : C-1 0B . ... : ... .. . ... : C-2 00 . ... : ... .. . ... : ... .. . ... : D#3 09 . ... : G-3 09 . ... : ... .. . ...
ROW 0B : --- .. . ... : ... .. . ... : --- .. . ... : C-# 03 3 ... : ... .. . ... : ... .. . ... : ... .. . ... : ... .. . ...
ROW 0C : C-1 0B . ... : D#2 0C . ... : C-2 00 . ... : D-# 03 8 ... : ... .. . ... : C-3 09 . ... : D#3 09 . ... : ... .. . ...
ROW 0D : --- .. . ... : ... .. . ... : --- 00 . ... : ... .. . ... : ... .. . ... : ... .. . ... : ... .. . ... : ... .. . ...
ROW 0E : C-1 0B . ... : ... .. . ... : C-2 00 . ... : ... .. . ... : ... .. . ... : G-2 09 . ... : C-3 09 . ... : ... .. . ...
ROW 0F : --- .. . ... : ... .. . ... : --- .. . ... : ... .. . ... : ... .. . ... : ... .. . ... : ... .. . ... : ... .. . ...
ROW 10 : C-1 0B . ... : D-2 0C . ... : C-2 00 . ... : F-# 02 8 ... : ... .. . ... : C-4 09 . ... : G-2 09 . ... : === .. . ...
ROW 11 : --- .. . ... : ... .. . ... : --- .. . ... : ... .. . ... : ... .. . ... : ... .. . ... : ... .. . ... : ... .. . ...
ROW 12 : C-1 0B . ... : ... .. . ... : C-2 00 . ... : F-# 02 2 ... : ... .. . ... : G-3 09 . ... : C-4 09 . ... : ... .. . ...
ROW 13 : --- .. . ... : ... .. . ... : --- .. . ... : F-# 02 4 ... : ... .. . ... : ... .. . ... : ... .. . ... : ... .. . ...
ROW 14 : C-1 0B . ... : ... .. . ... : C-2 00 . ... : F-# 02 6 ... : ... .. . ... : D#3 09 . ... : G-3 09 . ... : D-4 07 . ...
ROW 15 : --- .. . ... : ... .. . ... : --- .. . ... : ... .. . ... : ... .. . ... : ... .. . ... : ... .. . ... : ... .. . ...
ROW 16 : C-1 0B . ... : ... .. . ... : C-2 00 . ... : F-# 02 8 ... : ... .. . ... : C-3 09 . ... : D#3 09 . ... : ... .. . ...
ROW 17 : --- .. . ... : ... .. . ... : --- .. . ... : ... .. . ... : ... .. . ... : ... .. . ... : ... .. . ... : ... .. . ...
ROW 18 : C-2 0B . ... : D#2 0D . ... : C-3 00 . ... : 3-# 03 A ... : ... .. . ... : G-3 09 . ... : C-3 09 . ... : D#4 07 . ...
ROW 19 : --- .. . ... : D-2 0D . ... : --- .. . ... : ... .. . ... : ... .. . ... : ... .. . ... : ... .. . ... : ... .. . ...
ROW 1A : C-1 0B . ... : D#2 0D . ... : C-2 00 . ... : ... .. . ... : ... .. . ... : D#3 09 . ... : G-3 09 . ... : F-4 07 . ...
ROW 1B : --- .. . ... : D-2 0D . ... : --- .. . ... : ... .. . ... : ... .. . ... : ... .. . ... : ... .. . ... : ... .. . ...
ROW 1C : C-1 0B . ... : D#2 0D . ... : C-2 00 . ... : ... .. . ... : ... .. . ... : C-3 09 . ... : D#3 09 . ... : ... .. . ...
ROW 1D : --- .. . ... : D-2 0D . ... : --- .. . ... : ... .. . ... : ... .. . ... : ... .. . ... : ... .. . ... : ... .. . ...
ROW 1E : C-1 0B . ... : D#2 0D . ... : C-2 00 . ... : ... .. . ... : ... .. . ... : G-2 09 . ... : C-3 09 . ... : ... .. . ...
ROW 1F : --- .. . ... : D-2 0D . ... : --- .. . ... : ... .. . ... : ... .. . ... : ... .. . ... : ... .. . ... : ... .. . ...
ROW 20 : C-1 0B . ... : D#2 0C . ... : C-2 00 . ... : F-# 02 8 ... : ... .. . ... : C-4 09 . ... : G-2 09 . ... : G-4 07 . ...
ROW 21 : --- .. . ... : ... .. . ... : --- .. . ... : ... .. . ... : ... .. . ... : ... .. . ... : ... .. . ... : ... .. . ...
ROW 22 : C-1 0B . ... : ... .. . ... : C-2 00 . ... : F-# 02 2 ... : ... .. . ... : G-3 09 . ... : C-4 09 . ... : ... .. . ...
ROW 23 : --- .. . ... : ... .. . ... : --- .. . ... : F-# 02 4 ... : ... .. . ... : ... .. . ... : ... .. . ... : ... .. . ...
ROW 24 : C-1 0B . ... : ... .. . ... : C-2 00 . ... : F-# 02 6 ... : ... .. . ... : D#3 09 . ... : G-3 09 . ... : ... .. . ...
ROW 25 : --- .. . ... : ... .. . ... : --- .. . ... : ... .. . ... : ... .. . ... : ... .. . ... : ... .. . ... : ... .. . ...
ROW 26 : C-1 0B . ... : ... .. . ... : C-2 00 . ... : F-# 02 8 ... : ... .. . ... : C-3 09 . ... : D#3 09 . ... : ... .. . ...
ROW 27 : --- .. . ... : ... .. . ... : --- .. . ... : ... .. . ... : ... .. . ... : ... .. . ... : ... .. . ... : ... .. . ...
ROW 28 : C-2 0B . ... : ... .. . ... : C-3 00 . ... : 3-# 03 A ... : ... .. . ... : G-3 09 . ... : C-3 09 . ... : D#4 07 . ...
ROW 29 : --- .. . ... : ... .. . ... : --- .. . ... : ... .. . ... : ... .. . ... : ... .. . ... : ... .. . ... : ... .. . ...
ROW 2A : C-1 0B . ... : ... .. . ... : C-2 00 . ... : ... .. . ... : ... .. . ... : D#3 09 . ... : G-3 09 . ... : ... .. . ...
ROW 2B : --- .. . ... : ... .. . ... : --- .. . ... : C-# 03 3 ... : ... .. . ... : ... .. . ... : ... .. . ... : ... .. . ...
ROW 2C : C-1 0B . ... : C-2 0C . ... : C-2 00 . ... : D-# 03 8 ... : ... .. . ... : C-3 09 . ... : D#3 09 . ... : ... .. . ...
ROW 2D : --- .. . ... : ... .. . ... : --- .. . ... : ... .. . ... : ... .. . ... : ... .. . ... : ... .. . ... : ... .. . ...
ROW 2E : C-1 0B . ... : ... .. . ... : C-2 00 . ... : ... .. . ... : ... .. . ... : G-2 09 . ... : C-3 09 . ... : ... .. . ...
ROW 2F : --- .. . ... : ... .. . ... : --- .. . ... : ... .. . ... : ... .. . ... : ... .. . ... : ... .. . ... : ... .. . ...
ROW 30 : C-1 0B . ... : C-2 0C . ... : C-2 00 . ... : F-# 02 8 ... : ... .. . ... : C-4 09 . ... : G-2 09 . ... : ... .. . ...
ROW 31 : --- .. . ... : ... .. . ... : --- .. . ... : ... .. . ... : ... .. . ... : ... .. . ... : ... .. . ... : ... .. . ...
ROW 32 : C-1 0B . ... : ... .. . ... : C-2 00 . ... : F-# 02 2 ... : ... .. . ... : G-3 09 . ... : C-4 09 . ... : ... .. . ...
ROW 33 : --- .. . ... : ... .. . ... : --- .. . ... : F-# 02 4 ... : ... .. . ... : ... .. . ... : ... .. . ... : ... .. . ...
ROW 34 : C-1 0B . ... : ... .. . ... : C-2 00 . ... : F-# 02 6 ... : ... .. . ... : D#3 09 . ... : G-3 09 . ... : === .. . ...
ROW 35 : --- .. . ... : ... .. . ... : --- .. . ... : ... .. . ... : ... .. . ... : ... .. . ... : ... .. . ... : ... .. . ...
ROW 36 : C-1 0B . ... : ... .. . ... : C-2 00 . ... : F-# 02 8 ... : ... .. . ... : C-3 09 . ... : D#3 09 . ... : ... .. . ...
ROW 37 : --- .. . ... : ... .. . ... : --- .. . ... : ... .. . ... : ... .. . ... : ... .. . ... : ... .. . ... : ... .. . ...
ROW 38 : C-2 0B . ... : ... .. . ... : C-3 00 . ... : 3-# 03 A ... : ... .. . ... : G-3 09 . ... : C-3 09 . ... : D-4 07 . ...
ROW 39 : --- .. . ... : ... .. . ... : --- .. . ... : 1-# 03 1 ... : ... .. . ... : ... .. . ... : ... .. . ... : ... .. . ...
ROW 3A : C-1 0B . ... : ... .. . ... : C-2 00 . ... : 1-# 03 2 ... : ... .. . ... : D#3 09 . ... : G-3 09 . ... : ... .. . ...
ROW 3B : --- .. . ... : ... .. . ... : --- .. . ... : 1-# 03 3 ... : ... .. . ... : ... .. . ... : ... .. . ... : ... .. . ...
ROW 3C : C-1 0B . ... : === 04 . ... : C-2 00 . ... : 1-# 03 4 ... : ... .. . ... : C-3 09 . ... : D#3 09 . ... : D#4 07 . ...
ROW 3D : --- .. . ... : ... .. . ... : --- .. . ... : 1-# 03 5 ... : ... .. . ... : ... .. . ... : ... .. . ... : ... .. . ...
ROW 3E : C-1 0B . ... : ... .. . ... : C-2 00 . ... : 1-# 03 6 ... : ... .. . ... : G-2 09 . ... : C-3 09 . ... : ... .. . ...
ROW 3F : --- .. . ... : ... .. . ... : --- .. . ... : 1-# 03 7 ... : ... .. . ... : ... .. . ... : ... .. . ... : ... .. . ...
ROW 40 : F-1 0B . ... : F-2 0C . ... : F-2 00 . ... : F-# 02 8 ... : ... .. . ... : C-4 09 . ... : G-2 09 . ... : F-4 07 . ...
ROW 41 : --- .. . ... : ... .. . ... : --- .. . ... : ... .. . ... : ... .. . ... : ... .. . ... : ... .. . ... : ... .. . ...
ROW 42 : F-1 0B . ... : ... .. . ... : F-2 00 . ... : F-# 02 2 ... : ... .. . ... : G#3 09 . ... : C-4 09 . ... : ... .. . ...
ROW 43 : --- .. . ... : ... .. . ... : --- .. . ... : F-# 02 4 ... : ... .. . ... : ... .. . ... : ... .. . ... : ... .. . ...
ROW 44 : F-1 0B . ... : ... .. . ... : F-2 00 . ... : F-# 02 6 ... : ... .. . ... : F-3 09 . ... : G#3 09 . ... : ... .. . ...
ROW 45 : --- .. . ... : ... .. . ... : --- .. . ... : ... .. . ... : ... .. . ... : ... .. . ... : ... .. . ... : ... .. . ...
ROW 46 : F-1 0B . ... : ... .. . ... : F-2 00 . ... : F-# 02 8 ... : ... .. . ... : C-3 09 . ... : F-3 09 . ... : ... .. . ...
ROW 47 : --- .. . ... : ... .. . ... : --- .. . ... : ... .. . ... : ... .. . ... : ... .. . ... : ... .. . ... : ... .. . ...
ROW 48 : F-2 0B . ... : F-2 0C . ... : F-3 00 . ... : 3-# 03 A ... : ... .. . ... : G#3 09 . ... : C-3 09 . ... : ... .. . ...
ROW 49 : --- .. . ... : ... .. . ... : --- .. . ... : ... .. . ... : ... .. . ... : ... .. . ... : ... .. . ... : ... .. . ...
ROW 4A : F-1 0B . ... : ... .. . ... : F-2 00 . ... : ... .. . ... : ... .. . ... : F-3 09 . ... : G#3 09 . ... : ... .. . ...
ROW 4B : --- .. . ... : ... .. . ... : --- .. . ... : C-# 03 3 ... : ... .. . ... : ... .. . ... : ... .. . ... : ... .. . ...
ROW 4C : F-1 0B . ... : G-2 0C . ... : F-2 00 . ... : D-# 03 8 ... : ... .. . ... : C-3 09 . ... : F-3 09 . ... : ... .. . ...
ROW 4D : --- .. . ... : ... .. . ... : --- .. . ... : ... .. . ... : ... .. . ... : ... .. . ... : ... .. . ... : ... .. . ...
ROW 4E : F-1 0B . ... : ... .. . ... : F-2 00 . ... : ... .. . ... : ... .. . ... : G#2 09 . ... : C-3 09 . ... : ... .. . ...
ROW 4F : --- .. . ... : ... .. . ... : --- .. . ... : ... .. . ... : ... .. . ... : ... .. . ... : ... .. . ... : ... .. . ...
ROW 50 : F-1 0B . ... : G#2 0C . ... : F-2 00 . ... : F-# 02 8 ... : ... .. . ... : C-4 09 . ... : G#2 09 . ... : === .. . ...
ROW 51 : --- .. . ... : ... .. . ... : --- .. . ... : ... .. . ... : ... .. . ... : ... .. . ... : ... .. . ... : ... .. . ...
ROW 52 : F-1 0B . ... : ... .. . ... : F-2 00 . ... : F-# 02 2 ... : ... .. . ... : G#3 09 . ... : C-4 09 . ... : ... .. . ...
ROW 53 : --- .. . ... : ... .. . ... : --- .. . ... : F-# 02 4 ... : ... .. . ... : ... .. . ... : ... .. . ... : ... .. . ...
ROW 54 : F-1 0B . ... : G-2 0C . ... : F-2 00 . ... : F-# 02 6 ... : ... .. . ... : F-3 09 . ... : G#3 09 . ... : C-4 07 . ...
ROW 55 : --- .. . ... : ... .. . ... : --- .. . ... : ... .. . ... : ... .. . ... : ... .. . ... : ... .. . ... : ... .. . ...
ROW 56 : F-1 0B . ... : F-2 0C . ... : F-2 00 . ... : F-# 02 8 ... : ... .. . ... : C-3 09 . ... : F-3 09 . ... : ... .. . ...
ROW 57 : --- .. . ... : ... .. . ... : --- .. . ... : ... .. . ... : ... .. . ... : ... .. . ... : ... .. . ... : ... .. . ...
ROW 58 : F-2 0B . ... : ... .. . ... : F-3 00 . ... : 3-# 03 A ... : ... .. . ... : G#3 09 . ... : C-3 09 . ... : D-4 07 . ...
ROW 59 : --- .. . ... : ... .. . ... : --- .. . ... : ... .. . ... : ... .. . ... : ... .. . ... : ... .. . ... : ... .. . ...
ROW 5A : F-1 0B . ... : ... .. . ... : F-2 00 . ... : ... .. . ... : ... .. . ... : F-3 09 . ... : G#3 09 . ... : ... .. . ...
ROW 5B : --- .. . ... : ... .. . ... : --- .. . ... : ... .. . ... : ... .. . ... : ... .. . ... : ... .. . ... : ... .. . ...
ROW 5C : F-1 0B . ... : G#2 0C . ... : F-2 00 . ... : ... .. . ... : ... .. . ... : C-3 09 . ... : F-3 09 . ... : D#4 07 . ...
ROW 5D : --- .. . ... : ... .. . ... : --- .. . ... : ... .. . ... : ... .. . ... : ... .. . ... : ... .. . ... : ... .. . ...
ROW 5E : F-1 0B . ... : F-2 0C . ... : F-2 00 . ... : ... .. . ... : ... .. . ... : G#2 09 . ... : C-3 09 . ... : ... .. . ...
ROW 5F : --- .. . ... : ... .. . ... : --- .. . ... : ... .. . ... : ... .. . ... : ... .. . ... : ... .. . ... : ... .. . ...
ROW 60 : D-1 0B . ... : D#2 0C . ... : D-2 00 . ... : F-# 02 8 ... : ... .. . ... : D-4 09 . ... : G#2 09 . ... : D-4 07 . ...
ROW 61 : --- .. . ... : ... .. . ... : --- .. . ... : ... .. . ... : ... .. . ... : ... .. . ... : ... .. . ... : ... .. . ...
ROW 62 : D-1 0B . ... : ... .. . ... : D-2 00 . ... : F-# 02 2 ... : ... .. . ... : G-3 09 . ... : D-4 09 . ... : ... .. . ...
ROW 63 : --- .. . ... : ... .. . ... : --- .. . ... : F-# 02 4 ... : ... .. . ... : ... .. . ... : ... .. . ... : ... .. . ...
ROW 64 : D-1 0B . ... : ... .. . ... : D-2 00 . ... : F-# 02 6 ... : ... .. . ... : D-3 09 . ... : G-3 09 . ... : ... .. . ...
ROW 65 : --- .. . ... : ... .. . ... : --- .. . ... : ... .. . ... : ... .. . ... : ... .. . ... : ... .. . ... : ... .. . ...
ROW 66 : D-1 0B . ... : ... .. . ... : D-2 00 . ... : F-# 02 8 ... : ... .. . ... : B-2 09 . ... : D-3 09 . ... : ... .. . ...
ROW 67 : --- .. . ... : ... .. . ... : --- .. . ... : ... .. . ... : ... .. . ... : ... .. . ... : ... .. . ... : ... .. . ...
ROW 68 : D-2 0B . ... : ... .. . ... : D-3 00 . ... : 3-# 03 A ... : ... .. . ... : G-3 09 . ... : B-2 09 . ... : ... .. . ...
ROW 69 : --- .. . ... : ... .. . ... : --- .. . ... : ... .. . ... : ... .. . ... : ... .. . ... : ... .. . ... : ... .. . ...
ROW 6A : D-1 0B . ... : ... .. . ... : D-2 00 . ... : ... .. . ... : ... .. . ... : D-3 09 . ... : G-3 09 . ... : ... .. . ...
ROW 6B : --- .. . ... : ... .. . ... : --- .. . ... : C-# 03 3 ... : ... .. . ... : ... .. . ... : ... .. . ... : ... .. . ...
ROW 6C : D-1 0B . ... : D#2 0C . ... : D-2 00 . ... : D-# 03 8 ... : ... .. . ... : B-2 09 . ... : D-3 09 . ... : ... .. . ...
ROW 6D : --- .. . ... : ... .. . ... : --- .. . ... : ... .. . ... : ... .. . ... : ... .. . ... : ... .. . ... : ... .. . ...
ROW 6E : D-1 0B . ... : D-2 0C . ... : D-2 00 . ... : ... .. . ... : ... .. . ... : G-2 09 . ... : B-2 09 . ... : ... .. . ...
ROW 6F : --- .. . ... : ... .. . ... : --- .. . ... : ... .. . ... : ... .. . ... : ... .. . ... : ... .. . ... : ... .. . ...
ROW 70 : B-0 0B . ... : D#2 0C . ... : B-1 00 . ... : F-# 02 8 ... : ... .. . ... : D-4 09 . ... : G-2 09 . ... : === .. . ...
ROW 71 : --- .. . ... : ... .. . ... : --- .. . ... : ... .. . ... : ... .. . ... : ... .. . ... : ... .. . ... : ... .. . ...
ROW 72 : B-0 0B . ... : ... .. . ... : B-1 00 . ... : F-# 02 2 ... : ... .. . ... : G-3 09 . ... : D-4 09 . ... : ... .. . ...
ROW 73 : --- .. . ... : ... .. . ... : --- .. . ... : F-# 02 4 ... : ... .. . ... : ... .. . ... : ... .. . ... : ... .. . ...
ROW 74 : B-0 0B . ... : ... .. . ... : B-1 00 . ... : F-# 02 6 ... : ... .. . ... : D-3 09 . ... : G-3 09 . ... : F-4 07 . ...
ROW 75 : --- .. . ... : ... .. . ... : --- .. . ... : ... .. . ... : ... .. . ... : ... .. . ... : ... .. . ... : ... .. . ...
ROW 76 : B-0 0B . ... : ... .. . ... : B-1 00 . ... : F-# 02 8 ... : ... .. . ... : B-2 09 . ... : D-3 09 . ... : ... .. . ...
ROW 77 : --- .. . ... : ... .. . ... : --- .. . ... : ... .. . ... : ... .. . ... : ... .. . ... : ... .. . ... : ... .. . ...
ROW 78 : B-1 0B . ... : F-2 0C . ... : B-2 00 . ... : 3-# 03 A ... : ... .. . ... : G-3 09 . ... : B-2 09 . ... : ... .. . ...
ROW 79 : --- .. . ... : ... .. . ... : --- .. . ... : 1-# 03 1 ... : ... .. . ... : ... .. . ... : ... .. . ... : ... .. . ...
ROW 7A : B-0 0B . ... : ... .. . ... : B-1 00 . ... : 1-# 03 2 ... : ... .. . ... : D-3 09 . ... : G-3 09 . ... : ... .. . ...
ROW 7B : --- .. . ... : ... .. . ... : --- .. . ... : 1-# 03 3 ... : ... .. . ... : ... .. . ... : ... .. . ... : ... .. . ...
ROW 7C : B-0 0B . ... : D-2 0C . ... : B-1 00 . ... : 1-# 03 4 ... : ... .. . ... : B-2 09 . ... : D-3 09 . ... : D-4 07 . ...
ROW 7D : --- .. . ... : ... .. . ... : --- .. . ... : 1-# 03 5 ... : ... .. . ... : ... .. . ... : ... .. . ... : ... .. . ...
ROW 7E : B-0 0B . ... : ... .. . ... : B-1 00 . ... : 1-# 03 6 ... : ... .. . ... : G-2 09 . ... : B-2 09 . ... : ... .. . ...
ROW 7F : --- .. . ... : ... .. . ... : --- .. . ... : 1-# 03 7 ... : ... .. . ... : ... .. . ... : ... .. . ... : ... .. . ...

PATTERN 0F
ROW 00 : C-1 0B C ... : D#3 05 F ... : C-2 00 . ... : F-# 02 8 ... : ... .. . ... : C-4 09 C ... : C-3 04 . ... : D#4 07 C ...
ROW 01 : --- .. . ... : ... .. . ... : --- .. . ... : ... .. . ... : ... .. . ... : ... .. . ... : ... .. . ... : ... .. . ...
ROW 02 : C-1 0B . ... : ... .. . ... : C-2 00 . ... : F-# 02 2 ... : ... .. . ... : G-3 09 . ... : ... .. . ... : ... .. . ...
ROW 03 : --- .. . ... : ... .. . ... : --- .. . ... : F-# 02 4 ... : ... .. . ... : ... .. . ... : ... .. . ... : ... .. . ...
ROW 04 : C-1 0B . ... : ... .. . ... : C-2 00 . ... : F-# 02 6 ... : ... .. . ... : D#3 09 . ... : ... .. . ... : ... .. . ...
ROW 05 : --- .. . ... : ... .. . ... : --- .. . ... : ... .. . ... : ... .. . ... : ... .. . ... : ... .. . ... : ... .. . ...
ROW 06 : C-1 0B . ... : ... .. . ... : C-2 00 . ... : F-# 02 8 ... : ... .. . ... : C-3 09 . ... : ... .. . ... : ... .. . ...
ROW 07 : --- .. . ... : ... .. . ... : --- .. . ... : ... .. . ... : ... .. . ... : ... .. . ... : ... .. . ... : ... .. . ...
ROW 08 : C-2 0B . ... : D#2 05 . ... : C-3 00 . ... : 3-# 03 A ... : ... .. . ... : G-3 09 . ... : C-2 04 . ... : ... .. B ...
ROW 09 : --- .. . ... : ... .. . ... : --- .. . ... : ... .. . ... : ... .. . ... : ... .. . ... : ... .. . ... : ... .. . ...
ROW 0A : C-1 0B . ... : ... .. . ... : C-2 00 . ... : ... .. . ... : ... .. . ... : D#3 09 . ... : ... .. . ... : ... .. . ...
ROW 0B : --- .. . ... : ... .. . ... : --- .. . ... : C-# 03 3 ... : ... .. . ... : ... .. . ... : ... .. . ... : ... .. . ...
ROW 0C : C-1 0B . ... : ... .. . ... : C-2 00 . ... : D-# 03 8 ... : ... .. . ... : C-3 09 . ... : ... .. . ... : ... .. . ...
ROW 0D : --- .. . ... : ... .. . ... : --- 00 . ... : ... .. . ... : ... .. . ... : ... .. . ... : ... .. . ... : ... .. . ...
ROW 0E : C-1 0B . ... : ... .. . ... : C-2 00 . ... : ... .. . ... : ... .. . ... : G-2 09 . ... : ... .. . ... : ... .. . ...
ROW 0F : --- .. . ... : ... .. . ... : --- .. . ... : ... .. . ... : ... .. . ... : ... .. . ... : ... .. . ... : ... .. . ...
ROW 10 : C-1 0B . ... : D#3 05 . ... : C-2 00 . ... : F-# 02 8 ... : ... .. . ... : C-4 09 . ... : C-3 04 . ... : === .. A ...
ROW 11 : --- .. . ... : ... .. . ... : --- .. . ... : ... .. . ... : ... .. . ... : ... .. . ... : ... .. . ... : ... .. . ...
ROW 12 : C-1 0B . ... : ... .. . ... : C-2 00 . ... : F-# 02 2 ... : ... .. . ... : G-3 09 . ... : ... .. . ... : ... .. . ...
ROW 13 : --- .. . ... : ... .. . ... : --- .. . ... : F-# 02 4 ... : ... .. . ... : ... .. . ... : ... .. . ... : ... .. . ...
ROW 14 : C-1 0B . ... : ... .. . ... : C-2 00 . ... : F-# 02 6 ... : ... .. . ... : D#3 09 . ... : ... .. . ... : D-4 07 . ...
ROW 15 : --- .. . ... : ... .. . ... : --- .. . ... : ... .. . ... : ... .. . ... : ... .. . ... : ... .. . ... : ... .. . ...
ROW 16 : C-1 0B . ... : ... .. . ... : C-2 00 . ... : F-# 02 8 ... : ... .. . ... : C-3 09 . ... : ... .. . ... : ... .. . ...
ROW 17 : --- .. . ... : ... .. . ... : --- .. . ... : ... .. . ... : ... .. . ... : ... .. . ... : ... .. . ... : ... .. . ...
ROW 18 : C-2 0B . ... : D#2 05 . ... : C-3 00 . ... : 3-# 03 A ... : ... .. . ... : G-3 09 . ... : C-2 04 . ... : D#4 07 9 ...
ROW 19 : --- .. . ... : ... .. . ... : --- .. . ... : ... .. . ... : ... .. . ... : ... .. . ... : ... .. . ... : ... .. . ...
ROW 1A : C-1 0B . ... : ... .. . ... : C-2 00 . ... : ... .. . ... : ... .. . ... : D#3 09 . ... : ... .. . ... : F-4 07 . ...
ROW 1B : --- .. . ... : ... .. . ... : --- .. . ... : ... .. . ... : ... .. . ... : ... .. . ... : ... .. . ... : ... .. . ...
ROW 1C : C-1 0B . ... : ... .. . ... : C-2 00 . ... : ... .. . ... : ... .. . ... : C-3 09 . ... : ... .. . ... : ... .. . ...
ROW 1D : --- .. . ... : ... .. . ... : --- .. . ... : ... .. . ... : ... .. . ... : ... .. . ... : ... .. . ... : ... .. . ...
ROW 1E : C-1 0B . ... : ... .. . ... : C-2 00 . ... : ... .. . ... : ... .. . ... : G-2 09 . ... : ... .. . ... : ... .. . ...
ROW 1F : --- .. . ... : ... .. . ... : --- .. . ... : ... .. . ... : ... .. . ... : ... .. . ... : ... .. . ... : ... .. . ...
ROW 20 : C-1 0B . ... : D#3 05 . ... : C-2 00 . ... : F-# 02 8 ... : ... .. . ... : C-4 09 B ... : C-3 04 . ... : G-4 07 8 ...
ROW 21 : --- .. . ... : ... .. . ... : --- .. . ... : ... .. . ... : ... .. . ... : ... .. . ... : ... .. . ... : ... .. . ...
ROW 22 : C-1 0B . ... : ... .. . ... : C-2 00 . ... : F-# 02 2 ... : ... .. . ... : G-3 09 . ... : ... .. . ... : ... .. . ...
ROW 23 : --- .. . ... : ... .. . ... : --- .. . ... : F-# 02 4 ... : ... .. . ... : ... .. . ... : ... .. . ... : ... .. . ...
ROW 24 : C-1 0B . ... : ... .. . ... : C-2 00 . ... : F-# 02 6 ... : ... .. . ... : D#3 09 . ... : ... .. . ... : ... .. . ...
ROW 25 : --- .. . ... : ... .. . ... : --- .. . ... : ... .. . ... : ... .. . ... : ... .. . ... : ... .. . ... : ... .. . ...
ROW 26 : C-1 0B . ... : ... .. . ... : C-2 00 . ... : F-# 02 8 ... : ... .. . ... : C-3 09 . ... : ... .. . ... : ... .. . ...
ROW 27 : --- .. . ... : ... .. . ... : --- .. . ... : ... .. . ... : ... .. . ... : ... .. . ... : ... .. . ... : ... .. . ...
ROW 28 : C-2 0B . ... : D#2 05 . ... : C-3 00 . ... : 3-# 03 A ... : ... .. . ... : G-3 09 A ... : C-2 04 . ... : D#4 07 7 ...
ROW 29 : --- .. . ... : ... .. . ... : --- .. . ... : ... .. . ... : ... .. . ... : ... .. . ... : ... .. . ... : ... .. . ...
ROW 2A : C-1 0B . ... : ... .. . ... : C-2 00 . ... : ... .. . ... : ... .. . ... : D#3 09 . ... : ... .. . ... : ... .. . ...
ROW 2B : --- .. . ... : ... .. . ... : --- .. . ... : C-# 03 3 ... : ... .. . ... : ... .. . ... : ... .. . ... : ... .. . ...
ROW 2C : C-1 0B . ... : ... .. . ... : C-2 00 . ... : D-# 03 8 ... : ... .. . ... : C-3 09 . ... : ... .. . ... : ... .. . ...
ROW 2D : --- .. . ... : ... .. . ... : --- .. . ... : ... .. . ... : ... .. . ... : ... .. . ... : ... .. . ... : ... .. . ...
ROW 2E : C-1 0B . ... : ... .. . ... : C-2 00 . ... : ... .. . ... : ... .. . ... : G-2 09 . ... : ... .. . ... : ... .. . ...
ROW 2F : --- .. . ... : ... .. . ... : --- .. . ... : ... .. . ... : ... .. . ... : ... .. . ... : ... .. . ... : ... .. . ...
ROW 30 : C-1 0B . ... : D#3 05 . ... : C-2 00 . ... : F-# 02 8 ... : ... .. . ... : C-4 09 9 ... : C-3 04 . ... : ... .. 6 ...
ROW 31 : --- .. . ... : ... .. . ... : --- .. . ... : ... .. . ... : ... .. . ... : ... .. . ... : ... .. . ... : ... .. . ...
ROW 32 : C-1 0B . ... : ... .. . ... : C-2 00 . ... : F-# 02 2 ... : ... .. . ... : G-3 09 . ... : ... .. . ... : ... .. . ...
ROW 33 : --- .. . ... : ... .. . ... : --- .. . ... : F-# 02 4 ... : ... .. . ... : ... .. . ... : ... .. . ... : ... .. . ...
ROW 34 : C-1 0B . ... : ... .. . ... : C-2 00 . ... : F-# 02 6 ... : ... .. . ... : D#3 09 . ... : ... .. . ... : === .. . ...
ROW 35 : --- .. . ... : ... .. . ... : --- .. . ... : ... .. . ... : ... .. . ... : ... .. . ... : ... .. . ... : ... .. . ...
ROW 36 : C-1 0B . ... : ... .. . ... : C-2 00 . ... : F-# 02 8 ... : ... .. . ... : C-3 09 . ... : ... .. . ... : ... .. . ...
ROW 37 : --- .. . ... : ... .. . ... : --- .. . ... : ... .. . ... : ... .. . ... : ... .. . ... : ... .. . ... : ... .. . ...
ROW 38 : C-2 0B . ... : D#2 05 . ... : C-3 00 . ... : 3-# 03 A ... : ... .. . ... : G-3 09 8 ... : C-2 04 . ... : D-4 07 5 ...
ROW 39 : --- .. . ... : ... .. . ... : --- .. . ... : 1-# 03 1 ... : ... .. . ... : ... .. . ... : ... .. . ... : ... .. . ...
ROW 3A : C-1 0B . ... : ... .. . ... : C-2 00 . ... : 1-# 03 2 ... : ... .. . ... : D#3 09 . ... : ... .. . ... : ... .. . ...
ROW 3B : --- .. . ... : ... .. . ... : --- .. . ... : 1-# 03 3 ... : ... .. . ... : ... .. . ... : ... .. . ... : ... .. . ...
ROW 3C : C-1 0B . ... : ... .. . ... : C-2 00 . ... : 1-# 03 4 ... : ... .. . ... : C-3 09 . ... : ... .. . ... : D#4 07 . ...
ROW 3D : --- .. . ... : ... .. . ... : --- .. . ... : 1-# 03 5 ... : ... .. . ... : ... .. . ... : ... .. . ... : ... .. . ...
ROW 3E : C-1 0B . ... : ... .. . ... : C-2 00 . ... : 1-# 03 6 ... : ... .. . ... : G-2 09 . ... : ... .. . ... : ... .. . ...
ROW 3F : --- .. . ... : ... .. . ... : --- .. . ... : 1-# 03 7 ... : ... .. . ... : ... .. . ... : ... .. . ... : ... .. . ...
ROW 40 : F-1 0B . ... : F-3 05 . ... : F-2 00 . ... : F-# 02 8 ... : ... .. . ... : C-4 09 7 ... : C-3 04 . ... : F-4 07 4 ...
ROW 41 : --- .. . ... : ... .. . ... : --- .. . ... : ... .. . ... : ... .. . ... : ... .. . ... : ... .. . ... : ... .. . ...
ROW 42 : F-1 0B . ... : ... .. . ... : F-2 00 . ... : F-# 02 2 ... : ... .. . ... : G#3 09 . ... : ... .. . ... : ... .. . ...
ROW 43 : --- .. . ... : ... .. . ... : --- .. . ... : F-# 02 4 ... : ... .. . ... : ... .. . ... : ... .. . ... : ... .. . ...
ROW 44 : F-1 0B . ... : ... .. . ... : F-2 00 . ... : F-# 02 6 ... : ... .. . ... : F-3 09 . ... : ... .. . ... : ... .. . ...
ROW 45 : --- .. . ... : ... .. . ... : --- .. . ... : ... .. . ... : ... .. . ... : ... .. . ... : ... .. . ... : ... .. . ...
ROW 46 : F-1 0B . ... : ... .. . ... : F-2 00 . ... : F-# 02 8 ... : ... .. . ... : C-3 09 . ... : ... .. . ... : ... .. . ...
ROW 47 : --- .. . ... : ... .. . ... : --- .. . ... : ... .. . ... : ... .. . ... : ... .. . ... : ... .. . ... : ... .. . ...
ROW 48 : F-2 0B . ... : F-2 05 . ... : F-3 00 . ... : 3-# 03 9 ... : ... .. . ... : G#3 09 6 ... : C-2 04 . ... : ... .. 3 ...
ROW 49 : --- .. . ... : ... .. . ... : --- .. . ... : ... .. . ... : ... .. . ... : ... .. . ... : ... .. . ... : ... .. . ...
ROW 4A : F-1 0B . ... : ... .. . ... : F-2 00 . ... : ... .. . ... : ... .. . ... : F-3 09 . ... : ... .. . ... : ... .. . ...
ROW 4B : --- .. . ... : ... .. . ... : --- .. . ... : C-# 03 3 ... : ... .. . ... : ... .. . ... : ... .. . ... : ... .. . ...
ROW 4C : F-1 0B . ... : ... .. . ... : F-2 00 . ... : D-# 03 7 ... : ... .. . ... : C-3 09 . ... : ... .. . ... : ... .. . ...
ROW 4D : --- .. . ... : ... .. . ... : --- .. . ... : ... .. . ... : ... .. . ... : ... .. . ... : ... .. . ... : ... .. . ...
ROW 4E : F-1 0B . ... : ... .. . ... : F-2 00 . ... : ... .. . ... : ... .. . ... : G#2 09 . ... : ... .. . ... : ... .. . ...
ROW 4F : --- .. . ... : ... .. . ... : --- .. . ... : ... .. . ... : ... .. . ... : ... .. . ... : ... .. . ... : ... .. . ...
ROW 50 : F-1 0B . ... : F-3 05 . ... : F-2 00 . ... : F-# 02 7 ... : ... .. . ... : C-4 09 5 ... : C-3 04 . ... : === .. 2 ...
ROW 51 : --- .. . ... : ... .. . ... : --- .. . ... : ... .. . ... : ... .. . ... : ... .. . ... : ... .. . ... : ... .. . ...
ROW 52 : F-1 0B . ... : ... .. . ... : F-2 00 . ... : F-# 02 2 ... : ... .. . ... : G#3 09 . ... : ... .. . ... : ... .. . ...
ROW 53 : --- .. . ... : ... .. . ... : --- .. . ... : F-# 02 3 ... : ... .. . ... : ... .. . ... : ... .. . ... : ... .. . ...
ROW 54 : F-1 0B . ... : ... .. . ... : F-2 00 . ... : F-# 02 4 ... : ... .. . ... : F-3 09 . ... : ... .. . ... : C-4 07 . ...
ROW 55 : --- .. . ... : ... .. . ... : --- .. . ... : ... .. . ... : ... .. . ... : ... .. . ... : ... .. . ... : ... .. . ...
ROW 56 : F-1 0B . ... : ... .. . ... : F-2 00 . ... : F-# 02 6 ... : ... .. . ... : C-3 09 . ... : ... .. . ... : ... .. . ...
ROW 57 : --- .. . ... : ... .. . ... : --- .. . ... : ... .. . ... : ... .. . ... : ... .. . ... : ... .. . ... : ... .. . ...
ROW 58 : F-2 0B . ... : F-2 05 . ... : F-3 00 . ... : 3-# 03 7 ... : ... .. . ... : G#3 09 4 ... : C-2 04 . ... : D-4 07 1 ...
ROW 59 : --- .. . ... : ... .. . ... : --- .. . ... : ... .. . ... : ... .. . ... : ... .. . ... : ... .. . ... : ... .. . ...
ROW 5A : F-1 0B . ... : ... .. . ... : F-2 00 . ... : ... .. . ... : ... .. . ... : F-3 09 . ... : ... .. . ... : ... .. . ...
ROW 5B : --- .. . ... : ... .. . ... : --- .. . ... : ... .. . ... : ... .. . ... : ... .. . ... : ... .. . ... : ... .. . ...
ROW 5C : F-1 0B . ... : ... .. . ... : F-2 00 . ... : ... .. . ... : ... .. . ... : C-3 09 . ... : ... .. . ... : D#4 07 . ...
ROW 5D : --- .. . ... : ... .. . ... : --- .. . ... : ... .. . ... : ... .. . ... : ... .. . ... : ... .. . ... : ... .. . ...
ROW 5E : F-1 0B . ... : ... .. . ... : F-2 00 . ... : ... .. . ... : ... .. . ... : G#2 09 . ... : ... .. . ... : ... .. . ...
ROW 5F : --- .. . ... : ... .. . ... : --- .. . ... : ... .. . ... : ... .. . ... : ... .. . ... : ... .. . ... : ... .. . ...
ROW 60 : D-1 0B C ... : D-3 05 . ... : ... .. . ... : F-# 02 5 ... : ... .. . ... : D-4 09 3 ... : B-2 04 . ... : D-4 07 0 ...
ROW 61 : --- .. . ... : ... .. . ... : ... .. . ... : ... .. . ... : ... .. . ... : ... .. . ... : ... .. . ... : ... .. . ...
ROW 62 : D-1 0B . ... : ... .. . ... : ... .. . ... : F-# 02 1 ... : ... .. . ... : G-3 09 . ... : ... .. . ... : ... .. . ...
ROW 63 : --- .. . ... : ... .. . ... : ... .. . ... : F-# 02 3 ... : ... .. . ... : ... .. . ... : ... .. . ... : ... .. . ...
ROW 64 : D-1 0B B ... : ... .. . ... : ... .. . ... : F-# 02 5 ... : ... .. . ... : D-3 09 . ... : ... .. . ... : ... .. . ...
ROW 65 : --- .. . ... : ... .. . ... : ... .. . ... : ... .. . ... : ... .. . ... : ... .. . ... : ... .. . ... : ... .. . ...
ROW 66 : D-1 0B A ... : ... .. . ... : ... .. . ... : F-# 02 5 ... : ... .. . ... : B-2 09 . ... : ... .. . ... : ... .. . ...
ROW 67 : --- .. . ... : ... .. . ... : ... .. . ... : ... .. . ... : ... .. . ... : ... .. . ... : ... .. . ... : ... .. . ...
ROW 68 : D-2 0B . ... : D-2 05 . ... : ... .. . ... : 3-# 03 7 ... : ... .. . ... : G-3 09 2 ... : B-1 04 . ... : ... .. . ...
ROW 69 : --- .. . ... : ... .. . ... : ... .. . ... : ... .. . ... : ... .. . ... : ... .. . ... : ... .. . ... : ... .. . ...
ROW 6A : D-1 0B 9 ... : ... .. . ... : ... .. . ... : ... .. . ... : ... .. . ... : D-3 09 . ... : ... .. . ... : ... .. . ...
ROW 6B : --- .. . ... : ... .. . ... : ... .. . ... : C-# 03 1 ... : ... .. . ... : ... .. . ... : ... .. . ... : ... .. . ...
ROW 6C : D-1 0B 8 ... : ... .. . ... : ... .. . ... : D-# 03 5 ... : ... .. . ... : B-2 09 . ... : ... .. . ... : ... .. . ...
ROW 6D : --- .. . ... : ... .. . ... : ... .. . ... : ... .. . ... : ... .. . ... : ... .. . ... : ... .. . ... : ... .. . ...
ROW 6E : D-1 0B . ... : ... .. . ... : ... .. . ... : ... .. . ... : ... .. . ... : G-2 09 . ... : ... .. . ... : ... .. . ...
ROW 6F : --- .. . ... : ... .. . ... : ... .. . ... : ... .. . ... : ... .. . ... : ... .. . ... : ... .. . ... : ... .. . ...
ROW 70 : B-0 0B 7 ... : D-3 05 . ... : ... .. . ... : F-# 02 3 ... : ... .. . ... : D-4 09 1 ... : B-2 04 . ... : === .. . ...
ROW 71 : --- .. . ... : ... .. . ... : ... .. . ... : ... .. . ... : ... .. . ... : ... .. . ... : ... .. . ... : ... .. . ...
ROW 72 : B-0 0B 6 ... : ... .. . ... : ... .. . ... : F-# 02 1 ... : ... .. . ... : G-3 09 . ... : ... .. . ... : ... .. . ...
ROW 73 : --- .. . ... : ... .. . ... : ... .. . ... : F-# 02 2 ... : ... .. . ... : ... .. . ... : ... .. . ... : ... .. . ...
ROW 74 : B-0 0B . ... : ... .. . ... : ... .. . ... : F-# 02 3 ... : ... .. . ... : D-3 09 . ... : ... .. . ... : B-3 07 . ...
ROW 75 : --- .. . ... : ... .. . ... : ... .. . ... : ... .. . ... : ... .. . ... : ... .. . ... : ... .. . ... : ... .. . ...
ROW 76 : B-0 0B 5 ... : ... .. . ... : ... .. . ... : F-# 02 4 ... : ... .. . ... : B-2 09 . ... : ... .. . ... : ... .. . ...
ROW 77 : --- .. . ... : ... .. . ... : ... .. . ... : ... .. . ... : ... .. . ... : ... .. . ... : ... .. . ... : ... .. . ...
ROW 78 : B-1 0B 4 ... : G-3 05 . ... : ... .. . ... : 3-# 03 3 ... : ... .. . ... : G-3 09 0 ... : B-2 04 . ... : ... .. . ...
ROW 79 : --- .. . ... : ... .. . ... : ... .. . ... : 1-# 03 2 ... : ... .. . ... : ... .. . ... : ... .. . ... : ... .. . ...
ROW 7A : B-0 0B 3 ... : ... .. . ... : ... .. . ... : 1-# 03 2 ... : ... .. . ... : D-3 09 . ... : ... .. . ... : ... .. . ...
ROW 7B : --- .. . ... : ... .. . ... : ... .. . ... : 1-# 03 2 ... : ... .. . ... : ... .. . ... : ... .. . ... : ... .. . ...
ROW 7C : B-0 0B 2 ... : ... .. . ... : ... .. . ... : 1-# 03 1 ... : ... .. . ... : B-2 09 . ... : ... .. . ... : G-3 07 . ...
ROW 7D : --- .. . ... : ... .. . ... : ... .. . ... : 1-# 03 1 ... : ... .. . ... : ... .. . ... : ... .. . ... : ... .. . ...
ROW 7E : B-0 0B 1 ... : ... .. . ... : ... .. . ... : 1-# 03 1 ... : ... .. . ... : G-2 09 . ... : ... .. . ... : ... .. . ...
ROW 7F : --- .. . ... : ... .. . ... : ... .. . ... : ... .. . ... : ... .. . ... : ... .. . ... : ... .. . ... : ... .. . ...

TRACK 128   3 150 "King Goat 2"
COLUMNS : 1 1 1 1 1 1 1 1

ORDER 00 : 00 00 00 00 00 00 00 00
ORDER 01 : 01 01 01 01 01 01 01 01
ORDER 02 : 02 02 02 02 02 02 02 02
ORDER 03 : 0A 0A 0A 0A 0A 09 0A 0A
ORDER 04 : 04 04 04 04 04 04 04 04
ORDER 05 : 05 05 05 05 05 05 05 05
ORDER 06 : 06 06 06 06 06 06 06 06
ORDER 07 : 01 01 01 01 01 01 01 01
ORDER 08 : 02 02 02 02 02 02 02 02
ORDER 09 : 03 03 03 03 03 03 03 03
ORDER 0A : 07 07 07 07 07 07 07 07
ORDER 0B : 08 08 08 08 08 08 08 08

PATTERN 00
ROW 00 : D#4 06 F ... : C-4 06 F ... : C-2 00 F ... : 5-# 03 F ... : ... .. . ... : D#3 07 F ... : C-3 07 F ... : G-4 07 F ...
ROW 01 : ... .. . ... : ... .. . ... : --- .. . ... : ... .. . ... : ... .. . ... : ... .. . ... : ... .. . ... : ... .. . ...
ROW 02 : ... .. . ... : ... .. . ... : C-2 00 . ... : ... .. . ... : ... .. . ... : ... .. . ... : ... .. . ... : ... .. . ...
ROW 03 : ... .. . ... : ... .. . ... : --- .. . ... : ... .. . ... : ... .. . ... : ... .. . ... : ... .. . ... : ... .. . ...
ROW 04 : ... .. . ... : ... .. . ... : C-2 00 . ... : 0-# 03 . ... : ... .. . ... : ... .. . ... : ... .. . ... : ... .. . ...
ROW 05 : ... .. . ... : ... .. . ... : --- .. . ... : ... .. . ... : ... .. . ... : ... .. . ... : ... .. . ... : ... .. . ...
ROW 06 : ... .. . ... : ... .. . ... : C-2 00 . ... : 0-# 03 . ... : ... .. . ... : ... .. . ... : ... .. . ... : ... .. . ...
ROW 07 : ... .. . ... : ... .. . ... : --- .. . ... : ... .. . ... : ... .. . ... : ... .. . ... : ... .. . ... : ... .. . ...
ROW 08 : ... .. . ... : ... .. . ... : C-3 00 . ... : 3-# 03 . ... : ... .. . ... : ... .. . ... : ... .. . ... : ... .. . ...
ROW 09 : ... .. . ... : ... .. . ... : --- .. . ... : ... .. . ... : ... .. . ... : ... .. . ... : ... .. . ... : ... .. . ...
ROW 0A : ... .. . ... : ... .. . ... : C-2 00 . ... : ... .. . ... : ... .. . ... : ... .. . ... : ... .. . ... : ... .. . ...
ROW 0B : ... .. . ... : ... .. . ... : --- .. . ... : ... .. . ... : ... .. . ... : ... .. . ... : ... .. . ... : ... .. . ...
ROW 0C : ... .. . ... : ... .. . ... : C-2 00 . ... : 0-# 03 . ... : ... .. . ... : ... .. . ... : ... .. . ... : ... .. . ...
ROW 0D : ... .. . ... : ... .. . ... : --- .. . ... : ... .. . ... : ... .. . ... : ... .. . ... : ... .. . ... : ... .. . ...
ROW 0E : ... .. . ... : ... .. . ... : C-2 00 . ... : 0-# 03 . ... : ... .. . ... : ... .. . ... : ... .. . ... : ... .. . ...
ROW 0F : ... .. . ... : ... .. . ... : --- .. . ... : ... .. . ... : ... .. . ... : ... .. . ... : ... .. . ... : ... .. . ...
ROW 10 : D-4 06 . ... : B-3 06 . ... : D-2 00 . ... : 9-# 03 1 ... : ... .. . ... : D-3 07 . ... : B-2 07 . ... : D-4 07 . ...
ROW 11 : ... .. . ... : ... .. . ... : --- .. . ... : 5-# 03 2 ... : ... .. . ... : ... .. . ... : ... .. . ... : ... .. . ...
ROW 12 : ... .. . ... : ... .. . ... : D-2 00 . ... : 9-# 03 3 ... : ... .. . ... : ... .. . ... : ... .. . ... : ... .. . ...
ROW 13 : ... .. . ... : ... .. . ... : --- .. . ... : 5-# 03 4 ... : ... .. . ... : ... .. . ... : ... .. . ... : ... .. . ...
ROW 14 : ... .. . ... : ... .. . ... : D-2 00 . ... : 9-# 03 5 ... : ... .. . ... : ... .. . ... : ... .. . ... : ... .. . ...
ROW 15 : ... .. . ... : ... .. . ... : --- .. . ... : 5-# 03 6 ... : ... .. . ... : ... .. . ... : ... .. . ... : ... .. . ...
ROW 16 : ... .. . ... : ... .. . ... : D-2 00 . ... : 9-# 03 7 ... : ... .. . ... : ... .. . ... : ... .. . ... : ... .. . ...
ROW 17 : ... .. . ... : ... .. . ... : --- .. . ... : 5-# 03 8 ... : ... .. . ... : ... .. . ... : ... .. . ... : ... .. . ...
ROW 18 : ... .. . ... : ... .. . ... : D-3 00 . ... : 9-# 03 9 ... : ... .. . ... : ... .. . ... : ... .. . ... : ... .. . ...
ROW 19 : ... .. . ... : ... .. . ... : --- .. . ... : 5-# 03 A ... : ... .. . ... : ... .. . ... : ... .. . ... : ... .. . ...
ROW 1A : ... .. . ... : ... .. . ... : D-2 00 . ... : 9-# 03 B ... : ... .. . ... : ... .. . ... : ... .. . ... : ... .. . ...
ROW 1B : ... .. . ... : ... .. . ... : --- .. . ... : 5-# 03 C ... : ... .. . ... : ... .. . ... : ... .. . ... : ... .. . ...
ROW 1C : ... .. . ... : ... .. . ... : D-2 00 . ... : 9-# 03 D ... : ... .. . ... : ... .. . ... : ... .. . ... : ... .. . ...
ROW 1D : ... .. . ... : ... .. . ... : --- .. . ... : 5-# 03 E ... : ... .. . ... : ... .. . ... : ... .. . ... : ... .. . ...
ROW 1E : ... .. . ... : ... .. . ... : D-2 00 . ... : 9-# 03 F ... : ... .. . ... : ... .. . ... : ... .. . ... : ... .. . ...
ROW 1F : ... .. . ... : ... .. . ... : --- .. . ... : 5-# 03 . ... : ... .. . D00 : ... .. . ... : ... .. . ... : ... .. . ...
ROW 20 : ... .. . ... : ... .. . ... : ... .. . ... : ... .. . ... : ... .. . ... : ... .. . ... : ... .. . ... : ... .. . ...
ROW 21 : ... .. . ... : ... .. . ... : ... .. . ... : ... .. . ... : ... .. . ... : ... .. . ... : ... .. . ... : ... .. . ...
ROW 22 : ... .. . ... : ... .. . ... : ... .. . ... : ... .. . ... : ... .. . ... : ... .. . ... : ... .. . ... : ... .. . ...
ROW 23 : ... .. . ... : ... .. . ... : ... .. . ... : ... .. . ... : ... .. . ... : ... .. . ... : ... .. . ... : ... .. . ...
ROW 24 : ... .. . ... : ... .. . ... : ... .. . ... : ... .. . ... : ... .. . ... : ... .. . ... : ... .. . ... : ... .. . ...
ROW 25 : ... .. . ... : ... .. . ... : ... .. . ... : ... .. . ... : ... .. . ... : ... .. . ... : ... .. . ... : ... .. . ...
ROW 26 : ... .. . ... : ... .. . ... : ... .. . ... : ... .. . ... : ... .. . ... : ... .. . ... : ... .. . ... : ... .. . ...
ROW 27 : ... .. . ... : ... .. . ... : ... .. . ... : ... .. . ... : ... .. . ... : ... .. . ... : ... .. . ... : ... .. . ...
ROW 28 : ... .. . ... : ... .. . ... : ... .. . ... : ... .. . ... : ... .. . ... : ... .. . ... : ... .. . ... : ... .. . ...
ROW 29 : ... .. . ... : ... .. . ... : ... .. . ... : ... .. . ... : ... .. . ... : ... .. . ... : ... .. . ... : ... .. . ...
ROW 2A : ... .. . ... : ... .. . ... : ... .. . ... : ... .. . ... : ... .. . ... : ... .. . ... : ... .. . ... : ... .. . ...
ROW 2B : ... .. . ... : ... .. . ... : ... .. . ... : ... .. . ... : ... .. . ... : ... .. . ... : ... .. . ... : ... .. . ...
ROW 2C : ... .. . ... : ... .. . ... : ... .. . ... : ... .. . ... : ... .. . ... : ... .. . ... : ... .. . ... : ... .. . ...
ROW 2D : ... .. . ... : ... .. . ... : ... .. . ... : ... .. . ... : ... .. . ... : ... .. . ... : ... .. . ... : ... .. . ...
ROW 2E : ... .. . ... : ... .. . ... : ... .. . ... : ... .. . ... : ... .. . ... : ... .. . ... : ... .. . ... : ... .. . ...
ROW 2F : ... .. . ... : ... .. . ... : ... .. . ... : ... .. . ... : ... .. . ... : ... .. . ... : ... .. . ... : ... .. . ...
ROW 30 : ... .. . ... : ... .. . ... : ... .. . ... : ... .. . ... : ... .. . ... : ... .. . ... : ... .. . ... : ... .. . ...
ROW 31 : ... .. . ... : ... .. . ... : ... .. . ... : ... .. . ... : ... .. . ... : ... .. . ... : ... .. . ... : ... .. . ...
ROW 32 : ... .. . ... : ... .. . ... : ... .. . ... : ... .. . ... : ... .. . ... : ... .. . ... : ... .. . ... : ... .. . ...
ROW 33 : ... .. . ... : ... .. . ... : ... .. . ... : ... .. . ... : ... .. . ... : ... .. . ... : ... .. . ... : ... .. . ...
ROW 34 : ... .. . ... : ... .. . ... : ... .. . ... : ... .. . ... : ... .. . ... : ... .. . ... : ... .. . ... : ... .. . ...
ROW 35 : ... .. . ... : ... .. . ... : ... .. . ... : ... .. . ... : ... .. . ... : ... .. . ... : ... .. . ... : ... .. . ...
ROW 36 : ... .. . ... : ... .. . ... : ... .. . ... : ... .. . ... : ... .. . ... : ... .. . ... : ... .. . ... : ... .. . ...
ROW 37 : ... .. . ... : ... .. . ... : ... .. . ... : ... .. . ... : ... .. . ... : ... .. . ... : ... .. . ... : ... .. . ...
ROW 38 : ... .. . ... : ... .. . ... : ... .. . ... : ... .. . ... : ... .. . ... : ... .. . ... : ... .. . ... : ... .. . ...
ROW 39 : ... .. . ... : ... .. . ... : ... .. . ... : ... .. . ... : ... .. . ... : ... .. . ... : ... .. . ... : ... .. . ...
ROW 3A : ... .. . ... : ... .. . ... : ... .. . ... : ... .. . ... : ... .. . ... : ... .. . ... : ... .. . ... : ... .. . ...
ROW 3B : ... .. . ... : ... .. . ... : ... .. . ... : ... .. . ... : ... .. . ... : ... .. . ... : ... .. . ... : ... .. . ...
ROW 3C : ... .. . ... : ... .. . ... : ... .. . ... : ... .. . ... : ... .. . ... : ... .. . ... : ... .. . ... : ... .. . ...
ROW 3D : ... .. . ... : ... .. . ... : ... .. . ... : ... .. . ... : ... .. . ... : ... .. . ... : ... .. . ... : ... .. . ...
ROW 3E : ... .. . ... : ... .. . ... : ... .. . ... : ... .. . ... : ... .. . ... : ... .. . ... : ... .. . ... : ... .. . ...
ROW 3F : ... .. . ... : ... .. . ... : ... .. . ... : ... .. . ... : ... .. . ... : ... .. . ... : ... .. . ... : ... .. . ...
ROW 40 : ... .. . ... : ... .. . ... : ... .. . ... : ... .. . ... : ... .. . ... : ... .. . ... : ... .. . ... : ... .. . ...
ROW 41 : ... .. . ... : ... .. . ... : ... .. . ... : ... .. . ... : ... .. . ... : ... .. . ... : ... .. . ... : ... .. . ...
ROW 42 : ... .. . ... : ... .. . ... : ... .. . ... : ... .. . ... : ... .. . ... : ... .. . ... : ... .. . ... : ... .. . ...
ROW 43 : ... .. . ... : ... .. . ... : ... .. . ... : ... .. . ... : ... .. . ... : ... .. . ... : ... .. . ... : ... .. . ...
ROW 44 : ... .. . ... : ... .. . ... : ... .. . ... : ... .. . ... : ... .. . ... : ... .. . ... : ... .. . ... : ... .. . ...
ROW 45 : ... .. . ... : ... .. . ... : ... .. . ... : ... .. . ... : ... .. . ... : ... .. . ... : ... .. . ... : ... .. . ...
ROW 46 : ... .. . ... : ... .. . ... : ... .. . ... : ... .. . ... : ... .. . ... : ... .. . ... : ... .. . ... : ... .. . ...
ROW 47 : ... .. . ... : ... .. . ... : ... .. . ... : ... .. . ... : ... .. . ... : ... .. . ... : ... .. . ... : ... .. . ...
ROW 48 : ... .. . ... : ... .. . ... : ... .. . ... : ... .. . ... : ... .. . ... : ... .. . ... : ... .. . ... : ... .. . ...
ROW 49 : ... .. . ... : ... .. . ... : ... .. . ... : ... .. . ... : ... .. . ... : ... .. . ... : ... .. . ... : ... .. . ...
ROW 4A : ... .. . ... : ... .. . ... : ... .. . ... : ... .. . ... : ... .. . ... : ... .. . ... : ... .. . ... : ... .. . ...
ROW 4B : ... .. . ... : ... .. . ... : ... .. . ... : ... .. . ... : ... .. . ... : ... .. . ... : ... .. . ... : ... .. . ...
ROW 4C : ... .. . ... : ... .. . ... : ... .. . ... : ... .. . ... : ... .. . ... : ... .. . ... : ... .. . ... : ... .. . ...
ROW 4D : ... .. . ... : ... .. . ... : ... .. . ... : ... .. . ... : ... .. . ... : ... .. . ... : ... .. . ... : ... .. . ...
ROW 4E : ... .. . ... : ... .. . ... : ... .. . ... : ... .. . ... : ... .. . ... : ... .. . ... : ... .. . ... : ... .. . ...
ROW 4F : ... .. . ... : ... .. . ... : ... .. . ... : ... .. . ... : ... .. . ... : ... .. . ... : ... .. . ... : ... .. . ...
ROW 50 : ... .. . ... : ... .. . ... : ... .. . ... : ... .. . ... : ... .. . ... : ... .. . ... : ... .. . ... : ... .. . ...
ROW 51 : ... .. . ... : ... .. . ... : ... .. . ... : ... .. . ... : ... .. . ... : ... .. . ... : ... .. . ... : ... .. . ...
ROW 52 : ... .. . ... : ... .. . ... : ... .. . ... : ... .. . ... : ... .. . ... : ... .. . ... : ... .. . ... : ... .. . ...
ROW 53 : ... .. . ... : ... .. . ... : ... .. . ... : ... .. . ... : ... .. . ... : ... .. . ... : ... .. . ... : ... .. . ...
ROW 54 : ... .. . ... : ... .. . ... : ... .. . ... : ... .. . ... : ... .. . ... : ... .. . ... : ... .. . ... : ... .. . ...
ROW 55 : ... .. . ... : ... .. . ... : ... .. . ... : ... .. . ... : ... .. . ... : ... .. . ... : ... .. . ... : ... .. . ...
ROW 56 : ... .. . ... : ... .. . ... : ... .. . ... : ... .. . ... : ... .. . ... : ... .. . ... : ... .. . ... : ... .. . ...
ROW 57 : ... .. . ... : ... .. . ... : ... .. . ... : ... .. . ... : ... .. . ... : ... .. . ... : ... .. . ... : ... .. . ...
ROW 58 : ... .. . ... : ... .. . ... : ... .. . ... : ... .. . ... : ... .. . ... : ... .. . ... : ... .. . ... : ... .. . ...
ROW 59 : ... .. . ... : ... .. . ... : ... .. . ... : ... .. . ... : ... .. . ... : ... .. . ... : ... .. . ... : ... .. . ...
ROW 5A : ... .. . ... : ... .. . ... : ... .. . ... : ... .. . ... : ... .. . ... : ... .. . ... : ... .. . ... : ... .. . ...
ROW 5B : ... .. . ... : ... .. . ... : ... .. . ... : ... .. . ... : ... .. . ... : ... .. . ... : ... .. . ... : ... .. . ...
ROW 5C : ... .. . ... : ... .. . ... : ... .. . ... : ... .. . ... : ... .. . ... : ... .. . ... : ... .. . ... : ... .. . ...
ROW 5D : ... .. . ... : ... .. . ... : ... .. . ... : ... .. . ... : ... .. . ... : ... .. . ... : ... .. . ... : ... .. . ...
ROW 5E : ... .. . ... : ... .. . ... : ... .. . ... : ... .. . ... : ... .. . ... : ... .. . ... : ... .. . ... : ... .. . ...
ROW 5F : ... .. . ... : ... .. . ... : ... .. . ... : ... .. . ... : ... .. . ... : ... .. . ... : ... .. . ... : ... .. . ...
ROW 60 : ... .. . ... : ... .. . ... : ... .. . ... : ... .. . ... : ... .. . ... : ... .. . ... : ... .. . ... : ... .. . ...
ROW 61 : ... .. . ... : ... .. . ... : ... .. . ... : ... .. . ... : ... .. . ... : ... .. . ... : ... .. . ... : ... .. . ...
ROW 62 : ... .. . ... : ... .. . ... : ... .. . ... : ... .. . ... : ... .. . ... : ... .. . ... : ... .. . ... : ... .. . ...
ROW 63 : ... .. . ... : ... .. . ... : ... .. . ... : ... .. . ... : ... .. . ... : ... .. . ... : ... .. . ... : ... .. . ...
ROW 64 : ... .. . ... : ... .. . ... : ... .. . ... : ... .. . ... : ... .. . ... : ... .. . ... : ... .. . ... : ... .. . ...
ROW 65 : ... .. . ... : ... .. . ... : ... .. . ... : ... .. . ... : ... .. . ... : ... .. . ... : ... .. . ... : ... .. . ...
ROW 66 : ... .. . ... : ... .. . ... : ... .. . ... : ... .. . ... : ... .. . ... : ... .. . ... : ... .. . ... : ... .. . ...
ROW 67 : ... .. . ... : ... .. . ... : ... .. . ... : ... .. . ... : ... .. . ... : ... .. . ... : ... .. . ... : ... .. . ...
ROW 68 : ... .. . ... : ... .. . ... : ... .. . ... : ... .. . ... : ... .. . ... : ... .. . ... : ... .. . ... : ... .. . ...
ROW 69 : ... .. . ... : ... .. . ... : ... .. . ... : ... .. . ... : ... .. . ... : ... .. . ... : ... .. . ... : ... .. . ...
ROW 6A : ... .. . ... : ... .. . ... : ... .. . ... : ... .. . ... : ... .. . ... : ... .. . ... : ... .. . ... : ... .. . ...
ROW 6B : ... .. . ... : ... .. . ... : ... .. . ... : ... .. . ... : ... .. . ... : ... .. . ... : ... .. . ... : ... .. . ...
ROW 6C : ... .. . ... : ... .. . ... : ... .. . ... : ... .. . ... : ... .. . ... : ... .. . ... : ... .. . ... : ... .. . ...
ROW 6D : ... .. . ... : ... .. . ... : ... .. . ... : ... .. . ... : ... .. . ... : ... .. . ... : ... .. . ... : ... .. . ...
ROW 6E : ... .. . ... : ... .. . ... : ... .. . ... : ... .. . ... : ... .. . ... : ... .. . ... : ... .. . ... : ... .. . ...
ROW 6F : ... .. . ... : ... .. . ... : ... .. . ... : ... .. . ... : ... .. . ... : ... .. . ... : ... .. . ... : ... .. . ...
ROW 70 : ... .. . ... : ... .. . ... : ... .. . ... : ... .. . ... : ... .. . ... : ... .. . ... : ... .. . ... : ... .. . ...
ROW 71 : ... .. . ... : ... .. . ... : ... .. . ... : ... .. . ... : ... .. . ... : ... .. . ... : ... .. . ... : ... .. . ...
ROW 72 : ... .. . ... : ... .. . ... : ... .. . ... : ... .. . ... : ... .. . ... : ... .. . ... : ... .. . ... : ... .. . ...
ROW 73 : ... .. . ... : ... .. . ... : ... .. . ... : ... .. . ... : ... .. . ... : ... .. . ... : ... .. . ... : ... .. . ...
ROW 74 : ... .. . ... : ... .. . ... : ... .. . ... : ... .. . ... : ... .. . ... : ... .. . ... : ... .. . ... : ... .. . ...
ROW 75 : ... .. . ... : ... .. . ... : ... .. . ... : ... .. . ... : ... .. . ... : ... .. . ... : ... .. . ... : ... .. . ...
ROW 76 : ... .. . ... : ... .. . ... : ... .. . ... : ... .. . ... : ... .. . ... : ... .. . ... : ... .. . ... : ... .. . ...
ROW 77 : ... .. . ... : ... .. . ... : ... .. . ... : ... .. . ... : ... .. . ... : ... .. . ... : ... .. . ... : ... .. . ...
ROW 78 : ... .. . ... : ... .. . ... : ... .. . ... : ... .. . ... : ... .. . ... : ... .. . ... : ... .. . ... : ... .. . ...
ROW 79 : ... .. . ... : ... .. . ... : ... .. . ... : ... .. . ... : ... .. . ... : ... .. . ... : ... .. . ... : ... .. . ...
ROW 7A : ... .. . ... : ... .. . ... : ... .. . ... : ... .. . ... : ... .. . ... : ... .. . ... : ... .. . ... : ... .. . ...
ROW 7B : ... .. . ... : ... .. . ... : ... .. . ... : ... .. . ... : ... .. . ... : ... .. . ... : ... .. . ... : ... .. . ...
ROW 7C : ... .. . ... : ... .. . ... : ... .. . ... : ... .. . ... : ... .. . ... : ... .. . ... : ... .. . ... : ... .. . ...
ROW 7D : ... .. . ... : ... .. . ... : ... .. . ... : ... .. . ... : ... .. . ... : ... .. . ... : ... .. . ... : ... .. . ...
ROW 7E : ... .. . ... : ... .. . ... : ... .. . ... : ... .. . ... : ... .. . ... : ... .. . ... : ... .. . ... : ... .. . ...
ROW 7F : ... .. . ... : ... .. . ... : ... .. . ... : ... .. . ... : ... .. . ... : ... .. . ... : ... .. . ... : ... .. . ...

PATTERN 01
ROW 00 : C-4 0C C ... : ... .. . ... : C-2 00 . ... : F-# 03 C ... : ... .. . ... : C-1 01 F ... : --- .. . ... : D#4 07 F ...
ROW 01 : ... .. . ... : ... .. . ... : --- .. . ... : ... .. . ... : ... .. . ... : --- .. . ... : ... .. . ... : ... .. . ...
ROW 02 : G-3 0C . ... : C-4 0C 4 ... : C-2 00 . ... : ... .. . ... : ... .. . ... : C-1 01 . ... : D#4 07 5 ... : ... .. . ...
ROW 03 : ... .. . ... : ... .. . ... : --- 00 . ... : ... .. . ... : ... .. . ... : --- .. . ... : ... .. . ... : ... .. . ...
ROW 04 : D#3 0C . ... : G-3 0C . ... : C-2 00 . ... : F-# 03 A ... : ... .. . ... : C-1 01 . ... : ... .. . ... : C-4 07 . ...
ROW 05 : ... .. . ... : ... .. . ... : --- 00 . ... : ... .. . ... : ... .. . ... : --- .. . ... : ... .. . ... : ... .. . ...
ROW 06 : C-3 0C . ... : D#3 0C . ... : C-2 00 . ... : F-# 03 8 ... : ... .. . ... : C-1 01 . ... : C-4 07 . ... : ... .. . ...
ROW 07 : ... .. . ... : ... .. . ... : --- .. . ... : ... .. . ... : ... .. . ... : --- .. . ... : ... .. . ... : ... .. . ...
ROW 08 : G-3 0C . ... : C-3 0C . ... : C-3 00 . ... : 4-# 03 C ... : ... .. . ... : C-1 01 . ... : ... .. . ... : ... .. . ...
ROW 09 : ... .. . ... : ... .. . ... : --- .. . ... : ... .. . ... : ... .. . ... : --- .. . ... : ... .. . ... : ... .. . ...
ROW 0A : D#3 0C . ... : G-3 0C . ... : C-2 00 . ... : 8-# 03 4 ... : ... .. . ... : C-1 01 . ... : ... .. . ... : ... .. . ...
ROW 0B : ... .. . ... : ... .. . ... : --- .. . ... : 8-# 03 5 ... : ... .. . ... : --- .. . ... : ... .. . ... : ... .. . ...
ROW 0C : C-3 0C . ... : D#3 0C . ... : C-2 00 . ... : F-# 03 A ... : ... .. . ... : C-1 01 . ... : ... .. . ... : ... .. . ...
ROW 0D : ... .. . ... : ... .. . ... : --- .. . ... : ... .. . ... : ... .. . ... : --- .. . ... : ... .. . ... : ... .. . ...
ROW 0E : G-2 0C . ... : C-3 0C . ... : C-2 00 . ... : F-# 03 8 ... : ... .. . ... : C-1 01 . ... : ... .. . ... : ... .. . ...
ROW 0F : ... .. . ... : ... .. . ... : --- .. . ... : ... .. . ... : ... .. . ... : --- .. . ... : ... .. . ... : ... .. . ...
ROW 10 : C-4 0C . ... : G-2 0C . ... : C-2 00 . ... : F-# 03 C ... : ... .. . ... : C-1 01 . ... : ... .. . ... : G-3 07 . ...
ROW 11 : ... .. . ... : ... .. . ... : --- .. . ... : ... .. . ... : ... .. . ... : --- .. . ... : ... .. . ... : ... .. . ...
ROW 12 : G-3 0C . ... : C-4 0C . ... : C-2 00 . ... : ... .. . ... : ... .. . ... : C-1 01 . ... : G-3 07 . ... : ... .. . ...
ROW 13 : ... .. . ... : ... .. . ... : --- .. . ... : ... .. . ... : ... .. . ... : --- .. . ... : ... .. . ... : ... .. . ...
ROW 14 : D#3 0C . ... : G-3 0C . ... : C-2 00 . ... : F-# 03 A ... : ... .. . ... : C-1 01 . ... : ... .. . ... : C-4 07 . ...
ROW 15 : ... .. . ... : ... .. . ... : --- .. . ... : ... .. . ... : ... .. . ... : --- .. . ... : ... .. . ... : ... .. . ...
ROW 16 : C-3 0C . ... : D#3 0C . ... : C-2 00 . ... : F-# 03 8 ... : ... .. . ... : C-1 01 . ... : C-4 07 . ... : ... .. . ...
ROW 17 : ... .. . ... : ... .. . ... : --- .. . ... : ... .. . ... : ... .. . ... : --- .. . ... : ... .. . ... : ... .. . ...
ROW 18 : G-3 0C . ... : C-3 0C . ... : C-3 00 . ... : 4-# 03 C ... : ... .. . ... : C-1 01 . ... : ... .. . ... : ... .. . ...
ROW 19 : ... .. . ... : ... .. . ... : --- .. . ... : ... .. . ... : ... .. . ... : --- .. . ... : ... .. . ... : ... .. . ...
ROW 1A : D#3 0C . ... : G-3 0C . ... : C-2 00 . ... : 8-# 03 4 ... : ... .. . ... : C-1 01 . ... : ... .. . ... : ... .. . ...
ROW 1B : ... .. . ... : ... .. . ... : --- .. . ... : 8-# 03 5 ... : ... .. . ... : --- .. . ... : ... .. . ... : ... .. . ...
ROW 1C : C-3 0C . ... : D#3 0C . ... : C-2 00 . ... : F-# 03 A ... : ... .. . ... : C-1 01 . ... : ... .. . ... : A#3 07 . ...
ROW 1D : ... .. . ... : ... .. . ... : --- .. . ... : ... .. . ... : ... .. . ... : --- .. . ... : ... .. . ... : ... .. . ...
ROW 1E : G-2 0C . ... : C-3 0C . ... : C-2 00 . ... : F-# 03 8 ... : ... .. . ... : C-1 01 . ... : A#3 07 . ... : ... .. . ...
ROW 1F : ... .. . ... : ... .. . ... : --- .. . ... : ... .. . ... : ... .. . ... : --- .. . ... : ... .. . ... : ... .. . ...
ROW 20 : C-4 0C . ... : G-2 0C . ... : D#2 00 . ... : F-# 03 C ... : ... .. . ... : D#1 01 . ... : ... .. . ... : A#3 07 . ...
ROW 21 : ... .. . ... : ... .. . ... : --- .. . ... : ... .. . ... : ... .. . ... : --- .. . ... : ... .. . ... : ... .. . ...
ROW 22 : G#3 0C . ... : C-4 0C . ... : D#2 00 . ... : ... .. . ... : ... .. . ... : D#1 01 . ... : A#3 07 . ... : ... .. . ...
ROW 23 : ... .. . ... : ... .. . ... : --- .. . ... : ... .. . ... : ... .. . ... : --- .. . ... : ... .. . ... : ... .. . ...
ROW 24 : D#3 0C . ... : G#3 0C . ... : D#2 00 . ... : F-# 03 A ... : ... .. . ... : D#1 01 . ... : ... .. . ... : ... .. . ...
ROW 25 : ... .. . ... : ... .. . ... : --- .. . ... : ... .. . ... : ... .. . ... : --- .. . ... : ... .. . ... : ... .. . ...
ROW 26 : C-3 0C . ... : D#3 0C . ... : D#2 00 . ... : F-# 03 8 ... : ... .. . ... : D#1 01 . ... : ... .. . ... : G#3 07 . ...
ROW 27 : ... .. . ... : ... .. . ... : --- .. . ... : ... .. . ... : ... .. . ... : --- .. . ... : ... .. . ... : ... .. . ...
ROW 28 : G#3 0C . ... : C-3 0C . ... : D#3 00 . ... : 4-# 03 C ... : ... .. . ... : D#1 01 . ... : G#3 07 . ... : ... .. . ...
ROW 29 : ... .. . ... : ... .. . ... : --- .. . ... : ... .. . ... : ... .. . ... : --- .. . ... : ... .. . ... : ... .. . ...
ROW 2A : D#3 0C . ... : G#3 0C . ... : D#2 00 . ... : 8-# 03 4 ... : ... .. . ... : D#1 01 . ... : ... .. . ... : ... .. . ...
ROW 2B : ... .. . ... : ... .. . ... : --- .. . ... : 8-# 03 5 ... : ... .. . ... : --- .. . ... : ... .. . ... : ... .. . ...
ROW 2C : C-3 0C . ... : D#3 0C . ... : D#2 00 . ... : F-# 03 A ... : ... .. . ... : D#1 01 . ... : ... .. . ... : G#3 07 . ...
ROW 2D : ... .. . ... : ... .. . ... : --- .. . ... : ... .. . ... : ... .. . ... : --- .. . ... : ... .. . ... : ... .. . ...
ROW 2E : G#2 0C . ... : C-3 0C . ... : D#2 00 . ... : F-# 03 8 ... : ... .. . ... : D#1 01 . ... : G#3 07 . ... : ... .. . ...
ROW 2F : ... .. . ... : ... .. . ... : --- .. . ... : ... .. . ... : ... .. . ... : --- .. . ... : ... .. . ... : ... .. . ...
ROW 30 : C-4 0C . ... : G#2 0C . ... : D#2 00 . ... : F-# 03 C ... : ... .. . ... : D#1 01 . ... : ... .. . ... : ... .. . ...
ROW 31 : ... .. . ... : ... .. . ... : --- .. . ... : ... .. . ... : ... .. . ... : --- .. . ... : ... .. . ... : ... .. . ...
ROW 32 : G#3 0C . ... : C-4 0C . ... : D#2 00 . ... : ... .. . ... : ... .. . ... : D#1 01 . ... : ... .. . ... : ... .. . ...
ROW 33 : ... .. . ... : ... .. . ... : --- .. . ... : ... .. . ... : ... .. . ... : --- .. . ... : ... .. . ... : ... .. . ...
ROW 34 : D#3 0C . ... : G#3 0C . ... : D#2 00 . ... : F-# 03 A ... : ... .. . ... : D#1 01 . ... : ... .. . ... : ... .. . ...
ROW 35 : ... .. . ... : ... .. . ... : --- .. . ... : ... .. . ... : ... .. . ... : --- .. . ... : ... .. . ... : ... .. . ...
ROW 36 : C-3 0C . ... : D#3 0C . ... : D#2 00 . ... : F-# 03 8 ... : ... .. . ... : D#1 01 . ... : ... .. . ... : ... .. . ...
ROW 37 : ... .. . ... : ... .. . ... : --- .. . ... : ... .. . ... : ... .. . ... : --- .. . ... : ... .. . ... : ... .. . ...
ROW 38 : G#3 0C . ... : C-3 0C . ... : D#3 00 . ... : 4-# 03 C ... : ... .. . ... : D#1 01 . ... : ... .. . ... : D#3 07 . ...
ROW 39 : ... .. . ... : ... .. . ... : --- .. . ... : ... .. . ... : ... .. . ... : --- .. . ... : ... .. . ... : ... .. . ...
ROW 3A : D#3 0C . ... : G#3 0C . ... : D#2 00 . ... : 8-# 03 4 ... : ... .. . ... : D#1 01 . ... : D#3 07 . ... : ... .. . ...
ROW 3B : ... .. . ... : ... .. . ... : --- .. . ... : 8-# 03 5 ... : ... .. . ... : --- .. . ... : ... .. . ... : ... .. . ...
ROW 3C : C-3 0C . ... : D#3 0C . ... : D#2 00 . ... : F-# 03 A ... : ... .. . ... : D#1 01 . ... : ... .. . ... : G-3 07 . ...
ROW 3D : ... .. . ... : ... .. . ... : --- .. . ... : ... .. . ... : ... .. . ... : --- .. . ... : ... .. . ... : ... .. . ...
ROW 3E : G#2 0C . ... : C-3 0C . ... : D#2 00 . ... : F-# 03 8 ... : ... .. . ... : D#1 01 . ... : G-3 07 . ... : ... .. . ...
ROW 3F : ... .. . ... : ... .. . ... : --- .. . ... : ... .. . ... : ... .. . ... : --- .. . ... : ... .. . ... : ... .. . ...
ROW 40 : C-4 0C . ... : G#2 0C . ... : F-2 00 . ... : F-# 03 C ... : ... .. . ... : F-1 01 . ... : ... .. . ... : F-3 07 . ...
ROW 41 : ... .. . ... : ... .. . ... : --- .. . ... : ... .. . ... : ... .. . ... : --- .. . ... : ... .. . ... : ... .. . ...
ROW 42 : G#3 0C . ... : C-4 0C . ... : F-2 00 . ... : ... .. . ... : ... .. . ... : F-1 01 . ... : F-3 07 . ... : ... .. . ...
ROW 43 : ... .. . ... : ... .. . ... : --- .. . ... : ... .. . ... : ... .. . ... : --- .. . ... : ... .. . ... : ... .. . ...
ROW 44 : F-3 0C . ... : G#3 0C . ... : F-2 00 . ... : F-# 03 A ... : ... .. . ... : F-1 01 . ... : ... .. . ... : ... .. . ...
ROW 45 : ... .. . ... : ... .. . ... : --- .. . ... : ... .. . ... : ... .. . ... : --- .. . ... : ... .. . ... : ... .. . ...
ROW 46 : C-3 0C . ... : F-3 0C . ... : F-2 00 . ... : F-# 03 8 ... : ... .. . ... : F-1 01 . ... : ... .. . ... : ... .. . ...
ROW 47 : ... .. . ... : ... .. . ... : --- .. . ... : ... .. . ... : ... .. . ... : --- .. . ... : ... .. . ... : ... .. . ...
ROW 48 : G#3 0C . ... : C-3 0C . ... : F-3 00 . ... : 4-# 03 C ... : ... .. . ... : F-1 01 . ... : ... .. . ... : ... .. . ...
ROW 49 : ... .. . ... : ... .. . ... : --- .. . ... : ... .. . ... : ... .. . ... : --- .. . ... : ... .. . ... : ... .. . ...
ROW 4A : F-3 0C . ... : G#3 0C . ... : F-2 00 . ... : 8-# 03 4 ... : ... .. . ... : F-1 01 . ... : ... .. . ... : ... .. . ...
ROW 4B : ... .. . ... : ... .. . ... : --- .. . ... : 8-# 03 5 ... : ... .. . ... : --- .. . ... : ... .. . ... : ... .. . ...
ROW 4C : C-3 0C . ... : F-3 0C . ... : F-2 00 . ... : F-# 03 A ... : ... .. . ... : F-1 01 . ... : ... .. . ... : ... .. . ...
ROW 4D : ... .. . ... : ... .. . ... : --- .. . ... : ... .. . ... : ... .. . ... : --- .. . ... : ... .. . ... : ... .. . ...
ROW 4E : G#2 0C . ... : C-3 0C . ... : F-2 00 . ... : F-# 03 8 ... : ... .. . ... : F-1 01 . ... : ... .. . ... : ... .. . ...
ROW 4F : ... .. . ... : ... .. . ... : --- .. . ... : ... .. . ... : ... .. . ... : --- .. . ... : ... .. . ... : ... .. . ...
ROW 50 : C-4 0C . ... : G#2 0C . ... : F-2 00 . ... : F-# 03 C ... : ... .. . ... : F-1 01 . ... : ... .. . ... : ... .. . ...
ROW 51 : ... .. . ... : ... .. . ... : --- .. . ... : ... .. . ... : ... .. . ... : --- .. . ... : ... .. . ... : ... .. . ...
ROW 52 : G#3 0C . ... : C-4 0C . ... : F-2 00 . ... : ... .. . ... : ... .. . ... : F-1 01 . ... : ... .. . ... : ... .. . ...
ROW 53 : ... .. . ... : ... .. . ... : --- .. . ... : ... .. . ... : ... .. . ... : --- .. . ... : ... .. . ... : ... .. . ...
ROW 54 : F-3 0C . ... : G#3 0C . ... : F-2 00 . ... : F-# 03 A ... : ... .. . ... : F-1 01 . ... : ... .. . ... : ... .. . ...
ROW 55 : ... .. . ... : ... .. . ... : --- .. . ... : ... .. . ... : ... .. . ... : --- .. . ... : ... .. . ... : ... .. . ...
ROW 56 : C-3 0C . ... : F-3 0C . ... : F-2 00 . ... : F-# 03 8 ... : ... .. . ... : F-1 01 . ... : ... .. . ... : ... .. . ...
ROW 57 : ... .. . ... : ... .. . ... : --- .. . ... : ... .. . ... : ... .. . ... : --- .. . ... : ... .. . ... : ... .. . ...
ROW 58 : G#3 0C . ... : C-3 0C . ... : F-3 00 . ... : 4-# 03 C ... : ... .. . ... : F-1 01 . ... : ... .. . ... : D#3 07 . ...
ROW 59 : ... .. . ... : ... .. . ... : --- .. . ... : ... .. . ... : ... .. . ... : --- .. . ... : ... .. . ... : ... .. . ...
ROW 5A : F-3 0C . ... : G#3 0C . ... : F-2 00 . ... : 8-# 03 4 ... : ... .. . ... : F-1 01 . ... : D#3 07 . ... : ... .. . ...
ROW 5B : ... .. . ... : ... .. . ... : --- .. . ... : 8-# 03 5 ... : ... .. . ... : --- .. . ... : ... .. . ... : ... .. . ...
ROW 5C : C-3 0C . ... : F-3 0C . ... : F-2 00 . ... : F-# 03 A ... : ... .. . ... : F-1 01 . ... : ... .. . ... : F-3 07 . ...
ROW 5D : ... .. . ... : ... .. . ... : --- .. . ... : ... .. . ... : ... .. . ... : --- .. . ... : ... .. . ... : ... .. . ...
ROW 5E : G#2 0C . ... : C-3 0C . ... : F-2 00 . ... : F-# 03 8 ... : ... .. . ... : F-1 01 . ... : F-3 07 . ... : ... .. . ...
ROW 5F : ... .. . ... : ... .. . ... : --- .. . ... : ... .. . ... : ... .. . ... : --- .. . ... : ... .. . ... : ... .. . ...
ROW 60 : C-4 0C . ... : G#2 0C . ... : D#2 00 . ... : F-# 03 C ... : ... .. . ... : D#1 01 . ... : ... .. . ... : F-3 07 . ...
ROW 61 : ... .. . ... : ... .. . ... : --- .. . ... : ... .. . ... : ... .. . ... : --- .. . ... : ... .. . ... : ... .. . ...
ROW 62 : G#3 0C . ... : C-4 0C . ... : D#2 00 . ... : ... .. . ... : ... .. . ... : D#1 01 . ... : F-3 07 . ... : ... .. . ...
ROW 63 : ... .. . ... : ... .. . ... : --- .. . ... : ... .. . ... : ... .. . ... : --- .. . ... : ... .. . ... : ... .. . ...
ROW 64 : D#3 0C . ... : G#3 0C . ... : D#2 00 . ... : F-# 03 A ... : ... .. . ... : D#1 01 . ... : ... .. . ... : ... .. . ...
ROW 65 : ... .. . ... : ... .. . ... : --- .. . ... : ... .. . ... : ... .. . ... : --- .. . ... : ... .. . ... : ... .. . ...
ROW 66 : C-3 0C . ... : D#3 0C . ... : D#2 00 . ... : F-# 03 8 ... : ... .. . ... : D#1 01 . ... : ... .. . ... : G#3 07 . ...
ROW 67 : ... .. . ... : ... .. . ... : --- .. . ... : ... .. . ... : ... .. . ... : --- .. . ... : ... .. . ... : ... .. . ...
ROW 68 : G#3 0C . ... : C-3 0C . ... : D#3 00 . ... : 4-# 03 C ... : ... .. . ... : D#1 01 . ... : G#3 07 . ... : ... .. . ...
ROW 69 : ... .. . ... : ... .. . ... : --- .. . ... : ... .. . ... : ... .. . ... : --- .. . ... : ... .. . ... : ... .. . ...
ROW 6A : D#3 0C . ... : G#3 0C . ... : D#2 00 . ... : 8-# 03 4 ... : ... .. . ... : D#1 01 . ... : ... .. . ... : ... .. . ...
ROW 6B : ... .. . ... : ... .. . ... : --- .. . ... : 8-# 03 5 ... : ... .. . ... : --- .. . ... : ... .. . ... : ... .. . ...
ROW 6C : C-3 0C . ... : D#3 0C . ... : D#2 00 . ... : F-# 03 A ... : ... .. . ... : D#1 01 . ... : ... .. . ... : A#3 07 . ...
ROW 6D : ... .. . ... : ... .. . ... : --- .. . ... : ... .. . ... : ... .. . ... : --- .. . ... : ... .. . ... : ... .. . ...
ROW 6E : G#2 0C . ... : C-3 0C . ... : D#2 00 . ... : F-# 03 8 ... : ... .. . ... : D#1 01 . ... : A#3 07 . ... : ... .. . ...
ROW 6F : ... .. . ... : ... .. . ... : --- .. . ... : ... .. . ... : ... .. . ... : --- .. . ... : ... .. . ... : ... .. . ...
ROW 70 : C-4 0C . ... : G#2 0C . ... : D#2 00 . ... : F-# 03 C ... : ... .. . ... : D#1 01 . ... : ... .. . ... : C-4 07 . ...
ROW 71 : ... .. . ... : ... .. . ... : --- .. . ... : ... .. . ... : ... .. . ... : --- .. . ... : ... .. . ... : ... .. . ...
ROW 72 : G#3 0C . ... : C-4 0C . ... : D#2 00 . ... : ... .. . ... : ... .. . ... : D#1 01 . ... : C-4 07 . ... : ... .. . ...
ROW 73 : ... .. . ... : ... .. . ... : --- .. . ... : ... .. . ... : ... .. . ... : --- .. . ... : ... .. . ... : ... .. . ...
ROW 74 : D#3 0C . ... : G#3 0C . ... : D#2 00 . ... : F-# 03 A ... : ... .. . ... : D#1 01 . ... : ... .. . ... : ... .. . ...
ROW 75 : ... .. . ... : ... .. . ... : --- .. . ... : ... .. . ... : ... .. . ... : --- .. . ... : ... .. . ... : ... .. . ...
ROW 76 : C-3 0C . ... : D#3 0C . ... : D#2 00 . ... : F-# 03 8 ... : ... .. . ... : D#1 01 . ... : ... .. . ... : A#3 07 . ...
ROW 77 : ... .. . ... : ... .. . ... : --- .. . ... : ... .. . ... : ... .. . ... : --- .. . ... : ... .. . ... : ... .. . ...
ROW 78 : G#3 0C . ... : C-3 0C . ... : D#3 00 . ... : 4-# 03 C ... : ... .. . ... : D#1 01 . ... : A#3 07 . ... : ... .. . ...
ROW 79 : ... .. . ... : ... .. . ... : --- .. . ... : ... .. . ... : ... .. . ... : --- .. . ... : ... .. . ... : ... .. . ...
ROW 7A : D#3 0C . ... : G#3 0C . ... : D#2 00 . ... : 8-# 03 4 ... : ... .. . ... : D#1 01 . ... : ... .. . ... : ... .. . ...
ROW 7B : ... .. . ... : ... .. . ... : --- .. . ... : 8-# 03 5 ... : ... .. . ... : --- .. . ... : ... .. . ... : ... .. . ...
ROW 7C : C-3 0C . ... : D#3 0C . ... : D#2 00 . ... : F-# 03 A ... : ... .. . ... : D#1 01 . ... : ... .. . ... : G#3 07 . ...
ROW 7D : ... .. . ... : ... .. . ... : --- .. . ... : ... .. . ... : ... .. . ... : --- .. . ... : ... .. . ... : ... .. . ...
ROW 7E : G#2 0C . ... : C-3 0C . ... : D#2 00 . ... : F-# 03 8 ... : ... .. . ... : D#1 01 . ... : ... .. . ... : ... .. . ...
ROW 7F : ... .. . ... : ... .. . ... : --- .. . ... : ... .. . ... : ... .. . ... : --- .. . ... : ... .. . ... : ... .. . ...

PATTERN 02
ROW 00 : C-4 0C C ... : ... .. . ... : C-2 00 . ... : F-# 03 C ... : ... .. . ... : C-1 01 . ... : ... .. . ... : G-3 07 . ...
ROW 01 : ... .. . ... : ... .. . ... : --- .. . ... : ... .. . ... : ... .. . ... : --- .. . ... : ... .. . ... : ... .. . ...
ROW 02 : G-3 0C . ... : C-4 0C 4 ... : C-2 00 . ... : ... .. . ... : ... .. . ... : C-1 01 . ... : G-3 07 5 ... : ... .. . ...
ROW 03 : ... .. . ... : ... .. . ... : --- 00 . ... : ... .. . ... : ... .. . ... : --- .. . ... : ... .. . ... : ... .. . ...
ROW 04 : D#3 0C . ... : G-3 0C . ... : C-2 00 . ... : F-# 03 A ... : ... .. . ... : C-1 01 . ... : ... .. . ... : ... .. . ...
ROW 05 : ... .. . ... : ... .. . ... : --- 00 . ... : ... .. . ... : ... .. . ... : --- .. . ... : ... .. . ... : ... .. . ...
ROW 06 : C-3 0C . ... : D#3 0C . ... : C-2 00 . ... : F-# 03 8 ... : ... .. . ... : C-1 01 . ... : ... .. . ... : C-3 07 . ...
ROW 07 : ... .. . ... : ... .. . ... : --- .. . ... : ... .. . ... : ... .. . ... : --- .. . ... : ... .. . ... : ... .. . ...
ROW 08 : G-3 0C . ... : C-3 0C . ... : C-3 00 . ... : 4-# 03 C ... : ... .. . ... : C-1 01 . ... : C-3 07 . ... : ... .. . ...
ROW 09 : ... .. . ... : ... .. . ... : --- .. . ... : ... .. . ... : ... .. . ... : --- .. . ... : ... .. . ... : ... .. . ...
ROW 0A : D#3 0C . ... : G-3 0C . ... : C-2 00 . ... : 8-# 03 4 ... : ... .. . ... : C-1 01 . ... : ... .. . ... : ... .. . ...
ROW 0B : ... .. . ... : ... .. . ... : --- .. . ... : 8-# 03 5 ... : ... .. . ... : --- .. . ... : ... .. . ... : ... .. . ...
ROW 0C : C-3 0C . ... : D#3 0C . ... : C-2 00 . ... : F-# 03 A ... : ... .. . ... : C-1 01 . ... : ... .. . ... : D#3 07 . ...
ROW 0D : ... .. . ... : ... .. . ... : --- .. . ... : ... .. . ... : ... .. . ... : --- .. . ... : ... .. . ... : ... .. . ...
ROW 0E : G-2 0C . ... : C-3 0C . ... : C-2 00 . ... : F-# 03 8 ... : ... .. . ... : C-1 01 . ... : D#3 07 . ... : ... .. . ...
ROW 0F : ... .. . ... : ... .. . ... : --- .. . ... : ... .. . ... : ... .. . ... : --- .. . ... : ... .. . ... : ... .. . ...
ROW 10 : C-4 0C . ... : G-2 0C . ... : C-2 00 . ... : F-# 03 C ... : ... .. . ... : C-1 01 . ... : ... .. . ... : D#3 07 . ...
ROW 11 : ... .. . ... : ... .. . ... : --- .. . ... : ... .. . ... : ... .. . ... : --- .. . ... : ... .. . ... : ... .. . ...
ROW 12 : G-3 0C . ... : C-4 0C . ... : C-2 00 . ... : ... .. . ... : ... .. . ... : C-1 01 . ... : D#3 07 . ... : ... .. . ...
ROW 13 : ... .. . ... : ... .. . ... : --- .. . ... : ... .. . ... : ... .. . ... : --- .. . ... : ... .. . ... : ... .. . ...
ROW 14 : D#3 0C . ... : G-3 0C . ... : C-2 00 . ... : F-# 03 A ... : ... .. . ... : C-1 01 . ... : ... .. . ... : ... .. . ...
ROW 15 : ... .. . ... : ... .. . ... : --- .. . ... : ... .. . ... : ... .. . ... : --- .. . ... : ... .. . ... : ... .. . ...
ROW 16 : C-3 0C . ... : D#3 0C . ... : C-2 00 . ... : F-# 03 8 ... : ... .. . ... : C-1 01 . ... : ... .. . ... : D-3 07 . ...
ROW 17 : ... .. . ... : ... .. . ... : --- .. . ... : ... .. . ... : ... .. . ... : --- .. . ... : ... .. . ... : ... .. . ...
ROW 18 : G-3 0C . ... : C-3 0C . ... : C-3 00 . ... : 4-# 03 C ... : ... .. . ... : C-1 01 . ... : D-3 07 . ... : ... .. . ...
ROW 19 : ... .. . ... : ... .. . ... : --- .. . ... : ... .. . ... : ... .. . ... : --- .. . ... : ... .. . ... : ... .. . ...
ROW 1A : D#3 0C . ... : G-3 0C . ... : C-2 00 . ... : 8-# 03 4 ... : ... .. . ... : C-1 01 . ... : ... .. . ... : ... .. . ...
ROW 1B : ... .. . ... : ... .. . ... : --- .. . ... : 8-# 03 5 ... : ... .. . ... : --- .. . ... : ... .. . ... : ... .. . ...
ROW 1C : C-3 0C . ... : D#3 0C . ... : C-2 00 . ... : F-# 03 A ... : ... .. . ... : C-1 01 . ... : ... .. . ... : C-3 07 . ...
ROW 1D : ... .. . ... : ... .. . ... : --- .. . ... : ... .. . ... : ... .. . ... : --- .. . ... : ... .. . ... : ... .. . ...
ROW 1E : G-2 0C . ... : C-3 0C . ... : C-2 00 . ... : F-# 03 8 ... : ... .. . ... : C-1 01 . ... : C-3 07 . ... : ... .. . ...
ROW 1F : ... .. . ... : ... .. . ... : --- .. . ... : ... .. . ... : ... .. . ... : --- .. . ... : ... .. . ... : ... .. . ...
ROW 20 : C-4 0C . ... : G-2 0C . ... : D#2 00 . ... : F-# 03 C ... : ... .. . ... : D#1 01 . ... : ... .. . ... : D#3 07 . ...
ROW 21 : ... .. . ... : ... .. . ... : --- .. . ... : ... .. . ... : ... .. . ... : --- .. . ... : ... .. . ... : ... .. . ...
ROW 22 : G#3 0C . ... : C-4 0C . ... : D#2 00 . ... : ... .. . ... : ... .. . ... : D#1 01 . ... : D#3 07 . ... : ... .. . ...
ROW 23 : ... .. . ... : ... .. . ... : --- .. . ... : ... .. . ... : ... .. . ... : --- .. . ... : ... .. . ... : ... .. . ...
ROW 24 : D#3 0C . ... : G#3 0C . ... : D#2 00 . ... : F-# 03 A ... : ... .. . ... : D#1 01 . ... : ... .. . ... : ... .. . ...
ROW 25 : ... .. . ... : ... .. . ... : --- .. . ... : ... .. . ... : ... .. . ... : --- .. . ... : ... .. . ... : ... .. . ...
ROW 26 : C-3 0C . ... : D#3 0C . ... : D#2 00 . ... : F-# 03 8 ... : ... .. . ... : D#1 01 . ... : ... .. . ... : D#3 07 . ...
ROW 27 : ... .. . ... : ... .. . ... : --- .. . ... : ... .. . ... : ... .. . ... : --- .. . ... : ... .. . ... : ... .. . ...
ROW 28 : G#3 0C . ... : C-3 0C . ... : D#3 00 . ... : 4-# 03 C ... : ... .. . ... : D#1 01 . ... : D#3 07 . ... : ... .. . ...
ROW 29 : ... .. . ... : ... .. . ... : --- .. . ... : ... .. . ... : ... .. . ... : --- .. . ... : ... .. . ... : ... .. . ...
ROW 2A : D#3 0C . ... : G#3 0C . ... : D#2 00 . ... : 8-# 03 4 ... : ... .. . ... : D#1 01 . ... : ... .. . ... : ... .. . ...
ROW 2B : ... .. . ... : ... .. . ... : --- .. . ... : 8-# 03 5 ... : ... .. . ... : --- .. . ... : ... .. . ... : ... .. . ...
ROW 2C : C-3 0C . ... : D#3 0C . ... : D#2 00 . ... : F-# 03 A ... : ... .. . ... : D#1 01 . ... : ... .. . ... : F-3 07 . ...
ROW 2D : ... .. . ... : ... .. . ... : --- .. . ... : ... .. . ... : ... .. . ... : --- .. . ... : ... .. . ... : ... .. . ...
ROW 2E : G#2 0C . ... : C-3 0C . ... : D#2 00 . ... : F-# 03 8 ... : ... .. . ... : D#1 01 . ... : F-3 07 . ... : ... .. . ...
ROW 2F : ... .. . ... : ... .. . ... : --- .. . ... : ... .. . ... : ... .. . ... : --- .. . ... : ... .. . ... : ... .. . ...
ROW 30 : C-4 0C . ... : G#2 0C . ... : D#2 00 . ... : F-# 03 C ... : ... .. . ... : D#1 01 . ... : ... .. . ... : G#3 07 . ...
ROW 31 : ... .. . ... : ... .. . ... : --- .. . ... : ... .. . ... : ... .. . ... : --- .. . ... : ... .. . ... : ... .. . ...
ROW 32 : G#3 0C . ... : C-4 0C . ... : D#2 00 . ... : ... .. . ... : ... .. . ... : D#1 01 . ... : G#3 07 . ... : ... .. . ...
ROW 33 : ... .. . ... : ... .. . ... : --- .. . ... : ... .. . ... : ... .. . ... : --- .. . ... : ... .. . ... : ... .. . ...
ROW 34 : D#3 0C . ... : G#3 0C . ... : D#2 00 . ... : F-# 03 A ... : ... .. . ... : D#1 01 . ... : ... .. . ... : ... .. . ...
ROW 35 : ... .. . ... : ... .. . ... : --- .. . ... : ... .. . ... : ... .. . ... : --- .. . ... : ... .. . ... : ... .. . ...
ROW 36 : C-3 0C . ... : D#3 0C . ... : D#2 00 . ... : F-# 03 8 ... : ... .. . ... : D#1 01 . ... : ... .. . ... : G-3 07 . ...
ROW 37 : ... .. . ... : ... .. . ... : --- .. . ... : ... .. . ... : ... .. . ... : --- .. . ... : ... .. . ... : ... .. . ...
ROW 38 : G#3 0C . ... : C-3 0C . ... : D#3 00 . ... : 4-# 03 C ... : ... .. . ... : D#1 01 . ... : G-3 07 . ... : ... .. . ...
ROW 39 : ... .. . ... : ... .. . ... : --- .. . ... : ... .. . ... : ... .. . ... : --- .. . ... : ... .. . ... : ... .. . ...
ROW 3A : D#3 0C . ... : G#3 0C . ... : D#2 00 . ... : 8-# 03 4 ... : ... .. . ... : D#1 01 . ... : ... .. . ... : ... .. . ...
ROW 3B : ... .. . ... : ... .. . ... : --- .. . ... : 8-# 03 5 ... : ... .. . ... : --- .. . ... : ... .. . ... : ... .. . ...
ROW 3C : C-3 0C . ... : D#3 0C . ... : D#2 00 . ... : F-# 03 A ... : ... .. . ... : D#1 01 . ... : ... .. . ... : G#3 07 . ...
ROW 3D : ... .. . ... : ... .. . ... : --- .. . ... : ... .. . ... : ... .. . ... : --- .. . ... : ... .. . ... : ... .. . ...
ROW 3E : G#2 0C . ... : C-3 0C . ... : D#2 00 . ... : F-# 03 8 ... : ... .. . ... : D#1 01 . ... : G#3 07 . ... : ... .. . ...
ROW 3F : ... .. . ... : ... .. . ... : --- .. . ... : ... .. . ... : ... .. . ... : --- .. . ... : ... .. . ... : ... .. . ...
ROW 40 : C-4 0C . ... : G#2 0C . ... : F-2 00 . ... : F-# 03 C ... : ... .. . ... : F-1 01 . ... : ... .. . ... : F-3 07 . ...
ROW 41 : ... .. . ... : ... .. . ... : --- .. . ... : ... .. . ... : ... .. . ... : --- .. . ... : ... .. . ... : ... .. . ...
ROW 42 : G#3 0C . ... : C-4 0C . ... : F-2 00 . ... : ... .. . ... : ... .. . ... : F-1 01 . ... : F-3 07 . ... : ... .. . ...
ROW 43 : ... .. . ... : ... .. . ... : --- .. . ... : ... .. . ... : ... .. . ... : --- .. . ... : ... .. . ... : ... .. . ...
ROW 44 : F-3 0C . ... : G#3 0C . ... : F-2 00 . ... : F-# 03 A ... : ... .. . ... : F-1 01 . ... : ... .. . ... : ... .. . ...
ROW 45 : ... .. . ... : ... .. . ... : --- .. . ... : ... .. . ... : ... .. . ... : --- .. . ... : ... .. . ... : ... .. . ...
ROW 46 : C-3 0C . ... : F-3 0C . ... : F-2 00 . ... : F-# 03 8 ... : ... .. . ... : F-1 01 . ... : ... .. . ... : ... .. . ...
ROW 47 : ... .. . ... : ... .. . ... : --- .. . ... : ... .. . ... : ... .. . ... : --- .. . ... : ... .. . ... : ... .. . ...
ROW 48 : G#3 0C . ... : C-3 0C . ... : F-3 00 . ... : 4-# 03 C ... : ... .. . ... : F-1 01 . ... : ... .. . ... : ... .. . ...
ROW 49 : ... .. . ... : ... .. . ... : --- .. . ... : ... .. . ... : ... .. . ... : --- .. . ... : ... .. . ... : ... .. . ...
ROW 4A : F-3 0C . ... : G#3 0C . ... : F-2 00 . ... : 8-# 03 4 ... : ... .. . ... : F-1 01 . ... : ... .. . ... : ... .. . ...
ROW 4B : ... .. . ... : ... .. . ... : --- .. . ... : 8-# 03 5 ... : ... .. . ... : --- .. . ... : ... .. . ... : ... .. . ...
ROW 4C : C-3 0C . ... : F-3 0C . ... : F-2 00 . ... : F-# 03 A ... : ... .. . ... : F-1 01 . ... : ... .. . ... : ... .. . ...
ROW 4D : ... .. . ... : ... .. . ... : --- .. . ... : ... .. . ... : ... .. . ... : --- .. . ... : ... .. . ... : ... .. . ...
ROW 4E : G#2 0C . ... : C-3 0C . ... : F-2 00 . ... : F-# 03 8 ... : ... .. . ... : F-1 01 . ... : ... .. . ... : ... .. . ...
ROW 4F : ... .. . ... : ... .. . ... : --- .. . ... : ... .. . ... : ... .. . ... : --- .. . ... : ... .. . ... : ... .. . ...
ROW 50 : C-4 0C . ... : G#2 0C . ... : F-2 00 . ... : F-# 03 C ... : ... .. . ... : F-1 01 . ... : ... .. . ... : ... .. . ...
ROW 51 : ... .. . ... : ... .. . ... : --- .. . ... : ... .. . ... : ... .. . ... : --- .. . ... : ... .. . ... : ... .. . ...
ROW 52 : G#3 0C . ... : C-4 0C . ... : F-2 00 . ... : ... .. . ... : ... .. . ... : F-1 01 . ... : ... .. . ... : ... .. . ...
ROW 53 : ... .. . ... : ... .. . ... : --- .. . ... : ... .. . ... : ... .. . ... : --- .. . ... : ... .. . ... : ... .. . ...
ROW 54 : F-3 0C . ... : G#3 0C . ... : F-2 00 . ... : F-# 03 A ... : ... .. . ... : F-1 01 . ... : ... .. . ... : ... .. . ...
ROW 55 : ... .. . ... : ... .. . ... : --- .. . ... : ... .. . ... : ... .. . ... : --- .. . ... : ... .. . ... : ... .. . ...
ROW 56 : C-3 0C . ... : F-3 0C . ... : F-2 00 . ... : F-# 03 8 ... : ... .. . ... : F-1 01 . ... : ... .. . ... : ... .. . ...
ROW 57 : ... .. . ... : ... .. . ... : --- .. . ... : ... .. . ... : ... .. . ... : --- .. . ... : ... .. . ... : ... .. . ...
ROW 58 : G#3 0C . ... : C-3 0C . ... : F-3 00 . ... : 4-# 03 C ... : ... .. . ... : F-1 01 . ... : ... .. . ... : F-3 07 . ...
ROW 59 : ... .. . ... : ... .. . ... : --- .. . ... : ... .. . ... : ... .. . ... : --- .. . ... : ... .. . ... : ... .. . ...
ROW 5A : F-3 0C . ... : G#3 0C . ... : F-2 00 . ... : 8-# 03 4 ... : ... .. . ... : F-1 01 . ... : F-3 07 . ... : ... .. . ...
ROW 5B : ... .. . ... : ... .. . ... : --- .. . ... : 8-# 03 5 ... : ... .. . ... : --- .. . ... : ... .. . ... : ... .. . ...
ROW 5C : C-3 0C . ... : F-3 0C . ... : F-2 00 . ... : F-# 03 A ... : ... .. . ... : F-1 01 . ... : ... .. . ... : G-3 07 . ...
ROW 5D : ... .. . ... : ... .. . ... : --- .. . ... : ... .. . ... : ... .. . ... : --- .. . ... : ... .. . ... : ... .. . ...
ROW 5E : G#2 0C . ... : C-3 0C . ... : F-2 00 . ... : F-# 03 8 ... : ... .. . ... : F-1 01 . ... : G-3 07 . ... : ... .. . ...
ROW 5F : ... .. . ... : ... .. . ... : --- .. . ... : ... .. . ... : ... .. . ... : --- .. . ... : ... .. . ... : ... .. . ...
ROW 60 : B-3 0C . ... : G#2 0C . ... : D-2 00 . ... : 4-# 03 C ... : ... .. . ... : B-0 01 . ... : ... .. . ... : G-3 07 . ...
ROW 61 : ... .. . ... : ... .. . ... : --- .. . ... : ... .. . ... : ... .. . ... : --- .. . ... : ... .. . ... : ... .. . ...
ROW 62 : G-3 0C . ... : B-3 0C . ... : D-2 00 . ... : ... .. . ... : ... .. . ... : B-0 01 . ... : G-3 07 . ... : ... .. . ...
ROW 63 : ... .. . ... : ... .. . ... : --- .. . ... : ... .. . ... : ... .. . ... : --- .. . ... : ... .. . ... : ... .. . ...
ROW 64 : D-3 0C . ... : G-3 0C . ... : D-2 00 . ... : F-# 03 A ... : ... .. . ... : B-0 01 . ... : ... .. . ... : ... .. . ...
ROW 65 : ... .. . ... : ... .. . ... : --- .. . ... : ... .. . ... : ... .. . ... : --- .. . ... : ... .. . ... : ... .. . ...
ROW 66 : B-2 0C . ... : D-3 0C . ... : D-2 00 . ... : 4-# 03 8 ... : ... .. . ... : B-0 01 . ... : ... .. . ... : D-3 07 . ...
ROW 67 : ... .. . ... : ... .. . ... : --- .. . ... : ... .. . ... : ... .. . ... : --- .. . ... : ... .. . ... : ... .. . ...
ROW 68 : G-3 0C . ... : B-2 0C . ... : D-3 00 . ... : D-# 03 C ... : ... .. . ... : B-0 01 . ... : D-3 07 . ... : ... .. . ...
ROW 69 : ... .. . ... : ... .. . ... : --- .. . ... : ... .. . ... : ... .. . ... : --- .. . ... : ... .. . ... : ... .. . ...
ROW 6A : D-3 0C . ... : G-3 0C . ... : D-2 00 . ... : 8-# 03 4 ... : ... .. . ... : B-0 01 . ... : ... .. . ... : ... .. . ...
ROW 6B : ... .. . ... : ... .. . ... : --- .. . ... : 8-# 03 5 ... : ... .. . ... : --- .. . ... : ... .. . ... : ... .. . ...
ROW 6C : B-2 0C . ... : D-3 0C . ... : D-2 00 . ... : 4-# 03 A ... : ... .. . ... : B-0 01 . ... : ... .. . ... : D#3 07 . ...
ROW 6D : ... .. . ... : ... .. . ... : --- .. . ... : ... .. . ... : ... .. . ... : --- .. . ... : ... .. . ... : ... .. . ...
ROW 6E : G-2 0C . ... : B-2 0C . ... : D-2 00 . ... : 4-# 03 8 ... : ... .. . ... : B-0 01 . ... : D#3 07 . ... : ... .. . ...
ROW 6F : ... .. . ... : ... .. . ... : --- .. . ... : ... .. . ... : ... .. . ... : --- .. . ... : ... .. . ... : ... .. . ...
ROW 70 : B-3 0C . ... : G-2 0C . ... : D-2 00 . ... : 4-# 03 C ... : ... .. . ... : B-0 01 . ... : ... .. . ... : D#3 07 . ...
ROW 71 : ... .. . ... : ... .. . ... : --- .. . ... : ... .. . ... : ... .. . ... : --- .. . ... : ... .. . ... : ... .. . ...
ROW 72 : G-3 0C . ... : B-3 0C . ... : D-2 00 . ... : ... .. . ... : ... .. . ... : B-0 01 . ... : D#3 07 . ... : ... .. . ...
ROW 73 : ... .. . ... : ... .. . ... : --- .. . ... : ... .. . ... : ... .. . ... : --- .. . ... : ... .. . ... : ... .. . ...
ROW 74 : D-3 0C . ... : G-3 0C . ... : D-2 00 . ... : F-# 03 A ... : ... .. . ... : B-0 01 . ... : G-4 0F F ... : ... .. 7 ...
ROW 75 : ... .. . ... : ... .. . ... : --- .. . ... : ... .. . ... : ... .. . ... : --- .. . ... : ... .. . ... : ... .. . ...
ROW 76 : B-2 0C . ... : D-3 0C . ... : D-2 00 . ... : F-# 03 8 ... : ... .. . ... : B-0 01 . ... : ... .. . ... : D-3 07 . ...
ROW 77 : ... .. . ... : ... .. . ... : --- .. . ... : ... .. . ... : ... .. . ... : --- .. . ... : ... .. . ... : ... .. . ...
ROW 78 : G-3 0C . ... : B-2 0C . ... : D-3 00 . ... : 4-# 03 C ... : ... .. . ... : B-0 01 . ... : D-4 0F . ... : ... .. . ...
ROW 79 : ... .. . ... : ... .. . ... : --- .. . ... : ... .. . ... : ... .. . ... : --- .. . ... : ... .. . ... : ... .. . ...
ROW 7A : D-3 0C . ... : G-3 0C . ... : D-2 00 . ... : 2-# 03 2 ... : ... .. . ... : B-0 01 . ... : D#4 0F . ... : ... .. . ...
ROW 7B : ... .. . ... : ... .. . ... : --- .. . ... : 2-# 03 4 ... : ... .. . ... : --- .. . ... : ... .. . ... : ... .. . ...
ROW 7C : B-2 0C . ... : D-3 0C . ... : D-2 00 . ... : 2-# 03 6 ... : ... .. . ... : B-0 01 . ... : ... .. . ... : D#3 07 . ...
ROW 7D : ... .. . ... : ... .. . ... : --- .. . ... : 2-# 03 8 ... : ... .. . ... : --- .. . ... : ... .. . ... : ... .. . ...
ROW 7E : G-2 0C . ... : B-2 0C . ... : D-2 00 . ... : 4-# 03 F ... : ... .. . ... : B-0 01 . ... : ... .. . ... : ... .. . ...
ROW 7F : ... .. . ... : ... .. . ... : --- .. . ... : ... .. . ... : ... .. . ... : --- .. . ... : ... .. . ... : ... .. . ...

PATTERN 03
ROW 00 : C-3 0D C ... : ... .. . ... : C-2 00 . ... : F-# 03 C ... : ... .. . ... : C-1 01 7 ... : C-4 0F F ... : --- .. . ...
ROW 01 : ... .. . ... : ... .. . ... : --- 0D . ... : ... .. . ... : ... .. . ... : --- 0D . ... : ... .. . ... : ... .. . ...
ROW 02 : G-2 0D . ... : C-3 0D 4 ... : C-2 00 . ... : ... .. . ... : ... .. . ... : C-1 01 . ... : ... .. . ... : C-4 07 2 ...
ROW 03 : ... .. . ... : ... .. . ... : --- 0D . ... : ... .. . ... : ... .. . ... : --- 0D . ... : ... .. . ... : ... .. . ...
ROW 04 : D#2 0D . ... : G-2 0D . ... : C-2 00 . ... : F-# 03 A ... : ... .. . ... : C-1 01 . ... : ... .. . ... : ... .. . ...
ROW 05 : ... .. . ... : ... .. . ... : --- 0D . ... : ... .. . ... : ... .. . ... : --- 0D . ... : ... .. . ... : ... .. . ...
ROW 06 : C-2 0D . ... : D#2 0D . ... : C-2 00 . ... : F-# 03 8 ... : ... .. . ... : C-1 01 . ... : ... .. . ... : ... .. . ...
ROW 07 : ... .. . ... : ... .. . ... : --- 0D . ... : ... .. . ... : ... .. . ... : --- 0D . ... : ... .. . ... : ... .. . ...
ROW 08 : G-2 0D . ... : C-2 0D . ... : C-3 00 . ... : 4-# 03 C ... : ... .. . ... : C-2 01 . ... : ... .. . ... : ... .. . ...
ROW 09 : ... .. . ... : ... .. . ... : --- 0D . ... : ... .. . ... : ... .. . ... : --- 0D . ... : ... .. . ... : ... .. . ...
ROW 0A : D#2 0D . ... : G-2 0D . ... : C-2 00 . ... : 8-# 03 4 ... : ... .. . ... : C-1 01 . ... : ... .. . ... : ... .. . ...
ROW 0B : ... .. . ... : ... .. . ... : --- .. . ... : 8-# 03 5 ... : ... .. . ... : --- .. . ... : ... .. . ... : ... .. . ...
ROW 0C : C-2 0D . ... : D#2 0D . ... : C-2 00 . ... : F-# 03 A ... : ... .. . ... : C-1 01 . ... : G-3 0F . ... : ... .. . ...
ROW 0D : ... .. . ... : ... .. . ... : --- .. . ... : ... .. . ... : ... .. . ... : --- .. . ... : ... .. . ... : ... .. . ...
ROW 0E : G-1 0D . ... : C-2 0D . ... : C-2 00 . ... : F-# 03 8 ... : ... .. . ... : C-1 01 . ... : F-3 0F . ... : G-3 07 . ...
ROW 0F : ... .. . ... : ... .. . ... : --- .. . ... : ... .. . ... : ... .. . ... : --- .. . ... : ... .. . ... : ... .. . ...
ROW 10 : C-3 0D . ... : G-1 0D . ... : C-2 00 . ... : F-# 03 C ... : ... .. . ... : C-1 01 . ... : D#3 0F . ... : F-3 07 . ...
ROW 11 : ... .. . ... : ... .. . ... : --- .. . ... : ... .. . ... : ... .. . ... : --- .. . ... : ... .. . ... : ... .. . ...
ROW 12 : G-2 0D . ... : C-3 0D . ... : C-2 00 . ... : ... .. . ... : ... .. . ... : C-1 01 . ... : ... .. . ... : D#3 07 . ...
ROW 13 : ... .. . ... : ... .. . ... : --- .. . ... : ... .. . ... : ... .. . ... : --- .. . ... : ... .. . ... : ... .. . ...
ROW 14 : D#2 0D . ... : G-2 0D . ... : C-2 00 . ... : F-# 03 A ... : ... .. . ... : C-1 01 . ... : ... .. . ... : ... .. . ...
ROW 15 : ... .. . ... : ... .. . ... : --- .. . ... : ... .. . ... : ... .. . ... : --- .. . ... : ... .. . ... : ... .. . ...
ROW 16 : C-2 0D . ... : D#2 0D . ... : C-2 00 . ... : F-# 03 8 ... : ... .. . ... : C-1 01 . ... : F-3 0F . ... : ... .. . ...
ROW 17 : ... .. . ... : ... .. . ... : --- .. . ... : ... .. . ... : ... .. . ... : --- .. . ... : ... .. . ... : ... .. . ...
ROW 18 : G-2 0D . ... : C-2 0D . ... : C-3 00 . ... : 4-# 03 C ... : ... .. . ... : C-2 01 . ... : ... .. . ... : F-3 07 . ...
ROW 19 : ... .. . ... : ... .. . ... : --- .. . ... : ... .. . ... : ... .. . ... : --- .. . ... : ... .. . ... : ... .. . ...
ROW 1A : D#2 0D . ... : G-2 0D . ... : C-2 00 . ... : 8-# 03 4 ... : ... .. . ... : C-1 01 . ... : ... .. . ... : ... .. . ...
ROW 1B : ... .. . ... : ... .. . ... : --- .. . ... : 8-# 03 5 ... : ... .. . ... : --- .. . ... : ... .. . ... : ... .. . ...
ROW 1C : C-2 0D . ... : D#2 0D . ... : C-2 00 . ... : F-# 03 A ... : ... .. . ... : C-1 01 . ... : G-3 0F . ... : ... .. . ...
ROW 1D : ... .. . ... : ... .. . ... : --- .. . ... : ... .. . ... : ... .. . ... : --- .. . ... : ... .. . ... : ... .. . ...
ROW 1E : G-1 0D . ... : C-2 0D . ... : C-2 00 . ... : F-# 03 8 ... : ... .. . ... : C-1 01 . ... : ... .. . ... : G-3 07 . ...
ROW 1F : ... .. . ... : ... .. . ... : --- .. . ... : ... .. . ... : ... .. . ... : --- .. . ... : ... .. . ... : ... .. . ...
ROW 20 : C-3 0D . ... : G-1 0D . ... : D#2 00 . ... : F-# 03 C ... : ... .. . ... : D#1 01 . ... : G#3 0F . ... : ... .. . ...
ROW 21 : ... .. . ... : ... .. . ... : --- .. . ... : ... .. . ... : ... .. . ... : --- .. . ... : ... .. . ... : ... .. . ...
ROW 22 : G#2 0D . ... : C-3 0D . ... : D#2 00 . ... : ... .. . ... : ... .. . ... : D#1 01 . ... : ... .. . ... : G#3 07 . ...
ROW 23 : ... .. . ... : ... .. . ... : --- .. . ... : ... .. . ... : ... .. . ... : --- .. . ... : ... .. . ... : ... .. . ...
ROW 24 : D#2 0D . ... : G#2 0D . ... : D#2 00 . ... : F-# 03 A ... : ... .. . ... : D#1 01 . ... : ... .. . ... : ... .. . ...
ROW 25 : ... .. . ... : ... .. . ... : --- .. . ... : ... .. . ... : ... .. . ... : --- .. . ... : ... .. . ... : ... .. . ...
ROW 26 : C-2 0D . ... : D#2 0D . ... : D#2 00 . ... : F-# 03 8 ... : ... .. . ... : D#1 01 . ... : D#3 0F . ... : ... .. . ...
ROW 27 : ... .. . ... : ... .. . ... : --- .. . ... : ... .. . ... : ... .. . ... : --- .. . ... : ... .. . ... : ... .. . ...
ROW 28 : G#2 0D . ... : C-2 0D . ... : D#3 00 . ... : 4-# 03 C ... : ... .. . ... : D#2 01 . ... : ... .. . ... : D#3 07 . ...
ROW 29 : ... .. . ... : ... .. . ... : --- 0D . ... : ... .. . ... : ... .. . ... : --- 0D . ... : ... .. . ... : ... .. . ...
ROW 2A : D#2 0D . ... : G#2 0D . ... : D#2 00 . ... : 8-# 03 4 ... : ... .. . ... : D#1 01 . ... : ... .. . ... : ... .. . ...
ROW 2B : ... .. . ... : ... .. . ... : --- .. . ... : 8-# 03 5 ... : ... .. . ... : --- .. . ... : ... .. . ... : ... .. . ...
ROW 2C : C-2 0D . ... : D#2 0D . ... : D#2 00 . ... : F-# 03 A ... : ... .. . ... : D#1 01 . ... : D-3 0F . ... : ... .. . ...
ROW 2D : ... .. . ... : ... .. . ... : --- .. . ... : ... .. . ... : ... .. . ... : --- .. . ... : ... .. . ... : ... .. . ...
ROW 2E : G#1 0D . ... : C-2 0D . ... : D#2 00 . ... : F-# 03 8 ... : ... .. . ... : D#1 01 . ... : ... .. . ... : D-3 07 . ...
ROW 2F : ... .. . ... : ... .. . ... : --- .. . ... : ... .. . ... : ... .. . ... : --- .. . ... : ... .. . ... : ... .. . ...
ROW 30 : C-3 0D . ... : G#1 0D . ... : D#2 00 . ... : F-# 03 C ... : ... .. . ... : D#1 01 . ... : C-3 0F . ... : ... .. . ...
ROW 31 : ... .. . ... : ... .. . ... : --- .. . ... : ... .. . ... : ... .. . ... : --- .. . ... : ... .. . ... : ... .. . ...
ROW 32 : G#2 0D . ... : C-3 0D . ... : D#2 00 . ... : ... .. . ... : ... .. . ... : D#1 01 . ... : ... .. . ... : C-3 07 . ...
ROW 33 : ... .. . ... : ... .. . ... : --- .. . ... : ... .. . ... : ... .. . ... : --- .. . ... : ... .. . ... : ... .. . ...
ROW 34 : D#2 0D . ... : G#2 0D . ... : D#2 00 . ... : F-# 03 A ... : ... .. . ... : D#1 01 . ... : ... .. . ... : ... .. . ...
ROW 35 : ... .. . ... : ... .. . ... : --- .. . ... : ... .. . ... : ... .. . ... : --- .. . ... : ... .. . ... : ... .. . ...
ROW 36 : C-2 0D . ... : D#2 0D . ... : D#2 00 . ... : F-# 03 8 ... : ... .. . ... : D#1 01 . ... : G#3 0F . ... : ... .. . ...
ROW 37 : ... .. . ... : ... .. . ... : --- .. . ... : ... .. . ... : ... .. . ... : --- .. . ... : ... .. . ... : ... .. . ...
ROW 38 : G#2 0D . ... : C-2 0D . ... : D#3 00 . ... : 4-# 03 C ... : ... .. . ... : D#2 01 . ... : ... .. . ... : G#3 07 . ...
ROW 39 : ... .. . ... : ... .. . ... : --- .. . ... : ... .. . ... : ... .. . ... : --- .. . ... : ... .. . ... : ... .. . ...
ROW 3A : D#2 0D . ... : G#2 0D . ... : D#2 00 . ... : 8-# 03 4 ... : ... .. . ... : D#1 01 . ... : ... .. . ... : ... .. . ...
ROW 3B : ... .. . ... : ... .. . ... : --- .. . ... : 8-# 03 5 ... : ... .. . ... : --- .. . ... : ... .. . ... : ... .. . ...
ROW 3C : C-2 0D . ... : D#2 0D . ... : D#2 00 . ... : F-# 03 A ... : ... .. . ... : D#1 01 . ... : G-3 0F . ... : ... .. . ...
ROW 3D : ... .. . ... : ... .. . ... : --- .. . ... : ... .. . ... : ... .. . ... : --- .. . ... : ... .. . ... : ... .. . ...
ROW 3E : G#1 0D . ... : C-2 0D . ... : D#2 00 . ... : F-# 03 8 ... : ... .. . ... : D#1 01 . ... : ... .. . ... : G-3 07 . ...
ROW 3F : ... .. . ... : ... .. . ... : --- .. . ... : ... .. . ... : ... .. . ... : --- .. . ... : ... .. . ... : ... .. . ...
ROW 40 : C-3 0D . ... : G#1 0D . ... : F-2 00 . ... : F-# 03 C ... : ... .. . ... : F-1 01 . ... : F-3 0F . ... : ... .. . ...
ROW 41 : ... .. . ... : ... .. . ... : --- .. . ... : ... .. . ... : ... .. . ... : --- .. . ... : ... .. . ... : ... .. . ...
ROW 42 : G#2 0D . ... : C-3 0D . ... : F-2 00 . ... : ... .. . ... : ... .. . ... : F-1 01 . ... : ... .. . ... : F-3 07 . ...
ROW 43 : ... .. . ... : ... .. . ... : --- .. . ... : ... .. . ... : ... .. . ... : --- .. . ... : ... .. . ... : ... .. . ...
ROW 44 : F-2 0D . ... : G#2 0D . ... : F-2 00 . ... : F-# 03 A ... : ... .. . ... : F-1 01 . ... : ... .. . ... : ... .. . ...
ROW 45 : ... .. . ... : ... .. . ... : --- .. . ... : ... .. . ... : ... .. . ... : --- .. . ... : ... .. . ... : ... .. . ...
ROW 46 : C-2 0D . ... : F-2 0D . ... : F-2 00 . ... : F-# 03 8 ... : ... .. . ... : F-1 01 . ... : D-3 0F . ... : ... .. . ...
ROW 47 : ... .. . ... : ... .. . ... : --- .. . ... : ... .. . ... : ... .. . ... : --- .. . ... : ... .. . ... : ... .. . ...
ROW 48 : G#2 0D . ... : C-2 0D . ... : F-3 00 . ... : 4-# 03 C ... : ... .. . ... : F-2 01 . ... : ... .. . ... : D-3 07 . ...
ROW 49 : ... .. . ... : ... .. . ... : --- .. . ... : ... .. . ... : ... .. . ... : --- .. . ... : ... .. . ... : ... .. . ...
ROW 4A : F-2 0D . ... : G#2 0D . ... : F-2 00 . ... : 8-# 03 4 ... : ... .. . ... : F-1 01 . ... : ... .. . ... : ... .. . ...
ROW 4B : ... .. . ... : ... .. . ... : --- .. . ... : 8-# 03 5 ... : ... .. . ... : --- .. . ... : ... .. . ... : ... .. . ...
ROW 4C : C-2 0D . ... : F-2 0D . ... : F-2 00 . ... : F-# 03 A ... : ... .. . ... : F-1 01 . ... : D#3 0F . ... : ... .. . ...
ROW 4D : ... .. . ... : ... .. . ... : --- .. . ... : ... .. . ... : ... .. . ... : --- .. . ... : ... .. . ... : ... .. . ...
ROW 4E : G#1 0D . ... : C-2 0D . ... : F-2 00 . ... : F-# 03 8 ... : ... .. . ... : F-1 01 . ... : ... .. . ... : D#3 07 . ...
ROW 4F : ... .. . ... : ... .. . ... : --- .. . ... : ... .. . ... : ... .. . ... : --- .. . ... : ... .. . ... : ... .. . ...
ROW 50 : C-3 0D . ... : G#1 0D . ... : F-2 00 . ... : F-# 03 C ... : ... .. . ... : F-1 01 . ... : F-3 0F . ... : ... .. . ...
ROW 51 : ... .. . ... : ... .. . ... : --- .. . ... : ... .. . ... : ... .. . ... : --- .. . ... : ... .. . ... : ... .. . ...
ROW 52 : G#2 0D . ... : C-3 0D . ... : F-2 00 . ... : ... .. . ... : ... .. . ... : F-1 01 . ... : ... .. . ... : F-3 07 . ...
ROW 53 : ... .. . ... : ... .. . ... : --- .. . ... : ... .. . ... : ... .. . ... : --- .. . ... : ... .. . ... : ... .. . ...
ROW 54 : F-2 0D . ... : G#2 0D . ... : F-2 00 . ... : F-# 03 A ... : ... .. . ... : F-1 01 . ... : ... .. . ... : ... .. . ...
ROW 55 : ... .. . ... : ... .. . ... : --- .. . ... : ... .. . ... : ... .. . ... : --- .. . ... : ... .. . ... : ... .. . ...
ROW 56 : C-2 0D . ... : F-2 0D . ... : F-2 00 . ... : F-# 03 8 ... : ... .. . ... : F-1 01 . ... : D-3 0F . ... : ... .. . ...
ROW 57 : ... .. . ... : ... .. . ... : --- .. . ... : ... .. . ... : ... .. . ... : --- .. . ... : ... .. . ... : ... .. . ...
ROW 58 : G#2 0D . ... : C-2 0D . ... : F-3 00 . ... : 4-# 03 C ... : ... .. . ... : F-2 01 . ... : ... .. . ... : D-3 07 . ...
ROW 59 : ... .. . ... : ... .. . ... : --- .. . ... : ... .. . ... : ... .. . ... : --- .. . ... : ... .. . ... : ... .. . ...
ROW 5A : F-2 0D . ... : G#2 0D . ... : F-2 00 . ... : 8-# 03 4 ... : ... .. . ... : F-1 01 . ... : ... .. . ... : ... .. . ...
ROW 5B : ... .. . ... : ... .. . ... : --- .. . ... : 8-# 03 5 ... : ... .. . ... : --- .. . ... : ... .. . ... : ... .. . ...
ROW 5C : C-2 0D . ... : F-2 0D . ... : F-2 00 . ... : F-# 03 A ... : ... .. . ... : F-1 01 . ... : C-3 0F . ... : ... .. . ...
ROW 5D : ... .. . ... : ... .. . ... : --- .. . ... : ... .. . ... : ... .. . ... : --- .. . ... : ... .. . ... : ... .. . ...
ROW 5E : G#1 0D . ... : C-2 0D . ... : F-2 00 . ... : F-# 03 8 ... : ... .. . ... : F-1 01 . ... : ... .. . ... : C-3 07 . ...
ROW 5F : ... .. . ... : ... .. . ... : --- .. . ... : ... .. . ... : ... .. . ... : --- .. . ... : ... .. . ... : ... .. . ...
ROW 60 : D-3 0D . ... : G#1 0D . ... : A#2 00 . ... : F-# 03 C ... : ... .. . ... : A#1 01 . ... : A#2 0F . ... : ... .. . ...
ROW 61 : ... .. . ... : ... .. . ... : --- .. . ... : ... .. . ... : ... .. . ... : --- .. . ... : ... .. . ... : ... .. . ...
ROW 62 : A#2 0D . ... : D-3 0D . ... : A#2 00 . ... : ... .. . ... : ... .. . ... : A#1 01 . ... : ... .. . ... : A#2 07 . ...
ROW 63 : ... .. . ... : ... .. . ... : --- .. . ... : ... .. . ... : ... .. . ... : --- .. . ... : ... .. . ... : ... .. . ...
ROW 64 : F-2 0D . ... : A#2 0D . ... : A#2 00 . ... : F-# 03 A ... : ... .. . ... : A#1 01 . ... : ... .. . ... : ... .. . ...
ROW 65 : ... .. . ... : ... .. . ... : --- .. . ... : ... .. . ... : ... .. . ... : --- .. . ... : ... .. . ... : ... .. . ...
ROW 66 : D-2 0D . ... : F-2 0D . ... : A#2 00 . ... : F-# 03 8 ... : ... .. . ... : A#1 01 . ... : D-3 0F . ... : ... .. . ...
ROW 67 : ... .. . ... : ... .. . ... : --- .. . ... : ... .. . ... : ... .. . ... : --- .. . ... : ... .. . ... : ... .. . ...
ROW 68 : A#2 0D . ... : D-2 0D . ... : A#3 00 . ... : 4-# 03 C ... : ... .. . ... : A#2 01 . ... : ... .. . ... : D-3 07 . ...
ROW 69 : ... .. . ... : ... .. . ... : --- .. . ... : ... .. . ... : ... .. . ... : --- .. . ... : ... .. . ... : ... .. . ...
ROW 6A : F-2 0D . ... : A#2 0D . ... : A#2 00 . ... : 8-# 03 4 ... : ... .. . ... : A#1 01 . ... : ... .. . ... : ... .. . ...
ROW 6B : ... .. . ... : ... .. . ... : --- .. . ... : 8-# 03 5 ... : ... .. . ... : --- .. . ... : ... .. . ... : ... .. . ...
ROW 6C : D-2 0D . ... : F-2 0D . ... : A#2 00 . ... : F-# 03 A ... : ... .. . ... : A#1 01 . ... : D#3 0F . ... : ... .. . ...
ROW 6D : ... .. . ... : ... .. . ... : --- .. . ... : ... .. . ... : ... .. . ... : --- .. . ... : ... .. . ... : ... .. . ...
ROW 6E : A#1 0D . ... : D-2 0D . ... : A#2 00 . ... : F-# 03 8 ... : ... .. . ... : A#1 01 . ... : ... .. . ... : D#3 07 . ...
ROW 6F : ... .. . ... : ... .. . ... : --- .. . ... : ... .. . ... : ... .. . ... : --- .. . ... : ... .. . ... : ... .. . ...
ROW 70 : D-3 0D . ... : A#1 0D . ... : A#2 00 . ... : F-# 03 C ... : ... .. . ... : A#1 01 . ... : F-3 0F . ... : ... .. . ...
ROW 71 : ... .. . ... : ... .. . ... : --- .. . ... : ... .. . ... : ... .. . ... : --- .. . ... : ... .. . ... : ... .. . ...
ROW 72 : A#2 0D . ... : D-3 0D . ... : A#2 00 . ... : ... .. . ... : ... .. . ... : A#1 01 . ... : ... .. . ... : F-3 07 . ...
ROW 73 : ... .. . ... : ... .. . ... : --- .. . ... : ... .. . ... : ... .. . ... : --- .. . ... : ... .. . ... : ... .. . ...
ROW 74 : F-2 0D . ... : A#2 0D . ... : A#2 00 . ... : F-# 03 A ... : ... .. . ... : A#1 01 . ... : ... .. . ... : G-3 07 F ...
ROW 75 : ... .. . ... : ... .. . ... : --- .. . ... : ... .. . ... : ... .. . ... : --- .. . ... : ... .. . ... : ... .. . ...
ROW 76 : D-2 0D . ... : F-2 0D . ... : A#2 00 . ... : F-# 03 8 ... : ... .. . ... : A#1 01 . ... : D#3 0F . ... : ... .. . ...
ROW 77 : ... .. . ... : ... .. . ... : --- .. . ... : ... .. . ... : ... .. . ... : --- .. . ... : ... .. . ... : ... .. . ...
ROW 78 : A#2 0D . ... : D-2 0D . ... : A#3 00 . ... : 4-# 03 C ... : ... .. . ... : A#2 01 . ... : ... .. . ... : D-3 07 . ...
ROW 79 : ... .. . ... : ... .. . ... : --- .. . ... : ... .. . ... : ... .. . ... : --- .. . ... : ... .. . ... : ... .. . ...
ROW 7A : F-2 0D . ... : A#2 0D . ... : A#2 00 . ... : 8-# 03 4 ... : ... .. . ... : A#1 01 . ... : ... .. . ... : D#3 07 . ...
ROW 7B : ... .. . ... : ... .. . ... : --- .. . ... : 8-# 03 5 ... : ... .. . ... : --- .. . ... : ... .. . ... : ... .. . ...
ROW 7C : D-2 0D . ... : F-2 0D . ... : A#2 00 . ... : F-# 03 A ... : ... .. . ... : A#1 01 . ... : D-3 0F . ... : ... .. . ...
ROW 7D : ... .. . ... : ... .. . ... : --- .. . ... : ... .. . ... : ... .. . ... : --- .. . ... : ... .. . ... : ... .. . ...
ROW 7E : A#1 0D . ... : D-2 0D . ... : A#2 00 . ... : F-# 03 8 ... : ... .. . ... : A#1 01 . ... : ... .. . ... : ... .. . ...
ROW 7F : ... .. . ... : ... .. . ... : --- .. . ... : ... .. . ... : ... .. . ... : --- .. . ... : ... .. . ... : ... .. . ...

PATTERN 04
ROW 00 : C-3 0D C ... : ... .. . ... : C-2 00 . ... : F-# 03 C ... : ... .. . ... : C-1 01 7 ... : D#3 0F F ... : ... .. . ...
ROW 01 : ... .. . ... : ... .. . ... : --- 0D . ... : ... .. . ... : ... .. . ... : --- 0D . ... : ... .. . ... : ... .. . ...
ROW 02 : G-2 0D . ... : C-3 0D 4 ... : C-2 00 . ... : ... .. . ... : ... .. . ... : C-1 01 . ... : ... .. . ... : D#3 0F 4 ...
ROW 03 : ... .. . ... : ... .. . ... : --- 0D . ... : ... .. . ... : ... .. . ... : --- 0D . ... : ... .. . ... : ... .. . ...
ROW 04 : D#2 0D . ... : G-2 0D . ... : C-2 00 . ... : F-# 03 A ... : ... .. . ... : C-1 01 . ... : ... .. . ... : ... .. . ...
ROW 05 : ... .. . ... : ... .. . ... : --- 0D . ... : ... .. . ... : ... .. . ... : --- 0D . ... : ... .. . ... : ... .. . ...
ROW 06 : C-2 0D . ... : D#2 0D . ... : C-2 00 . ... : F-# 03 8 ... : ... .. . ... : C-1 01 . ... : ... .. . ... : ... .. . ...
ROW 07 : ... .. . ... : ... .. . ... : --- 0D . ... : ... .. . ... : ... .. . ... : --- 0D . ... : ... .. . ... : ... .. . ...
ROW 08 : G-2 0D . ... : C-2 0D . ... : C-3 00 . ... : 4-# 03 C ... : ... .. . ... : C-2 01 . ... : C-3 0F . ... : ... .. . ...
ROW 09 : ... .. . ... : ... .. . ... : --- 0D . ... : ... .. . ... : ... .. . ... : --- 0D . ... : ... .. . ... : ... .. . ...
ROW 0A : D#2 0D . ... : G-2 0D . ... : C-2 00 . ... : 8-# 03 4 ... : ... .. . ... : C-1 01 . ... : ... .. . ... : C-3 0F . ...
ROW 0B : ... .. . ... : ... .. . ... : --- .. . ... : 8-# 03 5 ... : ... .. . ... : --- .. . ... : ... .. . ... : ... .. . ...
ROW 0C : C-2 0D . ... : D#2 0D . ... : C-2 00 . ... : F-# 03 A ... : ... .. . ... : C-1 01 . ... : D-3 0F . ... : ... .. . ...
ROW 0D : ... .. . ... : ... .. . ... : --- .. . ... : ... .. . ... : ... .. . ... : --- .. . ... : ... .. . ... : ... .. . ...
ROW 0E : G-1 0D . ... : C-2 0D . ... : C-2 00 . ... : F-# 03 8 ... : ... .. . ... : C-1 01 . ... : ... .. . ... : D-3 0F . ...
ROW 0F : ... .. . ... : ... .. . ... : --- .. . ... : ... .. . ... : ... .. . ... : --- .. . ... : ... .. . ... : ... .. . ...
ROW 10 : C-3 0D . ... : G-1 0D . ... : C-2 00 . ... : F-# 03 C ... : ... .. . ... : C-1 01 . ... : D#3 0F . ... : ... .. . ...
ROW 11 : ... .. . ... : ... .. . ... : --- .. . ... : ... .. . ... : ... .. . ... : --- .. . ... : ... .. . ... : ... .. . ...
ROW 12 : G-2 0D . ... : C-3 0D . ... : C-2 00 . ... : ... .. . ... : ... .. . ... : C-1 01 . ... : ... .. . ... : D#3 0F . ...
ROW 13 : ... .. . ... : ... .. . ... : --- .. . ... : ... .. . ... : ... .. . ... : --- .. . ... : ... .. . ... : ... .. . ...
ROW 14 : D#2 0D . ... : G-2 0D . ... : C-2 00 . ... : F-# 03 A ... : ... .. . ... : C-1 01 . ... : ... .. . ... : ... .. . ...
ROW 15 : ... .. . ... : ... .. . ... : --- .. . ... : ... .. . ... : ... .. . ... : --- .. . ... : ... .. . ... : ... .. . ...
ROW 16 : C-2 0D . ... : D#2 0D . ... : C-2 00 . ... : F-# 03 8 ... : ... .. . ... : C-1 01 . ... : F-3 0F . ... : ... .. . ...
ROW 17 : ... .. . ... : ... .. . ... : --- .. . ... : ... .. . ... : ... .. . ... : --- .. . ... : ... .. . ... : ... .. . ...
ROW 18 : G-2 0D . ... : C-2 0D . ... : C-3 00 . ... : 4-# 03 C ... : ... .. . ... : C-2 01 . ... : ... .. . ... : F-3 0F . ...
ROW 19 : ... .. . ... : ... .. . ... : --- .. . ... : ... .. . ... : ... .. . ... : --- .. . ... : ... .. . ... : ... .. . ...
ROW 1A : D#2 0D . ... : G-2 0D . ... : C-2 00 . ... : 8-# 03 4 ... : ... .. . ... : C-1 01 . ... : ... .. . ... : ... .. . ...
ROW 1B : ... .. . ... : ... .. . ... : --- .. . ... : 8-# 03 5 ... : ... .. . ... : --- .. . ... : ... .. . ... : ... .. . ...
ROW 1C : C-2 0D . ... : D#2 0D . ... : C-2 00 . ... : F-# 03 A ... : ... .. . ... : C-1 01 . ... : G-3 0F . ... : ... .. . ...
ROW 1D : ... .. . ... : ... .. . ... : --- .. . ... : ... .. . ... : ... .. . ... : --- .. . ... : ... .. . ... : ... .. . ...
ROW 1E : G-1 0D . ... : C-2 0D . ... : C-2 00 . ... : F-# 03 8 ... : ... .. . ... : C-1 01 . ... : ... .. . ... : G-3 0F . ...
ROW 1F : ... .. . ... : ... .. . ... : --- .. . ... : ... .. . ... : ... .. . ... : --- .. . ... : ... .. . ... : ... .. . ...
ROW 20 : C-3 0D . ... : G-1 0D . ... : D#2 00 . ... : F-# 03 C ... : ... .. . ... : D#1 01 . ... : G#3 0F . ... : ... .. . ...
ROW 21 : ... .. . ... : ... .. . ... : --- .. . ... : ... .. . ... : ... .. . ... : --- .. . ... : ... .. . ... : ... .. . ...
ROW 22 : G#2 0D . ... : C-3 0D . ... : D#2 00 . ... : ... .. . ... : ... .. . ... : D#1 01 . ... : ... .. . ... : G#3 0F . ...
ROW 23 : ... .. . ... : ... .. . ... : --- .. . ... : ... .. . ... : ... .. . ... : --- .. . ... : ... .. . ... : ... .. . ...
ROW 24 : D#2 0D . ... : G#2 0D . ... : D#2 00 . ... : F-# 03 A ... : ... .. . ... : D#1 01 . ... : ... .. . ... : ... .. . ...
ROW 25 : ... .. . ... : ... .. . ... : --- .. . ... : ... .. . ... : ... .. . ... : --- .. . ... : ... .. . ... : ... .. . ...
ROW 26 : C-2 0D . ... : D#2 0D . ... : D#2 00 . ... : F-# 03 8 ... : ... .. . ... : D#1 01 . ... : ... .. . ... : ... .. . ...
ROW 27 : ... .. . ... : ... .. . ... : --- .. . ... : ... .. . ... : ... .. . ... : --- .. . ... : ... .. . ... : ... .. . ...
ROW 28 : G#2 0D . ... : C-2 0D . ... : D#3 00 . ... : 4-# 03 C ... : ... .. . ... : D#2 01 . ... : === .. . ... : ... .. . ...
ROW 29 : ... .. . ... : ... .. . ... : --- 0D . ... : ... .. . ... : ... .. . ... : --- 0D . ... : ... .. . ... : ... .. . ...
ROW 2A : D#2 0D . ... : G#2 0D . ... : D#2 00 . ... : 8-# 03 4 ... : ... .. . ... : D#1 01 . ... : ... .. . ... : === .. . ...
ROW 2B : ... .. . ... : ... .. . ... : --- .. . ... : 8-# 03 5 ... : ... .. . ... : --- .. . ... : ... .. . ... : ... .. . ...
ROW 2C : C-2 0D . ... : D#2 0D . ... : D#2 00 . ... : F-# 03 A ... : ... .. . ... : D#1 01 . ... : G#3 0F . ... : ... .. . ...
ROW 2D : ... .. . ... : ... .. . ... : --- .. . ... : ... .. . ... : ... .. . ... : --- .. . ... : ... .. . ... : ... .. . ...
ROW 2E : G#1 0D . ... : C-2 0D . ... : D#2 00 . ... : F-# 03 8 ... : ... .. . ... : D#1 01 . ... : G-3 0F . ... : G#3 0F . ...
ROW 2F : ... .. . ... : ... .. . ... : --- .. . ... : ... .. . ... : ... .. . ... : --- .. . ... : ... .. . ... : ... .. . ...
ROW 30 : C-3 0D . ... : G#1 0D . ... : D#2 00 . ... : F-# 03 C ... : ... .. . ... : D#1 01 . ... : F-3 0F . ... : G-3 0F . ...
ROW 31 : ... .. . ... : ... .. . ... : --- .. . ... : ... .. . ... : ... .. . ... : --- .. . ... : ... .. . ... : ... .. . ...
ROW 32 : G#2 0D . ... : C-3 0D . ... : D#2 00 . ... : ... .. . ... : ... .. . ... : D#1 01 . ... : ... .. . ... : F-3 0F . ...
ROW 33 : ... .. . ... : ... .. . ... : --- .. . ... : ... .. . ... : ... .. . ... : --- .. . ... : ... .. . ... : ... .. . ...
ROW 34 : D#2 0D . ... : G#2 0D . ... : D#2 00 . ... : F-# 03 A ... : ... .. . ... : D#1 01 . ... : ... .. . ... : ... .. . ...
ROW 35 : ... .. . ... : ... .. . ... : --- .. . ... : ... .. . ... : ... .. . ... : --- .. . ... : ... .. . ... : ... .. . ...
ROW 36 : C-2 0D . ... : D#2 0D . ... : D#2 00 . ... : F-# 03 8 ... : ... .. . ... : D#1 01 . ... : D#3 0F . ... : ... .. . ...
ROW 37 : ... .. . ... : ... .. . ... : --- .. . ... : ... .. . ... : ... .. . ... : --- .. . ... : ... .. . ... : ... .. . ...
ROW 38 : G#2 0D . ... : C-2 0D . ... : D#3 00 . ... : 4-# 03 C ... : ... .. . ... : D#2 01 . ... : ... .. . ... : D#3 0F . ...
ROW 39 : ... .. . ... : ... .. . ... : --- .. . ... : ... .. . ... : ... .. . ... : --- .. . ... : ... .. . ... : ... .. . ...
ROW 3A : D#2 0D . ... : G#2 0D . ... : D#2 00 . ... : 8-# 03 4 ... : ... .. . ... : D#1 01 . ... : ... .. . ... : ... .. . ...
ROW 3B : ... .. . ... : ... .. . ... : --- .. . ... : 8-# 03 5 ... : ... .. . ... : --- .. . ... : ... .. . ... : ... .. . ...
ROW 3C : C-2 0D . ... : D#2 0D . ... : D#2 00 . ... : F-# 03 A ... : ... .. . ... : D#1 01 . ... : F-3 0F . ... : ... .. . ...
ROW 3D : ... .. . ... : ... .. . ... : --- .. . ... : ... .. . ... : ... .. . ... : --- .. . ... : ... .. . ... : ... .. . ...
ROW 3E : G#1 0D . ... : C-2 0D . ... : D#2 00 . ... : F-# 03 8 ... : ... .. . ... : D#1 01 . ... : ... .. . ... : F-3 0F . ...
ROW 3F : ... .. . ... : ... .. . ... : --- .. . ... : ... .. . ... : ... .. . ... : --- .. . ... : ... .. . ... : ... .. . ...
ROW 40 : C-3 0D . ... : G#1 0D . ... : F-2 00 . ... : F-# 03 C ... : ... .. . ... : F-1 01 . ... : F-3 0F . ... : ... .. . ...
ROW 41 : ... .. . ... : ... .. . ... : --- .. . ... : ... .. . ... : ... .. . ... : --- .. . ... : ... .. . ... : ... .. . ...
ROW 42 : G#2 0D . ... : C-3 0D . ... : F-2 00 . ... : ... .. . ... : ... .. . ... : F-1 01 . ... : ... .. . ... : F-3 0F . ...
ROW 43 : ... .. . ... : ... .. . ... : --- .. . ... : ... .. . ... : ... .. . ... : --- .. . ... : ... .. . ... : ... .. . ...
ROW 44 : F-2 0D . ... : G#2 0D . ... : F-2 00 . ... : F-# 03 A ... : ... .. . ... : F-1 01 . ... : ... .. . ... : ... .. . ...
ROW 45 : ... .. . ... : ... .. . ... : --- .. . ... : ... .. . ... : ... .. . ... : --- .. . ... : ... .. . ... : ... .. . ...
ROW 46 : C-2 0D . ... : F-2 0D . ... : F-2 00 . ... : F-# 03 8 ... : ... .. . ... : F-1 01 . ... : ... .. . ... : ... .. . ...
ROW 47 : ... .. . ... : ... .. . ... : --- .. . ... : ... .. . ... : ... .. . ... : --- .. . ... : ... .. . ... : ... .. . ...
ROW 48 : G#2 0D . ... : C-2 0D . ... : F-3 00 . ... : 4-# 03 C ... : ... .. . ... : F-2 01 . ... : G-3 0F . ... : ... .. . ...
ROW 49 : ... .. . ... : ... .. . ... : --- .. . ... : ... .. . ... : ... .. . ... : --- .. . ... : ... .. . ... : ... .. . ...
ROW 4A : F-2 0D . ... : G#2 0D . ... : F-2 00 . ... : 8-# 03 4 ... : ... .. . ... : F-1 01 . ... : ... .. . ... : G-3 0F . ...
ROW 4B : ... .. . ... : ... .. . ... : --- .. . ... : 8-# 03 5 ... : ... .. . ... : --- .. . ... : ... .. . ... : ... .. . ...
ROW 4C : C-2 0D . ... : F-2 0D . ... : F-2 00 . ... : F-# 03 A ... : ... .. . ... : F-1 01 . ... : F-3 0F . ... : ... .. . ...
ROW 4D : ... .. . ... : ... .. . ... : --- .. . ... : ... .. . ... : ... .. . ... : --- .. . ... : ... .. . ... : ... .. . ...
ROW 4E : G#1 0D . ... : C-2 0D . ... : F-2 00 . ... : F-# 03 8 ... : ... .. . ... : F-1 01 . ... : ... .. . ... : F-3 0F . ...
ROW 4F : ... .. . ... : ... .. . ... : --- .. . ... : ... .. . ... : ... .. . ... : --- .. . ... : ... .. . ... : ... .. . ...
ROW 50 : C-3 0D . ... : G#1 0D . ... : F-2 00 . ... : F-# 03 C ... : ... .. . ... : F-1 01 . ... : D#3 0F . ... : ... .. . ...
ROW 51 : ... .. . ... : ... .. . ... : --- .. . ... : ... .. . ... : ... .. . ... : --- .. . ... : ... .. . ... : ... .. . ...
ROW 52 : G#2 0D . ... : C-3 0D . ... : F-2 00 . ... : ... .. . ... : ... .. . ... : F-1 01 . ... : ... .. . ... : D#3 0F . ...
ROW 53 : ... .. . ... : ... .. . ... : --- .. . ... : ... .. . ... : ... .. . ... : --- .. . ... : ... .. . ... : ... .. . ...
ROW 54 : F-2 0D . ... : G#2 0D . ... : F-2 00 . ... : F-# 03 A ... : ... .. . ... : F-1 01 . ... : ... .. . ... : ... .. . ...
ROW 55 : ... .. . ... : ... .. . ... : --- .. . ... : ... .. . ... : ... .. . ... : --- .. . ... : ... .. . ... : ... .. . ...
ROW 56 : C-2 0D . ... : F-2 0D . ... : F-2 00 . ... : F-# 03 8 ... : ... .. . ... : F-1 01 . ... : D-3 0F . ... : ... .. . ...
ROW 57 : ... .. . ... : ... .. . ... : --- .. . ... : ... .. . ... : ... .. . ... : --- .. . ... : ... .. . ... : ... .. . ...
ROW 58 : G#2 0D . ... : C-2 0D . ... : F-3 00 . ... : 4-# 03 C ... : ... .. . ... : F-2 01 . ... : ... .. . ... : D-3 0F . ...
ROW 59 : ... .. . ... : ... .. . ... : --- .. . ... : ... .. . ... : ... .. . ... : --- .. . ... : ... .. . ... : ... .. . ...
ROW 5A : F-2 0D . ... : G#2 0D . ... : F-2 00 . ... : 8-# 03 4 ... : ... .. . ... : F-1 01 . ... : ... .. . ... : ... .. . ...
ROW 5B : ... .. . ... : ... .. . ... : --- .. . ... : 8-# 03 5 ... : ... .. . ... : --- .. . ... : ... .. . ... : ... .. . ...
ROW 5C : C-2 0D . ... : F-2 0D . ... : F-2 00 . ... : F-# 03 A ... : ... .. . ... : F-1 01 . ... : D#3 0F . ... : ... .. . ...
ROW 5D : ... .. . ... : ... .. . ... : --- .. . ... : ... .. . ... : ... .. . ... : --- .. . ... : ... .. . ... : ... .. . ...
ROW 5E : G#1 0D . ... : C-2 0D . ... : F-2 00 . ... : F-# 03 8 ... : ... .. . ... : F-1 01 . ... : ... .. . ... : D#3 0F . ...
ROW 5F : ... .. . ... : ... .. . ... : --- .. . ... : ... .. . ... : ... .. . ... : --- .. . ... : ... .. . ... : ... .. . ...
ROW 60 : D-3 0D . ... : G#1 0D . ... : A#2 00 . ... : F-# 03 C ... : ... .. . ... : A#1 01 . ... : F-3 0F . ... : ... .. . ...
ROW 61 : ... .. . ... : ... .. . ... : --- .. . ... : ... .. . ... : ... .. . ... : --- .. . ... : ... .. . ... : ... .. . ...
ROW 62 : A#2 0D . ... : D-3 0D . ... : A#2 00 . ... : ... .. . ... : ... .. . ... : A#1 01 . ... : ... .. . ... : F-3 0F . ...
ROW 63 : ... .. . ... : ... .. . ... : --- .. . ... : ... .. . ... : ... .. . ... : --- .. . ... : ... .. . ... : ... .. . ...
ROW 64 : F-2 0D . ... : A#2 0D . ... : A#2 00 . ... : F-# 03 A ... : ... .. . ... : A#1 01 . ... : ... .. . ... : ... .. . ...
ROW 65 : ... .. . ... : ... .. . ... : --- .. . ... : ... .. . ... : ... .. . ... : --- .. . ... : ... .. . ... : ... .. . ...
ROW 66 : D-2 0D . ... : F-2 0D . ... : A#2 00 . ... : F-# 03 8 ... : ... .. . ... : A#1 01 . ... : ... .. . ... : ... .. . ...
ROW 67 : ... .. . ... : ... .. . ... : --- .. . ... : ... .. . ... : ... .. . ... : --- .. . ... : ... .. . ... : ... .. . ...
ROW 68 : A#2 0D . ... : D-2 0D . ... : A#3 00 . ... : 4-# 03 C ... : ... .. . ... : A#2 01 . ... : D-3 0F . ... : ... .. . ...
ROW 69 : ... .. . ... : ... .. . ... : --- .. . ... : ... .. . ... : ... .. . ... : --- .. . ... : ... .. . ... : ... .. . ...
ROW 6A : F-2 0D . ... : A#2 0D . ... : A#2 00 . ... : 8-# 03 4 ... : ... .. . ... : A#1 01 . ... : ... .. . ... : D-3 0F . ...
ROW 6B : ... .. . ... : ... .. . ... : --- .. . ... : 8-# 03 5 ... : ... .. . ... : --- .. . ... : ... .. . ... : ... .. . ...
ROW 6C : D-2 0D . ... : F-2 0D . ... : A#2 00 . ... : F-# 03 A ... : ... .. . ... : A#1 01 . ... : ... .. . ... : ... .. . ...
ROW 6D : ... .. . ... : ... .. . ... : --- .. . ... : ... .. . ... : ... .. . ... : --- .. . ... : ... .. . ... : ... .. . ...
ROW 6E : A#1 0D . ... : D-2 0D . ... : A#2 00 . ... : F-# 03 8 ... : ... .. . ... : A#1 01 . ... : ... .. . ... : ... .. . ...
ROW 6F : ... .. . ... : ... .. . ... : --- .. . ... : ... .. . ... : ... .. . ... : --- .. . ... : ... .. . ... : ... .. . ...
ROW 70 : D-3 0D . ... : B-1 0D . ... : A#2 00 . ... : F-# 03 C ... : ... .. . ... : A#1 01 . ... : G-3 0F . ... : ... .. . ...
ROW 71 : ... .. . ... : ... .. . ... : --- .. . ... : ... .. . ... : ... .. . ... : --- .. . ... : ... .. . ... : ... .. . ...
ROW 72 : B-2 0D . ... : D-3 0D . ... : A#2 00 . ... : ... .. . ... : ... .. . ... : A#1 01 . ... : ... .. . ... : G-3 0F . ...
ROW 73 : ... .. . ... : ... .. . ... : --- .. . ... : ... .. . ... : ... .. . ... : --- .. . ... : ... .. . ... : ... .. . ...
ROW 74 : G-2 0D . ... : B-2 0D . ... : A#2 00 . ... : F-# 03 A ... : ... .. . ... : A#1 01 . ... : ... .. . ... : ... .. . ...
ROW 75 : ... .. . ... : ... .. . ... : --- .. . ... : ... .. . ... : ... .. . ... : --- .. . ... : ... .. . ... : ... .. . ...
ROW 76 : D-2 0D . ... : G-2 0D . ... : A#2 00 . ... : F-# 03 8 ... : ... .. . ... : A#1 01 . ... : ... .. . ... : ... .. . ...
ROW 77 : ... .. . ... : ... .. . ... : --- .. . ... : ... .. . ... : ... .. . ... : --- .. . ... : ... .. . ... : ... .. . ...
ROW 78 : B-2 0D . ... : D-2 0D . ... : A#3 00 . ... : 4-# 03 C ... : ... .. . ... : A#2 01 . ... : B-3 0F . ... : ... .. . ...
ROW 79 : ... .. . ... : ... .. . ... : --- .. . ... : ... .. . ... : ... .. . ... : --- .. . ... : ... .. . ... : ... .. . ...
ROW 7A : G-2 0D . ... : B-2 0D . ... : A#2 00 . ... : 8-# 03 4 ... : ... .. . ... : A#1 01 . ... : ... .. . ... : B-3 0F . ...
ROW 7B : ... .. . ... : ... .. . ... : --- .. . ... : 8-# 03 5 ... : ... .. . ... : --- .. . ... : ... .. . ... : ... .. . ...
ROW 7C : D-2 0D . ... : G-2 0D . ... : B-2 00 . ... : F-# 03 A ... : ... .. . ... : A#1 01 . ... : ... .. . ... : ... .. . ...
ROW 7D : ... .. . ... : ... .. . ... : --- .. . ... : ... .. . ... : ... .. . ... : --- .. . ... : ... .. . ... : ... .. . ...
ROW 7E : B-1 0D . ... : D-2 0D . ... : B-2 00 . ... : F-# 03 8 ... : ... .. . ... : A#1 01 . ... : ... .. . ... : ... .. . ...
ROW 7F : ... .. . ... : ... .. . ... : --- .. . ... : ... .. . ... : ... .. . ... : --- .. . ... : ... .. . ... : ... .. . ...

PATTERN 05
ROW 00 : --- .. . ... : --- .. . ... : C-2 00 . ... : F-# 03 C ... : ... .. . ... : C-1 01 . ... : C-4 0F F ... : G-3 07 F ...
ROW 01 : ... .. . ... : ... .. . ... : --- .. . ... : ... .. . ... : ... .. . ... : --- .. . ... : ... .. . ... : ... .. . ...
ROW 02 : ... .. . ... : ... .. . ... : C-2 00 . ... : ... .. . ... : ... .. . ... : C-1 01 . ... : ... .. . ... : ... .. . ...
ROW 03 : ... .. . ... : ... .. . ... : --- .. . ... : ... .. . ... : ... .. . ... : --- .. . ... : ... .. . ... : ... .. . ...
ROW 04 : ... .. . ... : ... .. . ... : C-2 00 . ... : F-# 03 A ... : ... .. . ... : C-1 01 . ... : C-4 0F . ... : G-3 07 . ...
ROW 05 : ... .. . ... : ... .. . ... : --- .. . ... : ... .. . ... : ... .. . ... : --- .. . ... : ... .. . ... : ... .. . ...
ROW 06 : ... .. . ... : ... .. . ... : C-2 00 . ... : F-# 03 8 ... : ... .. . ... : C-1 01 . ... : C-4 0F . ... : G-3 07 . ...
ROW 07 : ... .. . ... : ... .. . ... : --- .. . ... : ... .. . ... : ... .. . ... : --- .. . ... : ... .. . ... : ... .. . ...
ROW 08 : ... .. . ... : ... .. . ... : C-3 00 . ... : 4-# 03 C ... : ... .. . ... : C-2 01 . ... : === .. . ... : === .. . ...
ROW 09 : ... .. . ... : ... .. . ... : --- .. . ... : ... .. . ... : ... .. . ... : --- .. . ... : ... .. . ... : ... .. . ...
ROW 0A : ... .. . ... : ... .. . ... : C-2 00 . ... : 8-# 03 4 ... : ... .. . ... : C-1 01 . ... : ... .. . ... : ... .. . ...
ROW 0B : ... .. . ... : ... .. . ... : --- .. . ... : 8-# 03 5 ... : ... .. . ... : --- .. . ... : ... .. . ... : ... .. . ...
ROW 0C : ... .. . ... : ... .. . ... : C-2 00 . ... : F-# 03 A ... : ... .. . ... : C-1 01 . ... : ... .. . ... : ... .. . ...
ROW 0D : ... .. . ... : ... .. . ... : --- .. . ... : ... .. . ... : ... .. . ... : --- .. . ... : ... .. . ... : ... .. . ...
ROW 0E : ... .. . ... : ... .. . ... : C-2 00 . ... : F-# 03 8 ... : ... .. . ... : C-1 01 . ... : ... .. . ... : ... .. . ...
ROW 0F : ... .. . ... : ... .. . ... : --- .. . ... : ... .. . ... : ... .. . ... : --- .. . ... : ... .. . ... : ... .. . ...
ROW 10 : ... .. . ... : ... .. . ... : C-2 00 . ... : F-# 03 C ... : ... .. . ... : C-1 01 . ... : A#3 0F . ... : F-3 07 . ...
ROW 11 : ... .. . ... : ... .. . ... : --- .. . ... : ... .. . ... : ... .. . ... : --- .. . ... : ... .. . ... : ... .. . ...
ROW 12 : ... .. . ... : ... .. . ... : C-2 00 . ... : ... .. . ... : ... .. . ... : C-1 01 . ... : ... .. . ... : ... .. . ...
ROW 13 : ... .. . ... : ... .. . ... : --- .. . ... : ... .. . ... : ... .. . ... : --- .. . ... : ... .. . ... : ... .. . ...
ROW 14 : ... .. . ... : ... .. . ... : C-2 00 . ... : F-# 03 A ... : ... .. . ... : C-1 01 . ... : A#3 0F . ... : F-3 07 . ...
ROW 15 : ... .. . ... : ... .. . ... : --- .. . ... : ... .. . ... : ... .. . ... : --- .. . ... : ... .. . ... : ... .. . ...
ROW 16 : ... .. . ... : ... .. . ... : C-2 00 . ... : F-# 03 8 ... : ... .. . ... : C-1 01 . ... : A#3 0F . ... : F-3 07 . ...
ROW 17 : ... .. . ... : ... .. . ... : --- .. . ... : ... .. . ... : ... .. . ... : --- .. . ... : ... .. . ... : ... .. . ...
ROW 18 : ... .. . ... : ... .. . ... : C-3 00 . ... : 4-# 03 C ... : ... .. . ... : C-2 01 . ... : === .. . ... : === .. . ...
ROW 19 : ... .. . ... : ... .. . ... : --- .. . ... : ... .. . ... : ... .. . ... : --- .. . ... : ... .. . ... : ... .. . ...
ROW 1A : ... .. . ... : ... .. . ... : C-2 00 . ... : 8-# 03 4 ... : ... .. . ... : C-1 01 . ... : ... .. . ... : ... .. . ...
ROW 1B : ... .. . ... : ... .. . ... : --- .. . ... : 8-# 03 5 ... : ... .. . ... : --- .. . ... : ... .. . ... : ... .. . ...
ROW 1C : ... .. . ... : ... .. . ... : C-2 00 . ... : F-# 03 A ... : ... .. . ... : C-1 01 . ... : A#3 0F . ... : ... .. . ...
ROW 1D : ... .. . ... : ... .. . ... : --- .. . ... : ... .. . ... : ... .. . ... : --- .. . ... : ... .. . ... : ... .. . ...
ROW 1E : ... .. . ... : ... .. . ... : C-2 00 . ... : F-# 03 8 ... : ... .. . ... : C-1 01 . ... : F-3 0F . ... : A#3 0F 4 ...
ROW 1F : ... .. . ... : ... .. . ... : --- .. . ... : ... .. . ... : ... .. . ... : --- .. . ... : ... .. . ... : ... .. . ...
ROW 20 : C-3 0D C ... : ... .. . ... : C-2 00 . ... : F-# 03 C ... : ... .. . ... : C-1 01 . ... : G-3 0F . ... : F-3 07 . ...
ROW 21 : ... .. . ... : ... .. . ... : --- .. . ... : ... .. . ... : ... .. . ... : --- .. . ... : ... .. . ... : ... .. . ...
ROW 22 : G-2 0D . ... : C-3 0D 6 ... : C-2 00 . ... : ... .. . ... : ... .. . ... : C-1 01 . ... : ... .. . ... : G-3 07 . ...
ROW 23 : ... .. . ... : ... .. . ... : --- .. . ... : ... .. . ... : ... .. . ... : --- .. . ... : ... .. . ... : ... .. . ...
ROW 24 : D#2 0D . ... : G-2 0D . ... : C-2 00 . ... : F-# 03 A ... : ... .. . ... : C-1 01 . ... : ... .. . ... : ... .. . ...
ROW 25 : ... .. . ... : ... .. . ... : --- .. . ... : ... .. . ... : ... .. . ... : --- .. . ... : ... .. . ... : ... .. . ...
ROW 26 : C-2 0D . ... : D#2 0D . ... : C-2 00 . ... : F-# 03 8 ... : ... .. . ... : C-1 01 . ... : ... .. . ... : ... .. . ...
ROW 27 : ... .. . ... : ... .. . ... : --- .. . ... : ... .. . ... : ... .. . ... : --- .. . ... : ... .. . ... : ... .. . ...
ROW 28 : G-2 0D . ... : C-2 0D . ... : C-3 00 . ... : 4-# 03 C ... : ... .. . ... : C-2 01 . ... : ... .. . ... : ... .. . ...
ROW 29 : ... .. . ... : ... .. . ... : --- .. . ... : ... .. . ... : ... .. . ... : --- .. . ... : ... .. . ... : ... .. . ...
ROW 2A : D#2 0D . ... : G-2 0D . ... : C-2 00 . ... : 8-# 03 4 ... : ... .. . ... : C-1 01 . ... : ... .. . ... : ... .. . ...
ROW 2B : ... .. . ... : ... .. . ... : --- .. . ... : 8-# 03 5 ... : ... .. . ... : --- .. . ... : ... .. . ... : ... .. . ...
ROW 2C : C-2 0D . ... : D#2 0D . ... : C-2 00 . ... : F-# 03 A ... : ... .. . ... : C-1 01 . ... : ... .. . ... : ... .. . ...
ROW 2D : ... .. . ... : ... .. . ... : --- .. . ... : ... .. . ... : ... .. . ... : --- .. . ... : ... .. . ... : ... .. . ...
ROW 2E : G-1 0D . ... : C-2 0D . ... : C-2 00 . ... : F-# 03 8 ... : ... .. . ... : C-1 01 . ... : ... .. . ... : ... .. . ...
ROW 2F : ... .. . ... : ... .. . ... : --- .. . ... : ... .. . ... : ... .. . ... : --- .. . ... : ... .. . ... : ... .. . ...
ROW 30 : C-3 0D . ... : G-1 0D . ... : C-2 00 . ... : F-# 03 C ... : ... .. . ... : C-1 01 . ... : ... .. . ... : ... .. . ...
ROW 31 : ... .. . ... : ... .. . ... : --- .. . ... : ... .. . ... : ... .. . ... : --- .. . ... : ... .. . ... : ... .. . ...
ROW 32 : G-2 0D . ... : C-3 0D . ... : C-2 00 . ... : ... .. . ... : ... .. . ... : C-1 01 . ... : ... .. . ... : ... .. . ...
ROW 33 : ... .. . ... : ... .. . ... : --- .. . ... : ... .. . ... : ... .. . ... : --- .. . ... : ... .. . ... : ... .. . ...
ROW 34 : D#2 0D . ... : G-2 0D . ... : C-2 00 . ... : F-# 03 A ... : ... .. . ... : C-1 01 . ... : ... .. . ... : ... .. . ...
ROW 35 : ... .. . ... : ... .. . ... : --- .. . ... : ... .. . ... : ... .. . ... : --- .. . ... : ... .. . ... : ... .. . ...
ROW 36 : C-2 0D . ... : D#2 0D . ... : C-2 00 . ... : F-# 03 8 ... : ... .. . ... : C-1 01 . ... : ... .. . ... : ... .. . ...
ROW 37 : ... .. . ... : ... .. . ... : --- .. . ... : ... .. . ... : ... .. . ... : --- .. . ... : ... .. . ... : ... .. . ...
ROW 38 : G-2 0D . ... : C-2 0D . ... : C-3 00 . ... : 4-# 03 C ... : ... .. . ... : C-2 01 . ... : D#3 0F . ... : ... .. . ...
ROW 39 : ... .. . ... : ... .. . ... : --- .. . ... : ... .. . ... : ... .. . ... : --- .. . ... : ... .. . ... : ... .. . ...
ROW 3A : D#2 0D . ... : G-2 0D . ... : C-2 00 . ... : 8-# 03 4 ... : ... .. . ... : C-1 01 . ... : ... .. . ... : D#3 07 . ...
ROW 3B : ... .. . ... : ... .. . ... : --- .. . ... : 8-# 03 5 ... : ... .. . ... : --- .. . ... : ... .. . ... : ... .. . ...
ROW 3C : C-2 0D . ... : D#2 0D . ... : C-2 00 . ... : F-# 03 A ... : ... .. . ... : C-1 01 . ... : ... .. . ... : ... .. . ...
ROW 3D : ... .. . ... : ... .. . ... : --- .. . ... : ... .. . ... : ... .. . ... : --- .. . ... : ... .. . ... : ... .. . ...
ROW 3E : G-1 0D . ... : C-2 0D . ... : C-2 00 . ... : F-# 03 8 ... : ... .. . ... : C-1 01 . ... : ... .. . ... : ... .. . ...
ROW 3F : ... .. . ... : ... .. . ... : --- .. . ... : ... .. . ... : ... .. . ... : --- .. . ... : ... .. . ... : ... .. . ...
ROW 40 : C-3 0D . ... : G#1 0D . ... : F-2 00 . ... : F-# 03 C ... : ... .. . ... : F-1 01 . ... : G#3 0F . ... : ... .. . ...
ROW 41 : ... .. . ... : ... .. . ... : --- .. . ... : ... .. . ... : ... .. . ... : --- .. . ... : ... .. . ... : ... .. . ...
ROW 42 : G#2 0D . ... : C-3 0D . ... : F-2 00 . ... : ... .. . ... : ... .. . ... : F-1 01 . ... : ... .. . ... : G#3 07 . ...
ROW 43 : ... .. . ... : ... .. . ... : --- .. . ... : ... .. . ... : ... .. . ... : --- .. . ... : ... .. . ... : ... .. . ...
ROW 44 : F-2 0D . ... : G#2 0D . ... : F-2 00 . ... : F-# 03 A ... : ... .. . ... : F-1 01 . ... : ... .. . ... : ... .. . ...
ROW 45 : ... .. . ... : ... .. . ... : --- .. . ... : ... .. . ... : ... .. . ... : --- .. . ... : ... .. . ... : ... .. . ...
ROW 46 : C-2 0D . ... : F-2 0D . ... : F-2 00 . ... : F-# 03 8 ... : ... .. . ... : F-1 01 . ... : ... .. . ... : ... .. . ...
ROW 47 : ... .. . ... : ... .. . ... : --- .. . ... : ... .. . ... : ... .. . ... : --- .. . ... : ... .. . ... : ... .. . ...
ROW 48 : G#2 0D . ... : C-2 0D . ... : F-3 00 . ... : 4-# 03 C ... : ... .. . ... : F-2 01 . ... : ... .. . ... : ... .. . ...
ROW 49 : ... .. . ... : ... .. . ... : --- .. . ... : ... .. . ... : ... .. . ... : --- .. . ... : ... .. . ... : ... .. . ...
ROW 4A : F-2 0D . ... : G#2 0D . ... : F-2 00 . ... : 8-# 03 4 ... : ... .. . ... : F-1 01 . ... : ... .. . ... : ... .. . ...
ROW 4B : ... .. . ... : ... .. . ... : --- .. . ... : 8-# 03 5 ... : ... .. . ... : --- .. . ... : ... .. . ... : ... .. . ...
ROW 4C : C-2 0D . ... : F-2 0D . ... : F-2 00 . ... : F-# 03 A ... : ... .. . ... : F-1 01 . ... : G-3 0F . ... : ... .. . ...
ROW 4D : ... .. . ... : ... .. . ... : --- .. . ... : ... .. . ... : ... .. . ... : --- .. . ... : ... .. . ... : ... .. . ...
ROW 4E : G#1 0D . ... : C-2 0D . ... : F-2 00 . ... : F-# 03 8 ... : ... .. . ... : F-1 01 . ... : F-3 0F . ... : G-3 07 . ...
ROW 4F : ... .. . ... : ... .. . ... : --- .. . ... : ... .. . ... : ... .. . ... : --- .. . ... : ... .. . ... : ... .. . ...
ROW 50 : C-3 0D . ... : G#1 0D . ... : F-2 00 . ... : F-# 03 C ... : ... .. . ... : F-1 01 . ... : D#3 0F . ... : F-3 07 . ...
ROW 51 : ... .. . ... : ... .. . ... : --- .. . ... : ... .. . ... : ... .. . ... : --- .. . ... : ... .. . ... : ... .. . ...
ROW 52 : G#2 0D . ... : C-3 0D . ... : F-2 00 . ... : ... .. . ... : ... .. . ... : F-1 01 . ... : ... .. . ... : D#3 07 . ...
ROW 53 : ... .. . ... : ... .. . ... : --- .. . ... : ... .. . ... : ... .. . ... : --- .. . ... : ... .. . ... : ... .. . ...
ROW 54 : F-2 0D . ... : G#2 0D . ... : F-2 00 . ... : F-# 03 A ... : ... .. . ... : F-1 01 . ... : ... .. . ... : ... .. . ...
ROW 55 : ... .. . ... : ... .. . ... : --- .. . ... : ... .. . ... : ... .. . ... : --- .. . ... : ... .. . ... : ... .. . ...
ROW 56 : C-2 0D . ... : F-2 0D . ... : F-2 00 . ... : F-# 03 8 ... : ... .. . ... : F-1 01 . ... : D-3 0F . ... : ... .. . ...
ROW 57 : ... .. . ... : ... .. . ... : --- .. . ... : ... .. . ... : ... .. . ... : --- .. . ... : ... .. . ... : ... .. . ...
ROW 58 : G#2 0D . ... : C-2 0D . ... : F-3 00 . ... : 4-# 03 C ... : ... .. . ... : F-2 01 . ... : ... .. . ... : D-3 07 . ...
ROW 59 : ... .. . ... : ... .. . ... : --- .. . ... : ... .. . ... : ... .. . ... : --- .. . ... : ... .. . ... : ... .. . ...
ROW 5A : F-2 0D . ... : G#2 0D . ... : F-2 00 . ... : 8-# 03 4 ... : ... .. . ... : F-1 01 . ... : ... .. . ... : ... .. . ...
ROW 5B : ... .. . ... : ... .. . ... : --- .. . ... : 8-# 03 5 ... : ... .. . ... : --- .. . ... : ... .. . ... : ... .. . ...
ROW 5C : C-2 0D . ... : F-2 0D . ... : F-2 00 . ... : F-# 03 A ... : ... .. . ... : F-1 01 . ... : D#3 0F . ... : ... .. . ...
ROW 5D : ... .. . ... : ... .. . ... : --- .. . ... : ... .. . ... : ... .. . ... : --- .. . ... : ... .. . ... : ... .. . ...
ROW 5E : G#1 0D . ... : C-2 0D . ... : F-2 00 . ... : F-# 03 8 ... : ... .. . ... : F-1 01 . ... : ... .. . ... : D#3 07 . ...
ROW 5F : ... .. . ... : ... .. . ... : --- .. . ... : ... .. . ... : ... .. . ... : --- .. . ... : ... .. . ... : ... .. . ...
ROW 60 : D-3 0D . ... : G#1 0D . ... : A#2 00 . ... : F-# 03 C ... : ... .. . ... : A#1 01 . ... : F-3 0F . ... : ... .. . ...
ROW 61 : ... .. . ... : ... .. . ... : --- .. . ... : ... .. . ... : ... .. . ... : --- .. . ... : ... .. . ... : ... .. . ...
ROW 62 : A#2 0D . ... : D-3 0D . ... : A#2 00 . ... : ... .. . ... : ... .. . ... : A#1 01 . ... : ... .. . ... : F-3 07 . ...
ROW 63 : ... .. . ... : ... .. . ... : --- .. . ... : ... .. . ... : ... .. . ... : --- .. . ... : ... .. . ... : ... .. . ...
ROW 64 : F-2 0D . ... : A#2 0D . ... : A#2 00 . ... : F-# 03 A ... : ... .. . ... : A#1 01 . ... : ... .. . ... : ... .. . ...
ROW 65 : ... .. . ... : ... .. . ... : --- .. . ... : ... .. . ... : ... .. . ... : --- .. . ... : ... .. . ... : ... .. . ...
ROW 66 : D-2 0D . ... : F-2 0D . ... : A#2 00 . ... : F-# 03 8 ... : ... .. . ... : A#1 01 . ... : ... .. . ... : ... .. . ...
ROW 67 : ... .. . ... : ... .. . ... : --- .. . ... : ... .. . ... : ... .. . ... : --- .. . ... : ... .. . ... : ... .. . ...
ROW 68 : A#2 0D . ... : D-2 0D . ... : A#3 00 . ... : 4-# 03 C ... : ... .. . ... : A#2 01 . ... : ... .. . ... : ... .. . ...
ROW 69 : ... .. . ... : ... .. . ... : --- .. . ... : ... .. . ... : ... .. . ... : --- .. . ... : ... .. . ... : ... .. . ...
ROW 6A : F-2 0D . ... : A#2 0D . ... : A#2 00 . ... : 8-# 03 4 ... : ... .. . ... : A#1 01 . ... : ... .. . ... : ... .. . ...
ROW 6B : ... .. . ... : ... .. . ... : --- .. . ... : 8-# 03 5 ... : ... .. . ... : --- .. . ... : ... .. . ... : ... .. . ...
ROW 6C : D-2 0D . ... : F-2 0D . ... : A#2 00 . ... : F-# 03 A ... : ... .. . ... : A#1 01 . ... : ... .. . ... : ... .. . ...
ROW 6D : ... .. . ... : ... .. . ... : --- .. . ... : ... .. . ... : ... .. . ... : --- .. . ... : ... .. . ... : ... .. . ...
ROW 6E : A#1 0D . ... : D-2 0D . ... : A#2 00 . ... : F-# 03 8 ... : ... .. . ... : A#1 01 . ... : ... .. . ... : ... .. . ...
ROW 6F : ... .. . ... : ... .. . ... : --- .. . ... : ... .. . ... : ... .. . ... : --- .. . ... : ... .. . ... : ... .. . ...
ROW 70 : D-3 0D . ... : F-2 0D . ... : A#2 00 . ... : F-# 03 C ... : ... .. . ... : A#1 01 . ... : F-3 0F . ... : ... .. . ...
ROW 71 : ... .. . ... : ... .. . ... : --- .. . ... : ... .. . ... : ... .. . ... : --- .. . ... : ... .. . ... : ... .. . ...
ROW 72 : A#2 0D . ... : D-3 0D . ... : A#2 00 . ... : ... .. . ... : ... .. . ... : A#1 01 . ... : ... .. . ... : F-3 07 . ...
ROW 73 : ... .. . ... : ... .. . ... : --- .. . ... : ... .. . ... : ... .. . ... : --- .. . ... : ... .. . ... : ... .. . ...
ROW 74 : F-2 0D . ... : A#2 0D . ... : A#2 00 . ... : F-# 03 A ... : ... .. . ... : A#1 01 . ... : ... .. . ... : ... .. . ...
ROW 75 : ... .. . ... : ... .. . ... : --- .. . ... : ... .. . ... : ... .. . ... : --- .. . ... : ... .. . ... : ... .. . ...
ROW 76 : D-2 0D . ... : F-2 0D . ... : A#2 00 . ... : F-# 03 8 ... : ... .. . ... : A#1 01 . ... : A#3 0F . ... : ... .. . ...
ROW 77 : ... .. . ... : ... .. . ... : --- .. . ... : ... .. . ... : ... .. . ... : --- .. . ... : ... .. . ... : ... .. . ...
ROW 78 : A#2 0D . ... : D-2 0D . ... : A#3 00 . ... : 4-# 03 C ... : ... .. . ... : A#2 01 . ... : ... .. . ... : A#3 07 . ...
ROW 79 : ... .. . ... : ... .. . ... : --- .. . ... : ... .. . ... : ... .. . ... : --- .. . ... : ... .. . ... : ... .. . ...
ROW 7A : F-2 0D . ... : A#2 0D . ... : A#2 00 . ... : 8-# 03 4 ... : ... .. . ... : A#1 01 . ... : ... .. . ... : ... .. . ...
ROW 7B : ... .. . ... : ... .. . ... : --- .. . ... : 8-# 03 5 ... : ... .. . ... : --- .. . ... : ... .. . ... : ... .. . ...
ROW 7C : D-2 0D . ... : F-2 0D . ... : A#2 00 . ... : F-# 03 A ... : ... .. . ... : A#1 01 . ... : F-3 0F . ... : ... .. . ...
ROW 7D : ... .. . ... : ... .. . ... : --- .. . ... : ... .. . ... : ... .. . ... : --- .. . ... : ... .. . ... : ... .. . ...
ROW 7E : A#1 0D . ... : D-2 0D . ... : A#2 00 . ... : F-# 03 8 ... : ... .. . ... : A#1 01 . ... : ... .. . ... : ... .. . ...
ROW 7F : ... .. . ... : ... .. . ... : --- .. . ... : ... .. . ... : ... .. . ... : --- .. . ... : ... .. . ... : ... .. . ...

PATTERN 06
ROW 00 : --- .. . ... : --- .. . ... : C-2 00 . ... : F-# 03 C ... : ... .. . ... : C-1 01 . ... : C-4 0F F ... : G-3 07 F ...
ROW 01 : ... .. . ... : ... .. . ... : --- .. . ... : ... .. . ... : ... .. . ... : --- .. . ... : ... .. . ... : ... .. . ...
ROW 02 : ... .. . ... : ... .. . ... : C-2 00 . ... : ... .. . ... : ... .. . ... : C-1 01 . ... : ... .. . ... : ... .. . ...
ROW 03 : ... .. . ... : ... .. . ... : --- .. . ... : ... .. . ... : ... .. . ... : --- .. . ... : ... .. . ... : ... .. . ...
ROW 04 : ... .. . ... : ... .. . ... : C-2 00 . ... : F-# 03 A ... : ... .. . ... : C-1 01 . ... : C-4 0F . ... : G-3 07 . ...
ROW 05 : ... .. . ... : ... .. . ... : --- .. . ... : ... .. . ... : ... .. . ... : --- .. . ... : ... .. . ... : ... .. . ...
ROW 06 : ... .. . ... : ... .. . ... : C-2 00 . ... : F-# 03 8 ... : ... .. . ... : C-1 01 . ... : C-4 0F . ... : G-3 07 . ...
ROW 07 : ... .. . ... : ... .. . ... : --- .. . ... : ... .. . ... : ... .. . ... : --- .. . ... : ... .. . ... : ... .. . ...
ROW 08 : ... .. . ... : ... .. . ... : C-3 00 . ... : 4-# 03 C ... : ... .. . ... : C-2 01 . ... : === .. . ... : === .. . ...
ROW 09 : ... .. . ... : ... .. . ... : --- .. . ... : ... .. . ... : ... .. . ... : --- .. . ... : ... .. . ... : ... .. . ...
ROW 0A : ... .. . ... : ... .. . ... : C-2 00 . ... : 8-# 03 4 ... : ... .. . ... : C-1 01 . ... : ... .. . ... : ... .. . ...
ROW 0B : ... .. . ... : ... .. . ... : --- .. . ... : 8-# 03 5 ... : ... .. . ... : --- .. . ... : ... .. . ... : ... .. . ...
ROW 0C : ... .. . ... : ... .. . ... : C-2 00 . ... : F-# 03 A ... : ... .. . ... : C-1 01 . ... : ... .. . ... : ... .. . ...
ROW 0D : ... .. . ... : ... .. . ... : --- .. . ... : ... .. . ... : ... .. . ... : --- .. . ... : ... .. . ... : ... .. . ...
ROW 0E : ... .. . ... : ... .. . ... : C-2 00 . ... : F-# 03 8 ... : ... .. . ... : C-1 01 . ... : ... .. . ... : ... .. . ...
ROW 0F : ... .. . ... : ... .. . ... : --- .. . ... : ... .. . ... : ... .. . ... : --- .. . ... : ... .. . ... : ... .. . ...
ROW 10 : ... .. . ... : ... .. . ... : C-2 00 . ... : F-# 03 C ... : ... .. . ... : C-1 01 . ... : A#3 0F . ... : F-3 07 . ...
ROW 11 : ... .. . ... : ... .. . ... : --- .. . ... : ... .. . ... : ... .. . ... : --- .. . ... : ... .. . ... : ... .. . ...
ROW 12 : ... .. . ... : ... .. . ... : C-2 00 . ... : ... .. . ... : ... .. . ... : C-1 01 . ... : ... .. . ... : ... .. . ...
ROW 13 : ... .. . ... : ... .. . ... : --- .. . ... : ... .. . ... : ... .. . ... : --- .. . ... : ... .. . ... : ... .. . ...
ROW 14 : ... .. . ... : ... .. . ... : C-2 00 . ... : F-# 03 A ... : ... .. . ... : C-1 01 . ... : A#3 0F . ... : F-3 07 . ...
ROW 15 : ... .. . ... : ... .. . ... : --- .. . ... : ... .. . ... : ... .. . ... : --- .. . ... : ... .. . ... : ... .. . ...
ROW 16 : ... .. . ... : ... .. . ... : C-2 00 . ... : F-# 03 8 ... : ... .. . ... : C-1 01 . ... : A#3 0F . ... : F-3 07 . ...
ROW 17 : ... .. . ... : ... .. . ... : --- .. . ... : ... .. . ... : ... .. . ... : --- .. . ... : ... .. . ... : ... .. . ...
ROW 18 : ... .. . ... : ... .. . ... : C-3 00 . ... : 4-# 03 C ... : ... .. . ... : C-2 01 . ... : === .. . ... : === .. . ...
ROW 19 : ... .. . ... : ... .. . ... : --- .. . ... : ... .. . ... : ... .. . ... : --- .. . ... : ... .. . ... : ... .. . ...
ROW 1A : ... .. . ... : ... .. . ... : C-2 00 . ... : 8-# 03 4 ... : ... .. . ... : C-1 01 . ... : ... .. . ... : ... .. . ...
ROW 1B : ... .. . ... : ... .. . ... : --- .. . ... : 8-# 03 5 ... : ... .. . ... : --- .. . ... : ... .. . ... : ... .. . ...
ROW 1C : ... .. . ... : ... .. . ... : C-2 00 . ... : F-# 03 A ... : ... .. . ... : C-1 01 . ... : A#3 0F . ... : ... .. . ...
ROW 1D : ... .. . ... : ... .. . ... : --- .. . ... : ... .. . ... : ... .. . ... : --- .. . ... : ... .. . ... : ... .. . ...
ROW 1E : ... .. . ... : ... .. . ... : C-2 00 . ... : F-# 03 8 ... : ... .. . ... : C-1 01 . ... : F-3 0F . ... : A#3 07 4 ...
ROW 1F : ... .. . ... : ... .. . ... : --- .. . ... : ... .. . ... : ... .. . ... : --- .. . ... : ... .. . ... : ... .. . ...
ROW 20 : C-3 0D C ... : ... .. . ... : C-2 00 . ... : F-# 03 C ... : ... .. . ... : C-1 01 . ... : G-3 0F . ... : F-3 07 . ...
ROW 21 : ... .. . ... : ... .. . ... : --- .. . ... : ... .. . ... : ... .. . ... : --- .. . ... : ... .. . ... : ... .. . ...
ROW 22 : G-2 0D . ... : C-3 0D 6 ... : C-2 00 . ... : ... .. . ... : ... .. . ... : C-1 01 . ... : ... .. . ... : G-3 07 . ...
ROW 23 : ... .. . ... : ... .. . ... : --- .. . ... : ... .. . ... : ... .. . ... : --- .. . ... : ... .. . ... : ... .. . ...
ROW 24 : D#2 0D . ... : G-2 0D . ... : C-2 00 . ... : F-# 03 A ... : ... .. . ... : C-1 01 . ... : ... .. . ... : ... .. . ...
ROW 25 : ... .. . ... : ... .. . ... : --- .. . ... : ... .. . ... : ... .. . ... : --- .. . ... : ... .. . ... : ... .. . ...
ROW 26 : C-2 0D . ... : D#2 0D . ... : C-2 00 . ... : F-# 03 8 ... : ... .. . ... : C-1 01 . ... : ... .. . ... : ... .. . ...
ROW 27 : ... .. . ... : ... .. . ... : --- .. . ... : ... .. . ... : ... .. . ... : --- .. . ... : ... .. . ... : ... .. . ...
ROW 28 : G-2 0D . ... : C-2 0D . ... : C-3 00 . ... : 4-# 03 C ... : ... .. . ... : C-2 01 . ... : ... .. . ... : ... .. . ...
ROW 29 : ... .. . ... : ... .. . ... : --- .. . ... : ... .. . ... : ... .. . ... : --- .. . ... : ... .. . ... : ... .. . ...
ROW 2A : D#2 0D . ... : G-2 0D . ... : C-2 00 . ... : 8-# 03 4 ... : ... .. . ... : C-1 01 . ... : ... .. . ... : ... .. . ...
ROW 2B : ... .. . ... : ... .. . ... : --- .. . ... : 8-# 03 5 ... : ... .. . ... : --- .. . ... : ... .. . ... : ... .. . ...
ROW 2C : C-2 0D . ... : D#2 0D . ... : C-2 00 . ... : F-# 03 A ... : ... .. . ... : C-1 01 . ... : ... .. . ... : ... .. . ...
ROW 2D : ... .. . ... : ... .. . ... : --- .. . ... : ... .. . ... : ... .. . ... : --- .. . ... : ... .. . ... : ... .. . ...
ROW 2E : G-1 0D . ... : C-2 0D . ... : C-2 00 . ... : F-# 03 8 ... : ... .. . ... : C-1 01 . ... : ... .. . ... : ... .. . ...
ROW 2F : ... .. . ... : ... .. . ... : --- .. . ... : ... .. . ... : ... .. . ... : --- .. . ... : ... .. . ... : ... .. . ...
ROW 30 : C-3 0D . ... : G-1 0D . ... : C-2 00 . ... : F-# 03 C ... : ... .. . ... : C-1 01 . ... : ... .. . ... : ... .. . ...
ROW 31 : ... .. . ... : ... .. . ... : --- .. . ... : ... .. . ... : ... .. . ... : --- .. . ... : ... .. . ... : ... .. . ...
ROW 32 : G-2 0D . ... : C-3 0D . ... : C-2 00 . ... : ... .. . ... : ... .. . ... : C-1 01 . ... : ... .. . ... : ... .. . ...
ROW 33 : ... .. . ... : ... .. . ... : --- .. . ... : ... .. . ... : ... .. . ... : --- .. . ... : ... .. . ... : ... .. . ...
ROW 34 : D#2 0D . ... : G-2 0D . ... : C-2 00 . ... : F-# 03 A ... : ... .. . ... : C-1 01 . ... : ... .. . ... : ... .. . ...
ROW 35 : ... .. . ... : ... .. . ... : --- .. . ... : ... .. . ... : ... .. . ... : --- .. . ... : ... .. . ... : ... .. . ...
ROW 36 : C-2 0D . ... : D#2 0D . ... : C-2 00 . ... : F-# 03 8 ... : ... .. . ... : C-1 01 . ... : ... .. . ... : ... .. . ...
ROW 37 : ... .. . ... : ... .. . ... : --- .. . ... : ... .. . ... : ... .. . ... : --- .. . ... : ... .. . ... : ... .. . ...
ROW 38 : G-2 0D . ... : C-2 0D . ... : C-3 00 . ... : 4-# 03 C ... : ... .. . ... : C-2 01 . ... : D#3 0F . ... : ... .. . ...
ROW 39 : ... .. . ... : ... .. . ... : --- .. . ... : ... .. . ... : ... .. . ... : --- .. . ... : ... .. . ... : ... .. . ...
ROW 3A : D#2 0D . ... : G-2 0D . ... : C-2 00 . ... : 8-# 03 4 ... : ... .. . ... : C-1 01 . ... : ... .. . ... : D#3 07 . ...
ROW 3B : ... .. . ... : ... .. . ... : --- .. . ... : 8-# 03 5 ... : ... .. . ... : --- .. . ... : ... .. . ... : ... .. . ...
ROW 3C : C-2 0D . ... : D#2 0D . ... : C-2 00 . ... : F-# 03 A ... : ... .. . ... : C-1 01 . ... : ... .. . ... : ... .. . ...
ROW 3D : ... .. . ... : ... .. . ... : --- .. . ... : ... .. . ... : ... .. . ... : --- .. . ... : ... .. . ... : ... .. . ...
ROW 3E : G-1 0D . ... : C-2 0D . ... : C-2 00 . ... : F-# 03 8 ... : ... .. . ... : C-1 01 . ... : ... .. . ... : ... .. . ...
ROW 3F : ... .. . ... : ... .. . ... : --- .. . ... : ... .. . ... : ... .. . ... : --- .. . ... : ... .. . ... : ... .. . ...
ROW 40 : C-3 0D . ... : G-1 0D . ... : F-2 00 . ... : 1-# 03 C ... : ... .. . ... : F-1 01 . ... : G#3 0F . ... : ... .. . ...
ROW 41 : ... .. . ... : ... .. . ... : --- .. . ... : ... .. . ... : ... .. . ... : --- .. . ... : ... .. . ... : ... .. . ...
ROW 42 : G#2 0D . ... : C-3 0D . ... : F-2 00 . ... : ... .. . ... : ... .. . ... : F-1 01 . ... : ... .. . ... : G#3 07 . ...
ROW 43 : ... .. . ... : ... .. . ... : --- .. . ... : ... .. . ... : ... .. . ... : --- .. . ... : ... .. . ... : ... .. . ...
ROW 44 : F-2 0D . ... : G#2 0D . ... : F-2 00 . ... : 1-# 03 A ... : ... .. . ... : F-1 01 . ... : ... .. . ... : ... .. . ...
ROW 45 : ... .. . ... : ... .. . ... : --- .. . ... : ... .. . ... : ... .. . ... : --- .. . ... : ... .. . ... : ... .. . ...
ROW 46 : C-2 0D . ... : F-2 0D . ... : F-2 00 . ... : 1-# 03 8 ... : ... .. . ... : F-1 01 . ... : ... .. . ... : ... .. . ...
ROW 47 : ... .. . ... : ... .. . ... : --- .. . ... : ... .. . ... : ... .. . ... : --- .. . ... : ... .. . ... : ... .. . ...
ROW 48 : G#2 0D . ... : C-2 0D . ... : F-3 00 . ... : 6-# 03 C ... : ... .. . ... : F-2 01 . ... : ... .. . ... : ... .. . ...
ROW 49 : ... .. . ... : ... .. . ... : --- .. . ... : ... .. . ... : ... .. . ... : --- .. . ... : ... .. . ... : ... .. . ...
ROW 4A : F-2 0D . ... : G#2 0D . ... : F-2 00 . ... : A-# 03 4 ... : ... .. . ... : F-1 01 . ... : ... .. . ... : ... .. . ...
ROW 4B : ... .. . ... : ... .. . ... : --- .. . ... : A-# 03 5 ... : ... .. . ... : --- .. . ... : ... .. . ... : ... .. . ...
ROW 4C : C-2 0D . ... : F-2 0D . ... : F-2 00 . ... : 1-# 03 A ... : ... .. . ... : F-1 01 . ... : ... .. . ... : ... .. . ...
ROW 4D : ... .. . ... : ... .. . ... : --- .. . ... : ... .. . ... : ... .. . ... : --- .. . ... : ... .. . ... : ... .. . ...
ROW 4E : G#1 0D . ... : C-2 0D . ... : F-2 00 . ... : 1-# 03 8 ... : ... .. . ... : F-1 01 . ... : ... .. . ... : ... .. . ...
ROW 4F : ... .. . ... : ... .. . ... : --- .. . ... : ... .. . ... : ... .. . ... : --- .. . ... : ... .. . ... : ... .. . ...
ROW 50 : C-3 0D . ... : G#1 0D . ... : F-2 00 . ... : 1-# 03 C ... : ... .. . ... : F-1 01 . ... : G#3 0F . ... : ... .. . ...
ROW 51 : ... .. . ... : ... .. . ... : --- .. . ... : ... .. . ... : ... .. . ... : --- .. . ... : ... .. . ... : ... .. . ...
ROW 52 : G#2 0D . ... : C-3 0D . ... : F-2 00 . ... : ... .. . ... : ... .. . ... : F-1 01 . ... : ... .. . ... : G#3 07 . ...
ROW 53 : ... .. . ... : ... .. . ... : --- .. . ... : ... .. . ... : ... .. . ... : --- .. . ... : ... .. . ... : ... .. . ...
ROW 54 : F-2 0D . ... : G#2 0D . ... : F-2 00 . ... : 1-# 03 A ... : ... .. . ... : F-1 01 . ... : ... .. . ... : ... .. . ...
ROW 55 : ... .. . ... : ... .. . ... : --- .. . ... : ... .. . ... : ... .. . ... : --- .. . ... : ... .. . ... : ... .. . ...
ROW 56 : C-2 0D . ... : F-2 0D . ... : F-2 00 . ... : 1-# 03 8 ... : ... .. . ... : F-1 01 . ... : A#3 0F . ... : ... .. . ...
ROW 57 : ... .. . ... : ... .. . ... : --- .. . ... : ... .. . ... : ... .. . ... : --- .. . ... : ... .. . ... : ... .. . ...
ROW 58 : G#2 0D . ... : C-2 0D . ... : F-3 00 . ... : 6-# 03 C ... : ... .. . ... : F-2 01 . ... : ... .. . ... : A#3 07 . ...
ROW 59 : ... .. . ... : ... .. . ... : --- .. . ... : ... .. . ... : ... .. . ... : --- .. . ... : ... .. . ... : ... .. . ...
ROW 5A : F-2 0D . ... : G#2 0D . ... : F-2 00 . ... : A-# 03 4 ... : ... .. . ... : F-1 01 . ... : ... .. . ... : ... .. . ...
ROW 5B : ... .. . ... : ... .. . ... : --- .. . ... : A-# 03 5 ... : ... .. . ... : --- .. . ... : ... .. . ... : ... .. . ...
ROW 5C : C-2 0D . ... : F-2 0D . ... : F-2 00 . ... : 1-# 03 A ... : ... .. . ... : F-1 01 . ... : C-4 0F . ... : ... .. . ...
ROW 5D : ... .. . ... : ... .. . ... : --- .. . ... : ... .. . ... : ... .. . ... : --- .. . ... : ... .. . ... : ... .. . ...
ROW 5E : G#1 0D . ... : C-2 0D . ... : F-2 00 . ... : 1-# 03 8 ... : ... .. . ... : F-1 01 . ... : ... .. . ... : C-4 07 . ...
ROW 5F : ... .. . ... : ... .. . ... : --- .. . ... : ... .. . ... : ... .. . ... : --- .. . ... : ... .. . ... : ... .. . ...
ROW 60 : D-3 0D . ... : G#1 0D . ... : F#3 00 . ... : F-# 03 C ... : ... .. . ... : G-2 01 . ... : B-3 0F . ... : ... .. . ...
ROW 61 : ... .. . ... : ... .. . ... : --- .. . ... : ... .. . ... : ... .. . ... : --- .. . ... : ... .. . ... : ... .. . ...
ROW 62 : B-2 0D . ... : D-3 0D . ... : F#3 00 . ... : ... .. . ... : ... .. . ... : G-2 01 . ... : ... .. . ... : B-3 07 . ...
ROW 63 : ... .. . ... : ... .. . ... : --- .. . ... : ... .. . ... : ... .. . ... : --- .. . ... : ... .. . ... : ... .. . ...
ROW 64 : G-2 0D . ... : B-2 0D . ... : F#3 00 . ... : F-# 03 A ... : ... .. . ... : G-2 01 . ... : ... .. . ... : ... .. . ...
ROW 65 : ... .. . ... : ... .. . ... : --- .. . ... : ... .. . ... : ... .. . ... : --- .. . ... : ... .. . ... : ... .. . ...
ROW 66 : D-2 0D . ... : G-2 0D . ... : F#3 00 . ... : F-# 03 8 ... : ... .. . ... : G-2 01 . ... : ... .. . ... : ... .. . ...
ROW 67 : ... .. . ... : ... .. . ... : --- .. . ... : ... .. . ... : ... .. . ... : --- .. . ... : ... .. . ... : ... .. . ...
ROW 68 : B-2 0D . ... : D-2 0D . ... : F#4 00 . ... : 4-# 03 C ... : ... .. . ... : G-3 01 . ... : ... .. . ... : ... .. . ...
ROW 69 : ... .. . ... : ... .. . ... : --- .. . ... : ... .. . ... : ... .. . ... : --- .. . ... : ... .. . ... : ... .. . ...
ROW 6A : G-2 0D . ... : B-2 0D . ... : F#3 00 . ... : 8-# 03 4 ... : ... .. . ... : G-2 01 . ... : ... .. . ... : ... .. . ...
ROW 6B : ... .. . ... : ... .. . ... : --- .. . ... : 8-# 03 5 ... : ... .. . ... : --- .. . ... : ... .. . ... : ... .. . ...
ROW 6C : D-2 0D . ... : G-2 0D . ... : F#3 00 . ... : F-# 03 A ... : ... .. . ... : G-2 01 . ... : ... .. . ... : ... .. . ...
ROW 6D : ... .. . ... : ... .. . ... : --- .. . ... : ... .. . ... : ... .. . ... : --- .. . ... : ... .. . ... : ... .. . ...
ROW 6E : B-1 0D . ... : D-2 0D . ... : F#3 00 . ... : F-# 03 8 ... : ... .. . ... : G-2 01 . ... : ... .. . ... : ... .. . ...
ROW 6F : ... .. . ... : ... .. . ... : --- .. . ... : ... .. . ... : ... .. . ... : --- .. . ... : ... .. . ... : ... .. . ...
ROW 70 : D-3 0D . ... : B-1 0D . ... : F#3 00 . ... : 5-# 03 F ... : ... .. . ... : G-2 01 . ... : B-3 0F . ... : ... .. . ...
ROW 71 : ... .. . ... : ... .. . ... : --- .. . ... : ... .. . ... : ... .. . ... : --- .. . ... : ... .. . ... : ... .. . ...
ROW 72 : B-2 0D . ... : D-3 0D . ... : F#3 00 . ... : ... .. . ... : ... .. . ... : G-2 01 . ... : ... .. . ... : B-3 07 . ...
ROW 73 : ... .. . ... : ... .. . ... : --- .. . ... : ... .. . ... : ... .. . ... : --- .. . ... : ... .. . ... : ... .. . ...
ROW 74 : G-2 0D . ... : B-2 0D . ... : F#3 00 . ... : 5-# 03 . ... : ... .. . ... : G-2 01 . ... : ... .. . ... : ... .. . ...
ROW 75 : ... .. . ... : ... .. . ... : --- .. . ... : ... .. . ... : ... .. . ... : --- .. . ... : ... .. . ... : ... .. . ...
ROW 76 : D-2 0D . ... : G-2 0D . ... : F#3 00 . ... : 5-# 03 . ... : ... .. . ... : G-2 01 . ... : C-4 0F . ... : ... .. . ...
ROW 77 : ... .. . ... : ... .. . ... : --- .. . ... : ... .. . ... : ... .. . ... : --- .. . ... : ... .. . ... : ... .. . ...
ROW 78 : B-2 0D . ... : D-2 0D . ... : F#4 00 . ... : ... .. . ... : ... .. . ... : G-3 01 . ... : ... .. . ... : C-4 07 . ...
ROW 79 : ... .. . ... : ... .. . ... : --- .. . ... : ... .. . ... : ... .. . ... : --- .. . ... : ... .. . ... : ... .. . ...
ROW 7A : G-2 0D . ... : B-2 0D . ... : F#3 00 . ... : 5-# 03 . ... : ... .. . ... : G-2 01 . ... : ... .. . ... : ... .. . ...
ROW 7B : ... .. . ... : ... .. . ... : --- .. . ... : ... .. . ... : ... .. . ... : --- .. . ... : ... .. . ... : ... .. . ...
ROW 7C : D-2 0D . ... : G-2 0D . ... : F#3 00 . ... : 5-# 03 . ... : ... .. . ... : G-2 01 . ... : D-4 0F . ... : ... .. . ...
ROW 7D : ... .. . ... : ... .. . ... : --- .. . ... : ... .. . ... : ... .. . ... : --- .. . ... : ... .. . ... : ... .. . ...
ROW 7E : B-1 0D . ... : D-2 0D . ... : F#3 00 . ... : ... .. . ... : ... .. . ... : G-2 01 . ... : ... .. . ... : D-4 07 . ...
ROW 7F : ... .. . ... : ... .. . ... : --- .. . ... : ... .. . ... : ... .. . ... : --- .. . ... : ... .. . ... : ... .. . ...

PATTERN 07
ROW 00 : C-3 0D 8 ... : C-3 10 F ... : C-2 00 . ... : F-# 03 C ... : ... .. . ... : C-1 01 7 ... : D#4 0F F ... : --- .. . ...
ROW 01 : ... .. . ... : ... .. . ... : --- 0D . ... : ... .. . ... : ... .. . ... : --- 0D . ... : ... .. . ... : ... .. . ...
ROW 02 : G-2 0D . ... : ... .. . ... : C-2 00 . ... : ... .. . ... : ... .. . ... : C-1 01 . ... : ... .. . ... : D#4 07 6 ...
ROW 03 : ... .. . ... : ... .. . ... : --- 0D . ... : ... .. . ... : ... .. . ... : --- 0D . ... : ... .. . ... : ... .. . ...
ROW 04 : D#2 0D . ... : ... .. . ... : C-2 00 . ... : F-# 03 A ... : ... .. . ... : C-1 01 . ... : ... .. . ... : ... .. . ...
ROW 05 : ... .. . ... : ... .. . ... : --- 0D . ... : ... .. . ... : ... .. . ... : --- 0D . ... : ... .. . ... : ... .. . ...
ROW 06 : C-2 0D . ... : ... .. . ... : C-2 00 . ... : F-# 03 8 ... : ... .. . ... : C-1 01 . ... : ... .. . ... : ... .. . ...
ROW 07 : ... .. . ... : ... .. . ... : --- 0D . ... : ... .. . ... : ... .. . ... : --- 0D . ... : ... .. . ... : ... .. . ...
ROW 08 : G-2 0D . ... : ... .. . ... : C-3 00 . ... : 4-# 03 C ... : ... .. . ... : C-2 01 . ... : C-4 0F . ... : ... .. . ...
ROW 09 : ... .. . ... : ... .. . ... : --- 0D . ... : ... .. . ... : ... .. . ... : --- 0D . ... : ... .. . ... : ... .. . ...
ROW 0A : D#2 0D . ... : ... .. . ... : C-2 00 . ... : 8-# 03 4 ... : ... .. . ... : C-1 01 . ... : ... .. . ... : C-4 07 . ...
ROW 0B : ... .. . ... : ... .. . ... : --- .. . ... : 8-# 03 5 ... : ... .. . ... : --- .. . ... : ... .. . ... : ... .. . ...
ROW 0C : C-2 0D . ... : G-2 10 . ... : C-2 00 . ... : F-# 03 A ... : ... .. . ... : C-1 01 . ... : D-4 0F . ... : ... .. . ...
ROW 0D : ... .. . ... : ... .. . ... : --- .. . ... : ... .. . ... : ... .. . ... : --- .. . ... : ... .. . ... : ... .. . ...
ROW 0E : G-1 0D . ... : F-2 10 . ... : C-2 00 . ... : F-# 03 8 ... : ... .. . ... : C-1 01 . ... : ... .. . ... : D-4 07 . ...
ROW 0F : ... .. . ... : ... .. . ... : --- .. . ... : ... .. . ... : ... .. . ... : --- .. . ... : ... .. . ... : ... .. . ...
ROW 10 : C-3 0D . ... : D#2 10 . ... : C-2 00 . ... : F-# 03 C ... : ... .. . ... : C-1 01 . ... : D#4 0F . ... : ... .. . ...
ROW 11 : ... .. . ... : ... .. . ... : --- .. . ... : ... .. . ... : ... .. . ... : --- .. . ... : ... .. . ... : ... .. . ...
ROW 12 : G-2 0D . ... : ... .. . ... : C-2 00 . ... : ... .. . ... : ... .. . ... : C-1 01 . ... : ... .. . ... : D#4 07 . ...
ROW 13 : ... .. . ... : ... .. . ... : --- .. . ... : ... .. . ... : ... .. . ... : --- .. . ... : ... .. . ... : ... .. . ...
ROW 14 : D#2 0D . ... : ... .. . ... : C-2 00 . ... : F-# 03 A ... : ... .. . ... : C-1 01 . ... : ... .. . ... : ... .. . ...
ROW 15 : ... .. . ... : ... .. . ... : --- .. . ... : ... .. . ... : ... .. . ... : --- .. . ... : ... .. . ... : ... .. . ...
ROW 16 : C-2 0D . ... : F-2 10 . ... : C-2 00 . ... : F-# 03 8 ... : ... .. . ... : C-1 01 . ... : ... .. . ... : ... .. . ...
ROW 17 : ... .. . ... : ... .. . ... : --- .. . ... : ... .. . ... : ... .. . ... : --- .. . ... : ... .. . ... : ... .. . ...
ROW 18 : G-2 0D . ... : ... .. . ... : C-3 00 . ... : 4-# 03 C ... : ... .. . ... : C-2 01 . ... : C-4 0F . ... : ... .. . ...
ROW 19 : ... .. . ... : ... .. . ... : --- .. . ... : ... .. . ... : ... .. . ... : --- .. . ... : ... .. . ... : ... .. . ...
ROW 1A : D#2 0D . ... : ... .. . ... : C-2 00 . ... : 8-# 03 4 ... : ... .. . ... : C-1 01 . ... : ... .. . ... : C-4 07 . ...
ROW 1B : ... .. . ... : ... .. . ... : --- .. . ... : 8-# 03 5 ... : ... .. . ... : --- .. . ... : ... .. . ... : ... .. . ...
ROW 1C : C-2 0D . ... : G-2 10 . ... : C-2 00 . ... : F-# 03 A ... : ... .. . ... : C-1 01 . ... : ... .. . ... : ... .. . ...
ROW 1D : ... .. . ... : ... .. . ... : --- .. . ... : ... .. . ... : ... .. . ... : --- .. . ... : ... .. . ... : ... .. . ...
ROW 1E : G-1 0D . ... : ... .. . ... : C-2 00 . ... : F-# 03 8 ... : ... .. . ... : C-1 01 . ... : ... .. . ... : ... .. . ...
ROW 1F : ... .. . ... : ... .. . ... : --- .. . ... : ... .. . ... : ... .. . ... : --- .. . ... : ... .. . ... : ... .. . ...
ROW 20 : C-3 0D . ... : G#2 10 . ... : D#2 00 . ... : F-# 03 C ... : ... .. . ... : D#1 01 . ... : G#4 0F . ... : ... .. . ...
ROW 21 : ... .. . ... : ... .. . ... : --- .. . ... : ... .. . ... : ... .. . ... : --- .. . ... : ... .. . ... : ... .. . ...
ROW 22 : G#2 0D . ... : ... .. . ... : D#2 00 . ... : ... .. . ... : ... .. . ... : D#1 01 . ... : ... .. . ... : G#4 07 . ...
ROW 23 : ... .. . ... : ... .. . ... : --- .. . ... : ... .. . ... : ... .. . ... : --- .. . ... : ... .. . ... : ... .. . ...
ROW 24 : D#2 0D . ... : ... .. . ... : D#2 00 . ... : F-# 03 A ... : ... .. . ... : D#1 01 . ... : ... .. . ... : ... .. . ...
ROW 25 : ... .. . ... : ... .. . ... : --- .. . ... : ... .. . ... : ... .. . ... : --- .. . ... : ... .. . ... : ... .. . ...
ROW 26 : C-2 0D . ... : D#2 10 . ... : D#2 00 . ... : F-# 03 8 ... : ... .. . ... : D#1 01 . ... : ... .. . ... : ... .. . ...
ROW 27 : ... .. . ... : ... .. . ... : --- .. . ... : ... .. . ... : ... .. . ... : --- .. . ... : ... .. . ... : ... .. . ...
ROW 28 : G#2 0D . ... : ... .. . ... : D#3 00 . ... : 4-# 03 C ... : ... .. . ... : D#2 01 . ... : ... .. . ... : ... .. . ...
ROW 29 : ... .. . ... : ... .. . ... : --- 0D . ... : ... .. . ... : ... .. . ... : --- 0D . ... : ... .. . ... : ... .. . ...
ROW 2A : D#2 0D . ... : ... .. . ... : D#2 00 . ... : 8-# 03 4 ... : ... .. . ... : D#1 01 . ... : ... .. . ... : ... .. . ...
ROW 2B : ... .. . ... : ... .. . ... : --- .. . ... : 8-# 03 5 ... : ... .. . ... : --- .. . ... : ... .. . ... : ... .. . ...
ROW 2C : C-2 0D . ... : D-2 10 . ... : D#2 00 . ... : F-# 03 A ... : ... .. . ... : D#1 01 . ... : F-4 0F . ... : ... .. . ...
ROW 2D : ... .. . ... : ... .. . ... : --- .. . ... : ... .. . ... : ... .. . ... : --- .. . ... : ... .. . ... : ... .. . ...
ROW 2E : G#1 0D . ... : ... .. . ... : D#2 00 . ... : F-# 03 8 ... : ... .. . ... : D#1 01 . ... : ... .. . ... : F-4 07 . ...
ROW 2F : ... .. . ... : ... .. . ... : --- .. . ... : ... .. . ... : ... .. . ... : --- .. . ... : ... .. . ... : ... .. . ...
ROW 30 : C-3 0D . ... : C-2 10 . ... : D#2 00 . ... : F-# 03 C ... : ... .. . ... : D#1 01 . ... : D#4 0F . ... : ... .. . ...
ROW 31 : ... .. . ... : ... .. . ... : --- .. . ... : ... .. . ... : ... .. . ... : --- .. . ... : ... .. . ... : ... .. . ...
ROW 32 : G#2 0D . ... : ... .. . ... : D#2 00 . ... : ... .. . ... : ... .. . ... : D#1 01 . ... : ... .. . ... : D#4 07 . ...
ROW 33 : ... .. . ... : ... .. . ... : --- .. . ... : ... .. . ... : ... .. . ... : --- .. . ... : ... .. . ... : ... .. . ...
ROW 34 : D#2 0D . ... : ... .. . ... : D#2 00 . ... : F-# 03 A ... : ... .. . ... : D#1 01 . ... : ... .. . ... : ... .. . ...
ROW 35 : ... .. . ... : ... .. . ... : --- .. . ... : ... .. . ... : ... .. . ... : --- .. . ... : ... .. . ... : ... .. . ...
ROW 36 : C-2 0D . ... : G#2 10 . ... : D#2 00 . ... : F-# 03 8 ... : ... .. . ... : D#1 01 . ... : ... .. . ... : ... .. . ...
ROW 37 : ... .. . ... : ... .. . ... : --- .. . ... : ... .. . ... : ... .. . ... : --- .. . ... : ... .. . ... : ... .. . ...
ROW 38 : G#2 0D . ... : ... .. . ... : D#3 00 . ... : 4-# 03 C ... : ... .. . ... : D#2 01 8 ... : C-4 0F . ... : ... .. . ...
ROW 39 : ... .. . ... : ... .. . ... : --- .. . ... : ... .. . ... : ... .. . ... : --- .. . ... : ... .. . ... : ... .. . ...
ROW 3A : D#2 0D . ... : ... .. . ... : D#2 00 . ... : 8-# 03 4 ... : ... .. . ... : D#1 01 9 ... : ... .. . ... : C-4 07 . ...
ROW 3B : ... .. . ... : ... .. . ... : --- .. . ... : 8-# 03 5 ... : ... .. . ... : --- .. . ... : ... .. . ... : ... .. . ...
ROW 3C : C-2 0D . ... : G-2 10 . ... : D#2 00 . ... : F-# 03 A ... : ... .. . ... : D#1 01 A ... : ... .. . ... : ... .. . ...
ROW 3D : ... .. . ... : ... .. . ... : --- .. . ... : ... .. . ... : ... .. . ... : --- .. . ... : ... .. . ... : ... .. . ...
ROW 3E : G#1 0D . ... : ... .. . ... : D#2 00 . ... : F-# 03 8 ... : ... .. . ... : D#1 01 B ... : ... .. . ... : ... .. . ...
ROW 3F : ... .. . ... : ... .. . ... : --- .. . ... : ... .. . ... : ... .. . ... : --- .. . ... : ... .. . ... : ... .. . ...
ROW 40 : C-3 0D . ... : F-2 10 . ... : F-2 00 . ... : F-# 03 C ... : ... .. . ... : F-1 01 C ... : D-4 0F . ... : ... .. . ...
ROW 41 : ... .. . ... : ... .. . ... : --- .. . ... : ... .. . ... : ... .. . ... : --- .. . ... : ... .. . ... : ... .. . ...
ROW 42 : G#2 0D . ... : ... .. . ... : F-2 00 . ... : ... .. . ... : ... .. . ... : F-1 01 D ... : ... .. . ... : D-4 07 . ...
ROW 43 : ... .. . ... : ... .. . ... : --- .. . ... : ... .. . ... : ... .. . ... : --- .. . ... : ... .. . ... : ... .. . ...
ROW 44 : F-2 0D . ... : ... .. . ... : F-2 00 . ... : F-# 03 A ... : ... .. . ... : F-1 01 E ... : ... .. . ... : ... .. . ...
ROW 45 : ... .. . ... : ... .. . ... : --- .. . ... : ... .. . ... : ... .. . ... : --- .. . ... : ... .. . ... : ... .. . ...
ROW 46 : C-2 0D . ... : D-2 10 . ... : F-2 00 . ... : F-# 03 8 ... : ... .. . ... : F-1 01 F ... : ... .. . ... : ... .. . ...
ROW 47 : ... .. . ... : ... .. . ... : --- .. . ... : ... .. . ... : ... .. . ... : --- .. . ... : ... .. . ... : ... .. . ...
ROW 48 : G#2 0D . ... : ... .. . ... : F-3 00 . ... : 4-# 03 C ... : ... .. . ... : F-2 01 . ... : ... .. . ... : ... .. . ...
ROW 49 : ... .. . ... : ... .. . ... : --- .. . ... : ... .. . ... : ... .. . ... : --- .. . ... : ... .. . ... : ... .. . ...
ROW 4A : F-2 0D . ... : ... .. . ... : F-2 00 . ... : 8-# 03 4 ... : ... .. . ... : F-1 01 . ... : ... .. . ... : ... .. . ...
ROW 4B : ... .. . ... : ... .. . ... : --- .. . ... : 8-# 03 5 ... : ... .. . ... : --- .. . ... : ... .. . ... : ... .. . ...
ROW 4C : C-2 0D . ... : D#2 10 . ... : F-2 00 . ... : F-# 03 A ... : ... .. . ... : F-1 01 . ... : ... .. . ... : ... .. . ...
ROW 4D : ... .. . ... : ... .. . ... : --- .. . ... : ... .. . ... : ... .. . ... : --- .. . ... : ... .. . ... : ... .. . ...
ROW 4E : G#1 0D . ... : ... .. . ... : F-2 00 . ... : F-# 03 8 ... : ... .. . ... : F-1 01 . ... : ... .. . ... : ... .. . ...
ROW 4F : ... .. . ... : ... .. . ... : --- .. . ... : ... .. . ... : ... .. . ... : --- .. . ... : ... .. . ... : ... .. . ...
ROW 50 : C-3 0D . ... : F-2 10 . ... : F-2 00 . ... : F-# 03 C ... : ... .. . ... : F-1 01 . ... : C-4 0F . ... : ... .. . ...
ROW 51 : ... .. . ... : ... .. . ... : --- .. . ... : ... .. . ... : ... .. . ... : --- .. . ... : ... .. . ... : ... .. . ...
ROW 52 : G#2 0D . ... : ... .. . ... : F-2 00 . ... : ... .. . ... : ... .. . ... : F-1 01 . ... : ... .. . ... : C-4 07 . ...
ROW 53 : ... .. . ... : ... .. . ... : --- .. . ... : ... .. . ... : ... .. . ... : --- .. . ... : ... .. . ... : ... .. . ...
ROW 54 : F-2 0D . ... : ... .. . ... : F-2 00 . ... : F-# 03 A ... : ... .. . ... : F-1 01 . ... : ... .. . ... : ... .. . ...
ROW 55 : ... .. . ... : ... .. . ... : --- .. . ... : ... .. . ... : ... .. . ... : --- .. . ... : ... .. . ... : ... .. . ...
ROW 56 : C-2 0D . ... : D-2 10 . ... : F-2 00 . ... : F-# 03 8 ... : ... .. . ... : F-1 01 . ... : ... .. . ... : ... .. . ...
ROW 57 : ... .. . ... : ... .. . ... : --- .. . ... : ... .. . ... : ... .. . ... : --- .. . ... : ... .. . ... : ... .. . ...
ROW 58 : G#2 0D . ... : ... .. . ... : F-3 00 . ... : 4-# 03 C ... : ... .. . ... : F-2 01 . ... : D-4 0F . ... : ... .. . ...
ROW 59 : ... .. . ... : ... .. . ... : --- .. . ... : ... .. . ... : ... .. . ... : --- .. . ... : ... .. . ... : ... .. . ...
ROW 5A : F-2 0D . ... : ... .. . ... : F-2 00 . ... : 8-# 03 4 ... : ... .. . ... : F-1 01 . ... : ... .. . ... : ... .. . ...
ROW 5B : ... .. . ... : ... .. . ... : --- .. . ... : 8-# 03 5 ... : ... .. . ... : --- .. . ... : ... .. . ... : ... .. . ...
ROW 5C : C-2 0D . ... : C-2 10 . ... : F-2 00 . ... : F-# 03 A ... : ... .. . ... : F-1 01 . ... : D#4 0F . ... : ... .. . ...
ROW 5D : ... .. . ... : ... .. . ... : --- .. . ... : ... .. . ... : ... .. . ... : --- .. . ... : ... .. . ... : ... .. . ...
ROW 5E : G#1 0D . ... : ... .. . ... : F-2 00 . ... : F-# 03 8 ... : ... .. . ... : F-1 01 . ... : ... .. . ... : F-4 07 . ...
ROW 5F : ... .. . ... : ... .. . ... : --- .. . ... : ... .. . ... : ... .. . ... : --- .. . ... : ... .. . ... : ... .. . ...
ROW 60 : D-3 0D . ... : F-1 10 . ... : B-2 00 . ... : 4-# 03 C ... : ... .. . ... : B-1 01 . ... : F-4 0F . ... : F-2 0F . ...
ROW 61 : ... .. . ... : ... .. . ... : --- .. . ... : ... .. . ... : ... .. . ... : --- .. . ... : ... .. . ... : ... .. . ...
ROW 62 : B-2 0D . ... : ... .. . ... : B-2 00 . ... : ... .. . ... : ... .. . ... : B-1 01 . ... : ... .. . ... : ... .. . ...
ROW 63 : ... .. . ... : ... .. . ... : --- .. . ... : ... .. . ... : ... .. . ... : --- .. . ... : ... .. . ... : ... .. . ...
ROW 64 : G-2 0D . ... : ... .. . ... : B-2 00 . ... : F-# 03 A ... : ... .. . ... : B-1 01 . ... : ... .. . ... : ... .. . ...
ROW 65 : ... .. . ... : ... .. . ... : --- .. . ... : ... .. . ... : ... .. . ... : --- .. . ... : ... .. . ... : ... .. . ...
ROW 66 : D-2 0D . ... : ... .. . ... : B-2 00 . ... : 4-# 03 8 ... : ... .. . ... : B-1 01 . ... : ... .. . ... : ... .. . ...
ROW 67 : ... .. . ... : ... .. . ... : --- .. . ... : ... .. . ... : ... .. . ... : --- .. . ... : ... .. . ... : ... .. . ...
ROW 68 : B-2 0D . ... : D-1 10 . ... : B-3 00 . ... : D-# 03 C ... : ... .. . ... : B-2 01 . ... : D-4 0F . ... : D-2 0F . ...
ROW 69 : ... .. . ... : ... .. . ... : --- .. . ... : ... .. . ... : ... .. . ... : --- .. . ... : ... .. . ... : ... .. . ...
ROW 6A : G-2 0D . ... : ... .. . ... : B-2 00 . ... : 8-# 03 4 ... : ... .. . ... : B-1 01 . ... : ... .. . ... : ... .. . ...
ROW 6B : ... .. . ... : ... .. . ... : --- .. . ... : 8-# 03 5 ... : ... .. . ... : --- .. . ... : ... .. . ... : ... .. . ...
ROW 6C : D-2 0D . ... : ... .. . ... : B-2 00 . ... : 4-# 03 A ... : ... .. . ... : B-1 01 . ... : ... .. . ... : ... .. . ...
ROW 6D : ... .. . ... : ... .. . ... : --- .. . ... : ... .. . ... : ... .. . ... : --- .. . ... : ... .. . ... : ... .. . ...
ROW 6E : B-1 0D . ... : ... .. . ... : B-2 00 . ... : 4-# 03 8 ... : ... .. . ... : B-1 01 . ... : ... .. . ... : ... .. . ...
ROW 6F : ... .. . ... : ... .. . ... : --- .. . ... : ... .. . ... : ... .. . ... : --- .. . ... : ... .. . ... : ... .. . ...
ROW 70 : D-3 0D . ... : G-1 10 . ... : B-2 00 . ... : 4-# 03 C ... : ... .. . ... : B-1 01 . ... : G-4 0F . ... : G-2 0F . ...
ROW 71 : ... .. . ... : ... .. . ... : --- .. . ... : ... .. . ... : ... .. . ... : --- .. . ... : ... .. . ... : ... .. . ...
ROW 72 : B-2 0D . ... : ... .. . ... : B-2 00 . ... : ... .. . ... : ... .. . ... : B-1 01 . ... : ... .. . ... : ... .. . ...
ROW 73 : ... .. . ... : ... .. . ... : --- .. . ... : ... .. . ... : ... .. . ... : --- .. . ... : ... .. . ... : ... .. . ...
ROW 74 : G-2 0D . ... : ... .. . ... : B-2 00 . ... : F-# 03 A ... : ... .. . ... : B-1 01 . ... : ... .. . ... : ... .. . ...
ROW 75 : ... .. . ... : ... .. . ... : --- .. . ... : ... .. . ... : ... .. . ... : --- .. . ... : ... .. . ... : ... .. . ...
ROW 76 : D-2 0D . ... : ... .. . ... : B-2 00 . ... : F-# 03 8 ... : ... .. . ... : B-1 01 . ... : ... .. . ... : ... .. . ...
ROW 77 : ... .. . ... : ... .. . ... : --- .. . ... : ... .. . ... : ... .. . ... : --- .. . ... : ... .. . ... : ... .. . ...
ROW 78 : B-2 0D . ... : B-1 10 . ... : B-3 00 . ... : 4-# 03 C ... : ... .. . ... : B-2 01 . ... : B-4 0F . ... : B-2 0F . ...
ROW 79 : ... .. . ... : ... .. . ... : --- .. . ... : ... .. . ... : ... .. . ... : --- .. . ... : ... .. . ... : ... .. . ...
ROW 7A : G-2 0D . ... : ... .. . ... : B-2 00 . ... : 2-# 03 2 ... : ... .. . ... : B-1 01 . ... : ... .. . ... : ... .. . ...
ROW 7B : ... .. . ... : ... .. . ... : --- .. . ... : 2-# 03 4 ... : ... .. . ... : --- .. . ... : ... .. . ... : ... .. . ...
ROW 7C : D-2 0D . ... : ... .. . ... : B-2 00 . ... : 2-# 03 6 ... : ... .. . ... : B-1 01 . ... : ... .. . ... : ... .. . ...
ROW 7D : ... .. . ... : ... .. . ... : --- .. . ... : 2-# 03 8 ... : ... .. . ... : --- .. . ... : ... .. . ... : ... .. . ...
ROW 7E : B-1 0D . ... : ... .. . ... : B-2 00 . ... : 4-# 03 F ... : ... .. . ... : B-1 01 . ... : ... .. . ... : ... .. . ...
ROW 7F : ... .. . ... : ... .. . ... : --- .. . ... : ... .. . ... : ... .. . ... : --- .. . ... : ... .. . ... : ... .. . ...

PATTERN 08
ROW 00 : ... .. . ... : === .. . ... : C-3 0E . ... : 4-# 03 C ... : ... .. . ... : C-1 01 7 ... : === .. . ... : ... .. . ...
ROW 01 : ... .. . ... : ... .. . ... : --- 0D . ... : ... .. . ... : ... .. . ... : --- 0D . ... : ... .. . ... : ... .. . ...
ROW 02 : ... .. . ... : ... .. . ... : C-2 00 . ... : ... .. . ... : ... .. . ... : C-1 01 . ... : ... .. . ... : === .. . ...
ROW 03 : ... .. . ... : ... .. . ... : --- 0D . ... : ... .. . ... : ... .. . ... : --- 0D . ... : ... .. . ... : ... .. . ...
ROW 04 : ... .. . ... : ... .. . ... : C-2 00 . ... : B-# 03 8 ... : ... .. . ... : C-1 01 . ... : ... .. . ... : ... .. . ...
ROW 05 : ... .. . ... : ... .. . ... : --- 0D . ... : ... .. . ... : ... .. . ... : --- 0D . ... : ... .. . ... : ... .. . ...
ROW 06 : ... .. . ... : ... .. . ... : C-3 0E . ... : 4-# 03 C ... : ... .. . ... : C-1 01 . ... : ... .. . ... : ... .. . ...
ROW 07 : ... .. . ... : ... .. . ... : --- 0D . ... : ... .. . ... : ... .. . ... : --- 0D . ... : ... .. . ... : ... .. . ...
ROW 08 : ... .. . ... : ... .. . ... : C-3 00 . ... : ... .. . ... : ... .. . ... : C-2 01 . ... : ... .. . ... : ... .. . ...
ROW 09 : ... .. . ... : ... .. . ... : --- 0D . ... : ... .. . ... : ... .. . ... : --- 0D . ... : ... .. . ... : ... .. . ...
ROW 0A : ... .. . ... : ... .. . ... : C-2 00 . ... : B-# 03 8 ... : ... .. . ... : C-1 01 . ... : ... .. . ... : ... .. . ...
ROW 0B : ... .. . ... : ... .. . ... : --- .. . ... : ... .. . ... : ... .. . ... : --- .. . ... : ... .. . ... : ... .. . ...
ROW 0C : ... .. . ... : ... .. . ... : C-3 0E . ... : 4-# 03 C ... : ... .. . ... : C-1 01 . ... : ... .. . ... : ... .. . ...
ROW 0D : ... .. . ... : ... .. . ... : --- .. . ... : ... .. . ... : ... .. . ... : --- .. . ... : ... .. . ... : ... .. . ...
ROW 0E : ... .. . ... : ... .. . ... : C-2 00 . ... : ... .. . ... : ... .. . ... : C-1 01 . ... : ... .. . ... : ... .. . ...
ROW 0F : ... .. . ... : ... .. . ... : --- .. . ... : ... .. . ... : ... .. . ... : --- .. . ... : ... .. . ... : ... .. . ...
ROW 10 : ... .. . ... : ... .. . ... : C-3 0E . ... : 4-# 03 C ... : ... .. . ... : C-1 01 . ... : ... .. . ... : ... .. . ...
ROW 11 : ... .. . ... : ... .. . ... : --- .. . ... : ... .. . ... : ... .. . ... : --- .. . ... : ... .. . ... : ... .. . ...
ROW 12 : ... .. . ... : ... .. . ... : C-2 00 . ... : ... .. . ... : ... .. . ... : C-1 01 . ... : ... .. . ... : ... .. . ...
ROW 13 : ... .. . ... : ... .. . ... : --- .. . ... : ... .. . ... : ... .. . ... : --- .. . ... : ... .. . ... : ... .. . ...
ROW 14 : ... .. . ... : ... .. . ... : C-2 00 . ... : B-# 03 8 ... : ... .. . ... : C-1 01 . ... : ... .. . ... : ... .. . ...
ROW 15 : ... .. . ... : ... .. . ... : --- .. . ... : ... .. . ... : ... .. . ... : --- .. . ... : ... .. . ... : ... .. . ...
ROW 16 : ... .. . ... : ... .. . ... : C-3 0E . ... : 4-# 03 C ... : ... .. . ... : C-1 01 . ... : ... .. . ... : ... .. . ...
ROW 17 : ... .. . ... : ... .. . ... : --- .. . ... : ... .. . ... : ... .. . ... : --- .. . ... : ... .. . ... : ... .. . ...
ROW 18 : ... .. . ... : ... .. . ... : C-3 00 . ... : ... .. . ... : ... .. . ... : C-2 01 . ... : ... .. . ... : ... .. . ...
ROW 19 : ... .. . ... : ... .. . ... : --- .. . ... : ... .. . ... : ... .. . ... : --- .. . ... : ... .. . ... : ... .. . ...
ROW 1A : ... .. . ... : ... .. . ... : C-2 00 . ... : B-# 03 8 ... : ... .. . ... : C-1 01 . ... : ... .. . ... : ... .. . ...
ROW 1B : ... .. . ... : ... .. . ... : --- .. . ... : ... .. . ... : ... .. . ... : --- .. . ... : ... .. . ... : ... .. . ...
ROW 1C : ... .. . ... : ... .. . ... : C-3 0E . ... : 4-# 03 C ... : ... .. . ... : C-1 01 . ... : ... .. . ... : ... .. . ...
ROW 1D : ... .. . ... : ... .. . ... : --- .. . ... : ... .. . ... : ... .. . ... : --- .. . ... : ... .. . ... : ... .. . ...
ROW 1E : ... .. . ... : ... .. . ... : C-2 00 . ... : ... .. . ... : ... .. . ... : C-1 01 . ... : ... .. . ... : ... .. . ...
ROW 1F : ... .. . ... : ... .. . ... : --- .. . ... : ... .. . ... : ... .. D D00 : --- .. . ... : ... .. . ... : ... .. . ...
ROW 20 : C-3 0D . ... : G#2 10 . ... : D#2 00 . ... : F-# 03 C ... : ... .. . ... : D#1 01 . ... : C-4 0F . ... : G#3 0F . ...
ROW 21 : ... .. . ... : ... .. . ... : --- .. . ... : ... .. . ... : ... .. . ... : --- .. . ... : ... .. . ... : ... .. . ...
ROW 22 : G#2 0D . ... : ... .. . ... : D#2 00 . ... : ... .. . ... : ... .. . ... : D#1 01 . ... : ... .. . ... : ... .. . ...
ROW 23 : ... .. . ... : ... .. . ... : --- .. . ... : ... .. . ... : ... .. . ... : --- .. . ... : ... .. . ... : ... .. . ...
ROW 24 : D#2 0D . ... : ... .. . ... : D#2 00 . ... : F-# 03 A ... : ... .. . ... : D#1 01 . ... : ... .. . ... : ... .. . ...
ROW 25 : ... .. . ... : ... .. . ... : --- .. . ... : ... .. . ... : ... .. . ... : --- .. . ... : ... .. . ... : ... .. . ...
ROW 26 : C-2 0D . ... : D#2 10 . ... : D#2 00 . ... : F-# 03 8 ... : ... .. . ... : D#1 01 . ... : F-4 0F . ... : ... .. . ...
ROW 27 : ... .. . ... : ... .. . ... : --- .. . ... : ... .. . ... : ... .. . ... : --- .. . ... : ... .. . ... : ... .. . ...
ROW 28 : G#2 0D . ... : ... .. . ... : D#3 00 . ... : 4-# 03 C ... : ... .. . ... : D#2 01 . ... : ... .. . ... : ... .. . ...
ROW 29 : ... .. . ... : ... .. . ... : --- 0D . ... : ... .. . ... : ... .. . ... : --- 0D . ... : ... .. . ... : ... .. . ...
ROW 2A : D#2 0D . ... : ... .. . ... : D#2 00 . ... : 8-# 03 4 ... : ... .. . ... : D#1 01 . ... : ... .. . ... : ... .. . ...
ROW 2B : ... .. . ... : ... .. . ... : --- .. . ... : 8-# 03 5 ... : ... .. . ... : --- .. . ... : ... .. . ... : ... .. . ...
ROW 2C : C-2 0D . ... : D-2 10 . ... : D#2 00 . ... : F-# 03 A ... : ... .. . ... : D#1 01 . ... : C-4 0F . ... : F-3 0F . ...
ROW 2D : ... .. . ... : ... .. . ... : --- .. . ... : ... .. . ... : ... .. . ... : --- .. . ... : ... .. . ... : ... .. . ...
ROW 2E : G#1 0D . ... : ... .. . ... : D#2 00 . ... : F-# 03 8 ... : ... .. . ... : D#1 01 . ... : ... .. . ... : ... .. . ...
ROW 2F : ... .. . ... : ... .. . ... : --- .. . ... : ... .. . ... : ... .. . ... : --- .. . ... : ... .. . ... : ... .. . ...
ROW 30 : C-3 0D . ... : C-2 10 . ... : D#2 00 . ... : F-# 03 C ... : ... .. . ... : D#1 01 . ... : A#3 0F . ... : D#3 0F . ...
ROW 31 : ... .. . ... : ... .. . ... : --- .. . ... : ... .. . ... : ... .. . ... : --- .. . ... : ... .. . ... : ... .. . ...
ROW 32 : G#2 0D . ... : ... .. . ... : D#2 00 . ... : ... .. . ... : ... .. . ... : D#1 01 . ... : ... .. . ... : ... .. . ...
ROW 33 : ... .. . ... : ... .. . ... : --- .. . ... : ... .. . ... : ... .. . ... : --- .. . ... : ... .. . ... : ... .. . ...
ROW 34 : D#2 0D . ... : ... .. . ... : D#2 00 . ... : F-# 03 A ... : ... .. . ... : D#1 01 . ... : ... .. . ... : ... .. . ...
ROW 35 : ... .. . ... : ... .. . ... : --- .. . ... : ... .. . ... : ... .. . ... : --- .. . ... : ... .. . ... : ... .. . ...
ROW 36 : C-2 0D . ... : G#2 10 . ... : D#2 00 . ... : F-# 03 8 ... : ... .. . ... : D#1 01 . ... : ... .. . ... : ... .. . ...
ROW 37 : ... .. . ... : ... .. . ... : --- .. . ... : ... .. . ... : ... .. . ... : --- .. . ... : ... .. . ... : ... .. . ...
ROW 38 : G#2 0D . ... : ... .. . ... : D#3 00 . ... : 4-# 03 C ... : ... .. . ... : D#2 01 . ... : D#4 0F . ... : C-3 0F . ...
ROW 39 : ... .. . ... : ... .. . ... : --- .. . ... : ... .. . ... : ... .. . ... : --- .. . ... : ... .. . ... : ... .. . ...
ROW 3A : D#2 0D . ... : ... .. . ... : D#2 00 . ... : 8-# 03 4 ... : ... .. . ... : D#1 01 . ... : ... .. . ... : ... .. . ...
ROW 3B : ... .. . ... : ... .. . ... : --- .. . ... : 8-# 03 5 ... : ... .. . ... : --- .. . ... : ... .. . ... : ... .. . ...
ROW 3C : C-2 0D . ... : G-2 10 . ... : D#2 00 . ... : F-# 03 A ... : ... .. . ... : D#1 01 . ... : ... .. . ... : ... .. . ...
ROW 3D : ... .. . ... : ... .. . ... : --- .. . ... : ... .. . ... : ... .. . ... : --- .. . ... : ... .. . ... : ... .. . ...
ROW 3E : G#1 0D . ... : ... .. . ... : D#2 00 . ... : F-# 03 8 ... : ... .. . ... : D#1 01 . ... : ... .. . ... : ... .. . ...
ROW 3F : ... .. . ... : ... .. . ... : --- .. . ... : ... .. . ... : ... .. . ... : --- .. . ... : ... .. . ... : ... .. . ...
ROW 40 : C-3 0D . ... : F-2 10 . ... : F-2 00 . ... : F-# 03 C ... : ... .. . ... : F-1 01 . ... : D-4 0F . ... : D-3 0F . ...
ROW 41 : ... .. . ... : ... .. . ... : --- .. . ... : ... .. . ... : ... .. . ... : --- .. . ... : ... .. . ... : ... .. . ...
ROW 42 : G#2 0D . ... : ... .. . ... : F-2 00 . ... : ... .. . ... : ... .. . ... : F-1 01 . ... : ... .. . ... : ... .. . ...
ROW 43 : ... .. . ... : ... .. . ... : --- .. . ... : ... .. . ... : ... .. . ... : --- .. . ... : ... .. . ... : ... .. . ...
ROW 44 : F-2 0D . ... : ... .. . ... : F-2 00 . ... : F-# 03 A ... : ... .. . ... : F-1 01 . ... : ... .. . ... : ... .. . ...
ROW 45 : ... .. . ... : ... .. . ... : --- .. . ... : ... .. . ... : ... .. . ... : --- .. . ... : ... .. . ... : ... .. . ...
ROW 46 : C-2 0D . ... : D-2 10 . ... : F-2 00 . ... : F-# 03 8 ... : ... .. . ... : F-1 01 . ... : ... .. . ... : ... .. . ...
ROW 47 : ... .. . ... : ... .. . ... : --- .. . ... : ... .. . ... : ... .. . ... : --- .. . ... : ... .. . ... : ... .. . ...
ROW 48 : G#2 0D . ... : ... .. . ... : F-3 00 . ... : 4-# 03 C ... : ... .. . ... : F-2 01 . ... : ... .. . ... : ... .. . ...
ROW 49 : ... .. . ... : ... .. . ... : --- .. . ... : ... .. . ... : ... .. . ... : --- .. . ... : ... .. . ... : ... .. . ...
ROW 4A : F-2 0D . ... : ... .. . ... : F-2 00 . ... : 8-# 03 4 ... : ... .. . ... : F-1 01 . ... : ... .. . ... : ... .. . ...
ROW 4B : ... .. . ... : ... .. . ... : --- .. . ... : 8-# 03 5 ... : ... .. . ... : --- .. . ... : ... .. . ... : ... .. . ...
ROW 4C : C-2 0D . ... : D#2 10 . ... : F-2 00 . ... : F-# 03 A ... : ... .. . ... : F-1 01 . ... : ... .. . ... : ... .. . ...
ROW 4D : ... .. . ... : ... .. . ... : --- .. . ... : ... .. . ... : ... .. . ... : --- .. . ... : ... .. . ... : ... .. . ...
ROW 4E : G#1 0D . ... : ... .. . ... : F-2 00 . ... : F-# 03 8 ... : ... .. . ... : F-1 01 . ... : ... .. . ... : ... .. . ...
ROW 4F : ... .. . ... : ... .. . ... : --- .. . ... : ... .. . ... : ... .. . ... : --- .. . ... : ... .. . ... : ... .. . ...
ROW 50 : C-3 0D . ... : F-2 10 . ... : F-2 00 . ... : F-# 03 C ... : ... .. . ... : F-1 01 . ... : F-4 0F . ... : C-3 0F . ...
ROW 51 : ... .. . ... : ... .. . ... : --- .. . ... : ... .. . ... : ... .. . ... : --- .. . ... : ... .. . ... : ... .. . ...
ROW 52 : G#2 0D . ... : ... .. . ... : F-2 00 . ... : ... .. . ... : ... .. . ... : F-1 01 . ... : ... .. . ... : ... .. . ...
ROW 53 : ... .. . ... : ... .. . ... : --- .. . ... : ... .. . ... : ... .. . ... : --- .. . ... : ... .. . ... : ... .. . ...
ROW 54 : F-2 0D . ... : ... .. . ... : F-2 00 . ... : F-# 03 A ... : ... .. . ... : F-1 01 . ... : ... .. . ... : ... .. . ...
ROW 55 : ... .. . ... : ... .. . ... : --- .. . ... : ... .. . ... : ... .. . ... : --- .. . ... : ... .. . ... : ... .. . ...
ROW 56 : C-2 0D . ... : D-2 10 . ... : F-2 00 . ... : F-# 03 8 ... : ... .. . ... : F-1 01 . ... : ... .. . ... : ... .. . ...
ROW 57 : ... .. . ... : ... .. . ... : --- .. . ... : ... .. . ... : ... .. . ... : --- .. . ... : ... .. . ... : ... .. . ...
ROW 58 : G#2 0D . ... : ... .. . ... : F-3 00 . ... : 4-# 03 C ... : ... .. . ... : F-2 01 . ... : G#4 0F . ... : ... .. . ...
ROW 59 : ... .. . ... : ... .. . ... : --- .. . ... : ... .. . ... : ... .. . ... : --- .. . ... : ... .. . ... : ... .. . ...
ROW 5A : F-2 0D . ... : ... .. . ... : F-2 00 . ... : 8-# 03 4 ... : ... .. . ... : F-1 01 . ... : ... .. . ... : ... .. . ...
ROW 5B : ... .. . ... : ... .. . ... : --- .. . ... : 8-# 03 5 ... : ... .. . ... : --- .. . ... : ... .. . ... : ... .. . ...
ROW 5C : C-2 0D . ... : C-2 10 . ... : F-2 00 . ... : F-# 03 A ... : ... .. . ... : F-1 01 . ... : ... .. . ... : F-3 0F . ...
ROW 5D : ... .. . ... : ... .. . ... : --- .. . ... : ... .. . ... : ... .. . ... : --- .. . ... : ... .. . ... : ... .. . ...
ROW 5E : G#1 0D . ... : ... .. . ... : F-2 00 . ... : F-# 03 8 ... : ... .. . ... : F-1 01 . ... : ... .. . ... : ... .. . ...
ROW 5F : ... .. . ... : ... .. . ... : --- .. . ... : ... .. . ... : ... .. . ... : --- .. . ... : ... .. . ... : ... .. . ...
ROW 60 : D-3 0D . ... : A#1 10 . ... : A#2 00 . ... : F-# 03 C ... : ... .. . ... : A#1 01 . ... : G#4 0F . ... : F-3 0F . ...
ROW 61 : ... .. . ... : ... .. . ... : --- .. . ... : ... .. . ... : ... .. . ... : --- .. . ... : ... .. . ... : ... .. . ...
ROW 62 : A#2 0D . ... : ... .. . ... : A#2 00 . ... : ... .. . ... : ... .. . ... : A#1 01 . ... : ... .. . ... : ... .. . ...
ROW 63 : ... .. . ... : ... .. . ... : --- .. . ... : ... .. . ... : ... .. . ... : --- .. . ... : ... .. . ... : ... .. . ...
ROW 64 : F-2 0D . ... : ... .. . ... : A#2 00 . ... : F-# 03 A ... : ... .. . ... : A#1 01 . ... : ... .. . ... : ... .. . ...
ROW 65 : ... .. . ... : ... .. . ... : --- .. . ... : ... .. . ... : ... .. . ... : --- .. . ... : ... .. . ... : ... .. . ...
ROW 66 : D-2 0D . ... : D-2 10 . ... : A#2 00 . ... : F-# 03 8 ... : ... .. . ... : A#1 01 . ... : G-4 0F . ... : ... .. . ...
ROW 67 : ... .. . ... : ... .. . ... : --- .. . ... : ... .. . ... : ... .. . ... : --- .. . ... : ... .. . ... : ... .. . ...
ROW 68 : A#2 0D . ... : ... .. . ... : A#3 00 . ... : 4-# 03 C ... : ... .. . ... : A#2 01 . ... : ... .. . ... : ... .. . ...
ROW 69 : ... .. . ... : ... .. . ... : --- .. . ... : ... .. . ... : ... .. . ... : --- .. . ... : ... .. . ... : ... .. . ...
ROW 6A : F-2 0D . ... : ... .. . ... : A#2 00 . ... : 8-# 03 4 ... : ... .. . ... : A#1 01 . ... : ... .. . ... : ... .. . ...
ROW 6B : ... .. . ... : ... .. . ... : --- .. . ... : 8-# 03 5 ... : ... .. . ... : --- .. . ... : ... .. . ... : ... .. . ...
ROW 6C : D-2 0D . ... : D#2 10 . ... : A#2 00 . ... : F-# 03 A ... : ... .. . ... : A#1 01 . ... : F-4 0F . ... : D-3 0F . ...
ROW 6D : ... .. . ... : ... .. . ... : --- .. . ... : ... .. . ... : ... .. . ... : --- .. . ... : ... .. . ... : ... .. . ...
ROW 6E : A#1 0D . ... : ... .. . ... : A#2 00 . ... : F-# 03 8 ... : ... .. . ... : A#1 01 . ... : ... .. . ... : ... .. . ...
ROW 6F : ... .. . ... : ... .. . ... : --- .. . ... : ... .. . ... : ... .. . ... : --- .. . ... : ... .. . ... : ... .. . ...
ROW 70 : D-3 0D . ... : B-1 10 . ... : B-2 00 . ... : F-# 03 C ... : ... .. . ... : B-1 01 . ... : G-4 0F . ... : D-3 0F . ...
ROW 71 : ... .. . ... : ... .. . ... : --- .. . ... : ... .. . ... : ... .. . ... : --- .. . ... : ... .. . ... : ... .. . ...
ROW 72 : B-2 0D . ... : ... .. . ... : B-2 00 . ... : ... .. . ... : ... .. . ... : B-1 01 . ... : ... .. . ... : ... .. . ...
ROW 73 : ... .. . ... : ... .. . ... : --- .. . ... : ... .. . ... : ... .. . ... : --- .. . ... : ... .. . ... : ... .. . ...
ROW 74 : G-2 0D . ... : ... .. . ... : B-2 00 . ... : F-# 03 A ... : ... .. . ... : B-1 01 . ... : ... .. . ... : ... .. . ...
ROW 75 : ... .. . ... : ... .. . ... : --- .. . ... : ... .. . ... : ... .. . ... : --- .. . ... : ... .. . ... : ... .. . ...
ROW 76 : D-2 0D . ... : B-1 10 . ... : B-2 00 . ... : F-# 03 8 ... : ... .. . ... : B-1 01 . ... : D-4 0F . ... : ... .. . ...
ROW 77 : ... .. . ... : ... .. . ... : --- .. . ... : ... .. . ... : ... .. . ... : --- .. . ... : ... .. . ... : ... .. . ...
ROW 78 : B-2 0D . ... : ... .. . ... : B-3 00 . ... : 4-# 03 C ... : ... .. . ... : B-2 01 . ... : ... .. . ... : D-3 0F . ...
ROW 79 : ... .. . ... : ... .. . ... : --- .. . ... : ... .. . ... : ... .. . ... : --- .. . ... : ... .. . ... : ... .. . ...
ROW 7A : G-2 0D . ... : ... .. . ... : B-2 00 . ... : 8-# 03 4 ... : ... .. . ... : B-1 01 . ... : ... .. . ... : ... .. . ...
ROW 7B : ... .. . ... : ... .. . ... : --- .. . ... : 8-# 03 5 ... : ... .. . ... : --- .. . ... : ... .. . ... : ... .. . ...
ROW 7C : D-2 0D . ... : B-1 10 . ... : B-2 00 . ... : F-# 03 A ... : ... .. . ... : B-1 01 . ... : B-3 0F . ... : D-3 0F . ...
ROW 7D : ... .. . ... : ... .. . ... : --- .. . ... : ... .. . ... : ... .. . ... : --- .. . ... : ... .. . ... : ... .. . ...
ROW 7E : B-1 0D . ... : ... .. . ... : B-2 00 . ... : F-# 03 8 ... : ... .. . ... : B-1 01 . ... : ... .. . ... : ... .. . ...
ROW 7F : ... .. . ... : ... .. . ... : --- .. . ... : ... .. . ... : ... .. . ... : --- .. . ... : ... .. . ... : ... .. . ...

PATTERN 09
ROW 00 : C-3 0D F ... : --- .. . ... : C-2 00 F ... : F-# 03 C ... : ... .. . ... : C-1 01 7 ... : C-4 0F F ... : --- .. . ...
ROW 01 : ... .. . ... : ... .. . ... : --- .. . ... : ... .. . ... : ... .. . ... : --- 0D . ... : ... .. . ... : ... .. . ...
ROW 02 : G-2 0D E ... : C-3 0D 4 ... : C-2 00 . ... : ... .. . ... : ... .. . ... : C-1 01 . ... : ... .. . ... : ... .. . ...
ROW 03 : ... .. . ... : ... .. . ... : --- .. . ... : ... .. . ... : ... .. . ... : --- 0D . ... : ... .. . ... : ... .. . ...
ROW 04 : D#2 0D D ... : G-2 0D 4 ... : C-2 00 . ... : F-# 03 A ... : ... .. . ... : C-1 01 . ... : ... .. . ... : ... .. . ...
ROW 05 : ... .. . ... : ... .. . ... : --- .. . ... : ... .. . ... : ... .. . ... : --- 0D . ... : ... .. . ... : ... .. . ...
ROW 06 : C-2 0D C ... : D#2 0D 4 ... : C-2 00 . ... : F-# 03 8 ... : ... .. . ... : C-1 01 . ... : ... .. . ... : ... .. . ...
ROW 07 : ... .. . ... : ... .. . ... : --- .. . ... : ... .. . ... : ... .. . ... : --- 0D . ... : ... .. . ... : ... .. . ...
ROW 08 : G-2 0D B ... : C-2 0D 4 ... : C-3 00 . ... : 4-# 03 C ... : ... .. . ... : C-2 01 . ... : ... .. . ... : ... .. . ...
ROW 09 : ... .. . ... : ... .. . ... : --- .. . ... : ... .. . ... : ... .. . ... : --- 0D . ... : ... .. . ... : ... .. . ...
ROW 0A : D#2 0D A ... : G-2 0D 3 ... : C-2 00 . ... : 8-# 03 4 ... : ... .. . ... : C-1 01 . ... : ... .. . ... : ... .. . ...
ROW 0B : ... .. . ... : ... .. . ... : --- .. . ... : 8-# 03 5 ... : ... .. . ... : --- .. . ... : ... .. . ... : ... .. . ...
ROW 0C : C-2 0D 9 ... : D#2 0D 3 ... : C-2 00 . ... : F-# 03 A ... : ... .. . ... : C-1 01 . ... : ... .. . ... : ... .. . ...
ROW 0D : ... .. . ... : ... .. . ... : --- .. . ... : ... .. . ... : ... .. . ... : --- .. . ... : ... .. . ... : ... .. . ...
ROW 0E : G-1 0D 8 ... : C-2 0D 3 ... : C-2 00 . ... : F-# 03 8 ... : ... .. . ... : C-1 01 . ... : ... .. . ... : ... .. . ...
ROW 0F : ... .. . ... : ... .. . ... : --- .. . ... : ... .. . ... : ... .. . ... : --- .. . ... : ... .. . ... : ... .. . ...
ROW 10 : C-3 0D 7 ... : G-1 0D 3 ... : D-2 00 . ... : F-# 03 C ... : ... .. . ... : C-1 01 . ... : F-4 0F . ... : ... .. . ...
ROW 11 : ... .. . ... : ... .. . ... : --- .. . ... : ... .. . ... : ... .. . ... : --- .. . ... : ... .. . ... : ... .. . ...
ROW 12 : G-2 0D 6 ... : C-3 0D 2 ... : D-2 00 . ... : ... .. . ... : ... .. . ... : C-1 01 . ... : ... .. . ... : ... .. . ...
ROW 13 : ... .. . ... : ... .. . ... : --- .. . ... : ... .. . ... : ... .. . ... : --- .. . ... : ... .. . ... : ... .. . ...
ROW 14 : D#2 0D 5 ... : G-2 0D 2 ... : D-2 00 . ... : F-# 03 A ... : ... .. . ... : C-1 01 . ... : ... .. . ... : ... .. . ...
ROW 15 : ... .. . ... : ... .. . ... : --- .. . ... : ... .. . ... : ... .. . ... : --- .. . ... : ... .. . ... : ... .. . ...
ROW 16 : C-2 0D 4 ... : D#2 0D 2 ... : D-2 00 . ... : F-# 03 8 ... : ... .. . ... : C-1 01 . ... : ... .. . ... : ... .. . ...
ROW 17 : ... .. . ... : ... .. . ... : --- .. . ... : ... .. . ... : ... .. . ... : --- .. . ... : ... .. . ... : ... .. . ...
ROW 18 : G-2 0D 3 ... : C-2 0D 2 ... : D-3 00 . ... : 4-# 03 C ... : ... .. . ... : C-2 01 . ... : G-4 0F . ... : C-4 0F . ...
ROW 19 : ... .. . ... : ... .. . ... : --- .. . ... : ... .. . ... : ... .. . ... : --- .. . ... : ... .. . ... : ... .. . ...
ROW 1A : D#2 0D 2 ... : G-2 0D 1 ... : D-2 00 . ... : 8-# 03 4 ... : ... .. . ... : C-1 01 . ... : ... .. . ... : ... .. . ...
ROW 1B : ... .. . ... : ... .. . ... : --- .. . ... : 8-# 03 5 ... : ... .. . ... : --- .. . ... : ... .. . ... : ... .. . ...
ROW 1C : C-2 0D 1 ... : D#2 0D 1 ... : D-2 00 . ... : F-# 03 A ... : ... .. . ... : C-1 01 . ... : ... .. . ... : ... .. . ...
ROW 1D : ... .. . ... : ... .. . ... : --- .. . ... : ... .. . ... : ... .. . ... : --- .. . ... : ... .. . ... : ... .. . ...
ROW 1E : G-1 0D 0 ... : C-2 0D 1 ... : D-2 00 . ... : F-# 03 8 ... : ... .. . ... : C-1 01 . ... : G-4 0F . ... : D-4 0F F ...
ROW 1F : ... .. . ... : ... .. . ... : --- .. . ... : ... .. . ... : ... .. . D00 : --- .. . ... : ... .. . ... : ... .. . ...
ROW 20 : ... .. . ... : G-1 0D 0 ... : ... .. . ... : ... .. . ... : ... .. . ... : D#1 01 . ... : ... .. . ... : ... .. . ...
ROW 21 : ... .. . ... : ... .. . ... : ... .. . ... : ... .. . ... : ... .. . ... : --- .. . ... : ... .. . ... : ... .. . ...
ROW 22 : ... .. . ... : ... .. . ... : ... .. . ... : ... .. . ... : ... .. . ... : D#1 01 . ... : ... .. . ... : ... .. . ...
ROW 23 : ... .. . ... : ... .. . ... : ... .. . ... : ... .. . ... : ... .. . ... : --- .. . ... : ... .. . ... : ... .. . ...
ROW 24 : ... .. . ... : ... .. . ... : ... .. . ... : ... .. . ... : ... .. . ... : D#1 01 . ... : ... .. . ... : ... .. . ...
ROW 25 : ... .. . ... : ... .. . ... : ... .. . ... : ... .. . ... : ... .. . ... : --- .. . ... : ... .. . ... : ... .. . ...
ROW 26 : ... .. . ... : ... .. . ... : ... .. . ... : ... .. . ... : ... .. . ... : D#1 01 . ... : ... .. . ... : ... .. . ...
ROW 27 : ... .. . ... : ... .. . ... : ... .. . ... : ... .. . ... : ... .. . ... : --- .. . ... : ... .. . ... : ... .. . ...
ROW 28 : ... .. . ... : ... .. . ... : ... .. . ... : ... .. . ... : ... .. . ... : D#2 01 . ... : ... .. . ... : ... .. . ...
ROW 29 : ... .. . ... : ... .. . ... : ... .. . ... : ... .. . ... : ... .. . ... : --- 0D . ... : ... .. . ... : ... .. . ...
ROW 2A : ... .. . ... : ... .. . ... : ... .. . ... : ... .. . ... : ... .. . ... : D#1 01 . ... : ... .. . ... : ... .. . ...
ROW 2B : ... .. . ... : ... .. . ... : ... .. . ... : ... .. . ... : ... .. . ... : --- .. . ... : ... .. . ... : ... .. . ...
ROW 2C : ... .. . ... : ... .. . ... : ... .. . ... : ... .. . ... : ... .. . ... : D#1 01 . ... : ... .. . ... : ... .. . ...
ROW 2D : ... .. . ... : ... .. . ... : ... .. . ... : ... .. . ... : ... .. . ... : --- .. . ... : ... .. . ... : ... .. . ...
ROW 2E : ... .. . ... : ... .. . ... : ... .. . ... : ... .. . ... : ... .. . ... : D#1 01 . ... : ... .. . ... : ... .. . ...
ROW 2F : ... .. . ... : ... .. . ... : ... .. . ... : ... .. . ... : ... .. . ... : --- .. . ... : ... .. . ... : ... .. . ...
ROW 30 : ... .. . ... : ... .. . ... : ... .. . ... : ... .. . ... : ... .. . ... : D#1 01 . ... : ... .. . ... : ... .. . ...
ROW 31 : ... .. . ... : ... .. . ... : ... .. . ... : ... .. . ... : ... .. . ... : --- .. . ... : ... .. . ... : ... .. . ...
ROW 32 : ... .. . ... : ... .. . ... : ... .. . ... : ... .. . ... : ... .. . ... : D#1 01 . ... : ... .. . ... : ... .. . ...
ROW 33 : ... .. . ... : ... .. . ... : ... .. . ... : ... .. . ... : ... .. . ... : --- .. . ... : ... .. . ... : ... .. . ...
ROW 34 : ... .. . ... : ... .. . ... : ... .. . ... : ... .. . ... : ... .. . ... : D#1 01 . ... : ... .. . ... : ... .. . ...
ROW 35 : ... .. . ... : ... .. . ... : ... .. . ... : ... .. . ... : ... .. . ... : --- .. . ... : ... .. . ... : ... .. . ...
ROW 36 : ... .. . ... : ... .. . ... : ... .. . ... : ... .. . ... : ... .. . ... : D#1 01 . ... : ... .. . ... : ... .. . ...
ROW 37 : ... .. . ... : ... .. . ... : ... .. . ... : ... .. . ... : ... .. . ... : --- .. . ... : ... .. . ... : ... .. . ...
ROW 38 : ... .. . ... : ... .. . ... : ... .. . ... : ... .. . ... : ... .. . ... : D#2 01 . ... : ... .. . ... : ... .. . ...
ROW 39 : ... .. . ... : ... .. . ... : ... .. . ... : ... .. . ... : ... .. . ... : --- .. . ... : ... .. . ... : ... .. . ...
ROW 3A : ... .. . ... : ... .. . ... : ... .. . ... : ... .. . ... : ... .. . ... : D#1 01 . ... : ... .. . ... : ... .. . ...
ROW 3B : ... .. . ... : ... .. . ... : ... .. . ... : ... .. . ... : ... .. . ... : --- .. . ... : ... .. . ... : ... .. . ...
ROW 3C : ... .. . ... : ... .. . ... : ... .. . ... : ... .. . ... : ... .. . ... : D#1 01 . ... : ... .. . ... : ... .. . ...
ROW 3D : ... .. . ... : ... .. . ... : ... .. . ... : ... .. . ... : ... .. . ... : --- .. . ... : ... .. . ... : ... .. . ...
ROW 3E : ... .. . ... : ... .. . ... : ... .. . ... : ... .. . ... : ... .. . ... : D#1 01 . ... : ... .. . ... : ... .. . ...
ROW 3F : ... .. . ... : ... .. . ... : ... .. . ... : ... .. . ... : ... .. . ... : --- .. . ... : ... .. . ... : ... .. . ...
ROW 40 : ... .. . ... : ... .. . ... : ... .. . ... : ... .. . ... : ... .. . ... : F-1 01 . ... : ... .. . ... : ... .. . ...
ROW 41 : ... .. . ... : ... .. . ... : ... .. . ... : ... .. . ... : ... .. . ... : --- .. . ... : ... .. . ... : ... .. . ...
ROW 42 : ... .. . ... : ... .. . ... : ... .. . ... : ... .. . ... : ... .. . ... : F-1 01 . ... : ... .. . ... : ... .. . ...
ROW 43 : ... .. . ... : ... .. . ... : ... .. . ... : ... .. . ... : ... .. . ... : --- .. . ... : ... .. . ... : ... .. . ...
ROW 44 : ... .. . ... : ... .. . ... : ... .. . ... : ... .. . ... : ... .. . ... : F-1 01 . ... : ... .. . ... : ... .. . ...
ROW 45 : ... .. . ... : ... .. . ... : ... .. . ... : ... .. . ... : ... .. . ... : --- .. . ... : ... .. . ... : ... .. . ...
ROW 46 : ... .. . ... : ... .. . ... : ... .. . ... : ... .. . ... : ... .. . ... : F-1 01 . ... : ... .. . ... : ... .. . ...
ROW 47 : ... .. . ... : ... .. . ... : ... .. . ... : ... .. . ... : ... .. . ... : --- .. . ... : ... .. . ... : ... .. . ...
ROW 48 : ... .. . ... : ... .. . ... : ... .. . ... : ... .. . ... : ... .. . ... : F-2 01 . ... : ... .. . ... : ... .. . ...
ROW 49 : ... .. . ... : ... .. . ... : ... .. . ... : ... .. . ... : ... .. . ... : --- .. . ... : ... .. . ... : ... .. . ...
ROW 4A : ... .. . ... : ... .. . ... : ... .. . ... : ... .. . ... : ... .. . ... : F-1 01 . ... : ... .. . ... : ... .. . ...
ROW 4B : ... .. . ... : ... .. . ... : ... .. . ... : ... .. . ... : ... .. . ... : --- .. . ... : ... .. . ... : ... .. . ...
ROW 4C : ... .. . ... : ... .. . ... : ... .. . ... : ... .. . ... : ... .. . ... : F-1 01 . ... : ... .. . ... : ... .. . ...
ROW 4D : ... .. . ... : ... .. . ... : ... .. . ... : ... .. . ... : ... .. . ... : --- .. . ... : ... .. . ... : ... .. . ...
ROW 4E : ... .. . ... : ... .. . ... : ... .. . ... : ... .. . ... : ... .. . ... : F-1 01 . ... : ... .. . ... : ... .. . ...
ROW 4F : ... .. . ... : ... .. . ... : ... .. . ... : ... .. . ... : ... .. . ... : --- .. . ... : ... .. . ... : ... .. . ...
ROW 50 : ... .. . ... : ... .. . ... : ... .. . ... : ... .. . ... : ... .. . ... : F-1 01 . ... : ... .. . ... : ... .. . ...
ROW 51 : ... .. . ... : ... .. . ... : ... .. . ... : ... .. . ... : ... .. . ... : --- .. . ... : ... .. . ... : ... .. . ...
ROW 52 : ... .. . ... : ... .. . ... : ... .. . ... : ... .. . ... : ... .. . ... : F-1 01 . ... : ... .. . ... : ... .. . ...
ROW 53 : ... .. . ... : ... .. . ... : ... .. . ... : ... .. . ... : ... .. . ... : --- .. . ... : ... .. . ... : ... .. . ...
ROW 54 : ... .. . ... : ... .. . ... : ... .. . ... : ... .. . ... : ... .. . ... : F-1 01 . ... : ... .. . ... : ... .. . ...
ROW 55 : ... .. . ... : ... .. . ... : ... .. . ... : ... .. . ... : ... .. . ... : --- .. . ... : ... .. . ... : ... .. . ...
ROW 56 : ... .. . ... : ... .. . ... : ... .. . ... : ... .. . ... : ... .. . ... : F-1 01 . ... : ... .. . ... : ... .. . ...
ROW 57 : ... .. . ... : ... .. . ... : ... .. . ... : ... .. . ... : ... .. . ... : --- .. . ... : ... .. . ... : ... .. . ...
ROW 58 : ... .. . ... : ... .. . ... : ... .. . ... : ... .. . ... : ... .. . ... : F-2 01 . ... : ... .. . ... : ... .. . ...
ROW 59 : ... .. . ... : ... .. . ... : ... .. . ... : ... .. . ... : ... .. . ... : --- .. . ... : ... .. . ... : ... .. . ...
ROW 5A : ... .. . ... : ... .. . ... : ... .. . ... : ... .. . ... : ... .. . ... : F-1 01 . ... : ... .. . ... : ... .. . ...
ROW 5B : ... .. . ... : ... .. . ... : ... .. . ... : ... .. . ... : ... .. . ... : --- .. . ... : ... .. . ... : ... .. . ...
ROW 5C : ... .. . ... : ... .. . ... : ... .. . ... : ... .. . ... : ... .. . ... : F-1 01 . ... : ... .. . ... : ... .. . ...
ROW 5D : ... .. . ... : ... .. . ... : ... .. . ... : ... .. . ... : ... .. . ... : --- .. . ... : ... .. . ... : ... .. . ...
ROW 5E : ... .. . ... : ... .. . ... : ... .. . ... : ... .. . ... : ... .. . ... : F-1 01 . ... : ... .. . ... : ... .. . ...
ROW 5F : ... .. . ... : ... .. . ... : ... .. . ... : ... .. . ... : ... .. . ... : --- .. . ... : ... .. . ... : ... .. . ...
ROW 60 : ... .. . ... : ... .. . ... : ... .. . ... : ... .. . ... : ... .. . ... : A#1 01 . ... : ... .. . ... : ... .. . ...
ROW 61 : ... .. . ... : ... .. . ... : ... .. . ... : ... .. . ... : ... .. . ... : --- .. . ... : ... .. . ... : ... .. . ...
ROW 62 : ... .. . ... : ... .. . ... : ... .. . ... : ... .. . ... : ... .. . ... : A#1 01 . ... : ... .. . ... : ... .. . ...
ROW 63 : ... .. . ... : ... .. . ... : ... .. . ... : ... .. . ... : ... .. . ... : --- .. . ... : ... .. . ... : ... .. . ...
ROW 64 : ... .. . ... : ... .. . ... : ... .. . ... : ... .. . ... : ... .. . ... : A#1 01 . ... : ... .. . ... : ... .. . ...
ROW 65 : ... .. . ... : ... .. . ... : ... .. . ... : ... .. . ... : ... .. . ... : --- .. . ... : ... .. . ... : ... .. . ...
ROW 66 : ... .. . ... : ... .. . ... : ... .. . ... : ... .. . ... : ... .. . ... : A#1 01 . ... : ... .. . ... : ... .. . ...
ROW 67 : ... .. . ... : ... .. . ... : ... .. . ... : ... .. . ... : ... .. . ... : --- .. . ... : ... .. . ... : ... .. . ...
ROW 68 : ... .. . ... : ... .. . ... : ... .. . ... : ... .. . ... : ... .. . ... : A#2 01 . ... : ... .. . ... : ... .. . ...
ROW 69 : ... .. . ... : ... .. . ... : ... .. . ... : ... .. . ... : ... .. . ... : --- .. . ... : ... .. . ... : ... .. . ...
ROW 6A : ... .. . ... : ... .. . ... : ... .. . ... : ... .. . ... : ... .. . ... : A#1 01 . ... : ... .. . ... : ... .. . ...
ROW 6B : ... .. . ... : ... .. . ... : ... .. . ... : ... .. . ... : ... .. . ... : --- .. . ... : ... .. . ... : ... .. . ...
ROW 6C : ... .. . ... : ... .. . ... : ... .. . ... : ... .. . ... : ... .. . ... : A#1 01 . ... : ... .. . ... : ... .. . ...
ROW 6D : ... .. . ... : ... .. . ... : ... .. . ... : ... .. . ... : ... .. . ... : --- .. . ... : ... .. . ... : ... .. . ...
ROW 6E : ... .. . ... : ... .. . ... : ... .. . ... : ... .. . ... : ... .. . ... : A#1 01 . ... : ... .. . ... : ... .. . ...
ROW 6F : ... .. . ... : ... .. . ... : ... .. . ... : ... .. . ... : ... .. . ... : --- .. . ... : ... .. . ... : ... .. . ...
ROW 70 : ... .. . ... : ... .. . ... : ... .. . ... : ... .. . ... : ... .. . ... : A#1 01 . ... : ... .. . ... : ... .. . ...
ROW 71 : ... .. . ... : ... .. . ... : ... .. . ... : ... .. . ... : ... .. . ... : --- .. . ... : ... .. . ... : ... .. . ...
ROW 72 : ... .. . ... : ... .. . ... : ... .. . ... : ... .. . ... : ... .. . ... : A#1 01 . ... : ... .. . ... : ... .. . ...
ROW 73 : ... .. . ... : ... .. . ... : ... .. . ... : ... .. . ... : ... .. . ... : --- .. . ... : ... .. . ... : ... .. . ...
ROW 74 : ... .. . ... : ... .. . ... : ... .. . ... : ... .. . ... : ... .. . ... : A#1 01 . ... : ... .. . ... : ... .. . ...
ROW 75 : ... .. . ... : ... .. . ... : ... .. . ... : ... .. . ... : ... .. . ... : --- .. . ... : ... .. . ... : ... .. . ...
ROW 76 : ... .. . ... : ... .. . ... : ... .. . ... : ... .. . ... : ... .. . ... : A#1 01 . ... : ... .. . ... : ... .. . ...
ROW 77 : ... .. . ... : ... .. . ... : ... .. . ... : ... .. . ... : ... .. . ... : --- .. . ... : ... .. . ... : ... .. . ...
ROW 78 : ... .. . ... : ... .. . ... : ... .. . ... : ... .. . ... : ... .. . ... : A#2 01 . ... : ... .. . ... : ... .. . ...
ROW 79 : ... .. . ... : ... .. . ... : ... .. . ... : ... .. . ... : ... .. . ... : --- .. . ... : ... .. . ... : ... .. . ...
ROW 7A : ... .. . ... : ... .. . ... : ... .. . ... : ... .. . ... : ... .. . ... : A#1 01 . ... : ... .. . ... : ... .. . ...
ROW 7B : ... .. . ... : ... .. . ... : ... .. . ... : ... .. . ... : ... .. . ... : --- .. . ... : ... .. . ... : ... .. . ...
ROW 7C : ... .. . ... : ... .. . ... : ... .. . ... : ... .. . ... : ... .. . ... : A#1 01 . ... : ... .. . ... : ... .. . ...
ROW 7D : ... .. . ... : ... .. . ... : ... .. . ... : ... .. . ... : ... .. . ... : --- .. . ... : ... .. . ... : ... .. . ...
ROW 7E : ... .. . ... : ... .. . ... : ... .. . ... : ... .. . ... : ... .. . ... : A#1 01 . ... : ... .. . ... : ... .. . ...
ROW 7F : ... .. . ... : ... .. . ... : ... .. . ... : ... .. . ... : ... .. . ... : --- .. . ... : ... .. . ... : ... .. . ...

PATTERN 0A
ROW 00 : C-3 0D C ... : ... .. . ... : C-2 00 . ... : F-# 03 C ... : ... .. . ... : ... .. . ... : C-4 0F F ... : --- .. . ...
ROW 01 : ... .. . ... : ... .. . ... : --- 0D . ... : ... .. . ... : ... .. . ... : ... .. . ... : ... .. . ... : ... .. . ...
ROW 02 : G-2 0D . ... : C-3 0D 4 ... : C-2 00 . ... : ... .. . ... : ... .. . ... : ... .. . ... : ... .. . ... : C-4 07 2 ...
ROW 03 : ... .. . ... : ... .. . ... : --- 0D . ... : ... .. . ... : ... .. . ... : ... .. . ... : ... .. . ... : ... .. . ...
ROW 04 : D#2 0D . ... : G-2 0D . ... : C-2 00 . ... : F-# 03 A ... : ... .. . ... : ... .. . ... : ... .. . ... : ... .. . ...
ROW 05 : ... .. . ... : ... .. . ... : --- 0D . ... : ... .. . ... : ... .. . ... : ... .. . ... : ... .. . ... : ... .. . ...
ROW 06 : C-2 0D . ... : D#2 0D . ... : C-2 00 . ... : F-# 03 8 ... : ... .. . ... : ... .. . ... : ... .. . ... : ... .. . ...
ROW 07 : ... .. . ... : ... .. . ... : --- 0D . ... : ... .. . ... : ... .. . ... : ... .. . ... : ... .. . ... : ... .. . ...
ROW 08 : G-2 0D . ... : C-2 0D . ... : C-3 00 . ... : 4-# 03 C ... : ... .. . ... : ... .. . ... : ... .. . ... : ... .. . ...
ROW 09 : ... .. . ... : ... .. . ... : --- 0D . ... : ... .. . ... : ... .. . ... : ... .. . ... : ... .. . ... : ... .. . ...
ROW 0A : D#2 0D . ... : G-2 0D . ... : C-2 00 . ... : 8-# 03 4 ... : ... .. . ... : ... .. . ... : ... .. . ... : ... .. . ...
ROW 0B : ... .. . ... : ... .. . ... : --- .. . ... : 8-# 03 5 ... : ... .. . ... : ... .. . ... : ... .. . ... : ... .. . ...
ROW 0C : C-2 0D . ... : D#2 0D . ... : C-2 00 . ... : F-# 03 A ... : ... .. . ... : ... .. . ... : G-3 0F . ... : ... .. . ...
ROW 0D : ... .. . ... : ... .. . ... : --- .. . ... : ... .. . ... : ... .. . ... : ... .. . ... : ... .. . ... : ... .. . ...
ROW 0E : G-1 0D . ... : C-2 0D . ... : C-2 00 . ... : F-# 03 8 ... : ... .. . ... : ... .. . ... : F-3 0F . ... : G-3 07 . ...
ROW 0F : ... .. . ... : ... .. . ... : --- .. . ... : ... .. . ... : ... .. . ... : ... .. . ... : ... .. . ... : ... .. . ...
ROW 10 : C-3 0D . ... : G-1 0D . ... : C-2 00 . ... : F-# 03 C ... : ... .. . ... : ... .. . ... : D#3 0F . ... : F-3 07 . ...
ROW 11 : ... .. . ... : ... .. . ... : --- .. . ... : ... .. . ... : ... .. . ... : ... .. . ... : ... .. . ... : ... .. . ...
ROW 12 : G-2 0D . ... : C-3 0D . ... : C-2 00 . ... : ... .. . ... : ... .. . ... : ... .. . ... : ... .. . ... : D#3 07 . ...
ROW 13 : ... .. . ... : ... .. . ... : --- .. . ... : ... .. . ... : ... .. . ... : ... .. . ... : ... .. . ... : ... .. . ...
ROW 14 : D#2 0D . ... : G-2 0D . ... : C-2 00 . ... : F-# 03 A ... : ... .. . ... : ... .. . ... : ... .. . ... : ... .. . ...
ROW 15 : ... .. . ... : ... .. . ... : --- .. . ... : ... .. . ... : ... .. . ... : ... .. . ... : ... .. . ... : ... .. . ...
ROW 16 : C-2 0D . ... : D#2 0D . ... : C-2 00 . ... : F-# 03 8 ... : ... .. . ... : ... .. . ... : F-3 0F . ... : ... .. . ...
ROW 17 : ... .. . ... : ... .. . ... : --- .. . ... : ... .. . ... : ... .. . ... : ... .. . ... : ... .. . ... : ... .. . ...
ROW 18 : G-2 0D . ... : C-2 0D . ... : C-3 00 . ... : 4-# 03 C ... : ... .. . ... : ... .. . ... : ... .. . ... : F-3 07 . ...
ROW 19 : ... .. . ... : ... .. . ... : --- .. . ... : ... .. . ... : ... .. . ... : ... .. . ... : ... .. . ... : ... .. . ...
ROW 1A : D#2 0D . ... : G-2 0D . ... : C-2 00 . ... : 8-# 03 4 ... : ... .. . ... : ... .. . ... : ... .. . ... : ... .. . ...
ROW 1B : ... .. . ... : ... .. . ... : --- .. . ... : 8-# 03 5 ... : ... .. . ... : ... .. . ... : ... .. . ... : ... .. . ...
ROW 1C : C-2 0D . ... : D#2 0D . ... : C-2 00 . ... : F-# 03 A ... : ... .. . ... : ... .. . ... : G-3 0F . ... : ... .. . ...
ROW 1D : ... .. . ... : ... .. . ... : --- .. . ... : ... .. . ... : ... .. . ... : ... .. . ... : ... .. . ... : ... .. . ...
ROW 1E : G-1 0D . ... : C-2 0D . ... : C-2 00 . ... : F-# 03 8 ... : ... .. . ... : ... .. . ... : ... .. . ... : G-3 07 . ...
ROW 1F : ... .. . ... : ... .. . ... : --- .. . ... : ... .. . ... : ... .. . ... : ... .. . ... : ... .. . ... : ... .. . ...
ROW 20 : C-3 0D . ... : G-1 0D . ... : D#2 00 . ... : F-# 03 C ... : ... .. . ... : ... .. . ... : G#3 0F . ... : ... .. . ...
ROW 21 : ... .. . ... : ... .. . ... : --- .. . ... : ... .. . ... : ... .. . ... : ... .. . ... : ... .. . ... : ... .. . ...
ROW 22 : G#2 0D . ... : C-3 0D . ... : D#2 00 . ... : ... .. . ... : ... .. . ... : ... .. . ... : ... .. . ... : G#3 07 . ...
ROW 23 : ... .. . ... : ... .. . ... : --- .. . ... : ... .. . ... : ... .. . ... : ... .. . ... : ... .. . ... : ... .. . ...
ROW 24 : D#2 0D . ... : G#2 0D . ... : D#2 00 . ... : F-# 03 A ... : ... .. . ... : ... .. . ... : ... .. . ... : ... .. . ...
ROW 25 : ... .. . ... : ... .. . ... : --- .. . ... : ... .. . ... : ... .. . ... : ... .. . ... : ... .. . ... : ... .. . ...
ROW 26 : C-2 0D . ... : D#2 0D . ... : D#2 00 . ... : F-# 03 8 ... : ... .. . ... : ... .. . ... : D#3 0F . ... : ... .. . ...
ROW 27 : ... .. . ... : ... .. . ... : --- .. . ... : ... .. . ... : ... .. . ... : ... .. . ... : ... .. . ... : ... .. . ...
ROW 28 : G#2 0D . ... : C-2 0D . ... : D#3 00 . ... : 4-# 03 C ... : ... .. . ... : ... .. . ... : ... .. . ... : D#3 07 . ...
ROW 29 : ... .. . ... : ... .. . ... : --- 0D . ... : ... .. . ... : ... .. . ... : ... .. . ... : ... .. . ... : ... .. . ...
ROW 2A : D#2 0D . ... : G#2 0D . ... : D#2 00 . ... : 8-# 03 4 ... : ... .. . ... : ... .. . ... : ... .. . ... : ... .. . ...
ROW 2B : ... .. . ... : ... .. . ... : --- .. . ... : 8-# 03 5 ... : ... .. . ... : ... .. . ... : ... .. . ... : ... .. . ...
ROW 2C : C-2 0D . ... : D#2 0D . ... : D#2 00 . ... : F-# 03 A ... : ... .. . ... : ... .. . ... : D-3 0F . ... : ... .. . ...
ROW 2D : ... .. . ... : ... .. . ... : --- .. . ... : ... .. . ... : ... .. . ... : ... .. . ... : ... .. . ... : ... .. . ...
ROW 2E : G#1 0D . ... : C-2 0D . ... : D#2 00 . ... : F-# 03 8 ... : ... .. . ... : ... .. . ... : ... .. . ... : D-3 07 . ...
ROW 2F : ... .. . ... : ... .. . ... : --- .. . ... : ... .. . ... : ... .. . ... : ... .. . ... : ... .. . ... : ... .. . ...
ROW 30 : C-3 0D . ... : G#1 0D . ... : D#2 00 . ... : F-# 03 C ... : ... .. . ... : ... .. . ... : C-3 0F . ... : ... .. . ...
ROW 31 : ... .. . ... : ... .. . ... : --- .. . ... : ... .. . ... : ... .. . ... : ... .. . ... : ... .. . ... : ... .. . ...
ROW 32 : G#2 0D . ... : C-3 0D . ... : D#2 00 . ... : ... .. . ... : ... .. . ... : ... .. . ... : ... .. . ... : C-3 07 . ...
ROW 33 : ... .. . ... : ... .. . ... : --- .. . ... : ... .. . ... : ... .. . ... : ... .. . ... : ... .. . ... : ... .. . ...
ROW 34 : D#2 0D . ... : G#2 0D . ... : D#2 00 . ... : F-# 03 A ... : ... .. . ... : ... .. . ... : ... .. . ... : ... .. . ...
ROW 35 : ... .. . ... : ... .. . ... : --- .. . ... : ... .. . ... : ... .. . ... : ... .. . ... : ... .. . ... : ... .. . ...
ROW 36 : C-2 0D . ... : D#2 0D . ... : D#2 00 . ... : F-# 03 8 ... : ... .. . ... : ... .. . ... : G#3 0F . ... : ... .. . ...
ROW 37 : ... .. . ... : ... .. . ... : --- .. . ... : ... .. . ... : ... .. . ... : ... .. . ... : ... .. . ... : ... .. . ...
ROW 38 : G#2 0D . ... : C-2 0D . ... : D#3 00 . ... : 4-# 03 C ... : ... .. . ... : ... .. . ... : ... .. . ... : G#3 07 . ...
ROW 39 : ... .. . ... : ... .. . ... : --- .. . ... : ... .. . ... : ... .. . ... : ... .. . ... : ... .. . ... : ... .. . ...
ROW 3A : D#2 0D . ... : G#2 0D . ... : D#2 00 . ... : 8-# 03 4 ... : ... .. . ... : ... .. . ... : ... .. . ... : ... .. . ...
ROW 3B : ... .. . ... : ... .. . ... : --- .. . ... : 8-# 03 5 ... : ... .. . ... : ... .. . ... : ... .. . ... : ... .. . ...
ROW 3C : C-2 0D . ... : D#2 0D . ... : D#2 00 . ... : F-# 03 A ... : ... .. . ... : ... .. . ... : G-3 0F . ... : ... .. . ...
ROW 3D : ... .. . ... : ... .. . ... : --- .. . ... : ... .. . ... : ... .. . ... : ... .. . ... : ... .. . ... : ... .. . ...
ROW 3E : G#1 0D . ... : C-2 0D . ... : D#2 00 . ... : F-# 03 8 ... : ... .. . ... : ... .. . ... : ... .. . ... : G-3 07 . ...
ROW 3F : ... .. . ... : ... .. . ... : --- .. . ... : ... .. . ... : ... .. . ... : ... .. . ... : ... .. . ... : ... .. . ...
ROW 40 : C-3 0D . ... : G#1 0D . ... : F-2 00 . ... : F-# 03 C ... : ... .. . ... : ... .. . ... : F-3 0F . ... : ... .. . ...
ROW 41 : ... .. . ... : ... .. . ... : --- .. . ... : ... .. . ... : ... .. . ... : ... .. . ... : ... .. . ... : ... .. . ...
ROW 42 : G#2 0D . ... : C-3 0D . ... : F-2 00 . ... : ... .. . ... : ... .. . ... : ... .. . ... : ... .. . ... : F-3 07 . ...
ROW 43 : ... .. . ... : ... .. . ... : --- .. . ... : ... .. . ... : ... .. . ... : ... .. . ... : ... .. . ... : ... .. . ...
ROW 44 : F-2 0D . ... : G#2 0D . ... : F-2 00 . ... : F-# 03 A ... : ... .. . ... : ... .. . ... : ... .. . ... : ... .. . ...
ROW 45 : ... .. . ... : ... .. . ... : --- .. . ... : ... .. . ... : ... .. . ... : ... .. . ... : ... .. . ... : ... .. . ...
ROW 46 : C-2 0D . ... : F-2 0D . ... : F-2 00 . ... : F-# 03 8 ... : ... .. . ... : ... .. . ... : D-3 0F . ... : ... .. . ...
ROW 47 : ... .. . ... : ... .. . ... : --- .. . ... : ... .. . ... : ... .. . ... : ... .. . ... : ... .. . ... : ... .. . ...
ROW 48 : G#2 0D . ... : C-2 0D . ... : F-3 00 . ... : 4-# 03 C ... : ... .. . ... : ... .. . ... : ... .. . ... : D-3 07 . ...
ROW 49 : ... .. . ... : ... .. . ... : --- .. . ... : ... .. . ... : ... .. . ... : ... .. . ... : ... .. . ... : ... .. . ...
ROW 4A : F-2 0D . ... : G#2 0D . ... : F-2 00 . ... : 8-# 03 4 ... : ... .. . ... : ... .. . ... : ... .. . ... : ... .. . ...
ROW 4B : ... .. . ... : ... .. . ... : --- .. . ... : 8-# 03 5 ... : ... .. . ... : ... .. . ... : ... .. . ... : ... .. . ...
ROW 4C : C-2 0D . ... : F-2 0D . ... : F-2 00 . ... : F-# 03 A ... : ... .. . ... : ... .. . ... : D#3 0F . ... : ... .. . ...
ROW 4D : ... .. . ... : ... .. . ... : --- .. . ... : ... .. . ... : ... .. . ... : ... .. . ... : ... .. . ... : ... .. . ...
ROW 4E : G#1 0D . ... : C-2 0D . ... : F-2 00 . ... : F-# 03 8 ... : ... .. . ... : ... .. . ... : ... .. . ... : D#3 07 . ...
ROW 4F : ... .. . ... : ... .. . ... : --- .. . ... : ... .. . ... : ... .. . ... : ... .. . ... : ... .. . ... : ... .. . ...
ROW 50 : C-3 0D . ... : G#1 0D . ... : F-2 00 . ... : F-# 03 C ... : ... .. . ... : ... .. . ... : F-3 0F . ... : ... .. . ...
ROW 51 : ... .. . ... : ... .. . ... : --- .. . ... : ... .. . ... : ... .. . ... : ... .. . ... : ... .. . ... : ... .. . ...
ROW 52 : G#2 0D . ... : C-3 0D . ... : F-2 00 . ... : ... .. . ... : ... .. . ... : ... .. . ... : ... .. . ... : F-3 07 . ...
ROW 53 : ... .. . ... : ... .. . ... : --- .. . ... : ... .. . ... : ... .. . ... : ... .. . ... : ... .. . ... : ... .. . ...
ROW 54 : F-2 0D . ... : G#2 0D . ... : F-2 00 . ... : F-# 03 A ... : ... .. . ... : ... .. . ... : ... .. . ... : ... .. . ...
ROW 55 : ... .. . ... : ... .. . ... : --- .. . ... : ... .. . ... : ... .. . ... : ... .. . ... : ... .. . ... : ... .. . ...
ROW 56 : C-2 0D . ... : F-2 0D . ... : F-2 00 . ... : F-# 03 8 ... : ... .. . ... : ... .. . ... : D-3 0F . ... : ... .. . ...
ROW 57 : ... .. . ... : ... .. . ... : --- .. . ... : ... .. . ... : ... .. . ... : ... .. . ... : ... .. . ... : ... .. . ...
ROW 58 : G#2 0D . ... : C-2 0D . ... : F-3 00 . ... : 4-# 03 C ... : ... .. . ... : ... .. . ... : ... .. . ... : D-3 07 . ...
ROW 59 : ... .. . ... : ... .. . ... : --- .. . ... : ... .. . ... : ... .. . ... : ... .. . ... : ... .. . ... : ... .. . ...
ROW 5A : F-2 0D . ... : G#2 0D . ... : F-2 00 . ... : 8-# 03 4 ... : ... .. . ... : ... .. . ... : ... .. . ... : ... .. . ...
ROW 5B : ... .. . ... : ... .. . ... : --- .. . ... : 8-# 03 5 ... : ... .. . ... : ... .. . ... : ... .. . ... : ... .. . ...
ROW 5C : C-2 0D . ... : F-2 0D . ... : F-2 00 . ... : F-# 03 A ... : ... .. . ... : ... .. . ... : C-3 0F . ... : ... .. . ...
ROW 5D : ... .. . ... : ... .. . ... : --- .. . ... : ... .. . ... : ... .. . ... : ... .. . ... : ... .. . ... : ... .. . ...
ROW 5E : G#1 0D . ... : C-2 0D . ... : F-2 00 . ... : F-# 03 8 ... : ... .. . ... : ... .. . ... : ... .. . ... : C-3 07 . ...
ROW 5F : ... .. . ... : ... .. . ... : --- .. . ... : ... .. . ... : ... .. . ... : ... .. . ... : ... .. . ... : ... .. . ...
ROW 60 : D-3 0D . ... : G#1 0D . ... : A#2 00 . ... : F-# 03 C ... : ... .. . ... : ... .. . ... : A#2 0F . ... : ... .. . ...
ROW 61 : ... .. . ... : ... .. . ... : --- .. . ... : ... .. . ... : ... .. . ... : ... .. . ... : ... .. . ... : ... .. . ...
ROW 62 : A#2 0D . ... : D-3 0D . ... : A#2 00 . ... : ... .. . ... : ... .. . ... : ... .. . ... : ... .. . ... : A#2 07 . ...
ROW 63 : ... .. . ... : ... .. . ... : --- .. . ... : ... .. . ... : ... .. . ... : ... .. . ... : ... .. . ... : ... .. . ...
ROW 64 : F-2 0D . ... : A#2 0D . ... : A#2 00 . ... : F-# 03 A ... : ... .. . ... : ... .. . ... : ... .. . ... : ... .. . ...
ROW 65 : ... .. . ... : ... .. . ... : --- .. . ... : ... .. . ... : ... .. . ... : ... .. . ... : ... .. . ... : ... .. . ...
ROW 66 : D-2 0D . ... : F-2 0D . ... : A#2 00 . ... : F-# 03 8 ... : ... .. . ... : ... .. . ... : D-3 0F . ... : ... .. . ...
ROW 67 : ... .. . ... : ... .. . ... : --- .. . ... : ... .. . ... : ... .. . ... : ... .. . ... : ... .. . ... : ... .. . ...
ROW 68 : A#2 0D . ... : D-2 0D . ... : A#3 00 . ... : 4-# 03 C ... : ... .. . ... : ... .. . ... : ... .. . ... : D-3 07 . ...
ROW 69 : ... .. . ... : ... .. . ... : --- .. . ... : ... .. . ... : ... .. . ... : ... .. . ... : ... .. . ... : ... .. . ...
ROW 6A : F-2 0D . ... : A#2 0D . ... : A#2 00 . ... : 8-# 03 4 ... : ... .. . ... : ... .. . ... : ... .. . ... : ... .. . ...
ROW 6B : ... .. . ... : ... .. . ... : --- .. . ... : 8-# 03 5 ... : ... .. . ... : ... .. . ... : ... .. . ... : ... .. . ...
ROW 6C : D-2 0D . ... : F-2 0D . ... : A#2 00 . ... : F-# 03 A ... : ... .. . ... : ... .. . ... : D#3 0F . ... : ... .. . ...
ROW 6D : ... .. . ... : ... .. . ... : --- .. . ... : ... .. . ... : ... .. . ... : ... .. . ... : ... .. . ... : ... .. . ...
ROW 6E : A#1 0D . ... : D-2 0D . ... : A#2 00 . ... : F-# 03 8 ... : ... .. . ... : ... .. . ... : ... .. . ... : D#3 07 . ...
ROW 6F : ... .. . ... : ... .. . ... : --- .. . ... : ... .. . ... : ... .. . ... : ... .. . ... : ... .. . ... : ... .. . ...
ROW 70 : D-3 0D . ... : A#1 0D . ... : A#2 00 . ... : F-# 03 C ... : ... .. . ... : ... .. . ... : F-3 0F . ... : ... .. . ...
ROW 71 : ... .. . ... : ... .. . ... : --- .. . ... : ... .. . ... : ... .. . ... : ... .. . ... : ... .. . ... : ... .. . ...
ROW 72 : A#2 0D . ... : D-3 0D . ... : A#2 00 . ... : ... .. . ... : ... .. . ... : ... .. . ... : ... .. . ... : F-3 07 . ...
ROW 73 : ... .. . ... : ... .. . ... : --- .. . ... : ... .. . ... : ... .. . ... : ... .. . ... : ... .. . ... : ... .. . ...
ROW 74 : F-2 0D . ... : A#2 0D . ... : A#2 00 . ... : F-# 03 A ... : ... .. . ... : ... .. . ... : ... .. . ... : ... .. . ...
ROW 75 : ... .. . ... : ... .. . ... : --- .. . ... : ... .. . ... : ... .. . ... : ... .. . ... : ... .. . ... : ... .. . ...
ROW 76 : D-2 0D . ... : F-2 0D . ... : A#2 00 . ... : F-# 03 8 ... : ... .. . ... : ... .. . ... : D#3 0F . ... : ... .. . ...
ROW 77 : ... .. . ... : ... .. . ... : --- .. . ... : ... .. . ... : ... .. . ... : ... .. . ... : ... .. . ... : ... .. . ...
ROW 78 : A#2 0D . ... : D-2 0D . ... : A#3 00 . ... : 4-# 03 C ... : ... .. . ... : ... .. . ... : ... .. . ... : D#3 07 . ...
ROW 79 : ... .. . ... : ... .. . ... : --- .. . ... : ... .. . ... : ... .. . ... : ... .. . ... : ... .. . ... : ... .. . ...
ROW 7A : F-2 0D . ... : A#2 0D . ... : A#2 00 . ... : 8-# 03 4 ... : ... .. . ... : ... .. . ... : ... .. . ... : ... .. . ...
ROW 7B : ... .. . ... : ... .. . ... : --- .. . ... : 8-# 03 5 ... : ... .. . ... : ... .. . ... : ... .. . ... : ... .. . ...
ROW 7C : D-2 0D . ... : F-2 0D . ... : A#2 00 . ... : F-# 03 A ... : ... .. . ... : ... .. . ... : D-3 0F . ... : ... .. . ...
ROW 7D : ... .. . ... : ... .. . ... : --- .. . ... : ... .. . ... : ... .. . ... : ... .. . ... : ... .. . ... : ... .. . ...
ROW 7E : A#1 0D . ... : D-2 0D . ... : A#2 00 . ... : F-# 03 8 ... : ... .. . ... : ... .. . ... : ... .. . ... : D-3 07 . ...
ROW 7F : ... .. . ... : ... .. . ... : --- .. . ... : ... .. . ... : ... .. . ... : ... .. . ... : ... .. . ... : ... .. . ...

TRACK 128   3 132 "Ash Drake"
COLUMNS : 1 1 1 1 1 1 1 1

ORDER 00 : 00 00 00 00 00 00 00 00
ORDER 01 : 01 01 01 01 01 01 01 01
ORDER 02 : 02 02 02 02 02 02 02 02
ORDER 03 : 03 03 03 03 03 03 03 03
ORDER 04 : 04 04 04 04 04 04 04 04
ORDER 05 : 05 05 05 05 05 05 05 05
ORDER 06 : 06 06 06 06 06 06 06 06
ORDER 07 : 05 05 05 06 05 05 05 05
ORDER 08 : 07 07 07 07 07 07 07 07
ORDER 09 : 08 08 08 08 08 08 08 08
ORDER 0A : 09 09 09 09 09 09 09 09
ORDER 0B : 0A 0A 0A 0A 0A 0A 0A 0A
ORDER 0C : 0B 0B 0B 0B 0B 0B 0B 0B
ORDER 0D : 0C 0C 0C 0C 0C 0C 0C 0C
ORDER 0E : 0D 0D 0D 0D 0D 0D 0D 0D
ORDER 0F : 0E 0E 0E 0E 0E 0E 0E 0E
ORDER 10 : 0F 0F 0F 0F 0F 0F 0F 0F
ORDER 11 : 10 10 10 10 10 10 10 10
ORDER 12 : 11 11 11 11 11 11 11 11
ORDER 13 : 12 12 12 12 12 12 12 12

PATTERN 00
ROW 00 : --- .. . ... : --- .. . ... : --- .. . ... : 4-# 06 . ... : ... .. . ... : C-1 04 4 ... : --- .. . ... : --- .. . ...
ROW 01 : ... .. . ... : ... .. . ... : ... .. . ... : ... .. . ... : ... .. . ... : ... .. . ... : ... .. . ... : ... .. . ...
ROW 02 : ... .. . ... : ... .. . ... : ... .. . ... : ... .. . ... : ... .. . ... : C-1 04 . ... : ... .. . ... : ... .. . ...
ROW 03 : ... .. . ... : ... .. . ... : ... .. . ... : ... .. . ... : ... .. . ... : ... .. . ... : ... .. . ... : ... .. . ...
ROW 04 : ... .. . ... : ... .. . ... : ... .. . ... : ... .. . ... : ... .. . ... : C-1 04 . ... : ... .. . ... : ... .. . ...
ROW 05 : ... .. . ... : ... .. . ... : ... .. . ... : ... .. . ... : ... .. . ... : ... .. . ... : ... .. . ... : ... .. . ...
ROW 06 : ... .. . ... : ... .. . ... : ... .. . ... : ... .. . ... : ... .. . ... : C-1 04 . ... : ... .. . ... : ... .. . ...
ROW 07 : ... .. . ... : ... .. . ... : ... .. . ... : ... .. . ... : ... .. . ... : ... .. . ... : ... .. . ... : ... .. . ...
ROW 08 : ... .. . ... : ... .. . ... : C-2 0E . ... : ... .. . ... : ... .. . ... : C-2 04 . ... : ... .. . ... : ... .. . ...
ROW 09 : ... .. . ... : ... .. . ... : ... .. . ... : ... .. . ... : ... .. . ... : ... .. . ... : ... .. . ... : ... .. . ...
ROW 0A : ... .. . ... : ... .. . ... : ... .. . ... : ... .. . ... : ... .. . ... : ... .. . ... : ... .. . ... : ... .. . ...
ROW 0B : ... .. . ... : ... .. . ... : ... .. . ... : ... .. . ... : ... .. . ... : ... .. . ... : ... .. . ... : ... .. . ...
ROW 0C : ... .. . ... : ... .. . ... : ... .. . ... : ... .. . ... : ... .. . ... : C-1 04 . ... : ... .. . ... : ... .. . ...
ROW 0D : ... .. . ... : ... .. . ... : ... .. . ... : ... .. . ... : ... .. . ... : ... .. . ... : ... .. . ... : ... .. . ...
ROW 0E : ... .. . ... : ... .. . ... : ... .. . ... : ... .. . ... : ... .. . ... : C-1 04 . ... : ... .. . ... : ... .. . ...
ROW 0F : ... .. . ... : ... .. . ... : ... .. . ... : ... .. . ... : ... .. . ... : ... .. . ... : ... .. . ... : ... .. . ...
ROW 10 : ... .. . ... : ... .. . ... : ... .. . ... : === .. . ... : ... .. . ... : C-1 04 . ... : ... .. . ... : ... .. . ...
ROW 11 : ... .. . ... : ... .. . ... : ... .. . ... : ... .. . ... : ... .. . ... : ... .. . ... : ... .. . ... : ... .. . ...
ROW 12 : ... .. . ... : ... .. . ... : ... .. . ... : ... .. . ... : ... .. . ... : C-1 04 . ... : ... .. . ... : ... .. . ...
ROW 13 : ... .. . ... : ... .. . ... : ... .. . ... : ... .. . ... : ... .. . ... : ... .. . ... : ... .. . ... : ... .. . ...
ROW 14 : ... .. . ... : ... .. . ... : ... .. . ... : ... .. . ... : ... .. . ... : C-1 04 5 ... : ... .. . ... : ... .. . ...
ROW 15 : ... .. . ... : ... .. . ... : ... .. . ... : ... .. . ... : ... .. . ... : ... .. . ... : ... .. . ... : ... .. . ...
ROW 16 : ... .. . ... : ... .. . ... : ... .. . ... : ... .. . ... : ... .. . ... : C-1 04 . ... : ... .. . ... : ... .. . ...
ROW 17 : ... .. . ... : ... .. . ... : ... .. . ... : ... .. . ... : ... .. . ... : ... .. . ... : ... .. . ... : ... .. . ...
ROW 18 : ... .. . ... : ... .. . ... : C-1 0E . ... : ... .. . ... : ... .. . ... : C-2 04 6 ... : ... .. . ... : ... .. . ...
ROW 19 : ... .. . ... : ... .. . ... : ... .. . ... : ... .. . ... : ... .. . ... : ... .. . ... : ... .. . ... : ... .. . ...
ROW 1A : ... .. . ... : ... .. . ... : ... .. . ... : ... .. . ... : ... .. . ... : ... .. . ... : ... .. . ... : ... .. . ...
ROW 1B : ... .. . ... : ... .. . ... : ... .. . ... : ... .. . ... : ... .. . ... : ... .. . ... : ... .. . ... : ... .. . ...
ROW 1C : ... .. . ... : ... .. . ... : ... .. . ... : ... .. . ... : ... .. . ... : C-1 04 7 ... : ... .. . ... : ... .. . ...
ROW 1D : ... .. . ... : ... .. . ... : ... .. . ... : ... .. . ... : ... .. . ... : ... .. . ... : ... .. . ... : ... .. . ...
ROW 1E : ... .. . ... : ... .. . ... : ... .. . ... : ... .. . ... : ... .. . ... : C-1 04 . ... : ... .. . ... : ... .. . ...
ROW 1F : ... .. . ... : ... .. . ... : ... .. . ... : ... .. . ... : ... .. . ... : ... .. . ... : ... .. . ... : ... .. . ...
ROW 20 : ... .. . ... : ... .. . ... : ... .. . ... : 5-# 06 . ... : ... .. . ... : C-1 04 8 ... : ... .. . ... : ... .. . ...
ROW 21 : ... .. . ... : ... .. . ... : ... .. . ... : ... .. . ... : ... .. . ... : ... .. . ... : ... .. . ... : ... .. . ...
ROW 22 : ... .. . ... : ... .. . ... : ... .. . ... : ... .. . ... : ... .. . ... : C-1 04 . ... : ... .. . ... : ... .. . ...
ROW 23 : ... .. . ... : ... .. . ... : ... .. . ... : ... .. . ... : ... .. . ... : ... .. . ... : ... .. . ... : ... .. . ...
ROW 24 : ... .. . ... : ... .. . ... : ... .. . ... : ... .. . ... : ... .. . ... : C-1 04 9 ... : ... .. . ... : ... .. . ...
ROW 25 : ... .. . ... : ... .. . ... : ... .. . ... : ... .. . ... : ... .. . ... : ... .. . ... : ... .. . ... : ... .. . ...
ROW 26 : ... .. . ... : ... .. . ... : ... .. . ... : ... .. . ... : ... .. . ... : C-1 04 . ... : ... .. . ... : ... .. . ...
ROW 27 : ... .. . ... : ... .. . ... : ... .. . ... : ... .. . ... : ... .. . ... : ... .. . ... : ... .. . ... : ... .. . ...
ROW 28 : ... .. . ... : ... .. . ... : C-2 0E . ... : ... .. . ... : ... .. . ... : C-2 04 A ... : ... .. . ... : ... .. . ...
ROW 29 : ... .. . ... : ... .. . ... : ... .. . ... : ... .. . ... : ... .. . ... : ... .. . ... : ... .. . ... : ... .. . ...
ROW 2A : ... .. . ... : ... .. . ... : ... .. . ... : ... .. . ... : ... .. . ... : ... .. . ... : ... .. . ... : ... .. . ...
ROW 2B : ... .. . ... : ... .. . ... : ... .. . ... : ... .. . ... : ... .. . ... : ... .. . ... : ... .. . ... : ... .. . ...
ROW 2C : ... .. . ... : ... .. . ... : ... .. . ... : ... .. . ... : ... .. . ... : C-1 04 B ... : ... .. . ... : ... .. . ...
ROW 2D : ... .. . ... : ... .. . ... : ... .. . ... : ... .. . ... : ... .. . ... : ... .. . ... : ... .. . ... : ... .. . ...
ROW 2E : ... .. . ... : ... .. . ... : ... .. . ... : ... .. . ... : ... .. . ... : C-1 04 . ... : ... .. . ... : ... .. . ...
ROW 2F : ... .. . ... : ... .. . ... : ... .. . ... : ... .. . ... : ... .. . ... : ... .. . ... : ... .. . ... : ... .. . ...
ROW 30 : ... .. . ... : ... .. . ... : ... .. . ... : === .. . ... : ... .. . ... : C-1 04 C ... : ... .. . ... : ... .. . ...
ROW 31 : ... .. . ... : ... .. . ... : ... .. . ... : ... .. . ... : ... .. . ... : ... .. . ... : ... .. . ... : ... .. . ...
ROW 32 : ... .. . ... : ... .. . ... : ... .. . ... : ... .. . ... : ... .. . ... : C-1 04 . ... : ... .. . ... : ... .. . ...
ROW 33 : ... .. . ... : ... .. . ... : ... .. . ... : ... .. . ... : ... .. . ... : ... .. . ... : ... .. . ... : ... .. . ...
ROW 34 : ... .. . ... : ... .. . ... : ... .. . ... : ... .. . ... : ... .. . ... : C-1 04 D ... : ... .. . ... : ... .. . ...
ROW 35 : ... .. . ... : ... .. . ... : ... .. . ... : ... .. . ... : ... .. . ... : ... .. . ... : ... .. . ... : ... .. . ...
ROW 36 : ... .. . ... : ... .. . ... : ... .. . ... : ... .. . ... : ... .. . ... : C-1 04 . ... : ... .. . ... : ... .. . ...
ROW 37 : ... .. . ... : ... .. . ... : ... .. . ... : ... .. . ... : ... .. . ... : ... .. . ... : ... .. . ... : ... .. . ...
ROW 38 : ... .. . ... : ... .. . ... : C-1 0E . ... : ... .. . ... : ... .. . ... : C-2 04 E ... : ... .. . ... : ... .. . ...
ROW 39 : ... .. . ... : ... .. . ... : ... .. . ... : ... .. . ... : ... .. . ... : ... .. . ... : ... .. . ... : ... .. . ...
ROW 3A : ... .. . ... : ... .. . ... : ... .. . ... : ... .. . ... : ... .. . ... : ... .. . ... : ... .. . ... : ... .. . ...
ROW 3B : ... .. . ... : ... .. . ... : ... .. . ... : ... .. . ... : ... .. . ... : ... .. . ... : ... .. . ... : ... .. . ...
ROW 3C : ... .. . ... : ... .. . ... : ... .. . ... : ... .. . ... : ... .. . ... : C-1 04 F ... : ... .. . ... : ... .. . ...
ROW 3D : ... .. . ... : ... .. . ... : ... .. . ... : ... .. . ... : ... .. . ... : ... .. . ... : ... .. . ... : ... .. . ...
ROW 3E : ... .. . ... : ... .. . ... : ... .. . ... : ... .. . ... : ... .. . ... : C-1 04 . ... : ... .. . ... : ... .. . ...
ROW 3F : ... .. . ... : ... .. . ... : ... .. . ... : ... .. . ... : ... .. . ... : ... .. . ... : ... .. . ... : ... .. . ...
ROW 40 : ... .. . ... : ... .. . ... : ... .. . ... : 4-# 06 . ... : ... .. . ... : C-1 04 . ... : ... .. . ... : ... .. . ...
ROW 41 : ... .. . ... : ... .. . ... : ... .. . ... : ... .. . ... : ... .. . ... : ... .. . ... : ... .. . ... : ... .. . ...
ROW 42 : ... .. . ... : ... .. . ... : ... .. . ... : ... .. . ... : ... .. . ... : C-1 04 . ... : ... .. . ... : ... .. . ...
ROW 43 : ... .. . ... : ... .. . ... : ... .. . ... : ... .. . ... : ... .. . ... : ... .. . ... : ... .. . ... : ... .. . ...
ROW 44 : ... .. . ... : ... .. . ... : ... .. . ... : ... .. . ... : ... .. . ... : C-1 04 . ... : ... .. . ... : ... .. . ...
ROW 45 : ... .. . ... : ... .. . ... : ... .. . ... : ... .. . ... : ... .. . ... : ... .. . ... : ... .. . ... : ... .. . ...
ROW 46 : ... .. . ... : ... .. . ... : ... .. . ... : ... .. . ... : ... .. . ... : C-1 04 . ... : ... .. . ... : ... .. . ...
ROW 47 : ... .. . ... : ... .. . ... : ... .. . ... : ... .. . ... : ... .. . ... : ... .. . ... : ... .. . ... : ... .. . ...
ROW 48 : ... .. . ... : ... .. . ... : C-2 0E . ... : ... .. . ... : ... .. . ... : C-2 04 . ... : ... .. . ... : ... .. . ...
ROW 49 : ... .. . ... : ... .. . ... : ... .. . ... : ... .. . ... : ... .. . ... : ... .. . ... : ... .. . ... : ... .. . ...
ROW 4A : ... .. . ... : ... .. . ... : ... .. . ... : ... .. . ... : ... .. . ... : ... .. . ... : ... .. . ... : ... .. . ...
ROW 4B : ... .. . ... : ... .. . ... : ... .. . ... : ... .. . ... : ... .. . ... : ... .. . ... : ... .. . ... : ... .. . ...
ROW 4C : ... .. . ... : ... .. . ... : ... .. . ... : ... .. . ... : ... .. . ... : C-1 04 . ... : ... .. . ... : ... .. . ...
ROW 4D : ... .. . ... : ... .. . ... : ... .. . ... : ... .. . ... : ... .. . ... : ... .. . ... : ... .. . ... : ... .. . ...
ROW 4E : ... .. . ... : ... .. . ... : ... .. . ... : ... .. . ... : ... .. . ... : C-1 04 . ... : ... .. . ... : ... .. . ...
ROW 4F : ... .. . ... : ... .. . ... : ... .. . ... : ... .. . ... : ... .. . ... : ... .. . ... : ... .. . ... : ... .. . ...
ROW 50 : ... .. . ... : ... .. . ... : ... .. . ... : === .. . ... : ... .. . ... : C-1 04 . ... : ... .. . ... : ... .. . ...
ROW 51 : ... .. . ... : ... .. . ... : ... .. . ... : ... .. . ... : ... .. . ... : ... .. . ... : ... .. . ... : ... .. . ...
ROW 52 : ... .. . ... : ... .. . ... : ... .. . ... : ... .. . ... : ... .. . ... : C-1 04 . ... : ... .. . ... : ... .. . ...
ROW 53 : ... .. . ... : ... .. . ... : ... .. . ... : ... .. . ... : ... .. . ... : ... .. . ... : ... .. . ... : ... .. . ...
ROW 54 : ... .. . ... : ... .. . ... : ... .. . ... : ... .. . ... : ... .. . ... : C-1 04 . ... : ... .. . ... : ... .. . ...
ROW 55 : ... .. . ... : ... .. . ... : ... .. . ... : ... .. . ... : ... .. . ... : ... .. . ... : ... .. . ... : ... .. . ...
ROW 56 : ... .. . ... : ... .. . ... : ... .. . ... : ... .. . ... : ... .. . ... : C-1 04 . ... : ... .. . ... : ... .. . ...
ROW 57 : ... .. . ... : ... .. . ... : ... .. . ... : ... .. . ... : ... .. . ... : ... .. . ... : ... .. . ... : ... .. . ...
ROW 58 : ... .. . ... : ... .. . ... : C-1 0E . ... : ... .. . ... : ... .. . ... : C-2 04 . ... : ... .. . ... : ... .. . ...
ROW 59 : ... .. . ... : ... .. . ... : ... .. . ... : ... .. . ... : ... .. . ... : ... .. . ... : ... .. . ... : ... .. . ...
ROW 5A : ... .. . ... : ... .. . ... : ... .. . ... : ... .. . ... : ... .. . ... : ... .. . ... : ... .. . ... : ... .. . ...
ROW 5B : ... .. . ... : ... .. . ... : ... .. . ... : ... .. . ... : ... .. . ... : ... .. . ... : ... .. . ... : ... .. . ...
ROW 5C : ... .. . ... : ... .. . ... : ... .. . ... : ... .. . ... : ... .. . ... : C-1 04 . ... : ... .. . ... : ... .. . ...
ROW 5D : ... .. . ... : ... .. . ... : ... .. . ... : ... .. . ... : ... .. . ... : ... .. . ... : ... .. . ... : ... .. . ...
ROW 5E : ... .. . ... : ... .. . ... : ... .. . ... : ... .. . ... : ... .. . ... : C-1 04 . ... : ... .. . ... : ... .. . ...
ROW 5F : ... .. . ... : ... .. . ... : ... .. . ... : ... .. . ... : ... .. . ... : ... .. . ... : ... .. . ... : ... .. . ...
ROW 60 : ... .. . ... : ... .. . ... : ... .. . ... : 5-# 06 . ... : ... .. . ... : C-1 04 . ... : D-2 01 1 ... : C#2 01 1 ...
ROW 61 : ... .. . ... : ... .. . ... : ... .. . ... : ... .. . ... : ... .. . ... : ... .. . ... : ... .. . ... : ... .. . ...
ROW 62 : ... .. . ... : ... .. . ... : ... .. . ... : ... .. . ... : ... .. . ... : C-1 04 . ... : ... .. 2 ... : ... .. 2 ...
ROW 63 : ... .. . ... : ... .. . ... : ... .. . ... : ... .. . ... : ... .. . ... : ... .. . ... : ... .. . ... : ... .. . ...
ROW 64 : ... .. . ... : ... .. . ... : ... .. . ... : ... .. . ... : ... .. . ... : C-1 04 . ... : ... .. 3 ... : ... .. 3 ...
ROW 65 : ... .. . ... : ... .. . ... : ... .. . ... : ... .. . ... : ... .. . ... : ... .. . ... : ... .. . ... : ... .. . ...
ROW 66 : ... .. . ... : ... .. . ... : ... .. . ... : ... .. . ... : ... .. . ... : C-1 04 . ... : ... .. 4 ... : ... .. 4 ...
ROW 67 : ... .. . ... : ... .. . ... : ... .. . ... : ... .. . ... : ... .. . ... : ... .. . ... : ... .. . ... : ... .. . ...
ROW 68 : ... .. . ... : ... .. . ... : C-2 0E . ... : ... .. . ... : ... .. . ... : C-2 04 . ... : ... .. 5 ... : ... .. 5 ...
ROW 69 : ... .. . ... : ... .. . ... : ... .. . ... : ... .. . ... : ... .. . ... : ... .. . ... : ... .. . ... : ... .. . ...
ROW 6A : ... .. . ... : ... .. . ... : ... .. . ... : ... .. . ... : ... .. . ... : ... .. . ... : ... .. 6 ... : ... .. 6 ...
ROW 6B : ... .. . ... : ... .. . ... : ... .. . ... : ... .. . ... : ... .. . ... : ... .. . ... : ... .. . ... : ... .. . ...
ROW 6C : ... .. . ... : ... .. . ... : ... .. . ... : ... .. . ... : ... .. . ... : C-1 04 . ... : ... .. 7 ... : ... .. 7 ...
ROW 6D : ... .. . ... : ... .. . ... : ... .. . ... : ... .. . ... : ... .. . ... : ... .. . ... : ... .. . ... : ... .. . ...
ROW 6E : ... .. . ... : ... .. . ... : ... .. . ... : ... .. . ... : ... .. . ... : C-1 04 . ... : ... .. 8 ... : ... .. 8 ...
ROW 6F : ... .. . ... : ... .. . ... : ... .. . ... : ... .. . ... : ... .. . ... : ... .. . ... : ... .. . ... : ... .. . ...
ROW 70 : ... .. . ... : ... .. . ... : ... .. . ... : === .. . ... : ... .. . ... : C-1 04 C ... : ... .. 9 ... : ... .. 9 ...
ROW 71 : ... .. . ... : ... .. . ... : ... .. . ... : ... .. . ... : ... .. . ... : ... .. . ... : ... .. . ... : ... .. . ...
ROW 72 : ... .. . ... : ... .. . ... : ... .. . ... : ... .. . ... : ... .. . ... : C-1 04 A ... : ... .. A ... : ... .. A ...
ROW 73 : ... .. . ... : ... .. . ... : ... .. . ... : ... .. . ... : ... .. . ... : ... .. . ... : ... .. . ... : ... .. . ...
ROW 74 : ... .. . ... : ... .. . ... : ... .. . ... : ... .. . ... : ... .. . ... : C-1 04 9 ... : ... .. B ... : ... .. B ...
ROW 75 : ... .. . ... : ... .. . ... : ... .. . ... : ... .. . ... : ... .. . ... : ... .. . ... : ... .. . ... : ... .. . ...
ROW 76 : ... .. . ... : ... .. . ... : ... .. . ... : ... .. . ... : ... .. . ... : C-1 04 . ... : ... .. C ... : ... .. C ...
ROW 77 : ... .. . ... : ... .. . ... : ... .. . ... : ... .. . ... : ... .. . ... : ... .. . ... : ... .. . ... : ... .. . ...
ROW 78 : ... .. . ... : ... .. . ... : C-1 0E . ... : ... .. . ... : ... .. . ... : C-2 04 . ... : ... .. D ... : ... .. D ...
ROW 79 : ... .. . ... : ... .. . ... : ... .. . ... : ... .. . ... : ... .. . ... : ... .. . ... : ... .. . ... : ... .. . ...
ROW 7A : ... .. . ... : ... .. . ... : ... .. . ... : ... .. . ... : ... .. . ... : ... .. . ... : ... .. E ... : ... .. E ...
ROW 7B : ... .. . ... : ... .. . ... : ... .. . ... : ... .. . ... : ... .. . ... : ... .. . ... : ... .. . ... : ... .. . ...
ROW 7C : ... .. . ... : ... .. . ... : ... .. . ... : ... .. . ... : ... .. . ... : C-1 04 . ... : ... .. F ... : ... .. F ...
ROW 7D : ... .. . ... : ... .. . ... : ... .. . ... : ... .. . ... : ... .. . ... : ... .. . ... : ... .. . ... : ... .. . ...
ROW 7E : ... .. . ... : ... .. . ... : ... .. . ... : ... .. . ... : ... .. . ... : C-1 04 . ... : ... .. . ... : ... .. . ...
ROW 7F : ... .. . ... : ... .. . ... : ... .. . ... : ... .. . ... : ... .. . ... : ... .. . ... : ... .. . ... : ... .. . ...

PATTERN 01
ROW 00 : C-3 00 0 ... : D#3 00 0 ... : --- .. . ... : 4-# 06 4 ... : ... .. . ... : C-1 04 8 ... : C-2 04 . ... : D#2 04 . ...
ROW 01 : ... .. 1 ... : ... .. 1 ... : ... .. . ... : ... .. . ... : ... .. . ... : ... .. . ... : ... .. . ... : ... .. . ...
ROW 02 : ... .. 2 ... : ... .. 2 ... : ... .. . ... : ... .. . ... : ... .. . ... : ... .. . ... : ... .. . ... : ... .. . ...
ROW 03 : ... .. 3 ... : ... .. 3 ... : ... .. . ... : ... .. . ... : ... .. . ... : ... .. . ... : ... .. . ... : ... .. . ...
ROW 04 : ... .. 4 ... : ... .. 4 ... : ... .. . ... : ... .. . ... : ... .. . ... : C-1 04 . ... : ... .. . ... : ... .. . ...
ROW 05 : ... .. 5 ... : ... .. 5 ... : ... .. . ... : ... .. . ... : ... .. . ... : ... .. . ... : ... .. . ... : ... .. . ...
ROW 06 : ... .. 6 ... : ... .. 6 ... : ... .. . ... : ... .. . ... : ... .. . ... : C-1 04 . ... : ... .. . ... : ... .. . ...
ROW 07 : ... .. 7 ... : ... .. 7 ... : ... .. . ... : ... .. . ... : ... .. . ... : ... .. . ... : ... .. . ... : ... .. . ...
ROW 08 : ... .. 8 ... : ... .. 8 ... : C-2 0E . ... : ... .. . ... : ... .. . ... : C-2 04 . ... : ... .. . ... : ... .. . ...
ROW 09 : ... .. 9 ... : ... .. 9 ... : ... .. . ... : ... .. . ... : ... .. . ... : ... .. . ... : ... .. . ... : ... .. . ...
ROW 0A : ... .. A ... : ... .. A ... : ... .. . ... : ... .. . ... : ... .. . ... : ... .. . ... : ... .. . ... : ... .. . ...
ROW 0B : ... .. B ... : ... .. B ... : ... .. . ... : ... .. . ... : ... .. . ... : ... .. . ... : ... .. . ... : ... .. . ...
ROW 0C : ... .. C ... : ... .. C ... : ... .. . ... : ... .. . ... : ... .. . ... : C-1 04 . ... : ... .. . ... : ... .. . ...
ROW 0D : ... .. D ... : ... .. D ... : ... .. . ... : ... .. . ... : ... .. . ... : ... .. . ... : ... .. . ... : ... .. . ...
ROW 0E : ... .. E ... : ... .. E ... : ... .. . ... : ... .. . ... : ... .. . ... : C-1 04 . ... : ... .. . ... : ... .. . ...
ROW 0F : ... .. F ... : ... .. F ... : ... .. . ... : ... .. . ... : ... .. . ... : ... .. . ... : ... .. . ... : ... .. . ...
ROW 10 : ... .. E ... : ... .. E ... : ... .. . ... : === .. . ... : ... .. . ... : C-1 04 . ... : ... .. . ... : ... .. . ...
ROW 11 : ... .. D ... : ... .. D ... : ... .. . ... : ... .. . ... : ... .. . ... : ... .. . ... : ... .. . ... : ... .. . ...
ROW 12 : ... .. C ... : ... .. C ... : ... .. . ... : ... .. . ... : ... .. . ... : ... .. . ... : ... .. . ... : ... .. . ...
ROW 13 : ... .. B ... : ... .. B ... : ... .. . ... : ... .. . ... : ... .. . ... : ... .. . ... : ... .. . ... : ... .. . ...
ROW 14 : ... .. A ... : ... .. A ... : ... .. . ... : ... .. . ... : ... .. . ... : C-1 04 . ... : ... .. . ... : ... .. . ...
ROW 15 : ... .. 9 ... : ... .. 9 ... : ... .. . ... : ... .. . ... : ... .. . ... : ... .. . ... : ... .. . ... : ... .. . ...
ROW 16 : ... .. 8 ... : ... .. 8 ... : ... .. . ... : ... .. . ... : ... .. . ... : C-1 04 . ... : ... .. . ... : ... .. . ...
ROW 17 : ... .. 7 ... : ... .. 7 ... : ... .. . ... : ... .. . ... : ... .. . ... : ... .. . ... : ... .. . ... : ... .. . ...
ROW 18 : ... .. 6 ... : ... .. 6 ... : C-1 0E . ... : ... .. . ... : ... .. . ... : C-2 04 . ... : ... .. . ... : ... .. . ...
ROW 19 : ... .. 5 ... : ... .. 5 ... : ... .. . ... : ... .. . ... : ... .. . ... : ... .. . ... : ... .. . ... : ... .. . ...
ROW 1A : ... .. 4 ... : ... .. 4 ... : ... .. . ... : ... .. . ... : ... .. . ... : ... .. . ... : ... .. . ... : ... .. . ...
ROW 1B : ... .. 3 ... : ... .. 3 ... : ... .. . ... : ... .. . ... : ... .. . ... : ... .. . ... : ... .. . ... : ... .. . ...
ROW 1C : ... .. 2 ... : ... .. 2 ... : ... .. . ... : ... .. . ... : ... .. . ... : C-1 04 . ... : ... .. . ... : ... .. . ...
ROW 1D : ... .. 1 ... : ... .. 1 ... : ... .. . ... : ... .. . ... : ... .. . ... : ... .. . ... : ... .. . ... : ... .. . ...
ROW 1E : ... .. 0 ... : ... .. 0 ... : ... .. . ... : ... .. . ... : ... .. . ... : C-1 04 . ... : ... .. . ... : ... .. . ...
ROW 1F : ... .. . ... : ... .. . ... : ... .. . ... : ... .. . ... : ... .. . ... : ... .. . ... : ... .. . ... : ... .. . ...
ROW 20 : D#3 00 0 ... : G-3 00 0 ... : ... .. . ... : 5-# 06 . ... : ... .. . ... : C-1 04 . ... : D#2 04 . ... : G-2 04 . ...
ROW 21 : ... .. 1 ... : ... .. 1 ... : ... .. . ... : ... .. . ... : ... .. . ... : ... .. . ... : ... .. . ... : ... .. . ...
ROW 22 : ... .. 2 ... : ... .. 2 ... : ... .. . ... : ... .. . ... : ... .. . ... : ... .. . ... : ... .. . ... : ... .. . ...
ROW 23 : ... .. 3 ... : ... .. 3 ... : ... .. . ... : ... .. . ... : ... .. . ... : ... .. . ... : ... .. . ... : ... .. . ...
ROW 24 : ... .. 4 ... : ... .. 4 ... : ... .. . ... : ... .. . ... : ... .. . ... : C-1 04 . ... : ... .. . ... : ... .. . ...
ROW 25 : ... .. 5 ... : ... .. 5 ... : ... .. . ... : ... .. . ... : ... .. . ... : ... .. . ... : ... .. . ... : ... .. . ...
ROW 26 : ... .. 6 ... : ... .. 6 ... : ... .. . ... : ... .. . ... : ... .. . ... : C-1 04 . ... : ... .. . ... : ... .. . ...
ROW 27 : ... .. 7 ... : ... .. 7 ... : ... .. . ... : ... .. . ... : ... .. . ... : ... .. . ... : ... .. . ... : ... .. . ...
ROW 28 : ... .. 8 ... : ... .. 8 ... : C-2 0E . ... : ... .. . ... : ... .. . ... : C-2 04 . ... : ... .. . ... : ... .. . ...
ROW 29 : ... .. 9 ... : ... .. 9 ... : ... .. . ... : ... .. . ... : ... .. . ... : ... .. . ... : ... .. . ... : ... .. . ...
ROW 2A : ... .. A ... : ... .. A ... : ... .. . ... : ... .. . ... : ... .. . ... : ... .. . ... : ... .. . ... : ... .. . ...
ROW 2B : ... .. B ... : ... .. B ... : ... .. . ... : ... .. . ... : ... .. . ... : ... .. . ... : ... .. . ... : ... .. . ...
ROW 2C : ... .. C ... : ... .. C ... : ... .. . ... : ... .. . ... : ... .. . ... : C-1 04 . ... : ... .. . ... : ... .. . ...
ROW 2D : ... .. D ... : ... .. D ... : ... .. . ... : ... .. . ... : ... .. . ... : ... .. . ... : ... .. . ... : ... .. . ...
ROW 2E : ... .. E ... : ... .. E ... : ... .. . ... : ... .. . ... : ... .. . ... : C-1 04 . ... : ... .. . ... : ... .. . ...
ROW 2F : ... .. F ... : ... .. F ... : ... .. . ... : ... .. . ... : ... .. . ... : ... .. . ... : ... .. . ... : ... .. . ...
ROW 30 : ... .. E ... : ... .. E ... : ... .. . ... : === .. . ... : ... .. . ... : C-1 04 . ... : ... .. . ... : ... .. . ...
ROW 31 : ... .. D ... : ... .. D ... : ... .. . ... : ... .. . ... : ... .. . ... : ... .. . ... : ... .. . ... : ... .. . ...
ROW 32 : ... .. C ... : ... .. C ... : ... .. . ... : ... .. . ... : ... .. . ... : ... .. . ... : ... .. . ... : ... .. . ...
ROW 33 : ... .. B ... : ... .. B ... : ... .. . ... : ... .. . ... : ... .. . ... : ... .. . ... : ... .. . ... : ... .. . ...
ROW 34 : ... .. A ... : ... .. A ... : ... .. . ... : ... .. . ... : ... .. . ... : C-1 04 . ... : ... .. . ... : ... .. . ...
ROW 35 : ... .. 9 ... : ... .. 9 ... : ... .. . ... : ... .. . ... : ... .. . ... : ... .. . ... : ... .. . ... : ... .. . ...
ROW 36 : ... .. 8 ... : ... .. 8 ... : ... .. . ... : ... .. . ... : ... .. . ... : C-1 04 . ... : ... .. . ... : ... .. . ...
ROW 37 : ... .. 7 ... : ... .. 7 ... : ... .. . ... : ... .. . ... : ... .. . ... : ... .. . ... : ... .. . ... : ... .. . ...
ROW 38 : ... .. 6 ... : ... .. 6 ... : C-1 0E . ... : ... .. . ... : ... .. . ... : C-2 04 . ... : ... .. . ... : ... .. . ...
ROW 39 : ... .. 5 ... : ... .. 5 ... : ... .. . ... : ... .. . ... : ... .. . ... : ... .. . ... : ... .. . ... : ... .. . ...
ROW 3A : ... .. 4 ... : ... .. 4 ... : ... .. . ... : ... .. . ... : ... .. . ... : ... .. . ... : ... .. . ... : ... .. . ...
ROW 3B : ... .. 3 ... : ... .. 3 ... : ... .. . ... : ... .. . ... : ... .. . ... : ... .. . ... : ... .. . ... : ... .. . ...
ROW 3C : ... .. 2 ... : ... .. 2 ... : ... .. . ... : ... .. . ... : ... .. . ... : C-1 04 . ... : ... .. . ... : ... .. . ...
ROW 3D : ... .. 1 ... : ... .. 1 ... : ... .. . ... : ... .. . ... : ... .. . ... : ... .. . ... : ... .. . ... : ... .. . ...
ROW 3E : ... .. 0 ... : ... .. 0 ... : ... .. . ... : ... .. . ... : ... .. . ... : C-1 04 . ... : ... .. . ... : ... .. . ...
ROW 3F : ... .. . ... : ... .. . ... : ... .. . ... : ... .. . ... : ... .. . ... : ... .. . ... : ... .. . ... : ... .. . ...
ROW 40 : C-3 00 0 ... : D-3 00 0 ... : ... .. . ... : 4-# 06 . ... : ... .. . ... : C-1 04 . ... : C-2 04 . ... : D-2 04 . ...
ROW 41 : ... .. 1 ... : ... .. 1 ... : ... .. . ... : ... .. . ... : ... .. . ... : ... .. . ... : ... .. . ... : ... .. . ...
ROW 42 : ... .. 2 ... : ... .. 2 ... : ... .. . ... : ... .. . ... : ... .. . ... : ... .. . ... : ... .. . ... : ... .. . ...
ROW 43 : ... .. 3 ... : ... .. 3 ... : ... .. . ... : ... .. . ... : ... .. . ... : ... .. . ... : ... .. . ... : ... .. . ...
ROW 44 : ... .. 4 ... : ... .. 4 ... : ... .. . ... : ... .. . ... : ... .. . ... : C-1 04 . ... : ... .. . ... : ... .. . ...
ROW 45 : ... .. 5 ... : ... .. 5 ... : ... .. . ... : ... .. . ... : ... .. . ... : ... .. . ... : ... .. . ... : ... .. . ...
ROW 46 : ... .. 6 ... : ... .. 6 ... : ... .. . ... : ... .. . ... : ... .. . ... : C-1 04 . ... : ... .. . ... : ... .. . ...
ROW 47 : ... .. 7 ... : ... .. 7 ... : ... .. . ... : ... .. . ... : ... .. . ... : ... .. . ... : ... .. . ... : ... .. . ...
ROW 48 : ... .. 8 ... : ... .. 8 ... : C-2 0E . ... : ... .. . ... : ... .. . ... : C-2 04 . ... : ... .. . ... : ... .. . ...
ROW 49 : ... .. 9 ... : ... .. 9 ... : ... .. . ... : ... .. . ... : ... .. . ... : ... .. . ... : ... .. . ... : ... .. . ...
ROW 4A : ... .. A ... : ... .. A ... : ... .. . ... : ... .. . ... : ... .. . ... : ... .. . ... : ... .. . ... : ... .. . ...
ROW 4B : ... .. B ... : ... .. B ... : ... .. . ... : ... .. . ... : ... .. . ... : ... .. . ... : ... .. . ... : ... .. . ...
ROW 4C : ... .. C ... : ... .. C ... : ... .. . ... : ... .. . ... : ... .. . ... : C-1 04 . ... : ... .. . ... : ... .. . ...
ROW 4D : ... .. D ... : ... .. D ... : ... .. . ... : ... .. . ... : ... .. . ... : ... .. . ... : ... .. . ... : ... .. . ...
ROW 4E : ... .. E ... : ... .. E ... : ... .. . ... : ... .. . ... : ... .. . ... : C-1 04 . ... : ... .. . ... : ... .. . ...
ROW 4F : ... .. F ... : ... .. F ... : ... .. . ... : ... .. . ... : ... .. . ... : ... .. . ... : ... .. . ... : ... .. . ...
ROW 50 : ... .. E ... : ... .. E ... : ... .. . ... : === .. . ... : ... .. . ... : C-1 04 . ... : ... .. . ... : ... .. . ...
ROW 51 : ... .. D ... : ... .. D ... : ... .. . ... : ... .. . ... : ... .. . ... : ... .. . ... : ... .. . ... : ... .. . ...
ROW 52 : ... .. C ... : ... .. C ... : ... .. . ... : ... .. . ... : ... .. . ... : ... .. . ... : ... .. . ... : ... .. . ...
ROW 53 : ... .. B ... : ... .. B ... : ... .. . ... : ... .. . ... : ... .. . ... : ... .. . ... : ... .. . ... : ... .. . ...
ROW 54 : ... .. A ... : ... .. A ... : ... .. . ... : ... .. . ... : ... .. . ... : C-1 04 . ... : ... .. . ... : ... .. . ...
ROW 55 : ... .. 9 ... : ... .. 9 ... : ... .. . ... : ... .. . ... : ... .. . ... : ... .. . ... : ... .. . ... : ... .. . ...
ROW 56 : ... .. 8 ... : ... .. 8 ... : ... .. . ... : ... .. . ... : ... .. . ... : C-1 04 . ... : ... .. . ... : ... .. . ...
ROW 57 : ... .. 7 ... : ... .. 7 ... : ... .. . ... : ... .. . ... : ... .. . ... : ... .. . ... : ... .. . ... : ... .. . ...
ROW 58 : ... .. 6 ... : ... .. 6 ... : C-1 0E . ... : ... .. . ... : ... .. . ... : C-2 04 . ... : ... .. . ... : ... .. . ...
ROW 59 : ... .. 5 ... : ... .. 5 ... : ... .. . ... : ... .. . ... : ... .. . ... : ... .. . ... : ... .. . ... : ... .. . ...
ROW 5A : ... .. 4 ... : ... .. 4 ... : ... .. . ... : ... .. . ... : ... .. . ... : ... .. . ... : ... .. . ... : ... .. . ...
ROW 5B : ... .. 3 ... : ... .. 3 ... : ... .. . ... : ... .. . ... : ... .. . ... : ... .. . ... : ... .. . ... : ... .. . ...
ROW 5C : ... .. 2 ... : ... .. 2 ... : ... .. . ... : ... .. . ... : ... .. . ... : C-1 04 . ... : ... .. . ... : ... .. . ...
ROW 5D : ... .. 1 ... : ... .. 1 ... : ... .. . ... : ... .. . ... : ... .. . ... : ... .. . ... : ... .. . ... : ... .. . ...
ROW 5E : ... .. 0 ... : ... .. 0 ... : ... .. . ... : ... .. . ... : ... .. . ... : C-1 04 . ... : ... .. . ... : ... .. . ...
ROW 5F : ... .. . ... : ... .. . ... : ... .. . ... : ... .. . ... : ... .. . ... : ... .. . ... : ... .. . ... : ... .. . ...
ROW 60 : D-3 00 0 ... : G-3 00 0 ... : ... .. . ... : 5-# 06 . ... : ... .. . ... : C-1 04 . ... : D-2 04 . ... : G-2 04 . ...
ROW 61 : ... .. 1 ... : ... .. 1 ... : ... .. . ... : ... .. . ... : ... .. . ... : ... .. . ... : ... .. . ... : ... .. . ...
ROW 62 : ... .. 2 ... : ... .. 2 ... : ... .. . ... : ... .. . ... : ... .. . ... : ... .. . ... : ... .. . ... : ... .. . ...
ROW 63 : ... .. 3 ... : ... .. 3 ... : ... .. . ... : ... .. . ... : ... .. . ... : ... .. . ... : ... .. . ... : ... .. . ...
ROW 64 : ... .. 4 ... : ... .. 4 ... : ... .. . ... : ... .. . ... : ... .. . ... : C-1 04 . ... : ... .. . ... : ... .. . ...
ROW 65 : ... .. 5 ... : ... .. 5 ... : ... .. . ... : ... .. . ... : ... .. . ... : ... .. . ... : ... .. . ... : ... .. . ...
ROW 66 : ... .. 6 ... : ... .. 6 ... : ... .. . ... : ... .. . ... : ... .. . ... : C-1 04 . ... : ... .. . ... : ... .. . ...
ROW 67 : ... .. 7 ... : ... .. 7 ... : ... .. . ... : ... .. . ... : ... .. . ... : ... .. . ... : ... .. . ... : ... .. . ...
ROW 68 : ... .. 8 ... : ... .. 8 ... : C-2 0E . ... : ... .. . ... : ... .. . ... : C-2 04 . ... : ... .. . ... : ... .. . ...
ROW 69 : ... .. 9 ... : ... .. 9 ... : ... .. . ... : ... .. . ... : ... .. . ... : ... .. . ... : ... .. . ... : ... .. . ...
ROW 6A : ... .. A ... : ... .. A ... : ... .. . ... : ... .. . ... : ... .. . ... : ... .. . ... : ... .. . ... : ... .. . ...
ROW 6B : ... .. B ... : ... .. B ... : ... .. . ... : ... .. . ... : ... .. . ... : ... .. . ... : ... .. . ... : ... .. . ...
ROW 6C : ... .. C ... : ... .. C ... : ... .. . ... : ... .. . ... : ... .. . ... : C-1 04 . ... : ... .. . ... : ... .. . ...
ROW 6D : ... .. D ... : ... .. D ... : ... .. . ... : ... .. . ... : ... .. . ... : ... .. . ... : ... .. . ... : ... .. . ...
ROW 6E : ... .. E ... : ... .. E ... : ... .. . ... : ... .. . ... : ... .. . ... : C-1 04 . ... : ... .. . ... : ... .. . ...
ROW 6F : ... .. F ... : ... .. F ... : ... .. . ... : ... .. . ... : ... .. . ... : ... .. . ... : ... .. . ... : ... .. . ...
ROW 70 : ... .. E ... : ... .. E ... : ... .. . ... : === .. . ... : ... .. . ... : C-1 04 . ... : ... .. . ... : ... .. . ...
ROW 71 : ... .. D ... : ... .. D ... : ... .. . ... : ... .. . ... : ... .. . ... : ... .. . ... : ... .. . ... : ... .. . ...
ROW 72 : ... .. C ... : ... .. C ... : ... .. . ... : ... .. . ... : ... .. . ... : ... .. . ... : ... .. . ... : ... .. . ...
ROW 73 : ... .. B ... : ... .. B ... : ... .. . ... : ... .. . ... : ... .. . ... : ... .. . ... : ... .. . ... : ... .. . ...
ROW 74 : ... .. A ... : ... .. A ... : ... .. . ... : ... .. . ... : ... .. . ... : C-1 04 . ... : ... .. . ... : ... .. . ...
ROW 75 : ... .. 9 ... : ... .. 9 ... : ... .. . ... : ... .. . ... : ... .. . ... : ... .. . ... : ... .. . ... : ... .. . ...
ROW 76 : ... .. 8 ... : ... .. 8 ... : ... .. . ... : ... .. . ... : ... .. . ... : C-1 04 . ... : ... .. . ... : ... .. . ...
ROW 77 : ... .. 7 ... : ... .. 7 ... : ... .. . ... : ... .. . ... : ... .. . ... : ... .. . ... : ... .. . ... : ... .. . ...
ROW 78 : ... .. 6 ... : ... .. 6 ... : C-1 0E . ... : ... .. . ... : ... .. . ... : C-2 04 . ... : ... .. . ... : ... .. . ...
ROW 79 : ... .. 5 ... : ... .. 5 ... : ... .. . ... : ... .. . ... : ... .. . ... : ... .. . ... : ... .. . ... : ... .. . ...
ROW 7A : ... .. 4 ... : ... .. 4 ... : ... .. . ... : ... .. . ... : ... .. . ... : ... .. . ... : ... .. . ... : ... .. . ...
ROW 7B : ... .. 3 ... : ... .. 3 ... : ... .. . ... : ... .. . ... : ... .. . ... : ... .. . ... : ... .. . ... : ... .. . ...
ROW 7C : ... .. 2 ... : ... .. 2 ... : ... .. . ... : ... .. . ... : ... .. . ... : C-1 04 . ... : ... .. . ... : ... .. . ...
ROW 7D : ... .. 1 ... : ... .. 1 ... : ... .. . ... : ... .. . ... : ... .. . ... : ... .. . ... : ... .. . ... : ... .. . ...
ROW 7E : ... .. 0 ... : ... .. 0 ... : ... .. . ... : ... .. . ... : ... .. . ... : C-1 04 . ... : ... .. . ... : ... .. . ...
ROW 7F : ... .. . ... : ... .. . ... : ... .. . ... : ... .. . ... : ... .. . ... : ... .. . ... : ... .. . ... : ... .. . ...

PATTERN 02
ROW 00 : C-3 00 0 ... : D#3 00 0 ... : --- .. . ... : 4-# 06 4 ... : ... .. . ... : C-1 04 8 ... : C-2 04 . ... : D#2 04 . ...
ROW 01 : ... .. 1 ... : ... .. 1 ... : ... .. . ... : ... .. . ... : ... .. . ... : ... .. . ... : ... .. . ... : ... .. . ...
ROW 02 : ... .. 2 ... : ... .. 2 ... : ... .. . ... : ... .. . ... : ... .. . ... : ... .. . ... : ... .. . ... : ... .. . ...
ROW 03 : ... .. 3 ... : ... .. 3 ... : ... .. . ... : ... .. . ... : ... .. . ... : ... .. . ... : ... .. . ... : ... .. . ...
ROW 04 : ... .. 4 ... : ... .. 4 ... : ... .. . ... : ... .. . ... : ... .. . ... : C-1 04 . ... : ... .. . ... : ... .. . ...
ROW 05 : ... .. 5 ... : ... .. 5 ... : ... .. . ... : ... .. . ... : ... .. . ... : ... .. . ... : ... .. . ... : ... .. . ...
ROW 06 : ... .. 6 ... : ... .. 6 ... : ... .. . ... : ... .. . ... : ... .. . ... : C-1 04 . ... : ... .. . ... : ... .. . ...
ROW 07 : ... .. 7 ... : ... .. 7 ... : ... .. . ... : ... .. . ... : ... .. . ... : ... .. . ... : ... .. . ... : ... .. . ...
ROW 08 : ... .. 8 ... : ... .. 8 ... : C-2 0E . ... : ... .. . ... : ... .. . ... : C-2 04 . ... : ... .. . ... : ... .. . ...
ROW 09 : ... .. 9 ... : ... .. 9 ... : ... .. . ... : ... .. . ... : ... .. . ... : ... .. . ... : ... .. . ... : ... .. . ...
ROW 0A : ... .. A ... : ... .. A ... : ... .. . ... : ... .. . ... : ... .. . ... : ... .. . ... : ... .. . ... : ... .. . ...
ROW 0B : ... .. B ... : ... .. B ... : ... .. . ... : ... .. . ... : ... .. . ... : ... .. . ... : ... .. . ... : ... .. . ...
ROW 0C : ... .. C ... : ... .. C ... : ... .. . ... : ... .. . ... : ... .. . ... : C-1 04 . ... : ... .. . ... : ... .. . ...
ROW 0D : ... .. D ... : ... .. D ... : ... .. . ... : ... .. . ... : ... .. . ... : ... .. . ... : ... .. . ... : ... .. . ...
ROW 0E : ... .. E ... : ... .. E ... : ... .. . ... : ... .. . ... : ... .. . ... : C-1 04 . ... : ... .. . ... : ... .. . ...
ROW 0F : ... .. F ... : ... .. F ... : ... .. . ... : ... .. . ... : ... .. . ... : ... .. . ... : ... .. . ... : ... .. . ...
ROW 10 : ... .. E ... : ... .. E ... : ... .. . ... : === .. . ... : ... .. . ... : C-1 04 . ... : ... .. . ... : ... .. . ...
ROW 11 : ... .. D ... : ... .. D ... : ... .. . ... : ... .. . ... : ... .. . ... : ... .. . ... : ... .. . ... : ... .. . ...
ROW 12 : ... .. C ... : ... .. C ... : ... .. . ... : ... .. . ... : ... .. . ... : ... .. . ... : ... .. . ... : ... .. . ...
ROW 13 : ... .. B ... : ... .. B ... : ... .. . ... : ... .. . ... : ... .. . ... : ... .. . ... : ... .. . ... : ... .. . ...
ROW 14 : ... .. A ... : ... .. A ... : ... .. . ... : ... .. . ... : ... .. . ... : C-1 04 . ... : ... .. . ... : ... .. . ...
ROW 15 : ... .. 9 ... : ... .. 9 ... : ... .. . ... : ... .. . ... : ... .. . ... : ... .. . ... : ... .. . ... : ... .. . ...
ROW 16 : ... .. 8 ... : ... .. 8 ... : ... .. . ... : ... .. . ... : ... .. . ... : C-1 04 . ... : ... .. . ... : ... .. . ...
ROW 17 : ... .. 7 ... : ... .. 7 ... : ... .. . ... : ... .. . ... : ... .. . ... : ... .. . ... : ... .. . ... : ... .. . ...
ROW 18 : ... .. 6 ... : ... .. 6 ... : C-1 0E . ... : ... .. . ... : ... .. . ... : C-2 04 . ... : ... .. . ... : ... .. . ...
ROW 19 : ... .. 5 ... : ... .. 5 ... : ... .. . ... : ... .. . ... : ... .. . ... : ... .. . ... : ... .. . ... : ... .. . ...
ROW 1A : ... .. 4 ... : ... .. 4 ... : ... .. . ... : ... .. . ... : ... .. . ... : ... .. . ... : ... .. . ... : ... .. . ...
ROW 1B : ... .. 3 ... : ... .. 3 ... : ... .. . ... : ... .. . ... : ... .. . ... : ... .. . ... : ... .. . ... : ... .. . ...
ROW 1C : ... .. 2 ... : ... .. 2 ... : ... .. . ... : ... .. . ... : ... .. . ... : C-1 04 . ... : ... .. . ... : ... .. . ...
ROW 1D : ... .. 1 ... : ... .. 1 ... : ... .. . ... : ... .. . ... : ... .. . ... : ... .. . ... : ... .. . ... : ... .. . ...
ROW 1E : ... .. 0 ... : ... .. 0 ... : ... .. . ... : ... .. . ... : ... .. . ... : C-1 04 . ... : ... .. . ... : ... .. . ...
ROW 1F : ... .. . ... : ... .. . ... : ... .. . ... : ... .. . ... : ... .. . ... : ... .. . ... : ... .. . ... : ... .. . ...
ROW 20 : D#3 00 0 ... : G-3 00 0 ... : ... .. . ... : 5-# 06 . ... : ... .. . ... : C-1 04 . ... : D#2 04 . ... : G-2 04 . ...
ROW 21 : ... .. 1 ... : ... .. 1 ... : ... .. . ... : ... .. . ... : ... .. . ... : ... .. . ... : ... .. . ... : ... .. . ...
ROW 22 : ... .. 2 ... : ... .. 2 ... : ... .. . ... : ... .. . ... : ... .. . ... : ... .. . ... : ... .. . ... : ... .. . ...
ROW 23 : ... .. 3 ... : ... .. 3 ... : ... .. . ... : ... .. . ... : ... .. . ... : ... .. . ... : ... .. . ... : ... .. . ...
ROW 24 : ... .. 4 ... : ... .. 4 ... : ... .. . ... : ... .. . ... : ... .. . ... : C-1 04 . ... : ... .. . ... : ... .. . ...
ROW 25 : ... .. 5 ... : ... .. 5 ... : ... .. . ... : ... .. . ... : ... .. . ... : ... .. . ... : ... .. . ... : ... .. . ...
ROW 26 : ... .. 6 ... : ... .. 6 ... : ... .. . ... : ... .. . ... : ... .. . ... : C-1 04 . ... : ... .. . ... : ... .. . ...
ROW 27 : ... .. 7 ... : ... .. 7 ... : ... .. . ... : ... .. . ... : ... .. . ... : ... .. . ... : ... .. . ... : ... .. . ...
ROW 28 : ... .. 8 ... : ... .. 8 ... : C-2 0E . ... : ... .. . ... : ... .. . ... : C-2 04 . ... : ... .. . ... : ... .. . ...
ROW 29 : ... .. 9 ... : ... .. 9 ... : ... .. . ... : ... .. . ... : ... .. . ... : ... .. . ... : ... .. . ... : ... .. . ...
ROW 2A : ... .. A ... : ... .. A ... : ... .. . ... : ... .. . ... : ... .. . ... : ... .. . ... : ... .. . ... : ... .. . ...
ROW 2B : ... .. B ... : ... .. B ... : ... .. . ... : ... .. . ... : ... .. . ... : ... .. . ... : ... .. . ... : ... .. . ...
ROW 2C : ... .. C ... : ... .. C ... : ... .. . ... : ... .. . ... : ... .. . ... : C-1 04 . ... : ... .. . ... : ... .. . ...
ROW 2D : ... .. D ... : ... .. D ... : ... .. . ... : ... .. . ... : ... .. . ... : ... .. . ... : ... .. . ... : ... .. . ...
ROW 2E : ... .. E ... : ... .. E ... : ... .. . ... : ... .. . ... : ... .. . ... : C-1 04 . ... : ... .. . ... : ... .. . ...
ROW 2F : ... .. F ... : ... .. F ... : ... .. . ... : ... .. . ... : ... .. . ... : ... .. . ... : ... .. . ... : ... .. . ...
ROW 30 : ... .. E ... : ... .. E ... : ... .. . ... : === .. . ... : ... .. . ... : C-1 04 . ... : ... .. . ... : ... .. . ...
ROW 31 : ... .. D ... : ... .. D ... : ... .. . ... : ... .. . ... : ... .. . ... : ... .. . ... : ... .. . ... : ... .. . ...
ROW 32 : ... .. C ... : ... .. C ... : ... .. . ... : ... .. . ... : ... .. . ... : ... .. . ... : ... .. . ... : ... .. . ...
ROW 33 : ... .. B ... : ... .. B ... : ... .. . ... : ... .. . ... : ... .. . ... : ... .. . ... : ... .. . ... : ... .. . ...
ROW 34 : ... .. A ... : ... .. A ... : ... .. . ... : ... .. . ... : ... .. . ... : C-1 04 . ... : ... .. . ... : ... .. . ...
ROW 35 : ... .. 9 ... : ... .. 9 ... : ... .. . ... : ... .. . ... : ... .. . ... : ... .. . ... : ... .. . ... : ... .. . ...
ROW 36 : ... .. 8 ... : ... .. 8 ... : ... .. . ... : ... .. . ... : ... .. . ... : C-1 04 . ... : ... .. . ... : ... .. . ...
ROW 37 : ... .. 7 ... : ... .. 7 ... : ... .. . ... : ... .. . ... : ... .. . ... : ... .. . ... : ... .. . ... : ... .. . ...
ROW 38 : ... .. 6 ... : ... .. 6 ... : C-1 0E . ... : ... .. . ... : ... .. . ... : C-2 04 . ... : ... .. . ... : ... .. . ...
ROW 39 : ... .. 5 ... : ... .. 5 ... : ... .. . ... : ... .. . ... : ... .. . ... : ... .. . ... : ... .. . ... : ... .. . ...
ROW 3A : ... .. 4 ... : ... .. 4 ... : ... .. . ... : ... .. . ... : ... .. . ... : ... .. . ... : ... .. . ... : ... .. . ...
ROW 3B : ... .. 3 ... : ... .. 3 ... : ... .. . ... : ... .. . ... : ... .. . ... : ... .. . ... : ... .. . ... : ... .. . ...
ROW 3C : ... .. 2 ... : ... .. 2 ... : ... .. . ... : ... .. . ... : ... .. . ... : C-1 04 . ... : ... .. . ... : ... .. . ...
ROW 3D : ... .. 1 ... : ... .. 1 ... : ... .. . ... : ... .. . ... : ... .. . ... : ... .. . ... : ... .. . ... : ... .. . ...
ROW 3E : ... .. 0 ... : ... .. 0 ... : ... .. . ... : ... .. . ... : ... .. . ... : C-1 04 . ... : ... .. . ... : ... .. . ...
ROW 3F : ... .. . ... : ... .. . ... : ... .. . ... : ... .. . ... : ... .. . ... : ... .. . ... : ... .. . ... : ... .. . ...
ROW 40 : C-3 00 0 ... : F-3 00 0 ... : ... .. . ... : 4-# 06 . ... : ... .. . ... : C-1 04 . ... : C-2 04 . ... : F-2 04 . ...
ROW 41 : ... .. 1 ... : ... .. 1 ... : ... .. . ... : ... .. . ... : ... .. . ... : ... .. . ... : ... .. . ... : ... .. . ...
ROW 42 : ... .. 2 ... : ... .. 2 ... : ... .. . ... : ... .. . ... : ... .. . ... : ... .. . ... : ... .. . ... : ... .. . ...
ROW 43 : ... .. 3 ... : ... .. 3 ... : ... .. . ... : ... .. . ... : ... .. . ... : ... .. . ... : ... .. . ... : ... .. . ...
ROW 44 : ... .. 4 ... : ... .. 4 ... : ... .. . ... : ... .. . ... : ... .. . ... : C-1 04 . ... : ... .. . ... : ... .. . ...
ROW 45 : ... .. 5 ... : ... .. 5 ... : ... .. . ... : ... .. . ... : ... .. . ... : ... .. . ... : ... .. . ... : ... .. . ...
ROW 46 : ... .. 6 ... : ... .. 6 ... : ... .. . ... : ... .. . ... : ... .. . ... : C-1 04 . ... : ... .. . ... : ... .. . ...
ROW 47 : ... .. 7 ... : ... .. 7 ... : ... .. . ... : ... .. . ... : ... .. . ... : ... .. . ... : ... .. . ... : ... .. . ...
ROW 48 : ... .. 8 ... : ... .. 8 ... : C-2 0E . ... : ... .. . ... : ... .. . ... : C-2 04 . ... : ... .. . ... : ... .. . ...
ROW 49 : ... .. 9 ... : ... .. 9 ... : ... .. . ... : ... .. . ... : ... .. . ... : ... .. . ... : ... .. . ... : ... .. . ...
ROW 4A : ... .. A ... : ... .. A ... : ... .. . ... : ... .. . ... : ... .. . ... : ... .. . ... : ... .. . ... : ... .. . ...
ROW 4B : ... .. B ... : ... .. B ... : ... .. . ... : ... .. . ... : ... .. . ... : ... .. . ... : ... .. . ... : ... .. . ...
ROW 4C : ... .. C ... : ... .. C ... : ... .. . ... : ... .. . ... : ... .. . ... : C-1 04 . ... : ... .. . ... : ... .. . ...
ROW 4D : ... .. D ... : ... .. D ... : ... .. . ... : ... .. . ... : ... .. . ... : ... .. . ... : ... .. . ... : ... .. . ...
ROW 4E : ... .. E ... : ... .. E ... : ... .. . ... : ... .. . ... : ... .. . ... : C-1 04 . ... : ... .. . ... : ... .. . ...
ROW 4F : ... .. F ... : ... .. F ... : ... .. . ... : ... .. . ... : ... .. . ... : ... .. . ... : ... .. . ... : ... .. . ...
ROW 50 : ... .. E ... : ... .. E ... : ... .. . ... : === .. . ... : ... .. . ... : C-1 04 . ... : ... .. . ... : ... .. . ...
ROW 51 : ... .. D ... : ... .. D ... : ... .. . ... : ... .. . ... : ... .. . ... : ... .. . ... : ... .. . ... : ... .. . ...
ROW 52 : ... .. C ... : ... .. C ... : ... .. . ... : ... .. . ... : ... .. . ... : ... .. . ... : ... .. . ... : ... .. . ...
ROW 53 : ... .. B ... : ... .. B ... : ... .. . ... : ... .. . ... : ... .. . ... : ... .. . ... : ... .. . ... : ... .. . ...
ROW 54 : ... .. A ... : ... .. A ... : ... .. . ... : ... .. . ... : ... .. . ... : C-1 04 . ... : ... .. . ... : ... .. . ...
ROW 55 : ... .. 9 ... : ... .. 9 ... : ... .. . ... : ... .. . ... : ... .. . ... : ... .. . ... : ... .. . ... : ... .. . ...
ROW 56 : ... .. 8 ... : ... .. 8 ... : ... .. . ... : ... .. . ... : ... .. . ... : C-1 04 . ... : ... .. . ... : ... .. . ...
ROW 57 : ... .. 7 ... : ... .. 7 ... : ... .. . ... : ... .. . ... : ... .. . ... : ... .. . ... : ... .. . ... : ... .. . ...
ROW 58 : ... .. 6 ... : ... .. 6 ... : C-1 0E . ... : ... .. . ... : ... .. . ... : C-2 04 . ... : ... .. . ... : ... .. . ...
ROW 59 : ... .. 5 ... : ... .. 5 ... : ... .. . ... : ... .. . ... : ... .. . ... : ... .. . ... : ... .. . ... : ... .. . ...
ROW 5A : ... .. 4 ... : ... .. 4 ... : ... .. . ... : ... .. . ... : ... .. . ... : ... .. . ... : ... .. . ... : ... .. . ...
ROW 5B : ... .. 3 ... : ... .. 3 ... : ... .. . ... : ... .. . ... : ... .. . ... : ... .. . ... : ... .. . ... : ... .. . ...
ROW 5C : ... .. 2 ... : ... .. 2 ... : ... .. . ... : ... .. . ... : ... .. . ... : C-1 04 . ... : ... .. . ... : ... .. . ...
ROW 5D : ... .. 1 ... : ... .. 1 ... : ... .. . ... : ... .. . ... : ... .. . ... : ... .. . ... : ... .. . ... : ... .. . ...
ROW 5E : ... .. 0 ... : ... .. 0 ... : ... .. . ... : ... .. . ... : ... .. . ... : C-1 04 . ... : ... .. . ... : ... .. . ...
ROW 5F : ... .. . ... : ... .. . ... : ... .. . ... : ... .. . ... : ... .. . ... : ... .. . ... : ... .. . ... : ... .. . ...
ROW 60 : F-3 00 0 ... : G-3 00 0 ... : ... .. . ... : 5-# 06 . ... : ... .. . ... : C-1 04 . ... : F-2 04 . ... : G-2 04 . ...
ROW 61 : ... .. 1 ... : ... .. 1 ... : ... .. . ... : ... .. . ... : ... .. . ... : ... .. . ... : ... .. . ... : ... .. . ...
ROW 62 : ... .. 2 ... : ... .. 2 ... : ... .. . ... : ... .. . ... : ... .. . ... : ... .. . ... : ... .. . ... : ... .. . ...
ROW 63 : ... .. 3 ... : ... .. 3 ... : ... .. . ... : ... .. . ... : ... .. . ... : ... .. . ... : ... .. . ... : ... .. . ...
ROW 64 : ... .. 4 ... : ... .. 4 ... : ... .. . ... : ... .. . ... : ... .. . ... : C-1 04 . ... : ... .. . ... : ... .. . ...
ROW 65 : ... .. 5 ... : ... .. 5 ... : ... .. . ... : ... .. . ... : ... .. . ... : ... .. . ... : ... .. . ... : ... .. . ...
ROW 66 : ... .. 6 ... : ... .. 6 ... : ... .. . ... : ... .. . ... : ... .. . ... : C-1 04 . ... : ... .. . ... : ... .. . ...
ROW 67 : ... .. 7 ... : ... .. 7 ... : ... .. . ... : ... .. . ... : ... .. . ... : ... .. . ... : ... .. . ... : ... .. . ...
ROW 68 : ... .. 8 ... : ... .. 8 ... : C-2 0E . ... : ... .. . ... : ... .. . ... : C-2 04 . ... : ... .. . ... : ... .. . ...
ROW 69 : ... .. 9 ... : ... .. 9 ... : ... .. . ... : ... .. . ... : ... .. . ... : ... .. . ... : ... .. . ... : ... .. . ...
ROW 6A : ... .. A ... : ... .. A ... : ... .. . ... : ... .. . ... : ... .. . ... : ... .. . ... : ... .. . ... : ... .. . ...
ROW 6B : ... .. B ... : ... .. B ... : ... .. . ... : ... .. . ... : ... .. . ... : ... .. . ... : ... .. . ... : ... .. . ...
ROW 6C : ... .. C ... : ... .. C ... : ... .. . ... : ... .. . ... : ... .. . ... : C-1 04 . ... : ... .. . ... : ... .. . ...
ROW 6D : ... .. D ... : ... .. D ... : ... .. . ... : ... .. . ... : ... .. . ... : ... .. . ... : ... .. . ... : ... .. . ...
ROW 6E : ... .. E ... : ... .. E ... : ... .. . ... : ... .. . ... : ... .. . ... : C-1 04 . ... : ... .. . ... : ... .. . ...
ROW 6F : ... .. F ... : ... .. F ... : ... .. . ... : ... .. . ... : ... .. . ... : ... .. . ... : ... .. . ... : ... .. . ...
ROW 70 : ... .. E ... : ... .. E ... : ... .. . ... : 6-# 03 3 ... : ... .. . ... : C-1 04 . ... : C-2 01 1 ... : C#2 01 1 ...
ROW 71 : ... .. D ... : ... .. D ... : ... .. . ... : ... .. . ... : ... .. . ... : ... .. . ... : ... .. 2 ... : ... .. 2 ...
ROW 72 : ... .. C ... : ... .. C ... : ... .. . ... : ... .. . ... : ... .. . ... : ... .. . ... : ... .. 3 ... : ... .. 3 ...
ROW 73 : ... .. B ... : ... .. B ... : ... .. . ... : ... .. . ... : ... .. . ... : ... .. . ... : ... .. 4 ... : ... .. 4 ...
ROW 74 : ... .. A ... : ... .. A ... : ... .. . ... : 5-# 03 5 ... : ... .. . ... : C-1 04 . ... : ... .. 5 ... : ... .. 5 ...
ROW 75 : ... .. 9 ... : ... .. 9 ... : ... .. . ... : ... .. . ... : ... .. . ... : ... .. . ... : ... .. 6 ... : ... .. 6 ...
ROW 76 : ... .. 8 ... : ... .. 8 ... : ... .. . ... : 5-# 03 7 ... : ... .. . ... : C-1 04 . ... : ... .. 7 ... : ... .. 7 ...
ROW 77 : ... .. 7 ... : ... .. 7 ... : ... .. . ... : ... .. . ... : ... .. . ... : ... .. . ... : ... .. 8 ... : ... .. 8 ...
ROW 78 : ... .. 6 ... : ... .. 6 ... : C-1 0E . ... : 5-# 03 9 ... : ... .. . ... : C-2 04 . ... : ... .. 9 ... : ... .. 9 ...
ROW 79 : ... .. 5 ... : ... .. 5 ... : ... .. . ... : ... .. . ... : ... .. . ... : ... .. . ... : ... .. A ... : ... .. A ...
ROW 7A : ... .. 4 ... : ... .. 4 ... : ... .. . ... : ... .. . ... : ... .. . ... : ... .. . ... : ... .. B ... : ... .. B ...
ROW 7B : ... .. 3 ... : ... .. 3 ... : ... .. . ... : ... .. . ... : ... .. . ... : ... .. . ... : ... .. C ... : ... .. C ...
ROW 7C : ... .. 2 ... : ... .. 2 ... : ... .. . ... : 4-# 03 A ... : ... .. . ... : C-1 04 . ... : ... .. D ... : ... .. D ...
ROW 7D : ... .. 1 ... : ... .. 1 ... : ... .. . ... : ... .. . ... : ... .. . ... : ... .. . ... : ... .. E ... : ... .. E ...
ROW 7E : ... .. 0 ... : ... .. 0 ... : ... .. . ... : ... .. . ... : ... .. . ... : C-1 04 . ... : ... .. F ... : ... .. F ...
ROW 7F : ... .. . ... : ... .. . ... : ... .. . ... : ... .. . ... : ... .. . ... : ... .. . ... : ... .. . ... : ... .. . ...

PATTERN 03
ROW 00 : C-3 00 0 ... : D#3 00 0 ... : --- .. . ... : 9-# 03 4 ... : ... .. . ... : C-1 04 8 ... : D#3 09 F ... : C-2 04 . ...
ROW 01 : ... .. 1 ... : ... .. 1 ... : ... .. . ... : ... .. . ... : ... .. . ... : ... .. . ... : ... .. . ... : ... .. . ...
ROW 02 : ... .. 2 ... : ... .. 2 ... : ... .. . ... : 9-# 03 . ... : ... .. . ... : ... .. . ... : D-3 09 C ... : ... .. . ...
ROW 03 : ... .. 3 ... : ... .. 3 ... : ... .. . ... : ... .. . ... : ... .. . ... : ... .. . ... : ... .. . ... : ... .. . ...
ROW 04 : ... .. 4 ... : ... .. 4 ... : ... .. . ... : ... .. . ... : ... .. . ... : C-1 04 . ... : C-3 09 A ... : ... .. . ...
ROW 05 : ... .. 5 ... : ... .. 5 ... : ... .. . ... : ... .. . ... : ... .. . ... : ... .. . ... : ... .. . ... : ... .. . ...
ROW 06 : ... .. 6 ... : ... .. 6 ... : ... .. . ... : 9-# 03 . ... : ... .. . ... : C-1 04 . ... : D#3 09 9 ... : ... .. . ...
ROW 07 : ... .. 7 ... : ... .. 7 ... : ... .. . ... : ... .. . ... : ... .. . ... : ... .. . ... : ... .. . ... : ... .. . ...
ROW 08 : ... .. 8 ... : ... .. 8 ... : C-2 0E . ... : 4-# 03 8 ... : ... .. . ... : C-2 04 . ... : D-3 09 F ... : ... .. . ...
ROW 09 : ... .. 9 ... : ... .. 9 ... : ... .. . ... : ... .. . ... : ... .. . ... : ... .. . ... : ... .. . ... : ... .. . ...
ROW 0A : ... .. A ... : ... .. A ... : ... .. . ... : ... .. . ... : ... .. . ... : ... .. . ... : C-3 09 C ... : ... .. . ...
ROW 0B : ... .. B ... : ... .. B ... : ... .. . ... : ... .. . ... : ... .. . ... : ... .. . ... : ... .. . ... : ... .. . ...
ROW 0C : ... .. C ... : ... .. C ... : ... .. . ... : 9-# 03 4 ... : ... .. . ... : C-1 04 . ... : D#3 09 A ... : ... .. . ...
ROW 0D : ... .. D ... : ... .. D ... : ... .. . ... : ... .. . ... : ... .. . ... : ... .. . ... : ... .. . ... : ... .. . ...
ROW 0E : ... .. E ... : ... .. E ... : ... .. . ... : ... .. . ... : ... .. . ... : C-1 04 . ... : D-3 09 9 ... : ... .. . ...
ROW 0F : ... .. F ... : ... .. F ... : ... .. . ... : ... .. . ... : ... .. . ... : ... .. . ... : ... .. . ... : ... .. . ...
ROW 10 : ... .. E ... : ... .. E ... : ... .. . ... : 9-# 03 4 ... : ... .. . ... : C-1 04 . ... : C-3 09 F ... : ... .. . ...
ROW 11 : ... .. D ... : ... .. D ... : ... .. . ... : ... .. . ... : ... .. . ... : ... .. . ... : ... .. . ... : ... .. . ...
ROW 12 : ... .. C ... : ... .. C ... : ... .. . ... : ... .. . ... : ... .. . ... : ... .. . ... : D#3 09 C ... : ... .. . ...
ROW 13 : ... .. B ... : ... .. B ... : ... .. . ... : ... .. . ... : ... .. . ... : ... .. . ... : ... .. . ... : ... .. . ...
ROW 14 : ... .. A ... : ... .. A ... : ... .. . ... : 9-# 03 . ... : ... .. . ... : C-1 04 . ... : D-3 09 A ... : ... .. . ...
ROW 15 : ... .. 9 ... : ... .. 9 ... : ... .. . ... : ... .. . ... : ... .. . ... : ... .. . ... : ... .. . ... : ... .. . ...
ROW 16 : ... .. 8 ... : ... .. 8 ... : ... .. . ... : ... .. . ... : ... .. . ... : C-1 04 . ... : C-3 09 9 ... : ... .. . ...
ROW 17 : ... .. 7 ... : ... .. 7 ... : ... .. . ... : ... .. . ... : ... .. . ... : ... .. . ... : ... .. . ... : ... .. . ...
ROW 18 : ... .. 6 ... : ... .. 6 ... : C-2 0E . ... : 4-# 03 8 ... : ... .. . ... : C-2 04 . ... : D#3 09 F ... : ... .. . ...
ROW 19 : ... .. 5 ... : ... .. 5 ... : ... .. . ... : ... .. . ... : ... .. . ... : ... .. . ... : ... .. . ... : ... .. . ...
ROW 1A : ... .. 4 ... : ... .. 4 ... : ... .. . ... : ... .. . ... : ... .. . ... : ... .. . ... : D-3 09 C ... : ... .. . ...
ROW 1B : ... .. 3 ... : ... .. 3 ... : ... .. . ... : ... .. . ... : ... .. . ... : ... .. . ... : ... .. . ... : ... .. . ...
ROW 1C : ... .. 2 ... : ... .. 2 ... : ... .. . ... : ... .. . ... : ... .. . ... : C-1 04 . ... : C-3 09 A ... : ... .. . ...
ROW 1D : ... .. 1 ... : ... .. 1 ... : ... .. . ... : ... .. . ... : ... .. . ... : ... .. . ... : ... .. . ... : ... .. . ...
ROW 1E : ... .. 0 ... : ... .. 0 ... : ... .. . ... : 9-# 03 4 ... : ... .. . ... : C-1 04 . ... : D#3 09 9 ... : ... .. . ...
ROW 1F : ... .. . ... : ... .. . ... : ... .. . ... : ... .. . ... : ... .. . ... : ... .. . ... : ... .. . ... : ... .. . ...
ROW 20 : ... .. . ... : ... .. . ... : ... .. . ... : 9-# 03 4 ... : ... .. . ... : C-1 04 . ... : D-3 09 F ... : ... .. . ...
ROW 21 : ... .. . ... : ... .. . ... : ... .. . ... : ... .. . ... : ... .. . ... : ... .. . ... : ... .. . ... : ... .. . ...
ROW 22 : ... .. . ... : ... .. . ... : ... .. . ... : 9-# 03 . ... : ... .. . ... : ... .. . ... : C-3 09 C ... : ... .. . ...
ROW 23 : ... .. . ... : ... .. . ... : ... .. . ... : ... .. . ... : ... .. . ... : ... .. . ... : ... .. . ... : ... .. . ...
ROW 24 : ... .. . ... : ... .. . ... : ... .. . ... : ... .. . ... : ... .. . ... : C-1 04 . ... : D#3 09 A ... : ... .. . ...
ROW 25 : ... .. . ... : ... .. . ... : ... .. . ... : ... .. . ... : ... .. . ... : ... .. . ... : ... .. . ... : ... .. . ...
ROW 26 : ... .. . ... : ... .. . ... : ... .. . ... : 9-# 03 . ... : ... .. . ... : C-1 04 . ... : D-3 09 9 ... : ... .. . ...
ROW 27 : ... .. . ... : ... .. . ... : ... .. . ... : ... .. . ... : ... .. . ... : ... .. . ... : ... .. . ... : ... .. . ...
ROW 28 : ... .. . ... : ... .. . ... : C-2 0E . ... : 4-# 03 8 ... : ... .. . ... : C-2 04 . ... : C-3 09 F ... : ... .. . ...
ROW 29 : ... .. . ... : ... .. . ... : ... .. . ... : ... .. . ... : ... .. . ... : ... .. . ... : ... .. . ... : ... .. . ...
ROW 2A : ... .. . ... : ... .. . ... : ... .. . ... : ... .. . ... : ... .. . ... : ... .. . ... : D#3 09 C ... : ... .. . ...
ROW 2B : ... .. . ... : ... .. . ... : ... .. . ... : ... .. . ... : ... .. . ... : ... .. . ... : ... .. . ... : ... .. . ...
ROW 2C : ... .. . ... : ... .. . ... : ... .. . ... : 9-# 03 4 ... : ... .. . ... : C-1 04 . ... : D-3 09 A ... : ... .. . ...
ROW 2D : ... .. . ... : ... .. . ... : ... .. . ... : ... .. . ... : ... .. . ... : ... .. . ... : ... .. . ... : ... .. . ...
ROW 2E : ... .. . ... : ... .. . ... : ... .. . ... : ... .. . ... : ... .. . ... : C-1 04 . ... : C-3 09 9 ... : ... .. . ...
ROW 2F : ... .. . ... : ... .. . ... : ... .. . ... : ... .. . ... : ... .. . ... : ... .. . ... : ... .. . ... : ... .. . ...
ROW 30 : ... .. . ... : ... .. . ... : ... .. . ... : 9-# 03 4 ... : ... .. . ... : C-1 04 . ... : D#3 09 F ... : ... .. . ...
ROW 31 : ... .. . ... : ... .. . ... : ... .. . ... : ... .. . ... : ... .. . ... : ... .. . ... : ... .. . ... : ... .. . ...
ROW 32 : ... .. . ... : ... .. . ... : ... .. . ... : ... .. . ... : ... .. . ... : ... .. . ... : D-3 09 C ... : ... .. . ...
ROW 33 : ... .. . ... : ... .. . ... : ... .. . ... : ... .. . ... : ... .. . ... : ... .. . ... : ... .. . ... : ... .. . ...
ROW 34 : ... .. . ... : ... .. . ... : ... .. . ... : 9-# 03 . ... : ... .. . ... : C-1 04 . ... : C-3 09 A ... : ... .. . ...
ROW 35 : ... .. . ... : ... .. . ... : ... .. . ... : ... .. . ... : ... .. . ... : ... .. . ... : ... .. . ... : ... .. . ...
ROW 36 : ... .. . ... : ... .. . ... : ... .. . ... : ... .. . ... : ... .. . ... : C-1 04 . ... : D#3 09 9 ... : ... .. . ...
ROW 37 : ... .. . ... : ... .. . ... : ... .. . ... : ... .. . ... : ... .. . ... : ... .. . ... : ... .. . ... : ... .. . ...
ROW 38 : ... .. . ... : ... .. . ... : C-2 0E . ... : 4-# 03 8 ... : ... .. . ... : C-2 04 . ... : D-3 09 F ... : ... .. . ...
ROW 39 : ... .. . ... : ... .. . ... : ... .. . ... : ... .. . ... : ... .. . ... : ... .. . ... : ... .. . ... : ... .. . ...
ROW 3A : ... .. . ... : ... .. . ... : ... .. . ... : ... .. . ... : ... .. . ... : ... .. . ... : C-3 09 C ... : ... .. . ...
ROW 3B : ... .. . ... : ... .. . ... : ... .. . ... : ... .. . ... : ... .. . ... : ... .. . ... : ... .. . ... : ... .. . ...
ROW 3C : ... .. . ... : ... .. . ... : ... .. . ... : ... .. . ... : ... .. . ... : C-1 04 . ... : D#3 09 A ... : ... .. . ...
ROW 3D : ... .. . ... : ... .. . ... : ... .. . ... : ... .. . ... : ... .. . ... : ... .. . ... : ... .. . ... : ... .. . ...
ROW 3E : ... .. . ... : ... .. . ... : ... .. . ... : 9-# 03 4 ... : ... .. . ... : C-1 04 . ... : D-3 09 9 ... : ... .. . ...
ROW 3F : ... .. . ... : ... .. . ... : ... .. . ... : ... .. . ... : ... .. . ... : ... .. . ... : ... .. . ... : ... .. . ...
ROW 40 : A#2 00 0 ... : F#2 00 0 ... : --- .. . ... : 9-# 03 4 ... : ... .. . ... : A#1 04 . ... : F#3 09 F ... : A#1 04 . ...
ROW 41 : ... .. 1 ... : ... .. 1 ... : ... .. . ... : ... .. . ... : ... .. . ... : ... .. . ... : ... .. . ... : ... .. . ...
ROW 42 : ... .. 2 ... : ... .. 2 ... : ... .. . ... : 9-# 03 . ... : ... .. . ... : ... .. . ... : F-3 09 C ... : ... .. . ...
ROW 43 : ... .. 3 ... : ... .. 3 ... : ... .. . ... : ... .. . ... : ... .. . ... : ... .. . ... : ... .. . ... : ... .. . ...
ROW 44 : ... .. 4 ... : ... .. 4 ... : ... .. . ... : ... .. . ... : ... .. . ... : A#1 04 . ... : D#3 09 A ... : ... .. . ...
ROW 45 : ... .. 5 ... : ... .. 5 ... : ... .. . ... : ... .. . ... : ... .. . ... : ... .. . ... : ... .. . ... : ... .. . ...
ROW 46 : ... .. 6 ... : ... .. 6 ... : ... .. . ... : 9-# 03 . ... : ... .. . ... : A#1 04 . ... : F#3 09 9 ... : ... .. . ...
ROW 47 : ... .. 7 ... : ... .. 7 ... : ... .. . ... : ... .. . ... : ... .. . ... : ... .. . ... : ... .. . ... : ... .. . ...
ROW 48 : ... .. 8 ... : ... .. 8 ... : B-1 0E . ... : 4-# 03 8 ... : ... .. . ... : A#1 04 . ... : F-3 09 F ... : ... .. . ...
ROW 49 : ... .. 9 ... : ... .. 9 ... : ... .. . ... : ... .. . ... : ... .. . ... : ... .. . ... : ... .. . ... : ... .. . ...
ROW 4A : ... .. A ... : ... .. A ... : ... .. . ... : ... .. . ... : ... .. . ... : ... .. . ... : D#3 09 C ... : ... .. . ...
ROW 4B : ... .. B ... : ... .. B ... : ... .. . ... : ... .. . ... : ... .. . ... : ... .. . ... : ... .. . ... : ... .. . ...
ROW 4C : ... .. C ... : ... .. C ... : ... .. . ... : 9-# 03 4 ... : ... .. . ... : A#1 04 . ... : F#3 09 A ... : ... .. . ...
ROW 4D : ... .. D ... : ... .. D ... : ... .. . ... : ... .. . ... : ... .. . ... : ... .. . ... : ... .. . ... : ... .. . ...
ROW 4E : ... .. E ... : ... .. E ... : ... .. . ... : ... .. . ... : ... .. . ... : A#1 04 . ... : F-3 09 9 ... : ... .. . ...
ROW 4F : ... .. F ... : ... .. F ... : ... .. . ... : ... .. . ... : ... .. . ... : ... .. . ... : ... .. . ... : ... .. . ...
ROW 50 : ... .. E ... : ... .. E ... : ... .. . ... : 9-# 03 4 ... : ... .. . ... : A#1 04 . ... : D#3 09 F ... : ... .. . ...
ROW 51 : ... .. D ... : ... .. D ... : ... .. . ... : ... .. . ... : ... .. . ... : ... .. . ... : ... .. . ... : ... .. . ...
ROW 52 : ... .. C ... : ... .. C ... : ... .. . ... : ... .. . ... : ... .. . ... : ... .. . ... : F#3 09 C ... : ... .. . ...
ROW 53 : ... .. B ... : ... .. B ... : ... .. . ... : ... .. . ... : ... .. . ... : ... .. . ... : ... .. . ... : ... .. . ...
ROW 54 : ... .. A ... : ... .. A ... : ... .. . ... : 9-# 03 . ... : ... .. . ... : A#1 04 . ... : F-3 09 A ... : ... .. . ...
ROW 55 : ... .. 9 ... : ... .. 9 ... : ... .. . ... : ... .. . ... : ... .. . ... : ... .. . ... : ... .. . ... : ... .. . ...
ROW 56 : ... .. 8 ... : ... .. 8 ... : ... .. . ... : ... .. . ... : ... .. . ... : A#1 04 . ... : D#3 09 9 ... : ... .. . ...
ROW 57 : ... .. 7 ... : ... .. 7 ... : ... .. . ... : ... .. . ... : ... .. . ... : ... .. . ... : ... .. . ... : ... .. . ...
ROW 58 : ... .. 6 ... : ... .. 6 ... : B-1 0E . ... : 4-# 03 8 ... : ... .. . ... : A#1 04 . ... : F#3 09 F ... : ... .. . ...
ROW 59 : ... .. 5 ... : ... .. 5 ... : ... .. . ... : ... .. . ... : ... .. . ... : ... .. . ... : ... .. . ... : ... .. . ...
ROW 5A : ... .. 4 ... : ... .. 4 ... : ... .. . ... : ... .. . ... : ... .. . ... : ... .. . ... : F-3 09 C ... : ... .. . ...
ROW 5B : ... .. 3 ... : ... .. 3 ... : ... .. . ... : ... .. . ... : ... .. . ... : ... .. . ... : ... .. . ... : ... .. . ...
ROW 5C : ... .. 2 ... : ... .. 2 ... : ... .. . ... : ... .. . ... : ... .. . ... : A#1 04 . ... : D#3 09 A ... : ... .. . ...
ROW 5D : ... .. 1 ... : ... .. 1 ... : ... .. . ... : ... .. . ... : ... .. . ... : ... .. . ... : ... .. . ... : ... .. . ...
ROW 5E : ... .. 0 ... : ... .. 0 ... : ... .. . ... : 9-# 03 4 ... : ... .. . ... : A#1 04 . ... : F#3 09 9 ... : ... .. . ...
ROW 5F : ... .. . ... : ... .. . ... : ... .. . ... : ... .. . ... : ... .. . ... : ... .. . ... : ... .. . ... : ... .. . ...
ROW 60 : ... .. . ... : ... .. . ... : ... .. . ... : 9-# 03 4 ... : ... .. . ... : A#1 04 . ... : F-3 09 F ... : ... .. . ...
ROW 61 : ... .. . ... : ... .. . ... : ... .. . ... : ... .. . ... : ... .. . ... : ... .. . ... : ... .. . ... : ... .. . ...
ROW 62 : ... .. . ... : ... .. . ... : ... .. . ... : 9-# 03 . ... : ... .. . ... : ... .. . ... : D#3 09 C ... : ... .. . ...
ROW 63 : ... .. . ... : ... .. . ... : ... .. . ... : ... .. . ... : ... .. . ... : ... .. . ... : ... .. . ... : ... .. . ...
ROW 64 : ... .. . ... : ... .. . ... : ... .. . ... : ... .. . ... : ... .. . ... : A#1 04 . ... : F#3 09 A ... : ... .. . ...
ROW 65 : ... .. . ... : ... .. . ... : ... .. . ... : ... .. . ... : ... .. . ... : ... .. . ... : ... .. . ... : ... .. . ...
ROW 66 : ... .. . ... : ... .. . ... : ... .. . ... : 9-# 03 . ... : ... .. . ... : A#1 04 . ... : F-3 09 9 ... : ... .. . ...
ROW 67 : ... .. . ... : ... .. . ... : ... .. . ... : ... .. . ... : ... .. . ... : ... .. . ... : ... .. . ... : ... .. . ...
ROW 68 : ... .. . ... : ... .. . ... : B-1 0E . ... : 4-# 03 8 ... : ... .. . ... : A#1 04 . ... : D#3 09 F ... : ... .. . ...
ROW 69 : ... .. . ... : ... .. . ... : ... .. . ... : ... .. . ... : ... .. . ... : ... .. . ... : ... .. . ... : ... .. . ...
ROW 6A : ... .. . ... : ... .. . ... : ... .. . ... : ... .. . ... : ... .. . ... : ... .. . ... : F#3 09 C ... : ... .. . ...
ROW 6B : ... .. . ... : ... .. . ... : ... .. . ... : ... .. . ... : ... .. . ... : ... .. . ... : ... .. . ... : ... .. . ...
ROW 6C : ... .. . ... : ... .. . ... : ... .. . ... : 9-# 03 4 ... : ... .. . ... : A#1 04 . ... : F-3 09 A ... : ... .. . ...
ROW 6D : ... .. . ... : ... .. . ... : ... .. . ... : ... .. . ... : ... .. . ... : ... .. . ... : ... .. . ... : ... .. . ...
ROW 6E : ... .. . ... : ... .. . ... : ... .. . ... : ... .. . ... : ... .. . ... : A#1 04 . ... : D#3 09 9 ... : ... .. . ...
ROW 6F : ... .. . ... : ... .. . ... : ... .. . ... : ... .. . ... : ... .. . ... : ... .. . ... : ... .. . ... : ... .. . ...
ROW 70 : ... .. . ... : ... .. . ... : ... .. . ... : 9-# 03 4 ... : ... .. . ... : A#1 04 . ... : F#3 09 F ... : ... .. . ...
ROW 71 : ... .. . ... : ... .. . ... : ... .. . ... : ... .. . ... : ... .. . ... : ... .. . ... : ... .. . ... : ... .. . ...
ROW 72 : ... .. . ... : ... .. . ... : ... .. . ... : ... .. . ... : ... .. . ... : ... .. . ... : F-3 09 C ... : ... .. . ...
ROW 73 : ... .. . ... : ... .. . ... : ... .. . ... : ... .. . ... : ... .. . ... : ... .. . ... : ... .. . ... : ... .. . ...
ROW 74 : ... .. . ... : ... .. . ... : ... .. . ... : 9-# 03 . ... : ... .. . ... : A#1 04 . ... : D#3 09 A ... : ... .. . ...
ROW 75 : ... .. . ... : ... .. . ... : ... .. . ... : ... .. . ... : ... .. . ... : ... .. . ... : ... .. . ... : ... .. . ...
ROW 76 : ... .. . ... : ... .. . ... : ... .. . ... : ... .. . ... : ... .. . ... : A#1 04 . ... : F#3 09 9 ... : ... .. . ...
ROW 77 : ... .. . ... : ... .. . ... : ... .. . ... : ... .. . ... : ... .. . ... : ... .. . ... : ... .. . ... : ... .. . ...
ROW 78 : ... .. . ... : ... .. . ... : B-1 0E . ... : 4-# 03 8 ... : ... .. . ... : A#1 04 . ... : F-3 09 F ... : ... .. . ...
ROW 79 : ... .. . ... : ... .. . ... : ... .. . ... : ... .. . ... : ... .. . ... : ... .. . ... : ... .. . ... : ... .. . ...
ROW 7A : ... .. . ... : ... .. . ... : ... .. . ... : ... .. . ... : ... .. . ... : ... .. . ... : D#3 09 C ... : ... .. . ...
ROW 7B : ... .. . ... : ... .. . ... : ... .. . ... : ... .. . ... : ... .. . ... : ... .. . ... : ... .. . ... : ... .. . ...
ROW 7C : ... .. . ... : ... .. . ... : ... .. . ... : ... .. . ... : ... .. . ... : A#1 04 . ... : F#3 09 A ... : ... .. . ...
ROW 7D : ... .. . ... : ... .. . ... : ... .. . ... : ... .. . ... : ... .. . ... : ... .. . ... : ... .. . ... : ... .. . ...
ROW 7E : ... .. . ... : ... .. . ... : ... .. . ... : 9-# 03 4 ... : ... .. . ... : A#1 04 . ... : F-3 09 9 ... : ... .. . ...
ROW 7F : ... .. . ... : ... .. . ... : ... .. . ... : ... .. . ... : ... .. . ... : ... .. . ... : ... .. . ... : ... .. . ...

PATTERN 04
ROW 00 : G-2 00 0 ... : C-3 00 0 ... : --- .. . ... : 9-# 03 4 ... : ... .. . ... : C-1 04 8 ... : D#3 09 F ... : G-1 04 . ...
ROW 01 : ... .. 1 ... : ... .. 1 ... : ... .. . ... : ... .. . ... : ... .. . ... : ... .. . ... : ... .. . ... : ... .. . ...
ROW 02 : ... .. 2 ... : ... .. 2 ... : ... .. . ... : 9-# 03 . ... : ... .. . ... : ... .. . ... : D-3 09 C ... : ... .. . ...
ROW 03 : ... .. 3 ... : ... .. 3 ... : ... .. . ... : ... .. . ... : ... .. . ... : ... .. . ... : ... .. . ... : ... .. . ...
ROW 04 : ... .. 4 ... : ... .. 4 ... : ... .. . ... : ... .. . ... : ... .. . ... : C-1 04 . ... : C-3 09 A ... : ... .. . ...
ROW 05 : ... .. 5 ... : ... .. 5 ... : ... .. . ... : ... .. . ... : ... .. . ... : ... .. . ... : ... .. . ... : ... .. . ...
ROW 06 : ... .. 6 ... : ... .. 6 ... : ... .. . ... : 9-# 03 . ... : ... .. . ... : C-1 04 . ... : D#3 09 9 ... : ... .. . ...
ROW 07 : ... .. 7 ... : ... .. 7 ... : ... .. . ... : ... .. . ... : ... .. . ... : ... .. . ... : ... .. . ... : ... .. . ...
ROW 08 : ... .. 8 ... : ... .. 8 ... : C-2 0E . ... : 4-# 03 8 ... : ... .. . ... : C-2 04 . ... : D-3 09 F ... : ... .. . ...
ROW 09 : ... .. 9 ... : ... .. 9 ... : ... .. . ... : ... .. . ... : ... .. . ... : ... .. . ... : ... .. . ... : ... .. . ...
ROW 0A : ... .. A ... : ... .. A ... : ... .. . ... : ... .. . ... : ... .. . ... : ... .. . ... : C-3 09 C ... : ... .. . ...
ROW 0B : ... .. B ... : ... .. B ... : ... .. . ... : ... .. . ... : ... .. . ... : ... .. . ... : ... .. . ... : ... .. . ...
ROW 0C : ... .. C ... : ... .. C ... : ... .. . ... : 9-# 03 4 ... : ... .. . ... : C-1 04 . ... : D#3 09 A ... : ... .. . ...
ROW 0D : ... .. D ... : ... .. D ... : ... .. . ... : ... .. . ... : ... .. . ... : ... .. . ... : ... .. . ... : ... .. . ...
ROW 0E : ... .. E ... : ... .. E ... : ... .. . ... : ... .. . ... : ... .. . ... : C-1 04 . ... : D-3 09 9 ... : ... .. . ...
ROW 0F : ... .. F ... : ... .. F ... : ... .. . ... : ... .. . ... : ... .. . ... : ... .. . ... : ... .. . ... : ... .. . ...
ROW 10 : ... .. E ... : ... .. E ... : ... .. . ... : 9-# 03 4 ... : ... .. . ... : C-1 04 . ... : C-3 09 F ... : ... .. . ...
ROW 11 : ... .. D ... : ... .. D ... : ... .. . ... : ... .. . ... : ... .. . ... : ... .. . ... : ... .. . ... : ... .. . ...
ROW 12 : ... .. C ... : ... .. C ... : ... .. . ... : ... .. . ... : ... .. . ... : ... .. . ... : D#3 09 C ... : ... .. . ...
ROW 13 : ... .. B ... : ... .. B ... : ... .. . ... : ... .. . ... : ... .. . ... : ... .. . ... : ... .. . ... : ... .. . ...
ROW 14 : ... .. A ... : ... .. A ... : ... .. . ... : 9-# 03 . ... : ... .. . ... : C-1 04 . ... : D-3 09 A ... : ... .. . ...
ROW 15 : ... .. 9 ... : ... .. 9 ... : ... .. . ... : ... .. . ... : ... .. . ... : ... .. . ... : ... .. . ... : ... .. . ...
ROW 16 : ... .. 8 ... : ... .. 8 ... : ... .. . ... : ... .. . ... : ... .. . ... : C-1 04 . ... : C-3 09 9 ... : ... .. . ...
ROW 17 : ... .. 7 ... : ... .. 7 ... : ... .. . ... : ... .. . ... : ... .. . ... : ... .. . ... : ... .. . ... : ... .. . ...
ROW 18 : ... .. 6 ... : ... .. 6 ... : C-2 0E . ... : 4-# 03 8 ... : ... .. . ... : C-2 04 . ... : D#3 09 F ... : ... .. . ...
ROW 19 : ... .. 5 ... : ... .. 5 ... : ... .. . ... : ... .. . ... : ... .. . ... : ... .. . ... : ... .. . ... : ... .. . ...
ROW 1A : ... .. 4 ... : ... .. 4 ... : ... .. . ... : ... .. . ... : ... .. . ... : ... .. . ... : D-3 09 C ... : ... .. . ...
ROW 1B : ... .. 3 ... : ... .. 3 ... : ... .. . ... : ... .. . ... : ... .. . ... : ... .. . ... : ... .. . ... : ... .. . ...
ROW 1C : ... .. 2 ... : ... .. 2 ... : ... .. . ... : ... .. . ... : ... .. . ... : C-1 04 . ... : C-3 09 A ... : ... .. . ...
ROW 1D : ... .. 1 ... : ... .. 1 ... : ... .. . ... : ... .. . ... : ... .. . ... : ... .. . ... : ... .. . ... : ... .. . ...
ROW 1E : ... .. 0 ... : ... .. 0 ... : ... .. . ... : 9-# 03 4 ... : ... .. . ... : C-1 04 . ... : D#3 09 9 ... : ... .. . ...
ROW 1F : ... .. . ... : ... .. . ... : ... .. . ... : ... .. . ... : ... .. . ... : ... .. . ... : ... .. . ... : ... .. . ...
ROW 20 : ... .. . ... : ... .. . ... : ... .. . ... : 9-# 03 4 ... : ... .. . ... : C-1 04 . ... : D-3 09 F ... : ... .. . ...
ROW 21 : ... .. . ... : ... .. . ... : ... .. . ... : ... .. . ... : ... .. . ... : ... .. . ... : ... .. . ... : ... .. . ...
ROW 22 : ... .. . ... : ... .. . ... : ... .. . ... : 9-# 03 . ... : ... .. . ... : ... .. . ... : C-3 09 C ... : ... .. . ...
ROW 23 : ... .. . ... : ... .. . ... : ... .. . ... : ... .. . ... : ... .. . ... : ... .. . ... : ... .. . ... : ... .. . ...
ROW 24 : ... .. . ... : ... .. . ... : ... .. . ... : ... .. . ... : ... .. . ... : C-1 04 . ... : D#3 09 A ... : ... .. . ...
ROW 25 : ... .. . ... : ... .. . ... : ... .. . ... : ... .. . ... : ... .. . ... : ... .. . ... : ... .. . ... : ... .. . ...
ROW 26 : ... .. . ... : ... .. . ... : ... .. . ... : 9-# 03 . ... : ... .. . ... : C-1 04 . ... : D-3 09 9 ... : ... .. . ...
ROW 27 : ... .. . ... : ... .. . ... : ... .. . ... : ... .. . ... : ... .. . ... : ... .. . ... : ... .. . ... : ... .. . ...
ROW 28 : ... .. . ... : ... .. . ... : C-2 0E . ... : 4-# 03 8 ... : ... .. . ... : C-2 04 . ... : C-3 09 F ... : ... .. . ...
ROW 29 : ... .. . ... : ... .. . ... : ... .. . ... : ... .. . ... : ... .. . ... : ... .. . ... : ... .. . ... : ... .. . ...
ROW 2A : ... .. . ... : ... .. . ... : ... .. . ... : ... .. . ... : ... .. . ... : ... .. . ... : D#3 09 C ... : ... .. . ...
ROW 2B : ... .. . ... : ... .. . ... : ... .. . ... : ... .. . ... : ... .. . ... : ... .. . ... : ... .. . ... : ... .. . ...
ROW 2C : ... .. . ... : ... .. . ... : ... .. . ... : 9-# 03 4 ... : ... .. . ... : C-1 04 . ... : D-3 09 A ... : ... .. . ...
ROW 2D : ... .. . ... : ... .. . ... : ... .. . ... : ... .. . ... : ... .. . ... : ... .. . ... : ... .. . ... : ... .. . ...
ROW 2E : ... .. . ... : ... .. . ... : ... .. . ... : ... .. . ... : ... .. . ... : C-1 04 . ... : C-3 09 9 ... : ... .. . ...
ROW 2F : ... .. . ... : ... .. . ... : ... .. . ... : ... .. . ... : ... .. . ... : ... .. . ... : ... .. . ... : ... .. . ...
ROW 30 : ... .. . ... : ... .. . ... : ... .. . ... : 9-# 03 4 ... : ... .. . ... : C-1 04 . ... : D#3 09 F ... : ... .. . ...
ROW 31 : ... .. . ... : ... .. . ... : ... .. . ... : ... .. . ... : ... .. . ... : ... .. . ... : ... .. . ... : ... .. . ...
ROW 32 : ... .. . ... : ... .. . ... : ... .. . ... : ... .. . ... : ... .. . ... : ... .. . ... : D-3 09 C ... : ... .. . ...
ROW 33 : ... .. . ... : ... .. . ... : ... .. . ... : ... .. . ... : ... .. . ... : ... .. . ... : ... .. . ... : ... .. . ...
ROW 34 : ... .. . ... : ... .. . ... : ... .. . ... : 9-# 03 . ... : ... .. . ... : C-1 04 . ... : C-3 09 A ... : ... .. . ...
ROW 35 : ... .. . ... : ... .. . ... : ... .. . ... : ... .. . ... : ... .. . ... : ... .. . ... : ... .. . ... : ... .. . ...
ROW 36 : ... .. . ... : ... .. . ... : ... .. . ... : ... .. . ... : ... .. . ... : C-1 04 . ... : D#3 09 9 ... : ... .. . ...
ROW 37 : ... .. . ... : ... .. . ... : ... .. . ... : ... .. . ... : ... .. . ... : ... .. . ... : ... .. . ... : ... .. . ...
ROW 38 : ... .. . ... : ... .. . ... : C-2 0E . ... : 4-# 03 8 ... : ... .. . ... : C-2 04 . ... : D-3 09 F ... : ... .. . ...
ROW 39 : ... .. . ... : ... .. . ... : ... .. . ... : ... .. . ... : ... .. . ... : ... .. . ... : ... .. . ... : ... .. . ...
ROW 3A : ... .. . ... : ... .. . ... : ... .. . ... : ... .. . ... : ... .. . ... : ... .. . ... : C-3 09 C ... : ... .. . ...
ROW 3B : ... .. . ... : ... .. . ... : ... .. . ... : ... .. . ... : ... .. . ... : ... .. . ... : ... .. . ... : ... .. . ...
ROW 3C : ... .. . ... : ... .. . ... : ... .. . ... : ... .. . ... : ... .. . ... : C-1 04 . ... : D#3 09 A ... : ... .. . ...
ROW 3D : ... .. . ... : ... .. . ... : ... .. . ... : ... .. . ... : ... .. . ... : ... .. . ... : ... .. . ... : ... .. . ...
ROW 3E : ... .. . ... : ... .. . ... : ... .. . ... : 9-# 03 4 ... : ... .. . ... : C-1 04 . ... : D-3 09 9 ... : ... .. . ...
ROW 3F : ... .. . ... : ... .. . ... : ... .. . ... : ... .. . ... : ... .. . ... : ... .. . ... : ... .. . ... : ... .. . ...
ROW 40 : F#2 00 0 ... : D#2 00 0 ... : --- .. . ... : 9-# 03 4 ... : ... .. . ... : A#1 04 . ... : F#3 09 F ... : A#1 04 . ...
ROW 41 : ... .. 1 ... : ... .. 1 ... : ... .. . ... : ... .. . ... : ... .. . ... : ... .. . ... : ... .. . ... : ... .. . ...
ROW 42 : ... .. 2 ... : ... .. 2 ... : ... .. . ... : 9-# 03 . ... : ... .. . ... : ... .. . ... : F-3 09 C ... : ... .. . ...
ROW 43 : ... .. 3 ... : ... .. 3 ... : ... .. . ... : ... .. . ... : ... .. . ... : ... .. . ... : ... .. . ... : ... .. . ...
ROW 44 : ... .. 4 ... : ... .. 4 ... : ... .. . ... : ... .. . ... : ... .. . ... : A#1 04 . ... : D#3 09 A ... : ... .. . ...
ROW 45 : ... .. 5 ... : ... .. 5 ... : ... .. . ... : ... .. . ... : ... .. . ... : ... .. . ... : ... .. . ... : ... .. . ...
ROW 46 : ... .. 6 ... : ... .. 6 ... : ... .. . ... : 9-# 03 . ... : ... .. . ... : A#1 04 . ... : F#3 09 9 ... : ... .. . ...
ROW 47 : ... .. 7 ... : ... .. 7 ... : ... .. . ... : ... .. . ... : ... .. . ... : ... .. . ... : ... .. . ... : ... .. . ...
ROW 48 : ... .. 8 ... : ... .. 8 ... : B-1 0E . ... : 4-# 03 8 ... : ... .. . ... : A#1 04 . ... : F-3 09 F ... : ... .. . ...
ROW 49 : ... .. 9 ... : ... .. 9 ... : ... .. . ... : ... .. . ... : ... .. . ... : ... .. . ... : ... .. . ... : ... .. . ...
ROW 4A : ... .. A ... : ... .. A ... : ... .. . ... : ... .. . ... : ... .. . ... : ... .. . ... : D#3 09 C ... : ... .. . ...
ROW 4B : ... .. B ... : ... .. B ... : ... .. . ... : ... .. . ... : ... .. . ... : ... .. . ... : ... .. . ... : ... .. . ...
ROW 4C : ... .. C ... : ... .. C ... : ... .. . ... : 9-# 03 4 ... : ... .. . ... : A#1 04 . ... : F#3 09 A ... : ... .. . ...
ROW 4D : ... .. D ... : ... .. D ... : ... .. . ... : ... .. . ... : ... .. . ... : ... .. . ... : ... .. . ... : ... .. . ...
ROW 4E : ... .. E ... : ... .. E ... : ... .. . ... : ... .. . ... : ... .. . ... : A#1 04 . ... : F-3 09 9 ... : ... .. . ...
ROW 4F : ... .. F ... : ... .. F ... : ... .. . ... : ... .. . ... : ... .. . ... : ... .. . ... : ... .. . ... : ... .. . ...
ROW 50 : ... .. E ... : ... .. E ... : ... .. . ... : 9-# 03 4 ... : ... .. . ... : A#1 04 . ... : D#3 09 F ... : ... .. . ...
ROW 51 : ... .. D ... : ... .. D ... : ... .. . ... : ... .. . ... : ... .. . ... : ... .. . ... : ... .. . ... : ... .. . ...
ROW 52 : ... .. C ... : ... .. C ... : ... .. . ... : ... .. . ... : ... .. . ... : ... .. . ... : F#3 09 C ... : ... .. . ...
ROW 53 : ... .. B ... : ... .. B ... : ... .. . ... : ... .. . ... : ... .. . ... : ... .. . ... : ... .. . ... : ... .. . ...
ROW 54 : ... .. A ... : ... .. A ... : ... .. . ... : 9-# 03 . ... : ... .. . ... : A#1 04 . ... : F-3 09 A ... : ... .. . ...
ROW 55 : ... .. 9 ... : ... .. 9 ... : ... .. . ... : ... .. . ... : ... .. . ... : ... .. . ... : ... .. . ... : ... .. . ...
ROW 56 : ... .. 8 ... : ... .. 8 ... : ... .. . ... : ... .. . ... : ... .. . ... : A#1 04 . ... : D#3 09 9 ... : ... .. . ...
ROW 57 : ... .. 7 ... : ... .. 7 ... : ... .. . ... : ... .. . ... : ... .. . ... : ... .. . ... : ... .. . ... : ... .. . ...
ROW 58 : ... .. 6 ... : ... .. 6 ... : B-1 0E . ... : 4-# 03 8 ... : ... .. . ... : A#1 04 . ... : F#3 09 F ... : ... .. . ...
ROW 59 : ... .. 5 ... : ... .. 5 ... : ... .. . ... : ... .. . ... : ... .. . ... : ... .. . ... : ... .. . ... : ... .. . ...
ROW 5A : ... .. 4 ... : ... .. 4 ... : ... .. . ... : ... .. . ... : ... .. . ... : ... .. . ... : F-3 09 C ... : ... .. . ...
ROW 5B : ... .. 3 ... : ... .. 3 ... : ... .. . ... : ... .. . ... : ... .. . ... : ... .. . ... : ... .. . ... : ... .. . ...
ROW 5C : ... .. 2 ... : ... .. 2 ... : ... .. . ... : ... .. . ... : ... .. . ... : A#1 04 . ... : D#3 09 A ... : ... .. . ...
ROW 5D : ... .. 1 ... : ... .. 1 ... : ... .. . ... : ... .. . ... : ... .. . ... : ... .. . ... : ... .. . ... : ... .. . ...
ROW 5E : ... .. 0 ... : ... .. 0 ... : ... .. . ... : 9-# 03 4 ... : ... .. . ... : A#1 04 . ... : F#3 09 9 ... : ... .. . ...
ROW 5F : ... .. . ... : ... .. . ... : ... .. . ... : ... .. . ... : ... .. . ... : ... .. . ... : ... .. . ... : ... .. . ...
ROW 60 : ... .. . ... : ... .. . ... : ... .. . ... : 9-# 03 4 ... : ... .. . ... : A#1 04 . ... : F-3 09 F ... : ... .. . ...
ROW 61 : ... .. . ... : ... .. . ... : ... .. . ... : ... .. . ... : ... .. . ... : ... .. . ... : ... .. . ... : ... .. . ...
ROW 62 : ... .. . ... : ... .. . ... : ... .. . ... : 9-# 03 . ... : ... .. . ... : ... .. . ... : D#3 09 C ... : ... .. . ...
ROW 63 : ... .. . ... : ... .. . ... : ... .. . ... : ... .. . ... : ... .. . ... : ... .. . ... : ... .. . ... : ... .. . ...
ROW 64 : ... .. . ... : ... .. . ... : ... .. . ... : ... .. . ... : ... .. . ... : A#1 04 . ... : F#3 09 A ... : ... .. . ...
ROW 65 : ... .. . ... : ... .. . ... : ... .. . ... : ... .. . ... : ... .. . ... : ... .. . ... : ... .. . ... : ... .. . ...
ROW 66 : ... .. . ... : ... .. . ... : ... .. . ... : 9-# 03 . ... : ... .. . ... : A#1 04 . ... : F-3 09 9 ... : ... .. . ...
ROW 67 : ... .. . ... : ... .. . ... : ... .. . ... : ... .. . ... : ... .. . ... : ... .. . ... : ... .. . ... : ... .. . ...
ROW 68 : ... .. . ... : ... .. . ... : B-1 0E . ... : 4-# 03 8 ... : ... .. . ... : A#1 04 . ... : D#3 09 F ... : ... .. . ...
ROW 69 : ... .. . ... : ... .. . ... : ... .. . ... : ... .. . ... : ... .. . ... : ... .. . ... : ... .. . ... : ... .. . ...
ROW 6A : ... .. . ... : ... .. . ... : ... .. . ... : ... .. . ... : ... .. . ... : ... .. . ... : F#3 09 C ... : ... .. . ...
ROW 6B : ... .. . ... : ... .. . ... : ... .. . ... : ... .. . ... : ... .. . ... : ... .. . ... : ... .. . ... : ... .. . ...
ROW 6C : ... .. . ... : ... .. . ... : ... .. . ... : 9-# 03 4 ... : ... .. . ... : A#1 04 . ... : F-3 09 A ... : ... .. . ...
ROW 6D : ... .. . ... : ... .. . ... : ... .. . ... : ... .. . ... : ... .. . ... : ... .. . ... : ... .. . ... : ... .. . ...
ROW 6E : ... .. . ... : ... .. . ... : ... .. . ... : ... .. . ... : ... .. . ... : A#1 04 . ... : D#3 09 9 ... : ... .. . ...
ROW 6F : ... .. . ... : ... .. . ... : ... .. . ... : ... .. . ... : ... .. . ... : ... .. . ... : ... .. . ... : ... .. . ...
ROW 70 : ... .. . ... : ... .. . ... : ... .. . ... : 9-# 03 4 ... : ... .. . ... : A#1 04 . ... : F#3 09 F ... : ... .. . ...
ROW 71 : ... .. . ... : ... .. . ... : ... .. . ... : ... .. . ... : ... .. . ... : ... .. . ... : ... .. . ... : ... .. . ...
ROW 72 : ... .. . ... : ... .. . ... : ... .. . ... : 5-# 03 . ... : ... .. . ... : ... .. . ... : F-3 09 C ... : ... .. . ...
ROW 73 : ... .. . ... : ... .. . ... : ... .. . ... : ... .. . ... : ... .. . ... : ... .. . ... : ... .. . ... : ... .. . ...
ROW 74 : ... .. . ... : ... .. . ... : ... .. . ... : 9-# 03 . ... : ... .. . ... : A#1 04 . ... : D#3 09 A ... : ... .. . ...
ROW 75 : ... .. . ... : ... .. . ... : ... .. . ... : ... .. . ... : ... .. . ... : ... .. . ... : ... .. . ... : ... .. . ...
ROW 76 : ... .. . ... : ... .. . ... : ... .. . ... : 7-# 03 . ... : ... .. . ... : A#1 04 . ... : F#3 09 9 ... : ... .. . ...
ROW 77 : ... .. . ... : ... .. . ... : ... .. . ... : ... .. . ... : ... .. . ... : ... .. . ... : ... .. . ... : ... .. . ...
ROW 78 : ... .. . ... : ... .. . ... : B-1 0E . ... : 4-# 03 8 ... : ... .. . ... : A#1 04 . ... : F-3 09 F ... : ... .. . ...
ROW 79 : ... .. . ... : ... .. . ... : ... .. . ... : ... .. . ... : ... .. . ... : ... .. . ... : ... .. . ... : ... .. . ...
ROW 7A : ... .. . ... : ... .. . ... : C-2 0E . ... : 4-# 03 . ... : ... .. . ... : ... .. . ... : D#3 09 C ... : ... .. . ...
ROW 7B : ... .. . ... : ... .. . ... : ... .. . ... : ... .. . ... : ... .. . ... : ... .. . ... : ... .. . ... : ... .. . ...
ROW 7C : ... .. . ... : ... .. . ... : D-2 0E . ... : 5-# 03 . ... : ... .. . ... : A#1 04 . ... : F#3 09 A ... : ... .. . ...
ROW 7D : ... .. . ... : ... .. . ... : ... .. . ... : ... .. . ... : ... .. . ... : ... .. . ... : ... .. . ... : ... .. . ...
ROW 7E : ... .. . ... : ... .. . ... : D#2 0E . ... : 9-# 03 4 ... : ... .. . ... : A#1 04 . ... : F-3 09 9 ... : ... .. . ...
ROW 7F : ... .. . ... : ... .. . ... : ... .. . ... : ... .. . ... : ... .. . ... : ... .. . ... : ... .. . ... : ... .. . ...

PATTERN 05
ROW 00 : G-2 00 0 ... : C-2 00 0 ... : C-2 00 . ... : 4-# 03 F ... : ... .. . ... : D#3 09 F ... : ... .. . ... : D#4 07 C ...
ROW 01 : ... .. 1 ... : ... .. 1 ... : --- .. . ... : ... .. . ... : ... .. . ... : ... .. . ... : ... .. . ... : ... .. . ...
ROW 02 : ... .. 2 ... : ... .. 2 ... : C-2 00 . ... : 9-# 03 4 ... : ... .. . ... : D-3 09 C ... : D#4 07 5 ... : ... .. . ...
ROW 03 : ... .. 3 ... : ... .. 3 ... : --- .. . ... : ... .. . ... : ... .. . ... : ... .. . ... : ... .. . ... : ... .. . ...
ROW 04 : ... .. 4 ... : ... .. 4 ... : C-2 00 . ... : ... .. . ... : ... .. . ... : C-3 09 A ... : ... .. . ... : ... .. . ...
ROW 05 : ... .. 5 ... : ... .. 5 ... : --- .. . ... : ... .. . ... : ... .. . ... : ... .. . ... : ... .. . ... : ... .. . ...
ROW 06 : ... .. 6 ... : ... .. 6 ... : C-2 00 . ... : 9-# 03 . ... : ... .. . ... : D#3 09 9 ... : ... .. . ... : D-4 07 D ...
ROW 07 : ... .. 7 ... : ... .. 7 ... : --- .. . ... : ... .. . ... : ... .. . ... : ... .. . ... : ... .. . ... : ... .. . ...
ROW 08 : ... .. 8 ... : ... .. 8 ... : C-3 00 . ... : 4-# 03 8 ... : ... .. . ... : D-3 09 F ... : D-4 07 6 ... : ... .. . ...
ROW 09 : ... .. 9 ... : ... .. 9 ... : --- 00 . ... : ... .. . ... : ... .. . ... : ... .. . ... : ... .. . ... : ... .. . ...
ROW 0A : ... .. A ... : ... .. A ... : C-2 00 . ... : ... .. . ... : ... .. . ... : C-3 09 C ... : ... .. . ... : ... .. . ...
ROW 0B : ... .. B ... : ... .. B ... : --- 00 . ... : ... .. . ... : ... .. . ... : ... .. . ... : ... .. . ... : ... .. . ...
ROW 0C : ... .. C ... : ... .. C ... : C-2 00 . ... : 9-# 03 4 ... : ... .. . ... : D#3 09 A ... : ... .. . ... : C-4 07 E ...
ROW 0D : ... .. D ... : ... .. D ... : --- 00 . ... : ... .. . ... : ... .. . ... : ... .. . ... : ... .. . ... : ... .. . ...
ROW 0E : ... .. E ... : ... .. E ... : C-2 00 . ... : ... .. . ... : ... .. . ... : D-3 09 9 ... : C-4 07 7 ... : ... .. . ...
ROW 0F : ... .. F ... : ... .. F ... : --- .. . ... : ... .. . ... : ... .. . ... : ... .. . ... : ... .. . ... : ... .. . ...
ROW 10 : ... .. E ... : ... .. E ... : C-2 00 . ... : 9-# 03 4 ... : ... .. . ... : C-3 09 F ... : ... .. . ... : G-3 07 F ...
ROW 11 : ... .. D ... : ... .. D ... : --- .. . ... : ... .. . ... : ... .. . ... : ... .. . ... : ... .. . ... : ... .. . ...
ROW 12 : ... .. C ... : ... .. C ... : C-2 00 . ... : ... .. . ... : ... .. . ... : D#3 09 C ... : G-3 07 8 ... : ... .. . ...
ROW 13 : ... .. B ... : ... .. B ... : --- .. . ... : ... .. . ... : ... .. . ... : ... .. . ... : ... .. . ... : ... .. . ...
ROW 14 : ... .. A ... : ... .. A ... : C-2 00 . ... : 9-# 03 . ... : ... .. . ... : D-3 09 A ... : ... .. . ... : ... .. . ...
ROW 15 : ... .. 9 ... : ... .. 9 ... : --- .. . ... : ... .. . ... : ... .. . ... : ... .. . ... : ... .. . ... : ... .. . ...
ROW 16 : ... .. 8 ... : ... .. 8 ... : C-2 00 . ... : ... .. . ... : ... .. . ... : C-3 09 9 ... : ... .. . ... : ... .. . ...
ROW 17 : ... .. 7 ... : ... .. 7 ... : --- .. . ... : ... .. . ... : ... .. . ... : ... .. . ... : ... .. . ... : ... .. . ...
ROW 18 : ... .. 6 ... : ... .. 6 ... : C-3 00 . ... : 4-# 03 8 ... : ... .. . ... : D#3 09 F ... : ... .. . ... : ... .. . ...
ROW 19 : ... .. 5 ... : ... .. 5 ... : --- .. . ... : ... .. . ... : ... .. . ... : ... .. . ... : ... .. . ... : ... .. . ...
ROW 1A : ... .. 4 ... : ... .. 4 ... : C-2 00 . ... : ... .. . ... : ... .. . ... : D-3 09 C ... : ... .. . ... : ... .. . ...
ROW 1B : ... .. 3 ... : ... .. 3 ... : --- .. . ... : ... .. . ... : ... .. . ... : ... .. . ... : ... .. . ... : ... .. . ...
ROW 1C : ... .. 2 ... : ... .. 2 ... : C-2 00 . ... : ... .. . ... : ... .. . ... : C-3 09 A ... : ... .. . ... : ... .. . ...
ROW 1D : ... .. 1 ... : ... .. 1 ... : --- .. . ... : ... .. . ... : ... .. . ... : ... .. . ... : ... .. . ... : ... .. . ...
ROW 1E : ... .. . ... : ... .. . ... : C-2 00 . ... : 9-# 03 4 ... : ... .. . ... : D#3 09 9 ... : ... .. . ... : ... .. . ...
ROW 1F : ... .. . ... : ... .. . ... : --- .. . ... : ... .. . ... : ... .. . ... : ... .. . ... : ... .. . ... : ... .. . ...
ROW 20 : G-2 00 0 ... : D#2 00 0 ... : C-2 00 . ... : 9-# 03 4 ... : ... .. . ... : D-3 09 F ... : ... .. . ... : ... .. . ...
ROW 21 : ... .. 1 ... : ... .. 1 ... : --- 00 . ... : ... .. . ... : ... .. . ... : ... .. . ... : ... .. . ... : ... .. . ...
ROW 22 : ... .. 2 ... : ... .. 2 ... : C-2 00 . ... : 9-# 03 . ... : ... .. . ... : C-3 09 C ... : ... .. . ... : ... .. . ...
ROW 23 : ... .. 3 ... : ... .. 3 ... : --- 00 . ... : ... .. . ... : ... .. . ... : ... .. . ... : ... .. . ... : ... .. . ...
ROW 24 : ... .. 4 ... : ... .. 4 ... : C-2 00 . ... : ... .. . ... : ... .. . ... : D#3 09 A ... : ... .. . ... : ... .. . ...
ROW 25 : ... .. 5 ... : ... .. 5 ... : --- 00 . ... : ... .. . ... : ... .. . ... : ... .. . ... : ... .. . ... : ... .. . ...
ROW 26 : ... .. 6 ... : ... .. 6 ... : C-2 00 . ... : 9-# 03 . ... : ... .. . ... : D-3 09 9 ... : ... .. . ... : ... .. . ...
ROW 27 : ... .. 7 ... : ... .. 7 ... : --- 00 . ... : ... .. . ... : ... .. . ... : ... .. . ... : ... .. . ... : ... .. . ...
ROW 28 : ... .. 8 ... : ... .. 8 ... : C-3 00 . ... : 4-# 03 8 ... : ... .. . ... : C-3 09 F ... : ... .. . ... : ... .. . ...
ROW 29 : ... .. 9 ... : ... .. 9 ... : --- 00 . ... : ... .. . ... : ... .. . ... : ... .. . ... : ... .. . ... : ... .. . ...
ROW 2A : ... .. A ... : ... .. A ... : C-2 00 . ... : ... .. . ... : ... .. . ... : D#3 09 C ... : ... .. . ... : ... .. . ...
ROW 2B : ... .. B ... : ... .. B ... : --- 00 . ... : ... .. . ... : ... .. . ... : ... .. . ... : ... .. . ... : ... .. . ...
ROW 2C : ... .. C ... : ... .. C ... : C-2 00 . ... : 9-# 03 4 ... : ... .. . ... : D-3 09 A ... : ... .. . ... : F-3 07 C ...
ROW 2D : ... .. D ... : ... .. D ... : --- 00 . ... : ... .. . ... : ... .. . ... : ... .. . ... : ... .. . ... : ... .. . ...
ROW 2E : ... .. E ... : ... .. E ... : C-2 00 . ... : ... .. . ... : ... .. . ... : C-3 09 9 ... : F-3 07 6 ... : ... .. . ...
ROW 2F : ... .. F ... : ... .. F ... : --- 00 . ... : ... .. . ... : ... .. . ... : ... .. . ... : ... .. . ... : ... .. . ...
ROW 30 : ... .. E ... : ... .. E ... : C-2 00 . ... : 9-# 03 4 ... : ... .. . ... : D#3 09 F ... : ... .. . ... : G-3 07 F ...
ROW 31 : ... .. D ... : ... .. D ... : --- 00 . ... : ... .. . ... : ... .. . ... : ... .. . ... : ... .. . ... : ... .. . ...
ROW 32 : ... .. C ... : ... .. C ... : C-2 00 . ... : ... .. . ... : ... .. . ... : D-3 09 C ... : G-3 07 8 ... : ... .. . ...
ROW 33 : ... .. B ... : ... .. B ... : --- 00 . ... : ... .. . ... : ... .. . ... : ... .. . ... : ... .. . ... : ... .. . ...
ROW 34 : ... .. A ... : ... .. A ... : C-2 00 . ... : 9-# 03 . ... : ... .. . ... : C-3 09 A ... : ... .. . ... : ... .. . ...
ROW 35 : ... .. 9 ... : ... .. 9 ... : --- 00 . ... : ... .. . ... : ... .. . ... : ... .. . ... : ... .. . ... : ... .. . ...
ROW 36 : ... .. 8 ... : ... .. 8 ... : C-2 00 . ... : ... .. . ... : ... .. . ... : D#3 09 9 ... : ... .. . ... : G#3 07 . ...
ROW 37 : ... .. 7 ... : ... .. 7 ... : --- 00 . ... : ... .. . ... : ... .. . ... : ... .. . ... : ... .. . ... : ... .. . ...
ROW 38 : ... .. 6 ... : ... .. 6 ... : C-3 00 . ... : 4-# 03 8 ... : ... .. . ... : D-3 09 F ... : G#3 07 . ... : ... .. . ...
ROW 39 : ... .. 5 ... : ... .. 5 ... : --- 00 . ... : ... .. . ... : ... .. . ... : ... .. . ... : ... .. . ... : ... .. . ...
ROW 3A : ... .. 4 ... : ... .. 4 ... : C-2 00 . ... : ... .. . ... : ... .. . ... : C-3 09 C ... : ... .. . ... : ... .. . ...
ROW 3B : ... .. 3 ... : ... .. 3 ... : --- 00 . ... : ... .. . ... : ... .. . ... : ... .. . ... : ... .. . ... : ... .. . ...
ROW 3C : F#2 00 2 ... : D#2 00 2 ... : C-2 00 . ... : ... .. . ... : ... .. . ... : F-3 09 A ... : ... .. . ... : F#3 07 . ...
ROW 3D : ... .. 1 ... : ... .. 1 ... : --- 00 . ... : ... .. . ... : ... .. . ... : ... .. . ... : ... .. . ... : ... .. . ...
ROW 3E : ... .. . ... : ... .. . ... : C-2 00 . ... : 9-# 03 4 ... : ... .. . ... : D#3 09 9 ... : F#3 07 . ... : ... .. . ...
ROW 3F : ... .. . ... : ... .. . ... : --- 00 . ... : ... .. . ... : ... .. . ... : ... .. . ... : ... .. . ... : ... .. . ...
ROW 40 : F#2 00 0 ... : D#2 00 0 ... : D#2 00 . ... : 9-# 03 4 ... : ... .. . ... : F#3 09 F ... : ... .. 8 ... : ... .. F ...
ROW 41 : ... .. 1 ... : ... .. 1 ... : --- 00 . ... : ... .. . ... : ... .. . ... : ... .. . ... : ... .. 7 ... : ... .. E ...
ROW 42 : ... .. 2 ... : ... .. 2 ... : D#2 00 . ... : 9-# 03 . ... : ... .. . ... : F-3 09 C ... : ... .. 7 ... : ... .. E ...
ROW 43 : ... .. 3 ... : ... .. 3 ... : --- 00 . ... : ... .. . ... : ... .. . ... : ... .. . ... : ... .. 7 ... : ... .. D ...
ROW 44 : ... .. 4 ... : ... .. 4 ... : D#2 00 . ... : ... .. . ... : ... .. . ... : D#3 09 A ... : ... .. 7 ... : ... .. D ...
ROW 45 : ... .. 5 ... : ... .. 5 ... : --- 00 . ... : ... .. . ... : ... .. . ... : ... .. . ... : ... .. 6 ... : ... .. C ...
ROW 46 : ... .. 6 ... : ... .. 6 ... : D#2 00 . ... : 9-# 03 . ... : ... .. . ... : F#3 09 9 ... : ... .. 6 ... : ... .. C ...
ROW 47 : ... .. 7 ... : ... .. 7 ... : --- 00 . ... : ... .. . ... : ... .. . ... : ... .. . ... : ... .. 6 ... : ... .. B ...
ROW 48 : ... .. 8 ... : ... .. 8 ... : D#3 00 . ... : 4-# 03 8 ... : ... .. . ... : F-3 09 F ... : ... .. 6 ... : ... .. B ...
ROW 49 : ... .. 9 ... : ... .. 9 ... : --- .. . ... : ... .. . ... : ... .. . ... : ... .. . ... : ... .. 5 ... : ... .. A ...
ROW 4A : ... .. A ... : ... .. A ... : D#2 00 . ... : ... .. . ... : ... .. . ... : D#3 09 C ... : ... .. 5 ... : ... .. A ...
ROW 4B : ... .. B ... : ... .. B ... : --- .. . ... : ... .. . ... : ... .. . ... : ... .. . ... : ... .. 5 ... : ... .. 9 ...
ROW 4C : ... .. C ... : ... .. C ... : D#2 00 . ... : 9-# 03 4 ... : ... .. . ... : F#3 09 A ... : ... .. 5 ... : ... .. 9 ...
ROW 4D : ... .. D ... : ... .. D ... : --- .. . ... : ... .. . ... : ... .. . ... : ... .. . ... : ... .. 4 ... : ... .. 8 ...
ROW 4E : ... .. E ... : ... .. E ... : D#2 00 . ... : ... .. . ... : ... .. . ... : F-3 09 9 ... : ... .. 4 ... : ... .. 8 ...
ROW 4F : ... .. F ... : ... .. F ... : --- .. . ... : ... .. . ... : ... .. . ... : ... .. . ... : ... .. 4 ... : ... .. 7 ...
ROW 50 : ... .. E ... : ... .. E ... : D#2 00 . ... : 9-# 03 4 ... : ... .. . ... : D#3 09 F ... : ... .. 4 ... : ... .. 7 ...
ROW 51 : ... .. D ... : ... .. D ... : --- .. . ... : ... .. . ... : ... .. . ... : ... .. . ... : ... .. 3 ... : ... .. 7 ...
ROW 52 : ... .. C ... : ... .. C ... : D#2 00 . ... : ... .. . ... : ... .. . ... : F#3 09 C ... : ... .. 3 ... : ... .. 6 ...
ROW 53 : ... .. B ... : ... .. B ... : --- .. . ... : ... .. . ... : ... .. . ... : ... .. . ... : ... .. 3 ... : ... .. 6 ...
ROW 54 : ... .. A ... : ... .. A ... : D#2 00 . ... : 9-# 03 . ... : ... .. . ... : F-3 09 A ... : ... .. 3 ... : ... .. 5 ...
ROW 55 : ... .. 9 ... : ... .. 9 ... : --- .. . ... : ... .. . ... : ... .. . ... : ... .. . ... : ... .. 2 ... : ... .. 5 ...
ROW 56 : ... .. 8 ... : ... .. 8 ... : D#2 00 . ... : ... .. . ... : ... .. . ... : D#3 09 9 ... : ... .. 2 ... : ... .. 4 ...
ROW 57 : ... .. 7 ... : ... .. 7 ... : --- .. . ... : ... .. . ... : ... .. . ... : ... .. . ... : ... .. 2 ... : ... .. 4 ...
ROW 58 : ... .. 6 ... : ... .. 6 ... : D#3 00 . ... : 4-# 03 8 ... : ... .. . ... : F#3 09 F ... : ... .. 2 ... : ... .. 3 ...
ROW 59 : ... .. 5 ... : ... .. 5 ... : --- .. . ... : ... .. . ... : ... .. . ... : ... .. . ... : ... .. 1 ... : ... .. 3 ...
ROW 5A : ... .. 4 ... : ... .. 4 ... : D#2 00 . ... : ... .. . ... : ... .. . ... : F-3 09 C ... : ... .. 1 ... : ... .. 2 ...
ROW 5B : ... .. 3 ... : ... .. 3 ... : --- .. . ... : ... .. . ... : ... .. . ... : ... .. . ... : ... .. 1 ... : ... .. 2 ...
ROW 5C : ... .. 2 ... : ... .. 2 ... : D#2 00 . ... : ... .. . ... : ... .. . ... : D#3 09 A ... : ... .. 1 ... : ... .. 1 ...
ROW 5D : ... .. 1 ... : ... .. 1 ... : --- .. . ... : ... .. . ... : ... .. . ... : ... .. . ... : ... .. 0 ... : ... .. 1 ...
ROW 5E : ... .. 0 ... : ... .. 0 ... : D#2 00 . ... : 9-# 03 4 ... : ... .. . ... : F#3 09 9 ... : ... .. 0 ... : ... .. . ...
ROW 5F : ... .. . ... : ... .. . ... : --- .. . ... : ... .. . ... : ... .. . ... : ... .. . ... : ... .. 0 ... : ... .. . ...
ROW 60 : F#2 00 0 ... : C-3 00 0 ... : D#2 00 . ... : 9-# 03 4 ... : ... .. . ... : F-3 09 F ... : ... .. 0 ... : ... .. . ...
ROW 61 : ... .. 1 ... : ... .. 1 ... : --- .. . ... : ... .. . ... : ... .. . ... : ... .. . ... : ... .. . ... : ... .. . ...
ROW 62 : ... .. 2 ... : ... .. 2 ... : D#2 00 . ... : 9-# 03 . ... : ... .. . ... : D#3 09 C ... : ... .. . ... : ... .. . ...
ROW 63 : ... .. 3 ... : ... .. 3 ... : --- .. . ... : ... .. . ... : ... .. . ... : ... .. . ... : ... .. . ... : ... .. . ...
ROW 64 : ... .. 4 ... : ... .. 4 ... : D#2 00 . ... : ... .. . ... : ... .. . ... : F#3 09 A ... : ... .. . ... : ... .. . ...
ROW 65 : ... .. 5 ... : ... .. 5 ... : --- .. . ... : ... .. . ... : ... .. . ... : ... .. . ... : ... .. . ... : ... .. . ...
ROW 66 : ... .. 6 ... : ... .. 6 ... : D#2 00 . ... : 9-# 03 . ... : ... .. . ... : F-3 09 9 ... : ... .. . ... : ... .. . ...
ROW 67 : ... .. 7 ... : ... .. 7 ... : --- .. . ... : ... .. . ... : ... .. . ... : ... .. . ... : ... .. . ... : ... .. . ...
ROW 68 : ... .. 8 ... : ... .. 8 ... : D#3 00 . ... : 4-# 03 8 ... : ... .. . ... : D#3 09 F ... : ... .. . ... : ... .. . ...
ROW 69 : ... .. 9 ... : ... .. 9 ... : --- .. . ... : ... .. . ... : ... .. . ... : ... .. . ... : ... .. . ... : ... .. . ...
ROW 6A : ... .. A ... : ... .. A ... : D#2 00 . ... : ... .. . ... : ... .. . ... : F#3 09 C ... : ... .. . ... : ... .. . ...
ROW 6B : ... .. B ... : ... .. B ... : --- .. . ... : ... .. . ... : ... .. . ... : ... .. . ... : ... .. . ... : ... .. . ...
ROW 6C : ... .. C ... : ... .. C ... : D#2 00 . ... : 9-# 03 4 ... : ... .. . ... : F-3 09 A ... : ... .. . ... : ... .. . ...
ROW 6D : ... .. D ... : ... .. D ... : --- .. . ... : ... .. . ... : ... .. . ... : ... .. . ... : ... .. . ... : ... .. . ...
ROW 6E : ... .. E ... : ... .. E ... : D#2 00 . ... : ... .. . ... : ... .. . ... : D#3 09 9 ... : ... .. . ... : ... .. . ...
ROW 6F : ... .. F ... : ... .. F ... : --- .. . ... : ... .. . ... : ... .. . ... : ... .. . ... : ... .. . ... : ... .. . ...
ROW 70 : ... .. E ... : ... .. E ... : D#2 00 . ... : 9-# 03 4 ... : ... .. . ... : F#3 09 F ... : ... .. . ... : ... .. . ...
ROW 71 : ... .. D ... : ... .. D ... : --- .. . ... : ... .. . ... : ... .. . ... : ... .. . ... : ... .. . ... : ... .. . ...
ROW 72 : ... .. C ... : ... .. C ... : D#2 00 . ... : ... .. . ... : ... .. . ... : F-3 09 C ... : ... .. . ... : ... .. . ...
ROW 73 : ... .. B ... : ... .. B ... : --- .. . ... : ... .. . ... : ... .. . ... : ... .. . ... : ... .. . ... : ... .. . ...
ROW 74 : ... .. A ... : ... .. A ... : D#2 00 . ... : 9-# 03 . ... : ... .. . ... : D#3 09 A ... : D#2 09 F ... : ... .. . ...
ROW 75 : ... .. 9 ... : ... .. 9 ... : --- .. . ... : ... .. . ... : ... .. . ... : ... .. . ... : ... .. . ... : ... .. . ...
ROW 76 : ... .. 8 ... : ... .. 8 ... : D#2 00 . ... : ... .. . ... : ... .. . ... : F#3 09 9 ... : ... .. . ... : ... .. . ...
ROW 77 : ... .. 7 ... : ... .. 7 ... : --- .. . ... : ... .. . ... : ... .. . ... : ... .. . ... : ... .. . ... : ... .. . ...
ROW 78 : ... .. 6 ... : C#3 00 6 ... : D#3 00 . ... : 4-# 03 8 ... : ... .. . ... : F-3 09 F ... : D#2 09 . ... : ... .. . ...
ROW 79 : ... .. 5 ... : ... .. 5 ... : --- .. . ... : ... .. . ... : ... .. . ... : ... .. . ... : ... .. . ... : ... .. . ...
ROW 7A : ... .. 4 ... : ... .. 4 ... : D#2 00 . ... : ... .. . ... : ... .. . ... : D#3 09 C ... : ... .. . ... : ... .. . ...
ROW 7B : ... .. 3 ... : ... .. 3 ... : --- .. . ... : ... .. . ... : ... .. . ... : ... .. . ... : ... .. . ... : ... .. . ...
ROW 7C : ... .. 2 ... : ... .. 2 ... : D#2 00 . ... : ... .. . ... : ... .. . ... : F#3 09 A ... : F-2 09 . ... : ... .. . ...
ROW 7D : ... .. 1 ... : ... .. 1 ... : --- .. . ... : ... .. . ... : ... .. . ... : ... .. . ... : ... .. . ... : ... .. . ...
ROW 7E : ... .. 0 ... : ... .. 0 ... : D#2 00 . ... : 9-# 03 4 ... : ... .. . ... : F-3 09 9 ... : ... .. . ... : ... .. . ...
ROW 7F : ... .. . ... : ... .. . ... : --- .. . ... : ... .. . ... : ... .. . ... : ... .. . ... : ... .. . ... : ... .. . ...

PATTERN 06
ROW 00 : G-2 00 0 ... : C-2 00 0 ... : C-2 00 . ... : 8-# 03 4 ... : ... .. . ... : D#3 09 F ... : G-2 09 F ... : G-3 07 C ...
ROW 01 : ... .. 1 ... : ... .. 1 ... : --- .. . ... : ... .. . ... : ... .. . ... : ... .. . ... : ... .. . ... : ... .. . ...
ROW 02 : ... .. 2 ... : ... .. 2 ... : C-2 00 . ... : 8-# 03 . ... : ... .. . ... : D-3 09 C ... : G-3 07 6 ... : ... .. . ...
ROW 03 : ... .. 3 ... : ... .. 3 ... : --- .. . ... : ... .. . ... : ... .. . ... : ... .. . ... : ... .. . ... : ... .. . ...
ROW 04 : ... .. 4 ... : ... .. 4 ... : C-2 00 . ... : ... .. . ... : ... .. . ... : C-3 09 A ... : ... .. . ... : ... .. . ...
ROW 05 : ... .. 5 ... : ... .. 5 ... : --- .. . ... : ... .. . ... : ... .. . ... : ... .. . ... : ... .. . ... : ... .. . ...
ROW 06 : ... .. 6 ... : ... .. 6 ... : C-2 00 . ... : 8-# 03 . ... : ... .. . ... : D#3 09 9 ... : ... .. . ... : C-3 07 . ...
ROW 07 : ... .. 7 ... : ... .. 7 ... : --- .. . ... : ... .. . ... : ... .. . ... : ... .. . ... : ... .. . ... : ... .. . ...
ROW 08 : ... .. 8 ... : ... .. 8 ... : C-3 00 . ... : 3-# 03 8 ... : ... .. . ... : D-3 09 F ... : C-3 07 . ... : ... .. . ...
ROW 09 : ... .. 9 ... : ... .. 9 ... : --- 00 . ... : ... .. . ... : ... .. . ... : ... .. . ... : ... .. . ... : ... .. . ...
ROW 0A : ... .. A ... : ... .. A ... : C-2 00 . ... : ... .. . ... : ... .. . ... : C-3 09 C ... : ... .. . ... : ... .. . ...
ROW 0B : ... .. B ... : ... .. B ... : --- 00 . ... : ... .. . ... : ... .. . ... : ... .. . ... : ... .. . ... : ... .. . ...
ROW 0C : ... .. C ... : ... .. C ... : C-2 00 . ... : 8-# 03 4 ... : ... .. . ... : D#3 09 A ... : ... .. . ... : C-4 07 . ...
ROW 0D : ... .. D ... : ... .. D ... : --- 00 . ... : ... .. . ... : ... .. . ... : ... .. . ... : ... .. . ... : ... .. . ...
ROW 0E : ... .. E ... : ... .. E ... : C-2 00 . ... : ... .. . ... : ... .. . ... : D-3 09 9 ... : C-4 07 . ... : ... .. . ...
ROW 0F : ... .. F ... : ... .. F ... : --- .. . ... : ... .. . ... : ... .. . ... : ... .. . ... : ... .. . ... : ... .. . ...
ROW 10 : ... .. E ... : ... .. E ... : C-2 00 . ... : 8-# 03 4 ... : ... .. . ... : C-3 09 F ... : G-3 07 C ... : C-4 07 . ...
ROW 11 : ... .. D ... : ... .. D ... : --- .. . ... : ... .. . ... : ... .. . ... : ... .. . ... : ... .. . ... : ... .. . ...
ROW 12 : ... .. C ... : ... .. C ... : C-2 00 . ... : ... .. . ... : ... .. . ... : D#3 09 C ... : ... .. . ... : ... .. . ...
ROW 13 : ... .. B ... : ... .. B ... : --- .. . ... : ... .. . ... : ... .. . ... : ... .. . ... : ... .. . ... : ... .. . ...
ROW 14 : ... .. A ... : ... .. A ... : C-2 00 . ... : 8-# 03 . ... : ... .. . ... : D-3 09 A ... : ... .. . ... : ... .. . ...
ROW 15 : ... .. 9 ... : ... .. 9 ... : --- .. . ... : ... .. . ... : ... .. . ... : ... .. . ... : ... .. . ... : ... .. . ...
ROW 16 : ... .. 8 ... : ... .. 8 ... : C-2 00 . ... : ... .. . ... : ... .. . ... : C-3 09 9 ... : ... .. . ... : ... .. . ...
ROW 17 : ... .. 7 ... : ... .. 7 ... : --- .. . ... : ... .. . ... : ... .. . ... : ... .. . ... : ... .. . ... : ... .. . ...
ROW 18 : ... .. 6 ... : ... .. 6 ... : C-3 00 . ... : 3-# 03 8 ... : ... .. . ... : D#3 09 F ... : ... .. . ... : ... .. . ...
ROW 19 : ... .. 5 ... : ... .. 5 ... : --- .. . ... : ... .. . ... : ... .. . ... : ... .. . ... : ... .. . ... : ... .. . ...
ROW 1A : ... .. 4 ... : ... .. 4 ... : C-2 00 . ... : ... .. . ... : ... .. . ... : D-3 09 C ... : ... .. . ... : ... .. . ...
ROW 1B : ... .. 3 ... : ... .. 3 ... : --- .. . ... : ... .. . ... : ... .. . ... : ... .. . ... : ... .. . ... : ... .. . ...
ROW 1C : ... .. 2 ... : ... .. 2 ... : C-2 00 . ... : ... .. . ... : ... .. . ... : C-3 09 A ... : ... .. . ... : C-4 07 . ...
ROW 1D : ... .. 1 ... : ... .. 1 ... : --- .. . ... : ... .. . ... : ... .. . ... : ... .. . ... : ... .. . ... : ... .. . ...
ROW 1E : ... .. . ... : ... .. . ... : C-2 00 . ... : 8-# 03 4 ... : ... .. . ... : D#3 09 9 ... : C-4 07 6 ... : D-4 07 . ...
ROW 1F : ... .. . ... : ... .. . ... : --- .. . ... : ... .. . ... : ... .. . ... : ... .. . ... : ... .. . ... : ... .. . ...
ROW 20 : G-2 00 0 ... : D#2 00 0 ... : C-2 00 . ... : 8-# 03 4 ... : ... .. . ... : D-3 09 F ... : D-4 07 . ... : D#4 07 . ...
ROW 21 : ... .. 1 ... : ... .. 1 ... : --- 00 . ... : ... .. . ... : ... .. . ... : ... .. . ... : ... .. . ... : ... .. . ...
ROW 22 : ... .. 2 ... : ... .. 2 ... : C-2 00 . ... : 8-# 03 . ... : ... .. . ... : C-3 09 C ... : D#4 07 . ... : ... .. . ...
ROW 23 : ... .. 3 ... : ... .. 3 ... : --- 00 . ... : ... .. . ... : ... .. . ... : ... .. . ... : ... .. . ... : ... .. . ...
ROW 24 : ... .. 4 ... : ... .. 4 ... : C-2 00 . ... : ... .. . ... : ... .. . ... : D#3 09 A ... : ... .. . ... : ... .. . ...
ROW 25 : ... .. 5 ... : ... .. 5 ... : --- 00 . ... : ... .. . ... : ... .. . ... : ... .. . ... : ... .. . ... : ... .. . ...
ROW 26 : ... .. 6 ... : ... .. 6 ... : C-2 00 . ... : 8-# 03 . ... : ... .. . ... : D-3 09 9 ... : ... .. . ... : C-4 07 . ...
ROW 27 : ... .. 7 ... : ... .. 7 ... : --- 00 . ... : ... .. . ... : ... .. . ... : ... .. . ... : ... .. . ... : ... .. . ...
ROW 28 : ... .. 8 ... : ... .. 8 ... : C-3 00 . ... : 3-# 03 8 ... : ... .. . ... : C-3 09 F ... : C-4 07 . ... : ... .. . ...
ROW 29 : ... .. 9 ... : ... .. 9 ... : --- 00 . ... : ... .. . ... : ... .. . ... : ... .. . ... : ... .. . ... : ... .. . ...
ROW 2A : ... .. A ... : ... .. A ... : C-2 00 . ... : ... .. . ... : ... .. . ... : D#3 09 C ... : ... .. . ... : ... .. . ...
ROW 2B : ... .. B ... : ... .. B ... : --- 00 . ... : ... .. . ... : ... .. . ... : ... .. . ... : ... .. . ... : ... .. . ...
ROW 2C : ... .. C ... : ... .. C ... : C-2 00 . ... : 8-# 03 4 ... : ... .. . ... : D-3 09 A ... : ... .. . ... : G#3 07 . ...
ROW 2D : ... .. D ... : ... .. D ... : --- 00 . ... : ... .. . ... : ... .. . ... : ... .. . ... : ... .. . ... : ... .. . ...
ROW 2E : ... .. E ... : ... .. E ... : C-2 00 . ... : ... .. . ... : ... .. . ... : C-3 09 9 ... : G#3 07 . ... : ... .. . ...
ROW 2F : ... .. F ... : ... .. F ... : --- 00 . ... : ... .. . ... : ... .. . ... : ... .. . ... : ... .. . ... : ... .. . ...
ROW 30 : ... .. E ... : ... .. E ... : C-2 00 . ... : 8-# 03 4 ... : ... .. . ... : D#3 09 F ... : ... .. . ... : G-3 07 . ...
ROW 31 : ... .. D ... : ... .. D ... : --- 00 . ... : ... .. . ... : ... .. . ... : ... .. . ... : ... .. . ... : ... .. . ...
ROW 32 : ... .. C ... : ... .. C ... : C-2 00 . ... : ... .. . ... : ... .. . ... : D-3 09 C ... : G-3 07 . ... : ... .. . ...
ROW 33 : ... .. B ... : ... .. B ... : --- 00 . ... : ... .. . ... : ... .. . ... : ... .. . ... : ... .. . ... : ... .. . ...
ROW 34 : ... .. A ... : ... .. A ... : C-2 00 . ... : 8-# 03 . ... : ... .. . ... : C-3 09 A ... : ... .. . ... : ... .. . ...
ROW 35 : ... .. 9 ... : ... .. 9 ... : --- 00 . ... : ... .. . ... : ... .. . ... : ... .. . ... : ... .. . ... : ... .. . ...
ROW 36 : ... .. 8 ... : ... .. 8 ... : C-2 00 . ... : ... .. . ... : ... .. . ... : D#3 09 9 ... : ... .. . ... : F-3 07 . ...
ROW 37 : ... .. 7 ... : ... .. 7 ... : --- 00 . ... : ... .. . ... : ... .. . ... : ... .. . ... : ... .. . ... : ... .. . ...
ROW 38 : ... .. 6 ... : ... .. 6 ... : C-3 00 . ... : 3-# 03 8 ... : ... .. . ... : D-3 09 F ... : F-3 07 . ... : ... .. . ...
ROW 39 : ... .. 5 ... : ... .. 5 ... : --- 00 . ... : ... .. . ... : ... .. . ... : ... .. . ... : ... .. . ... : ... .. . ...
ROW 3A : ... .. 4 ... : ... .. 4 ... : C-2 00 . ... : ... .. . ... : ... .. . ... : C-3 09 C ... : ... .. . ... : ... .. . ...
ROW 3B : ... .. 3 ... : ... .. 3 ... : --- 00 . ... : ... .. . ... : ... .. . ... : ... .. . ... : ... .. . ... : ... .. . ...
ROW 3C : F#2 00 2 ... : D#2 00 2 ... : C-2 00 . ... : ... .. . ... : ... .. . ... : F-3 09 A ... : ... .. . ... : G-3 07 . ...
ROW 3D : ... .. 1 ... : ... .. 1 ... : --- 00 . ... : ... .. . ... : ... .. . ... : ... .. . ... : ... .. . ... : ... .. . ...
ROW 3E : ... .. . ... : ... .. . ... : C-2 00 . ... : 8-# 03 4 ... : ... .. . ... : D#3 09 9 ... : G-3 07 . ... : ... .. . ...
ROW 3F : ... .. . ... : ... .. . ... : --- 00 . ... : ... .. . ... : ... .. . ... : ... .. . ... : ... .. . ... : ... .. . ...
ROW 40 : F-2 00 0 ... : C-2 00 0 ... : F-2 00 . ... : 8-# 03 4 ... : ... .. . ... : G#3 09 F ... : ... .. . ... : F-3 07 . ...
ROW 41 : ... .. 1 ... : ... .. 1 ... : --- 00 . ... : ... .. . ... : ... .. . ... : ... .. . ... : ... .. . ... : ... .. . ...
ROW 42 : ... .. 2 ... : ... .. 2 ... : F-2 00 . ... : 8-# 03 . ... : ... .. . ... : F-3 09 C ... : F-3 07 . ... : ... .. . ...
ROW 43 : ... .. 3 ... : ... .. 3 ... : --- 00 . ... : ... .. . ... : ... .. . ... : ... .. . ... : ... .. . ... : ... .. . ...
ROW 44 : ... .. 4 ... : ... .. 4 ... : F-2 00 . ... : ... .. . ... : ... .. . ... : C-3 09 A ... : ... .. . ... : ... .. . ...
ROW 45 : ... .. 5 ... : ... .. 5 ... : --- 00 . ... : ... .. . ... : ... .. . ... : ... .. . ... : ... .. . ... : ... .. . ...
ROW 46 : ... .. 6 ... : ... .. 6 ... : F-2 00 . ... : 8-# 03 . ... : ... .. . ... : G#3 09 9 ... : ... .. . ... : ... .. . ...
ROW 47 : ... .. 7 ... : ... .. 7 ... : --- 00 . ... : ... .. . ... : ... .. . ... : ... .. . ... : ... .. . ... : ... .. . ...
ROW 48 : ... .. 8 ... : ... .. 8 ... : F-3 00 . ... : 3-# 03 8 ... : ... .. . ... : F-3 09 F ... : ... .. . ... : ... .. . ...
ROW 49 : ... .. 9 ... : ... .. 9 ... : --- .. . ... : ... .. . ... : ... .. . ... : ... .. . ... : ... .. . ... : ... .. . ...
ROW 4A : ... .. A ... : ... .. A ... : F-2 00 . ... : ... .. . ... : ... .. . ... : C-3 09 C ... : ... .. . ... : ... .. . ...
ROW 4B : ... .. B ... : ... .. B ... : --- .. . ... : ... .. . ... : ... .. . ... : ... .. . ... : ... .. . ... : ... .. . ...
ROW 4C : ... .. C ... : ... .. C ... : F-2 00 . ... : 8-# 03 4 ... : ... .. . ... : G#3 09 A ... : ... .. . ... : ... .. . ...
ROW 4D : ... .. D ... : ... .. D ... : --- .. . ... : ... .. . ... : ... .. . ... : ... .. . ... : ... .. . ... : ... .. . ...
ROW 4E : ... .. E ... : ... .. E ... : F-2 00 . ... : ... .. . ... : ... .. . ... : F-3 09 9 ... : ... .. . ... : ... .. . ...
ROW 4F : ... .. F ... : ... .. F ... : --- .. . ... : ... .. . ... : ... .. . ... : ... .. . ... : ... .. . ... : ... .. . ...
ROW 50 : ... .. E ... : ... .. E ... : F-2 00 . ... : 8-# 03 4 ... : ... .. . ... : C-3 09 F ... : ... .. . ... : ... .. . ...
ROW 51 : ... .. D ... : ... .. D ... : --- .. . ... : ... .. . ... : ... .. . ... : ... .. . ... : ... .. . ... : ... .. . ...
ROW 52 : ... .. C ... : ... .. C ... : F-2 00 . ... : ... .. . ... : ... .. . ... : G#3 09 C ... : ... .. . ... : ... .. . ...
ROW 53 : ... .. B ... : ... .. B ... : --- .. . ... : ... .. . ... : ... .. . ... : ... .. . ... : ... .. . ... : ... .. . ...
ROW 54 : ... .. A ... : ... .. A ... : F-2 00 . ... : 8-# 03 . ... : ... .. . ... : F-3 09 A ... : ... .. . ... : ... .. . ...
ROW 55 : ... .. 9 ... : ... .. 9 ... : --- .. . ... : ... .. . ... : ... .. . ... : ... .. . ... : ... .. . ... : ... .. . ...
ROW 56 : ... .. 8 ... : ... .. 8 ... : F-2 00 . ... : ... .. . ... : ... .. . ... : C-3 09 9 ... : ... .. . ... : ... .. . ...
ROW 57 : ... .. 7 ... : ... .. 7 ... : --- .. . ... : ... .. . ... : ... .. . ... : ... .. . ... : ... .. . ... : ... .. . ...
ROW 58 : ... .. 6 ... : ... .. 6 ... : F-3 00 . ... : 3-# 03 8 ... : ... .. . ... : G#3 09 F ... : ... .. . ... : ... .. . ...
ROW 59 : ... .. 5 ... : ... .. 5 ... : --- .. . ... : ... .. . ... : ... .. . ... : ... .. . ... : ... .. . ... : ... .. . ...
ROW 5A : ... .. 4 ... : ... .. 4 ... : F-2 00 . ... : ... .. . ... : ... .. . ... : F-3 09 C ... : ... .. . ... : ... .. . ...
ROW 5B : ... .. 3 ... : ... .. 3 ... : --- .. . ... : ... .. . ... : ... .. . ... : ... .. . ... : ... .. . ... : ... .. . ...
ROW 5C : ... .. 2 ... : ... .. 2 ... : F-2 00 . ... : ... .. . ... : ... .. . ... : C-3 09 A ... : ... .. . ... : ... .. . ...
ROW 5D : ... .. 1 ... : ... .. 1 ... : --- .. . ... : ... .. . ... : ... .. . ... : ... .. . ... : ... .. . ... : ... .. . ...
ROW 5E : ... .. . ... : ... .. . ... : F-2 00 . ... : 8-# 03 4 ... : ... .. . ... : G#3 09 9 ... : ... .. . ... : ... .. . ...
ROW 5F : ... .. . ... : ... .. . ... : --- .. . ... : ... .. . ... : ... .. . ... : ... .. . ... : ... .. . ... : ... .. . ...
ROW 60 : G#2 00 0 ... : C-2 00 0 ... : F-2 00 . ... : 8-# 03 4 ... : ... .. . ... : F-3 09 F ... : ... .. . ... : ... .. . ...
ROW 61 : ... .. 1 ... : ... .. 1 ... : --- .. . ... : ... .. . ... : ... .. . ... : ... .. . ... : ... .. . ... : ... .. . ...
ROW 62 : ... .. 2 ... : ... .. 2 ... : F-2 00 . ... : 8-# 03 . ... : ... .. . ... : C-3 09 C ... : ... .. . ... : ... .. . ...
ROW 63 : ... .. 3 ... : ... .. 3 ... : --- .. . ... : ... .. . ... : ... .. . ... : ... .. . ... : ... .. . ... : ... .. . ...
ROW 64 : ... .. 4 ... : ... .. 4 ... : F-2 00 . ... : ... .. . ... : ... .. . ... : G#3 09 A ... : ... .. . ... : ... .. . ...
ROW 65 : ... .. 5 ... : ... .. 5 ... : --- .. . ... : ... .. . ... : ... .. . ... : ... .. . ... : ... .. . ... : ... .. . ...
ROW 66 : ... .. 6 ... : ... .. 6 ... : F-2 00 . ... : 8-# 03 . ... : ... .. . ... : F-3 09 9 ... : ... .. . ... : ... .. . ...
ROW 67 : ... .. 7 ... : ... .. 7 ... : --- .. . ... : ... .. . ... : ... .. . ... : ... .. . ... : ... .. . ... : ... .. . ...
ROW 68 : ... .. 8 ... : ... .. 8 ... : F-3 00 . ... : 3-# 03 8 ... : ... .. . ... : C-3 09 F ... : ... .. . ... : ... .. . ...
ROW 69 : ... .. 9 ... : ... .. 9 ... : --- .. . ... : ... .. . ... : ... .. . ... : ... .. . ... : ... .. . ... : ... .. . ...
ROW 6A : ... .. A ... : ... .. A ... : F-2 00 . ... : ... .. . ... : ... .. . ... : G#3 09 C ... : ... .. . ... : ... .. . ...
ROW 6B : ... .. B ... : ... .. B ... : --- .. . ... : ... .. . ... : ... .. . ... : ... .. . ... : ... .. . ... : ... .. . ...
ROW 6C : ... .. C ... : ... .. C ... : F-2 00 . ... : 8-# 03 4 ... : ... .. . ... : F-3 09 A ... : ... .. . ... : ... .. . ...
ROW 6D : ... .. D ... : ... .. D ... : --- .. . ... : ... .. . ... : ... .. . ... : ... .. . ... : ... .. . ... : ... .. . ...
ROW 6E : ... .. E ... : ... .. E ... : F-2 00 . ... : ... .. . ... : ... .. . ... : C-3 09 9 ... : ... .. . ... : ... .. . ...
ROW 6F : ... .. F ... : ... .. F ... : --- .. . ... : ... .. . ... : ... .. . ... : ... .. . ... : ... .. . ... : ... .. . ...
ROW 70 : ... .. E ... : ... .. E ... : F-2 00 . ... : 8-# 03 4 ... : ... .. . ... : G#3 09 F ... : ... .. . ... : ... .. . ...
ROW 71 : ... .. D ... : ... .. D ... : --- .. . ... : ... .. . ... : ... .. . ... : ... .. . ... : ... .. . ... : ... .. . ...
ROW 72 : ... .. C ... : ... .. C ... : F-2 00 . ... : ... .. . ... : ... .. . ... : F-3 09 C ... : ... .. . ... : ... .. . ...
ROW 73 : ... .. B ... : ... .. B ... : --- .. . ... : ... .. . ... : ... .. . ... : ... .. . ... : ... .. . ... : ... .. . ...
ROW 74 : ... .. A ... : ... .. A ... : F-2 00 . ... : 8-# 03 . ... : ... .. . ... : C-3 09 A ... : A#2 09 F ... : ... .. . ...
ROW 75 : ... .. 9 ... : ... .. 9 ... : --- .. . ... : ... .. . ... : ... .. . ... : ... .. . ... : ... .. . ... : ... .. . ...
ROW 76 : ... .. 8 ... : ... .. 8 ... : F-2 00 . ... : ... .. . ... : ... .. . ... : G#3 09 9 ... : ... .. . ... : ... .. . ...
ROW 77 : ... .. 7 ... : ... .. 7 ... : --- .. . ... : ... .. . ... : ... .. . ... : ... .. . ... : ... .. . ... : ... .. . ...
ROW 78 : ... .. 6 ... : ... .. 6 ... : F-3 00 . ... : 3-# 03 8 ... : ... .. . ... : F-3 09 F ... : G#2 09 . ... : ... .. . ...
ROW 79 : ... .. 5 ... : ... .. 5 ... : --- .. . ... : ... .. . ... : ... .. . ... : ... .. . ... : ... .. . ... : ... .. . ...
ROW 7A : ... .. 4 ... : ... .. 4 ... : F-2 00 . ... : ... .. . ... : ... .. . ... : C-3 09 C ... : ... .. . ... : ... .. . ...
ROW 7B : ... .. 3 ... : ... .. 3 ... : --- .. . ... : ... .. . ... : ... .. . ... : ... .. . ... : ... .. . ... : ... .. . ...
ROW 7C : F-2 00 2 ... : D-2 00 2 ... : F-2 00 . ... : ... .. . ... : ... .. . ... : G#3 09 A ... : F-2 09 . ... : ... .. . ...
ROW 7D : ... .. 1 ... : ... .. 1 ... : --- .. . ... : ... .. . ... : ... .. . ... : ... .. . ... : ... .. . ... : ... .. . ...
ROW 7E : ... .. . ... : ... .. . ... : F-2 00 . ... : 8-# 03 4 ... : ... .. . ... : F-3 09 9 ... : ... .. . ... : ... .. . ...
ROW 7F : ... .. . ... : ... .. . ... : --- .. . ... : ... .. . ... : ... .. . ... : ... .. . ... : ... .. . ... : ... .. . ...

PATTERN 07
ROW 00 : G-2 00 0 ... : C-2 00 0 ... : C-2 00 . ... : 9-# 03 4 ... : ... .. . ... : D#3 09 F ... : ... .. . ... : C-3 07 F ...
ROW 01 : ... .. 1 ... : ... .. 1 ... : --- .. . ... : ... .. . ... : ... .. . ... : ... .. . ... : ... .. . ... : ... .. . ...
ROW 02 : ... .. 2 ... : ... .. 2 ... : C-2 00 . ... : 9-# 03 . ... : ... .. . ... : D-3 09 C ... : C-3 07 8 ... : ... .. . ...
ROW 03 : ... .. 3 ... : ... .. 3 ... : --- .. . ... : ... .. . ... : ... .. . ... : ... .. . ... : ... .. . ... : ... .. . ...
ROW 04 : ... .. 4 ... : ... .. 4 ... : C-2 00 . ... : ... .. . ... : ... .. . ... : C-3 09 A ... : ... .. . ... : ... .. . ...
ROW 05 : ... .. 5 ... : ... .. 5 ... : --- .. . ... : ... .. . ... : ... .. . ... : ... .. . ... : ... .. . ... : ... .. . ...
ROW 06 : ... .. 6 ... : ... .. 6 ... : C-2 00 . ... : 9-# 03 . ... : ... .. . ... : D#3 09 9 ... : ... .. . ... : D-3 07 . ...
ROW 07 : ... .. 7 ... : ... .. 7 ... : --- .. . ... : ... .. . ... : ... .. . ... : ... .. . ... : ... .. . ... : ... .. . ...
ROW 08 : ... .. 8 ... : ... .. 8 ... : C-3 00 . ... : 4-# 03 8 ... : ... .. . ... : D-3 09 F ... : D-3 07 . ... : ... .. . ...
ROW 09 : ... .. 9 ... : ... .. 9 ... : --- 00 . ... : ... .. . ... : ... .. . ... : ... .. . ... : ... .. . ... : ... .. . ...
ROW 0A : ... .. A ... : ... .. A ... : C-2 00 . ... : ... .. . ... : ... .. . ... : C-3 09 C ... : ... .. . ... : ... .. . ...
ROW 0B : ... .. B ... : ... .. B ... : --- 00 . ... : ... .. . ... : ... .. . ... : ... .. . ... : ... .. . ... : ... .. . ...
ROW 0C : ... .. C ... : ... .. C ... : C-2 00 . ... : 9-# 03 4 ... : ... .. . ... : D#3 09 A ... : ... .. . ... : D#3 07 . ...
ROW 0D : ... .. D ... : ... .. D ... : --- 00 . ... : ... .. . ... : ... .. . ... : ... .. . ... : ... .. . ... : ... .. . ...
ROW 0E : ... .. E ... : ... .. E ... : C-2 00 . ... : ... .. . ... : ... .. . ... : D-3 09 9 ... : D#3 07 . ... : ... .. . ...
ROW 0F : ... .. F ... : ... .. F ... : --- .. . ... : ... .. . ... : ... .. . ... : ... .. . ... : ... .. . ... : ... .. . ...
ROW 10 : ... .. E ... : ... .. E ... : C-2 00 . ... : 9-# 03 4 ... : ... .. . ... : C-3 09 F ... : ... .. . ... : C-3 07 . ...
ROW 11 : ... .. D ... : ... .. D ... : --- .. . ... : ... .. . ... : ... .. . ... : ... .. . ... : ... .. . ... : ... .. . ...
ROW 12 : ... .. C ... : ... .. C ... : C-2 00 . ... : ... .. . ... : ... .. . ... : D#3 09 C ... : C-3 07 . ... : ... .. . ...
ROW 13 : ... .. B ... : ... .. B ... : --- .. . ... : ... .. . ... : ... .. . ... : ... .. . ... : ... .. . ... : ... .. . ...
ROW 14 : ... .. A ... : ... .. A ... : C-2 00 . ... : 9-# 03 . ... : ... .. . ... : D-3 09 A ... : ... .. . ... : ... .. . ...
ROW 15 : ... .. 9 ... : ... .. 9 ... : --- .. . ... : ... .. . ... : ... .. . ... : ... .. . ... : ... .. . ... : ... .. . ...
ROW 16 : ... .. 8 ... : ... .. 8 ... : C-2 00 . ... : ... .. . ... : ... .. . ... : C-3 09 9 ... : ... .. . ... : ... .. . ...
ROW 17 : ... .. 7 ... : ... .. 7 ... : --- .. . ... : ... .. . ... : ... .. . ... : ... .. . ... : ... .. . ... : ... .. . ...
ROW 18 : ... .. 6 ... : ... .. 6 ... : C-3 00 . ... : 4-# 03 8 ... : ... .. . ... : D#3 09 F ... : ... .. . ... : G-3 07 . ...
ROW 19 : ... .. 5 ... : ... .. 5 ... : --- .. . ... : ... .. . ... : ... .. . ... : ... .. . ... : ... .. . ... : ... .. . ...
ROW 1A : ... .. 4 ... : ... .. 4 ... : C-2 00 . ... : ... .. . ... : ... .. . ... : D-3 09 C ... : G-3 07 . ... : ... .. . ...
ROW 1B : ... .. 3 ... : ... .. 3 ... : --- .. . ... : ... .. . ... : ... .. . ... : ... .. . ... : ... .. . ... : ... .. . ...
ROW 1C : ... .. 2 ... : ... .. 2 ... : C-2 00 . ... : ... .. . ... : ... .. . ... : C-3 09 A ... : ... .. . ... : ... .. . ...
ROW 1D : ... .. 1 ... : ... .. 1 ... : --- .. . ... : ... .. . ... : ... .. . ... : ... .. . ... : ... .. . ... : ... .. . ...
ROW 1E : ... .. . ... : ... .. . ... : C-2 00 . ... : 9-# 03 4 ... : ... .. . ... : D#3 09 9 ... : ... .. . ... : ... .. . ...
ROW 1F : ... .. . ... : ... .. . ... : --- .. . ... : ... .. . ... : ... .. . ... : ... .. . ... : ... .. . ... : ... .. . ...
ROW 20 : G-2 00 0 ... : D#2 00 0 ... : C-2 00 . ... : 9-# 03 4 ... : ... .. . ... : D-3 09 F ... : ... .. . ... : G-3 07 . ...
ROW 21 : ... .. 1 ... : ... .. 1 ... : --- 00 . ... : ... .. . ... : ... .. . ... : ... .. . ... : ... .. . ... : ... .. . ...
ROW 22 : ... .. 2 ... : ... .. 2 ... : C-2 00 . ... : 9-# 03 . ... : ... .. . ... : C-3 09 C ... : G-3 07 . ... : ... .. . ...
ROW 23 : ... .. 3 ... : ... .. 3 ... : --- 00 . ... : ... .. . ... : ... .. . ... : ... .. . ... : ... .. . ... : ... .. . ...
ROW 24 : ... .. 4 ... : ... .. 4 ... : C-2 00 . ... : ... .. . ... : ... .. . ... : D#3 09 A ... : ... .. . ... : ... .. . ...
ROW 25 : ... .. 5 ... : ... .. 5 ... : --- 00 . ... : ... .. . ... : ... .. . ... : ... .. . ... : ... .. . ... : ... .. . ...
ROW 26 : ... .. 6 ... : ... .. 6 ... : C-2 00 . ... : 9-# 03 . ... : ... .. . ... : D-3 09 9 ... : ... .. . ... : A#3 07 . ...
ROW 27 : ... .. 7 ... : ... .. 7 ... : --- 00 . ... : ... .. . ... : ... .. . ... : ... .. . ... : ... .. . ... : ... .. . ...
ROW 28 : ... .. 8 ... : ... .. 8 ... : C-3 00 . ... : 4-# 03 8 ... : ... .. . ... : C-3 09 F ... : A#3 07 . ... : ... .. . ...
ROW 29 : ... .. 9 ... : ... .. 9 ... : --- 00 . ... : ... .. . ... : ... .. . ... : ... .. . ... : ... .. . ... : ... .. . ...
ROW 2A : ... .. A ... : ... .. A ... : C-2 00 . ... : ... .. . ... : ... .. . ... : D#3 09 C ... : ... .. . ... : ... .. . ...
ROW 2B : ... .. B ... : ... .. B ... : --- 00 . ... : ... .. . ... : ... .. . ... : ... .. . ... : ... .. . ... : ... .. . ...
ROW 2C : ... .. C ... : ... .. C ... : C-2 00 . ... : 9-# 03 4 ... : ... .. . ... : D-3 09 A ... : ... .. . ... : G#3 07 . ...
ROW 2D : ... .. D ... : ... .. D ... : --- 00 . ... : ... .. . ... : ... .. . ... : ... .. . ... : ... .. . ... : ... .. . ...
ROW 2E : ... .. E ... : ... .. E ... : C-2 00 . ... : ... .. . ... : ... .. . ... : C-3 09 9 ... : G#3 07 . ... : ... .. . ...
ROW 2F : ... .. F ... : ... .. F ... : --- 00 . ... : ... .. . ... : ... .. . ... : ... .. . ... : ... .. . ... : ... .. . ...
ROW 30 : ... .. E ... : ... .. E ... : C-2 00 . ... : 9-# 03 4 ... : ... .. . ... : D#3 09 F ... : ... .. . ... : G-3 07 . ...
ROW 31 : ... .. D ... : ... .. D ... : --- 00 . ... : ... .. . ... : ... .. . ... : ... .. . ... : ... .. . ... : ... .. . ...
ROW 32 : ... .. C ... : ... .. C ... : C-2 00 . ... : ... .. . ... : ... .. . ... : D-3 09 C ... : G-3 07 . ... : ... .. . ...
ROW 33 : ... .. B ... : ... .. B ... : --- 00 . ... : ... .. . ... : ... .. . ... : ... .. . ... : ... .. . ... : ... .. . ...
ROW 34 : ... .. A ... : ... .. A ... : C-2 00 . ... : 9-# 03 . ... : ... .. . ... : C-3 09 A ... : ... .. . ... : ... .. . ...
ROW 35 : ... .. 9 ... : ... .. 9 ... : --- 00 . ... : ... .. . ... : ... .. . ... : ... .. . ... : ... .. . ... : ... .. . ...
ROW 36 : ... .. 8 ... : ... .. 8 ... : C-2 00 . ... : ... .. . ... : ... .. . ... : D#3 09 9 ... : ... .. . ... : ... .. . ...
ROW 37 : ... .. 7 ... : ... .. 7 ... : --- 00 . ... : ... .. . ... : ... .. . ... : ... .. . ... : ... .. . ... : ... .. . ...
ROW 38 : ... .. 6 ... : ... .. 6 ... : C-3 00 . ... : 4-# 03 8 ... : ... .. . ... : D-3 09 F ... : ... .. . ... : ... .. . ...
ROW 39 : ... .. 5 ... : ... .. 5 ... : --- 00 . ... : ... .. . ... : ... .. . ... : ... .. . ... : ... .. . ... : ... .. . ...
ROW 3A : ... .. 4 ... : ... .. 4 ... : C-2 00 . ... : ... .. . ... : ... .. . ... : C-3 09 C ... : ... .. . ... : ... .. . ...
ROW 3B : ... .. 3 ... : ... .. 3 ... : --- 00 . ... : ... .. . ... : ... .. . ... : ... .. . ... : ... .. . ... : ... .. . ...
ROW 3C : F#2 00 2 ... : D#2 00 2 ... : C-2 00 . ... : ... .. . ... : ... .. . ... : F-3 09 A ... : ... .. . ... : D-3 07 . ...
ROW 3D : ... .. 1 ... : ... .. 1 ... : --- 00 . ... : ... .. . ... : ... .. . ... : ... .. . ... : ... .. . ... : ... .. . ...
ROW 3E : ... .. . ... : ... .. . ... : C-2 00 . ... : 9-# 03 4 ... : ... .. . ... : D#3 09 9 ... : D-3 07 . ... : ... .. . ...
ROW 3F : ... .. . ... : ... .. . ... : --- 00 . ... : ... .. . ... : ... .. . ... : ... .. . ... : ... .. . ... : ... .. . ...
ROW 40 : F#2 00 0 ... : D#2 00 0 ... : D#2 00 . ... : 9-# 03 4 ... : ... .. . ... : F#3 09 F ... : ... .. . ... : D#3 07 . ...
ROW 41 : ... .. 1 ... : ... .. 1 ... : --- 00 . ... : ... .. . ... : ... .. . ... : ... .. . ... : ... .. . ... : ... .. . ...
ROW 42 : ... .. 2 ... : ... .. 2 ... : D#2 00 . ... : 9-# 03 . ... : ... .. . ... : F-3 09 C ... : D#3 07 . ... : ... .. . ...
ROW 43 : ... .. 3 ... : ... .. 3 ... : --- 00 . ... : ... .. . ... : ... .. . ... : ... .. . ... : ... .. . ... : ... .. . ...
ROW 44 : ... .. 4 ... : ... .. 4 ... : D#2 00 . ... : ... .. . ... : ... .. . ... : D#3 09 A ... : ... .. . ... : ... .. . ...
ROW 45 : ... .. 5 ... : ... .. 5 ... : --- 00 . ... : ... .. . ... : ... .. . ... : ... .. . ... : ... .. . ... : ... .. . ...
ROW 46 : ... .. 6 ... : ... .. 6 ... : D#2 00 . ... : 9-# 03 . ... : ... .. . ... : F#3 09 9 ... : ... .. . ... : F-3 07 . ...
ROW 47 : ... .. 7 ... : ... .. 7 ... : --- 00 . ... : ... .. . ... : ... .. . ... : ... .. . ... : ... .. . ... : ... .. . ...
ROW 48 : ... .. 8 ... : ... .. 8 ... : D#3 00 . ... : 4-# 03 8 ... : ... .. . ... : F-3 09 F ... : F-3 07 . ... : ... .. . ...
ROW 49 : ... .. 9 ... : ... .. 9 ... : --- .. . ... : ... .. . ... : ... .. . ... : ... .. . ... : ... .. . ... : ... .. . ...
ROW 4A : ... .. A ... : ... .. A ... : D#2 00 . ... : ... .. . ... : ... .. . ... : D#3 09 C ... : ... .. . ... : ... .. . ...
ROW 4B : ... .. B ... : ... .. B ... : --- .. . ... : ... .. . ... : ... .. . ... : ... .. . ... : ... .. . ... : ... .. . ...
ROW 4C : ... .. C ... : ... .. C ... : D#2 00 . ... : 9-# 03 4 ... : ... .. . ... : F#3 09 A ... : ... .. . ... : F#3 07 . ...
ROW 4D : ... .. D ... : ... .. D ... : --- .. . ... : ... .. . ... : ... .. . ... : ... .. . ... : ... .. . ... : ... .. . ...
ROW 4E : ... .. E ... : ... .. E ... : D#2 00 . ... : ... .. . ... : ... .. . ... : F-3 09 9 ... : F#3 07 . ... : ... .. . ...
ROW 4F : ... .. F ... : ... .. F ... : --- .. . ... : ... .. . ... : ... .. . ... : ... .. . ... : ... .. . ... : ... .. . ...
ROW 50 : ... .. E ... : ... .. E ... : D#2 00 . ... : 9-# 03 4 ... : ... .. . ... : D#3 09 F ... : ... .. . ... : D#3 07 . ...
ROW 51 : ... .. D ... : ... .. D ... : --- .. . ... : ... .. . ... : ... .. . ... : ... .. . ... : ... .. . ... : ... .. . ...
ROW 52 : ... .. C ... : ... .. C ... : D#2 00 . ... : ... .. . ... : ... .. . ... : F#3 09 C ... : D#3 07 . ... : ... .. . ...
ROW 53 : ... .. B ... : ... .. B ... : --- .. . ... : ... .. . ... : ... .. . ... : ... .. . ... : ... .. . ... : ... .. . ...
ROW 54 : ... .. A ... : ... .. A ... : D#2 00 . ... : 9-# 03 . ... : ... .. . ... : F-3 09 A ... : ... .. . ... : ... .. . ...
ROW 55 : ... .. 9 ... : ... .. 9 ... : --- .. . ... : ... .. . ... : ... .. . ... : ... .. . ... : ... .. . ... : ... .. . ...
ROW 56 : ... .. 8 ... : ... .. 8 ... : D#2 00 . ... : ... .. . ... : ... .. . ... : D#3 09 9 ... : ... .. . ... : F-3 07 . ...
ROW 57 : ... .. 7 ... : ... .. 7 ... : --- .. . ... : ... .. . ... : ... .. . ... : ... .. . ... : ... .. . ... : ... .. . ...
ROW 58 : ... .. 6 ... : ... .. 6 ... : D#3 00 . ... : 4-# 03 8 ... : ... .. . ... : F#3 09 F ... : F-3 07 . ... : ... .. . ...
ROW 59 : ... .. 5 ... : ... .. 5 ... : --- .. . ... : ... .. . ... : ... .. . ... : ... .. . ... : ... .. . ... : ... .. . ...
ROW 5A : ... .. 4 ... : ... .. 4 ... : D#2 00 . ... : ... .. . ... : ... .. . ... : F-3 09 C ... : ... .. . ... : ... .. . ...
ROW 5B : ... .. 3 ... : ... .. 3 ... : --- .. . ... : ... .. . ... : ... .. . ... : ... .. . ... : ... .. . ... : ... .. . ...
ROW 5C : ... .. 2 ... : ... .. 2 ... : D#2 00 . ... : ... .. . ... : ... .. . ... : D#3 09 A ... : ... .. . ... : F#3 07 . ...
ROW 5D : ... .. 1 ... : ... .. 1 ... : --- .. . ... : ... .. . ... : ... .. . ... : ... .. . ... : ... .. . ... : ... .. . ...
ROW 5E : ... .. 0 ... : ... .. 0 ... : D#2 00 . ... : 9-# 03 4 ... : ... .. . ... : F#3 09 9 ... : F#3 07 . ... : ... .. . ...
ROW 5F : ... .. . ... : ... .. . ... : --- .. . ... : ... .. . ... : ... .. . ... : ... .. . ... : ... .. . ... : ... .. . ...
ROW 60 : G-2 00 0 ... : A#2 00 0 ... : D-2 00 . ... : 9-# 03 4 ... : ... .. . ... : A#3 09 F ... : ... .. . ... : A#3 07 . ...
ROW 61 : ... .. 1 ... : ... .. 1 ... : --- .. . ... : ... .. . ... : ... .. . ... : ... .. . ... : ... .. . ... : ... .. . ...
ROW 62 : ... .. 2 ... : ... .. 2 ... : D-2 00 . ... : 9-# 03 . ... : ... .. . ... : G#3 09 C ... : A#3 07 . ... : ... .. . ...
ROW 63 : ... .. 3 ... : ... .. 3 ... : --- .. . ... : ... .. . ... : ... .. . ... : ... .. . ... : ... .. . ... : ... .. . ...
ROW 64 : ... .. 4 ... : ... .. 4 ... : D-2 00 . ... : ... .. . ... : ... .. . ... : G-3 09 A ... : ... .. . ... : ... .. . ...
ROW 65 : ... .. 5 ... : ... .. 5 ... : --- .. . ... : ... .. . ... : ... .. . ... : ... .. . ... : ... .. . ... : ... .. . ...
ROW 66 : ... .. 6 ... : ... .. 6 ... : D-2 00 . ... : 9-# 03 . ... : ... .. . ... : A#3 09 9 ... : ... .. . ... : ... .. . ...
ROW 67 : ... .. 7 ... : ... .. 7 ... : --- .. . ... : ... .. . ... : ... .. . ... : ... .. . ... : ... .. . ... : ... .. . ...
ROW 68 : ... .. 8 ... : ... .. 8 ... : D-3 00 . ... : 4-# 03 8 ... : ... .. . ... : G#3 09 F ... : ... .. . ... : G#3 07 . ...
ROW 69 : ... .. 9 ... : ... .. 9 ... : --- .. . ... : ... .. . ... : ... .. . ... : ... .. . ... : ... .. . ... : ... .. . ...
ROW 6A : ... .. A ... : ... .. A ... : D-2 00 . ... : ... .. . ... : ... .. . ... : G-3 09 C ... : G#3 07 . ... : ... .. . ...
ROW 6B : ... .. B ... : ... .. B ... : --- .. . ... : ... .. . ... : ... .. . ... : ... .. . ... : ... .. . ... : ... .. . ...
ROW 6C : ... .. C ... : ... .. C ... : D-2 00 . ... : 9-# 03 4 ... : ... .. . ... : A#3 09 A ... : ... .. . ... : ... .. . ...
ROW 6D : ... .. D ... : ... .. D ... : --- .. . ... : ... .. . ... : ... .. . ... : ... .. . ... : ... .. . ... : ... .. . ...
ROW 6E : ... .. E ... : ... .. E ... : D-2 00 . ... : ... .. . ... : ... .. . ... : G#3 09 9 ... : ... .. . ... : ... .. . ...
ROW 6F : ... .. F ... : ... .. F ... : --- .. . ... : ... .. . ... : ... .. . ... : ... .. . ... : ... .. . ... : ... .. . ...
ROW 70 : ... .. E ... : ... .. E ... : D-2 00 . ... : 9-# 03 4 ... : ... .. . ... : G-3 09 F ... : ... .. . ... : G-3 07 . ...
ROW 71 : ... .. D ... : ... .. D ... : --- .. . ... : ... .. . ... : ... .. . ... : ... .. . ... : ... .. . ... : ... .. . ...
ROW 72 : ... .. C ... : ... .. C ... : D-2 00 . ... : ... .. . ... : ... .. . ... : A#3 09 C ... : G-3 07 . ... : ... .. . ...
ROW 73 : ... .. B ... : ... .. B ... : --- .. . ... : ... .. . ... : ... .. . ... : ... .. . ... : ... .. . ... : ... .. . ...
ROW 74 : ... .. A ... : ... .. A ... : D-2 00 . ... : 9-# 03 . ... : ... .. . ... : G#3 09 A ... : ... .. . ... : ... .. . ...
ROW 75 : ... .. 9 ... : ... .. 9 ... : --- .. . ... : ... .. . ... : ... .. . ... : ... .. . ... : ... .. . ... : ... .. . ...
ROW 76 : ... .. 8 ... : ... .. 8 ... : D-2 00 . ... : ... .. . ... : ... .. . ... : G-3 09 9 ... : ... .. . ... : ... .. . ...
ROW 77 : ... .. 7 ... : ... .. 7 ... : --- .. . ... : ... .. . ... : ... .. . ... : ... .. . ... : ... .. . ... : ... .. . ...
ROW 78 : ... .. 6 ... : D-3 00 6 ... : D-3 00 . ... : 4-# 03 8 ... : ... .. . ... : A#3 09 F ... : ... .. . ... : D-3 07 . ...
ROW 79 : ... .. 5 ... : ... .. 5 ... : --- .. . ... : ... .. . ... : ... .. . ... : ... .. . ... : ... .. . ... : ... .. . ...
ROW 7A : ... .. 4 ... : ... .. 4 ... : D-2 00 . ... : ... .. . ... : ... .. . ... : G#3 09 C ... : D-3 07 . ... : ... .. . ...
ROW 7B : ... .. 3 ... : ... .. 3 ... : --- .. . ... : ... .. . ... : ... .. . ... : ... .. . ... : ... .. . ... : ... .. . ...
ROW 7C : ... .. 2 ... : ... .. 2 ... : D-2 00 . ... : ... .. . ... : ... .. . ... : G-3 09 A ... : ... .. . ... : ... .. . ...
ROW 7D : ... .. 1 ... : ... .. 1 ... : --- .. . ... : ... .. . ... : ... .. . ... : ... .. . ... : ... .. . ... : ... .. . ...
ROW 7E : ... .. 0 ... : ... .. 0 ... : D-2 00 . ... : 9-# 03 4 ... : ... .. . ... : A#3 09 9 ... : ... .. . ... : ... .. . ...
ROW 7F : ... .. . ... : ... .. . ... : --- .. . ... : ... .. . ... : ... .. . ... : ... .. . ... : ... .. . ... : ... .. . ...

PATTERN 08
ROW 00 : G-2 00 8 ... : B-2 00 8 ... : D-3 00 . ... : 4-# 03 8 ... : ... .. . ... : D-3 09 F ... : ... .. . ... : ... .. . ...
ROW 01 : ... .. 9 ... : ... .. 9 ... : --- .. . ... : ... .. . ... : ... .. . ... : ... .. . ... : ... .. . ... : ... .. . ...
ROW 02 : ... .. A ... : ... .. A ... : D-2 00 . ... : ... .. . ... : ... .. . ... : B-2 09 C ... : ... .. . ... : ... .. . ...
ROW 03 : ... .. B ... : ... .. B ... : --- .. . ... : ... .. . ... : ... .. . ... : ... .. . ... : ... .. . ... : ... .. . ...
ROW 04 : ... .. C ... : ... .. C ... : D-2 00 . ... : 9-# 03 4 ... : ... .. . ... : G-3 09 A ... : ... .. . ... : ... .. . ...
ROW 05 : ... .. D ... : ... .. D ... : --- .. . ... : ... .. . ... : ... .. . ... : ... .. . ... : ... .. . ... : ... .. . ...
ROW 06 : ... .. E ... : ... .. E ... : D-2 00 . ... : ... .. . ... : ... .. . ... : D-3 09 9 ... : ... .. . ... : ... .. . ...
ROW 07 : ... .. F ... : ... .. F ... : --- .. . ... : ... .. . ... : ... .. . ... : ... .. . ... : ... .. . ... : ... .. . ...
ROW 08 : ... .. E ... : ... .. E ... : D-2 00 . ... : 4-# 03 C ... : ... .. . ... : B-2 09 F ... : ... .. . ... : ... .. . ...
ROW 09 : ... .. D ... : ... .. D ... : --- .. . ... : ... .. . ... : ... .. . ... : ... .. . ... : ... .. . ... : ... .. . ...
ROW 0A : ... .. C ... : ... .. C ... : D-2 00 . ... : 4-# 03 A ... : ... .. . ... : G-3 09 C ... : ... .. . ... : ... .. . ...
ROW 0B : ... .. B ... : ... .. B ... : --- .. . ... : ... .. . ... : ... .. . ... : ... .. . ... : ... .. . ... : ... .. . ...
ROW 0C : ... .. A ... : ... .. A ... : D-2 00 . ... : 5-# 03 . ... : ... .. . ... : D-3 09 A ... : ... .. . ... : G-3 07 C ...
ROW 0D : ... .. 9 ... : ... .. 9 ... : --- .. . ... : ... .. . ... : ... .. . ... : ... .. . ... : ... .. . ... : ... .. . ...
ROW 0E : ... .. 8 ... : ... .. 8 ... : D-2 00 . ... : 9-# 03 C ... : ... .. . ... : B-2 09 9 ... : G-3 07 5 ... : ... .. . ...
ROW 0F : ... .. 7 ... : ... .. 7 ... : --- .. . ... : ... .. . ... : ... .. . ... : ... .. . ... : ... .. . ... : ... .. . ...
ROW 10 : ... .. 6 ... : ... .. 6 ... : D-3 00 . ... : 4-# 03 F ... : ... .. . ... : G-3 09 F ... : ... .. . ... : C-4 07 . ...
ROW 11 : ... .. 5 ... : ... .. 5 ... : --- .. . ... : ... .. . ... : ... .. . ... : ... .. . ... : ... .. . ... : ... .. . ...
ROW 12 : ... .. 4 ... : ... .. 4 ... : D-2 00 . ... : 4-# 03 . ... : ... .. . ... : D-3 09 C ... : C-4 07 . ... : ... .. . ...
ROW 13 : ... .. 3 ... : ... .. 3 ... : --- .. . ... : ... .. . ... : ... .. . ... : ... .. . ... : ... .. . ... : ... .. . ...
ROW 14 : ... .. 2 ... : ... .. 2 ... : D-2 00 . ... : 5-# 03 . ... : ... .. . ... : B-2 09 A ... : ... .. . ... : D-4 07 . ...
ROW 15 : ... .. 1 ... : ... .. 1 ... : --- .. . ... : ... .. . ... : ... .. . ... : ... .. . ... : ... .. . ... : ... .. . ...
ROW 16 : ... .. 0 ... : ... .. 0 ... : D-2 00 . ... : 9-# 03 C ... : ... .. . ... : G-3 09 9 ... : D-4 07 . ... : ... .. . ...
ROW 17 : ... .. 7 ... : ... .. . ... : --- .. . ... : ... .. . ... : ... .. . ... : ... .. . D00 : ... .. . ... : ... .. . ...
ROW 18 : ... .. . ... : ... .. . ... : ... .. . ... : ... .. . ... : ... .. . ... : ... .. . ... : ... .. . ... : ... .. . ...
ROW 19 : ... .. . ... : ... .. . ... : ... .. . ... : ... .. . ... : ... .. . ... : ... .. . ... : ... .. . ... : ... .. . ...
ROW 1A : ... .. . ... : ... .. . ... : ... .. . ... : ... .. . ... : ... .. . ... : ... .. . ... : ... .. . ... : ... .. . ...
ROW 1B : ... .. . ... : ... .. . ... : ... .. . ... : ... .. . ... : ... .. . ... : ... .. . ... : ... .. . ... : ... .. . ...
ROW 1C : ... .. . ... : ... .. . ... : ... .. . ... : ... .. . ... : ... .. . ... : ... .. . ... : ... .. . ... : ... .. . ...
ROW 1D : ... .. . ... : ... .. . ... : ... .. . ... : ... .. . ... : ... .. . ... : ... .. . ... : ... .. . ... : ... .. . ...
ROW 1E : ... .. . ... : ... .. . ... : ... .. . ... : ... .. . ... : ... .. . ... : ... .. . ... : ... .. . ... : ... .. . ...
ROW 1F : ... .. . ... : ... .. . ... : ... .. . ... : ... .. . ... : ... .. . ... : ... .. . ... : ... .. . ... : ... .. . ...
ROW 20 : ... .. . ... : ... .. . ... : ... .. . ... : ... .. . ... : ... .. . ... : ... .. . ... : ... .. . ... : ... .. . ...
ROW 21 : ... .. . ... : ... .. . ... : ... .. . ... : ... .. . ... : ... .. . ... : ... .. . ... : ... .. . ... : ... .. . ...
ROW 22 : ... .. . ... : ... .. . ... : ... .. . ... : ... .. . ... : ... .. . ... : ... .. . ... : ... .. . ... : ... .. . ...
ROW 23 : ... .. . ... : ... .. . ... : ... .. . ... : ... .. . ... : ... .. . ... : ... .. . ... : ... .. . ... : ... .. . ...
ROW 24 : ... .. . ... : ... .. . ... : ... .. . ... : ... .. . ... : ... .. . ... : ... .. . ... : ... .. . ... : ... .. . ...
ROW 25 : ... .. . ... : ... .. . ... : ... .. . ... : ... .. . ... : ... .. . ... : ... .. . ... : ... .. . ... : ... .. . ...
ROW 26 : ... .. . ... : ... .. . ... : ... .. . ... : ... .. . ... : ... .. . ... : ... .. . ... : ... .. . ... : ... .. . ...
ROW 27 : ... .. . ... : ... .. . ... : ... .. . ... : ... .. . ... : ... .. . ... : ... .. . ... : ... .. . ... : ... .. . ...
ROW 28 : ... .. . ... : ... .. . ... : ... .. . ... : ... .. . ... : ... .. . ... : ... .. . ... : ... .. . ... : ... .. . ...
ROW 29 : ... .. . ... : ... .. . ... : ... .. . ... : ... .. . ... : ... .. . ... : ... .. . ... : ... .. . ... : ... .. . ...
ROW 2A : ... .. . ... : ... .. . ... : ... .. . ... : ... .. . ... : ... .. . ... : ... .. . ... : ... .. . ... : ... .. . ...
ROW 2B : ... .. . ... : ... .. . ... : ... .. . ... : ... .. . ... : ... .. . ... : ... .. . ... : ... .. . ... : ... .. . ...
ROW 2C : ... .. . ... : ... .. . ... : ... .. . ... : ... .. . ... : ... .. . ... : ... .. . ... : ... .. . ... : ... .. . ...
ROW 2D : ... .. . ... : ... .. . ... : ... .. . ... : ... .. . ... : ... .. . ... : ... .. . ... : ... .. . ... : ... .. . ...
ROW 2E : ... .. . ... : ... .. . ... : ... .. . ... : ... .. . ... : ... .. . ... : ... .. . ... : ... .. . ... : ... .. . ...
ROW 2F : ... .. . ... : ... .. . ... : ... .. . ... : ... .. . ... : ... .. . ... : ... .. . ... : ... .. . ... : ... .. . ...
ROW 30 : ... .. . ... : ... .. . ... : ... .. . ... : ... .. . ... : ... .. . ... : ... .. . ... : ... .. . ... : ... .. . ...
ROW 31 : ... .. . ... : ... .. . ... : ... .. . ... : ... .. . ... : ... .. . ... : ... .. . ... : ... .. . ... : ... .. . ...
ROW 32 : ... .. . ... : ... .. . ... : ... .. . ... : ... .. . ... : ... .. . ... : ... .. . ... : ... .. . ... : ... .. . ...
ROW 33 : ... .. . ... : ... .. . ... : ... .. . ... : ... .. . ... : ... .. . ... : ... .. . ... : ... .. . ... : ... .. . ...
ROW 34 : ... .. . ... : ... .. . ... : ... .. . ... : ... .. . ... : ... .. . ... : ... .. . ... : ... .. . ... : ... .. . ...
ROW 35 : ... .. . ... : ... .. . ... : ... .. . ... : ... .. . ... : ... .. . ... : ... .. . ... : ... .. . ... : ... .. . ...
ROW 36 : ... .. . ... : ... .. . ... : ... .. . ... : ... .. . ... : ... .. . ... : ... .. . ... : ... .. . ... : ... .. . ...
ROW 37 : ... .. . ... : ... .. . ... : ... .. . ... : ... .. . ... : ... .. . ... : ... .. . ... : ... .. . ... : ... .. . ...
ROW 38 : ... .. . ... : ... .. . ... : ... .. . ... : ... .. . ... : ... .. . ... : ... .. . ... : ... .. . ... : ... .. . ...
ROW 39 : ... .. . ... : ... .. . ... : ... .. . ... : ... .. . ... : ... .. . ... : ... .. . ... : ... .. . ... : ... .. . ...
ROW 3A : ... .. . ... : ... .. . ... : ... .. . ... : ... .. . ... : ... .. . ... : ... .. . ... : ... .. . ... : ... .. . ...
ROW 3B : ... .. . ... : ... .. . ... : ... .. . ... : ... .. . ... : ... .. . ... : ... .. . ... : ... .. . ... : ... .. . ...
ROW 3C : ... .. . ... : ... .. . ... : ... .. . ... : ... .. . ... : ... .. . ... : ... .. . ... : ... .. . ... : ... .. . ...
ROW 3D : ... .. . ... : ... .. . ... : ... .. . ... : ... .. . ... : ... .. . ... : ... .. . ... : ... .. . ... : ... .. . ...
ROW 3E : ... .. . ... : ... .. . ... : ... .. . ... : ... .. . ... : ... .. . ... : ... .. . ... : ... .. . ... : ... .. . ...
ROW 3F : ... .. . ... : ... .. . ... : ... .. . ... : ... .. . ... : ... .. . ... : ... .. . ... : ... .. . ... : ... .. . ...
ROW 40 : ... .. . ... : ... .. . ... : ... .. . ... : ... .. . ... : ... .. . ... : ... .. . ... : ... .. . ... : ... .. . ...
ROW 41 : ... .. . ... : ... .. . ... : ... .. . ... : ... .. . ... : ... .. . ... : ... .. . ... : ... .. . ... : ... .. . ...
ROW 42 : ... .. . ... : ... .. . ... : ... .. . ... : ... .. . ... : ... .. . ... : ... .. . ... : ... .. . ... : ... .. . ...
ROW 43 : ... .. . ... : ... .. . ... : ... .. . ... : ... .. . ... : ... .. . ... : ... .. . ... : ... .. . ... : ... .. . ...
ROW 44 : ... .. . ... : ... .. . ... : ... .. . ... : ... .. . ... : ... .. . ... : ... .. . ... : ... .. . ... : ... .. . ...
ROW 45 : ... .. . ... : ... .. . ... : ... .. . ... : ... .. . ... : ... .. . ... : ... .. . ... : ... .. . ... : ... .. . ...
ROW 46 : ... .. . ... : ... .. . ... : ... .. . ... : ... .. . ... : ... .. . ... : ... .. . ... : ... .. . ... : ... .. . ...
ROW 47 : ... .. . ... : ... .. . ... : ... .. . ... : ... .. . ... : ... .. . ... : ... .. . ... : ... .. . ... : ... .. . ...
ROW 48 : ... .. . ... : ... .. . ... : ... .. . ... : ... .. . ... : ... .. . ... : ... .. . ... : ... .. . ... : ... .. . ...
ROW 49 : ... .. . ... : ... .. . ... : ... .. . ... : ... .. . ... : ... .. . ... : ... .. . ... : ... .. . ... : ... .. . ...
ROW 4A : ... .. . ... : ... .. . ... : ... .. . ... : ... .. . ... : ... .. . ... : ... .. . ... : ... .. . ... : ... .. . ...
ROW 4B : ... .. . ... : ... .. . ... : ... .. . ... : ... .. . ... : ... .. . ... : ... .. . ... : ... .. . ... : ... .. . ...
ROW 4C : ... .. . ... : ... .. . ... : ... .. . ... : ... .. . ... : ... .. . ... : ... .. . ... : ... .. . ... : ... .. . ...
ROW 4D : ... .. . ... : ... .. . ... : ... .. . ... : ... .. . ... : ... .. . ... : ... .. . ... : ... .. . ... : ... .. . ...
ROW 4E : ... .. . ... : ... .. . ... : ... .. . ... : ... .. . ... : ... .. . ... : ... .. . ... : ... .. . ... : ... .. . ...
ROW 4F : ... .. . ... : ... .. . ... : ... .. . ... : ... .. . ... : ... .. . ... : ... .. . ... : ... .. . ... : ... .. . ...
ROW 50 : ... .. . ... : ... .. . ... : ... .. . ... : ... .. . ... : ... .. . ... : ... .. . ... : ... .. . ... : ... .. . ...
ROW 51 : ... .. . ... : ... .. . ... : ... .. . ... : ... .. . ... : ... .. . ... : ... .. . ... : ... .. . ... : ... .. . ...
ROW 52 : ... .. . ... : ... .. . ... : ... .. . ... : ... .. . ... : ... .. . ... : ... .. . ... : ... .. . ... : ... .. . ...
ROW 53 : ... .. . ... : ... .. . ... : ... .. . ... : ... .. . ... : ... .. . ... : ... .. . ... : ... .. . ... : ... .. . ...
ROW 54 : ... .. . ... : ... .. . ... : ... .. . ... : ... .. . ... : ... .. . ... : ... .. . ... : ... .. . ... : ... .. . ...
ROW 55 : ... .. . ... : ... .. . ... : ... .. . ... : ... .. . ... : ... .. . ... : ... .. . ... : ... .. . ... : ... .. . ...
ROW 56 : ... .. . ... : ... .. . ... : ... .. . ... : ... .. . ... : ... .. . ... : ... .. . ... : ... .. . ... : ... .. . ...
ROW 57 : ... .. . ... : ... .. . ... : ... .. . ... : ... .. . ... : ... .. . ... : ... .. . ... : ... .. . ... : ... .. . ...
ROW 58 : ... .. . ... : ... .. . ... : ... .. . ... : ... .. . ... : ... .. . ... : ... .. . ... : ... .. . ... : ... .. . ...
ROW 59 : ... .. . ... : ... .. . ... : ... .. . ... : ... .. . ... : ... .. . ... : ... .. . ... : ... .. . ... : ... .. . ...
ROW 5A : ... .. . ... : ... .. . ... : ... .. . ... : ... .. . ... : ... .. . ... : ... .. . ... : ... .. . ... : ... .. . ...
ROW 5B : ... .. . ... : ... .. . ... : ... .. . ... : ... .. . ... : ... .. . ... : ... .. . ... : ... .. . ... : ... .. . ...
ROW 5C : ... .. . ... : ... .. . ... : ... .. . ... : ... .. . ... : ... .. . ... : ... .. . ... : ... .. . ... : ... .. . ...
ROW 5D : ... .. . ... : ... .. . ... : ... .. . ... : ... .. . ... : ... .. . ... : ... .. . ... : ... .. . ... : ... .. . ...
ROW 5E : ... .. . ... : ... .. . ... : ... .. . ... : ... .. . ... : ... .. . ... : ... .. . ... : ... .. . ... : ... .. . ...
ROW 5F : ... .. . ... : ... .. . ... : ... .. . ... : ... .. . ... : ... .. . ... : ... .. . ... : ... .. . ... : ... .. . ...
ROW 60 : ... .. . ... : ... .. . ... : ... .. . ... : ... .. . ... : ... .. . ... : ... .. . ... : ... .. . ... : ... .. . ...
ROW 61 : ... .. . ... : ... .. . ... : ... .. . ... : ... .. . ... : ... .. . ... : ... .. . ... : ... .. . ... : ... .. . ...
ROW 62 : ... .. . ... : ... .. . ... : ... .. . ... : ... .. . ... : ... .. . ... : ... .. . ... : ... .. . ... : ... .. . ...
ROW 63 : ... .. . ... : ... .. . ... : ... .. . ... : ... .. . ... : ... .. . ... : ... .. . ... : ... .. . ... : ... .. . ...
ROW 64 : ... .. . ... : ... .. . ... : ... .. . ... : ... .. . ... : ... .. . ... : ... .. . ... : ... .. . ... : ... .. . ...
ROW 65 : ... .. . ... : ... .. . ... : ... .. . ... : ... .. . ... : ... .. . ... : ... .. . ... : ... .. . ... : ... .. . ...
ROW 66 : ... .. . ... : ... .. . ... : ... .. . ... : ... .. . ... : ... .. . ... : ... .. . ... : ... .. . ... : ... .. . ...
ROW 67 : ... .. . ... : ... .. . ... : ... .. . ... : ... .. . ... : ... .. . ... : ... .. . ... : ... .. . ... : ... .. . ...
ROW 68 : ... .. . ... : ... .. . ... : ... .. . ... : ... .. . ... : ... .. . ... : ... .. . ... : ... .. . ... : ... .. . ...
ROW 69 : ... .. . ... : ... .. . ... : ... .. . ... : ... .. . ... : ... .. . ... : ... .. . ... : ... .. . ... : ... .. . ...
ROW 6A : ... .. . ... : ... .. . ... : ... .. . ... : ... .. . ... : ... .. . ... : ... .. . ... : ... .. . ... : ... .. . ...
ROW 6B : ... .. . ... : ... .. . ... : ... .. . ... : ... .. . ... : ... .. . ... : ... .. . ... : ... .. . ... : ... .. . ...
ROW 6C : ... .. . ... : ... .. . ... : ... .. . ... : ... .. . ... : ... .. . ... : ... .. . ... : ... .. . ... : ... .. . ...
ROW 6D : ... .. . ... : ... .. . ... : ... .. . ... : ... .. . ... : ... .. . ... : ... .. . ... : ... .. . ... : ... .. . ...
ROW 6E : ... .. . ... : ... .. . ... : ... .. . ... : ... .. . ... : ... .. . ... : ... .. . ... : ... .. . ... : ... .. . ...
ROW 6F : ... .. . ... : ... .. . ... : ... .. . ... : ... .. . ... : ... .. . ... : ... .. . ... : ... .. . ... : ... .. . ...
ROW 70 : ... .. . ... : ... .. . ... : ... .. . ... : ... .. . ... : ... .. . ... : ... .. . ... : ... .. . ... : ... .. . ...
ROW 71 : ... .. . ... : ... .. . ... : ... .. . ... : ... .. . ... : ... .. . ... : ... .. . ... : ... .. . ... : ... .. . ...
ROW 72 : ... .. . ... : ... .. . ... : ... .. . ... : ... .. . ... : ... .. . ... : ... .. . ... : ... .. . ... : ... .. . ...
ROW 73 : ... .. . ... : ... .. . ... : ... .. . ... : ... .. . ... : ... .. . ... : ... .. . ... : ... .. . ... : ... .. . ...
ROW 74 : ... .. . ... : ... .. . ... : ... .. . ... : ... .. . ... : ... .. . ... : ... .. . ... : ... .. . ... : ... .. . ...
ROW 75 : ... .. . ... : ... .. . ... : ... .. . ... : ... .. . ... : ... .. . ... : ... .. . ... : ... .. . ... : ... .. . ...
ROW 76 : ... .. . ... : ... .. . ... : ... .. . ... : ... .. . ... : ... .. . ... : ... .. . ... : ... .. . ... : ... .. . ...
ROW 77 : ... .. . ... : ... .. . ... : ... .. . ... : ... .. . ... : ... .. . ... : ... .. . ... : ... .. . ... : ... .. . ...
ROW 78 : ... .. . ... : ... .. . ... : ... .. . ... : ... .. . ... : ... .. . ... : ... .. . ... : ... .. . ... : ... .. . ...
ROW 79 : ... .. . ... : ... .. . ... : ... .. . ... : ... .. . ... : ... .. . ... : ... .. . ... : ... .. . ... : ... .. . ...
ROW 7A : ... .. . ... : ... .. . ... : ... .. . ... : ... .. . ... : ... .. . ... : ... .. . ... : ... .. . ... : ... .. . ...
ROW 7B : ... .. . ... : ... .. . ... : ... .. . ... : ... .. . ... : ... .. . ... : ... .. . ... : ... .. . ... : ... .. . ...
ROW 7C : ... .. . ... : ... .. . ... : ... .. . ... : ... .. . ... : ... .. . ... : ... .. . ... : ... .. . ... : ... .. . ...
ROW 7D : ... .. . ... : ... .. . ... : ... .. . ... : ... .. . ... : ... .. . ... : ... .. . ... : ... .. . ... : ... .. . ...
ROW 7E : ... .. . ... : ... .. . ... : ... .. . ... : ... .. . ... : ... .. . ... : ... .. . ... : ... .. . ... : ... .. . ...
ROW 7F : ... .. . ... : ... .. . ... : ... .. . ... : ... .. . ... : ... .. . ... : ... .. . ... : ... .. . ... : ... .. . ...

PATTERN 09
ROW 00 : G-2 00 0 ... : ... .. . ... : C-2 00 . ... : 2-# 06 F ... : ... .. . ... : D#3 09 F ... : ... .. . ... : D#4 07 C ...
ROW 01 : C-2 00 1 ... : ... .. . ... : --- .. . ... : ... .. . ... : ... .. . ... : ... .. . ... : ... .. . ... : ... .. . ...
ROW 02 : G-2 00 2 ... : D#3 0D 4 ... : C-2 00 . ... : ... .. . ... : ... .. . ... : D-3 09 C ... : D#4 07 5 ... : ... .. . ...
ROW 03 : C-2 00 3 ... : ... .. . ... : --- .. . ... : ... .. . ... : ... .. . ... : ... .. . ... : ... .. . ... : ... .. . ...
ROW 04 : G-2 00 4 ... : D-3 0D 3 ... : C-2 00 . ... : ... .. . ... : ... .. . ... : C-3 09 A ... : ... .. . ... : ... .. . ...
ROW 05 : C-2 00 5 ... : ... .. . ... : --- .. . ... : ... .. . ... : ... .. . ... : ... .. . ... : ... .. . ... : ... .. . ...
ROW 06 : G-2 00 6 ... : C-3 0D 2 ... : C-2 00 . ... : ... .. . ... : ... .. . ... : D#3 09 9 ... : ... .. . ... : D-4 07 D ...
ROW 07 : C-2 00 7 ... : ... .. . ... : --- .. . ... : ... .. . ... : ... .. . ... : ... .. . ... : ... .. . ... : ... .. . ...
ROW 08 : G-2 00 8 ... : D#3 0D 1 ... : C-3 00 . ... : 4-# 03 8 ... : ... .. . ... : D-3 09 F ... : D-4 07 6 ... : ... .. . ...
ROW 09 : C-2 00 9 ... : ... .. . ... : --- 00 . ... : ... .. . ... : ... .. . ... : ... .. . ... : ... .. . ... : ... .. . ...
ROW 0A : G-2 00 A ... : D-3 0D 4 ... : C-2 00 . ... : ... .. . ... : ... .. . ... : C-3 09 C ... : ... .. . ... : ... .. . ...
ROW 0B : C-2 00 B ... : ... .. . ... : --- 00 . ... : ... .. . ... : ... .. . ... : ... .. . ... : ... .. . ... : ... .. . ...
ROW 0C : G-2 00 C ... : C-3 0D 3 ... : C-2 00 . ... : 9-# 03 4 ... : ... .. . ... : D#3 09 A ... : ... .. . ... : C-4 07 E ...
ROW 0D : C-2 00 D ... : ... .. . ... : --- 00 . ... : ... .. . ... : ... .. . ... : ... .. . ... : ... .. . ... : ... .. . ...
ROW 0E : G-2 00 E ... : D#3 0D 2 ... : C-2 00 . ... : ... .. . ... : ... .. . ... : D-3 09 9 ... : C-4 07 7 ... : ... .. . ...
ROW 0F : C-2 00 F ... : ... .. . ... : --- .. . ... : ... .. . ... : ... .. . ... : ... .. . ... : ... .. . ... : ... .. . ...
ROW 10 : G-2 00 E ... : D-3 0D 1 ... : C-2 00 . ... : 3-# 06 8 ... : ... .. . ... : C-3 09 F ... : ... .. . ... : G-3 07 F ...
ROW 11 : C-2 00 D ... : ... .. . ... : --- .. . ... : ... .. . ... : ... .. . ... : ... .. . ... : ... .. . ... : ... .. . ...
ROW 12 : G-2 00 C ... : C-3 0D 4 ... : C-2 00 . ... : ... .. . ... : ... .. . ... : D#3 09 C ... : G-3 07 8 ... : ... .. . ...
ROW 13 : C-2 00 B ... : ... .. . ... : --- .. . ... : ... .. . ... : ... .. . ... : ... .. . ... : ... .. . ... : ... .. . ...
ROW 14 : G-2 00 A ... : D#3 0D 3 ... : C-2 00 . ... : ... .. . ... : ... .. . ... : D-3 09 A ... : ... .. . ... : ... .. . ...
ROW 15 : C-2 00 9 ... : ... .. . ... : --- .. . ... : ... .. . ... : ... .. . ... : ... .. . ... : ... .. . ... : ... .. . ...
ROW 16 : G-2 00 8 ... : D-3 0D 2 ... : C-2 00 . ... : ... .. . ... : ... .. . ... : C-3 09 9 ... : ... .. . ... : ... .. . ...
ROW 17 : C-2 00 7 ... : ... .. . ... : --- .. . ... : ... .. . ... : ... .. . ... : ... .. . ... : ... .. . ... : ... .. . ...
ROW 18 : G-2 00 6 ... : C-3 0D 1 ... : C-3 00 . ... : 4-# 03 8 ... : ... .. . ... : D#3 09 F ... : ... .. . ... : ... .. . ...
ROW 19 : C-2 00 5 ... : ... .. . ... : --- .. . ... : ... .. . ... : ... .. . ... : ... .. . ... : ... .. . ... : ... .. . ...
ROW 1A : G-2 00 4 ... : D#3 0D 4 ... : C-2 00 . ... : ... .. . ... : ... .. . ... : D-3 09 C ... : ... .. . ... : ... .. . ...
ROW 1B : C-2 00 3 ... : ... .. . ... : --- .. . ... : ... .. . ... : ... .. . ... : ... .. . ... : ... .. . ... : ... .. . ...
ROW 1C : G-2 00 2 ... : D-3 0D 3 ... : C-2 00 . ... : ... .. . ... : ... .. . ... : C-3 09 A ... : ... .. . ... : ... .. . ...
ROW 1D : C-2 00 1 ... : ... .. . ... : --- .. . ... : ... .. . ... : ... .. . ... : ... .. . ... : ... .. . ... : ... .. . ...
ROW 1E : G-2 00 . ... : C-3 0D 2 ... : C-2 00 . ... : 9-# 03 4 ... : ... .. . ... : D#3 09 9 ... : ... .. . ... : ... .. . ...
ROW 1F : C-2 00 . ... : ... .. . ... : --- .. . ... : ... .. . ... : ... .. . ... : ... .. . ... : ... .. . ... : ... .. . ...
ROW 20 : G-2 00 0 ... : D#3 0D 1 ... : C-2 00 . ... : 4-# 06 6 ... : ... .. . ... : D-3 09 F ... : ... .. . ... : ... .. . ...
ROW 21 : D#2 00 1 ... : ... .. . ... : --- 00 . ... : ... .. . ... : ... .. . ... : ... .. . ... : ... .. . ... : ... .. . ...
ROW 22 : G-2 00 2 ... : D-3 0D 4 ... : C-2 00 . ... : ... .. . ... : ... .. . ... : C-3 09 C ... : ... .. . ... : ... .. . ...
ROW 23 : D#2 00 3 ... : ... .. . ... : --- 00 . ... : ... .. . ... : ... .. . ... : ... .. . ... : ... .. . ... : ... .. . ...
ROW 24 : G-2 00 4 ... : C-3 0D 3 ... : C-2 00 . ... : ... .. . ... : ... .. . ... : D#3 09 A ... : ... .. . ... : ... .. . ...
ROW 25 : D#2 00 5 ... : ... .. . ... : --- 00 . ... : ... .. . ... : ... .. . ... : ... .. . ... : ... .. . ... : ... .. . ...
ROW 26 : G-2 00 6 ... : D#3 0D 2 ... : C-2 00 . ... : ... .. . ... : ... .. . ... : D-3 09 9 ... : ... .. . ... : ... .. . ...
ROW 27 : D#2 00 7 ... : ... .. . ... : --- 00 . ... : ... .. . ... : ... .. . ... : ... .. . ... : ... .. . ... : ... .. . ...
ROW 28 : G-2 00 8 ... : D-3 0D 1 ... : C-3 00 . ... : 4-# 03 8 ... : ... .. . ... : C-3 09 F ... : ... .. . ... : ... .. . ...
ROW 29 : D#2 00 9 ... : ... .. . ... : --- 00 . ... : ... .. . ... : ... .. . ... : ... .. . ... : ... .. . ... : ... .. . ...
ROW 2A : G-2 00 A ... : C-3 0D 4 ... : C-2 00 . ... : ... .. . ... : ... .. . ... : D#3 09 C ... : ... .. . ... : ... .. . ...
ROW 2B : D#2 00 B ... : ... .. . ... : --- 00 . ... : ... .. . ... : ... .. . ... : ... .. . ... : ... .. . ... : ... .. . ...
ROW 2C : G-2 00 C ... : D#3 0D 3 ... : C-2 00 . ... : 9-# 03 4 ... : ... .. . ... : D-3 09 A ... : ... .. . ... : F-3 07 C ...
ROW 2D : D#2 00 D ... : ... .. . ... : --- 00 . ... : ... .. . ... : ... .. . ... : ... .. . ... : ... .. . ... : ... .. . ...
ROW 2E : G-2 00 E ... : D-3 0D 2 ... : C-2 00 . ... : ... .. . ... : ... .. . ... : C-3 09 9 ... : F-3 07 6 ... : ... .. . ...
ROW 2F : D#2 00 F ... : ... .. . ... : --- 00 . ... : ... .. . ... : ... .. . ... : ... .. . ... : ... .. . ... : ... .. . ...
ROW 30 : G-2 00 E ... : C-3 0D 1 ... : C-2 00 . ... : 3-# 06 8 ... : ... .. . ... : D#3 09 F ... : ... .. . ... : G-3 07 F ...
ROW 31 : D#2 00 D ... : ... .. . ... : --- 00 . ... : ... .. . ... : ... .. . ... : ... .. . ... : ... .. . ... : ... .. . ...
ROW 32 : G-2 00 C ... : D#3 0D 4 ... : C-2 00 . ... : ... .. . ... : ... .. . ... : D-3 09 C ... : G-3 07 8 ... : ... .. . ...
ROW 33 : D#2 00 B ... : ... .. . ... : --- 00 . ... : ... .. . ... : ... .. . ... : ... .. . ... : ... .. . ... : ... .. . ...
ROW 34 : G-2 00 A ... : D-3 0D 3 ... : C-2 00 . ... : ... .. . ... : ... .. . ... : C-3 09 A ... : ... .. . ... : ... .. . ...
ROW 35 : D#2 00 9 ... : ... .. . ... : --- 00 . ... : ... .. . ... : ... .. . ... : ... .. . ... : ... .. . ... : ... .. . ...
ROW 36 : G-2 00 8 ... : C-3 0D 2 ... : C-2 00 . ... : ... .. . ... : ... .. . ... : D#3 09 9 ... : ... .. . ... : G#3 07 . ...
ROW 37 : D#2 00 7 ... : ... .. . ... : --- 00 . ... : ... .. . ... : ... .. . ... : ... .. . ... : ... .. . ... : ... .. . ...
ROW 38 : G-2 00 6 ... : D#3 0D 1 ... : C-3 00 . ... : 4-# 03 8 ... : ... .. . ... : D-3 09 F ... : G#3 07 . ... : ... .. . ...
ROW 39 : D#2 00 5 ... : ... .. . ... : --- 00 . ... : ... .. . ... : ... .. . ... : ... .. . ... : ... .. . ... : ... .. . ...
ROW 3A : G-2 00 4 ... : D-3 0D 4 ... : C-2 00 . ... : ... .. . ... : ... .. . ... : C-3 09 C ... : ... .. . ... : ... .. . ...
ROW 3B : D#2 00 3 ... : ... .. . ... : --- 00 . ... : ... .. . ... : ... .. . ... : ... .. . ... : ... .. . ... : ... .. . ...
ROW 3C : G-2 00 2 ... : C-3 0D 3 ... : C-2 00 . ... : ... .. . ... : ... .. . ... : F-3 09 A ... : ... .. . ... : F#3 07 . ...
ROW 3D : D#2 00 1 ... : ... .. . ... : --- 00 . ... : ... .. . ... : ... .. . ... : ... .. . ... : ... .. . ... : ... .. . ...
ROW 3E : G-2 00 . ... : F-3 0D 2 ... : C-2 00 . ... : 9-# 03 4 ... : ... .. . ... : D#3 09 9 ... : F#3 07 . ... : ... .. . ...
ROW 3F : D#2 00 . ... : ... .. . ... : --- 00 . ... : ... .. . ... : ... .. . ... : ... .. . ... : ... .. . ... : ... .. . ...
ROW 40 : F#2 00 0 ... : D#3 0D 1 ... : D#2 00 . ... : 2-# 06 A ... : ... .. . ... : F#3 09 F ... : ... .. 8 ... : ... .. F ...
ROW 41 : D#2 00 1 ... : ... .. . ... : --- 00 . ... : ... .. . ... : ... .. . ... : ... .. . ... : ... .. 7 ... : ... .. E ...
ROW 42 : F#2 00 2 ... : F#3 0D 4 ... : D#2 00 . ... : ... .. . ... : ... .. . ... : F-3 09 C ... : ... .. 7 ... : ... .. E ...
ROW 43 : D#2 00 3 ... : ... .. . ... : --- 00 . ... : ... .. . ... : ... .. . ... : ... .. . ... : ... .. 7 ... : ... .. D ...
ROW 44 : F#2 00 4 ... : F-3 0D 3 ... : D#2 00 . ... : ... .. . ... : ... .. . ... : D#3 09 A ... : ... .. 7 ... : ... .. D ...
ROW 45 : D#2 00 5 ... : ... .. . ... : --- 00 . ... : ... .. . ... : ... .. . ... : ... .. . ... : ... .. 6 ... : ... .. C ...
ROW 46 : F#2 00 6 ... : D#3 0D 2 ... : D#2 00 . ... : ... .. . ... : ... .. . ... : F#3 09 9 ... : ... .. 6 ... : ... .. C ...
ROW 47 : D#2 00 7 ... : ... .. . ... : --- 00 . ... : ... .. . ... : ... .. . ... : ... .. . ... : ... .. 6 ... : ... .. B ...
ROW 48 : F#2 00 8 ... : F#3 0D 1 ... : D#3 00 . ... : 4-# 03 8 ... : ... .. . ... : F-3 09 F ... : ... .. 6 ... : ... .. B ...
ROW 49 : D#2 00 9 ... : ... .. . ... : --- .. . ... : ... .. . ... : ... .. . ... : ... .. . ... : ... .. 5 ... : ... .. A ...
ROW 4A : F#2 00 A ... : F-3 0D 4 ... : D#2 00 . ... : ... .. . ... : ... .. . ... : D#3 09 C ... : ... .. 5 ... : ... .. A ...
ROW 4B : D#2 00 B ... : ... .. . ... : --- .. . ... : ... .. . ... : ... .. . ... : ... .. . ... : ... .. 5 ... : ... .. 9 ...
ROW 4C : F#2 00 C ... : D#3 0D 3 ... : D#2 00 . ... : 9-# 03 4 ... : ... .. . ... : F#3 09 A ... : ... .. 5 ... : ... .. 9 ...
ROW 4D : D#2 00 D ... : ... .. . ... : --- .. . ... : ... .. . ... : ... .. . ... : ... .. . ... : ... .. 4 ... : ... .. 8 ...
ROW 4E : F#2 00 E ... : F#3 0D 2 ... : D#2 00 . ... : ... .. . ... : ... .. . ... : F-3 09 9 ... : ... .. 4 ... : ... .. 8 ...
ROW 4F : D#2 00 F ... : ... .. . ... : --- .. . ... : ... .. . ... : ... .. . ... : ... .. . ... : ... .. 4 ... : ... .. 7 ...
ROW 50 : F#2 00 E ... : F-3 0D 1 ... : D#2 00 . ... : 3-# 06 8 ... : ... .. . ... : D#3 09 F ... : ... .. 4 ... : ... .. 7 ...
ROW 51 : D#2 00 D ... : ... .. . ... : --- .. . ... : ... .. . ... : ... .. . ... : ... .. . ... : ... .. 3 ... : ... .. 7 ...
ROW 52 : F#2 00 C ... : D#3 0D 4 ... : D#2 00 . ... : ... .. . ... : ... .. . ... : F#3 09 C ... : ... .. 3 ... : ... .. 6 ...
ROW 53 : D#2 00 B ... : ... .. . ... : --- .. . ... : ... .. . ... : ... .. . ... : ... .. . ... : ... .. 3 ... : ... .. 6 ...
ROW 54 : F#2 00 A ... : F#3 0D 3 ... : D#2 00 . ... : ... .. . ... : ... .. . ... : F-3 09 A ... : ... .. 3 ... : ... .. 5 ...
ROW 55 : D#2 00 9 ... : ... .. . ... : --- .. . ... : ... .. . ... : ... .. . ... : ... .. . ... : ... .. 2 ... : ... .. 5 ...
ROW 56 : F#2 00 8 ... : F-3 0D 2 ... : D#2 00 . ... : ... .. . ... : ... .. . ... : D#3 09 9 ... : ... .. 2 ... : ... .. 4 ...
ROW 57 : D#2 00 7 ... : ... .. . ... : --- .. . ... : ... .. . ... : ... .. . ... : ... .. . ... : ... .. 2 ... : ... .. 4 ...
ROW 58 : F#2 00 6 ... : D#3 0D 1 ... : D#3 00 . ... : 4-# 03 8 ... : ... .. . ... : F#3 09 F ... : ... .. 2 ... : ... .. 3 ...
ROW 59 : D#2 00 5 ... : ... .. . ... : --- .. . ... : ... .. . ... : ... .. . ... : ... .. . ... : ... .. 1 ... : ... .. 3 ...
ROW 5A : F#2 00 4 ... : F#3 0D 4 ... : D#2 00 . ... : ... .. . ... : ... .. . ... : F-3 09 C ... : ... .. 1 ... : ... .. 2 ...
ROW 5B : D#2 00 3 ... : ... .. . ... : --- .. . ... : ... .. . ... : ... .. . ... : ... .. . ... : ... .. 1 ... : ... .. 2 ...
ROW 5C : F#2 00 2 ... : F-3 0D 3 ... : D#2 00 . ... : ... .. . ... : ... .. . ... : D#3 09 A ... : ... .. 1 ... : ... .. 1 ...
ROW 5D : D#2 00 1 ... : ... .. . ... : --- .. . ... : ... .. . ... : ... .. . ... : ... .. . ... : ... .. 0 ... : ... .. 1 ...
ROW 5E : F#2 00 0 ... : D#3 0D 2 ... : D#2 00 . ... : 9-# 03 4 ... : ... .. . ... : F#3 09 9 ... : ... .. 0 ... : ... .. . ...
ROW 5F : D#2 00 . ... : ... .. . ... : --- .. . ... : ... .. . ... : ... .. . ... : ... .. . ... : ... .. 0 ... : ... .. . ...
ROW 60 : F#2 00 0 ... : F#3 0D 1 ... : D#2 00 . ... : 4-# 06 6 ... : ... .. . ... : F-3 09 F ... : ... .. 0 ... : ... .. . ...
ROW 61 : C-2 00 1 ... : ... .. . ... : --- .. . ... : ... .. . ... : ... .. . ... : ... .. . ... : ... .. . ... : ... .. . ...
ROW 62 : F#2 00 2 ... : F-3 0D 4 ... : D#2 00 . ... : ... .. . ... : ... .. . ... : D#3 09 C ... : ... .. . ... : ... .. . ...
ROW 63 : C-2 00 3 ... : ... .. . ... : --- .. . ... : ... .. . ... : ... .. . ... : ... .. . ... : ... .. . ... : ... .. . ...
ROW 64 : F#2 00 4 ... : D#3 0D 3 ... : D#2 00 . ... : ... .. . ... : ... .. . ... : F#3 09 A ... : ... .. . ... : ... .. . ...
ROW 65 : C-2 00 5 ... : ... .. . ... : --- .. . ... : ... .. . ... : ... .. . ... : ... .. . ... : ... .. . ... : ... .. . ...
ROW 66 : F#2 00 6 ... : F#3 0D 2 ... : D#2 00 . ... : ... .. . ... : ... .. . ... : F-3 09 9 ... : ... .. . ... : ... .. . ...
ROW 67 : C-2 00 7 ... : ... .. . ... : --- .. . ... : ... .. . ... : ... .. . ... : ... .. . ... : ... .. . ... : ... .. . ...
ROW 68 : F#2 00 8 ... : F-3 0D 1 ... : D#3 00 . ... : 4-# 03 8 ... : ... .. . ... : D#3 09 F ... : ... .. . ... : ... .. . ...
ROW 69 : C-2 00 9 ... : ... .. . ... : --- .. . ... : ... .. . ... : ... .. . ... : ... .. . ... : ... .. . ... : ... .. . ...
ROW 6A : F#2 00 A ... : D#3 0D 4 ... : D#2 00 . ... : ... .. . ... : ... .. . ... : F#3 09 C ... : ... .. . ... : ... .. . ...
ROW 6B : C-2 00 B ... : ... .. . ... : --- .. . ... : ... .. . ... : ... .. . ... : ... .. . ... : ... .. . ... : ... .. . ...
ROW 6C : F#2 00 C ... : F#3 0D 3 ... : D#2 00 . ... : 9-# 03 4 ... : ... .. . ... : F-3 09 A ... : ... .. . ... : ... .. . ...
ROW 6D : C-2 00 D ... : ... .. . ... : --- .. . ... : ... .. . ... : ... .. . ... : ... .. . ... : ... .. . ... : ... .. . ...
ROW 6E : F#2 00 E ... : F-3 0D 2 ... : D#2 00 . ... : ... .. . ... : ... .. . ... : D#3 09 9 ... : ... .. . ... : ... .. . ...
ROW 6F : C-2 00 F ... : ... .. . ... : --- .. . ... : ... .. . ... : ... .. . ... : ... .. . ... : ... .. . ... : ... .. . ...
ROW 70 : F#2 00 E ... : D#3 0D 1 ... : D#2 00 . ... : 3-# 06 8 ... : ... .. . ... : F#3 09 F ... : ... .. . ... : ... .. . ...
ROW 71 : C-2 00 D ... : ... .. . ... : --- .. . ... : ... .. . ... : ... .. . ... : ... .. . ... : ... .. . ... : ... .. . ...
ROW 72 : F#2 00 C ... : F#3 0D 4 ... : D#2 00 . ... : ... .. . ... : ... .. . ... : F-3 09 C ... : ... .. . ... : ... .. . ...
ROW 73 : C-2 00 B ... : ... .. . ... : --- .. . ... : ... .. . ... : ... .. . ... : ... .. . ... : ... .. . ... : ... .. . ...
ROW 74 : F#2 00 A ... : F-3 0D 3 ... : D#2 00 . ... : ... .. . ... : ... .. . ... : D#3 09 A ... : D#2 09 F ... : ... .. . ...
ROW 75 : C-2 00 9 ... : ... .. . ... : --- .. . ... : ... .. . ... : ... .. . ... : ... .. . ... : ... .. . ... : ... .. . ...
ROW 76 : F#2 00 8 ... : D#3 0D 2 ... : D#2 00 . ... : ... .. . ... : ... .. . ... : F#3 09 9 ... : ... .. . ... : ... .. . ...
ROW 77 : C-2 00 7 ... : ... .. . ... : --- .. . ... : ... .. . ... : ... .. . ... : ... .. . ... : ... .. . ... : ... .. . ...
ROW 78 : F#2 00 6 ... : F#3 0D 1 ... : D#3 00 . ... : 4-# 03 8 ... : ... .. . ... : F-3 09 F ... : D#2 09 . ... : ... .. . ...
ROW 79 : D#2 00 5 ... : ... .. . ... : --- .. . ... : ... .. . ... : ... .. . ... : ... .. . ... : ... .. . ... : ... .. . ...
ROW 7A : F#2 00 4 ... : F-3 0D 4 ... : D#2 00 . ... : ... .. . ... : ... .. . ... : D#3 09 C ... : ... .. . ... : ... .. . ...
ROW 7B : D#2 00 3 ... : ... .. . ... : --- .. . ... : ... .. . ... : ... .. . ... : ... .. . ... : ... .. . ... : ... .. . ...
ROW 7C : F#2 00 2 ... : D#3 0D 3 ... : D#2 00 . ... : ... .. . ... : ... .. . ... : F#3 09 A ... : F-2 09 . ... : ... .. . ...
ROW 7D : D#2 00 1 ... : ... .. . ... : --- .. . ... : ... .. . ... : ... .. . ... : ... .. . ... : ... .. . ... : ... .. . ...
ROW 7E : F#2 00 0 ... : F#3 0D 2 ... : D#2 00 . ... : 9-# 03 4 ... : ... .. . ... : F-3 09 9 ... : ... .. . ... : ... .. . ...
ROW 7F : D#2 00 . ... : ... .. . ... : --- .. . ... : ... .. . ... : ... .. . ... : ... .. . ... : ... .. . ... : ... .. . ...

PATTERN 0A
ROW 00 : G-2 00 0 ... : ... .. . ... : C-2 00 . ... : 2-# 06 A ... : ... .. . ... : D#3 09 F ... : ... .. . ... : G-3 07 F ...
ROW 01 : C-2 00 1 ... : ... .. . ... : --- .. . ... : ... .. . ... : ... .. . ... : ... .. . ... : ... .. . ... : ... .. . ...
ROW 02 : G-2 00 2 ... : D#3 0D 4 ... : C-2 00 . ... : ... .. . ... : ... .. . ... : D-3 09 C ... : G-3 07 9 ... : ... .. . ...
ROW 03 : C-2 00 3 ... : ... .. . ... : --- .. . ... : ... .. . ... : ... .. . ... : ... .. . ... : ... .. . ... : ... .. . ...
ROW 04 : G-2 00 4 ... : D-3 0D 3 ... : C-2 00 . ... : ... .. . ... : ... .. . ... : C-3 09 A ... : ... .. . ... : ... .. . ...
ROW 05 : C-2 00 5 ... : ... .. . ... : --- .. . ... : ... .. . ... : ... .. . ... : ... .. . ... : ... .. . ... : ... .. . ...
ROW 06 : G-2 00 6 ... : C-3 0D 2 ... : C-2 00 . ... : ... .. . ... : ... .. . ... : D#3 09 9 ... : ... .. . ... : C-3 07 . ...
ROW 07 : C-2 00 7 ... : ... .. . ... : --- .. . ... : ... .. . ... : ... .. . ... : ... .. . ... : ... .. . ... : ... .. . ...
ROW 08 : G-2 00 8 ... : D#3 0D 1 ... : C-3 00 . ... : 4-# 03 8 ... : ... .. . ... : D-3 09 F ... : C-3 07 . ... : ... .. . ...
ROW 09 : C-2 00 9 ... : ... .. . ... : --- 00 . ... : ... .. . ... : ... .. . ... : ... .. . ... : ... .. . ... : ... .. . ...
ROW 0A : G-2 00 A ... : D-3 0D 4 ... : C-2 00 . ... : ... .. . ... : ... .. . ... : C-3 09 C ... : ... .. . ... : ... .. . ...
ROW 0B : C-2 00 B ... : ... .. . ... : --- 00 . ... : ... .. . ... : ... .. . ... : ... .. . ... : ... .. . ... : ... .. . ...
ROW 0C : G-2 00 C ... : C-3 0D 3 ... : C-2 00 . ... : 9-# 03 4 ... : ... .. . ... : D#3 09 A ... : ... .. . ... : C-4 07 . ...
ROW 0D : C-2 00 D ... : ... .. . ... : --- 00 . ... : ... .. . ... : ... .. . ... : ... .. . ... : ... .. . ... : ... .. . ...
ROW 0E : G-2 00 E ... : D#3 0D 2 ... : C-2 00 . ... : ... .. . ... : ... .. . ... : D-3 09 9 ... : C-4 07 . ... : ... .. . ...
ROW 0F : C-2 00 F ... : ... .. . ... : --- .. . ... : ... .. . ... : ... .. . ... : ... .. . ... : ... .. . ... : ... .. . ...
ROW 10 : G-2 00 E ... : D-3 0D 1 ... : C-2 00 . ... : 3-# 06 8 ... : ... .. . ... : C-3 09 F ... : ... .. . ... : G-4 07 . ...
ROW 11 : C-2 00 D ... : ... .. . ... : --- .. . ... : ... .. . ... : ... .. . ... : ... .. . ... : ... .. . ... : ... .. . ...
ROW 12 : G-2 00 C ... : C-3 0D 4 ... : C-2 00 . ... : ... .. . ... : ... .. . ... : D#3 09 C ... : G-4 07 . ... : ... .. . ...
ROW 13 : C-2 00 B ... : ... .. . ... : --- .. . ... : ... .. . ... : ... .. . ... : ... .. . ... : ... .. . ... : ... .. . ...
ROW 14 : G-2 00 A ... : D#3 0D 3 ... : C-2 00 . ... : ... .. . ... : ... .. . ... : D-3 09 A ... : ... .. . ... : ... .. . ...
ROW 15 : C-2 00 9 ... : ... .. . ... : --- .. . ... : ... .. . ... : ... .. . ... : ... .. . ... : ... .. . ... : ... .. . ...
ROW 16 : G-2 00 8 ... : D-3 0D 2 ... : C-2 00 . ... : ... .. . ... : ... .. . ... : C-3 09 9 ... : ... .. . ... : ... .. . ...
ROW 17 : C-2 00 7 ... : ... .. . ... : --- .. . ... : ... .. . ... : ... .. . ... : ... .. . ... : ... .. . ... : ... .. . ...
ROW 18 : G-2 00 6 ... : C-3 0D 1 ... : C-3 00 . ... : 4-# 03 8 ... : ... .. . ... : D#3 09 F ... : ... .. . ... : ... .. . ...
ROW 19 : C-2 00 5 ... : ... .. . ... : --- .. . ... : ... .. . ... : ... .. . ... : ... .. . ... : ... .. . ... : ... .. . ...
ROW 1A : G-2 00 4 ... : D#3 0D 4 ... : C-2 00 . ... : ... .. . ... : ... .. . ... : D-3 09 C ... : ... .. . ... : ... .. . ...
ROW 1B : C-2 00 3 ... : ... .. . ... : --- .. . ... : ... .. . ... : ... .. . ... : ... .. . ... : ... .. . ... : ... .. . ...
ROW 1C : G-2 00 2 ... : D-3 0D 3 ... : C-2 00 . ... : ... .. . ... : ... .. . ... : C-3 09 A ... : ... .. . ... : G-4 07 . ...
ROW 1D : C-2 00 1 ... : ... .. . ... : --- .. . ... : ... .. . ... : ... .. . ... : ... .. . ... : ... .. . ... : ... .. . ...
ROW 1E : G-2 00 . ... : C-3 0D 2 ... : C-2 00 . ... : 9-# 03 4 ... : ... .. . ... : D#3 09 9 ... : G-4 07 . ... : A-4 07 . ...
ROW 1F : C-2 00 . ... : ... .. . ... : --- .. . ... : ... .. . ... : ... .. . ... : ... .. . ... : ... .. . ... : ... .. . ...
ROW 20 : G-2 00 0 ... : D#3 0D 1 ... : C-2 00 . ... : 4-# 06 6 ... : ... .. . ... : D-3 09 F ... : A-4 07 . ... : A#4 07 . ...
ROW 21 : D#2 00 1 ... : ... .. . ... : --- 00 . ... : ... .. . ... : ... .. . ... : ... .. . ... : ... .. . ... : ... .. . ...
ROW 22 : G-2 00 2 ... : D-3 0D 4 ... : C-2 00 . ... : ... .. . ... : ... .. . ... : C-3 09 C ... : A#4 07 . ... : ... .. . ...
ROW 23 : D#2 00 3 ... : ... .. . ... : --- 00 . ... : ... .. . ... : ... .. . ... : ... .. . ... : ... .. . ... : ... .. . ...
ROW 24 : G-2 00 4 ... : C-3 0D 3 ... : C-2 00 . ... : ... .. . ... : ... .. . ... : D#3 09 A ... : ... .. . ... : ... .. . ...
ROW 25 : D#2 00 5 ... : ... .. . ... : --- 00 . ... : ... .. . ... : ... .. . ... : ... .. . ... : ... .. . ... : ... .. . ...
ROW 26 : G-2 00 6 ... : D#3 0D 2 ... : C-2 00 . ... : ... .. . ... : ... .. . ... : D-3 09 9 ... : ... .. . ... : G-4 07 . ...
ROW 27 : D#2 00 7 ... : ... .. . ... : --- 00 . ... : ... .. . ... : ... .. . ... : ... .. . ... : ... .. . ... : ... .. . ...
ROW 28 : G-2 00 8 ... : D-3 0D 1 ... : C-3 00 . ... : 4-# 03 8 ... : ... .. . ... : C-3 09 F ... : G-4 07 . ... : ... .. . ...
ROW 29 : D#2 00 9 ... : ... .. . ... : --- 00 . ... : ... .. . ... : ... .. . ... : ... .. . ... : ... .. . ... : ... .. . ...
ROW 2A : G-2 00 A ... : C-3 0D 4 ... : C-2 00 . ... : ... .. . ... : ... .. . ... : D#3 09 C ... : ... .. . ... : ... .. . ...
ROW 2B : D#2 00 B ... : ... .. . ... : --- 00 . ... : ... .. . ... : ... .. . ... : ... .. . ... : ... .. . ... : ... .. . ...
ROW 2C : G-2 00 C ... : D#3 0D 3 ... : C-2 00 . ... : 9-# 03 4 ... : ... .. . ... : D-3 09 A ... : ... .. . ... : C-4 07 . ...
ROW 2D : D#2 00 D ... : ... .. . ... : --- 00 . ... : ... .. . ... : ... .. . ... : ... .. . ... : ... .. . ... : ... .. . ...
ROW 2E : G-2 00 E ... : D-3 0D 2 ... : C-2 00 . ... : ... .. . ... : ... .. . ... : C-3 09 9 ... : C-4 07 . ... : ... .. . ...
ROW 2F : D#2 00 F ... : ... .. . ... : --- 00 . ... : ... .. . ... : ... .. . ... : ... .. . ... : ... .. . ... : ... .. . ...
ROW 30 : G-2 00 E ... : C-3 0D 1 ... : C-2 00 . ... : 3-# 06 8 ... : ... .. . ... : D#3 09 F ... : ... .. . ... : C-5 07 . ...
ROW 31 : D#2 00 D ... : ... .. . ... : --- 00 . ... : ... .. . ... : ... .. . ... : ... .. . ... : ... .. . ... : ... .. . ...
ROW 32 : G-2 00 C ... : D#3 0D 4 ... : C-2 00 . ... : ... .. . ... : ... .. . ... : D-3 09 C ... : C-5 07 . ... : ... .. . ...
ROW 33 : D#2 00 B ... : ... .. . ... : --- 00 . ... : ... .. . ... : ... .. . ... : ... .. . ... : ... .. . ... : ... .. . ...
ROW 34 : G-2 00 A ... : D-3 0D 3 ... : C-2 00 . ... : ... .. . ... : ... .. . ... : C-3 09 A ... : ... .. . ... : ... .. . ...
ROW 35 : D#2 00 9 ... : ... .. . ... : --- 00 . ... : ... .. . ... : ... .. . ... : ... .. . ... : ... .. . ... : ... .. . ...
ROW 36 : G-2 00 8 ... : C-3 0D 2 ... : C-2 00 . ... : ... .. . ... : ... .. . ... : D#3 09 9 ... : ... .. . ... : D-5 07 . ...
ROW 37 : D#2 00 7 ... : ... .. . ... : --- 00 . ... : ... .. . ... : ... .. . ... : ... .. . ... : ... .. . ... : ... .. . ...
ROW 38 : G-2 00 6 ... : D#3 0D 1 ... : C-3 00 . ... : 4-# 03 8 ... : ... .. . ... : D-3 09 F ... : D-5 07 . ... : ... .. . ...
ROW 39 : D#2 00 5 ... : ... .. . ... : --- 00 . ... : ... .. . ... : ... .. . ... : ... .. . ... : ... .. . ... : ... .. . ...
ROW 3A : G-2 00 4 ... : D-3 0D 4 ... : C-2 00 . ... : ... .. . ... : ... .. . ... : C-3 09 C ... : ... .. . ... : ... .. . ...
ROW 3B : D#2 00 3 ... : ... .. . ... : --- 00 . ... : ... .. . ... : ... .. . ... : ... .. . ... : ... .. . ... : ... .. . ...
ROW 3C : F#2 00 2 ... : C-3 0D 3 ... : C-2 00 . ... : ... .. . ... : ... .. . ... : F-3 09 A ... : ... .. . ... : D#5 07 . ...
ROW 3D : D#2 00 1 ... : ... .. . ... : --- 00 . ... : ... .. . ... : ... .. . ... : ... .. . ... : ... .. . ... : ... .. . ...
ROW 3E : F#2 00 . ... : F-3 0D 2 ... : C-2 00 . ... : 9-# 03 4 ... : ... .. . ... : D#3 09 9 ... : D#5 07 . ... : ... .. . ...
ROW 3F : D#2 00 . ... : ... .. . ... : --- 00 . ... : ... .. . ... : ... .. . ... : ... .. . ... : ... .. . ... : ... .. . ...
ROW 40 : F-2 00 0 ... : D#3 0D 1 ... : F-2 00 . ... : 2-# 06 A ... : ... .. . ... : G#3 09 F ... : ... .. . ... : D#5 07 . ...
ROW 41 : C-2 00 1 ... : ... .. . ... : --- 00 . ... : ... .. . ... : ... .. . ... : ... .. . ... : ... .. . ... : ... .. . ...
ROW 42 : F-2 00 2 ... : G#3 0D 4 ... : F-2 00 . ... : ... .. . ... : ... .. . ... : F-3 09 C ... : D#5 07 . ... : ... .. . ...
ROW 43 : C-2 00 3 ... : ... .. . ... : --- 00 . ... : ... .. . ... : ... .. . ... : ... .. . ... : ... .. . ... : ... .. . ...
ROW 44 : F-2 00 4 ... : F-3 0D 3 ... : F-2 00 . ... : ... .. . ... : ... .. . ... : C-3 09 A ... : ... .. . ... : ... .. . ...
ROW 45 : C-2 00 5 ... : ... .. . ... : --- 00 . ... : ... .. . ... : ... .. . ... : ... .. . ... : ... .. . ... : ... .. . ...
ROW 46 : F-2 00 6 ... : C-3 0D 2 ... : F-2 00 . ... : ... .. . ... : ... .. . ... : G#3 09 9 ... : ... .. . ... : D-5 07 . ...
ROW 47 : C-2 00 7 ... : ... .. . ... : --- 00 . ... : ... .. . ... : ... .. . ... : ... .. . ... : ... .. . ... : ... .. . ...
ROW 48 : F-2 00 8 ... : G#3 0D 1 ... : F-3 00 . ... : 4-# 03 8 ... : ... .. . ... : F-3 09 F ... : D-5 07 . ... : ... .. . ...
ROW 49 : C-2 00 9 ... : ... .. . ... : --- .. . ... : ... .. . ... : ... .. . ... : ... .. . ... : ... .. . ... : ... .. . ...
ROW 4A : F-2 00 A ... : F-3 0D 4 ... : F-2 00 . ... : ... .. . ... : ... .. . ... : C-3 09 C ... : ... .. . ... : ... .. . ...
ROW 4B : C-2 00 B ... : ... .. . ... : --- .. . ... : ... .. . ... : ... .. . ... : ... .. . ... : ... .. . ... : ... .. . ...
ROW 4C : F-2 00 C ... : C-3 0D 3 ... : F-2 00 . ... : 9-# 03 4 ... : ... .. . ... : G#3 09 A ... : ... .. . ... : F-5 07 . ...
ROW 4D : C-2 00 D ... : ... .. . ... : --- .. . ... : ... .. . ... : ... .. . ... : ... .. . ... : ... .. . ... : ... .. . ...
ROW 4E : F-2 00 E ... : G#3 0D 2 ... : F-2 00 . ... : ... .. . ... : ... .. . ... : F-3 09 9 ... : F-5 07 . ... : ... .. . ...
ROW 4F : C-2 00 F ... : ... .. . ... : --- .. . ... : ... .. . ... : ... .. . ... : ... .. . ... : ... .. . ... : ... .. . ...
ROW 50 : F-2 00 E ... : F-3 0D 1 ... : F-2 00 . ... : 3-# 06 8 ... : ... .. . ... : C-3 09 F ... : ... .. . ... : D#5 07 . ...
ROW 51 : C-2 00 D ... : ... .. . ... : --- .. . ... : ... .. . ... : ... .. . ... : ... .. . ... : ... .. . ... : ... .. . ...
ROW 52 : F-2 00 C ... : C-3 0D 4 ... : F-2 00 . ... : ... .. . ... : ... .. . ... : G#3 09 C ... : D#5 07 . ... : ... .. . ...
ROW 53 : C-2 00 B ... : ... .. . ... : --- .. . ... : ... .. . ... : ... .. . ... : ... .. . ... : ... .. . ... : ... .. . ...
ROW 54 : F-2 00 A ... : G#3 0D 3 ... : F-2 00 . ... : ... .. . ... : ... .. . ... : F-3 09 A ... : ... .. . ... : ... .. . ...
ROW 55 : C-2 00 9 ... : ... .. . ... : --- .. . ... : ... .. . ... : ... .. . ... : ... .. . ... : ... .. . ... : ... .. . ...
ROW 56 : F-2 00 8 ... : F-3 0D 2 ... : F-2 00 . ... : ... .. . ... : ... .. . ... : C-3 09 9 ... : ... .. . ... : A#4 07 . ...
ROW 57 : C-2 00 7 ... : ... .. . ... : --- .. . ... : ... .. . ... : ... .. . ... : ... .. . ... : ... .. . ... : ... .. . ...
ROW 58 : F-2 00 6 ... : C-3 0D 1 ... : F-3 00 . ... : 4-# 03 8 ... : ... .. . ... : G#3 09 F ... : A#4 07 . ... : ... .. . ...
ROW 59 : C-2 00 5 ... : ... .. . ... : --- .. . ... : ... .. . ... : ... .. . ... : ... .. . ... : ... .. . ... : ... .. . ...
ROW 5A : F-2 00 4 ... : G#3 0D 4 ... : F-2 00 . ... : ... .. . ... : ... .. . ... : F-3 09 C ... : ... .. . ... : ... .. . ...
ROW 5B : C-2 00 3 ... : ... .. . ... : --- .. . ... : ... .. . ... : ... .. . ... : ... .. . ... : ... .. . ... : ... .. . ...
ROW 5C : F-2 00 2 ... : F-3 0D 3 ... : F-2 00 . ... : ... .. . ... : ... .. . ... : C-3 09 A ... : ... .. . ... : G#4 07 . ...
ROW 5D : C-2 00 1 ... : ... .. . ... : --- .. . ... : ... .. . ... : ... .. . ... : ... .. . ... : ... .. . ... : ... .. . ...
ROW 5E : F-2 00 . ... : C-3 0D 2 ... : F-2 00 . ... : 9-# 03 4 ... : ... .. . ... : G#3 09 9 ... : G#4 07 . ... : ... .. . ...
ROW 5F : C-2 00 . ... : ... .. . ... : --- .. . ... : ... .. . ... : ... .. . ... : ... .. . ... : ... .. . ... : ... .. . ...
ROW 60 : G#2 00 0 ... : G#3 0D 1 ... : F-2 00 . ... : 4-# 06 6 ... : ... .. . ... : F-3 09 F ... : ... .. . ... : F-4 07 . ...
ROW 61 : C-2 00 1 ... : ... .. . ... : --- .. . ... : ... .. . ... : ... .. . ... : ... .. . ... : ... .. . ... : ... .. . ...
ROW 62 : G#2 00 2 ... : F-3 0D 4 ... : F-2 00 . ... : ... .. . ... : ... .. . ... : C-3 09 C ... : F-4 07 . ... : ... .. . ...
ROW 63 : C-2 00 3 ... : ... .. . ... : --- .. . ... : ... .. . ... : ... .. . ... : ... .. . ... : ... .. . ... : ... .. . ...
ROW 64 : G#2 00 4 ... : C-3 0D 3 ... : F-2 00 . ... : ... .. . ... : ... .. . ... : G#3 09 A ... : ... .. . ... : ... .. . ...
ROW 65 : C-2 00 5 ... : ... .. . ... : --- .. . ... : ... .. . ... : ... .. . ... : ... .. . ... : ... .. . ... : ... .. . ...
ROW 66 : G#2 00 6 ... : G#3 0D 2 ... : F-2 00 . ... : ... .. . ... : ... .. . ... : F-3 09 9 ... : ... .. . ... : C-4 07 . ...
ROW 67 : C-2 00 7 ... : ... .. . ... : --- .. . ... : ... .. . ... : ... .. . ... : ... .. . ... : ... .. . ... : ... .. . ...
ROW 68 : G#2 00 8 ... : F-3 0D 1 ... : F-3 00 . ... : 4-# 03 8 ... : ... .. . ... : C-3 09 F ... : C-4 07 . ... : ... .. . ...
ROW 69 : C-2 00 9 ... : ... .. . ... : --- .. . ... : ... .. . ... : ... .. . ... : ... .. . ... : ... .. . ... : ... .. . ...
ROW 6A : G#2 00 A ... : C-3 0D 4 ... : F-2 00 . ... : ... .. . ... : ... .. . ... : G#3 09 C ... : ... .. . ... : ... .. . ...
ROW 6B : C-2 00 B ... : ... .. . ... : --- .. . ... : ... .. . ... : ... .. . ... : ... .. . ... : ... .. . ... : ... .. . ...
ROW 6C : G#2 00 C ... : G#3 0D 3 ... : F-2 00 . ... : 9-# 03 4 ... : ... .. . ... : F-3 09 A ... : ... .. . ... : F-4 07 . ...
ROW 6D : C-2 00 D ... : ... .. . ... : --- .. . ... : ... .. . ... : ... .. . ... : ... .. . ... : ... .. . ... : ... .. . ...
ROW 6E : G#2 00 E ... : F-3 0D 2 ... : F-2 00 . ... : ... .. . ... : ... .. . ... : C-3 09 9 ... : F-4 07 . ... : ... .. . ...
ROW 6F : C-2 00 F ... : ... .. . ... : --- .. . ... : ... .. . ... : ... .. . ... : ... .. . ... : ... .. . ... : ... .. . ...
ROW 70 : G#2 00 E ... : C-3 0D 1 ... : F-2 00 . ... : 3-# 06 8 ... : ... .. . ... : G#3 09 F ... : ... .. . ... : F-4 07 . ...
ROW 71 : C-2 00 D ... : ... .. . ... : --- .. . ... : ... .. . ... : ... .. . ... : ... .. . ... : ... .. . ... : ... .. . ...
ROW 72 : G#2 00 C ... : G#3 0D 4 ... : F-2 00 . ... : ... .. . ... : ... .. . ... : F-3 09 C ... : F-4 07 . ... : ... .. . ...
ROW 73 : C-2 00 B ... : ... .. . ... : --- .. . ... : ... .. . ... : ... .. . ... : ... .. . ... : ... .. . ... : ... .. . ...
ROW 74 : G#2 00 A ... : F-3 0D 3 ... : F-2 00 . ... : ... .. . ... : ... .. . ... : C-3 09 A ... : A#2 09 F ... : ... .. . ...
ROW 75 : C-2 00 9 ... : ... .. . ... : --- .. . ... : ... .. . ... : ... .. . ... : ... .. . ... : ... .. . ... : ... .. . ...
ROW 76 : G#2 00 8 ... : C-3 0D 2 ... : F-2 00 . ... : ... .. . ... : ... .. . ... : G#3 09 9 ... : ... .. . ... : D#4 07 . ...
ROW 77 : C-2 00 7 ... : ... .. . ... : --- .. . ... : ... .. . ... : ... .. . ... : ... .. . ... : ... .. . ... : ... .. . ...
ROW 78 : G#2 00 6 ... : G#3 0D 1 ... : F-3 00 . ... : 4-# 03 8 ... : ... .. . ... : F-3 09 F ... : G#2 09 . ... : ... .. . ...
ROW 79 : C-2 00 5 ... : ... .. . ... : --- .. . ... : ... .. . ... : ... .. . ... : ... .. . ... : ... .. . ... : ... .. . ...
ROW 7A : G#2 00 4 ... : F-3 0D 4 ... : F-2 00 . ... : ... .. . ... : ... .. . ... : C-3 09 C ... : ... .. . ... : ... .. . ...
ROW 7B : C-2 00 3 ... : ... .. . ... : --- .. . ... : ... .. . ... : ... .. . ... : ... .. . ... : ... .. . ... : ... .. . ...
ROW 7C : F-2 00 2 ... : C-3 0D 3 ... : F-2 00 . ... : ... .. . ... : ... .. . ... : G#3 09 A ... : F-2 09 . ... : D-4 07 . ...
ROW 7D : D-2 00 1 ... : ... .. . ... : --- .. . ... : ... .. . ... : ... .. . ... : ... .. . ... : ... .. . ... : ... .. . ...
ROW 7E : F-2 00 . ... : G#3 0D 2 ... : F-2 00 . ... : 9-# 03 4 ... : ... .. . ... : F-3 09 9 ... : ... .. . ... : ... .. . ...
ROW 7F : D-2 00 . ... : ... .. . ... : --- .. . ... : ... .. . ... : ... .. . ... : ... .. . ... : ... .. . ... : ... .. . ...

PATTERN 0B
ROW 00 : G-2 00 0 ... : ... .. . ... : C-2 00 . ... : 2-# 06 A ... : ... .. . ... : D#3 09 F ... : D#2 09 . ... : D#4 07 F ...
ROW 01 : C-2 00 1 ... : ... .. . ... : --- .. . ... : ... .. . ... : ... .. . ... : ... .. . ... : ... .. . ... : ... .. . ...
ROW 02 : G-2 00 2 ... : D#3 0D 4 ... : C-2 00 . ... : ... .. . ... : ... .. . ... : D-3 09 C ... : D#4 07 8 ... : ... .. . ...
ROW 03 : C-2 00 3 ... : ... .. . ... : --- .. . ... : ... .. . ... : ... .. . ... : ... .. . ... : ... .. . ... : ... .. . ...
ROW 04 : G-2 00 4 ... : D-3 0D 3 ... : C-2 00 . ... : ... .. . ... : ... .. . ... : C-3 09 A ... : ... .. . ... : ... .. . ...
ROW 05 : C-2 00 5 ... : ... .. . ... : --- .. . ... : ... .. . ... : ... .. . ... : ... .. . ... : ... .. . ... : ... .. . ...
ROW 06 : G-2 00 6 ... : C-3 0D 2 ... : C-2 00 . ... : ... .. . ... : ... .. . ... : D#3 09 9 ... : ... .. . ... : D-4 07 . ...
ROW 07 : C-2 00 7 ... : ... .. . ... : --- .. . ... : ... .. . ... : ... .. . ... : ... .. . ... : ... .. . ... : ... .. . ...
ROW 08 : G-2 00 8 ... : D#3 0D 1 ... : C-3 00 . ... : 4-# 03 8 ... : ... .. . ... : D-3 09 F ... : D-4 07 . ... : ... .. . ...
ROW 09 : C-2 00 9 ... : ... .. . ... : --- 00 . ... : ... .. . ... : ... .. . ... : ... .. . ... : ... .. . ... : ... .. . ...
ROW 0A : G-2 00 A ... : D-3 0D 4 ... : C-2 00 . ... : ... .. . ... : ... .. . ... : C-3 09 C ... : ... .. . ... : ... .. . ...
ROW 0B : C-2 00 B ... : ... .. . ... : --- 00 . ... : ... .. . ... : ... .. . ... : ... .. . ... : ... .. . ... : ... .. . ...
ROW 0C : G-2 00 C ... : C-3 0D 3 ... : C-2 00 . ... : 9-# 03 4 ... : ... .. . ... : D#3 09 A ... : ... .. . ... : C-4 07 . ...
ROW 0D : C-2 00 D ... : ... .. . ... : --- 00 . ... : ... .. . ... : ... .. . ... : ... .. . ... : ... .. . ... : ... .. . ...
ROW 0E : G-2 00 E ... : D#3 0D 2 ... : C-2 00 . ... : ... .. . ... : ... .. . ... : D-3 09 9 ... : C-4 07 . ... : ... .. . ...
ROW 0F : C-2 00 F ... : ... .. . ... : --- .. . ... : ... .. . ... : ... .. . ... : ... .. . ... : ... .. . ... : ... .. . ...
ROW 10 : G-2 00 E ... : D-3 0D 1 ... : C-2 00 . ... : 3-# 06 8 ... : ... .. . ... : C-3 09 F ... : D#3 08 F ... : G-3 07 . ...
ROW 11 : C-2 00 D ... : ... .. . ... : --- .. . ... : ... .. . ... : ... .. . ... : ... .. . ... : ... .. . ... : ... .. . ...
ROW 12 : G-2 00 C ... : C-3 0D 4 ... : C-2 00 . ... : ... .. . ... : ... .. . ... : D#3 09 C ... : ... .. . ... : ... .. . ...
ROW 13 : C-2 00 B ... : ... .. . ... : --- .. . ... : ... .. . ... : ... .. . ... : ... .. . ... : ... .. . ... : ... .. . ...
ROW 14 : G-2 00 A ... : D#3 0D 3 ... : C-2 00 . ... : ... .. . ... : ... .. . ... : D-3 09 A ... : ... .. . ... : ... .. . ...
ROW 15 : C-2 00 9 ... : ... .. . ... : --- .. . ... : ... .. . ... : ... .. . ... : ... .. . ... : ... .. . ... : ... .. . ...
ROW 16 : G-2 00 8 ... : D-3 0D 2 ... : C-2 00 . ... : ... .. . ... : ... .. . ... : C-3 09 9 ... : D-3 08 . ... : ... .. . ...
ROW 17 : C-2 00 7 ... : ... .. . ... : --- .. . ... : ... .. . ... : ... .. . ... : ... .. . ... : ... .. . ... : ... .. . ...
ROW 18 : G-2 00 6 ... : C-3 0D 1 ... : C-3 00 . ... : 4-# 03 8 ... : ... .. . ... : D#3 09 F ... : ... .. . ... : ... .. . ...
ROW 19 : C-2 00 5 ... : ... .. . ... : --- .. . ... : ... .. . ... : ... .. . ... : ... .. . ... : ... .. . ... : ... .. . ...
ROW 1A : G-2 00 4 ... : D#3 0D 4 ... : C-2 00 . ... : ... .. . ... : ... .. . ... : D-3 09 C ... : ... .. . ... : ... .. . ...
ROW 1B : C-2 00 3 ... : ... .. . ... : --- .. . ... : ... .. . ... : ... .. . ... : ... .. . ... : ... .. . ... : ... .. . ...
ROW 1C : G-2 00 2 ... : D-3 0D 3 ... : C-2 00 . ... : ... .. . ... : ... .. . ... : C-3 09 A ... : C-3 08 . ... : ... .. . ...
ROW 1D : C-2 00 1 ... : ... .. . ... : --- .. . ... : ... .. . ... : ... .. . ... : ... .. . ... : ... .. . ... : ... .. . ...
ROW 1E : G-2 00 . ... : C-3 0D 2 ... : C-2 00 . ... : 9-# 03 4 ... : ... .. . ... : D#3 09 9 ... : ... .. . ... : ... .. . ...
ROW 1F : C-2 00 . ... : ... .. . ... : --- .. . ... : ... .. . ... : ... .. . ... : ... .. . ... : ... .. . ... : ... .. . ...
ROW 20 : G-2 00 0 ... : D#3 0D 1 ... : C-2 00 . ... : 4-# 06 6 ... : ... .. . ... : D-3 09 F ... : G-2 07 . ... : ... .. . ...
ROW 21 : D#2 00 1 ... : ... .. . ... : --- 00 . ... : ... .. . ... : ... .. . ... : ... .. . ... : ... .. . ... : ... .. . ...
ROW 22 : G-2 00 2 ... : D-3 0D 4 ... : C-2 00 . ... : ... .. . ... : ... .. . ... : C-3 09 C ... : ... .. . ... : ... .. . ...
ROW 23 : D#2 00 3 ... : ... .. . ... : --- 00 . ... : ... .. . ... : ... .. . ... : ... .. . ... : ... .. . ... : ... .. . ...
ROW 24 : G-2 00 4 ... : C-3 0D 3 ... : C-2 00 . ... : ... .. . ... : ... .. . ... : D#3 09 A ... : ... .. . ... : ... .. . ...
ROW 25 : D#2 00 5 ... : ... .. . ... : --- 00 . ... : ... .. . ... : ... .. . ... : ... .. . ... : ... .. . ... : ... .. . ...
ROW 26 : G-2 00 6 ... : D#3 0D 2 ... : C-2 00 . ... : ... .. . ... : ... .. . ... : D-3 09 9 ... : ... .. . ... : ... .. . ...
ROW 27 : D#2 00 7 ... : ... .. . ... : --- 00 . ... : ... .. . ... : ... .. . ... : ... .. . ... : ... .. . ... : ... .. . ...
ROW 28 : G-2 00 8 ... : D-3 0D 1 ... : C-3 00 . ... : 4-# 03 8 ... : ... .. . ... : C-3 09 F ... : ... .. . ... : ... .. . ...
ROW 29 : D#2 00 9 ... : ... .. . ... : --- 00 . ... : ... .. . ... : ... .. . ... : ... .. . ... : ... .. . ... : ... .. . ...
ROW 2A : G-2 00 A ... : C-3 0D 4 ... : C-2 00 . ... : ... .. . ... : ... .. . ... : D#3 09 C ... : ... .. . ... : ... .. . ...
ROW 2B : D#2 00 B ... : ... .. . ... : --- 00 . ... : ... .. . ... : ... .. . ... : ... .. . ... : ... .. . ... : ... .. . ...
ROW 2C : G-2 00 C ... : D#3 0D 3 ... : C-2 00 . ... : 9-# 03 4 ... : ... .. . ... : D-3 09 A ... : ... .. . ... : F-3 07 C ...
ROW 2D : D#2 00 D ... : ... .. . ... : --- 00 . ... : ... .. . ... : ... .. . ... : ... .. . ... : ... .. . ... : ... .. . ...
ROW 2E : G-2 00 E ... : D-3 0D 2 ... : C-2 00 . ... : ... .. . ... : ... .. . ... : C-3 09 9 ... : F-3 07 6 ... : ... .. . ...
ROW 2F : D#2 00 F ... : ... .. . ... : --- 00 . ... : ... .. . ... : ... .. . ... : ... .. . ... : ... .. . ... : ... .. . ...
ROW 30 : G-2 00 E ... : C-3 0D 1 ... : C-2 00 . ... : 3-# 06 8 ... : ... .. . ... : D#3 09 F ... : ... .. . ... : G-3 07 F ...
ROW 31 : D#2 00 D ... : ... .. . ... : --- 00 . ... : ... .. . ... : ... .. . ... : ... .. . ... : ... .. . ... : ... .. . ...
ROW 32 : G-2 00 C ... : D#3 0D 4 ... : C-2 00 . ... : ... .. . ... : ... .. . ... : D-3 09 C ... : G-3 07 8 ... : ... .. . ...
ROW 33 : D#2 00 B ... : ... .. . ... : --- 00 . ... : ... .. . ... : ... .. . ... : ... .. . ... : ... .. . ... : ... .. . ...
ROW 34 : G-2 00 A ... : D-3 0D 3 ... : C-2 00 . ... : ... .. . ... : ... .. . ... : C-3 09 A ... : ... .. . ... : ... .. . ...
ROW 35 : D#2 00 9 ... : ... .. . ... : --- 00 . ... : ... .. . ... : ... .. . ... : ... .. . ... : ... .. . ... : ... .. . ...
ROW 36 : G-2 00 8 ... : C-3 0D 2 ... : C-2 00 . ... : ... .. . ... : ... .. . ... : D#3 09 9 ... : ... .. . ... : G#3 07 . ...
ROW 37 : D#2 00 7 ... : ... .. . ... : --- 00 . ... : ... .. . ... : ... .. . ... : ... .. . ... : ... .. . ... : ... .. . ...
ROW 38 : G-2 00 6 ... : D#3 0D 1 ... : C-3 00 . ... : 4-# 03 8 ... : ... .. . ... : D-3 09 F ... : G#3 07 . ... : ... .. . ...
ROW 39 : D#2 00 5 ... : ... .. . ... : --- 00 . ... : ... .. . ... : ... .. . ... : ... .. . ... : ... .. . ... : ... .. . ...
ROW 3A : G-2 00 4 ... : D-3 0D 4 ... : C-2 00 . ... : ... .. . ... : ... .. . ... : C-3 09 C ... : ... .. . ... : ... .. . ...
ROW 3B : D#2 00 3 ... : ... .. . ... : --- 00 . ... : ... .. . ... : ... .. . ... : ... .. . ... : ... .. . ... : ... .. . ...
ROW 3C : G-2 00 2 ... : C-3 0D 3 ... : C-2 00 . ... : ... .. . ... : ... .. . ... : F-3 09 A ... : F-2 08 C ... : F#3 07 . ...
ROW 3D : D#2 00 1 ... : ... .. . ... : --- 00 . ... : ... .. . ... : ... .. . ... : ... .. . ... : ... .. . ... : ... .. . ...
ROW 3E : G-2 00 . ... : F-3 0D 2 ... : C-2 00 . ... : 9-# 03 4 ... : ... .. . ... : D#3 09 9 ... : ... .. . ... : ... .. . ...
ROW 3F : D#2 00 . ... : ... .. . ... : --- 00 . ... : ... .. . ... : ... .. . ... : ... .. . ... : ... .. . ... : ... .. . ...
ROW 40 : F#2 00 0 ... : D#3 0D 1 ... : D#2 00 . ... : 2-# 06 A ... : ... .. . ... : F#3 09 F ... : G-2 08 F ... : ... .. F ...
ROW 41 : D#2 00 1 ... : ... .. . ... : --- 00 . ... : ... .. . ... : ... .. . ... : ... .. . ... : ... .. . ... : ... .. E ...
ROW 42 : F#2 00 2 ... : F#3 0D 4 ... : D#2 00 . ... : ... .. . ... : ... .. . ... : F-3 09 C ... : ... .. . ... : ... .. E ...
ROW 43 : D#2 00 3 ... : ... .. . ... : --- 00 . ... : ... .. . ... : ... .. . ... : ... .. . ... : ... .. . ... : ... .. D ...
ROW 44 : F#2 00 4 ... : F-3 0D 3 ... : D#2 00 . ... : ... .. . ... : ... .. . ... : D#3 09 A ... : ... .. . ... : ... .. D ...
ROW 45 : D#2 00 5 ... : ... .. . ... : --- 00 . ... : ... .. . ... : ... .. . ... : ... .. . ... : ... .. . ... : ... .. C ...
ROW 46 : F#2 00 6 ... : D#3 0D 2 ... : D#2 00 . ... : ... .. . ... : ... .. . ... : F#3 09 9 ... : G#2 08 . ... : ... .. C ...
ROW 47 : D#2 00 7 ... : ... .. . ... : --- 00 . ... : ... .. . ... : ... .. . ... : ... .. . ... : ... .. . ... : ... .. B ...
ROW 48 : F#2 00 8 ... : F#3 0D 1 ... : D#3 00 . ... : 4-# 03 8 ... : ... .. . ... : F-3 09 F ... : ... .. . ... : ... .. B ...
ROW 49 : D#2 00 9 ... : ... .. . ... : --- .. . ... : ... .. . ... : ... .. . ... : ... .. . ... : ... .. . ... : ... .. A ...
ROW 4A : F#2 00 A ... : F-3 0D 4 ... : D#2 00 . ... : ... .. . ... : ... .. . ... : D#3 09 C ... : ... .. . ... : ... .. A ...
ROW 4B : D#2 00 B ... : ... .. . ... : --- .. . ... : ... .. . ... : ... .. . ... : ... .. . ... : ... .. . ... : ... .. 9 ...
ROW 4C : F#2 00 C ... : D#3 0D 3 ... : D#2 00 . ... : 9-# 03 4 ... : ... .. . ... : F#3 09 A ... : F#2 08 F ... : ... .. 9 ...
ROW 4D : D#2 00 D ... : ... .. . ... : --- .. . ... : ... .. . ... : ... .. . ... : ... .. . ... : ... .. E ... : ... .. 8 ...
ROW 4E : F#2 00 E ... : F#3 0D 2 ... : D#2 00 . ... : ... .. . ... : ... .. . ... : F-3 09 9 ... : ... .. E ... : ... .. 8 ...
ROW 4F : D#2 00 F ... : ... .. . ... : --- .. . ... : ... .. . ... : ... .. . ... : ... .. . ... : ... .. D ... : ... .. 7 ...
ROW 50 : F#2 00 E ... : F-3 0D 1 ... : D#2 00 . ... : 3-# 06 8 ... : ... .. . ... : D#3 09 F ... : ... .. D ... : ... .. 7 ...
ROW 51 : D#2 00 D ... : ... .. . ... : --- .. . ... : ... .. . ... : ... .. . ... : ... .. . ... : ... .. C ... : ... .. 7 ...
ROW 52 : F#2 00 C ... : D#3 0D 4 ... : D#2 00 . ... : ... .. . ... : ... .. . ... : F#3 09 C ... : ... .. C ... : ... .. 6 ...
ROW 53 : D#2 00 B ... : ... .. . ... : --- .. . ... : ... .. . ... : ... .. . ... : ... .. . ... : ... .. B ... : ... .. 6 ...
ROW 54 : F#2 00 A ... : F#3 0D 3 ... : D#2 00 . ... : ... .. . ... : ... .. . ... : F-3 09 A ... : ... .. B ... : ... .. 5 ...
ROW 55 : D#2 00 9 ... : ... .. . ... : --- .. . ... : ... .. . ... : ... .. . ... : ... .. . ... : ... .. A ... : ... .. 5 ...
ROW 56 : F#2 00 8 ... : F-3 0D 2 ... : D#2 00 . ... : ... .. . ... : ... .. . ... : D#3 09 9 ... : ... .. A ... : ... .. 4 ...
ROW 57 : D#2 00 7 ... : ... .. . ... : --- .. . ... : ... .. . ... : ... .. . ... : ... .. . ... : ... .. 9 ... : ... .. 4 ...
ROW 58 : F#2 00 6 ... : D#3 0D 1 ... : D#3 00 . ... : 4-# 03 8 ... : ... .. . ... : F#3 09 F ... : ... .. 9 ... : ... .. 3 ...
ROW 59 : D#2 00 5 ... : ... .. . ... : --- .. . ... : ... .. . ... : ... .. . ... : ... .. . ... : ... .. 8 ... : ... .. 3 ...
ROW 5A : F#2 00 4 ... : F#3 0D 4 ... : D#2 00 . ... : ... .. . ... : ... .. . ... : F-3 09 C ... : ... .. 8 ... : ... .. 2 ...
ROW 5B : D#2 00 3 ... : ... .. . ... : --- .. . ... : ... .. . ... : ... .. . ... : ... .. . ... : ... .. 7 ... : ... .. 2 ...
ROW 5C : F#2 00 2 ... : F-3 0D 3 ... : D#2 00 . ... : ... .. . ... : ... .. . ... : D#3 09 A ... : ... .. 7 ... : ... .. 1 ...
ROW 5D : D#2 00 1 ... : ... .. . ... : --- .. . ... : ... .. . ... : ... .. . ... : ... .. . ... : ... .. 7 ... : ... .. 1 ...
ROW 5E : F#2 00 0 ... : D#3 0D 2 ... : D#2 00 . ... : 9-# 03 4 ... : ... .. . ... : F#3 09 9 ... : ... .. 6 ... : ... .. . ...
ROW 5F : D#2 00 . ... : ... .. . ... : --- .. . ... : ... .. . ... : ... .. . ... : ... .. . ... : ... .. 6 ... : ... .. . ...
ROW 60 : F#2 00 0 ... : F#3 0D 1 ... : D#2 00 . ... : 4-# 06 6 ... : ... .. . ... : F-3 09 F ... : ... .. 5 ... : ... .. . ...
ROW 61 : C-2 00 1 ... : ... .. . ... : --- .. . ... : ... .. . ... : ... .. . ... : ... .. . ... : ... .. 5 ... : ... .. . ...
ROW 62 : F#2 00 2 ... : F-3 0D 4 ... : D#2 00 . ... : ... .. . ... : ... .. . ... : D#3 09 C ... : ... .. 4 ... : ... .. . ...
ROW 63 : C-2 00 3 ... : ... .. . ... : --- .. . ... : ... .. . ... : ... .. . ... : ... .. . ... : ... .. 4 ... : ... .. . ...
ROW 64 : F#2 00 4 ... : D#3 0D 3 ... : D#2 00 . ... : ... .. . ... : ... .. . ... : F#3 09 A ... : ... .. 3 ... : ... .. . ...
ROW 65 : C-2 00 5 ... : ... .. . ... : --- .. . ... : ... .. . ... : ... .. . ... : ... .. . ... : ... .. 3 ... : ... .. . ...
ROW 66 : F#2 00 6 ... : F#3 0D 2 ... : D#2 00 . ... : ... .. . ... : ... .. . ... : F-3 09 9 ... : ... .. 2 ... : ... .. . ...
ROW 67 : C-2 00 7 ... : ... .. . ... : --- .. . ... : ... .. . ... : ... .. . ... : ... .. . ... : ... .. 2 ... : ... .. . ...
ROW 68 : F#2 00 8 ... : F-3 0D 1 ... : D#3 00 . ... : 4-# 03 8 ... : ... .. . ... : D#3 09 F ... : ... .. 1 ... : ... .. . ...
ROW 69 : C-2 00 9 ... : ... .. . ... : --- .. . ... : ... .. . ... : ... .. . ... : ... .. . ... : ... .. 1 ... : ... .. . ...
ROW 6A : F#2 00 A ... : D#3 0D 4 ... : D#2 00 . ... : ... .. . ... : ... .. . ... : F#3 09 C ... : ... .. . ... : ... .. . ...
ROW 6B : C-2 00 B ... : ... .. . ... : --- .. . ... : ... .. . ... : ... .. . ... : ... .. . ... : ... .. . ... : ... .. . ...
ROW 6C : F#2 00 C ... : F#3 0D 3 ... : D#2 00 . ... : 9-# 03 4 ... : ... .. . ... : F-3 09 A ... : ... .. . ... : ... .. . ...
ROW 6D : C-2 00 D ... : ... .. . ... : --- .. . ... : ... .. . ... : ... .. . ... : ... .. . ... : ... .. . ... : ... .. . ...
ROW 6E : F#2 00 E ... : F-3 0D 2 ... : D#2 00 . ... : ... .. . ... : ... .. . ... : D#3 09 9 ... : ... .. . ... : ... .. . ...
ROW 6F : C-2 00 F ... : ... .. . ... : --- .. . ... : ... .. . ... : ... .. . ... : ... .. . ... : ... .. . ... : ... .. . ...
ROW 70 : F#2 00 E ... : D#3 0D 1 ... : D#2 00 . ... : 3-# 06 8 ... : ... .. . ... : F#3 09 F ... : ... .. . ... : ... .. . ...
ROW 71 : C-2 00 D ... : ... .. . ... : --- .. . ... : ... .. . ... : ... .. . ... : ... .. . ... : ... .. . ... : ... .. . ...
ROW 72 : F#2 00 C ... : F#3 0D 4 ... : D#2 00 . ... : ... .. . ... : ... .. . ... : F-3 09 C ... : ... .. . ... : ... .. . ...
ROW 73 : C-2 00 B ... : ... .. . ... : --- .. . ... : ... .. . ... : ... .. . ... : ... .. . ... : ... .. . ... : ... .. . ...
ROW 74 : F#2 00 A ... : C-2 0D F ... : D#2 00 . ... : ... .. . ... : ... .. . ... : D#3 09 A ... : D#2 09 F ... : ... .. . ...
ROW 75 : C-2 00 9 ... : ... .. . ... : --- .. . ... : ... .. . ... : ... .. . ... : ... .. . ... : ... .. . ... : ... .. . ...
ROW 76 : F#2 00 8 ... : ... .. . ... : D#2 00 . ... : ... .. . ... : ... .. . ... : F#3 09 9 ... : ... .. . ... : ... .. . ...
ROW 77 : C-2 00 7 ... : ... .. . ... : --- .. . ... : ... .. . ... : ... .. . ... : ... .. . ... : ... .. . ... : ... .. . ...
ROW 78 : F#2 00 6 ... : C-2 0D . ... : D#3 00 . ... : 4-# 03 8 ... : ... .. . ... : F-3 09 F ... : D#2 09 . ... : ... .. . ...
ROW 79 : D#2 00 5 ... : ... .. . ... : --- .. . ... : ... .. . ... : ... .. . ... : ... .. . ... : ... .. . ... : ... .. . ...
ROW 7A : F#2 00 4 ... : ... .. . ... : D#2 00 . ... : ... .. . ... : ... .. . ... : D#3 09 C ... : ... .. . ... : ... .. . ...
ROW 7B : D#2 00 3 ... : ... .. . ... : --- .. . ... : ... .. . ... : ... .. . ... : ... .. . ... : ... .. . ... : ... .. . ...
ROW 7C : F#2 00 2 ... : D-2 0D . ... : D#2 00 . ... : ... .. . ... : ... .. . ... : F#3 09 A ... : F-2 09 . ... : ... .. . ...
ROW 7D : D#2 00 1 ... : ... .. . ... : --- .. . ... : ... .. . ... : ... .. . ... : ... .. . ... : ... .. . ... : ... .. . ...
ROW 7E : F#2 00 0 ... : ... .. . ... : D#2 00 . ... : 9-# 03 4 ... : ... .. . ... : F-3 09 9 ... : ... .. . ... : ... .. . ...
ROW 7F : D#2 00 . ... : ... .. . ... : --- .. . ... : ... .. . ... : ... .. . ... : ... .. . ... : ... .. . ... : ... .. . ...

PATTERN 0C
ROW 00 : G-2 00 0 ... : D#2 0D . ... : C-2 00 . ... : 9-# 03 4 ... : ... .. . ... : D#3 09 F ... : G-2 09 . ... : C-3 07 F ...
ROW 01 : C-2 00 1 ... : ... .. . ... : --- .. . ... : ... .. . ... : ... .. . ... : ... .. . ... : ... .. . ... : ... .. . ...
ROW 02 : G-2 00 2 ... : ... .. . ... : C-2 00 . ... : 9-# 03 . ... : ... .. . ... : D-3 09 C ... : ... .. . ... : ... .. . ...
ROW 03 : C-2 00 3 ... : ... .. . ... : --- .. . ... : ... .. . ... : ... .. . ... : ... .. . ... : ... .. . ... : ... .. . ...
ROW 04 : G-2 00 4 ... : ... .. . ... : C-2 00 . ... : ... .. . ... : ... .. . ... : C-3 09 A ... : ... .. . ... : ... .. . ...
ROW 05 : C-2 00 5 ... : ... .. . ... : --- .. . ... : ... .. . ... : ... .. . ... : ... .. . ... : ... .. . ... : ... .. . ...
ROW 06 : G-2 00 6 ... : ... .. . ... : C-2 00 . ... : 9-# 03 . ... : ... .. . ... : D#3 09 9 ... : ... .. . ... : D-3 07 . ...
ROW 07 : C-2 00 7 ... : ... .. . ... : --- .. . ... : ... .. . ... : ... .. . ... : ... .. . ... : ... .. . ... : ... .. . ...
ROW 08 : G-2 00 8 ... : ... .. . ... : C-3 00 . ... : 4-# 03 8 ... : ... .. . ... : D-3 09 F ... : ... .. . ... : ... .. . ...
ROW 09 : C-2 00 9 ... : ... .. . ... : --- 00 . ... : ... .. . ... : ... .. . ... : ... .. . ... : ... .. . ... : ... .. . ...
ROW 0A : G-2 00 A ... : ... .. . ... : C-2 00 . ... : ... .. . ... : ... .. . ... : C-3 09 C ... : ... .. . ... : ... .. . ...
ROW 0B : C-2 00 B ... : ... .. . ... : --- 00 . ... : ... .. . ... : ... .. . ... : ... .. . ... : ... .. . ... : ... .. . ...
ROW 0C : G-2 00 C ... : ... .. . ... : C-2 00 . ... : 9-# 03 4 ... : ... .. . ... : D#3 09 A ... : ... .. . ... : D#3 07 . ...
ROW 0D : C-2 00 D ... : ... .. . ... : --- 00 . ... : ... .. . ... : ... .. . ... : ... .. . ... : ... .. . ... : ... .. . ...
ROW 0E : G-2 00 E ... : ... .. . ... : C-2 00 . ... : ... .. . ... : ... .. . ... : D-3 09 9 ... : ... .. . ... : ... .. . ...
ROW 0F : C-2 00 F ... : ... .. . ... : --- .. . ... : ... .. . ... : ... .. . ... : ... .. . ... : ... .. . ... : ... .. . ...
ROW 10 : G-2 00 E ... : ... .. . ... : C-2 00 . ... : 9-# 03 4 ... : ... .. . ... : C-3 09 F ... : C-2 08 F ... : C-3 07 . ...
ROW 11 : C-2 00 D ... : ... .. . ... : --- .. . ... : ... .. . ... : ... .. . ... : ... .. . ... : ... .. . ... : ... .. . ...
ROW 12 : G-2 00 C ... : ... .. . ... : C-2 00 . ... : ... .. . ... : ... .. . ... : D#3 09 C ... : ... .. . ... : ... .. . ...
ROW 13 : C-2 00 B ... : ... .. . ... : --- .. . ... : ... .. . ... : ... .. . ... : ... .. . ... : ... .. . ... : ... .. . ...
ROW 14 : G-2 00 A ... : ... .. . ... : C-2 00 . ... : 9-# 03 . ... : ... .. . ... : D-3 09 A ... : ... .. . ... : ... .. . ...
ROW 15 : C-2 00 9 ... : ... .. . ... : --- .. . ... : ... .. . ... : ... .. . ... : ... .. . ... : ... .. . ... : ... .. . ...
ROW 16 : G-2 00 8 ... : ... .. . ... : C-2 00 . ... : ... .. . ... : ... .. . ... : C-3 09 9 ... : D-2 08 . ... : ... .. . ...
ROW 17 : C-2 00 7 ... : ... .. . ... : --- .. . ... : ... .. . ... : ... .. . ... : ... .. . ... : ... .. . ... : ... .. . ...
ROW 18 : G-2 00 6 ... : ... .. . ... : C-3 00 . ... : 4-# 03 8 ... : ... .. . ... : D#3 09 F ... : ... .. . ... : G-3 07 . ...
ROW 19 : C-2 00 5 ... : ... .. . ... : --- .. . ... : ... .. . ... : ... .. . ... : ... .. . ... : ... .. . ... : ... .. . ...
ROW 1A : G-2 00 4 ... : ... .. . ... : C-2 00 . ... : ... .. . ... : ... .. . ... : D-3 09 C ... : ... .. . ... : ... .. . ...
ROW 1B : C-2 00 3 ... : ... .. . ... : --- .. . ... : ... .. . ... : ... .. . ... : ... .. . ... : ... .. . ... : ... .. . ...
ROW 1C : G-2 00 2 ... : ... .. . ... : C-2 00 . ... : ... .. . ... : ... .. . ... : C-3 09 A ... : D#2 08 . ... : ... .. . ...
ROW 1D : C-2 00 1 ... : ... .. . ... : --- .. . ... : ... .. . ... : ... .. . ... : ... .. . ... : ... .. . ... : ... .. . ...
ROW 1E : G-2 00 . ... : ... .. . ... : C-2 00 . ... : 9-# 03 4 ... : ... .. . ... : D#3 09 9 ... : ... .. . ... : ... .. . ...
ROW 1F : C-2 00 . ... : ... .. . ... : --- .. . ... : ... .. . ... : ... .. . ... : ... .. . ... : ... .. . ... : ... .. . ...
ROW 20 : G-2 00 0 ... : ... .. . ... : C-2 00 . ... : 9-# 03 4 ... : ... .. . ... : D-3 09 F ... : G-2 08 . ... : G-3 07 . ...
ROW 21 : D#2 00 1 ... : ... .. . ... : --- 00 . ... : ... .. . ... : ... .. . ... : ... .. . ... : ... .. . ... : ... .. . ...
ROW 22 : G-2 00 2 ... : ... .. . ... : C-2 00 . ... : 9-# 03 . ... : ... .. . ... : C-3 09 C ... : ... .. . ... : ... .. . ...
ROW 23 : D#2 00 3 ... : ... .. . ... : --- 00 . ... : ... .. . ... : ... .. . ... : ... .. . ... : ... .. . ... : ... .. . ...
ROW 24 : G-2 00 4 ... : ... .. . ... : C-2 00 . ... : ... .. . ... : ... .. . ... : D#3 09 A ... : ... .. . ... : ... .. . ...
ROW 25 : D#2 00 5 ... : ... .. . ... : --- 00 . ... : ... .. . ... : ... .. . ... : ... .. . ... : ... .. . ... : ... .. . ...
ROW 26 : G-2 00 6 ... : ... .. . ... : C-2 00 . ... : 9-# 03 . ... : ... .. . ... : D-3 09 9 ... : ... .. . ... : A#3 07 . ...
ROW 27 : D#2 00 7 ... : ... .. . ... : --- 00 . ... : ... .. . ... : ... .. . ... : ... .. . ... : ... .. . ... : ... .. . ...
ROW 28 : G-2 00 8 ... : ... .. . ... : C-3 00 . ... : 4-# 03 8 ... : ... .. . ... : C-3 09 F ... : ... .. . ... : ... .. . ...
ROW 29 : D#2 00 9 ... : ... .. . ... : --- 00 . ... : ... .. . ... : ... .. . ... : ... .. . ... : ... .. . ... : ... .. . ...
ROW 2A : G-2 00 A ... : ... .. . ... : C-2 00 . ... : ... .. . ... : ... .. . ... : D#3 09 C ... : ... .. . ... : ... .. . ...
ROW 2B : D#2 00 B ... : ... .. . ... : --- 00 . ... : ... .. . ... : ... .. . ... : ... .. . ... : ... .. . ... : ... .. . ...
ROW 2C : G-2 00 C ... : ... .. . ... : C-2 00 . ... : 9-# 03 4 ... : ... .. . ... : D-3 09 A ... : ... .. . ... : G#3 07 . ...
ROW 2D : D#2 00 D ... : ... .. . ... : --- 00 . ... : ... .. . ... : ... .. . ... : ... .. . ... : ... .. . ... : ... .. . ...
ROW 2E : G-2 00 E ... : ... .. . ... : C-2 00 . ... : ... .. . ... : ... .. . ... : C-3 09 9 ... : ... .. . ... : ... .. . ...
ROW 2F : D#2 00 F ... : ... .. . ... : --- 00 . ... : ... .. . ... : ... .. . ... : ... .. . ... : ... .. . ... : ... .. . ...
ROW 30 : G-2 00 E ... : ... .. . ... : C-2 00 . ... : 9-# 03 4 ... : ... .. . ... : D#3 09 F ... : G-2 08 . ... : G-3 07 . ...
ROW 31 : D#2 00 D ... : ... .. . ... : --- 00 . ... : ... .. . ... : ... .. . ... : ... .. . ... : ... .. . ... : ... .. . ...
ROW 32 : G-2 00 C ... : ... .. . ... : C-2 00 . ... : ... .. . ... : ... .. . ... : D-3 09 C ... : ... .. . ... : ... .. . ...
ROW 33 : D#2 00 B ... : ... .. . ... : --- 00 . ... : ... .. . ... : ... .. . ... : ... .. . ... : ... .. . ... : ... .. . ...
ROW 34 : G-2 00 A ... : ... .. . ... : C-2 00 . ... : 9-# 03 . ... : ... .. . ... : C-3 09 A ... : ... .. . ... : ... .. . ...
ROW 35 : D#2 00 9 ... : ... .. . ... : --- 00 . ... : ... .. . ... : ... .. . ... : ... .. . ... : ... .. . ... : ... .. . ...
ROW 36 : G-2 00 8 ... : ... .. . ... : C-2 00 . ... : ... .. . ... : ... .. . ... : D#3 09 9 ... : A#2 08 . ... : ... .. . ...
ROW 37 : D#2 00 7 ... : ... .. . ... : --- 00 . ... : ... .. . ... : ... .. . ... : ... .. . ... : ... .. . ... : ... .. . ...
ROW 38 : G-2 00 6 ... : ... .. . ... : C-3 00 . ... : 4-# 03 8 ... : ... .. . ... : D-3 09 F ... : ... .. . ... : ... .. . ...
ROW 39 : D#2 00 5 ... : ... .. . ... : --- 00 . ... : ... .. . ... : ... .. . ... : ... .. . ... : ... .. . ... : ... .. . ...
ROW 3A : G-2 00 4 ... : ... .. . ... : C-2 00 . ... : ... .. . ... : ... .. . ... : C-3 09 C ... : ... .. . ... : ... .. . ...
ROW 3B : D#2 00 3 ... : ... .. . ... : --- 00 . ... : ... .. . ... : ... .. . ... : ... .. . ... : ... .. . ... : ... .. . ...
ROW 3C : F#2 00 2 ... : ... .. . ... : C-2 00 . ... : ... .. . ... : ... .. . ... : F-3 09 A ... : G#2 08 . ... : D-3 07 . ...
ROW 3D : D#2 00 1 ... : ... .. . ... : --- 00 . ... : ... .. . ... : ... .. . ... : ... .. . ... : ... .. . ... : ... .. . ...
ROW 3E : F#2 00 . ... : ... .. . ... : C-2 00 . ... : 9-# 03 4 ... : ... .. . ... : D#3 09 9 ... : ... .. . ... : ... .. . ...
ROW 3F : D#2 00 . ... : ... .. . ... : --- 00 . ... : ... .. . ... : ... .. . ... : ... .. . ... : ... .. . ... : ... .. . ...
ROW 40 : F#2 00 0 ... : ... .. . ... : D#2 00 . ... : 9-# 03 4 ... : ... .. . ... : F#3 09 F ... : D#2 08 . ... : D#3 07 . ...
ROW 41 : D#2 00 1 ... : ... .. . ... : --- 00 . ... : ... .. . ... : ... .. . ... : ... .. . ... : ... .. . ... : ... .. . ...
ROW 42 : F#2 00 2 ... : ... .. . ... : D#2 00 . ... : 9-# 03 . ... : ... .. . ... : F-3 09 C ... : ... .. . ... : ... .. . ...
ROW 43 : D#2 00 3 ... : ... .. . ... : --- 00 . ... : ... .. . ... : ... .. . ... : ... .. . ... : ... .. . ... : ... .. . ...
ROW 44 : F#2 00 4 ... : ... .. . ... : D#2 00 . ... : ... .. . ... : ... .. . ... : D#3 09 A ... : ... .. . ... : ... .. . ...
ROW 45 : D#2 00 5 ... : ... .. . ... : --- 00 . ... : ... .. . ... : ... .. . ... : ... .. . ... : ... .. . ... : ... .. . ...
ROW 46 : F#2 00 6 ... : ... .. . ... : D#2 00 . ... : 9-# 03 . ... : ... .. . ... : F#3 09 9 ... : ... .. . ... : F-3 07 . ...
ROW 47 : D#2 00 7 ... : ... .. . ... : --- 00 . ... : ... .. . ... : ... .. . ... : ... .. . ... : ... .. . ... : ... .. . ...
ROW 48 : F#2 00 8 ... : ... .. . ... : D#3 00 . ... : 4-# 03 8 ... : ... .. . ... : F-3 09 F ... : ... .. . ... : ... .. . ...
ROW 49 : D#2 00 9 ... : ... .. . ... : --- .. . ... : ... .. . ... : ... .. . ... : ... .. . ... : ... .. . ... : ... .. . ...
ROW 4A : F#2 00 A ... : ... .. . ... : D#2 00 . ... : ... .. . ... : ... .. . ... : D#3 09 C ... : ... .. . ... : ... .. . ...
ROW 4B : D#2 00 B ... : ... .. . ... : --- .. . ... : ... .. . ... : ... .. . ... : ... .. . ... : ... .. . ... : ... .. . ...
ROW 4C : F#2 00 C ... : ... .. . ... : D#2 00 . ... : 9-# 03 4 ... : ... .. . ... : F#3 09 A ... : ... .. . ... : F#3 07 . ...
ROW 4D : D#2 00 D ... : ... .. . ... : --- .. . ... : ... .. . ... : ... .. . ... : ... .. . ... : ... .. . ... : ... .. . ...
ROW 4E : F#2 00 E ... : ... .. . ... : D#2 00 . ... : ... .. . ... : ... .. . ... : F-3 09 9 ... : ... .. . ... : ... .. . ...
ROW 4F : D#2 00 F ... : ... .. . ... : --- .. . ... : ... .. . ... : ... .. . ... : ... .. . ... : ... .. . ... : ... .. . ...
ROW 50 : F#2 00 E ... : ... .. . ... : D#2 00 . ... : 9-# 03 4 ... : ... .. . ... : D#3 09 F ... : D#2 08 . ... : D#3 07 . ...
ROW 51 : D#2 00 D ... : ... .. . ... : --- .. . ... : ... .. . ... : ... .. . ... : ... .. . ... : ... .. . ... : ... .. . ...
ROW 52 : F#2 00 C ... : ... .. . ... : D#2 00 . ... : ... .. . ... : ... .. . ... : F#3 09 C ... : ... .. . ... : ... .. . ...
ROW 53 : D#2 00 B ... : ... .. . ... : --- .. . ... : ... .. . ... : ... .. . ... : ... .. . ... : ... .. . ... : ... .. . ...
ROW 54 : F#2 00 A ... : ... .. . ... : D#2 00 . ... : 9-# 03 . ... : ... .. . ... : F-3 09 A ... : ... .. . ... : ... .. . ...
ROW 55 : D#2 00 9 ... : ... .. . ... : --- .. . ... : ... .. . ... : ... .. . ... : ... .. . ... : ... .. . ... : ... .. . ...
ROW 56 : F#2 00 8 ... : ... .. . ... : D#2 00 . ... : ... .. . ... : ... .. . ... : D#3 09 9 ... : F-2 08 . ... : F-3 07 . ...
ROW 57 : D#2 00 7 ... : ... .. . ... : --- .. . ... : ... .. . ... : ... .. . ... : ... .. . ... : ... .. . ... : ... .. . ...
ROW 58 : F#2 00 6 ... : ... .. . ... : D#3 00 . ... : 4-# 03 8 ... : ... .. . ... : F#3 09 F ... : ... .. . ... : ... .. . ...
ROW 59 : D#2 00 5 ... : ... .. . ... : --- .. . ... : ... .. . ... : ... .. . ... : ... .. . ... : ... .. . ... : ... .. . ...
ROW 5A : F#2 00 4 ... : ... .. . ... : D#2 00 . ... : ... .. . ... : ... .. . ... : F-3 09 C ... : ... .. . ... : ... .. . ...
ROW 5B : D#2 00 3 ... : ... .. . ... : --- .. . ... : ... .. . ... : ... .. . ... : ... .. . ... : ... .. . ... : ... .. . ...
ROW 5C : F#2 00 2 ... : ... .. . ... : D#2 00 . ... : ... .. . ... : ... .. . ... : D#3 09 A ... : F#2 08 . ... : F#3 07 . ...
ROW 5D : D#2 00 1 ... : ... .. . ... : --- .. . ... : ... .. . ... : ... .. . ... : ... .. . ... : ... .. . ... : ... .. . ...
ROW 5E : F#2 00 0 ... : ... .. . ... : D#2 00 . ... : 9-# 03 4 ... : ... .. . ... : F#3 09 9 ... : ... .. . ... : ... .. . ...
ROW 5F : D#2 00 . ... : ... .. . ... : --- .. . ... : ... .. . ... : ... .. . ... : ... .. . ... : ... .. . ... : ... .. . ...
ROW 60 : F#2 00 0 ... : ... .. . ... : D-2 00 . ... : 9-# 03 4 ... : ... .. . ... : A#3 09 F ... : ... .. . ... : A#3 01 . ...
ROW 61 : A#2 00 1 ... : ... .. . ... : --- .. . ... : ... .. . ... : ... .. . ... : ... .. . ... : A#2 01 . ... : ... .. . ...
ROW 62 : F#2 00 2 ... : ... .. . ... : D-2 00 . ... : 9-# 03 . ... : ... .. . ... : G#3 09 C ... : ... .. . ... : ... .. . ...
ROW 63 : A#2 00 3 ... : ... .. . ... : --- .. . ... : ... .. . ... : ... .. . ... : ... .. . ... : ... .. . ... : ... .. . ...
ROW 64 : F#2 00 4 ... : ... .. . ... : D-2 00 . ... : ... .. . ... : ... .. . ... : G-3 09 A ... : ... .. . ... : --- .. . ...
ROW 65 : A#2 00 5 ... : ... .. . ... : --- .. . ... : ... .. . ... : ... .. . ... : ... .. . ... : --- .. . ... : ... .. . ...
ROW 66 : F#2 00 6 ... : ... .. . ... : D-2 00 . ... : 9-# 03 . ... : ... .. . ... : A#3 09 9 ... : ... .. . ... : ... .. . ...
ROW 67 : A#2 00 7 ... : ... .. . ... : --- .. . ... : ... .. . ... : ... .. . ... : ... .. . ... : ... .. . ... : ... .. . ...
ROW 68 : F#2 00 8 ... : ... .. . ... : D-3 00 . ... : 4-# 03 8 ... : ... .. . ... : G#3 09 F ... : ... .. . ... : G#3 01 . ...
ROW 69 : A#2 00 9 ... : ... .. . ... : --- .. . ... : ... .. . ... : ... .. . ... : ... .. . ... : G#2 01 . ... : ... .. . ...
ROW 6A : F#2 00 A ... : ... .. . ... : D-2 00 . ... : ... .. . ... : ... .. . ... : G-3 09 C ... : ... .. . ... : ... .. . ...
ROW 6B : A#2 00 B ... : ... .. . ... : --- .. . ... : ... .. . ... : ... .. . ... : ... .. . ... : ... .. . ... : ... .. . ...
ROW 6C : F#2 00 C ... : ... .. . ... : D-2 00 . ... : 9-# 03 4 ... : ... .. . ... : A#3 09 A ... : ... .. . ... : --- .. . ...
ROW 6D : A#2 00 D ... : ... .. . ... : --- .. . ... : ... .. . ... : ... .. . ... : ... .. . ... : --- .. . ... : ... .. . ...
ROW 6E : F#2 00 E ... : ... .. . ... : D-2 00 . ... : ... .. . ... : ... .. . ... : G#3 09 9 ... : ... .. . ... : ... .. . ...
ROW 6F : A#2 00 F ... : ... .. . ... : --- .. . ... : ... .. . ... : ... .. . ... : ... .. . ... : ... .. . ... : ... .. . ...
ROW 70 : F#2 00 E ... : ... .. . ... : D-2 00 . ... : 9-# 03 4 ... : ... .. . ... : G-3 09 F ... : ... .. . ... : G-3 01 . ...
ROW 71 : A#2 00 D ... : ... .. . ... : --- .. . ... : ... .. . ... : ... .. . ... : ... .. . ... : G-2 01 . ... : ... .. . ...
ROW 72 : F#2 00 C ... : ... .. . ... : D-2 00 . ... : ... .. . ... : ... .. . ... : A#3 09 C ... : ... .. . ... : ... .. . ...
ROW 73 : A#2 00 B ... : ... .. . ... : --- .. . ... : ... .. . ... : ... .. . ... : ... .. . ... : ... .. . ... : ... .. . ...
ROW 74 : F#2 00 A ... : ... .. . ... : D-2 00 . ... : 9-# 03 . ... : ... .. . ... : G#3 09 A ... : ... .. . ... : --- .. . ...
ROW 75 : A#2 00 9 ... : ... .. . ... : --- .. . ... : ... .. . ... : ... .. . ... : ... .. . ... : --- .. . ... : ... .. . ...
ROW 76 : F#2 00 8 ... : ... .. . ... : D-2 00 . ... : ... .. . ... : ... .. . ... : G-3 09 9 ... : ... .. . ... : ... .. . ...
ROW 77 : A#2 00 7 ... : ... .. . ... : --- .. . ... : ... .. . ... : ... .. . ... : ... .. . ... : ... .. . ... : ... .. . ...
ROW 78 : F#2 00 6 ... : ... .. . ... : D-3 00 . ... : 4-# 03 8 ... : ... .. . ... : A#3 09 F ... : ... .. . ... : D-3 01 . ...
ROW 79 : D-3 00 5 ... : ... .. . ... : --- .. . ... : ... .. . ... : ... .. . ... : ... .. . ... : D-2 01 . ... : ... .. . ...
ROW 7A : F#2 00 4 ... : ... .. . ... : D-2 00 . ... : ... .. . ... : ... .. . ... : G#3 09 C ... : ... .. . ... : ... .. . ...
ROW 7B : D-3 00 3 ... : ... .. . ... : --- .. . ... : ... .. . ... : ... .. . ... : ... .. . ... : ... .. . ... : ... .. . ...
ROW 7C : F#2 00 2 ... : ... .. . ... : D-2 00 . ... : ... .. . ... : ... .. . ... : G-3 09 A ... : ... .. . ... : --- .. . ...
ROW 7D : D-3 00 1 ... : ... .. . ... : --- .. . ... : ... .. . ... : ... .. . ... : ... .. . ... : --- .. . ... : ... .. . ...
ROW 7E : F#2 00 0 ... : ... .. . ... : D-2 00 . ... : 9-# 03 4 ... : ... .. . ... : A#3 09 9 ... : ... .. . ... : ... .. . ...
ROW 7F : D-3 00 . ... : ... .. . ... : --- .. . ... : ... .. . ... : ... .. . ... : ... .. . ... : ... .. . ... : ... .. . ...

PATTERN 0D
ROW 00 : G-2 00 8 ... : ... .. . ... : D-3 00 . ... : 4-# 03 8 ... : ... .. . ... : D-3 09 F ... : B-2 07 . ... : D-3 07 . ...
ROW 01 : B-2 00 9 ... : ... .. . ... : --- .. . ... : ... .. . ... : ... .. . ... : ... .. . ... : ... .. . ... : ... .. . ...
ROW 02 : G-2 00 A ... : ... .. . ... : D-2 00 . ... : ... .. . ... : ... .. . ... : B-2 09 C ... : ... .. . ... : ... .. . ...
ROW 03 : B-2 00 B ... : ... .. . ... : --- .. . ... : ... .. . ... : ... .. . ... : ... .. . ... : ... .. . ... : ... .. . ...
ROW 04 : G-2 00 C ... : ... .. . ... : D-2 00 . ... : 9-# 03 4 ... : ... .. . ... : G-3 09 A ... : ... .. . ... : ... .. . ...
ROW 05 : B-2 00 D ... : ... .. . ... : --- .. . ... : ... .. . ... : ... .. . ... : ... .. . ... : ... .. . ... : ... .. . ...
ROW 06 : G-2 00 E ... : ... .. . ... : D-2 00 . ... : ... .. . ... : ... .. . ... : D-3 09 9 ... : ... .. . ... : ... .. . ...
ROW 07 : B-2 00 F ... : ... .. . ... : --- .. . ... : ... .. . ... : ... .. . ... : ... .. . ... : ... .. . ... : ... .. . ...
ROW 08 : G-2 00 E ... : ... .. . ... : D-2 00 . ... : 4-# 03 C ... : ... .. . ... : B-2 09 F ... : ... .. . ... : ... .. . ...
ROW 09 : B-2 00 D ... : ... .. . ... : --- .. . ... : ... .. . ... : ... .. . ... : ... .. . ... : ... .. . ... : ... .. . ...
ROW 0A : G-2 00 C ... : ... .. . ... : D-2 00 . ... : 4-# 03 A ... : ... .. . ... : G-3 09 C ... : ... .. . ... : ... .. . ...
ROW 0B : B-2 00 B ... : ... .. . ... : --- .. . ... : ... .. . ... : ... .. . ... : ... .. . ... : ... .. . ... : ... .. . ...
ROW 0C : G-2 00 A ... : ... .. . ... : D-2 00 . ... : 5-# 03 . ... : ... .. . ... : D-3 09 A ... : G-4 08 C ... : ... .. . ...
ROW 0D : B-2 00 9 ... : ... .. . ... : --- .. . ... : ... .. . ... : ... .. . ... : ... .. . ... : ... .. . ... : ... .. . ...
ROW 0E : G-2 00 8 ... : ... .. . ... : D-2 00 . ... : 9-# 03 C ... : ... .. . ... : B-2 09 9 ... : ... .. . ... : G-4 07 7 ...
ROW 0F : B-2 00 7 ... : ... .. . ... : --- .. . ... : ... .. . ... : ... .. . ... : ... .. . ... : ... .. . ... : ... .. . ...
ROW 10 : G-2 00 6 ... : ... .. . ... : D-3 00 . ... : 4-# 03 F ... : ... .. . ... : G-3 09 F ... : C-5 08 . ... : ... .. . ...
ROW 11 : B-2 00 5 ... : ... .. . ... : --- .. . ... : ... .. . ... : ... .. . ... : ... .. . ... : ... .. . ... : ... .. . ...
ROW 12 : G-2 00 4 ... : ... .. . ... : D-2 00 . ... : 4-# 03 . ... : ... .. . ... : D-3 09 C ... : ... .. . ... : C-5 07 . ...
ROW 13 : B-2 00 3 ... : ... .. . ... : --- .. . ... : ... .. . ... : ... .. . ... : ... .. . ... : ... .. . ... : ... .. . ...
ROW 14 : G-2 00 2 ... : ... .. . ... : D-2 00 . ... : 5-# 03 . ... : ... .. . ... : B-2 09 A ... : D-5 08 . ... : ... .. . ...
ROW 15 : B-2 00 1 ... : ... .. . ... : --- .. . ... : ... .. . ... : ... .. . ... : ... .. . ... : ... .. . ... : ... .. . ...
ROW 16 : G-2 00 0 ... : ... .. . ... : D-2 00 . ... : 9-# 03 C ... : ... .. . ... : G-3 09 9 ... : ... .. . ... : D-5 07 . ...
ROW 17 : B-2 00 . ... : ... .. . ... : --- .. . ... : ... .. . ... : ... .. . ... : ... .. . D00 : ... .. . ... : ... .. . ...
ROW 18 : ... .. . ... : ... .. . ... : ... .. . ... : ... .. . ... : ... .. . ... : ... .. . ... : ... .. . ... : ... .. . ...
ROW 19 : ... .. . ... : ... .. . ... : ... .. . ... : ... .. . ... : ... .. . ... : ... .. . ... : ... .. . ... : ... .. . ...
ROW 1A : ... .. . ... : ... .. . ... : ... .. . ... : ... .. . ... : ... .. . ... : ... .. . ... : ... .. . ... : ... .. . ...
ROW 1B : ... .. . ... : ... .. . ... : ... .. . ... : ... .. . ... : ... .. . ... : ... .. . ... : ... .. . ... : ... .. . ...
ROW 1C : ... .. . ... : ... .. . ... : ... .. . ... : ... .. . ... : ... .. . ... : ... .. . ... : ... .. . ... : ... .. . ...
ROW 1D : ... .. . ... : ... .. . ... : ... .. . ... : ... .. . ... : ... .. . ... : ... .. . ... : ... .. . ... : ... .. . ...
ROW 1E : ... .. . ... : ... .. . ... : ... .. . ... : ... .. . ... : ... .. . ... : ... .. . ... : ... .. . ... : ... .. . ...
ROW 1F : ... .. . ... : ... .. . ... : ... .. . ... : ... .. . ... : ... .. . ... : ... .. . ... : ... .. . ... : ... .. . ...
ROW 20 : ... .. . ... : ... .. . ... : ... .. . ... : ... .. . ... : ... .. . ... : ... .. . ... : ... .. . ... : ... .. . ...
ROW 21 : ... .. . ... : ... .. . ... : ... .. . ... : ... .. . ... : ... .. . ... : ... .. . ... : ... .. . ... : ... .. . ...
ROW 22 : ... .. . ... : ... .. . ... : ... .. . ... : ... .. . ... : ... .. . ... : ... .. . ... : ... .. . ... : ... .. . ...
ROW 23 : ... .. . ... : ... .. . ... : ... .. . ... : ... .. . ... : ... .. . ... : ... .. . ... : ... .. . ... : ... .. . ...
ROW 24 : ... .. . ... : ... .. . ... : ... .. . ... : ... .. . ... : ... .. . ... : ... .. . ... : ... .. . ... : ... .. . ...
ROW 25 : ... .. . ... : ... .. . ... : ... .. . ... : ... .. . ... : ... .. . ... : ... .. . ... : ... .. . ... : ... .. . ...
ROW 26 : ... .. . ... : ... .. . ... : ... .. . ... : ... .. . ... : ... .. . ... : ... .. . ... : ... .. . ... : ... .. . ...
ROW 27 : ... .. . ... : ... .. . ... : ... .. . ... : ... .. . ... : ... .. . ... : ... .. . ... : ... .. . ... : ... .. . ...
ROW 28 : ... .. . ... : ... .. . ... : ... .. . ... : ... .. . ... : ... .. . ... : ... .. . ... : ... .. . ... : ... .. . ...
ROW 29 : ... .. . ... : ... .. . ... : ... .. . ... : ... .. . ... : ... .. . ... : ... .. . ... : ... .. . ... : ... .. . ...
ROW 2A : ... .. . ... : ... .. . ... : ... .. . ... : ... .. . ... : ... .. . ... : ... .. . ... : ... .. . ... : ... .. . ...
ROW 2B : ... .. . ... : ... .. . ... : ... .. . ... : ... .. . ... : ... .. . ... : ... .. . ... : ... .. . ... : ... .. . ...
ROW 2C : ... .. . ... : ... .. . ... : ... .. . ... : ... .. . ... : ... .. . ... : ... .. . ... : ... .. . ... : ... .. . ...
ROW 2D : ... .. . ... : ... .. . ... : ... .. . ... : ... .. . ... : ... .. . ... : ... .. . ... : ... .. . ... : ... .. . ...
ROW 2E : ... .. . ... : ... .. . ... : ... .. . ... : ... .. . ... : ... .. . ... : ... .. . ... : ... .. . ... : ... .. . ...
ROW 2F : ... .. . ... : ... .. . ... : ... .. . ... : ... .. . ... : ... .. . ... : ... .. . ... : ... .. . ... : ... .. . ...
ROW 30 : ... .. . ... : ... .. . ... : ... .. . ... : ... .. . ... : ... .. . ... : ... .. . ... : ... .. . ... : ... .. . ...
ROW 31 : ... .. . ... : ... .. . ... : ... .. . ... : ... .. . ... : ... .. . ... : ... .. . ... : ... .. . ... : ... .. . ...
ROW 32 : ... .. . ... : ... .. . ... : ... .. . ... : ... .. . ... : ... .. . ... : ... .. . ... : ... .. . ... : ... .. . ...
ROW 33 : ... .. . ... : ... .. . ... : ... .. . ... : ... .. . ... : ... .. . ... : ... .. . ... : ... .. . ... : ... .. . ...
ROW 34 : ... .. . ... : ... .. . ... : ... .. . ... : ... .. . ... : ... .. . ... : ... .. . ... : ... .. . ... : ... .. . ...
ROW 35 : ... .. . ... : ... .. . ... : ... .. . ... : ... .. . ... : ... .. . ... : ... .. . ... : ... .. . ... : ... .. . ...
ROW 36 : ... .. . ... : ... .. . ... : ... .. . ... : ... .. . ... : ... .. . ... : ... .. . ... : ... .. . ... : ... .. . ...
ROW 37 : ... .. . ... : ... .. . ... : ... .. . ... : ... .. . ... : ... .. . ... : ... .. . ... : ... .. . ... : ... .. . ...
ROW 38 : ... .. . ... : ... .. . ... : ... .. . ... : ... .. . ... : ... .. . ... : ... .. . ... : ... .. . ... : ... .. . ...
ROW 39 : ... .. . ... : ... .. . ... : ... .. . ... : ... .. . ... : ... .. . ... : ... .. . ... : ... .. . ... : ... .. . ...
ROW 3A : ... .. . ... : ... .. . ... : ... .. . ... : ... .. . ... : ... .. . ... : ... .. . ... : ... .. . ... : ... .. . ...
ROW 3B : ... .. . ... : ... .. . ... : ... .. . ... : ... .. . ... : ... .. . ... : ... .. . ... : ... .. . ... : ... .. . ...
ROW 3C : ... .. . ... : ... .. . ... : ... .. . ... : ... .. . ... : ... .. . ... : ... .. . ... : ... .. . ... : ... .. . ...
ROW 3D : ... .. . ... : ... .. . ... : ... .. . ... : ... .. . ... : ... .. . ... : ... .. . ... : ... .. . ... : ... .. . ...
ROW 3E : ... .. . ... : ... .. . ... : ... .. . ... : ... .. . ... : ... .. . ... : ... .. . ... : ... .. . ... : ... .. . ...
ROW 3F : ... .. . ... : ... .. . ... : ... .. . ... : ... .. . ... : ... .. . ... : ... .. . ... : ... .. . ... : ... .. . ...
ROW 40 : ... .. . ... : ... .. . ... : ... .. . ... : ... .. . ... : ... .. . ... : ... .. . ... : ... .. . ... : ... .. . ...
ROW 41 : ... .. . ... : ... .. . ... : ... .. . ... : ... .. . ... : ... .. . ... : ... .. . ... : ... .. . ... : ... .. . ...
ROW 42 : ... .. . ... : ... .. . ... : ... .. . ... : ... .. . ... : ... .. . ... : ... .. . ... : ... .. . ... : ... .. . ...
ROW 43 : ... .. . ... : ... .. . ... : ... .. . ... : ... .. . ... : ... .. . ... : ... .. . ... : ... .. . ... : ... .. . ...
ROW 44 : ... .. . ... : ... .. . ... : ... .. . ... : ... .. . ... : ... .. . ... : ... .. . ... : ... .. . ... : ... .. . ...
ROW 45 : ... .. . ... : ... .. . ... : ... .. . ... : ... .. . ... : ... .. . ... : ... .. . ... : ... .. . ... : ... .. . ...
ROW 46 : ... .. . ... : ... .. . ... : ... .. . ... : ... .. . ... : ... .. . ... : ... .. . ... : ... .. . ... : ... .. . ...
ROW 47 : ... .. . ... : ... .. . ... : ... .. . ... : ... .. . ... : ... .. . ... : ... .. . ... : ... .. . ... : ... .. . ...
ROW 48 : ... .. . ... : ... .. . ... : ... .. . ... : ... .. . ... : ... .. . ... : ... .. . ... : ... .. . ... : ... .. . ...
ROW 49 : ... .. . ... : ... .. . ... : ... .. . ... : ... .. . ... : ... .. . ... : ... .. . ... : ... .. . ... : ... .. . ...
ROW 4A : ... .. . ... : ... .. . ... : ... .. . ... : ... .. . ... : ... .. . ... : ... .. . ... : ... .. . ... : ... .. . ...
ROW 4B : ... .. . ... : ... .. . ... : ... .. . ... : ... .. . ... : ... .. . ... : ... .. . ... : ... .. . ... : ... .. . ...
ROW 4C : ... .. . ... : ... .. . ... : ... .. . ... : ... .. . ... : ... .. . ... : ... .. . ... : ... .. . ... : ... .. . ...
ROW 4D : ... .. . ... : ... .. . ... : ... .. . ... : ... .. . ... : ... .. . ... : ... .. . ... : ... .. . ... : ... .. . ...
ROW 4E : ... .. . ... : ... .. . ... : ... .. . ... : ... .. . ... : ... .. . ... : ... .. . ... : ... .. . ... : ... .. . ...
ROW 4F : ... .. . ... : ... .. . ... : ... .. . ... : ... .. . ... : ... .. . ... : ... .. . ... : ... .. . ... : ... .. . ...
ROW 50 : ... .. . ... : ... .. . ... : ... .. . ... : ... .. . ... : ... .. . ... : ... .. . ... : ... .. . ... : ... .. . ...
ROW 51 : ... .. . ... : ... .. . ... : ... .. . ... : ... .. . ... : ... .. . ... : ... .. . ... : ... .. . ... : ... .. . ...
ROW 52 : ... .. . ... : ... .. . ... : ... .. . ... : ... .. . ... : ... .. . ... : ... .. . ... : ... .. . ... : ... .. . ...
ROW 53 : ... .. . ... : ... .. . ... : ... .. . ... : ... .. . ... : ... .. . ... : ... .. . ... : ... .. . ... : ... .. . ...
ROW 54 : ... .. . ... : ... .. . ... : ... .. . ... : ... .. . ... : ... .. . ... : ... .. . ... : ... .. . ... : ... .. . ...
ROW 55 : ... .. . ... : ... .. . ... : ... .. . ... : ... .. . ... : ... .. . ... : ... .. . ... : ... .. . ... : ... .. . ...
ROW 56 : ... .. . ... : ... .. . ... : ... .. . ... : ... .. . ... : ... .. . ... : ... .. . ... : ... .. . ... : ... .. . ...
ROW 57 : ... .. . ... : ... .. . ... : ... .. . ... : ... .. . ... : ... .. . ... : ... .. . ... : ... .. . ... : ... .. . ...
ROW 58 : ... .. . ... : ... .. . ... : ... .. . ... : ... .. . ... : ... .. . ... : ... .. . ... : ... .. . ... : ... .. . ...
ROW 59 : ... .. . ... : ... .. . ... : ... .. . ... : ... .. . ... : ... .. . ... : ... .. . ... : ... .. . ... : ... .. . ...
ROW 5A : ... .. . ... : ... .. . ... : ... .. . ... : ... .. . ... : ... .. . ... : ... .. . ... : ... .. . ... : ... .. . ...
ROW 5B : ... .. . ... : ... .. . ... : ... .. . ... : ... .. . ... : ... .. . ... : ... .. . ... : ... .. . ... : ... .. . ...
ROW 5C : ... .. . ... : ... .. . ... : ... .. . ... : ... .. . ... : ... .. . ... : ... .. . ... : ... .. . ... : ... .. . ...
ROW 5D : ... .. . ... : ... .. . ... : ... .. . ... : ... .. . ... : ... .. . ... : ... .. . ... : ... .. . ... : ... .. . ...
ROW 5E : ... .. . ... : ... .. . ... : ... .. . ... : ... .. . ... : ... .. . ... : ... .. . ... : ... .. . ... : ... .. . ...
ROW 5F : ... .. . ... : ... .. . ... : ... .. . ... : ... .. . ... : ... .. . ... : ... .. . ... : ... .. . ... : ... .. . ...
ROW 60 : ... .. . ... : ... .. . ... : ... .. . ... : ... .. . ... : ... .. . ... : ... .. . ... : ... .. . ... : ... .. . ...
ROW 61 : ... .. . ... : ... .. . ... : ... .. . ... : ... .. . ... : ... .. . ... : ... .. . ... : ... .. . ... : ... .. . ...
ROW 62 : ... .. . ... : ... .. . ... : ... .. . ... : ... .. . ... : ... .. . ... : ... .. . ... : ... .. . ... : ... .. . ...
ROW 63 : ... .. . ... : ... .. . ... : ... .. . ... : ... .. . ... : ... .. . ... : ... .. . ... : ... .. . ... : ... .. . ...
ROW 64 : ... .. . ... : ... .. . ... : ... .. . ... : ... .. . ... : ... .. . ... : ... .. . ... : ... .. . ... : ... .. . ...
ROW 65 : ... .. . ... : ... .. . ... : ... .. . ... : ... .. . ... : ... .. . ... : ... .. . ... : ... .. . ... : ... .. . ...
ROW 66 : ... .. . ... : ... .. . ... : ... .. . ... : ... .. . ... : ... .. . ... : ... .. . ... : ... .. . ... : ... .. . ...
ROW 67 : ... .. . ... : ... .. . ... : ... .. . ... : ... .. . ... : ... .. . ... : ... .. . ... : ... .. . ... : ... .. . ...
ROW 68 : ... .. . ... : ... .. . ... : ... .. . ... : ... .. . ... : ... .. . ... : ... .. . ... : ... .. . ... : ... .. . ...
ROW 69 : ... .. . ... : ... .. . ... : ... .. . ... : ... .. . ... : ... .. . ... : ... .. . ... : ... .. . ... : ... .. . ...
ROW 6A : ... .. . ... : ... .. . ... : ... .. . ... : ... .. . ... : ... .. . ... : ... .. . ... : ... .. . ... : ... .. . ...
ROW 6B : ... .. . ... : ... .. . ... : ... .. . ... : ... .. . ... : ... .. . ... : ... .. . ... : ... .. . ... : ... .. . ...
ROW 6C : ... .. . ... : ... .. . ... : ... .. . ... : ... .. . ... : ... .. . ... : ... .. . ... : ... .. . ... : ... .. . ...
ROW 6D : ... .. . ... : ... .. . ... : ... .. . ... : ... .. . ... : ... .. . ... : ... .. . ... : ... .. . ... : ... .. . ...
ROW 6E : ... .. . ... : ... .. . ... : ... .. . ... : ... .. . ... : ... .. . ... : ... .. . ... : ... .. . ... : ... .. . ...
ROW 6F : ... .. . ... : ... .. . ... : ... .. . ... : ... .. . ... : ... .. . ... : ... .. . ... : ... .. . ... : ... .. . ...
ROW 70 : ... .. . ... : ... .. . ... : ... .. . ... : ... .. . ... : ... .. . ... : ... .. . ... : ... .. . ... : ... .. . ...
ROW 71 : ... .. . ... : ... .. . ... : ... .. . ... : ... .. . ... : ... .. . ... : ... .. . ... : ... .. . ... : ... .. . ...
ROW 72 : ... .. . ... : ... .. . ... : ... .. . ... : ... .. . ... : ... .. . ... : ... .. . ... : ... .. . ... : ... .. . ...
ROW 73 : ... .. . ... : ... .. . ... : ... .. . ... : ... .. . ... : ... .. . ... : ... .. . ... : ... .. . ... : ... .. . ...
ROW 74 : ... .. . ... : ... .. . ... : ... .. . ... : ... .. . ... : ... .. . ... : ... .. . ... : ... .. . ... : ... .. . ...
ROW 75 : ... .. . ... : ... .. . ... : ... .. . ... : ... .. . ... : ... .. . ... : ... .. . ... : ... .. . ... : ... .. . ...
ROW 76 : ... .. . ... : ... .. . ... : ... .. . ... : ... .. . ... : ... .. . ... : ... .. . ... : ... .. . ... : ... .. . ...
ROW 77 : ... .. . ... : ... .. . ... : ... .. . ... : ... .. . ... : ... .. . ... : ... .. . ... : ... .. . ... : ... .. . ...
ROW 78 : ... .. . ... : ... .. . ... : ... .. . ... : ... .. . ... : ... .. . ... : ... .. . ... : ... .. . ... : ... .. . ...
ROW 79 : ... .. . ... : ... .. . ... : ... .. . ... : ... .. . ... : ... .. . ... : ... .. . ... : ... .. . ... : ... .. . ...
ROW 7A : ... .. . ... : ... .. . ... : ... .. . ... : ... .. . ... : ... .. . ... : ... .. . ... : ... .. . ... : ... .. . ...
ROW 7B : ... .. . ... : ... .. . ... : ... .. . ... : ... .. . ... : ... .. . ... : ... .. . ... : ... .. . ... : ... .. . ...
ROW 7C : ... .. . ... : ... .. . ... : ... .. . ... : ... .. . ... : ... .. . ... : ... .. . ... : ... .. . ... : ... .. . ...
ROW 7D : ... .. . ... : ... .. . ... : ... .. . ... : ... .. . ... : ... .. . ... : ... .. . ... : ... .. . ... : ... .. . ...
ROW 7E : ... .. . ... : ... .. . ... : ... .. . ... : ... .. . ... : ... .. . ... : ... .. . ... : ... .. . ... : ... .. . ...
ROW 7F : ... .. . ... : ... .. . ... : ... .. . ... : ... .. . ... : ... .. . ... : ... .. . ... : ... .. . ... : ... .. . ...

PATTERN 0E
ROW 00 : G-2 00 0 ... : C-3 0D F ... : C-2 00 . ... : 2-# 06 F ... : ... .. . ... : D#3 09 F ... : D#5 08 C ... : ... .. . ...
ROW 01 : C-2 00 1 ... : ... .. . ... : --- .. . ... : ... .. . ... : ... .. . ... : ... .. . ... : ... .. . ... : ... .. . ...
ROW 02 : G-2 00 2 ... : C-3 0D C ... : C-2 00 . ... : ... .. . ... : ... .. . ... : D#3 09 C ... : ... .. . ... : D#5 07 8 ...
ROW 03 : C-2 00 3 ... : ... .. . ... : --- .. . ... : ... .. . ... : ... .. . ... : ... .. . ... : ... .. . ... : ... .. . ...
ROW 04 : G-2 00 4 ... : C-3 0D A ... : C-2 00 . ... : ... .. . ... : ... .. . ... : D#3 09 A ... : ... .. . ... : ... .. . ...
ROW 05 : C-2 00 5 ... : ... .. . ... : --- .. . ... : ... .. . ... : ... .. . ... : ... .. . ... : ... .. . ... : ... .. . ...
ROW 06 : G-2 00 6 ... : C-3 0D 9 ... : C-2 00 . ... : ... .. . ... : ... .. . ... : D#3 09 9 ... : D-5 08 D ... : ... .. . ...
ROW 07 : C-2 00 7 ... : ... .. . ... : --- .. . ... : ... .. . ... : ... .. . ... : ... .. . ... : ... .. . ... : ... .. . ...
ROW 08 : G-2 00 8 ... : C-3 0D F ... : C-3 00 . ... : 4-# 03 A ... : ... .. . ... : D#3 09 F ... : ... .. . ... : D-5 07 . ...
ROW 09 : C-2 00 9 ... : ... .. . ... : --- 00 . ... : ... .. . ... : ... .. . ... : ... .. . ... : ... .. . ... : ... .. . ...
ROW 0A : G-2 00 A ... : C-3 0D C ... : C-2 00 . ... : ... .. . ... : ... .. . ... : D#3 09 C ... : ... .. . ... : ... .. . ...
ROW 0B : C-2 00 B ... : ... .. . ... : --- 00 . ... : ... .. . ... : ... .. . ... : ... .. . ... : ... .. . ... : ... .. . ...
ROW 0C : G-2 00 C ... : C-3 0D A ... : C-2 00 . ... : ... .. . ... : ... .. . ... : D#3 09 A ... : C-5 08 E ... : ... .. . ...
ROW 0D : C-2 00 D ... : ... .. . ... : --- 00 . ... : ... .. . ... : ... .. . ... : ... .. . ... : ... .. . ... : ... .. . ...
ROW 0E : G-2 00 E ... : C-3 0D 9 ... : C-2 00 . ... : ... .. . ... : ... .. . ... : D#3 09 9 ... : ... .. . ... : C-5 07 . ...
ROW 0F : C-2 00 F ... : ... .. . ... : --- .. . ... : ... .. . ... : ... .. . ... : ... .. . ... : ... .. . ... : ... .. . ...
ROW 10 : G-2 00 E ... : C-3 0D F ... : C-2 00 . ... : 3-# 06 8 ... : ... .. . ... : D#3 09 F ... : G-4 08 F ... : ... .. . ...
ROW 11 : C-2 00 D ... : ... .. . ... : --- .. . ... : ... .. . ... : ... .. . ... : ... .. . ... : ... .. . ... : ... .. . ...
ROW 12 : G-2 00 C ... : C-3 0D C ... : C-2 00 . ... : ... .. . ... : ... .. . ... : D#3 09 C ... : ... .. . ... : G-4 07 . ...
ROW 13 : C-2 00 B ... : ... .. . ... : --- .. . ... : ... .. . ... : ... .. . ... : ... .. . ... : ... .. . ... : ... .. . ...
ROW 14 : G-2 00 A ... : C-3 0D A ... : C-2 00 . ... : ... .. . ... : ... .. . ... : D#3 09 A ... : ... .. . ... : ... .. . ...
ROW 15 : C-2 00 9 ... : ... .. . ... : --- .. . ... : ... .. . ... : ... .. . ... : ... .. . ... : ... .. . ... : ... .. . ...
ROW 16 : G-2 00 8 ... : C-3 0D 9 ... : C-2 00 . ... : ... .. . ... : ... .. . ... : D#3 09 9 ... : ... .. . ... : ... .. . ...
ROW 17 : C-2 00 7 ... : ... .. . ... : --- .. . ... : ... .. . ... : ... .. . ... : ... .. . ... : ... .. . ... : ... .. . ...
ROW 18 : G-2 00 6 ... : C-3 0D F ... : C-3 00 . ... : 4-# 03 A ... : ... .. . ... : D#3 09 F ... : ... .. . ... : ... .. . ...
ROW 19 : C-2 00 5 ... : ... .. . ... : --- .. . ... : ... .. . ... : ... .. . ... : ... .. . ... : ... .. . ... : ... .. . ...
ROW 1A : G-2 00 4 ... : C-3 0D C ... : C-2 00 . ... : ... .. . ... : ... .. . ... : D#3 09 C ... : ... .. . ... : ... .. . ...
ROW 1B : C-2 00 3 ... : ... .. . ... : --- .. . ... : ... .. . ... : ... .. . ... : ... .. . ... : ... .. . ... : ... .. . ...
ROW 1C : G-2 00 2 ... : C-3 0D A ... : C-2 00 . ... : ... .. . ... : ... .. . ... : D#3 09 A ... : ... .. . ... : ... .. . ...
ROW 1D : C-2 00 1 ... : ... .. . ... : --- .. . ... : ... .. . ... : ... .. . ... : ... .. . ... : ... .. . ... : ... .. . ...
ROW 1E : G-2 00 . ... : C-3 0D 9 ... : C-2 00 . ... : ... .. . ... : ... .. . ... : D#3 09 9 ... : ... .. . ... : ... .. . ...
ROW 1F : C-2 00 . ... : ... .. . ... : --- .. . ... : ... .. . ... : ... .. . ... : ... .. . ... : ... .. . ... : ... .. . ...
ROW 20 : G-2 00 0 ... : C-3 0D F ... : C-2 00 . ... : 2-# 06 8 ... : ... .. . ... : D#3 09 F ... : ... .. . ... : ... .. . ...
ROW 21 : D#2 00 1 ... : ... .. . ... : --- 00 . ... : ... .. . ... : ... .. . ... : ... .. . ... : ... .. . ... : ... .. . ...
ROW 22 : G-2 00 2 ... : C-3 0D C ... : C-2 00 . ... : ... .. . ... : ... .. . ... : D#3 09 C ... : ... .. . ... : ... .. . ...
ROW 23 : D#2 00 3 ... : ... .. . ... : --- 00 . ... : ... .. . ... : ... .. . ... : ... .. . ... : ... .. . ... : ... .. . ...
ROW 24 : G-2 00 4 ... : C-3 0D A ... : C-2 00 . ... : ... .. . ... : ... .. . ... : D#3 09 A ... : ... .. . ... : ... .. . ...
ROW 25 : D#2 00 5 ... : ... .. . ... : --- 00 . ... : ... .. . ... : ... .. . ... : ... .. . ... : ... .. . ... : ... .. . ...
ROW 26 : G-2 00 6 ... : C-3 0D 9 ... : C-2 00 . ... : ... .. . ... : ... .. . ... : D#3 09 9 ... : ... .. . ... : ... .. . ...
ROW 27 : D#2 00 7 ... : ... .. . ... : --- 00 . ... : ... .. . ... : ... .. . ... : ... .. . ... : ... .. . ... : ... .. . ...
ROW 28 : G-2 00 8 ... : C-3 0D F ... : C-3 00 . ... : 4-# 03 A ... : ... .. . ... : D#3 09 F ... : ... .. . ... : ... .. . ...
ROW 29 : D#2 00 9 ... : ... .. . ... : --- 00 . ... : ... .. . ... : ... .. . ... : ... .. . ... : ... .. . ... : ... .. . ...
ROW 2A : G-2 00 A ... : C-3 0D C ... : C-2 00 . ... : ... .. . ... : ... .. . ... : D#3 09 C ... : ... .. . ... : ... .. . ...
ROW 2B : D#2 00 B ... : ... .. . ... : --- 00 . ... : ... .. . ... : ... .. . ... : ... .. . ... : ... .. . ... : ... .. . ...
ROW 2C : G-2 00 C ... : C-3 0D A ... : C-2 00 . ... : ... .. . ... : ... .. . ... : D#3 09 A ... : F-4 08 C ... : ... .. . ...
ROW 2D : D#2 00 D ... : ... .. . ... : --- 00 . ... : ... .. . ... : ... .. . ... : ... .. . ... : ... .. . ... : ... .. . ...
ROW 2E : G-2 00 E ... : C-3 0D 9 ... : C-2 00 . ... : ... .. . ... : ... .. . ... : D#3 09 9 ... : ... .. . ... : F-4 07 . ...
ROW 2F : D#2 00 F ... : ... .. . ... : --- 00 . ... : ... .. . ... : ... .. . ... : ... .. . ... : ... .. . ... : ... .. . ...
ROW 30 : G-2 00 E ... : C-3 0D F ... : C-2 00 . ... : 3-# 06 8 ... : ... .. . ... : D#3 09 F ... : G-4 08 F ... : ... .. . ...
ROW 31 : D#2 00 D ... : ... .. . ... : --- 00 . ... : ... .. . ... : ... .. . ... : ... .. . ... : ... .. . ... : ... .. . ...
ROW 32 : G-2 00 C ... : C-3 0D C ... : C-2 00 . ... : ... .. . ... : ... .. . ... : D#3 09 C ... : ... .. . ... : G-4 07 . ...
ROW 33 : D#2 00 B ... : ... .. . ... : --- 00 . ... : ... .. . ... : ... .. . ... : ... .. . ... : ... .. . ... : ... .. . ...
ROW 34 : G-2 00 A ... : C-3 0D A ... : C-2 00 . ... : ... .. . ... : ... .. . ... : D#3 09 A ... : ... .. . ... : ... .. . ...
ROW 35 : D#2 00 9 ... : ... .. . ... : --- 00 . ... : ... .. . ... : ... .. . ... : ... .. . ... : ... .. . ... : ... .. . ...
ROW 36 : G-2 00 8 ... : C-3 0D 9 ... : C-2 00 . ... : ... .. . ... : ... .. . ... : D#3 09 9 ... : G#4 08 . ... : ... .. . ...
ROW 37 : D#2 00 7 ... : ... .. . ... : --- 00 . ... : ... .. . ... : ... .. . ... : ... .. . ... : ... .. . ... : ... .. . ...
ROW 38 : G-2 00 6 ... : C-3 0D F ... : C-3 00 . ... : 4-# 03 A ... : ... .. . ... : D#3 09 F ... : ... .. . ... : G#4 07 . ...
ROW 39 : D#2 00 5 ... : ... .. . ... : --- 00 . ... : ... .. . ... : ... .. . ... : ... .. . ... : ... .. . ... : ... .. . ...
ROW 3A : G-2 00 4 ... : C-3 0D C ... : C-2 00 . ... : ... .. . ... : ... .. . ... : D#3 09 C ... : ... .. . ... : ... .. . ...
ROW 3B : D#2 00 3 ... : ... .. . ... : --- 00 . ... : ... .. . ... : ... .. . ... : ... .. . ... : ... .. . ... : ... .. . ...
ROW 3C : G-2 00 2 ... : C-3 0D A ... : C-2 00 . ... : ... .. . ... : ... .. . ... : D#3 09 A ... : F#4 08 . ... : ... .. . ...
ROW 3D : D#2 00 1 ... : ... .. . ... : --- 00 . ... : ... .. . ... : ... .. . ... : ... .. . ... : ... .. . ... : ... .. . ...
ROW 3E : G-2 00 . ... : C-3 0D 9 ... : C-2 00 . ... : ... .. . ... : ... .. . ... : D#3 09 9 ... : ... .. . ... : F#4 07 . ...
ROW 3F : D#2 00 . ... : ... .. . ... : --- 00 . ... : ... .. . ... : ... .. . ... : ... .. . ... : ... .. . ... : ... .. . ...
ROW 40 : F#2 00 0 ... : C-3 0D F ... : D#2 00 . ... : 2-# 06 8 ... : ... .. . ... : D-3 09 F ... : ... .. F ... : ... .. . ...
ROW 41 : D#2 00 1 ... : ... .. . ... : --- 00 . ... : ... .. . ... : ... .. . ... : ... .. . ... : ... .. E ... : ... .. . ...
ROW 42 : F#2 00 2 ... : C-3 0D C ... : D#2 00 . ... : ... .. . ... : ... .. . ... : D-3 09 C ... : ... .. E ... : ... .. 7 ...
ROW 43 : D#2 00 3 ... : ... .. . ... : --- 00 . ... : ... .. . ... : ... .. . ... : ... .. . ... : ... .. D ... : ... .. 7 ...
ROW 44 : F#2 00 4 ... : C-3 0D A ... : D#2 00 . ... : ... .. . ... : ... .. . ... : D-3 09 A ... : ... .. D ... : ... .. 7 ...
ROW 45 : D#2 00 5 ... : ... .. . ... : --- 00 . ... : ... .. . ... : ... .. . ... : ... .. . ... : ... .. C ... : ... .. 6 ...
ROW 46 : F#2 00 6 ... : C-3 0D 9 ... : D#2 00 . ... : ... .. . ... : ... .. . ... : D-3 09 9 ... : ... .. C ... : ... .. 6 ...
ROW 47 : D#2 00 7 ... : ... .. . ... : --- 00 . ... : ... .. . ... : ... .. . ... : ... .. . ... : ... .. B ... : ... .. 6 ...
ROW 48 : F#2 00 8 ... : C-3 0D F ... : D#3 00 . ... : 4-# 03 A ... : ... .. . ... : D-3 09 F ... : ... .. B ... : ... .. 6 ...
ROW 49 : D#2 00 9 ... : ... .. . ... : --- .. . ... : ... .. . ... : ... .. . ... : ... .. . ... : ... .. A ... : ... .. 5 ...
ROW 4A : F#2 00 A ... : C-3 0D C ... : D#2 00 . ... : ... .. . ... : ... .. . ... : D-3 09 C ... : ... .. A ... : ... .. 5 ...
ROW 4B : D#2 00 B ... : ... .. . ... : --- .. . ... : ... .. . ... : ... .. . ... : ... .. . ... : ... .. 9 ... : ... .. 5 ...
ROW 4C : F#2 00 C ... : C-3 0D A ... : D#2 00 . ... : ... .. . ... : ... .. . ... : D-3 09 A ... : ... .. 9 ... : ... .. 5 ...
ROW 4D : D#2 00 D ... : ... .. . ... : --- .. . ... : ... .. . ... : ... .. . ... : ... .. . ... : ... .. 8 ... : ... .. 4 ...
ROW 4E : F#2 00 E ... : C-3 0D 9 ... : D#2 00 . ... : ... .. . ... : ... .. . ... : D-3 09 9 ... : ... .. 8 ... : ... .. 4 ...
ROW 4F : D#2 00 F ... : ... .. . ... : --- .. . ... : ... .. . ... : ... .. . ... : ... .. . ... : ... .. 7 ... : ... .. 4 ...
ROW 50 : F#2 00 E ... : C-3 0D F ... : D#2 00 . ... : 3-# 06 8 ... : ... .. . ... : D-3 09 F ... : ... .. 7 ... : ... .. 4 ...
ROW 51 : D#2 00 D ... : ... .. . ... : --- .. . ... : ... .. . ... : ... .. . ... : ... .. . ... : ... .. 7 ... : ... .. 3 ...
ROW 52 : F#2 00 C ... : C-3 0D C ... : D#2 00 . ... : ... .. . ... : ... .. . ... : D-3 09 C ... : ... .. 6 ... : ... .. 3 ...
ROW 53 : D#2 00 B ... : ... .. . ... : --- .. . ... : ... .. . ... : ... .. . ... : ... .. . ... : ... .. 6 ... : ... .. 3 ...
ROW 54 : F#2 00 A ... : C-3 0D A ... : D#2 00 . ... : ... .. . ... : ... .. . ... : D-3 09 A ... : ... .. 5 ... : ... .. 3 ...
ROW 55 : D#2 00 9 ... : ... .. . ... : --- .. . ... : ... .. . ... : ... .. . ... : ... .. . ... : ... .. 5 ... : ... .. 3 ...
ROW 56 : F#2 00 8 ... : C-3 0D 9 ... : D#2 00 . ... : ... .. . ... : ... .. . ... : D-3 09 9 ... : ... .. 4 ... : ... .. 2 ...
ROW 57 : D#2 00 7 ... : ... .. . ... : --- .. . ... : ... .. . ... : ... .. . ... : ... .. . ... : ... .. 4 ... : ... .. 2 ...
ROW 58 : F#2 00 6 ... : C-3 0D F ... : D#3 00 . ... : 4-# 03 A ... : ... .. . ... : D-3 09 F ... : ... .. 3 ... : ... .. 2 ...
ROW 59 : D#2 00 5 ... : ... .. . ... : --- .. . ... : ... .. . ... : ... .. . ... : ... .. . ... : ... .. 3 ... : ... .. 2 ...
ROW 5A : F#2 00 4 ... : C-3 0D C ... : D#2 00 . ... : ... .. . ... : ... .. . ... : D-3 09 C ... : ... .. 2 ... : ... .. 1 ...
ROW 5B : D#2 00 3 ... : ... .. . ... : --- .. . ... : ... .. . ... : ... .. . ... : ... .. . ... : ... .. 2 ... : ... .. 1 ...
ROW 5C : F#2 00 2 ... : C-3 0D A ... : D#2 00 . ... : ... .. . ... : ... .. . ... : D-3 09 A ... : ... .. 1 ... : ... .. 1 ...
ROW 5D : D#2 00 1 ... : ... .. . ... : --- .. . ... : ... .. . ... : ... .. . ... : ... .. . ... : ... .. 1 ... : ... .. 1 ...
ROW 5E : F#2 00 0 ... : C-3 0D 9 ... : D#2 00 . ... : ... .. . ... : ... .. . ... : D-3 09 9 ... : ... .. . ... : ... .. 1 ...
ROW 5F : D#2 00 . ... : ... .. . ... : --- .. . ... : ... .. . ... : ... .. . ... : ... .. . ... : ... .. . ... : ... .. 1 ...
ROW 60 : F#2 00 0 ... : C-3 0D F ... : D#2 00 . ... : 2-# 06 8 ... : ... .. . ... : C#3 09 F ... : ... .. . ... : ... .. . ...
ROW 61 : C-2 00 1 ... : ... .. . ... : --- .. . ... : ... .. . ... : ... .. . ... : ... .. . ... : ... .. . ... : ... .. . ...
ROW 62 : F#2 00 2 ... : C-3 0D C ... : D#2 00 . ... : ... .. . ... : ... .. . ... : C#3 09 C ... : ... .. . ... : ... .. . ...
ROW 63 : C-2 00 3 ... : ... .. . ... : --- .. . ... : ... .. . ... : ... .. . ... : ... .. . ... : ... .. . ... : ... .. . ...
ROW 64 : F#2 00 4 ... : C-3 0D A ... : D#2 00 . ... : ... .. . ... : ... .. . ... : C#3 09 A ... : ... .. . ... : ... .. . ...
ROW 65 : C-2 00 5 ... : ... .. . ... : --- .. . ... : ... .. . ... : ... .. . ... : ... .. . ... : ... .. . ... : ... .. . ...
ROW 66 : F#2 00 6 ... : C-3 0D 9 ... : D#2 00 . ... : ... .. . ... : ... .. . ... : C#3 09 9 ... : ... .. . ... : ... .. . ...
ROW 67 : C-2 00 7 ... : ... .. . ... : --- .. . ... : ... .. . ... : ... .. . ... : ... .. . ... : ... .. . ... : ... .. . ...
ROW 68 : F#2 00 8 ... : C-3 0D F ... : D#3 00 . ... : 4-# 03 A ... : ... .. . ... : C#3 09 F ... : ... .. . ... : ... .. . ...
ROW 69 : C-2 00 9 ... : ... .. . ... : --- .. . ... : ... .. . ... : ... .. . ... : ... .. . ... : ... .. . ... : ... .. . ...
ROW 6A : F#2 00 A ... : C-3 0D C ... : D#2 00 . ... : ... .. . ... : ... .. . ... : C#3 09 C ... : ... .. . ... : ... .. . ...
ROW 6B : C-2 00 B ... : ... .. . ... : --- .. . ... : ... .. . ... : ... .. . ... : ... .. . ... : ... .. . ... : ... .. . ...
ROW 6C : F#2 00 C ... : C-3 0D A ... : D#2 00 . ... : ... .. . ... : ... .. . ... : C#3 09 A ... : ... .. . ... : ... .. . ...
ROW 6D : C-2 00 D ... : ... .. . ... : --- .. . ... : ... .. . ... : ... .. . ... : ... .. . ... : ... .. . ... : ... .. . ...
ROW 6E : F#2 00 E ... : C-3 0D 9 ... : D#2 00 . ... : ... .. . ... : ... .. . ... : C#3 09 9 ... : ... .. . ... : ... .. . ...
ROW 6F : C-2 00 F ... : ... .. . ... : --- .. . ... : ... .. . ... : ... .. . ... : ... .. . ... : ... .. . ... : ... .. . ...
ROW 70 : F#2 00 E ... : C-3 0D F ... : D#2 00 . ... : 3-# 06 8 ... : ... .. . ... : C#3 09 F ... : ... .. . ... : ... .. . ...
ROW 71 : C-2 00 D ... : ... .. . ... : --- .. . ... : ... .. . ... : ... .. . ... : ... .. . ... : ... .. . ... : ... .. . ...
ROW 72 : F#2 00 C ... : C-3 0D C ... : D#2 00 . ... : ... .. . ... : ... .. . ... : C#3 09 C ... : ... .. . ... : ... .. . ...
ROW 73 : C-2 00 B ... : ... .. . ... : --- .. . ... : ... .. . ... : ... .. . ... : ... .. . ... : ... .. . ... : ... .. . ...
ROW 74 : F#2 00 A ... : C-3 0D A ... : D#2 00 . ... : ... .. . ... : ... .. . ... : C#3 09 A ... : D#3 09 F ... : ... .. . ...
ROW 75 : C-2 00 9 ... : ... .. . ... : --- .. . ... : ... .. . ... : ... .. . ... : ... .. . ... : ... .. . ... : ... .. . ...
ROW 76 : F#2 00 8 ... : C-3 0D 9 ... : D#2 00 . ... : ... .. . ... : ... .. . ... : C#3 09 9 ... : ... .. . ... : D#2 04 F ...
ROW 77 : C-2 00 7 ... : ... .. . ... : --- .. . ... : ... .. . ... : ... .. . ... : ... .. . ... : ... .. . ... : ... .. . ...
ROW 78 : F#2 00 6 ... : C-3 0D F ... : D#3 00 . ... : 4-# 03 A ... : ... .. . ... : C#3 09 F ... : D#3 09 . ... : ... .. . ...
ROW 79 : D#2 00 5 ... : ... .. . ... : --- .. . ... : ... .. . ... : ... .. . ... : ... .. . ... : ... .. . ... : ... .. . ...
ROW 7A : F#2 00 4 ... : C-3 0D C ... : D#2 00 . ... : ... .. . ... : ... .. . ... : C#3 09 C ... : ... .. . ... : D#2 04 . ...
ROW 7B : D#2 00 3 ... : ... .. . ... : --- .. . ... : ... .. . ... : ... .. . ... : ... .. . ... : ... .. . ... : ... .. . ...
ROW 7C : F#2 00 2 ... : C-3 0D A ... : D#2 00 . ... : ... .. . ... : ... .. . ... : C#3 09 A ... : F-3 09 . ... : ... .. . ...
ROW 7D : D#2 00 1 ... : ... .. . ... : --- .. . ... : ... .. . ... : ... .. . ... : ... .. . ... : ... .. . ... : ... .. . ...
ROW 7E : F#2 00 0 ... : C-3 0D 9 ... : D#2 00 . ... : ... .. . ... : ... .. . ... : C#3 09 9 ... : ... .. . ... : F-2 04 . ...
ROW 7F : D#2 00 . ... : ... .. . ... : --- .. . ... : ... .. . ... : ... .. . ... : ... .. . ... : ... .. . ... : ... .. . ...

PATTERN 0F
ROW 00 : G-2 00 0 ... : C-3 0D F ... : C-2 00 . ... : 2-# 06 8 ... : ... .. . ... : D#3 09 F ... : G-4 08 F ... : G-3 04 . ...
ROW 01 : C-2 00 1 ... : ... .. . ... : --- .. . ... : ... .. . ... : ... .. . ... : ... .. . ... : ... .. . ... : ... .. . ...
ROW 02 : G-2 00 2 ... : C-3 0D C ... : C-2 00 . ... : ... .. . ... : ... .. . ... : D#3 09 C ... : ... .. . ... : G-4 07 7 ...
ROW 03 : C-2 00 3 ... : ... .. . ... : --- .. . ... : ... .. . ... : ... .. . ... : ... .. . ... : ... .. . ... : ... .. . ...
ROW 04 : G-2 00 4 ... : C-3 0D A ... : C-2 00 . ... : ... .. . ... : ... .. . ... : D#3 09 A ... : ... .. . ... : ... .. . ...
ROW 05 : C-2 00 5 ... : ... .. . ... : --- .. . ... : ... .. . ... : ... .. . ... : ... .. . ... : ... .. . ... : ... .. . ...
ROW 06 : G-2 00 6 ... : C-3 0D 9 ... : C-2 00 . ... : ... .. . ... : ... .. . ... : D#3 09 9 ... : C-4 08 . ... : ... .. . ...
ROW 07 : C-2 00 7 ... : ... .. . ... : --- .. . ... : ... .. . ... : ... .. . ... : ... .. . ... : ... .. . ... : ... .. . ...
ROW 08 : G-2 00 8 ... : C-3 0D F ... : C-3 00 . ... : 4-# 03 A ... : ... .. . ... : D#3 09 F ... : ... .. . ... : C-4 07 . ...
ROW 09 : C-2 00 9 ... : ... .. . ... : --- 00 . ... : ... .. . ... : ... .. . ... : ... .. . ... : ... .. . ... : ... .. . ...
ROW 0A : G-2 00 A ... : C-3 0D C ... : C-2 00 . ... : ... .. . ... : ... .. . ... : D#3 09 C ... : ... .. . ... : ... .. . ...
ROW 0B : C-2 00 B ... : ... .. . ... : --- 00 . ... : ... .. . ... : ... .. . ... : ... .. . ... : ... .. . ... : ... .. . ...
ROW 0C : G-2 00 C ... : C-3 0D A ... : C-2 00 . ... : ... .. . ... : ... .. . ... : D#3 09 A ... : C-5 08 . ... : ... .. . ...
ROW 0D : C-2 00 D ... : ... .. . ... : --- 00 . ... : ... .. . ... : ... .. . ... : ... .. . ... : ... .. . ... : ... .. . ...
ROW 0E : G-2 00 E ... : C-3 0D 9 ... : C-2 00 . ... : ... .. . ... : ... .. . ... : D#3 09 9 ... : ... .. . ... : C-5 07 . ...
ROW 0F : C-2 00 F ... : ... .. . ... : --- .. . ... : ... .. . ... : ... .. . ... : ... .. . ... : ... .. . ... : ... .. . ...
ROW 10 : G-2 00 E ... : C-3 0D F ... : C-2 00 . ... : 3-# 06 8 ... : ... .. . ... : D#3 09 F ... : C-5 08 . ... : ... .. . ...
ROW 11 : C-2 00 D ... : ... .. . ... : --- .. . ... : ... .. . ... : ... .. . ... : ... .. . ... : ... .. . ... : ... .. . ...
ROW 12 : G-2 00 C ... : C-3 0D C ... : C-2 00 . ... : ... .. . ... : ... .. . ... : D#3 09 C ... : ... .. . ... : C-5 07 . ...
ROW 13 : C-2 00 B ... : ... .. . ... : --- .. . ... : ... .. . ... : ... .. . ... : ... .. . ... : ... .. . ... : ... .. . ...
ROW 14 : G-2 00 A ... : C-3 0D A ... : C-2 00 . ... : ... .. . ... : ... .. . ... : D#3 09 A ... : ... .. . ... : ... .. . ...
ROW 15 : C-2 00 9 ... : ... .. . ... : --- .. . ... : ... .. . ... : ... .. . ... : ... .. . ... : ... .. . ... : ... .. . ...
ROW 16 : G-2 00 8 ... : C-3 0D 9 ... : C-2 00 . ... : ... .. . ... : ... .. . ... : D#3 09 9 ... : ... .. . ... : ... .. . ...
ROW 17 : C-2 00 7 ... : ... .. . ... : --- .. . ... : ... .. . ... : ... .. . ... : ... .. . ... : ... .. . ... : ... .. . ...
ROW 18 : G-2 00 6 ... : C-3 0D F ... : C-3 00 . ... : 4-# 03 A ... : ... .. . ... : D#3 09 F ... : ... .. . ... : ... .. . ...
ROW 19 : C-2 00 5 ... : ... .. . ... : --- .. . ... : ... .. . ... : ... .. . ... : ... .. . ... : ... .. . ... : ... .. . ...
ROW 1A : G-2 00 4 ... : C-3 0D C ... : C-2 00 . ... : ... .. . ... : ... .. . ... : D#3 09 C ... : ... .. . ... : ... .. . ...
ROW 1B : C-2 00 3 ... : ... .. . ... : --- .. . ... : ... .. . ... : ... .. . ... : ... .. . ... : ... .. . ... : ... .. . ...
ROW 1C : G-2 00 2 ... : C-3 0D A ... : C-2 00 . ... : ... .. . ... : ... .. . ... : D#3 09 A ... : C-5 08 . ... : ... .. . ...
ROW 1D : C-2 00 1 ... : ... .. . ... : --- .. . ... : ... .. . ... : ... .. . ... : ... .. . ... : ... .. . ... : ... .. . ...
ROW 1E : G-2 00 . ... : C-3 0D 9 ... : C-2 00 . ... : ... .. . ... : ... .. . ... : D#3 09 9 ... : D-5 08 . ... : C-5 07 . ...
ROW 1F : C-2 00 . ... : ... .. . ... : --- .. . ... : ... .. . ... : ... .. . ... : ... .. . ... : ... .. . ... : ... .. . ...
ROW 20 : G-2 00 0 ... : C-3 0D F ... : C-2 00 . ... : 2-# 06 8 ... : ... .. . ... : D#3 09 F ... : D#5 08 . ... : D-5 07 . ...
ROW 21 : D#2 00 1 ... : ... .. . ... : --- 00 . ... : ... .. . ... : ... .. . ... : ... .. . ... : ... .. . ... : ... .. . ...
ROW 22 : G-2 00 2 ... : C-3 0D C ... : C-2 00 . ... : ... .. . ... : ... .. . ... : D#3 09 C ... : ... .. . ... : D#5 07 . ...
ROW 23 : D#2 00 3 ... : ... .. . ... : --- 00 . ... : ... .. . ... : ... .. . ... : ... .. . ... : ... .. . ... : ... .. . ...
ROW 24 : G-2 00 4 ... : C-3 0D A ... : C-2 00 . ... : ... .. . ... : ... .. . ... : D#3 09 A ... : ... .. . ... : ... .. . ...
ROW 25 : D#2 00 5 ... : ... .. . ... : --- 00 . ... : ... .. . ... : ... .. . ... : ... .. . ... : ... .. . ... : ... .. . ...
ROW 26 : G-2 00 6 ... : C-3 0D 9 ... : C-2 00 . ... : ... .. . ... : ... .. . ... : D#3 09 9 ... : C-5 08 . ... : ... .. . ...
ROW 27 : D#2 00 7 ... : ... .. . ... : --- 00 . ... : ... .. . ... : ... .. . ... : ... .. . ... : ... .. . ... : ... .. . ...
ROW 28 : G-2 00 8 ... : C-3 0D F ... : C-3 00 . ... : 4-# 03 A ... : ... .. . ... : D#3 09 F ... : ... .. . ... : C-5 07 . ...
ROW 29 : D#2 00 9 ... : ... .. . ... : --- 00 . ... : ... .. . ... : ... .. . ... : ... .. . ... : ... .. . ... : ... .. . ...
ROW 2A : G-2 00 A ... : C-3 0D C ... : C-2 00 . ... : ... .. . ... : ... .. . ... : D#3 09 C ... : ... .. . ... : ... .. . ...
ROW 2B : D#2 00 B ... : ... .. . ... : --- 00 . ... : ... .. . ... : ... .. . ... : ... .. . ... : ... .. . ... : ... .. . ...
ROW 2C : G-2 00 C ... : C-3 0D A ... : C-2 00 . ... : ... .. . ... : ... .. . ... : D#3 09 A ... : G#4 08 . ... : ... .. . ...
ROW 2D : D#2 00 D ... : ... .. . ... : --- 00 . ... : ... .. . ... : ... .. . ... : ... .. . ... : ... .. . ... : ... .. . ...
ROW 2E : G-2 00 E ... : C-3 0D 9 ... : C-2 00 . ... : ... .. . ... : ... .. . ... : D#3 09 9 ... : ... .. . ... : G#4 07 . ...
ROW 2F : D#2 00 F ... : ... .. . ... : --- 00 . ... : ... .. . ... : ... .. . ... : ... .. . ... : ... .. . ... : ... .. . ...
ROW 30 : G-2 00 E ... : C-3 0D F ... : C-2 00 . ... : 3-# 06 8 ... : ... .. . ... : D#3 09 F ... : G-4 08 . ... : ... .. . ...
ROW 31 : D#2 00 D ... : ... .. . ... : --- 00 . ... : ... .. . ... : ... .. . ... : ... .. . ... : ... .. . ... : ... .. . ...
ROW 32 : G-2 00 C ... : C-3 0D C ... : C-2 00 . ... : ... .. . ... : ... .. . ... : D#3 09 C ... : ... .. . ... : G-4 07 . ...
ROW 33 : D#2 00 B ... : ... .. . ... : --- 00 . ... : ... .. . ... : ... .. . ... : ... .. . ... : ... .. . ... : ... .. . ...
ROW 34 : G-2 00 A ... : C-3 0D A ... : C-2 00 . ... : ... .. . ... : ... .. . ... : D#3 09 A ... : ... .. . ... : ... .. . ...
ROW 35 : D#2 00 9 ... : ... .. . ... : --- 00 . ... : ... .. . ... : ... .. . ... : ... .. . ... : ... .. . ... : ... .. . ...
ROW 36 : G-2 00 8 ... : C-3 0D 9 ... : C-2 00 . ... : ... .. . ... : ... .. . ... : D#3 09 9 ... : F-4 08 . ... : ... .. . ...
ROW 37 : D#2 00 7 ... : ... .. . ... : --- 00 . ... : ... .. . ... : ... .. . ... : ... .. . ... : ... .. . ... : ... .. . ...
ROW 38 : G-2 00 6 ... : C-3 0D F ... : C-3 00 . ... : 4-# 03 A ... : ... .. . ... : D#3 09 F ... : ... .. . ... : F-4 07 . ...
ROW 39 : D#2 00 5 ... : ... .. . ... : --- 00 . ... : ... .. . ... : ... .. . ... : ... .. . ... : ... .. . ... : ... .. . ...
ROW 3A : G-2 00 4 ... : C-3 0D C ... : C-2 00 . ... : ... .. . ... : ... .. . ... : D#3 09 C ... : ... .. . ... : ... .. . ...
ROW 3B : D#2 00 3 ... : ... .. . ... : --- 00 . ... : ... .. . ... : ... .. . ... : ... .. . ... : ... .. . ... : ... .. . ...
ROW 3C : F#2 00 2 ... : C-3 0D A ... : C-2 00 . ... : ... .. . ... : ... .. . ... : D#3 09 A ... : G-4 08 . ... : ... .. . ...
ROW 3D : D#2 00 1 ... : ... .. . ... : --- 00 . ... : ... .. . ... : ... .. . ... : ... .. . ... : ... .. . ... : ... .. . ...
ROW 3E : F#2 00 . ... : C-3 0D 9 ... : C-2 00 . ... : ... .. . ... : ... .. . ... : D#3 09 9 ... : ... .. . ... : G-4 07 . ...
ROW 3F : D#2 00 . ... : ... .. . ... : --- 00 . ... : ... .. . ... : ... .. . ... : ... .. . ... : ... .. . ... : ... .. . ...
ROW 40 : F-2 00 0 ... : C-3 0D F ... : F-2 00 . ... : 2-# 06 8 ... : ... .. . ... : F-3 09 F ... : F-4 08 . ... : ... .. . ...
ROW 41 : C-2 00 1 ... : ... .. . ... : --- 00 . ... : ... .. . ... : ... .. . ... : ... .. . ... : ... .. . ... : ... .. . ...
ROW 42 : F-2 00 2 ... : C-3 0D C ... : F-2 00 . ... : ... .. . ... : ... .. . ... : F-3 09 C ... : ... .. . ... : F-4 07 . ...
ROW 43 : C-2 00 3 ... : ... .. . ... : --- 00 . ... : ... .. . ... : ... .. . ... : ... .. . ... : ... .. . ... : ... .. . ...
ROW 44 : F-2 00 4 ... : C-3 0D A ... : F-2 00 . ... : ... .. . ... : ... .. . ... : F-3 09 A ... : ... .. . ... : ... .. . ...
ROW 45 : C-2 00 5 ... : ... .. . ... : --- 00 . ... : ... .. . ... : ... .. . ... : ... .. . ... : ... .. . ... : ... .. . ...
ROW 46 : F-2 00 6 ... : C-3 0D 9 ... : F-2 00 . ... : ... .. . ... : ... .. . ... : F-3 09 9 ... : ... .. . ... : ... .. . ...
ROW 47 : C-2 00 7 ... : ... .. . ... : --- 00 . ... : ... .. . ... : ... .. . ... : ... .. . ... : ... .. . ... : ... .. . ...
ROW 48 : F-2 00 8 ... : C-3 0D F ... : F-3 00 . ... : 4-# 03 A ... : ... .. . ... : F-3 09 F ... : ... .. . ... : ... .. . ...
ROW 49 : C-2 00 9 ... : ... .. . ... : --- .. . ... : ... .. . ... : ... .. . ... : ... .. . ... : ... .. . ... : ... .. . ...
ROW 4A : F-2 00 A ... : C-3 0D C ... : F-2 00 . ... : ... .. . ... : ... .. . ... : F-3 09 C ... : ... .. . ... : ... .. . ...
ROW 4B : C-2 00 B ... : ... .. . ... : --- .. . ... : ... .. . ... : ... .. . ... : ... .. . ... : ... .. . ... : ... .. . ...
ROW 4C : F-2 00 C ... : C-3 0D A ... : F-2 00 . ... : ... .. . ... : ... .. . ... : F-3 09 A ... : ... .. . ... : ... .. . ...
ROW 4D : C-2 00 D ... : ... .. . ... : --- .. . ... : ... .. . ... : ... .. . ... : ... .. . ... : ... .. . ... : ... .. . ...
ROW 4E : F-2 00 E ... : C-3 0D 9 ... : F-2 00 . ... : ... .. . ... : ... .. . ... : F-3 09 9 ... : ... .. . ... : ... .. . ...
ROW 4F : C-2 00 F ... : ... .. . ... : --- .. . ... : ... .. . ... : ... .. . ... : ... .. . ... : ... .. . ... : ... .. . ...
ROW 50 : F-2 00 E ... : C-3 0D F ... : F-2 00 . ... : 3-# 06 8 ... : ... .. . ... : F-3 09 F ... : ... .. . ... : ... .. . ...
ROW 51 : C-2 00 D ... : ... .. . ... : --- .. . ... : ... .. . ... : ... .. . ... : ... .. . ... : ... .. . ... : ... .. . ...
ROW 52 : F-2 00 C ... : C-3 0D C ... : F-2 00 . ... : ... .. . ... : ... .. . ... : F-3 09 C ... : ... .. . ... : ... .. . ...
ROW 53 : C-2 00 B ... : ... .. . ... : --- .. . ... : ... .. . ... : ... .. . ... : ... .. . ... : ... .. . ... : ... .. . ...
ROW 54 : F-2 00 A ... : C-3 0D A ... : F-2 00 . ... : ... .. . ... : ... .. . ... : F-3 09 A ... : ... .. . ... : ... .. . ...
ROW 55 : C-2 00 9 ... : ... .. . ... : --- .. . ... : ... .. . ... : ... .. . ... : ... .. . ... : ... .. . ... : ... .. . ...
ROW 56 : F-2 00 8 ... : C-3 0D 9 ... : F-2 00 . ... : ... .. . ... : ... .. . ... : F-3 09 9 ... : ... .. . ... : ... .. . ...
ROW 57 : C-2 00 7 ... : ... .. . ... : --- .. . ... : ... .. . ... : ... .. . ... : ... .. . ... : ... .. . ... : ... .. . ...
ROW 58 : F-2 00 6 ... : C-3 0D F ... : F-3 00 . ... : 4-# 03 A ... : ... .. . ... : F-3 09 F ... : ... .. . ... : ... .. . ...
ROW 59 : C-2 00 5 ... : ... .. . ... : --- .. . ... : ... .. . ... : ... .. . ... : ... .. . ... : ... .. . ... : ... .. . ...
ROW 5A : F-2 00 4 ... : C-3 0D C ... : F-2 00 . ... : ... .. . ... : ... .. . ... : F-3 09 C ... : ... .. . ... : ... .. . ...
ROW 5B : C-2 00 3 ... : ... .. . ... : --- .. . ... : ... .. . ... : ... .. . ... : ... .. . ... : ... .. . ... : ... .. . ...
ROW 5C : F-2 00 2 ... : C-3 0D A ... : F-2 00 . ... : ... .. . ... : ... .. . ... : F-3 09 A ... : ... .. . ... : ... .. . ...
ROW 5D : C-2 00 1 ... : ... .. . ... : --- .. . ... : ... .. . ... : ... .. . ... : ... .. . ... : ... .. . ... : ... .. . ...
ROW 5E : F-2 00 . ... : C-3 0D 9 ... : F-2 00 . ... : ... .. . ... : ... .. . ... : F-3 09 9 ... : ... .. . ... : ... .. . ...
ROW 5F : C-2 00 . ... : ... .. . ... : --- .. . ... : ... .. . ... : ... .. . ... : ... .. . ... : ... .. . ... : ... .. . ...
ROW 60 : G#2 00 0 ... : C-3 0D F ... : F-2 00 . ... : 2-# 06 8 ... : ... .. . ... : G#3 09 F ... : ... .. . ... : ... .. . ...
ROW 61 : C-2 00 1 ... : ... .. . ... : --- .. . ... : ... .. . ... : ... .. . ... : ... .. . ... : ... .. . ... : ... .. . ...
ROW 62 : G#2 00 2 ... : C-3 0D C ... : F-2 00 . ... : ... .. . ... : ... .. . ... : G#3 09 C ... : ... .. . ... : ... .. . ...
ROW 63 : C-2 00 3 ... : ... .. . ... : --- .. . ... : ... .. . ... : ... .. . ... : ... .. . ... : ... .. . ... : ... .. . ...
ROW 64 : G#2 00 4 ... : C-3 0D A ... : F-2 00 . ... : ... .. . ... : ... .. . ... : G#3 09 A ... : ... .. . ... : ... .. . ...
ROW 65 : C-2 00 5 ... : ... .. . ... : --- .. . ... : ... .. . ... : ... .. . ... : ... .. . ... : ... .. . ... : ... .. . ...
ROW 66 : G#2 00 6 ... : C-3 0D 9 ... : F-2 00 . ... : ... .. . ... : ... .. . ... : G#3 09 9 ... : ... .. . ... : ... .. . ...
ROW 67 : C-2 00 7 ... : ... .. . ... : --- .. . ... : ... .. . ... : ... .. . ... : ... .. . ... : ... .. . ... : ... .. . ...
ROW 68 : G#2 00 8 ... : C-3 0D F ... : F-3 00 . ... : 4-# 03 A ... : ... .. . ... : G#3 09 F ... : ... .. . ... : ... .. . ...
ROW 69 : C-2 00 9 ... : ... .. . ... : --- .. . ... : ... .. . ... : ... .. . ... : ... .. . ... : ... .. . ... : ... .. . ...
ROW 6A : G#2 00 A ... : C-3 0D C ... : F-2 00 . ... : ... .. . ... : ... .. . ... : G#3 09 C ... : ... .. . ... : ... .. . ...
ROW 6B : C-2 00 B ... : ... .. . ... : --- .. . ... : ... .. . ... : ... .. . ... : ... .. . ... : ... .. . ... : ... .. . ...
ROW 6C : G#2 00 C ... : C-3 0D A ... : F-2 00 . ... : ... .. . ... : ... .. . ... : G#3 09 A ... : ... .. . ... : ... .. . ...
ROW 6D : C-2 00 D ... : ... .. . ... : --- .. . ... : ... .. . ... : ... .. . ... : ... .. . ... : ... .. . ... : ... .. . ...
ROW 6E : G#2 00 E ... : C-3 0D 9 ... : F-2 00 . ... : ... .. . ... : ... .. . ... : G#3 09 9 ... : ... .. . ... : ... .. . ...
ROW 6F : C-2 00 F ... : ... .. . ... : --- .. . ... : ... .. . ... : ... .. . ... : ... .. . ... : ... .. . ... : ... .. . ...
ROW 70 : G#2 00 E ... : C-3 0D F ... : F-2 00 . ... : 3-# 06 8 ... : ... .. . ... : G#3 09 F ... : ... .. . ... : ... .. . ...
ROW 71 : C-2 00 D ... : ... .. . ... : --- .. . ... : ... .. . ... : ... .. . ... : ... .. . ... : ... .. . ... : ... .. . ...
ROW 72 : G#2 00 C ... : C-3 0D C ... : F-2 00 . ... : ... .. . ... : ... .. . ... : G#3 09 C ... : ... .. . ... : ... .. . ...
ROW 73 : C-2 00 B ... : ... .. . ... : --- .. . ... : ... .. . ... : ... .. . ... : ... .. . ... : ... .. . ... : ... .. . ...
ROW 74 : G#2 00 A ... : C-3 0D A ... : F-2 00 . ... : ... .. . ... : ... .. . ... : G#3 09 A ... : A#2 09 F ... : ... .. . ...
ROW 75 : C-2 00 9 ... : ... .. . ... : --- .. . ... : ... .. . ... : ... .. . ... : ... .. . ... : ... .. . ... : ... .. . ...
ROW 76 : G#2 00 8 ... : C-3 0D 9 ... : F-2 00 . ... : ... .. . ... : ... .. . ... : G#3 09 9 ... : ... .. . ... : ... .. . ...
ROW 77 : C-2 00 7 ... : ... .. . ... : --- .. . ... : ... .. . ... : ... .. . ... : ... .. . ... : ... .. . ... : ... .. . ...
ROW 78 : G#2 00 6 ... : F-3 0D F ... : F-3 00 . ... : 4-# 03 A ... : ... .. . ... : G#3 09 F ... : G#2 09 . ... : ... .. . ...
ROW 79 : C-2 00 5 ... : ... .. . ... : --- .. . ... : ... .. . ... : ... .. . ... : ... .. . ... : ... .. . ... : ... .. . ...
ROW 7A : G#2 00 4 ... : F-3 0D C ... : F-2 00 . ... : ... .. . ... : ... .. . ... : G#3 09 C ... : ... .. . ... : ... .. . ...
ROW 7B : C-2 00 3 ... : ... .. . ... : --- .. . ... : ... .. . ... : ... .. . ... : ... .. . ... : ... .. . ... : ... .. . ...
ROW 7C : F-2 00 2 ... : F-3 0D A ... : F-2 00 . ... : ... .. . ... : ... .. . ... : G#3 09 A ... : F-2 09 . ... : ... .. . ...
ROW 7D : D-2 00 1 ... : ... .. . ... : --- .. . ... : ... .. . ... : ... .. . ... : ... .. . ... : ... .. . ... : ... .. . ...
ROW 7E : F-2 00 . ... : F-3 0D 9 ... : F-2 00 . ... : ... .. . ... : ... .. . ... : G#3 09 9 ... : ... .. . ... : ... .. . ...
ROW 7F : D-2 00 . ... : ... .. . ... : --- .. . ... : ... .. . ... : ... .. . ... : ... .. . ... : ... .. . ... : ... .. . ...

PATTERN 10
ROW 00 : G-2 00 0 ... : C-3 0D F ... : C-2 00 . ... : 2-# 06 8 ... : ... .. . ... : D#2 09 F ... : D#5 08 C ... : D#3 04 F ...
ROW 01 : C-2 00 1 ... : ... .. . ... : --- .. . ... : ... .. . ... : ... .. . ... : ... .. . ... : ... .. . ... : ... .. . ...
ROW 02 : G-2 00 2 ... : C-3 0D C ... : C-2 00 . ... : ... .. . ... : ... .. . ... : ... .. . ... : ... .. . ... : D#3 04 C ...
ROW 03 : C-2 00 3 ... : ... .. . ... : --- .. . ... : ... .. . ... : ... .. . ... : ... .. . ... : ... .. . ... : ... .. . ...
ROW 04 : G-2 00 4 ... : C-3 0D A ... : C-2 00 . ... : ... .. . ... : ... .. . ... : C-1 04 . ... : ... .. . ... : D#3 04 A ...
ROW 05 : C-2 00 5 ... : ... .. . ... : --- .. . ... : ... .. . ... : ... .. . ... : ... .. . ... : ... .. . ... : ... .. . ...
ROW 06 : G-2 00 6 ... : C-3 0D 9 ... : C-2 00 . ... : ... .. . ... : ... .. . ... : C-1 04 . ... : D-5 08 D ... : D#3 04 9 ...
ROW 07 : C-2 00 7 ... : ... .. . ... : --- .. . ... : ... .. . ... : ... .. . ... : ... .. . ... : ... .. . ... : ... .. . ...
ROW 08 : G-2 00 8 ... : C-3 0D F ... : C-3 00 . ... : 4-# 03 A ... : ... .. . ... : C-2 04 . ... : ... .. . ... : D#3 04 F ...
ROW 09 : C-2 00 9 ... : ... .. . ... : --- 00 . ... : ... .. . ... : ... .. . ... : ... .. . ... : ... .. . ... : ... .. . ...
ROW 0A : G-2 00 A ... : C-3 0D C ... : C-2 00 . ... : ... .. . ... : ... .. . ... : ... .. . ... : ... .. . ... : D#3 04 C ...
ROW 0B : C-2 00 B ... : ... .. . ... : --- 00 . ... : ... .. . ... : ... .. . ... : ... .. . ... : ... .. . ... : ... .. . ...
ROW 0C : G-2 00 C ... : C-3 0D A ... : C-2 00 . ... : ... .. . ... : ... .. . ... : C-1 04 . ... : C-5 08 E ... : D#3 04 A ...
ROW 0D : C-2 00 D ... : ... .. . ... : --- 00 . ... : ... .. . ... : ... .. . ... : ... .. . ... : ... .. . ... : ... .. . ...
ROW 0E : G-2 00 E ... : C-3 0D 9 ... : C-2 00 . ... : ... .. . ... : ... .. . ... : C-1 04 . ... : ... .. . ... : D#3 04 9 ...
ROW 0F : C-2 00 F ... : ... .. . ... : --- .. . ... : ... .. . ... : ... .. . ... : ... .. . ... : ... .. . ... : ... .. . ...
ROW 10 : G-2 00 E ... : C-3 0D F ... : C-2 00 . ... : 3-# 06 8 ... : ... .. . ... : C-1 04 . ... : G-4 08 F ... : D#3 04 F ...
ROW 11 : C-2 00 D ... : ... .. . ... : --- .. . ... : ... .. . ... : ... .. . ... : ... .. . ... : ... .. . ... : ... .. . ...
ROW 12 : G-2 00 C ... : C-3 0D C ... : C-2 00 . ... : ... .. . ... : ... .. . ... : ... .. . ... : ... .. . ... : D#3 04 C ...
ROW 13 : C-2 00 B ... : ... .. . ... : --- .. . ... : ... .. . ... : ... .. . ... : ... .. . ... : ... .. . ... : ... .. . ...
ROW 14 : G-2 00 A ... : C-3 0D A ... : C-2 00 . ... : ... .. . ... : ... .. . ... : C-1 04 . ... : ... .. . ... : D#3 04 A ...
ROW 15 : C-2 00 9 ... : ... .. . ... : --- .. . ... : ... .. . ... : ... .. . ... : ... .. . ... : ... .. . ... : ... .. . ...
ROW 16 : G-2 00 8 ... : C-3 0D 9 ... : C-2 00 . ... : ... .. . ... : ... .. . ... : C-1 04 . ... : ... .. . ... : D#3 04 9 ...
ROW 17 : C-2 00 7 ... : ... .. . ... : --- .. . ... : ... .. . ... : ... .. . ... : ... .. . ... : ... .. . ... : ... .. . ...
ROW 18 : G-2 00 6 ... : C-3 0D F ... : C-3 00 . ... : 4-# 03 A ... : ... .. . ... : C-2 04 . ... : ... .. . ... : D#3 04 F ...
ROW 19 : C-2 00 5 ... : ... .. . ... : --- .. . ... : ... .. . ... : ... .. . ... : ... .. . ... : ... .. . ... : ... .. . ...
ROW 1A : G-2 00 4 ... : C-3 0D C ... : C-2 00 . ... : ... .. . ... : ... .. . ... : ... .. . ... : ... .. . ... : D#3 04 C ...
ROW 1B : C-2 00 3 ... : ... .. . ... : --- .. . ... : ... .. . ... : ... .. . ... : ... .. . ... : ... .. . ... : ... .. . ...
ROW 1C : G-2 00 2 ... : C-3 0D A ... : C-2 00 . ... : ... .. . ... : ... .. . ... : C-1 04 . ... : ... .. . ... : D#3 04 A ...
ROW 1D : C-2 00 1 ... : ... .. . ... : --- .. . ... : ... .. . ... : ... .. . ... : ... .. . ... : ... .. . ... : ... .. . ...
ROW 1E : G-2 00 . ... : C-3 0D 9 ... : C-2 00 . ... : ... .. . ... : ... .. . ... : C-1 04 . ... : ... .. . ... : D#3 04 9 ...
ROW 1F : C-2 00 . ... : ... .. . ... : --- .. . ... : ... .. . ... : ... .. . ... : ... .. . ... : ... .. . ... : ... .. . ...
ROW 20 : G-2 00 0 ... : C-3 0D F ... : C-2 00 . ... : 2-# 06 8 ... : ... .. . ... : C-1 04 . ... : ... .. . ... : D#3 04 F ...
ROW 21 : D#2 00 1 ... : ... .. . ... : --- 00 . ... : ... .. . ... : ... .. . ... : ... .. . ... : ... .. . ... : ... .. . ...
ROW 22 : G-2 00 2 ... : C-3 0D C ... : C-2 00 . ... : ... .. . ... : ... .. . ... : ... .. . ... : ... .. . ... : D#3 04 C ...
ROW 23 : D#2 00 3 ... : ... .. . ... : --- 00 . ... : ... .. . ... : ... .. . ... : ... .. . ... : ... .. . ... : ... .. . ...
ROW 24 : G-2 00 4 ... : C-3 0D A ... : C-2 00 . ... : ... .. . ... : ... .. . ... : C-1 04 . ... : ... .. . ... : D#3 04 A ...
ROW 25 : D#2 00 5 ... : ... .. . ... : --- 00 . ... : ... .. . ... : ... .. . ... : ... .. . ... : ... .. . ... : ... .. . ...
ROW 26 : G-2 00 6 ... : C-3 0D 9 ... : C-2 00 . ... : ... .. . ... : ... .. . ... : C-1 04 . ... : ... .. . ... : D#3 04 9 ...
ROW 27 : D#2 00 7 ... : ... .. . ... : --- 00 . ... : ... .. . ... : ... .. . ... : ... .. . ... : ... .. . ... : ... .. . ...
ROW 28 : G-2 00 8 ... : C-3 0D F ... : C-3 00 . ... : 4-# 03 A ... : ... .. . ... : C-2 04 . ... : ... .. . ... : D#3 04 F ...
ROW 29 : D#2 00 9 ... : ... .. . ... : --- 00 . ... : ... .. . ... : ... .. . ... : ... .. . ... : ... .. . ... : ... .. . ...
ROW 2A : G-2 00 A ... : C-3 0D C ... : C-2 00 . ... : ... .. . ... : ... .. . ... : ... .. . ... : ... .. . ... : D#3 04 C ...
ROW 2B : D#2 00 B ... : ... .. . ... : --- 00 . ... : ... .. . ... : ... .. . ... : ... .. . ... : ... .. . ... : ... .. . ...
ROW 2C : G-2 00 C ... : C-3 0D A ... : C-2 00 . ... : ... .. . ... : ... .. . ... : C-1 04 . ... : F-4 08 C ... : D#3 04 A ...
ROW 2D : D#2 00 D ... : ... .. . ... : --- 00 . ... : ... .. . ... : ... .. . ... : ... .. . ... : ... .. . ... : ... .. . ...
ROW 2E : G-2 00 E ... : C-3 0D 9 ... : C-2 00 . ... : ... .. . ... : ... .. . ... : C-1 04 . ... : ... .. . ... : D#3 04 9 ...
ROW 2F : D#2 00 F ... : ... .. . ... : --- 00 . ... : ... .. . ... : ... .. . ... : ... .. . ... : ... .. . ... : ... .. . ...
ROW 30 : G-2 00 E ... : C-3 0D F ... : C-2 00 . ... : 3-# 06 8 ... : ... .. . ... : C-1 04 . ... : G-4 08 F ... : D#3 04 F ...
ROW 31 : D#2 00 D ... : ... .. . ... : --- 00 . ... : ... .. . ... : ... .. . ... : ... .. . ... : ... .. . ... : ... .. . ...
ROW 32 : G-2 00 C ... : C-3 0D C ... : C-2 00 . ... : ... .. . ... : ... .. . ... : ... .. . ... : ... .. . ... : D#3 04 C ...
ROW 33 : D#2 00 B ... : ... .. . ... : --- 00 . ... : ... .. . ... : ... .. . ... : ... .. . ... : ... .. . ... : ... .. . ...
ROW 34 : G-2 00 A ... : C-3 0D A ... : C-2 00 . ... : ... .. . ... : ... .. . ... : C-1 04 . ... : ... .. . ... : D#3 04 A ...
ROW 35 : D#2 00 9 ... : ... .. . ... : --- 00 . ... : ... .. . ... : ... .. . ... : ... .. . ... : ... .. . ... : ... .. . ...
ROW 36 : G-2 00 8 ... : C-3 0D 9 ... : C-2 00 . ... : ... .. . ... : ... .. . ... : C-1 04 . ... : G#4 08 . ... : D#3 04 9 ...
ROW 37 : D#2 00 7 ... : ... .. . ... : --- 00 . ... : ... .. . ... : ... .. . ... : ... .. . ... : ... .. . ... : ... .. . ...
ROW 38 : G-2 00 6 ... : C-3 0D F ... : C-3 00 . ... : 4-# 03 A ... : ... .. . ... : C-2 04 . ... : ... .. . ... : D#3 04 F ...
ROW 39 : D#2 00 5 ... : ... .. . ... : --- 00 . ... : ... .. . ... : ... .. . ... : ... .. . ... : ... .. . ... : ... .. . ...
ROW 3A : G-2 00 4 ... : C-3 0D C ... : C-2 00 . ... : ... .. . ... : ... .. . ... : ... .. . ... : ... .. . ... : D#3 04 C ...
ROW 3B : D#2 00 3 ... : ... .. . ... : --- 00 . ... : ... .. . ... : ... .. . ... : ... .. . ... : ... .. . ... : ... .. . ...
ROW 3C : G-2 00 2 ... : C-3 0D A ... : C-2 00 . ... : ... .. . ... : ... .. . ... : C-1 04 . ... : F#4 08 . ... : D#3 04 A ...
ROW 3D : D#2 00 1 ... : ... .. . ... : --- 00 . ... : ... .. . ... : ... .. . ... : ... .. . ... : ... .. . ... : ... .. . ...
ROW 3E : G-2 00 . ... : C-3 0D 9 ... : C-2 00 . ... : ... .. . ... : ... .. . ... : C-1 04 . ... : ... .. . ... : D#3 04 9 ...
ROW 3F : D#2 00 . ... : ... .. . ... : --- 00 . ... : ... .. . ... : ... .. . ... : ... .. . ... : ... .. . ... : ... .. . ...
ROW 40 : F#2 00 0 ... : C-3 0D F ... : D#2 00 . ... : 2-# 06 8 ... : ... .. . ... : C-1 04 . ... : ... .. F ... : D-3 04 F ...
ROW 41 : D#2 00 1 ... : ... .. . ... : --- 00 . ... : ... .. . ... : ... .. . ... : ... .. . ... : ... .. E ... : ... .. . ...
ROW 42 : F#2 00 2 ... : C-3 0D C ... : D#2 00 . ... : ... .. . ... : ... .. . ... : ... .. . ... : ... .. E ... : D-3 04 C ...
ROW 43 : D#2 00 3 ... : ... .. . ... : --- 00 . ... : ... .. . ... : ... .. . ... : ... .. . ... : ... .. D ... : ... .. . ...
ROW 44 : F#2 00 4 ... : C-3 0D A ... : D#2 00 . ... : ... .. . ... : ... .. . ... : C-1 04 . ... : ... .. D ... : D-3 04 A ...
ROW 45 : D#2 00 5 ... : ... .. . ... : --- 00 . ... : ... .. . ... : ... .. . ... : ... .. . ... : ... .. C ... : ... .. . ...
ROW 46 : F#2 00 6 ... : C-3 0D 9 ... : D#2 00 . ... : ... .. . ... : ... .. . ... : C-1 04 . ... : ... .. C ... : D-3 04 9 ...
ROW 47 : D#2 00 7 ... : ... .. . ... : --- 00 . ... : ... .. . ... : ... .. . ... : ... .. . ... : ... .. B ... : ... .. . ...
ROW 48 : F#2 00 8 ... : C-3 0D F ... : D#3 00 . ... : 4-# 03 A ... : ... .. . ... : C-2 04 . ... : ... .. B ... : D-3 04 F ...
ROW 49 : D#2 00 9 ... : ... .. . ... : --- .. . ... : ... .. . ... : ... .. . ... : ... .. . ... : ... .. A ... : ... .. . ...
ROW 4A : F#2 00 A ... : C-3 0D C ... : D#2 00 . ... : ... .. . ... : ... .. . ... : ... .. . ... : ... .. A ... : D-3 04 C ...
ROW 4B : D#2 00 B ... : ... .. . ... : --- .. . ... : ... .. . ... : ... .. . ... : ... .. . ... : ... .. 9 ... : ... .. . ...
ROW 4C : F#2 00 C ... : C-3 0D A ... : D#2 00 . ... : ... .. . ... : ... .. . ... : C-1 04 . ... : ... .. 9 ... : D-3 04 A ...
ROW 4D : D#2 00 D ... : ... .. . ... : --- .. . ... : ... .. . ... : ... .. . ... : ... .. . ... : ... .. 8 ... : ... .. . ...
ROW 4E : F#2 00 E ... : C-3 0D 9 ... : D#2 00 . ... : ... .. . ... : ... .. . ... : C-1 04 . ... : ... .. 8 ... : D-3 04 9 ...
ROW 4F : D#2 00 F ... : ... .. . ... : --- .. . ... : ... .. . ... : ... .. . ... : ... .. . ... : ... .. 7 ... : ... .. . ...
ROW 50 : F#2 00 E ... : C-3 0D F ... : D#2 00 . ... : 3-# 06 8 ... : ... .. . ... : C-1 04 . ... : ... .. 7 ... : D-3 04 F ...
ROW 51 : D#2 00 D ... : ... .. . ... : --- .. . ... : ... .. . ... : ... .. . ... : ... .. . ... : ... .. 7 ... : ... .. . ...
ROW 52 : F#2 00 C ... : C-3 0D C ... : D#2 00 . ... : ... .. . ... : ... .. . ... : ... .. . ... : ... .. 6 ... : D-3 04 C ...
ROW 53 : D#2 00 B ... : ... .. . ... : --- .. . ... : ... .. . ... : ... .. . ... : ... .. . ... : ... .. 6 ... : ... .. . ...
ROW 54 : F#2 00 A ... : C-3 0D A ... : D#2 00 . ... : ... .. . ... : ... .. . ... : C-1 04 . ... : ... .. 5 ... : D-3 04 A ...
ROW 55 : D#2 00 9 ... : ... .. . ... : --- .. . ... : ... .. . ... : ... .. . ... : ... .. . ... : ... .. 5 ... : ... .. . ...
ROW 56 : F#2 00 8 ... : C-3 0D 9 ... : D#2 00 . ... : ... .. . ... : ... .. . ... : C-1 04 . ... : ... .. 4 ... : D-3 04 9 ...
ROW 57 : D#2 00 7 ... : ... .. . ... : --- .. . ... : ... .. . ... : ... .. . ... : ... .. . ... : ... .. 4 ... : ... .. . ...
ROW 58 : F#2 00 6 ... : C-3 0D F ... : D#3 00 . ... : 4-# 03 A ... : ... .. . ... : C-2 04 . ... : ... .. 3 ... : D-3 04 F ...
ROW 59 : D#2 00 5 ... : ... .. . ... : --- .. . ... : ... .. . ... : ... .. . ... : ... .. . ... : ... .. 3 ... : ... .. . ...
ROW 5A : F#2 00 4 ... : C-3 0D C ... : D#2 00 . ... : ... .. . ... : ... .. . ... : ... .. . ... : ... .. 2 ... : D-3 04 C ...
ROW 5B : D#2 00 3 ... : ... .. . ... : --- .. . ... : ... .. . ... : ... .. . ... : ... .. . ... : ... .. 2 ... : ... .. . ...
ROW 5C : F#2 00 2 ... : C-3 0D A ... : D#2 00 . ... : ... .. . ... : ... .. . ... : C-1 04 . ... : ... .. 1 ... : D-3 04 A ...
ROW 5D : D#2 00 1 ... : ... .. . ... : --- .. . ... : ... .. . ... : ... .. . ... : ... .. . ... : ... .. 1 ... : ... .. . ...
ROW 5E : F#2 00 0 ... : C-3 0D 9 ... : D#2 00 . ... : ... .. . ... : ... .. . ... : C-1 04 . ... : ... .. . ... : D-3 04 9 ...
ROW 5F : D#2 00 . ... : ... .. . ... : --- .. . ... : ... .. . ... : ... .. . ... : ... .. . ... : ... .. . ... : ... .. . ...
ROW 60 : F#2 00 0 ... : C-3 0D F ... : D#2 00 . ... : 2-# 06 8 ... : ... .. . ... : C-1 04 . ... : ... .. . ... : C#3 04 F ...
ROW 61 : C-2 00 1 ... : ... .. . ... : --- .. . ... : ... .. . ... : ... .. . ... : ... .. . ... : ... .. . ... : ... .. . ...
ROW 62 : F#2 00 2 ... : C-3 0D C ... : D#2 00 . ... : ... .. . ... : ... .. . ... : ... .. . ... : ... .. . ... : C#3 04 C ...
ROW 63 : C-2 00 3 ... : ... .. . ... : --- .. . ... : ... .. . ... : ... .. . ... : ... .. . ... : ... .. . ... : ... .. . ...
ROW 64 : F#2 00 4 ... : C-3 0D A ... : D#2 00 . ... : ... .. . ... : ... .. . ... : C-1 04 . ... : ... .. . ... : C#3 04 A ...
ROW 65 : C-2 00 5 ... : ... .. . ... : --- .. . ... : ... .. . ... : ... .. . ... : ... .. . ... : ... .. . ... : ... .. . ...
ROW 66 : F#2 00 6 ... : C-3 0D 9 ... : D#2 00 . ... : ... .. . ... : ... .. . ... : C-1 04 . ... : ... .. . ... : C#3 04 9 ...
ROW 67 : C-2 00 7 ... : ... .. . ... : --- .. . ... : ... .. . ... : ... .. . ... : ... .. . ... : ... .. . ... : ... .. . ...
ROW 68 : F#2 00 8 ... : C-3 0D F ... : D#3 00 . ... : 4-# 03 A ... : ... .. . ... : C-2 04 . ... : ... .. . ... : C#3 04 F ...
ROW 69 : C-2 00 9 ... : ... .. . ... : --- .. . ... : ... .. . ... : ... .. . ... : ... .. . ... : ... .. . ... : ... .. . ...
ROW 6A : F#2 00 A ... : C-3 0D C ... : D#2 00 . ... : ... .. . ... : ... .. . ... : ... .. . ... : ... .. . ... : C#3 04 C ...
ROW 6B : C-2 00 B ... : ... .. . ... : --- .. . ... : ... .. . ... : ... .. . ... : ... .. . ... : ... .. . ... : ... .. . ...
ROW 6C : F#2 00 C ... : C-3 0D A ... : D#2 00 . ... : ... .. . ... : ... .. . ... : C-1 04 . ... : ... .. . ... : C#3 04 A ...
ROW 6D : C-2 00 D ... : ... .. . ... : --- .. . ... : ... .. . ... : ... .. . ... : ... .. . ... : ... .. . ... : ... .. . ...
ROW 6E : F#2 00 E ... : C-3 0D 9 ... : D#2 00 . ... : ... .. . ... : ... .. . ... : C-1 04 . ... : ... .. . ... : C#3 04 9 ...
ROW 6F : C-2 00 F ... : ... .. . ... : --- .. . ... : ... .. . ... : ... .. . ... : ... .. . ... : ... .. . ... : ... .. . ...
ROW 70 : F#2 00 E ... : C-3 0D F ... : D#2 00 . ... : 3-# 06 8 ... : ... .. . ... : C-1 04 . ... : ... .. . ... : C#3 04 F ...
ROW 71 : C-2 00 D ... : ... .. . ... : --- .. . ... : ... .. . ... : ... .. . ... : ... .. . ... : ... .. . ... : ... .. . ...
ROW 72 : F#2 00 C ... : C-3 0D C ... : D#2 00 . ... : ... .. . ... : ... .. . ... : ... .. . ... : ... .. . ... : C#3 04 C ...
ROW 73 : C-2 00 B ... : ... .. . ... : --- .. . ... : ... .. . ... : ... .. . ... : ... .. . ... : ... .. . ... : ... .. . ...
ROW 74 : F#2 00 A ... : C-3 0D A ... : D#2 00 . ... : ... .. . ... : ... .. . ... : C-1 04 . ... : D#3 09 F ... : C#3 04 A ...
ROW 75 : C-2 00 9 ... : ... .. . ... : --- .. . ... : ... .. . ... : ... .. . ... : ... .. . ... : ... .. . ... : ... .. . ...
ROW 76 : F#2 00 8 ... : C-3 0D 9 ... : D#2 00 . ... : ... .. . ... : ... .. . ... : C-1 04 . ... : ... .. . ... : C#3 04 9 ...
ROW 77 : C-2 00 7 ... : ... .. . ... : --- .. . ... : ... .. . ... : ... .. . ... : ... .. . ... : ... .. . ... : ... .. . ...
ROW 78 : F#2 00 6 ... : C-3 0D F ... : D#3 00 . ... : 4-# 03 A ... : ... .. . ... : C-2 04 . ... : D#3 09 . ... : C#3 04 F ...
ROW 79 : D#2 00 5 ... : ... .. . ... : --- .. . ... : ... .. . ... : ... .. . ... : ... .. . ... : ... .. . ... : ... .. . ...
ROW 7A : F#2 00 4 ... : C-3 0D C ... : D#2 00 . ... : ... .. . ... : ... .. . ... : ... .. . ... : ... .. . ... : C#3 04 C ...
ROW 7B : D#2 00 3 ... : ... .. . ... : --- .. . ... : ... .. . ... : ... .. . ... : ... .. . ... : ... .. . ... : ... .. . ...
ROW 7C : F#2 00 2 ... : C-3 0D A ... : D#2 00 . ... : ... .. . ... : ... .. . ... : C-1 04 . ... : F-3 09 . ... : C#3 04 A ...
ROW 7D : D#2 00 1 ... : ... .. . ... : --- .. . ... : ... .. . ... : ... .. . ... : ... .. . ... : ... .. . ... : ... .. . ...
ROW 7E : F#2 00 0 ... : C-3 0D 9 ... : D#2 00 . ... : ... .. . ... : ... .. . ... : C-1 04 . ... : ... .. . ... : C#3 04 9 ...
ROW 7F : D#2 00 . ... : ... .. . ... : --- .. . ... : ... .. . ... : ... .. . ... : ... .. . ... : ... .. . ... : ... .. . ...

PATTERN 11
ROW 00 : G-2 00 0 ... : C-3 0D F ... : C-2 00 . ... : 9-# 03 4 ... : ... .. . ... : C-1 04 F ... : C-4 08 F ... : D#3 04 F ...
ROW 01 : C-2 00 1 ... : ... .. . ... : --- .. . ... : ... .. . ... : ... .. . ... : ... .. . ... : ... .. . ... : ... .. . ...
ROW 02 : G-2 00 2 ... : C-3 0D C ... : C-2 00 . ... : 9-# 03 . ... : ... .. . ... : ... .. . ... : ... .. . ... : D#3 04 C ...
ROW 03 : C-2 00 3 ... : ... .. . ... : --- .. . ... : ... .. . ... : ... .. . ... : ... .. . ... : ... .. . ... : ... .. . ...
ROW 04 : G-2 00 4 ... : C-3 0D A ... : C-2 00 . ... : ... .. . ... : ... .. . ... : C-1 04 . ... : ... .. . ... : D#3 04 A ...
ROW 05 : C-2 00 5 ... : ... .. . ... : --- .. . ... : ... .. . ... : ... .. . ... : ... .. . ... : ... .. . ... : ... .. . ...
ROW 06 : G-2 00 6 ... : C-3 0D 9 ... : C-2 00 . ... : 9-# 03 . ... : ... .. . ... : C-1 04 . ... : D-4 08 . ... : D#3 04 9 ...
ROW 07 : C-2 00 7 ... : ... .. . ... : --- .. . ... : ... .. . ... : ... .. . ... : ... .. . ... : ... .. . ... : ... .. . ...
ROW 08 : G-2 00 8 ... : C-3 0D F ... : C-3 00 . ... : 4-# 03 8 ... : ... .. . ... : C-2 04 . ... : ... .. . ... : D#3 04 F ...
ROW 09 : C-2 00 9 ... : ... .. . ... : --- 00 . ... : ... .. . ... : ... .. . ... : ... .. . ... : ... .. . ... : ... .. . ...
ROW 0A : G-2 00 A ... : C-3 0D C ... : C-2 00 . ... : ... .. . ... : ... .. . ... : ... .. . ... : ... .. . ... : D#3 04 C ...
ROW 0B : C-2 00 B ... : ... .. . ... : --- 00 . ... : ... .. . ... : ... .. . ... : ... .. . ... : ... .. . ... : ... .. . ...
ROW 0C : G-2 00 C ... : C-3 0D A ... : C-2 00 . ... : 9-# 03 4 ... : ... .. . ... : C-1 04 . ... : D#4 08 . ... : D#3 04 A ...
ROW 0D : C-2 00 D ... : ... .. . ... : --- 00 . ... : ... .. . ... : ... .. . ... : ... .. . ... : ... .. . ... : ... .. . ...
ROW 0E : G-2 00 E ... : C-3 0D 9 ... : C-2 00 . ... : ... .. . ... : ... .. . ... : C-1 04 . ... : ... .. . ... : D#3 04 9 ...
ROW 0F : C-2 00 F ... : ... .. . ... : --- .. . ... : ... .. . ... : ... .. . ... : ... .. . ... : ... .. . ... : ... .. . ...
ROW 10 : G-2 00 E ... : C-3 0D F ... : C-2 00 . ... : 9-# 03 4 ... : ... .. . ... : C-1 04 . ... : C-4 08 . ... : D#3 04 F ...
ROW 11 : C-2 00 D ... : ... .. . ... : --- .. . ... : ... .. . ... : ... .. . ... : ... .. . ... : ... .. . ... : ... .. . ...
ROW 12 : G-2 00 C ... : C-3 0D C ... : C-2 00 . ... : ... .. . ... : ... .. . ... : ... .. . ... : ... .. . ... : D#3 04 C ...
ROW 13 : C-2 00 B ... : ... .. . ... : --- .. . ... : ... .. . ... : ... .. . ... : ... .. . ... : ... .. . ... : ... .. . ...
ROW 14 : G-2 00 A ... : C-3 0D A ... : C-2 00 . ... : 9-# 03 . ... : ... .. . ... : C-1 04 . ... : ... .. . ... : D#3 04 A ...
ROW 15 : C-2 00 9 ... : ... .. . ... : --- .. . ... : ... .. . ... : ... .. . ... : ... .. . ... : ... .. . ... : ... .. . ...
ROW 16 : G-2 00 8 ... : C-3 0D 9 ... : C-2 00 . ... : ... .. . ... : ... .. . ... : C-1 04 . ... : ... .. . ... : D#3 04 9 ...
ROW 17 : C-2 00 7 ... : ... .. . ... : --- .. . ... : ... .. . ... : ... .. . ... : ... .. . ... : ... .. . ... : ... .. . ...
ROW 18 : G-2 00 6 ... : C-3 0D F ... : C-3 00 . ... : 4-# 03 8 ... : ... .. . ... : C-2 04 . ... : G-4 08 . ... : D#3 04 F ...
ROW 19 : C-2 00 5 ... : ... .. . ... : --- .. . ... : ... .. . ... : ... .. . ... : ... .. . ... : ... .. . ... : ... .. . ...
ROW 1A : G-2 00 4 ... : C-3 0D C ... : C-2 00 . ... : ... .. . ... : ... .. . ... : ... .. . ... : ... .. . ... : D#3 04 C ...
ROW 1B : C-2 00 3 ... : ... .. . ... : --- .. . ... : ... .. . ... : ... .. . ... : ... .. . ... : ... .. . ... : ... .. . ...
ROW 1C : G-2 00 2 ... : C-3 0D A ... : C-2 00 . ... : ... .. . ... : ... .. . ... : C-1 04 . ... : ... .. . ... : D#3 04 A ...
ROW 1D : C-2 00 1 ... : ... .. . ... : --- .. . ... : ... .. . ... : ... .. . ... : ... .. . ... : ... .. . ... : ... .. . ...
ROW 1E : G-2 00 . ... : C-3 0D 9 ... : C-2 00 . ... : 9-# 03 4 ... : ... .. . ... : C-1 04 . ... : ... .. . ... : D#3 04 9 ...
ROW 1F : C-2 00 . ... : ... .. . ... : --- .. . ... : ... .. . ... : ... .. . ... : ... .. . ... : ... .. . ... : ... .. . ...
ROW 20 : G-2 00 0 ... : C-3 0D F ... : C-2 00 . ... : 9-# 03 4 ... : ... .. . ... : C-1 04 . ... : G-4 08 . ... : D#3 04 F ...
ROW 21 : D#2 00 1 ... : ... .. . ... : --- 00 . ... : ... .. . ... : ... .. . ... : ... .. . ... : ... .. . ... : ... .. . ...
ROW 22 : G-2 00 2 ... : C-3 0D C ... : C-2 00 . ... : 9-# 03 . ... : ... .. . ... : ... .. . ... : ... .. . ... : D#3 04 C ...
ROW 23 : D#2 00 3 ... : ... .. . ... : --- 00 . ... : ... .. . ... : ... .. . ... : ... .. . ... : ... .. . ... : ... .. . ...
ROW 24 : G-2 00 4 ... : C-3 0D A ... : C-2 00 . ... : ... .. . ... : ... .. . ... : C-1 04 . ... : ... .. . ... : D#3 04 A ...
ROW 25 : D#2 00 5 ... : ... .. . ... : --- 00 . ... : ... .. . ... : ... .. . ... : ... .. . ... : ... .. . ... : ... .. . ...
ROW 26 : G-2 00 6 ... : C-3 0D 9 ... : C-2 00 . ... : 9-# 03 . ... : ... .. . ... : C-1 04 . ... : A#4 08 . ... : D#3 04 9 ...
ROW 27 : D#2 00 7 ... : ... .. . ... : --- 00 . ... : ... .. . ... : ... .. . ... : ... .. . ... : ... .. . ... : ... .. . ...
ROW 28 : G-2 00 8 ... : C-3 0D F ... : C-3 00 . ... : 4-# 03 8 ... : ... .. . ... : C-2 04 . ... : ... .. . ... : D#3 04 F ...
ROW 29 : D#2 00 9 ... : ... .. . ... : --- 00 . ... : ... .. . ... : ... .. . ... : ... .. . ... : ... .. . ... : ... .. . ...
ROW 2A : G-2 00 A ... : C-3 0D C ... : C-2 00 . ... : ... .. . ... : ... .. . ... : ... .. . ... : ... .. . ... : D#3 04 C ...
ROW 2B : D#2 00 B ... : ... .. . ... : --- 00 . ... : ... .. . ... : ... .. . ... : ... .. . ... : ... .. . ... : ... .. . ...
ROW 2C : G-2 00 C ... : C-3 0D A ... : C-2 00 . ... : 9-# 03 4 ... : ... .. . ... : C-1 04 . ... : G#4 08 . ... : D#3 04 A ...
ROW 2D : D#2 00 D ... : ... .. . ... : --- 00 . ... : ... .. . ... : ... .. . ... : ... .. . ... : ... .. . ... : ... .. . ...
ROW 2E : G-2 00 E ... : C-3 0D 9 ... : C-2 00 . ... : ... .. . ... : ... .. . ... : C-1 04 . ... : ... .. . ... : D#3 04 9 ...
ROW 2F : D#2 00 F ... : ... .. . ... : --- 00 . ... : ... .. . ... : ... .. . ... : ... .. . ... : ... .. . ... : ... .. . ...
ROW 30 : G-2 00 E ... : C-3 0D F ... : C-2 00 . ... : 9-# 03 4 ... : ... .. . ... : C-1 04 . ... : G-4 08 . ... : D#3 04 F ...
ROW 31 : D#2 00 D ... : ... .. . ... : --- 00 . ... : ... .. . ... : ... .. . ... : ... .. . ... : ... .. . ... : ... .. . ...
ROW 32 : G-2 00 C ... : C-3 0D C ... : C-2 00 . ... : ... .. . ... : ... .. . ... : ... .. . ... : ... .. . ... : D#3 04 C ...
ROW 33 : D#2 00 B ... : ... .. . ... : --- 00 . ... : ... .. . ... : ... .. . ... : ... .. . ... : ... .. . ... : ... .. . ...
ROW 34 : G-2 00 A ... : C-3 0D A ... : C-2 00 . ... : 9-# 03 . ... : ... .. . ... : C-1 04 . ... : ... .. . ... : D#3 04 A ...
ROW 35 : D#2 00 9 ... : ... .. . ... : --- 00 . ... : ... .. . ... : ... .. . ... : ... .. . ... : ... .. . ... : ... .. . ...
ROW 36 : G-2 00 8 ... : C-3 0D 9 ... : C-2 00 . ... : ... .. . ... : ... .. . ... : C-1 04 . ... : ... .. . ... : D#3 04 9 ...
ROW 37 : D#2 00 7 ... : ... .. . ... : --- 00 . ... : ... .. . ... : ... .. . ... : ... .. . ... : ... .. . ... : ... .. . ...
ROW 38 : G-2 00 6 ... : C-3 0D F ... : C-3 00 . ... : 4-# 03 8 ... : ... .. . ... : C-2 04 . ... : ... .. . ... : D#3 04 F ...
ROW 39 : D#2 00 5 ... : ... .. . ... : --- 00 . ... : ... .. . ... : ... .. . ... : ... .. . ... : ... .. . ... : ... .. . ...
ROW 3A : G-2 00 4 ... : C-3 0D C ... : C-2 00 . ... : ... .. . ... : ... .. . ... : ... .. . ... : ... .. . ... : D#3 04 C ...
ROW 3B : D#2 00 3 ... : ... .. . ... : --- 00 . ... : ... .. . ... : ... .. . ... : ... .. . ... : ... .. . ... : ... .. . ...
ROW 3C : F#2 00 2 ... : C-3 0D A ... : C-2 00 . ... : ... .. . ... : ... .. . ... : C-1 04 . ... : D-4 08 . ... : D#3 04 A ...
ROW 3D : D#2 00 1 ... : ... .. . ... : --- 00 . ... : ... .. . ... : ... .. . ... : ... .. . ... : ... .. . ... : ... .. . ...
ROW 3E : F#2 00 . ... : C-3 0D 9 ... : C-2 00 . ... : 9-# 03 4 ... : ... .. . ... : C-1 04 . ... : ... .. . ... : D#3 04 9 ...
ROW 3F : D#2 00 . ... : ... .. . ... : --- 00 . ... : ... .. . ... : ... .. . ... : ... .. . ... : ... .. . ... : ... .. . ...
ROW 40 : F#2 00 0 ... : F#3 0D F ... : D#2 00 . ... : 9-# 03 4 ... : ... .. . ... : D#1 04 . ... : D#4 08 . ... : D#3 04 F ...
ROW 41 : D#2 00 1 ... : ... .. . ... : --- 00 . ... : ... .. . ... : ... .. . ... : ... .. . ... : ... .. . ... : ... .. . ...
ROW 42 : F#2 00 2 ... : F#3 0D C ... : D#2 00 . ... : 9-# 03 . ... : ... .. . ... : ... .. . ... : ... .. . ... : D#3 04 C ...
ROW 43 : D#2 00 3 ... : ... .. . ... : --- 00 . ... : ... .. . ... : ... .. . ... : ... .. . ... : ... .. . ... : ... .. . ...
ROW 44 : F#2 00 4 ... : F#3 0D A ... : D#2 00 . ... : ... .. . ... : ... .. . ... : D#1 04 . ... : ... .. . ... : D#3 04 A ...
ROW 45 : D#2 00 5 ... : ... .. . ... : --- 00 . ... : ... .. . ... : ... .. . ... : ... .. . ... : ... .. . ... : ... .. . ...
ROW 46 : F#2 00 6 ... : F#3 0D 9 ... : D#2 00 . ... : 9-# 03 . ... : ... .. . ... : D#1 04 . ... : F-4 08 . ... : D#3 04 9 ...
ROW 47 : D#2 00 7 ... : ... .. . ... : --- 00 . ... : ... .. . ... : ... .. . ... : ... .. . ... : ... .. . ... : ... .. . ...
ROW 48 : F#2 00 8 ... : F#3 0D F ... : D#3 00 . ... : 4-# 03 8 ... : ... .. . ... : D#2 04 . ... : ... .. . ... : D#3 04 F ...
ROW 49 : D#2 00 9 ... : ... .. . ... : --- .. . ... : ... .. . ... : ... .. . ... : ... .. . ... : ... .. . ... : ... .. . ...
ROW 4A : F#2 00 A ... : F#3 0D C ... : D#2 00 . ... : ... .. . ... : ... .. . ... : ... .. . ... : ... .. . ... : D#3 04 C ...
ROW 4B : D#2 00 B ... : ... .. . ... : --- .. . ... : ... .. . ... : ... .. . ... : ... .. . ... : ... .. . ... : ... .. . ...
ROW 4C : F#2 00 C ... : F#3 0D A ... : D#2 00 . ... : 9-# 03 4 ... : ... .. . ... : D#1 04 . ... : F#4 08 . ... : D#3 04 A ...
ROW 4D : D#2 00 D ... : ... .. . ... : --- .. . ... : ... .. . ... : ... .. . ... : ... .. . ... : ... .. . ... : ... .. . ...
ROW 4E : F#2 00 E ... : F#3 0D 9 ... : D#2 00 . ... : ... .. . ... : ... .. . ... : D#1 04 . ... : ... .. . ... : D#3 04 9 ...
ROW 4F : D#2 00 F ... : ... .. . ... : --- .. . ... : ... .. . ... : ... .. . ... : ... .. . ... : ... .. . ... : ... .. . ...
ROW 50 : F#2 00 E ... : F#3 0D F ... : D#2 00 . ... : 9-# 03 4 ... : ... .. . ... : D#1 04 . ... : D#4 08 . ... : D#3 04 F ...
ROW 51 : D#2 00 D ... : ... .. . ... : --- .. . ... : ... .. . ... : ... .. . ... : ... .. . ... : ... .. . ... : ... .. . ...
ROW 52 : F#2 00 C ... : F#3 0D C ... : D#2 00 . ... : ... .. . ... : ... .. . ... : ... .. . ... : ... .. . ... : D#3 04 C ...
ROW 53 : D#2 00 B ... : ... .. . ... : --- .. . ... : ... .. . ... : ... .. . ... : ... .. . ... : ... .. . ... : ... .. . ...
ROW 54 : F#2 00 A ... : F#3 0D A ... : D#2 00 . ... : 9-# 03 . ... : ... .. . ... : D#1 04 . ... : ... .. . ... : D#3 04 A ...
ROW 55 : D#2 00 9 ... : ... .. . ... : --- .. . ... : ... .. . ... : ... .. . ... : ... .. . ... : ... .. . ... : ... .. . ...
ROW 56 : F#2 00 8 ... : F#3 0D 9 ... : D#2 00 . ... : ... .. . ... : ... .. . ... : D#1 04 . ... : F-4 08 . ... : D#3 04 9 ...
ROW 57 : D#2 00 7 ... : ... .. . ... : --- .. . ... : ... .. . ... : ... .. . ... : ... .. . ... : ... .. . ... : ... .. . ...
ROW 58 : F#2 00 6 ... : F#3 0D F ... : ... .. . ... : 4-# 06 F ... : ... .. . ... : D#1 04 . ... : ... .. . ... : D#3 04 F ...
ROW 59 : D#2 00 5 ... : ... .. . ... : ... .. . ... : ... .. . ... : ... .. . ... : ... .. . ... : ... .. . ... : ... .. . ...
ROW 5A : F#2 00 4 ... : F#3 0D C ... : ... .. . ... : ... .. . ... : ... .. . ... : D#1 04 . ... : ... .. . ... : D#3 04 C ...
ROW 5B : D#2 00 3 ... : ... .. . ... : ... .. . ... : ... .. . ... : ... .. . ... : ... .. . ... : ... .. . ... : ... .. . ...
ROW 5C : F#2 00 2 ... : F#3 0D A ... : ... .. . ... : ... .. . ... : ... .. . ... : D#1 04 . ... : F#4 08 . ... : D#3 04 A ...
ROW 5D : D#2 00 1 ... : ... .. . ... : ... .. . ... : ... .. . ... : ... .. . ... : ... .. . ... : ... .. . ... : ... .. . ...
ROW 5E : F#2 00 0 ... : F#3 0D 9 ... : ... .. . ... : ... .. . ... : ... .. . ... : D#1 04 . ... : ... .. . ... : D#3 04 9 ...
ROW 5F : D#2 00 . ... : ... .. . ... : ... .. . ... : ... .. . ... : ... .. . ... : ... .. . ... : ... .. . ... : ... .. . ...
ROW 60 : G-2 00 0 ... : A#2 0D F ... : C-2 0E . ... : ... .. . ... : ... .. . ... : G-2 04 . ... : A#4 08 . ... : G-2 04 . ...
ROW 61 : A#2 00 1 ... : ... .. . ... : ... .. . ... : ... .. . ... : ... .. . ... : ... .. . ... : ... .. . ... : ... .. . ...
ROW 62 : G-2 00 2 ... : ... .. . ... : ... .. . ... : ... .. . ... : ... .. . ... : ... .. . ... : ... .. . ... : ... .. . ...
ROW 63 : A#2 00 3 ... : ... .. . ... : ... .. . ... : ... .. . ... : ... .. . ... : ... .. . ... : ... .. . ... : ... .. . ...
ROW 64 : G-2 00 4 ... : ... .. . ... : ... .. . ... : ... .. . ... : ... .. . ... : G-1 04 . ... : ... .. . ... : ... .. . ...
ROW 65 : A#2 00 5 ... : ... .. . ... : ... .. . ... : ... .. . ... : ... .. . ... : ... .. . ... : ... .. . ... : ... .. . ...
ROW 66 : G-2 00 6 ... : ... .. . ... : ... .. . ... : ... .. . ... : ... .. . ... : G-1 04 . ... : ... .. . ... : ... .. . ...
ROW 67 : A#2 00 7 ... : ... .. . ... : ... .. . ... : ... .. . ... : ... .. . ... : ... .. . ... : ... .. . ... : ... .. . ...
ROW 68 : G-2 00 8 ... : A#2 0D F ... : ... .. . ... : === .. . ... : ... .. . ... : G-1 04 . ... : G-4 08 . ... : G-2 04 . ...
ROW 69 : A#2 00 9 ... : ... .. . ... : ... .. . ... : ... .. . ... : ... .. . ... : ... .. . ... : ... .. . ... : ... .. . ...
ROW 6A : G-2 00 A ... : ... .. . ... : ... .. . ... : ... .. . ... : ... .. . ... : G-1 04 . ... : ... .. . ... : ... .. . ...
ROW 6B : A#2 00 B ... : ... .. . ... : ... .. . ... : ... .. . ... : ... .. . ... : ... .. . ... : ... .. . ... : ... .. . ...
ROW 6C : G-2 00 C ... : ... .. . ... : ... .. . ... : ... .. . ... : ... .. . ... : G-1 04 . ... : ... .. . ... : ... .. . ...
ROW 6D : A#2 00 D ... : ... .. . ... : ... .. . ... : ... .. . ... : ... .. . ... : ... .. . ... : ... .. . ... : ... .. . ...
ROW 6E : G-2 00 E ... : ... .. . ... : ... .. . ... : ... .. . ... : ... .. . ... : G-1 04 . ... : ... .. . ... : ... .. . ...
ROW 6F : A#2 00 F ... : ... .. . ... : ... .. . ... : ... .. . ... : ... .. . ... : ... .. . ... : ... .. . ... : ... .. . ...
ROW 70 : G-2 00 E ... : B-2 0C F ... : C-1 0E . ... : ... .. . ... : ... .. . ... : D-2 04 . ... : B-4 08 . ... : D-3 04 . ...
ROW 71 : B-2 00 D ... : ... .. . ... : ... .. . ... : ... .. . ... : ... .. . ... : ... .. . ... : ... .. . ... : ... .. . ...
ROW 72 : G-2 00 C ... : ... .. . ... : ... .. . ... : ... .. . ... : ... .. . ... : ... .. . ... : ... .. . ... : ... .. . ...
ROW 73 : B-2 00 B ... : ... .. . ... : ... .. . ... : ... .. . ... : ... .. . ... : ... .. . ... : ... .. . ... : ... .. . ...
ROW 74 : G-2 00 A ... : ... .. . ... : ... .. . ... : ... .. . ... : ... .. . ... : D-1 04 . ... : ... .. . ... : ... .. . ...
ROW 75 : B-2 00 9 ... : ... .. . ... : ... .. . ... : ... .. . ... : ... .. . ... : ... .. . ... : ... .. . ... : ... .. . ...
ROW 76 : G-2 00 8 ... : ... .. . ... : ... .. . ... : ... .. . ... : ... .. . ... : D-1 04 . ... : ... .. . ... : ... .. . ...
ROW 77 : B-2 00 7 ... : ... .. . ... : ... .. . ... : ... .. . ... : ... .. . ... : ... .. . ... : ... .. . ... : ... .. . ...
ROW 78 : G-2 00 6 ... : B-2 0C F ... : ... .. . ... : 5-# 06 . ... : ... .. . ... : D-1 04 . ... : D-4 08 . ... : D-3 04 . ...
ROW 79 : D-2 00 5 ... : ... .. . ... : ... .. . ... : ... .. . ... : ... .. . ... : ... .. . ... : ... .. . ... : ... .. . ...
ROW 7A : G-2 00 4 ... : ... .. . ... : ... .. . ... : ... .. . ... : ... .. . ... : D-1 04 . ... : ... .. . ... : ... .. . ...
ROW 7B : D-2 00 3 ... : ... .. . ... : ... .. . ... : ... .. . ... : ... .. . ... : ... .. . ... : ... .. . ... : ... .. . ...
ROW 7C : G-2 00 2 ... : ... .. . ... : ... .. . ... : ... .. . ... : ... .. . ... : D-1 04 . ... : ... .. . ... : ... .. . ...
ROW 7D : D-2 00 1 ... : ... .. . ... : ... .. . ... : ... .. . ... : ... .. . ... : ... .. . ... : ... .. . ... : ... .. . ...
ROW 7E : G-2 00 0 ... : ... .. . ... : ... .. . ... : ... .. . ... : ... .. . ... : D-1 04 . ... : ... .. . ... : ... .. . ...
ROW 7F : D-2 00 . ... : ... .. . ... : ... .. . ... : ... .. . ... : ... .. . ... : ... .. . ... : ... .. . ... : ... .. . ...

PATTERN 12
ROW 00 : ... .. . ... : ... .. F ... : C-2 0E . ... : ... .. . ... : ... .. . ... : C-2 04 4 ... : ... .. F ... : ... .. F ...
ROW 01 : ... .. . ... : ... .. E ... : ... .. . ... : ... .. . ... : ... .. . ... : ... .. . ... : ... .. E ... : ... .. E ...
ROW 02 : ... .. . ... : ... .. D ... : ... .. . ... : ... .. . ... : ... .. . ... : ... .. . ... : ... .. D ... : ... .. D ...
ROW 03 : ... .. . ... : ... .. C ... : ... .. . ... : ... .. . ... : ... .. . ... : ... .. . ... : ... .. C ... : ... .. C ...
ROW 04 : ... .. . ... : ... .. B ... : ... .. . ... : ... .. . ... : ... .. . ... : C-1 04 . ... : ... .. B ... : ... .. B ...
ROW 05 : ... .. . ... : ... .. A ... : ... .. . ... : ... .. . ... : ... .. . ... : ... .. . ... : ... .. A ... : ... .. A ...
ROW 06 : ... .. . ... : ... .. 9 ... : ... .. . ... : ... .. . ... : ... .. . ... : C-1 04 . ... : ... .. 9 ... : ... .. 9 ...
ROW 07 : ... .. . ... : ... .. 8 ... : ... .. . ... : ... .. . ... : ... .. . ... : ... .. . ... : ... .. 8 ... : ... .. 8 ...
ROW 08 : ... .. . ... : ... .. 7 ... : ... .. . ... : === .. . ... : ... .. . ... : C-1 04 . ... : ... .. 7 ... : ... .. 7 ...
ROW 09 : ... .. . ... : ... .. 6 ... : ... .. . ... : ... .. . ... : ... .. . ... : ... .. . ... : ... .. 6 ... : ... .. 6 ...
ROW 0A : ... .. . ... : ... .. 5 ... : ... .. . ... : ... .. . ... : ... .. . ... : C-1 04 . ... : ... .. 5 ... : ... .. 5 ...
ROW 0B : ... .. . ... : ... .. 4 ... : ... .. . ... : ... .. . ... : ... .. . ... : ... .. . ... : ... .. 4 ... : ... .. 4 ...
ROW 0C : ... .. . ... : ... .. 3 ... : ... .. . ... : ... .. . ... : ... .. . ... : C-1 04 . ... : ... .. 3 ... : ... .. 3 ...
ROW 0D : ... .. . ... : ... .. 2 ... : ... .. . ... : ... .. . ... : ... .. . ... : ... .. . ... : ... .. 2 ... : ... .. 2 ...
ROW 0E : ... .. . ... : ... .. 1 ... : ... .. . ... : ... .. . ... : ... .. . ... : C-1 04 . ... : ... .. 1 ... : ... .. 1 ...
ROW 0F : ... .. . ... : ... .. 0 ... : ... .. . ... : ... .. . ... : ... .. . ... : ... .. . ... : ... .. 0 ... : ... .. 0 ...
ROW 10 : ... .. . ... : ... .. . ... : C-1 0E . ... : ... .. . ... : ... .. . ... : C-2 04 . ... : ... .. . ... : ... .. . ...
ROW 11 : ... .. . ... : ... .. . ... : ... .. . ... : ... .. . ... : ... .. . ... : ... .. . ... : ... .. . ... : ... .. . ...
ROW 12 : ... .. . ... : ... .. . ... : ... .. . ... : ... .. . ... : ... .. . ... : ... .. . ... : ... .. . ... : ... .. . ...
ROW 13 : ... .. . ... : ... .. . ... : ... .. . ... : ... .. . ... : ... .. . ... : ... .. . ... : ... .. . ... : ... .. . ...
ROW 14 : ... .. . ... : ... .. . ... : ... .. . ... : ... .. . ... : ... .. . ... : C-1 04 . ... : ... .. . ... : ... .. . ...
ROW 15 : ... .. . ... : ... .. . ... : ... .. . ... : ... .. . ... : ... .. . ... : ... .. . ... : ... .. . ... : ... .. . ...
ROW 16 : ... .. . ... : ... .. . ... : ... .. . ... : ... .. . ... : ... .. . ... : C-1 04 . ... : ... .. . ... : ... .. . ...
ROW 17 : ... .. . ... : ... .. . ... : ... .. . ... : ... .. . ... : ... .. . ... : ... .. . D00 : ... .. . ... : ... .. . ...
ROW 18 : ... .. . ... : ... .. . ... : ... .. . ... : ... .. . ... : ... .. . ... : ... .. . ... : ... .. . ... : ... .. . ...
ROW 19 : ... .. . ... : ... .. . ... : ... .. . ... : ... .. . ... : ... .. . ... : ... .. . ... : ... .. . ... : ... .. . ...
ROW 1A : ... .. . ... : ... .. . ... : ... .. . ... : ... .. . ... : ... .. . ... : ... .. . ... : ... .. . ... : ... .. . ...
ROW 1B : ... .. . ... : ... .. . ... : ... .. . ... : ... .. . ... : ... .. . ... : ... .. . ... : ... .. . ... : ... .. . ...
ROW 1C : ... .. . ... : ... .. . ... : ... .. . ... : ... .. . ... : ... .. . ... : ... .. . ... : ... .. . ... : ... .. . ...
ROW 1D : ... .. . ... : ... .. . ... : ... .. . ... : ... .. . ... : ... .. . ... : ... .. . ... : ... .. . ... : ... .. . ...
ROW 1E : ... .. . ... : ... .. . ... : ... .. . ... : ... .. . ... : ... .. . ... : ... .. . ... : ... .. . ... : ... .. . ...
ROW 1F : ... .. . ... : ... .. . ... : ... .. . ... : ... .. . ... : ... .. . ... : ... .. . ... : ... .. . ... : ... .. . ...
ROW 20 : ... .. . ... : ... .. . ... : ... .. . ... : ... .. . ... : ... .. . ... : ... .. . ... : ... .. . ... : ... .. . ...
ROW 21 : ... .. . ... : ... .. . ... : ... .. . ... : ... .. . ... : ... .. . ... : ... .. . ... : ... .. . ... : ... .. . ...
ROW 22 : ... .. . ... : ... .. . ... : ... .. . ... : ... .. . ... : ... .. . ... : ... .. . ... : ... .. . ... : ... .. . ...
ROW 23 : ... .. . ... : ... .. . ... : ... .. . ... : ... .. . ... : ... .. . ... : ... .. . ... : ... .. . ... : ... .. . ...
ROW 24 : ... .. . ... : ... .. . ... : ... .. . ... : ... .. . ... : ... .. . ... : ... .. . ... : ... .. . ... : ... .. . ...
ROW 25 : ... .. . ... : ... .. . ... : ... .. . ... : ... .. . ... : ... .. . ... : ... .. . ... : ... .. . ... : ... .. . ...
ROW 26 : ... .. . ... : ... .. . ... : ... .. . ... : ... .. . ... : ... .. . ... : ... .. . ... : ... .. . ... : ... .. . ...
ROW 27 : ... .. . ... : ... .. . ... : ... .. . ... : ... .. . ... : ... .. . ... : ... .. . ... : ... .. . ... : ... .. . ...
ROW 28 : ... .. . ... : ... .. . ... : ... .. . ... : ... .. . ... : ... .. . ... : ... .. . ... : ... .. . ... : ... .. . ...
ROW 29 : ... .. . ... : ... .. . ... : ... .. . ... : ... .. . ... : ... .. . ... : ... .. . ... : ... .. . ... : ... .. . ...
ROW 2A : ... .. . ... : ... .. . ... : ... .. . ... : ... .. . ... : ... .. . ... : ... .. . ... : ... .. . ... : ... .. . ...
ROW 2B : ... .. . ... : ... .. . ... : ... .. . ... : ... .. . ... : ... .. . ... : ... .. . ... : ... .. . ... : ... .. . ...
ROW 2C : ... .. . ... : ... .. . ... : ... .. . ... : ... .. . ... : ... .. . ... : ... .. . ... : ... .. . ... : ... .. . ...
ROW 2D : ... .. . ... : ... .. . ... : ... .. . ... : ... .. . ... : ... .. . ... : ... .. . ... : ... .. . ... : ... .. . ...
ROW 2E : ... .. . ... : ... .. . ... : ... .. . ... : ... .. . ... : ... .. . ... : ... .. . ... : ... .. . ... : ... .. . ...
ROW 2F : ... .. . ... : ... .. . ... : ... .. . ... : ... .. . ... : ... .. . ... : ... .. . ... : ... .. . ... : ... .. . ...
ROW 30 : ... .. . ... : ... .. . ... : ... .. . ... : ... .. . ... : ... .. . ... : ... .. . ... : ... .. . ... : ... .. . ...
ROW 31 : ... .. . ... : ... .. . ... : ... .. . ... : ... .. . ... : ... .. . ... : ... .. . ... : ... .. . ... : ... .. . ...
ROW 32 : ... .. . ... : ... .. . ... : ... .. . ... : ... .. . ... : ... .. . ... : ... .. . ... : ... .. . ... : ... .. . ...
ROW 33 : ... .. . ... : ... .. . ... : ... .. . ... : ... .. . ... : ... .. . ... : ... .. . ... : ... .. . ... : ... .. . ...
ROW 34 : ... .. . ... : ... .. . ... : ... .. . ... : ... .. . ... : ... .. . ... : ... .. . ... : ... .. . ... : ... .. . ...
ROW 35 : ... .. . ... : ... .. . ... : ... .. . ... : ... .. . ... : ... .. . ... : ... .. . ... : ... .. . ... : ... .. . ...
ROW 36 : ... .. . ... : ... .. . ... : ... .. . ... : ... .. . ... : ... .. . ... : ... .. . ... : ... .. . ... : ... .. . ...
ROW 37 : ... .. . ... : ... .. . ... : ... .. . ... : ... .. . ... : ... .. . ... : ... .. . ... : ... .. . ... : ... .. . ...
ROW 38 : ... .. . ... : ... .. . ... : ... .. . ... : ... .. . ... : ... .. . ... : ... .. . ... : ... .. . ... : ... .. . ...
ROW 39 : ... .. . ... : ... .. . ... : ... .. . ... : ... .. . ... : ... .. . ... : ... .. . ... : ... .. . ... : ... .. . ...
ROW 3A : ... .. . ... : ... .. . ... : ... .. . ... : ... .. . ... : ... .. . ... : ... .. . ... : ... .. . ... : ... .. . ...
ROW 3B : ... .. . ... : ... .. . ... : ... .. . ... : ... .. . ... : ... .. . ... : ... .. . ... : ... .. . ... : ... .. . ...
ROW 3C : ... .. . ... : ... .. . ... : ... .. . ... : ... .. . ... : ... .. . ... : ... .. . ... : ... .. . ... : ... .. . ...
ROW 3D : ... .. . ... : ... .. . ... : ... .. . ... : ... .. . ... : ... .. . ... : ... .. . ... : ... .. . ... : ... .. . ...
ROW 3E : ... .. . ... : ... .. . ... : ... .. . ... : ... .. . ... : ... .. . ... : ... .. . ... : ... .. . ... : ... .. . ...
ROW 3F : ... .. . ... : ... .. . ... : ... .. . ... : ... .. . ... : ... .. . ... : ... .. . ... : ... .. . ... : ... .. . ...
ROW 40 : ... .. . ... : ... .. . ... : ... .. . ... : ... .. . ... : ... .. . ... : ... .. . ... : ... .. . ... : ... .. . ...
ROW 41 : ... .. . ... : ... .. . ... : ... .. . ... : ... .. . ... : ... .. . ... : ... .. . ... : ... .. . ... : ... .. . ...
ROW 42 : ... .. . ... : ... .. . ... : ... .. . ... : ... .. . ... : ... .. . ... : ... .. . ... : ... .. . ... : ... .. . ...
ROW 43 : ... .. . ... : ... .. . ... : ... .. . ... : ... .. . ... : ... .. . ... : ... .. . ... : ... .. . ... : ... .. . ...
ROW 44 : ... .. . ... : ... .. . ... : ... .. . ... : ... .. . ... : ... .. . ... : ... .. . ... : ... .. . ... : ... .. . ...
ROW 45 : ... .. . ... : ... .. . ... : ... .. . ... : ... .. . ... : ... .. . ... : ... .. . ... : ... .. . ... : ... .. . ...
ROW 46 : ... .. . ... : ... .. . ... : ... .. . ... : ... .. . ... : ... .. . ... : ... .. . ... : ... .. . ... : ... .. . ...
ROW 47 : ... .. . ... : ... .. . ... : ... .. . ... : ... .. . ... : ... .. . ... : ... .. . ... : ... .. . ... : ... .. . ...
ROW 48 : ... .. . ... : ... .. . ... : ... .. . ... : ... .. . ... : ... .. . ... : ... .. . ... : ... .. . ... : ... .. . ...
ROW 49 : ... .. . ... : ... .. . ... : ... .. . ... : ... .. . ... : ... .. . ... : ... .. . ... : ... .. . ... : ... .. . ...
ROW 4A : ... .. . ... : ... .. . ... : ... .. . ... : ... .. . ... : ... .. . ... : ... .. . ... : ... .. . ... : ... .. . ...
ROW 4B : ... .. . ... : ... .. . ... : ... .. . ... : ... .. . ... : ... .. . ... : ... .. . ... : ... .. . ... : ... .. . ...
ROW 4C : ... .. . ... : ... .. . ... : ... .. . ... : ... .. . ... : ... .. . ... : ... .. . ... : ... .. . ... : ... .. . ...
ROW 4D : ... .. . ... : ... .. . ... : ... .. . ... : ... .. . ... : ... .. . ... : ... .. . ... : ... .. . ... : ... .. . ...
ROW 4E : ... .. . ... : ... .. . ... : ... .. . ... : ... .. . ... : ... .. . ... : ... .. . ... : ... .. . ... : ... .. . ...
ROW 4F : ... .. . ... : ... .. . ... : ... .. . ... : ... .. . ... : ... .. . ... : ... .. . ... : ... .. . ... : ... .. . ...
ROW 50 : ... .. . ... : ... .. . ... : ... .. . ... : ... .. . ... : ... .. . ... : ... .. . ... : ... .. . ... : ... .. . ...
ROW 51 : ... .. . ... : ... .. . ... : ... .. . ... : ... .. . ... : ... .. . ... : ... .. . ... : ... .. . ... : ... .. . ...
ROW 52 : ... .. . ... : ... .. . ... : ... .. . ... : ... .. . ... : ... .. . ... : ... .. . ... : ... .. . ... : ... .. . ...
ROW 53 : ... .. . ... : ... .. . ... : ... .. . ... : ... .. . ... : ... .. . ... : ... .. . ... : ... .. . ... : ... .. . ...
ROW 54 : ... .. . ... : ... .. . ... : ... .. . ... : ... .. . ... : ... .. . ... : ... .. . ... : ... .. . ... : ... .. . ...
ROW 55 : ... .. . ... : ... .. . ... : ... .. . ... : ... .. . ... : ... .. . ... : ... .. . ... : ... .. . ... : ... .. . ...
ROW 56 : ... .. . ... : ... .. . ... : ... .. . ... : ... .. . ... : ... .. . ... : ... .. . ... : ... .. . ... : ... .. . ...
ROW 57 : ... .. . ... : ... .. . ... : ... .. . ... : ... .. . ... : ... .. . ... : ... .. . ... : ... .. . ... : ... .. . ...
ROW 58 : ... .. . ... : ... .. . ... : ... .. . ... : ... .. . ... : ... .. . ... : ... .. . ... : ... .. . ... : ... .. . ...
ROW 59 : ... .. . ... : ... .. . ... : ... .. . ... : ... .. . ... : ... .. . ... : ... .. . ... : ... .. . ... : ... .. . ...
ROW 5A : ... .. . ... : ... .. . ... : ... .. . ... : ... .. . ... : ... .. . ... : ... .. . ... : ... .. . ... : ... .. . ...
ROW 5B : ... .. . ... : ... .. . ... : ... .. . ... : ... .. . ... : ... .. . ... : ... .. . ... : ... .. . ... : ... .. . ...
ROW 5C : ... .. . ... : ... .. . ... : ... .. . ... : ... .. . ... : ... .. . ... : ... .. . ... : ... .. . ... : ... .. . ...
ROW 5D : ... .. . ... : ... .. . ... : ... .. . ... : ... .. . ... : ... .. . ... : ... .. . ... : ... .. . ... : ... .. . ...
ROW 5E : ... .. . ... : ... .. . ... : ... .. . ... : ... .. . ... : ... .. . ... : ... .. . ... : ... .. . ... : ... .. . ...
ROW 5F : ... .. . ... : ... .. . ... : ... .. . ... : ... .. . ... : ... .. . ... : ... .. . ... : ... .. . ... : ... .. . ...
ROW 60 : ... .. . ... : ... .. . ... : ... .. . ... : ... .. . ... : ... .. . ... : ... .. . ... : ... .. . ... : ... .. . ...
ROW 61 : ... .. . ... : ... .. . ... : ... .. . ... : ... .. . ... : ... .. . ... : ... .. . ... : ... .. . ... : ... .. . ...
ROW 62 : ... .. . ... : ... .. . ... : ... .. . ... : ... .. . ... : ... .. . ... : ... .. . ... : ... .. . ... : ... .. . ...
ROW 63 : ... .. . ... : ... .. . ... : ... .. . ... : ... .. . ... : ... .. . ... : ... .. . ... : ... .. . ... : ... .. . ...
ROW 64 : ... .. . ... : ... .. . ... : ... .. . ... : ... .. . ... : ... .. . ... : ... .. . ... : ... .. . ... : ... .. . ...
ROW 65 : ... .. . ... : ... .. . ... : ... .. . ... : ... .. . ... : ... .. . ... : ... .. . ... : ... .. . ... : ... .. . ...
ROW 66 : ... .. . ... : ... .. . ... : ... .. . ... : ... .. . ... : ... .. . ... : ... .. . ... : ... .. . ... : ... .. . ...
ROW 67 : ... .. . ... : ... .. . ... : ... .. . ... : ... .. . ... : ... .. . ... : ... .. . ... : ... .. . ... : ... .. . ...
ROW 68 : ... .. . ... : ... .. . ... : ... .. . ... : ... .. . ... : ... .. . ... : ... .. . ... : ... .. . ... : ... .. . ...
ROW 69 : ... .. . ... : ... .. . ... : ... .. . ... : ... .. . ... : ... .. . ... : ... .. . ... : ... .. . ... : ... .. . ...
ROW 6A : ... .. . ... : ... .. . ... : ... .. . ... : ... .. . ... : ... .. . ... : ... .. . ... : ... .. . ... : ... .. . ...
ROW 6B : ... .. . ... : ... .. . ... : ... .. . ... : ... .. . ... : ... .. . ... : ... .. . ... : ... .. . ... : ... .. . ...
ROW 6C : ... .. . ... : ... .. . ... : ... .. . ... : ... .. . ... : ... .. . ... : ... .. . ... : ... .. . ... : ... .. . ...
ROW 6D : ... .. . ... : ... .. . ... : ... .. . ... : ... .. . ... : ... .. . ... : ... .. . ... : ... .. . ... : ... .. . ...
ROW 6E : ... .. . ... : ... .. . ... : ... .. . ... : ... .. . ... : ... .. . ... : ... .. . ... : ... .. . ... : ... .. . ...
ROW 6F : ... .. . ... : ... .. . ... : ... .. . ... : ... .. . ... : ... .. . ... : ... .. . ... : ... .. . ... : ... .. . ...
ROW 70 : ... .. . ... : ... .. . ... : ... .. . ... : ... .. . ... : ... .. . ... : ... .. . ... : ... .. . ... : ... .. . ...
ROW 71 : ... .. . ... : ... .. . ... : ... .. . ... : ... .. . ... : ... .. . ... : ... .. . ... : ... .. . ... : ... .. . ...
ROW 72 : ... .. . ... : ... .. . ... : ... .. . ... : ... .. . ... : ... .. . ... : ... .. . ... : ... .. . ... : ... .. . ...
ROW 73 : ... .. . ... : ... .. . ... : ... .. . ... : ... .. . ... : ... .. . ... : ... .. . ... : ... .. . ... : ... .. . ...
ROW 74 : ... .. . ... : ... .. . ... : ... .. . ... : ... .. . ... : ... .. . ... : ... .. . ... : ... .. . ... : ... .. . ...
ROW 75 : ... .. . ... : ... .. . ... : ... .. . ... : ... .. . ... : ... .. . ... : ... .. . ... : ... .. . ... : ... .. . ...
ROW 76 : ... .. . ... : ... .. . ... : ... .. . ... : ... .. . ... : ... .. . ... : ... .. . ... : ... .. . ... : ... .. . ...
ROW 77 : ... .. . ... : ... .. . ... : ... .. . ... : ... .. . ... : ... .. . ... : ... .. . ... : ... .. . ... : ... .. . ...
ROW 78 : ... .. . ... : ... .. . ... : ... .. . ... : ... .. . ... : ... .. . ... : ... .. . ... : ... .. . ... : ... .. . ...
ROW 79 : ... .. . ... : ... .. . ... : ... .. . ... : ... .. . ... : ... .. . ... : ... .. . ... : ... .. . ... : ... .. . ...
ROW 7A : ... .. . ... : ... .. . ... : ... .. . ... : ... .. . ... : ... .. . ... : ... .. . ... : ... .. . ... : ... .. . ...
ROW 7B : ... .. . ... : ... .. . ... : ... .. . ... : ... .. . ... : ... .. . ... : ... .. . ... : ... .. . ... : ... .. . ...
ROW 7C : ... .. . ... : ... .. . ... : ... .. . ... : ... .. . ... : ... .. . ... : ... .. . ... : ... .. . ... : ... .. . ...
ROW 7D : ... .. . ... : ... .. . ... : ... .. . ... : ... .. . ... : ... .. . ... : ... .. . ... : ... .. . ... : ... .. . ...
ROW 7E : ... .. . ... : ... .. . ... : ... .. . ... : ... .. . ... : ... .. . ... : ... .. . ... : ... .. . ... : ... .. . ...
ROW 7F : ... .. . ... : ... .. . ... : ... .. . ... : ... .. . ... : ... .. . ... : ... .. . ... : ... .. . ... : ... .. . ...

TRACK 128   3 132 "Hierophant"
COLUMNS : 1 1 1 1 1 1 1 1

ORDER 00 : 00 00 00 00 00 00 00 00
ORDER 01 : 01 01 01 01 01 01 01 01
ORDER 02 : 02 02 02 02 02 02 02 02
ORDER 03 : 03 03 03 03 03 03 03 03
ORDER 04 : 04 04 04 04 04 04 04 04
ORDER 05 : 05 05 05 05 05 05 05 05
ORDER 06 : 06 06 06 06 06 06 06 06
ORDER 07 : 07 07 07 07 07 07 07 07
ORDER 08 : 08 08 08 08 08 08 08 08
ORDER 09 : 09 09 09 09 09 09 09 09
ORDER 0A : 0A 0A 0A 0A 0A 0A 0A 0A
ORDER 0B : 07 07 07 07 07 07 07 07
ORDER 0C : 08 08 08 08 08 08 08 08
ORDER 0D : 09 09 09 09 09 09 09 09
ORDER 0E : 0B 0B 0B 0B 0B 0B 0B 0B

PATTERN 00
ROW 00 : C-1 00 1 ... : D#1 00 1 ... : --- .. . ... : 0-# 00 1 ... : ... .. . ... : C-3 08 2 ... : C-3 08 1 ... : C-2 04 4 ...
ROW 01 : ... .. . ... : ... .. . ... : ... .. . ... : ... .. . ... : ... .. . ... : ... .. 2 ... : ... .. 1 ... : ... .. . ...
ROW 02 : ... .. . ... : ... .. . ... : ... .. . ... : ... .. . ... : ... .. . ... : D-3 07 2 ... : ... .. 1 ... : ... .. . ...
ROW 03 : ... .. . ... : ... .. . ... : ... .. . ... : ... .. . ... : ... .. . ... : ... .. 2 ... : D-3 08 1 ... : ... .. . ...
ROW 04 : ... .. . ... : ... .. . ... : ... .. . ... : ... .. . ... : ... .. . ... : ... .. 2 ... : ... .. 1 ... : ... .. . ...
ROW 05 : ... .. . ... : ... .. . ... : ... .. . ... : ... .. . ... : ... .. . ... : ... .. 2 ... : ... .. 1 ... : ... .. . ...
ROW 06 : ... .. . ... : ... .. . ... : ... .. . ... : ... .. . ... : ... .. . ... : D#3 08 2 ... : C-3 08 1 ... : ... .. . ...
ROW 07 : ... .. . ... : ... .. . ... : ... .. . ... : ... .. . ... : ... .. . ... : ... .. 2 ... : ... .. 1 ... : ... .. . ...
ROW 08 : ... .. . ... : ... .. . ... : ... .. . ... : ... .. 2 ... : ... .. . ... : F-3 07 2 ... : C-3 08 1 ... : ... .. . ...
ROW 09 : ... .. . ... : ... .. . ... : ... .. . ... : ... .. . ... : ... .. . ... : ... .. 2 ... : ... .. 1 ... : ... .. . ...
ROW 0A : ... .. . ... : ... .. . ... : ... .. . ... : ... .. . ... : ... .. . ... : ... .. 3 ... : D-3 07 1 ... : ... .. . ...
ROW 0B : ... .. . ... : ... .. . ... : ... .. . ... : ... .. . ... : ... .. . ... : ... .. 3 ... : ... .. 1 ... : ... .. . ...
ROW 0C : ... .. . ... : ... .. . ... : ... .. . ... : ... .. . ... : ... .. . ... : D-3 08 3 ... : ... .. 1 ... : ... .. . ...
ROW 0D : ... .. . ... : ... .. . ... : ... .. . ... : ... .. . ... : ... .. . ... : ... .. 3 ... : ... .. 1 ... : ... .. . ...
ROW 0E : ... .. . ... : ... .. . ... : ... .. . ... : ... .. . ... : ... .. . ... : D#3 07 3 ... : D#3 08 1 ... : ... .. . ...
ROW 0F : ... .. . ... : ... .. . ... : ... .. . ... : ... .. . ... : ... .. . ... : ... .. 3 ... : ... .. 1 ... : ... .. . ...
ROW 10 : ... .. 2 ... : ... .. 2 ... : ... .. . ... : ... .. 3 ... : ... .. . ... : F-3 07 3 ... : F-3 07 1 ... : ... .. . ...
ROW 11 : ... .. . ... : ... .. . ... : ... .. . ... : ... .. . ... : ... .. . ... : ... .. 3 ... : ... .. 1 ... : ... .. . ...
ROW 12 : ... .. . ... : ... .. . ... : ... .. . ... : ... .. . ... : ... .. . ... : ... .. 3 ... : ... .. 1 ... : ... .. . ...
ROW 13 : ... .. . ... : ... .. . ... : ... .. . ... : ... .. . ... : ... .. . ... : D#3 08 3 ... : ... .. 2 ... : ... .. . ...
ROW 14 : ... .. . ... : ... .. . ... : ... .. . ... : ... .. . ... : ... .. . ... : ... .. 4 ... : D-3 08 2 ... : ... .. . ...
ROW 15 : ... .. . ... : ... .. . ... : ... .. . ... : ... .. . ... : ... .. . ... : D-3 07 4 ... : ... .. 2 ... : ... .. . ...
ROW 16 : ... .. . ... : ... .. . ... : ... .. . ... : ... .. . ... : ... .. . ... : ... .. 4 ... : D#3 07 2 ... : ... .. . ...
ROW 17 : ... .. . ... : ... .. . ... : ... .. . ... : ... .. . ... : ... .. . ... : ... .. 4 ... : ... .. 2 ... : ... .. . ...
ROW 18 : ... .. . ... : ... .. . ... : ... .. . ... : ... .. 4 ... : ... .. . ... : C-3 08 4 ... : F-3 07 2 ... : C-2 04 6 ...
ROW 19 : ... .. . ... : ... .. . ... : ... .. . ... : ... .. . ... : ... .. . ... : ... .. 4 ... : ... .. 2 ... : ... .. . ...
ROW 1A : ... .. . ... : ... .. . ... : ... .. . ... : ... .. . ... : ... .. . ... : ... .. 4 ... : ... .. 2 ... : ... .. . ...
ROW 1B : ... .. . ... : ... .. . ... : ... .. . ... : ... .. . ... : ... .. . ... : D-3 08 4 ... : D#3 08 2 ... : ... .. . ...
ROW 1C : ... .. . ... : ... .. . ... : ... .. . ... : ... .. . ... : ... .. . ... : ... .. 4 ... : ... .. 2 ... : ... .. . ...
ROW 1D : ... .. . ... : ... .. . ... : ... .. . ... : ... .. . ... : ... .. . ... : ... .. 4 ... : D-3 07 2 ... : ... .. . ...
ROW 1E : ... .. . ... : ... .. . ... : ... .. . ... : ... .. . ... : ... .. . ... : C-3 08 5 ... : ... .. 2 ... : ... .. . ...
ROW 1F : ... .. . ... : ... .. . ... : ... .. . ... : ... .. . ... : ... .. . ... : ... .. 5 ... : ... .. 2 ... : ... .. . ...
ROW 20 : ... .. 3 ... : ... .. 3 ... : ... .. . ... : ... .. 5 ... : ... .. . ... : C-3 07 5 ... : C-3 08 2 ... : C-2 04 8 ...
ROW 21 : ... .. . ... : ... .. . ... : ... .. . ... : ... .. . ... : ... .. . ... : ... .. 5 ... : ... .. 2 ... : ... .. . ...
ROW 22 : ... .. . ... : ... .. . ... : ... .. . ... : ... .. . ... : ... .. . ... : D-3 07 5 ... : ... .. 2 ... : ... .. . ...
ROW 23 : ... .. . ... : ... .. . ... : ... .. . ... : ... .. . ... : ... .. . ... : ... .. 5 ... : D-3 08 2 ... : ... .. . ...
ROW 24 : ... .. . ... : ... .. . ... : ... .. . ... : ... .. . ... : ... .. . ... : ... .. 5 ... : ... .. 2 ... : ... .. . ...
ROW 25 : ... .. . ... : ... .. . ... : ... .. . ... : ... .. . ... : ... .. . ... : ... .. 5 ... : ... .. 3 ... : ... .. . ...
ROW 26 : ... .. . ... : ... .. . ... : ... .. . ... : ... .. . ... : ... .. . ... : D#3 08 5 ... : C-3 08 3 ... : ... .. . ...
ROW 27 : ... .. . ... : ... .. . ... : ... .. . ... : ... .. . ... : ... .. . ... : ... .. 5 ... : ... .. 3 ... : ... .. . ...
ROW 28 : ... .. . ... : ... .. . ... : ... .. . ... : ... .. 4 ... : ... .. . ... : F-3 07 6 ... : C-3 07 3 ... : ... .. . ...
ROW 29 : ... .. . ... : ... .. . ... : ... .. . ... : ... .. . ... : ... .. . ... : ... .. 6 ... : ... .. 3 ... : ... .. . ...
ROW 2A : ... .. . ... : ... .. . ... : ... .. . ... : ... .. . ... : ... .. . ... : ... .. 6 ... : D-3 07 3 ... : ... .. . ...
ROW 2B : ... .. . ... : ... .. . ... : ... .. . ... : ... .. . ... : ... .. . ... : ... .. 6 ... : ... .. 3 ... : ... .. . ...
ROW 2C : ... .. . ... : ... .. . ... : ... .. . ... : ... .. . ... : ... .. . ... : D-3 08 6 ... : ... .. 3 ... : ... .. . ...
ROW 2D : ... .. . ... : ... .. . ... : ... .. . ... : ... .. . ... : ... .. . ... : ... .. 6 ... : ... .. 3 ... : ... .. . ...
ROW 2E : ... .. . ... : ... .. . ... : ... .. . ... : ... .. . ... : ... .. . ... : D#3 07 6 ... : D#3 08 3 ... : ... .. . ...
ROW 2F : ... .. . ... : ... .. . ... : ... .. . ... : ... .. . ... : ... .. . ... : ... .. 6 ... : ... .. 3 ... : ... .. . ...
ROW 30 : ... .. 4 ... : ... .. 4 ... : ... .. . ... : ... .. 3 ... : ... .. . ... : F-3 07 6 ... : F-3 07 3 ... : ... .. . ...
ROW 31 : ... .. . ... : ... .. . ... : ... .. . ... : ... .. . ... : ... .. . ... : ... .. 7 ... : ... .. 3 ... : ... .. . ...
ROW 32 : ... .. . ... : ... .. . ... : ... .. . ... : ... .. . ... : ... .. . ... : ... .. 7 ... : ... .. 3 ... : ... .. . ...
ROW 33 : ... .. . ... : ... .. . ... : ... .. . ... : ... .. . ... : ... .. . ... : D#3 08 7 ... : ... .. 3 ... : ... .. . ...
ROW 34 : ... .. . ... : ... .. . ... : ... .. . ... : ... .. . ... : ... .. . ... : ... .. 7 ... : D-3 08 3 ... : ... .. . ...
ROW 35 : ... .. . ... : ... .. . ... : ... .. . ... : ... .. . ... : ... .. . ... : D-3 07 7 ... : ... .. 3 ... : ... .. . ...
ROW 36 : ... .. . ... : ... .. . ... : ... .. . ... : ... .. . ... : ... .. . ... : ... .. 7 ... : D#3 07 3 ... : ... .. . ...
ROW 37 : ... .. . ... : ... .. . ... : ... .. . ... : ... .. . ... : ... .. . ... : ... .. 7 ... : ... .. 4 ... : ... .. . ...
ROW 38 : ... .. . ... : ... .. . ... : ... .. . ... : ... .. 2 ... : ... .. . ... : C-3 08 7 ... : F-3 07 4 ... : C-2 04 5 ...
ROW 39 : ... .. . ... : ... .. . ... : ... .. . ... : ... .. . ... : ... .. . ... : ... .. 7 ... : ... .. 4 ... : ... .. . ...
ROW 3A : ... .. . ... : ... .. . ... : ... .. . ... : ... .. . ... : ... .. . ... : ... .. 7 ... : ... .. 4 ... : ... .. . ...
ROW 3B : ... .. . ... : ... .. . ... : ... .. . ... : ... .. . ... : ... .. . ... : D-3 08 8 ... : D#3 08 4 ... : ... .. . ...
ROW 3C : ... .. . ... : ... .. . ... : ... .. . ... : ... .. . ... : ... .. . ... : ... .. 8 ... : ... .. 4 ... : G-1 04 8 ...
ROW 3D : ... .. . ... : ... .. . ... : ... .. . ... : ... .. . ... : ... .. . ... : ... .. 8 ... : D-3 07 4 ... : ... .. . ...
ROW 3E : ... .. . ... : ... .. . ... : ... .. . ... : ... .. . ... : ... .. . ... : C-3 08 8 ... : ... .. 4 ... : ... .. . ...
ROW 3F : ... .. . ... : ... .. . ... : ... .. . ... : ... .. . ... : ... .. . ... : ... .. 8 ... : ... .. 4 ... : ... .. . ...
ROW 40 : ... .. . ... : ... .. . ... : ... .. . ... : ... .. 1 ... : ... .. . ... : C-3 08 8 ... : C-3 08 4 ... : C-2 04 C ...
ROW 41 : ... .. . ... : ... .. . ... : ... .. . ... : ... .. . ... : ... .. . ... : ... .. 8 ... : ... .. 4 ... : ... .. . ...
ROW 42 : ... .. . ... : ... .. . ... : ... .. . ... : ... .. . ... : ... .. . ... : D-3 07 8 ... : ... .. 4 ... : ... .. . ...
ROW 43 : ... .. . ... : ... .. . ... : ... .. . ... : ... .. . ... : ... .. . ... : ... .. 8 ... : D-3 08 4 ... : ... .. . ...
ROW 44 : ... .. . ... : ... .. . ... : ... .. . ... : ... .. . ... : ... .. . ... : ... .. 8 ... : ... .. 4 ... : ... .. . ...
ROW 45 : ... .. . ... : ... .. . ... : ... .. . ... : ... .. . ... : ... .. . ... : ... .. 9 ... : ... .. 4 ... : ... .. . ...
ROW 46 : ... .. . ... : ... .. . ... : ... .. . ... : ... .. . ... : ... .. . ... : D#3 08 9 ... : C-3 08 4 ... : ... .. . ...
ROW 47 : ... .. . ... : ... .. . ... : ... .. . ... : ... .. . ... : ... .. . ... : ... .. 9 ... : ... .. 4 ... : ... .. . ...
ROW 48 : ... .. . ... : ... .. . ... : ... .. . ... : ... .. . ... : ... .. . ... : F-3 07 9 ... : C-3 08 4 ... : ... .. . ...
ROW 49 : ... .. . ... : ... .. . ... : ... .. . ... : ... .. . ... : ... .. . ... : ... .. 9 ... : ... .. 5 ... : ... .. . ...
ROW 4A : ... .. . ... : ... .. . ... : ... .. . ... : ... .. . ... : ... .. . ... : ... .. 9 ... : D-3 07 5 ... : ... .. . ...
ROW 4B : ... .. . ... : ... .. . ... : ... .. . ... : ... .. . ... : ... .. . ... : ... .. 9 ... : ... .. 5 ... : ... .. . ...
ROW 4C : ... .. . ... : ... .. . ... : ... .. . ... : ... .. . ... : ... .. . ... : D-3 08 9 ... : ... .. 5 ... : ... .. . ...
ROW 4D : ... .. . ... : ... .. . ... : ... .. . ... : ... .. . ... : ... .. . ... : ... .. 9 ... : ... .. 5 ... : ... .. . ...
ROW 4E : ... .. . ... : ... .. . ... : ... .. . ... : ... .. . ... : ... .. . ... : D#3 07 9 ... : D#3 08 5 ... : ... .. . ...
ROW 4F : ... .. . ... : ... .. . ... : ... .. . ... : ... .. . ... : ... .. . ... : ... .. A ... : ... .. 5 ... : ... .. . ...
ROW 50 : ... .. . ... : ... .. . ... : ... .. . ... : ... .. . ... : ... .. . ... : F-3 07 A ... : F-3 07 5 ... : ... .. . ...
ROW 51 : ... .. . ... : ... .. . ... : ... .. . ... : ... .. . ... : ... .. . ... : ... .. A ... : ... .. 5 ... : ... .. . ...
ROW 52 : ... .. . ... : ... .. . ... : ... .. . ... : ... .. . ... : ... .. . ... : ... .. A ... : ... .. 5 ... : ... .. . ...
ROW 53 : ... .. . ... : ... .. . ... : ... .. . ... : ... .. . ... : ... .. . ... : D#3 08 A ... : ... .. 5 ... : ... .. . ...
ROW 54 : ... .. . ... : ... .. . ... : ... .. . ... : ... .. . ... : ... .. . ... : ... .. A ... : D-3 08 5 ... : ... .. . ...
ROW 55 : ... .. . ... : ... .. . ... : ... .. . ... : ... .. . ... : ... .. . ... : D-3 07 A ... : ... .. 5 ... : ... .. . ...
ROW 56 : ... .. . ... : ... .. . ... : ... .. . ... : ... .. . ... : ... .. . ... : ... .. A ... : D#3 07 5 ... : ... .. . ...
ROW 57 : ... .. . ... : ... .. . ... : ... .. . ... : ... .. . ... : ... .. . ... : ... .. A ... : ... .. 5 ... : ... .. . ...
ROW 58 : ... .. . ... : ... .. . ... : ... .. . ... : ... .. . ... : ... .. . ... : C-3 08 B ... : F-3 07 5 ... : C-2 04 . ...
ROW 59 : ... .. . ... : ... .. . ... : ... .. . ... : ... .. . ... : ... .. . ... : ... .. B ... : ... .. 5 ... : ... .. . ...
ROW 5A : ... .. . ... : ... .. . ... : ... .. . ... : ... .. . ... : ... .. . ... : ... .. B ... : ... .. 5 ... : ... .. . ...
ROW 5B : ... .. . ... : ... .. . ... : ... .. . ... : ... .. . ... : ... .. . ... : D-3 08 B ... : D#3 08 6 ... : ... .. . ...
ROW 5C : ... .. . ... : ... .. . ... : ... .. . ... : ... .. . ... : ... .. . ... : ... .. B ... : ... .. 6 ... : ... .. . ...
ROW 5D : ... .. . ... : ... .. . ... : ... .. . ... : ... .. . ... : ... .. . ... : ... .. B ... : D-3 07 6 ... : ... .. . ...
ROW 5E : ... .. . ... : ... .. . ... : ... .. . ... : ... .. . ... : ... .. . ... : C-3 08 B ... : ... .. 6 ... : ... .. . ...
ROW 5F : ... .. . ... : ... .. . ... : ... .. . ... : ... .. . ... : ... .. . ... : ... .. B ... : ... .. 6 ... : ... .. . ...
ROW 60 : ... .. . ... : ... .. . ... : ... .. . ... : ... .. . ... : ... .. . ... : C-3 07 B ... : C-3 08 6 ... : C-2 04 . ...
ROW 61 : ... .. . ... : ... .. . ... : ... .. . ... : ... .. . ... : ... .. . ... : ... .. B ... : ... .. 6 ... : ... .. . ...
ROW 62 : ... .. . ... : ... .. . ... : ... .. . ... : ... .. . ... : ... .. . ... : D-3 07 C ... : ... .. 6 ... : ... .. . ...
ROW 63 : ... .. . ... : ... .. . ... : ... .. . ... : ... .. . ... : ... .. . ... : ... .. C ... : D-3 08 6 ... : ... .. . ...
ROW 64 : ... .. . ... : ... .. . ... : ... .. . ... : ... .. . ... : ... .. . ... : ... .. C ... : ... .. 6 ... : ... .. . ...
ROW 65 : ... .. . ... : ... .. . ... : ... .. . ... : ... .. . ... : ... .. . ... : ... .. C ... : ... .. 6 ... : ... .. . ...
ROW 66 : ... .. . ... : ... .. . ... : ... .. . ... : ... .. . ... : ... .. . ... : D#3 08 C ... : C-3 08 6 ... : ... .. . ...
ROW 67 : ... .. . ... : ... .. . ... : ... .. . ... : ... .. . ... : ... .. . ... : ... .. C ... : ... .. 6 ... : ... .. . ...
ROW 68 : ... .. . ... : ... .. . ... : ... .. . ... : ... .. . ... : ... .. . ... : F-3 07 C ... : C-3 07 6 ... : ... .. . ...
ROW 69 : ... .. . ... : ... .. . ... : ... .. . ... : ... .. . ... : ... .. . ... : ... .. C ... : ... .. 6 ... : ... .. . ...
ROW 6A : ... .. . ... : ... .. . ... : ... .. . ... : ... .. . ... : ... .. . ... : ... .. C ... : D-3 07 6 ... : ... .. . ...
ROW 6B : ... .. . ... : ... .. . ... : ... .. . ... : ... .. . ... : ... .. . ... : ... .. C ... : ... .. 6 ... : ... .. . ...
ROW 6C : ... .. . ... : ... .. . ... : ... .. . ... : ... .. . ... : ... .. . ... : D-3 08 D ... : ... .. 6 ... : ... .. . ...
ROW 6D : ... .. . ... : ... .. . ... : ... .. . ... : ... .. . ... : ... .. . ... : ... .. D ... : ... .. 7 ... : ... .. . ...
ROW 6E : ... .. . ... : ... .. . ... : ... .. . ... : ... .. . ... : ... .. . ... : D#3 07 D ... : D#3 08 7 ... : ... .. . ...
ROW 6F : ... .. . ... : ... .. . ... : ... .. . ... : ... .. . ... : ... .. . ... : ... .. D ... : ... .. 7 ... : ... .. . ...
ROW 70 : ... .. . ... : ... .. . ... : ... .. . ... : ... .. . ... : ... .. . ... : F-3 07 D ... : F-3 07 7 ... : G-2 04 F ...
ROW 71 : ... .. . ... : ... .. . ... : ... .. . ... : ... .. . ... : ... .. . ... : ... .. D ... : ... .. 7 ... : ... .. . ...
ROW 72 : ... .. . ... : ... .. . ... : ... .. . ... : ... .. . ... : ... .. . ... : ... .. D ... : ... .. 7 ... : ... .. . ...
ROW 73 : ... .. . ... : ... .. . ... : ... .. . ... : ... .. . ... : ... .. . ... : D#3 08 D ... : ... .. 7 ... : ... .. . ...
ROW 74 : ... .. . ... : ... .. . ... : ... .. . ... : ... .. . ... : ... .. . ... : ... .. D ... : D-3 08 7 ... : ... .. . ...
ROW 75 : ... .. . ... : ... .. . ... : ... .. . ... : ... .. . ... : ... .. . ... : D-3 07 D ... : ... .. 7 ... : ... .. . ...
ROW 76 : ... .. . ... : ... .. . ... : ... .. . ... : ... .. . ... : ... .. . ... : ... .. E ... : D#3 07 7 ... : ... .. . ...
ROW 77 : ... .. . ... : ... .. . ... : ... .. . ... : ... .. . ... : ... .. . ... : ... .. E ... : ... .. 7 ... : ... .. . ...
ROW 78 : ... .. . ... : ... .. . ... : ... .. . ... : ... .. . ... : ... .. . ... : C-3 08 E ... : F-3 07 7 ... : ... .. . ...
ROW 79 : ... .. . ... : ... .. . ... : ... .. . ... : ... .. . ... : ... .. . ... : ... .. E ... : ... .. 7 ... : ... .. . ...
ROW 7A : ... .. . ... : ... .. . ... : ... .. . ... : ... .. . ... : ... .. . ... : ... .. E ... : ... .. 7 ... : ... .. . ...
ROW 7B : ... .. . ... : ... .. . ... : ... .. . ... : ... .. . ... : ... .. . ... : D-3 08 E ... : D#3 08 7 ... : ... .. . ...
ROW 7C : ... .. . ... : ... .. . ... : ... .. . ... : ... .. . ... : ... .. . ... : ... .. E ... : ... .. 7 ... : ... .. . ...
ROW 7D : ... .. . ... : ... .. . ... : ... .. . ... : ... .. . ... : ... .. . ... : ... .. E ... : D-3 07 7 ... : ... .. . ...
ROW 7E : ... .. . ... : ... .. . ... : ... .. . ... : ... .. . ... : ... .. . ... : C-3 08 E ... : ... .. 7 ... : ... .. . ...
ROW 7F : ... .. . ... : ... .. . ... : ... .. . ... : ... .. . ... : ... .. . ... : ... .. F ... : ... .. 8 ... : ... .. . ...

PATTERN 01
ROW 00 : C-3 0C 7 ... : D#1 00 4 ... : ... .. . ... : 4-# 02 8 ... : ... .. . ... : D#4 0F F ... : G-4 0F 8 ... : C-1 01 4 ...
ROW 01 : ... .. . ... : ... .. . ... : ... .. . ... : ... .. . ... : ... .. . ... : ... .. . ... : ... .. . ... : ... .. . ...
ROW 02 : D-3 06 . ... : ... .. . ... : ... .. . ... : ... .. . ... : ... .. . ... : ... .. . ... : ... .. . ... : ... .. . ...
ROW 03 : ... .. . ... : ... .. . ... : ... .. . ... : ... .. . ... : ... .. . ... : ... .. . ... : ... .. . ... : ... .. . ...
ROW 04 : ... .. . ... : ... .. . ... : G-2 0E . ... : 4-# 02 . ... : ... .. . ... : D#4 0F . ... : G-4 0F . ... : ... .. . ...
ROW 05 : ... .. . ... : ... .. . ... : ... .. . ... : ... .. . ... : ... .. . ... : ... .. . ... : ... .. . ... : ... .. . ...
ROW 06 : D#3 0C . ... : ... .. . ... : ... .. . ... : ... .. . ... : ... .. . ... : ... .. . ... : ... .. . ... : ... .. . ...
ROW 07 : ... .. . ... : ... .. . ... : ... .. . ... : ... .. . ... : ... .. . ... : ... .. . ... : ... .. . ... : ... .. . ...
ROW 08 : F-3 06 . ... : ... .. . ... : C-2 0E . ... : 4-# 03 . ... : ... .. . ... : ... .. . ... : ... .. . ... : ... .. 5 ...
ROW 09 : ... .. . ... : ... .. . ... : ... .. . ... : ... .. . ... : ... .. . ... : ... .. . ... : ... .. . ... : ... .. . ...
ROW 0A : ... .. . ... : ... .. . ... : ... .. . ... : ... .. . ... : ... .. . ... : ... .. . ... : ... .. . ... : ... .. . ...
ROW 0B : ... .. . ... : ... .. . ... : ... .. . ... : ... .. . ... : ... .. . ... : ... .. . ... : ... .. . ... : ... .. . ...
ROW 0C : D-3 0C . ... : ... .. . ... : ... .. . ... : ... .. . ... : ... .. . ... : ... .. . ... : ... .. . ... : ... .. . ...
ROW 0D : ... .. . ... : ... .. . ... : ... .. . ... : ... .. . ... : ... .. . ... : ... .. . ... : ... .. . ... : ... .. . ...
ROW 0E : D#3 06 . ... : ... .. . ... : ... .. . ... : ... .. . ... : ... .. . ... : ... .. . ... : ... .. . ... : ... .. . ...
ROW 0F : ... .. . ... : ... .. . ... : ... .. . ... : ... .. . ... : ... .. . ... : ... .. . ... : ... .. . ... : ... .. . ...
ROW 10 : F-3 06 . ... : ... .. . ... : ... .. . ... : ... .. . ... : ... .. . ... : D-4 0F . ... : G-4 0F . ... : ... .. 6 ...
ROW 11 : ... .. . ... : ... .. . ... : ... .. . ... : ... .. . ... : ... .. . ... : ... .. . ... : ... .. . ... : ... .. . ...
ROW 12 : ... .. . ... : ... .. . ... : ... .. . ... : ... .. . ... : ... .. . ... : ... .. . ... : ... .. . ... : ... .. . ...
ROW 13 : D#3 0C . ... : ... .. . ... : ... .. . ... : ... .. . ... : ... .. . ... : ... .. . ... : ... .. . ... : ... .. . ...
ROW 14 : ... .. . ... : ... .. . ... : G-2 0E . ... : ... .. . ... : ... .. . ... : ... .. . ... : ... .. . ... : ... .. . ...
ROW 15 : D-3 06 . ... : ... .. . ... : ... .. . ... : ... .. . ... : ... .. . ... : ... .. . ... : ... .. . ... : ... .. . ...
ROW 16 : ... .. . ... : ... .. . ... : ... .. . ... : ... .. . ... : ... .. . ... : ... .. . ... : ... .. . ... : ... .. . ...
ROW 17 : ... .. . ... : ... .. . ... : ... .. . ... : ... .. . ... : ... .. . ... : ... .. . ... : ... .. . ... : ... .. . ...
ROW 18 : C-3 0C . ... : ... .. . ... : C-2 0E . ... : 4-# 03 . ... : ... .. . ... : D-4 0F . ... : F-4 0F . ... : ... .. 7 ...
ROW 19 : ... .. . ... : ... .. . ... : ... .. . ... : ... .. . ... : ... .. . ... : ... .. . ... : ... .. . ... : ... .. . ...
ROW 1A : ... .. . ... : ... .. . ... : ... .. . ... : ... .. . ... : ... .. . ... : ... .. . ... : ... .. . ... : ... .. . ...
ROW 1B : D-3 0C . ... : ... .. . ... : ... .. . ... : ... .. . ... : ... .. . ... : ... .. . ... : ... .. . ... : ... .. . ...
ROW 1C : ... .. . ... : ... .. . ... : ... .. . ... : ... .. . ... : ... .. . ... : ... .. . ... : ... .. . ... : ... .. . ...
ROW 1D : ... .. . ... : ... .. . ... : ... .. . ... : ... .. . ... : ... .. . ... : ... .. . ... : ... .. . ... : ... .. . ...
ROW 1E : C-3 0C . ... : ... .. . ... : ... .. . ... : 3-# 02 . ... : ... .. . ... : ... .. . ... : ... .. . ... : ... .. . ...
ROW 1F : ... .. . ... : ... .. . ... : ... .. . ... : ... .. . ... : ... .. . ... : ... .. . ... : ... .. . ... : ... .. . ...
ROW 20 : C-3 06 . ... : ... .. . ... : ... .. . ... : 3-# 02 . ... : ... .. . ... : C-4 0F . ... : G-3 0F . ... : ... .. 8 ...
ROW 21 : ... .. . ... : ... .. . ... : ... .. . ... : ... .. . ... : ... .. . ... : ... .. . ... : ... .. . ... : ... .. . ...
ROW 22 : D-3 06 . ... : ... .. . ... : ... .. . ... : ... .. . ... : ... .. . ... : ... .. . ... : ... .. . ... : ... .. . ...
ROW 23 : ... .. . ... : ... .. . ... : ... .. . ... : ... .. . ... : ... .. . ... : ... .. . ... : ... .. . ... : ... .. . ...
ROW 24 : ... .. . ... : ... .. . ... : G-2 0E . ... : ... .. . ... : ... .. . ... : ... .. . ... : ... .. . ... : ... .. . ...
ROW 25 : ... .. . ... : ... .. . ... : ... .. . ... : ... .. . ... : ... .. . ... : ... .. . ... : ... .. . ... : ... .. . ...
ROW 26 : D#3 0C . ... : ... .. . ... : ... .. . ... : ... .. . ... : ... .. . ... : ... .. . ... : ... .. . ... : ... .. . ...
ROW 27 : ... .. . ... : ... .. . ... : ... .. . ... : ... .. . ... : ... .. . ... : ... .. . ... : ... .. . ... : ... .. . ...
ROW 28 : F-3 06 . ... : ... .. . ... : C-2 0E . ... : 4-# 03 . ... : ... .. . ... : ... .. . ... : F-3 0F . ... : ... .. 7 ...
ROW 29 : ... .. . ... : ... .. . ... : ... .. . ... : ... .. . ... : ... .. . ... : ... .. . ... : ... .. . ... : ... .. . ...
ROW 2A : ... .. . ... : ... .. . ... : ... .. . ... : ... .. . ... : ... .. . ... : ... .. . ... : ... .. . ... : ... .. . ...
ROW 2B : ... .. . ... : ... .. . ... : ... .. . ... : ... .. . ... : ... .. . ... : ... .. . ... : ... .. . ... : ... .. . ...
ROW 2C : D-3 0C . ... : ... .. . ... : ... .. . ... : ... .. . ... : ... .. . ... : ... .. . ... : ... .. . ... : ... .. . ...
ROW 2D : ... .. . ... : ... .. . ... : ... .. . ... : ... .. . ... : ... .. . ... : ... .. . ... : ... .. . ... : ... .. . ...
ROW 2E : D#3 06 . ... : ... .. . ... : ... .. . ... : ... .. . ... : ... .. . ... : ... .. . ... : ... .. . ... : ... .. . ...
ROW 2F : ... .. . ... : ... .. . ... : ... .. . ... : ... .. . ... : ... .. . ... : ... .. . ... : ... .. . ... : ... .. . ...
ROW 30 : F-3 06 . ... : ... .. . ... : ... .. . ... : ... .. . ... : ... .. . ... : ... .. . ... : D#3 0F . ... : ... .. 6 ...
ROW 31 : ... .. . ... : ... .. . ... : ... .. . ... : ... .. . ... : ... .. . ... : ... .. . ... : ... .. . ... : ... .. . ...
ROW 32 : ... .. . ... : ... .. . ... : ... .. . ... : ... .. . ... : ... .. . ... : ... .. . ... : ... .. . ... : ... .. . ...
ROW 33 : D#3 0C . ... : ... .. . ... : ... .. . ... : ... .. . ... : ... .. . ... : ... .. . ... : ... .. . ... : ... .. . ...
ROW 34 : ... .. . ... : ... .. . ... : G-2 0E . ... : ... .. . ... : ... .. . ... : ... .. . ... : ... .. . ... : ... .. . ...
ROW 35 : D-3 06 . ... : ... .. . ... : ... .. . ... : ... .. . ... : ... .. . ... : ... .. . ... : ... .. . ... : ... .. . ...
ROW 36 : ... .. . ... : ... .. . ... : ... .. . ... : ... .. . ... : ... .. . ... : ... .. . ... : ... .. . ... : ... .. . ...
ROW 37 : ... .. . ... : ... .. . ... : ... .. . ... : ... .. . ... : ... .. . ... : ... .. . ... : ... .. . ... : ... .. . ...
ROW 38 : C-3 0C . ... : ... .. . ... : C-2 0E . ... : 4-# 03 . ... : ... .. . ... : ... .. . ... : F-3 0F . ... : ... .. 7 ...
ROW 39 : ... .. . ... : ... .. . ... : ... .. . ... : ... .. . ... : ... .. . ... : ... .. . ... : ... .. . ... : ... .. . ...
ROW 3A : ... .. . ... : ... .. . ... : ... .. . ... : ... .. . ... : ... .. . ... : ... .. . ... : ... .. . ... : ... .. . ...
ROW 3B : D-3 0C . ... : ... .. . ... : ... .. . ... : 2-# 03 . ... : ... .. . ... : ... .. . ... : ... .. . ... : ... .. . ...
ROW 3C : ... .. . ... : ... .. . ... : ... .. . ... : ... .. . ... : ... .. . ... : ... .. . ... : G#3 0F . ... : ... .. . ...
ROW 3D : ... .. . ... : ... .. . ... : ... .. . ... : ... .. . ... : ... .. . ... : ... .. . ... : ... .. . ... : ... .. . ...
ROW 3E : C-3 0C . ... : ... .. . ... : ... .. . ... : 5-# 03 . ... : ... .. . ... : ... .. . ... : ... .. . ... : ... .. . ...
ROW 3F : ... .. . ... : ... .. . ... : ... .. . ... : ... .. . ... : ... .. . ... : ... .. . ... : ... .. . ... : ... .. . ...
ROW 40 : C-3 06 . ... : ... .. . ... : ... .. . ... : 4-# 02 . ... : ... .. . ... : D#4 0F . ... : G-4 0F . ... : D-1 01 8 ...
ROW 41 : ... .. . ... : ... .. . ... : ... .. . ... : ... .. . ... : ... .. . ... : ... .. . ... : ... .. . ... : ... .. . ...
ROW 42 : D-3 06 . ... : ... .. . ... : ... .. . ... : ... .. . ... : ... .. . ... : ... .. . ... : ... .. . ... : ... .. . ...
ROW 43 : ... .. . ... : ... .. . ... : ... .. . ... : ... .. . ... : ... .. . ... : ... .. . ... : ... .. . ... : ... .. . ...
ROW 44 : ... .. . ... : ... .. . ... : G-2 0E . ... : 4-# 02 . ... : ... .. . ... : D#4 0F . ... : G-4 0F . ... : ... .. . ...
ROW 45 : ... .. . ... : ... .. . ... : ... .. . ... : ... .. . ... : ... .. . ... : ... .. . ... : ... .. . ... : ... .. . ...
ROW 46 : D#3 0C . ... : ... .. . ... : ... .. . ... : ... .. . ... : ... .. . ... : ... .. . ... : ... .. . ... : ... .. . ...
ROW 47 : ... .. . ... : ... .. . ... : ... .. . ... : ... .. . ... : ... .. . ... : ... .. . ... : ... .. . ... : ... .. . ...
ROW 48 : F-3 06 . ... : ... .. . ... : C-2 0E . ... : 4-# 03 . ... : ... .. . ... : ... .. . ... : ... .. . ... : ... .. 9 ...
ROW 49 : ... .. . ... : ... .. . ... : ... .. . ... : ... .. . ... : ... .. . ... : ... .. . ... : ... .. . ... : ... .. . ...
ROW 4A : ... .. . ... : ... .. . ... : ... .. . ... : ... .. . ... : ... .. . ... : ... .. . ... : ... .. . ... : ... .. . ...
ROW 4B : ... .. . ... : ... .. . ... : ... .. . ... : ... .. . ... : ... .. . ... : ... .. . ... : ... .. . ... : ... .. . ...
ROW 4C : D-3 0C . ... : ... .. . ... : ... .. . ... : ... .. . ... : ... .. . ... : ... .. . ... : ... .. . ... : ... .. . ...
ROW 4D : ... .. . ... : ... .. . ... : ... .. . ... : ... .. . ... : ... .. . ... : ... .. . ... : ... .. . ... : ... .. . ...
ROW 4E : D#3 06 . ... : ... .. . ... : ... .. . ... : ... .. . ... : ... .. . ... : ... .. . ... : ... .. . ... : ... .. . ...
ROW 4F : ... .. . ... : ... .. . ... : ... .. . ... : ... .. . ... : ... .. . ... : ... .. . ... : ... .. . ... : ... .. . ...
ROW 50 : F-3 06 . ... : ... .. . ... : ... .. . ... : ... .. . ... : ... .. . ... : D-4 0F . ... : G-4 0F . ... : ... .. A ...
ROW 51 : ... .. . ... : ... .. . ... : ... .. . ... : ... .. . ... : ... .. . ... : ... .. . ... : ... .. . ... : ... .. . ...
ROW 52 : ... .. . ... : ... .. . ... : ... .. . ... : ... .. . ... : ... .. . ... : ... .. . ... : ... .. . ... : ... .. . ...
ROW 53 : D#3 0C . ... : ... .. . ... : ... .. . ... : ... .. . ... : ... .. . ... : ... .. . ... : ... .. . ... : ... .. . ...
ROW 54 : ... .. . ... : ... .. . ... : G-2 0E . ... : ... .. . ... : ... .. . ... : ... .. . ... : ... .. . ... : ... .. . ...
ROW 55 : D-3 06 . ... : ... .. . ... : ... .. . ... : ... .. . ... : ... .. . ... : ... .. . ... : ... .. . ... : ... .. . ...
ROW 56 : ... .. . ... : ... .. . ... : ... .. . ... : ... .. . ... : ... .. . ... : ... .. . ... : ... .. . ... : ... .. . ...
ROW 57 : ... .. . ... : ... .. . ... : ... .. . ... : ... .. . ... : ... .. . ... : ... .. . ... : ... .. . ... : ... .. . ...
ROW 58 : C-3 0C . ... : ... .. . ... : C-2 0E . ... : 4-# 03 . ... : ... .. . ... : D-4 0F . ... : F-4 0F . ... : ... .. 9 ...
ROW 59 : ... .. . ... : ... .. . ... : ... .. . ... : ... .. . ... : ... .. . ... : ... .. . ... : ... .. . ... : ... .. . ...
ROW 5A : ... .. . ... : ... .. . ... : ... .. . ... : ... .. . ... : ... .. . ... : ... .. . ... : ... .. . ... : ... .. . ...
ROW 5B : D-3 0C . ... : ... .. . ... : ... .. . ... : ... .. . ... : ... .. . ... : ... .. . ... : ... .. . ... : ... .. . ...
ROW 5C : ... .. . ... : ... .. . ... : ... .. . ... : ... .. . ... : ... .. . ... : ... .. . ... : ... .. . ... : ... .. . ...
ROW 5D : ... .. . ... : ... .. . ... : ... .. . ... : ... .. . ... : ... .. . ... : ... .. . ... : ... .. . ... : ... .. . ...
ROW 5E : C-3 0C . ... : ... .. . ... : ... .. . ... : 3-# 02 . ... : ... .. . ... : ... .. . ... : ... .. . ... : ... .. . ...
ROW 5F : ... .. . ... : ... .. . ... : ... .. . ... : ... .. . ... : ... .. . ... : ... .. . ... : ... .. . ... : ... .. . ...
ROW 60 : C-3 06 . ... : ... .. . ... : ... .. . ... : 3-# 02 . ... : ... .. . ... : C-4 0F . ... : G-3 0F . ... : D#1 01 8 ...
ROW 61 : ... .. . ... : ... .. . ... : ... .. . ... : ... .. . ... : ... .. . ... : ... .. . ... : ... .. . ... : ... .. . ...
ROW 62 : D-3 06 . ... : ... .. . ... : ... .. . ... : ... .. . ... : ... .. . ... : ... .. . ... : ... .. . ... : ... .. . ...
ROW 63 : ... .. . ... : ... .. . ... : ... .. . ... : ... .. . ... : ... .. . ... : ... .. . ... : ... .. . ... : ... .. . ...
ROW 64 : ... .. . ... : ... .. . ... : G-2 0E . ... : ... .. . ... : ... .. . ... : ... .. . ... : ... .. . ... : ... .. . ...
ROW 65 : ... .. . ... : ... .. . ... : ... .. . ... : ... .. . ... : ... .. . ... : ... .. . ... : ... .. . ... : ... .. . ...
ROW 66 : D#3 0C . ... : ... .. . ... : ... .. . ... : ... .. . ... : ... .. . ... : ... .. . ... : ... .. . ... : ... .. . ...
ROW 67 : ... .. . ... : ... .. . ... : ... .. . ... : ... .. . ... : ... .. . ... : ... .. . ... : ... .. . ... : ... .. . ...
ROW 68 : F-3 06 . ... : ... .. . ... : C-2 0E . ... : 4-# 03 . ... : ... .. . ... : ... .. . ... : F-3 0F . ... : ... .. 7 ...
ROW 69 : ... .. . ... : ... .. . ... : ... .. . ... : ... .. . ... : ... .. . ... : ... .. . ... : ... .. . ... : ... .. . ...
ROW 6A : ... .. . ... : ... .. . ... : ... .. . ... : ... .. . ... : ... .. . ... : ... .. . ... : ... .. . ... : ... .. . ...
ROW 6B : ... .. . ... : ... .. . ... : ... .. . ... : ... .. . ... : ... .. . ... : ... .. . ... : ... .. . ... : ... .. . ...
ROW 6C : D-3 0C . ... : ... .. . ... : ... .. . ... : ... .. . ... : ... .. . ... : ... .. . ... : ... .. . ... : ... .. . ...
ROW 6D : ... .. . ... : ... .. . ... : ... .. . ... : ... .. . ... : ... .. . ... : ... .. . ... : ... .. . ... : ... .. . ...
ROW 6E : D#3 06 . ... : ... .. . ... : ... .. . ... : ... .. . ... : ... .. . ... : ... .. . ... : ... .. . ... : ... .. . ...
ROW 6F : ... .. . ... : ... .. . ... : ... .. . ... : ... .. . ... : ... .. . ... : ... .. . ... : ... .. . ... : ... .. . ...
ROW 70 : F-3 06 . ... : ... .. . ... : ... .. . ... : ... .. . ... : ... .. . ... : ... .. . ... : D#3 0F . ... : ... .. 6 ...
ROW 71 : ... .. . ... : ... .. . ... : ... .. . ... : ... .. . ... : ... .. . ... : ... .. . ... : ... .. . ... : ... .. . ...
ROW 72 : ... .. . ... : ... .. . ... : ... .. . ... : ... .. . ... : ... .. . ... : ... .. . ... : ... .. . ... : ... .. . ...
ROW 73 : D#3 0C . ... : ... .. . ... : ... .. . ... : ... .. . ... : ... .. . ... : ... .. . ... : ... .. . ... : ... .. . ...
ROW 74 : ... .. . ... : ... .. . ... : G-2 0E . ... : ... .. . ... : ... .. . ... : ... .. . ... : ... .. . ... : ... .. . ...
ROW 75 : D-3 06 . ... : ... .. . ... : ... .. . ... : ... .. . ... : ... .. . ... : ... .. . ... : ... .. . ... : ... .. . ...
ROW 76 : ... .. . ... : ... .. . ... : ... .. . ... : ... .. . ... : ... .. . ... : ... .. . ... : ... .. . ... : ... .. . ...
ROW 77 : ... .. . ... : ... .. . ... : ... .. . ... : ... .. . ... : ... .. . ... : ... .. . ... : ... .. . ... : ... .. . ...
ROW 78 : C-3 0C . ... : ... .. . ... : C-2 0E . ... : 4-# 03 . ... : ... .. . ... : ... .. . ... : F-3 0F . ... : ... .. 7 ...
ROW 79 : ... .. . ... : ... .. . ... : ... .. . ... : ... .. . ... : ... .. . ... : ... .. . ... : ... .. . ... : ... .. . ...
ROW 7A : ... .. . ... : ... .. . ... : ... .. . ... : ... .. . ... : ... .. . ... : ... .. . ... : ... .. . ... : ... .. . ...
ROW 7B : D-3 0C . ... : ... .. . ... : ... .. . ... : 2-# 03 . ... : ... .. . ... : ... .. . ... : ... .. . ... : ... .. . ...
ROW 7C : ... .. . ... : ... .. . ... : ... .. . ... : ... .. . ... : ... .. . ... : ... .. . ... : G#3 0F . ... : ... .. . ...
ROW 7D : ... .. . ... : ... .. . ... : ... .. . ... : ... .. . ... : ... .. . ... : ... .. . ... : ... .. . ... : ... .. . ...
ROW 7E : C-3 0C . ... : ... .. . ... : ... .. . ... : 5-# 03 . ... : ... .. . ... : ... .. . ... : ... .. . ... : ... .. . ...
ROW 7F : ... .. . ... : ... .. . ... : ... .. . ... : ... .. . ... : ... .. . ... : ... .. . ... : ... .. . ... : ... .. . ...

PATTERN 02
ROW 00 : C-3 0C 7 ... : C-3 0C 4 ... : ... .. . ... : 4-# 02 8 ... : ... .. . ... : D#4 0F . ... : G-4 0F . ... : F-1 01 8 ...
ROW 01 : ... .. . ... : ... .. . ... : ... .. . ... : ... .. . ... : ... .. . ... : ... .. . ... : ... .. . ... : ... .. . ...
ROW 02 : D-3 06 . ... : ... .. . ... : ... .. . ... : ... .. . ... : ... .. . ... : ... .. . ... : ... .. . ... : ... .. . ...
ROW 03 : ... .. . ... : D-3 0C . ... : ... .. . ... : ... .. . ... : ... .. . ... : ... .. . ... : ... .. . ... : ... .. . ...
ROW 04 : ... .. . ... : ... .. . ... : G-2 0E . ... : 4-# 02 . ... : ... .. . ... : D#4 0F . ... : G-4 0F . ... : ... .. . ...
ROW 05 : ... .. . ... : ... .. . ... : ... .. . ... : ... .. . ... : ... .. . ... : ... .. . ... : ... .. . ... : ... .. . ...
ROW 06 : D#3 0C . ... : C-3 0C . ... : ... .. . ... : ... .. . ... : ... .. . ... : ... .. . ... : ... .. . ... : ... .. . ...
ROW 07 : ... .. . ... : ... .. . ... : ... .. . ... : ... .. . ... : ... .. . ... : ... .. . ... : ... .. . ... : ... .. . ...
ROW 08 : F-3 06 . ... : C-3 06 . ... : C-2 0E . ... : 4-# 03 . ... : ... .. . ... : ... .. . ... : ... .. . ... : ... .. . ...
ROW 09 : ... .. . ... : ... .. . ... : ... .. . ... : ... .. . ... : ... .. . ... : ... .. . ... : ... .. . ... : ... .. . ...
ROW 0A : ... .. . ... : D-3 06 . ... : ... .. . ... : ... .. . ... : ... .. . ... : ... .. . ... : ... .. . ... : ... .. . ...
ROW 0B : ... .. . ... : ... .. . ... : ... .. . ... : ... .. . ... : ... .. . ... : ... .. . ... : ... .. . ... : ... .. . ...
ROW 0C : D-3 0C . ... : ... .. . ... : ... .. . ... : ... .. . ... : ... .. . ... : ... .. . ... : ... .. . ... : ... .. . ...
ROW 0D : ... .. . ... : ... .. . ... : ... .. . ... : ... .. . ... : ... .. . ... : ... .. . ... : ... .. . ... : ... .. . ...
ROW 0E : D#3 06 . ... : D#3 0C . ... : ... .. . ... : ... .. . ... : ... .. . ... : ... .. . ... : ... .. . ... : ... .. . ...
ROW 0F : ... .. . ... : ... .. . ... : ... .. . ... : ... .. . ... : ... .. . ... : ... .. . ... : ... .. . ... : ... .. . ...
ROW 10 : F-3 06 . ... : F-3 06 . ... : ... .. . ... : ... .. . ... : ... .. . ... : D-4 0F . ... : G-4 0F . ... : ... .. . ...
ROW 11 : ... .. . ... : ... .. . ... : ... .. . ... : ... .. . ... : ... .. . ... : ... .. . ... : ... .. . ... : ... .. . ...
ROW 12 : ... .. . ... : ... .. . ... : ... .. . ... : ... .. . ... : ... .. . ... : ... .. . ... : ... .. . ... : ... .. . ...
ROW 13 : D#3 0C . ... : ... .. . ... : ... .. . ... : ... .. . ... : ... .. . ... : ... .. . ... : ... .. . ... : ... .. . ...
ROW 14 : ... .. . ... : D-3 0C . ... : G-2 0E . ... : ... .. . ... : ... .. . ... : ... .. . ... : ... .. . ... : ... .. . ...
ROW 15 : D-3 06 . ... : ... .. . ... : ... .. . ... : ... .. . ... : ... .. . ... : ... .. . ... : ... .. . ... : ... .. . ...
ROW 16 : ... .. . ... : D#3 06 . ... : ... .. . ... : ... .. . ... : ... .. . ... : ... .. . ... : ... .. . ... : ... .. . ...
ROW 17 : ... .. . ... : ... .. . ... : ... .. . ... : ... .. . ... : ... .. . ... : ... .. . ... : ... .. . ... : ... .. . ...
ROW 18 : C-3 0C . ... : F-3 06 . ... : C-2 0E . ... : 4-# 03 . ... : ... .. . ... : D-4 0F . ... : F-4 0F . ... : ... .. . ...
ROW 19 : ... .. . ... : ... .. . ... : ... .. . ... : ... .. . ... : ... .. . ... : ... .. . ... : ... .. . ... : ... .. . ...
ROW 1A : ... .. . ... : ... .. . ... : ... .. . ... : ... .. . ... : ... .. . ... : ... .. . ... : ... .. . ... : ... .. . ...
ROW 1B : D-3 0C . ... : D#3 0C . ... : ... .. . ... : ... .. . ... : ... .. . ... : ... .. . ... : ... .. . ... : ... .. . ...
ROW 1C : ... .. . ... : ... .. . ... : ... .. . ... : ... .. . ... : ... .. . ... : ... .. . ... : ... .. . ... : ... .. . ...
ROW 1D : ... .. . ... : D-3 06 . ... : ... .. . ... : ... .. . ... : ... .. . ... : ... .. . ... : ... .. . ... : ... .. . ...
ROW 1E : C-3 0C . ... : ... .. . ... : ... .. . ... : 3-# 02 . ... : ... .. . ... : ... .. . ... : ... .. . ... : ... .. . ...
ROW 1F : ... .. . ... : ... .. . ... : ... .. . ... : ... .. . ... : ... .. . ... : ... .. . ... : ... .. . ... : ... .. . ...
ROW 20 : C-3 06 . ... : C-3 0C . ... : ... .. . ... : 3-# 02 . ... : ... .. . ... : C-4 0F . ... : G-3 0F . ... : G-1 01 . ...
ROW 21 : ... .. . ... : ... .. . ... : ... .. . ... : ... .. . ... : ... .. . ... : ... .. . ... : ... .. . ... : ... .. . ...
ROW 22 : D-3 06 . ... : ... .. . ... : ... .. . ... : ... .. . ... : ... .. . ... : ... .. . ... : ... .. . ... : ... .. . ...
ROW 23 : ... .. . ... : D-3 0C . ... : ... .. . ... : ... .. . ... : ... .. . ... : ... .. . ... : ... .. . ... : ... .. . ...
ROW 24 : ... .. . ... : ... .. . ... : G-2 0E . ... : ... .. . ... : ... .. . ... : ... .. . ... : ... .. . ... : ... .. . ...
ROW 25 : ... .. . ... : ... .. . ... : ... .. . ... : ... .. . ... : ... .. . ... : ... .. . ... : ... .. . ... : ... .. . ...
ROW 26 : D#3 0C . ... : C-3 0C . ... : ... .. . ... : ... .. . ... : ... .. . ... : ... .. . ... : ... .. . ... : ... .. . ...
ROW 27 : ... .. . ... : ... .. . ... : ... .. . ... : ... .. . ... : ... .. . ... : ... .. . ... : ... .. . ... : ... .. . ...
ROW 28 : F-3 06 . ... : C-3 06 . ... : C-2 0E . ... : 4-# 03 . ... : ... .. . ... : ... .. . ... : F-3 0F . ... : ... .. . ...
ROW 29 : ... .. . ... : ... .. . ... : ... .. . ... : ... .. . ... : ... .. . ... : ... .. . ... : ... .. . ... : ... .. . ...
ROW 2A : ... .. . ... : D-3 06 . ... : ... .. . ... : ... .. . ... : ... .. . ... : ... .. . ... : ... .. . ... : ... .. . ...
ROW 2B : ... .. . ... : ... .. . ... : ... .. . ... : ... .. . ... : ... .. . ... : ... .. . ... : ... .. . ... : ... .. . ...
ROW 2C : D-3 0C . ... : ... .. . ... : ... .. . ... : ... .. . ... : ... .. . ... : ... .. . ... : ... .. . ... : ... .. . ...
ROW 2D : ... .. . ... : ... .. . ... : ... .. . ... : ... .. . ... : ... .. . ... : ... .. . ... : ... .. . ... : ... .. . ...
ROW 2E : D#3 06 . ... : D#3 0C . ... : ... .. . ... : ... .. . ... : ... .. . ... : ... .. . ... : ... .. . ... : ... .. . ...
ROW 2F : ... .. . ... : ... .. . ... : ... .. . ... : ... .. . ... : ... .. . ... : ... .. . ... : ... .. . ... : ... .. . ...
ROW 30 : F-3 06 . ... : F-3 06 . ... : ... .. . ... : ... .. . ... : ... .. . ... : ... .. . ... : D#3 0F . ... : ... .. . ...
ROW 31 : ... .. . ... : ... .. . ... : ... .. . ... : ... .. . ... : ... .. . ... : ... .. . ... : ... .. . ... : ... .. . ...
ROW 32 : ... .. . ... : ... .. . ... : ... .. . ... : ... .. . ... : ... .. . ... : ... .. . ... : ... .. . ... : ... .. . ...
ROW 33 : D#3 0C . ... : ... .. . ... : ... .. . ... : ... .. . ... : ... .. . ... : ... .. . ... : ... .. . ... : ... .. . ...
ROW 34 : ... .. . ... : D-3 0C . ... : G-2 0E . ... : ... .. . ... : ... .. . ... : ... .. . ... : ... .. . ... : ... .. . ...
ROW 35 : D-3 06 . ... : ... .. . ... : ... .. . ... : ... .. . ... : ... .. . ... : ... .. . ... : ... .. . ... : ... .. . ...
ROW 36 : ... .. . ... : D#3 06 . ... : ... .. . ... : ... .. . ... : ... .. . ... : ... .. . ... : ... .. . ... : ... .. . ...
ROW 37 : ... .. . ... : ... .. . ... : ... .. . ... : ... .. . ... : ... .. . ... : ... .. . ... : ... .. . ... : ... .. . ...
ROW 38 : C-3 0C . ... : F-3 06 . ... : C-2 0E . ... : 4-# 03 . ... : ... .. . ... : ... .. . ... : F-3 0F . ... : D-1 01 . ...
ROW 39 : ... .. . ... : ... .. . ... : ... .. . ... : ... .. . ... : ... .. . ... : ... .. . ... : ... .. . ... : ... .. . ...
ROW 3A : ... .. . ... : ... .. . ... : ... .. . ... : ... .. . ... : ... .. . ... : ... .. . ... : ... .. . ... : ... .. . ...
ROW 3B : D-3 0C . ... : D#3 0C . ... : ... .. . ... : 2-# 03 . ... : ... .. . ... : ... .. . ... : ... .. . ... : ... .. . ...
ROW 3C : ... .. . ... : ... .. . ... : ... .. . ... : ... .. . ... : ... .. . ... : ... .. . ... : G#3 0F . ... : ... .. . ...
ROW 3D : ... .. . ... : D-3 06 . ... : ... .. . ... : ... .. . ... : ... .. . ... : ... .. . ... : ... .. . ... : ... .. . ...
ROW 3E : C-3 0C . ... : ... .. . ... : ... .. . ... : 5-# 03 . ... : ... .. . ... : ... .. . ... : ... .. . ... : ... .. . ...
ROW 3F : ... .. . ... : ... .. . ... : ... .. . ... : ... .. . ... : ... .. . ... : ... .. . ... : ... .. . ... : ... .. . ...
ROW 40 : C-3 06 . ... : C-3 0C . ... : ... .. . ... : 4-# 02 . ... : ... .. . ... : D#4 0F . ... : G-4 0F . ... : D#1 01 . ...
ROW 41 : ... .. . ... : ... .. . ... : ... .. . ... : ... .. . ... : ... .. . ... : ... .. . ... : ... .. . ... : ... .. . ...
ROW 42 : D-3 06 . ... : ... .. . ... : ... .. . ... : ... .. . ... : ... .. . ... : ... .. . ... : ... .. . ... : ... .. . ...
ROW 43 : ... .. . ... : D-3 0C . ... : ... .. . ... : ... .. . ... : ... .. . ... : ... .. . ... : ... .. . ... : ... .. . ...
ROW 44 : ... .. . ... : ... .. . ... : G-2 0E . ... : 4-# 02 . ... : ... .. . ... : D#4 0F . ... : G-4 0F . ... : ... .. . ...
ROW 45 : ... .. . ... : ... .. . ... : ... .. . ... : ... .. . ... : ... .. . ... : ... .. . ... : ... .. . ... : ... .. . ...
ROW 46 : D#3 0C . ... : C-3 0C . ... : ... .. . ... : ... .. . ... : ... .. . ... : ... .. . ... : ... .. . ... : ... .. . ...
ROW 47 : ... .. . ... : ... .. . ... : ... .. . ... : ... .. . ... : ... .. . ... : ... .. . ... : ... .. . ... : ... .. . ...
ROW 48 : F-3 06 . ... : C-3 06 . ... : C-2 0E . ... : 4-# 03 . ... : ... .. . ... : ... .. . ... : ... .. . ... : ... .. . ...
ROW 49 : ... .. . ... : ... .. . ... : ... .. . ... : ... .. . ... : ... .. . ... : ... .. . ... : ... .. . ... : ... .. . ...
ROW 4A : ... .. . ... : D-3 06 . ... : ... .. . ... : ... .. . ... : ... .. . ... : ... .. . ... : ... .. . ... : ... .. . ...
ROW 4B : ... .. . ... : ... .. . ... : ... .. . ... : ... .. . ... : ... .. . ... : ... .. . ... : ... .. . ... : ... .. . ...
ROW 4C : D-3 0C . ... : ... .. . ... : ... .. . ... : ... .. . ... : ... .. . ... : ... .. . ... : ... .. . ... : ... .. . ...
ROW 4D : ... .. . ... : ... .. . ... : ... .. . ... : ... .. . ... : ... .. . ... : ... .. . ... : ... .. . ... : ... .. . ...
ROW 4E : D#3 06 . ... : D#3 0C . ... : ... .. . ... : ... .. . ... : ... .. . ... : ... .. . ... : ... .. . ... : ... .. . ...
ROW 4F : ... .. . ... : ... .. . ... : ... .. . ... : ... .. . ... : ... .. . ... : ... .. . ... : ... .. . ... : ... .. . ...
ROW 50 : F-3 06 . ... : F-3 06 . ... : ... .. . ... : ... .. . ... : ... .. . ... : D-4 0F . ... : G-4 0F . ... : ... .. . ...
ROW 51 : ... .. . ... : ... .. . ... : ... .. . ... : ... .. . ... : ... .. . ... : ... .. . ... : ... .. . ... : ... .. . ...
ROW 52 : ... .. . ... : ... .. . ... : ... .. . ... : ... .. . ... : ... .. . ... : ... .. . ... : ... .. . ... : ... .. . ...
ROW 53 : D#3 0C . ... : ... .. . ... : ... .. . ... : ... .. . ... : ... .. . ... : ... .. . ... : ... .. . ... : ... .. . ...
ROW 54 : ... .. . ... : D-3 0C . ... : G-2 0E . ... : ... .. . ... : ... .. . ... : ... .. . ... : ... .. . ... : ... .. . ...
ROW 55 : D-3 06 . ... : ... .. . ... : ... .. . ... : ... .. . ... : ... .. . ... : ... .. . ... : ... .. . ... : ... .. . ...
ROW 56 : ... .. . ... : D#3 06 . ... : ... .. . ... : ... .. . ... : ... .. . ... : ... .. . ... : ... .. . ... : ... .. . ...
ROW 57 : ... .. . ... : ... .. . ... : ... .. . ... : ... .. . ... : ... .. . ... : ... .. . ... : ... .. . ... : ... .. . ...
ROW 58 : C-3 0C . ... : F-3 06 . ... : C-2 0E . ... : 4-# 03 . ... : ... .. . ... : D-4 0F . ... : F-4 0F . ... : D-1 01 . ...
ROW 59 : ... .. . ... : ... .. . ... : ... .. . ... : ... .. . ... : ... .. . ... : ... .. . ... : ... .. . ... : ... .. . ...
ROW 5A : ... .. . ... : ... .. . ... : ... .. . ... : ... .. . ... : ... .. . ... : ... .. . ... : ... .. . ... : ... .. . ...
ROW 5B : D-3 0C . ... : D#3 0C . ... : ... .. . ... : ... .. . ... : ... .. . ... : ... .. . ... : ... .. . ... : ... .. . ...
ROW 5C : ... .. . ... : ... .. . ... : ... .. . ... : ... .. . ... : ... .. . ... : ... .. . ... : ... .. . ... : ... .. . ...
ROW 5D : ... .. . ... : D-3 06 . ... : ... .. . ... : ... .. . ... : ... .. . ... : ... .. . ... : ... .. . ... : ... .. . ...
ROW 5E : C-3 0C . ... : ... .. . ... : ... .. . ... : 3-# 02 . ... : ... .. . ... : ... .. . ... : ... .. . ... : ... .. . ...
ROW 5F : ... .. . ... : ... .. . ... : ... .. . ... : ... .. . ... : ... .. . ... : ... .. . ... : ... .. . ... : ... .. . ...
ROW 60 : C-3 06 . ... : C-3 0C . ... : ... .. . ... : 3-# 02 . ... : ... .. . ... : C-4 0F . ... : G-3 0F . ... : C-1 01 . ...
ROW 61 : ... .. . ... : ... .. . ... : ... .. . ... : ... .. . ... : ... .. . ... : ... .. . ... : ... .. . ... : ... .. . ...
ROW 62 : D-3 06 . ... : ... .. . ... : ... .. . ... : ... .. . ... : ... .. . ... : ... .. . ... : ... .. . ... : ... .. . ...
ROW 63 : ... .. . ... : D-3 0C . ... : ... .. . ... : ... .. . ... : ... .. . ... : ... .. . ... : ... .. . ... : ... .. . ...
ROW 64 : ... .. . ... : ... .. . ... : G-2 0E . ... : ... .. . ... : ... .. . ... : ... .. . ... : ... .. . ... : ... .. . ...
ROW 65 : ... .. . ... : ... .. . ... : ... .. . ... : ... .. . ... : ... .. . ... : ... .. . ... : ... .. . ... : ... .. . ...
ROW 66 : D#3 0C . ... : C-3 0C . ... : ... .. . ... : ... .. . ... : ... .. . ... : ... .. . ... : ... .. . ... : ... .. . ...
ROW 67 : ... .. . ... : ... .. . ... : ... .. . ... : ... .. . ... : ... .. . ... : ... .. . ... : ... .. . ... : ... .. . ...
ROW 68 : F-3 06 . ... : C-3 06 . ... : C-2 0E . ... : 4-# 03 . ... : ... .. . ... : ... .. . ... : F-3 0F . ... : ... .. . ...
ROW 69 : ... .. . ... : ... .. . ... : ... .. . ... : ... .. . ... : ... .. . ... : ... .. . ... : ... .. . ... : ... .. . ...
ROW 6A : ... .. . ... : D-3 06 . ... : ... .. . ... : ... .. . ... : ... .. . ... : ... .. . ... : ... .. . ... : ... .. . ...
ROW 6B : ... .. . ... : ... .. . ... : ... .. . ... : ... .. . ... : ... .. . ... : ... .. . ... : ... .. . ... : ... .. . ...
ROW 6C : D-3 0C . ... : ... .. . ... : ... .. . ... : ... .. . ... : ... .. . ... : ... .. . ... : ... .. . ... : ... .. . ...
ROW 6D : ... .. . ... : ... .. . ... : ... .. . ... : ... .. . ... : ... .. . ... : ... .. . ... : ... .. . ... : ... .. . ...
ROW 6E : D#3 06 . ... : D#3 0C . ... : ... .. . ... : ... .. . ... : ... .. . ... : ... .. . ... : ... .. . ... : ... .. . ...
ROW 6F : ... .. . ... : ... .. . ... : ... .. . ... : ... .. . ... : ... .. . ... : ... .. . ... : ... .. . ... : ... .. . ...
ROW 70 : F-3 06 . ... : F-3 06 . ... : ... .. . ... : ... .. . ... : ... .. . ... : A#3 0F . ... : D#3 0F . ... : ... .. . ...
ROW 71 : ... .. . ... : ... .. . ... : ... .. . ... : ... .. . ... : ... .. . ... : ... .. . ... : ... .. . ... : ... .. . ...
ROW 72 : ... .. . ... : ... .. . ... : ... .. . ... : ... .. . ... : ... .. . ... : ... .. . ... : ... .. . ... : ... .. . ...
ROW 73 : D#3 0C . ... : ... .. . ... : ... .. . ... : ... .. . ... : ... .. . ... : ... .. . ... : ... .. . ... : ... .. . ...
ROW 74 : ... .. . ... : D-3 0C . ... : G-2 0E . ... : ... .. . ... : ... .. . ... : ... .. . ... : ... .. . ... : ... .. . ...
ROW 75 : D-3 06 . ... : ... .. . ... : ... .. . ... : ... .. . ... : ... .. . ... : ... .. . ... : ... .. . ... : ... .. . ...
ROW 76 : ... .. . ... : D#3 06 . ... : ... .. . ... : ... .. . ... : ... .. . ... : ... .. . ... : ... .. . ... : ... .. . ...
ROW 77 : ... .. . ... : ... .. . ... : ... .. . ... : ... .. . ... : ... .. . ... : ... .. . ... : ... .. . ... : ... .. . ...
ROW 78 : C-3 0C . ... : F-3 06 . ... : C-2 0E . ... : 4-# 03 . ... : ... .. . ... : G#3 0F . ... : F-3 0F . ... : ... .. . ...
ROW 79 : ... .. . ... : ... .. . ... : ... .. . ... : ... .. . ... : ... .. . ... : ... .. . ... : ... .. . ... : ... .. . ...
ROW 7A : ... .. . ... : ... .. . ... : ... .. . ... : ... .. . ... : ... .. . ... : ... .. . ... : ... .. . ... : ... .. . ...
ROW 7B : D-3 0C . ... : D#3 0C . ... : ... .. . ... : 2-# 03 . ... : ... .. . ... : ... .. . ... : ... .. . ... : ... .. . ...
ROW 7C : ... .. . ... : ... .. . ... : ... .. . ... : ... .. . ... : ... .. . ... : ... .. . ... : D-3 0F . ... : ... .. . ...
ROW 7D : ... .. . ... : D-3 06 . ... : ... .. . ... : ... .. . ... : ... .. . ... : ... .. . ... : ... .. . ... : ... .. . ...
ROW 7E : C-3 0C . ... : ... .. . ... : ... .. . ... : 5-# 03 . ... : ... .. . ... : G-3 0F . ... : ... .. . ... : ... .. . ...
ROW 7F : ... .. . ... : ... .. . ... : ... .. . ... : ... .. . ... : ... .. . ... : ... .. . ... : ... .. . ... : ... .. . ...

PATTERN 03
ROW 00 : C-3 0C 7 ... : C-3 0C 4 ... : ... .. . ... : 4-# 02 8 ... : ... .. . ... : F-3 0F . ... : ... .. . ... : C-1 01 8 ...
ROW 01 : ... .. . ... : ... .. . ... : ... .. . ... : ... .. . ... : ... .. . ... : ... .. . ... : ... .. . ... : ... .. . ...
ROW 02 : D-3 06 . ... : ... .. . ... : ... .. . ... : ... .. . ... : ... .. . ... : ... .. . ... : ... .. . ... : ... .. . ...
ROW 03 : ... .. . ... : D-3 0C . ... : ... .. . ... : ... .. . ... : ... .. . ... : ... .. . ... : ... .. . ... : ... .. . ...
ROW 04 : ... .. . ... : ... .. . ... : G-2 0E . ... : 4-# 02 . ... : ... .. . ... : ... .. . ... : ... .. . ... : ... .. . ...
ROW 05 : ... .. . ... : ... .. . ... : ... .. . ... : ... .. . ... : ... .. . ... : ... .. . ... : ... .. . ... : ... .. . ...
ROW 06 : D#3 0C . ... : C-3 0C . ... : ... .. . ... : ... .. . ... : ... .. . ... : ... .. . ... : ... .. . ... : ... .. . ...
ROW 07 : ... .. . ... : ... .. . ... : ... .. . ... : ... .. . ... : ... .. . ... : ... .. . ... : ... .. . ... : ... .. . ...
ROW 08 : F-3 06 . ... : C-3 06 . ... : C-2 0E . ... : 4-# 03 . ... : ... .. . ... : D-3 0F . ... : ... .. . ... : ... .. . ...
ROW 09 : ... .. . ... : ... .. . ... : ... .. . ... : ... .. . ... : ... .. . ... : ... .. . ... : ... .. . ... : ... .. . ...
ROW 0A : ... .. . ... : D-3 06 . ... : ... .. . ... : ... .. . ... : ... .. . ... : ... .. . ... : ... .. . ... : ... .. . ...
ROW 0B : ... .. . ... : ... .. . ... : ... .. . ... : ... .. . ... : ... .. . ... : ... .. . ... : ... .. . ... : ... .. . ...
ROW 0C : D-3 0C . ... : ... .. . ... : ... .. . ... : ... .. . ... : ... .. . ... : ... .. . ... : ... .. . ... : ... .. . ...
ROW 0D : ... .. . ... : ... .. . ... : ... .. . ... : ... .. . ... : ... .. . ... : ... .. . ... : ... .. . ... : ... .. . ...
ROW 0E : D#3 06 . ... : D#3 0C . ... : ... .. . ... : ... .. . ... : ... .. . ... : ... .. . ... : ... .. . ... : ... .. . ...
ROW 0F : ... .. . ... : ... .. . ... : ... .. . ... : ... .. . ... : ... .. . ... : ... .. . ... : ... .. . ... : ... .. . ...
ROW 10 : F-3 06 . ... : F-3 06 . ... : ... .. . ... : ... .. . ... : ... .. . ... : D-3 0F . ... : ... .. . ... : ... .. . ...
ROW 11 : ... .. . ... : ... .. . ... : ... .. . ... : ... .. . ... : ... .. . ... : ... .. . ... : ... .. . ... : ... .. . ...
ROW 12 : ... .. . ... : ... .. . ... : ... .. . ... : ... .. . ... : ... .. . ... : ... .. . ... : ... .. . ... : ... .. . ...
ROW 13 : D#3 0C . ... : ... .. . ... : ... .. . ... : ... .. . ... : ... .. . ... : ... .. . ... : ... .. . ... : ... .. . ...
ROW 14 : ... .. . ... : D-3 0C . ... : G-2 0E . ... : ... .. . ... : ... .. . ... : ... .. . ... : ... .. . ... : ... .. . ...
ROW 15 : D-3 06 . ... : ... .. . ... : ... .. . ... : ... .. . ... : ... .. . ... : ... .. . ... : ... .. . ... : ... .. . ...
ROW 16 : ... .. . ... : D#3 06 . ... : ... .. . ... : ... .. . ... : ... .. . ... : D#3 0F . ... : ... .. . ... : ... .. . ...
ROW 17 : ... .. . ... : ... .. . ... : ... .. . ... : ... .. . ... : ... .. . ... : ... .. . ... : ... .. . ... : ... .. . ...
ROW 18 : C-3 0C . ... : F-3 06 . ... : C-2 0E . ... : 4-# 03 . ... : ... .. . ... : ... .. . ... : ... .. . ... : ... .. . ...
ROW 19 : ... .. . ... : ... .. . ... : ... .. . ... : ... .. . ... : ... .. . ... : ... .. . ... : ... .. . ... : ... .. . ...
ROW 1A : ... .. . ... : ... .. . ... : ... .. . ... : ... .. . ... : ... .. . ... : ... .. . ... : ... .. . ... : ... .. . ...
ROW 1B : D-3 0C . ... : D#3 0C . ... : ... .. . ... : ... .. . ... : ... .. . ... : ... .. . ... : ... .. . ... : ... .. . ...
ROW 1C : ... .. . ... : ... .. . ... : ... .. . ... : ... .. . ... : ... .. . ... : F-3 0F . ... : ... .. . ... : ... .. . ...
ROW 1D : ... .. . ... : D-3 06 . ... : ... .. . ... : ... .. . ... : ... .. . ... : ... .. . ... : ... .. . ... : ... .. . ...
ROW 1E : C-3 0C . ... : ... .. . ... : ... .. . ... : 3-# 02 . ... : ... .. . ... : ... .. . ... : ... .. . ... : ... .. . ...
ROW 1F : ... .. . ... : ... .. . ... : ... .. . ... : ... .. . ... : ... .. . ... : ... .. . ... : ... .. . ... : ... .. . ...
ROW 20 : C-3 06 . ... : C-3 0C . ... : ... .. . ... : 3-# 02 . ... : ... .. . ... : G-3 0F . ... : ... .. . ... : ... .. . ...
ROW 21 : ... .. . ... : ... .. . ... : ... .. . ... : ... .. . ... : ... .. . ... : ... .. . ... : ... .. . ... : ... .. . ...
ROW 22 : D-3 06 . ... : ... .. . ... : ... .. . ... : ... .. . ... : ... .. . ... : ... .. . ... : ... .. . ... : ... .. . ...
ROW 23 : ... .. . ... : D-3 0C . ... : ... .. . ... : ... .. . ... : ... .. . ... : ... .. . ... : ... .. . ... : ... .. . ...
ROW 24 : ... .. . ... : ... .. . ... : G-2 0E . ... : ... .. . ... : ... .. . ... : ... .. . ... : ... .. . ... : ... .. . ...
ROW 25 : ... .. . ... : ... .. . ... : ... .. . ... : ... .. . ... : ... .. . ... : ... .. . ... : ... .. . ... : ... .. . ...
ROW 26 : D#3 0C . ... : C-3 0C . ... : ... .. . ... : ... .. . ... : ... .. . ... : ... .. . ... : ... .. . ... : ... .. . ...
ROW 27 : ... .. . ... : ... .. . ... : ... .. . ... : ... .. . ... : ... .. . ... : ... .. . ... : ... .. . ... : ... .. . ...
ROW 28 : F-3 06 . ... : C-3 06 . ... : C-2 0E . ... : 4-# 03 . ... : ... .. . ... : C-3 0F . ... : ... .. . ... : ... .. . ...
ROW 29 : ... .. . ... : ... .. . ... : ... .. . ... : ... .. . ... : ... .. . ... : ... .. . ... : ... .. . ... : ... .. . ...
ROW 2A : ... .. . ... : D-3 06 . ... : ... .. . ... : ... .. . ... : ... .. . ... : ... .. . ... : ... .. . ... : ... .. . ...
ROW 2B : ... .. . ... : ... .. . ... : ... .. . ... : ... .. . ... : ... .. . ... : ... .. . ... : ... .. . ... : ... .. . ...
ROW 2C : D-3 0C . ... : ... .. . ... : ... .. . ... : ... .. . ... : ... .. . ... : ... .. . ... : ... .. . ... : ... .. . ...
ROW 2D : ... .. . ... : ... .. . ... : ... .. . ... : ... .. . ... : ... .. . ... : ... .. . ... : ... .. . ... : ... .. . ...
ROW 2E : D#3 06 . ... : D#3 0C . ... : ... .. . ... : ... .. . ... : ... .. . ... : D#3 0F . ... : ... .. . ... : ... .. . ...
ROW 2F : ... .. . ... : ... .. . ... : ... .. . ... : ... .. . ... : ... .. . ... : ... .. . ... : ... .. . ... : ... .. . ...
ROW 30 : F-3 06 . ... : F-3 06 . ... : ... .. . ... : ... .. . ... : ... .. . ... : ... .. . ... : ... .. . ... : ... .. . ...
ROW 31 : ... .. . ... : ... .. . ... : ... .. . ... : ... .. . ... : ... .. . ... : ... .. . ... : ... .. . ... : ... .. . ...
ROW 32 : ... .. . ... : ... .. . ... : ... .. . ... : ... .. . ... : ... .. . ... : ... .. . ... : ... .. . ... : ... .. . ...
ROW 33 : D#3 0C . ... : ... .. . ... : ... .. . ... : ... .. . ... : ... .. . ... : ... .. . ... : ... .. . ... : ... .. . ...
ROW 34 : ... .. . ... : D-3 0C . ... : G-2 0E . ... : ... .. . ... : ... .. . ... : F-3 0F . ... : ... .. . ... : ... .. . ...
ROW 35 : D-3 06 . ... : ... .. . ... : ... .. . ... : ... .. . ... : ... .. . ... : ... .. . ... : ... .. . ... : ... .. . ...
ROW 36 : ... .. . ... : D#3 06 . ... : ... .. . ... : ... .. . ... : ... .. . ... : ... .. . ... : ... .. . ... : ... .. . ...
ROW 37 : ... .. . ... : ... .. . ... : ... .. . ... : ... .. . ... : ... .. . ... : ... .. . ... : ... .. . ... : ... .. . ...
ROW 38 : C-3 0C . ... : F-3 06 . ... : C-2 0E . ... : 4-# 03 . ... : ... .. . ... : D#3 0F . ... : ... .. . ... : ... .. . ...
ROW 39 : ... .. . ... : ... .. . ... : ... .. . ... : ... .. . ... : ... .. . ... : ... .. . ... : ... .. . ... : ... .. . ...
ROW 3A : ... .. . ... : ... .. . ... : ... .. . ... : ... .. . ... : ... .. . ... : ... .. . ... : ... .. . ... : ... .. . ...
ROW 3B : D-3 0C . ... : D#3 0C . ... : ... .. . ... : 2-# 03 . ... : ... .. . ... : ... .. . ... : ... .. . ... : ... .. . ...
ROW 3C : ... .. . ... : ... .. . ... : ... .. . ... : ... .. . ... : ... .. . ... : D-3 0F . ... : ... .. . ... : ... .. . ...
ROW 3D : ... .. . ... : D-3 06 . ... : ... .. . ... : ... .. . ... : ... .. . ... : ... .. . ... : ... .. . ... : ... .. . ...
ROW 3E : C-3 0C . ... : ... .. . ... : ... .. . ... : 5-# 03 . ... : ... .. . ... : ... .. . ... : ... .. . ... : ... .. . ...
ROW 3F : ... .. . ... : ... .. . ... : ... .. . ... : ... .. . ... : ... .. . ... : ... .. . ... : ... .. . ... : ... .. . ...
ROW 40 : C-3 06 . ... : C-3 0C . ... : ... .. . ... : 4-# 02 . ... : ... .. . ... : G#3 0F . ... : ... .. . ... : ... .. . ...
ROW 41 : ... .. . ... : ... .. . ... : ... .. . ... : ... .. . ... : ... .. . ... : ... .. . ... : ... .. . ... : ... .. . ...
ROW 42 : D-3 06 . ... : ... .. . ... : ... .. . ... : ... .. . ... : ... .. . ... : ... .. . ... : ... .. . ... : ... .. . ...
ROW 43 : ... .. . ... : D-3 0C . ... : ... .. . ... : ... .. . ... : ... .. . ... : ... .. . ... : ... .. . ... : ... .. . ...
ROW 44 : ... .. . ... : ... .. . ... : G-2 0E . ... : 4-# 02 . ... : ... .. . ... : ... .. . ... : ... .. . ... : ... .. . ...
ROW 45 : ... .. . ... : ... .. . ... : ... .. . ... : ... .. . ... : ... .. . ... : ... .. . ... : ... .. . ... : ... .. . ...
ROW 46 : D#3 0C . ... : C-3 0C . ... : ... .. . ... : ... .. . ... : ... .. . ... : ... .. . ... : ... .. . ... : ... .. . ...
ROW 47 : ... .. . ... : ... .. . ... : ... .. . ... : ... .. . ... : ... .. . ... : ... .. . ... : ... .. . ... : ... .. . ...
ROW 48 : F-3 06 . ... : C-3 06 . ... : C-2 0E . ... : 4-# 03 . ... : ... .. . ... : G#3 0F . ... : ... .. . ... : ... .. . ...
ROW 49 : ... .. . ... : ... .. . ... : ... .. . ... : ... .. . ... : ... .. . ... : ... .. . ... : ... .. . ... : ... .. . ...
ROW 4A : ... .. . ... : D-3 06 . ... : ... .. . ... : ... .. . ... : ... .. . ... : ... .. . ... : ... .. . ... : ... .. . ...
ROW 4B : ... .. . ... : ... .. . ... : ... .. . ... : ... .. . ... : ... .. . ... : ... .. . ... : ... .. . ... : ... .. . ...
ROW 4C : D-3 0C . ... : ... .. . ... : ... .. . ... : ... .. . ... : ... .. . ... : G-3 0F . ... : ... .. . ... : ... .. . ...
ROW 4D : ... .. . ... : ... .. . ... : ... .. . ... : ... .. . ... : ... .. . ... : ... .. . ... : ... .. . ... : ... .. . ...
ROW 4E : D#3 06 . ... : D#3 0C . ... : ... .. . ... : ... .. . ... : ... .. . ... : ... .. . ... : ... .. . ... : ... .. . ...
ROW 4F : ... .. . ... : ... .. . ... : ... .. . ... : ... .. . ... : ... .. . ... : ... .. . ... : ... .. . ... : ... .. . ...
ROW 50 : F-3 06 . ... : F-3 06 . ... : ... .. . ... : ... .. . ... : ... .. . ... : F-3 0F . ... : ... .. . ... : ... .. . ...
ROW 51 : ... .. . ... : ... .. . ... : ... .. . ... : ... .. . ... : ... .. . ... : ... .. . ... : ... .. . ... : ... .. . ...
ROW 52 : ... .. . ... : ... .. . ... : ... .. . ... : ... .. . ... : ... .. . ... : ... .. . ... : ... .. . ... : ... .. . ...
ROW 53 : D#3 0C . ... : ... .. . ... : ... .. . ... : ... .. . ... : ... .. . ... : ... .. . ... : ... .. . ... : ... .. . ...
ROW 54 : ... .. . ... : D-3 0C . ... : G-2 0E . ... : ... .. . ... : ... .. . ... : ... .. . ... : ... .. . ... : ... .. . ...
ROW 55 : D-3 06 . ... : ... .. . ... : ... .. . ... : ... .. . ... : ... .. . ... : ... .. . ... : ... .. . ... : ... .. . ...
ROW 56 : ... .. . ... : D#3 06 . ... : ... .. . ... : ... .. . ... : ... .. . ... : ... .. . ... : ... .. . ... : ... .. . ...
ROW 57 : ... .. . ... : ... .. . ... : ... .. . ... : ... .. . ... : ... .. . ... : ... .. . ... : ... .. . ... : ... .. . ...
ROW 58 : C-3 0C . ... : F-3 06 . ... : C-2 0E . ... : 4-# 03 . ... : ... .. . ... : D-3 0F . ... : ... .. . ... : ... .. . ...
ROW 59 : ... .. . ... : ... .. . ... : ... .. . ... : ... .. . ... : ... .. . ... : ... .. . ... : ... .. . ... : ... .. . ...
ROW 5A : ... .. . ... : ... .. . ... : ... .. . ... : ... .. . ... : ... .. . ... : ... .. . ... : ... .. . ... : ... .. . ...
ROW 5B : D-3 0C . ... : D#3 0C . ... : ... .. . ... : ... .. . ... : ... .. . ... : ... .. . ... : ... .. . ... : ... .. . ...
ROW 5C : ... .. . ... : ... .. . ... : ... .. . ... : ... .. . ... : ... .. . ... : ... .. . ... : ... .. . ... : ... .. . ...
ROW 5D : ... .. . ... : D-3 06 . ... : ... .. . ... : ... .. . ... : ... .. . ... : ... .. . ... : ... .. . ... : ... .. . ...
ROW 5E : C-3 0C . ... : ... .. . ... : ... .. . ... : 3-# 02 . ... : ... .. . ... : ... .. . ... : ... .. . ... : ... .. . ...
ROW 5F : ... .. . ... : ... .. . ... : ... .. . ... : ... .. . ... : ... .. . ... : ... .. . ... : ... .. . ... : ... .. . ...
ROW 60 : C-3 06 . ... : C-3 0C . ... : ... .. . ... : 3-# 02 . ... : ... .. . ... : G-3 0F . ... : ... .. . ... : ... .. . ...
ROW 61 : ... .. . ... : ... .. . ... : ... .. . ... : ... .. . ... : ... .. . ... : ... .. . ... : ... .. . ... : ... .. . ...
ROW 62 : D-3 06 . ... : ... .. . ... : ... .. . ... : ... .. . ... : ... .. . ... : ... .. . ... : ... .. . ... : ... .. . ...
ROW 63 : ... .. . ... : D-3 0C . ... : ... .. . ... : ... .. . ... : ... .. . ... : ... .. . ... : ... .. . ... : ... .. . ...
ROW 64 : ... .. . ... : ... .. . ... : G-2 0E . ... : ... .. . ... : ... .. . ... : ... .. . ... : ... .. . ... : ... .. . ...
ROW 65 : ... .. . ... : ... .. . ... : ... .. . ... : ... .. . ... : ... .. . ... : ... .. . ... : ... .. . ... : ... .. . ...
ROW 66 : F-3 0C . ... : C-3 0C . ... : ... .. . ... : ... .. . ... : ... .. . ... : ... .. . ... : ... .. . ... : ... .. . ...
ROW 67 : ... .. . ... : ... .. . ... : ... .. . ... : ... .. . ... : ... .. . ... : ... .. . ... : ... .. . ... : ... .. . ...
ROW 68 : F-3 06 . ... : C-3 06 . ... : C-2 0E . ... : 4-# 03 . ... : ... .. . ... : D#3 0F . ... : ... .. . ... : ... .. . ...
ROW 69 : ... .. . ... : ... .. . ... : ... .. . ... : ... .. . ... : ... .. . ... : ... .. . ... : ... .. . ... : ... .. . ...
ROW 6A : ... .. . ... : D-3 06 . ... : ... .. . ... : ... .. . ... : ... .. . ... : ... .. . ... : ... .. . ... : ... .. . ...
ROW 6B : ... .. . ... : ... .. . ... : ... .. . ... : ... .. . ... : ... .. . ... : ... .. . ... : ... .. . ... : ... .. . ...
ROW 6C : D-3 0C . ... : ... .. . ... : ... .. . ... : ... .. . ... : ... .. . ... : ... .. . ... : ... .. . ... : ... .. . ...
ROW 6D : ... .. . ... : ... .. . ... : ... .. . ... : ... .. . ... : ... .. . ... : ... .. . ... : ... .. . ... : ... .. . ...
ROW 6E : F-3 06 . ... : F-3 0C . ... : ... .. . ... : ... .. . ... : ... .. . ... : ... .. . ... : ... .. . ... : ... .. . ...
ROW 6F : ... .. . ... : ... .. . ... : ... .. . ... : ... .. . ... : ... .. . ... : ... .. . ... : ... .. . ... : ... .. . ...
ROW 70 : F-3 06 . ... : F-3 06 . ... : ... .. . ... : ... .. . ... : ... .. . ... : G#3 0F . ... : ... .. . ... : ... .. . ...
ROW 71 : ... .. . ... : ... .. . ... : ... .. . ... : ... .. . ... : ... .. . ... : ... .. . ... : ... .. . ... : ... .. . ...
ROW 72 : ... .. . ... : ... .. . ... : ... .. . ... : ... .. . ... : ... .. . ... : ... .. . ... : ... .. . ... : ... .. . ...
ROW 73 : D-3 0C . ... : ... .. . ... : ... .. . ... : ... .. . ... : ... .. . ... : D-4 0F . ... : ... .. . ... : ... .. . ...
ROW 74 : ... .. . ... : D-3 0C . ... : G-2 0E . ... : ... .. . ... : ... .. . ... : ... .. . ... : ... .. . ... : ... .. . ...
ROW 75 : D-3 06 . ... : ... .. . ... : ... .. . ... : ... .. . ... : ... .. . ... : ... .. . ... : ... .. . ... : ... .. . ...
ROW 76 : ... .. . ... : F-3 06 . ... : ... .. . ... : ... .. . ... : ... .. . ... : F-4 0F . ... : ... .. . ... : ... .. . ...
ROW 77 : ... .. . ... : ... .. . ... : ... .. . ... : ... .. . ... : ... .. . ... : ... .. . ... : ... .. . ... : ... .. . ...
ROW 78 : C-3 0C . ... : F-3 06 . ... : C-2 0E . ... : 4-# 03 . ... : ... .. . ... : G#4 0F . ... : ... .. . ... : ... .. . ...
ROW 79 : ... .. . ... : ... .. . ... : ... .. . ... : ... .. . ... : ... .. . ... : ... .. . ... : ... .. . ... : ... .. . ...
ROW 7A : ... .. . ... : ... .. . ... : ... .. . ... : ... .. . ... : ... .. . ... : G-4 0F . ... : ... .. . ... : ... .. . ...
ROW 7B : D-3 0C . ... : E-3 0C . ... : ... .. . ... : 2-# 03 . ... : ... .. . ... : ... .. . ... : ... .. . ... : ... .. . ...
ROW 7C : ... .. . ... : ... .. . ... : ... .. . ... : ... .. . ... : ... .. . ... : F-4 0F . ... : ... .. . ... : ... .. . ...
ROW 7D : ... .. . ... : D-3 06 . ... : ... .. . ... : ... .. . ... : ... .. . ... : ... .. . ... : ... .. . ... : ... .. . ...
ROW 7E : C-3 0C . ... : ... .. . ... : ... .. . ... : 5-# 03 . ... : ... .. . ... : D-4 0F . ... : ... .. . ... : ... .. . ...
ROW 7F : ... .. . ... : ... .. . ... : ... .. . ... : ... .. . ... : ... .. . ... : ... .. . ... : ... .. . ... : ... .. . ...

PATTERN 04
ROW 00 : C-3 0C 7 ... : C-3 0C 4 ... : ... .. . ... : 4-# 02 8 ... : ... .. . ... : F-4 0F . ... : F-2 01 C ... : C-1 01 8 ...
ROW 01 : ... .. . ... : ... .. . ... : ... .. . ... : ... .. . ... : ... .. . ... : ... .. . ... : --- .. . ... : ... .. . ...
ROW 02 : D-3 06 . ... : ... .. . ... : ... .. . ... : ... .. . ... : ... .. . ... : ... .. . ... : F-2 01 . ... : ... .. . ...
ROW 03 : ... .. . ... : D-3 0C . ... : ... .. . ... : ... .. . ... : ... .. . ... : ... .. . ... : --- .. . ... : ... .. . ...
ROW 04 : ... .. . ... : ... .. . ... : G-2 0E . ... : 4-# 02 . ... : ... .. . ... : ... .. . ... : F-2 01 . ... : ... .. . ...
ROW 05 : ... .. . ... : ... .. . ... : ... .. . ... : ... .. . ... : ... .. . ... : ... .. . ... : --- .. . ... : ... .. . ...
ROW 06 : D#3 0C . ... : C-3 0C . ... : ... .. . ... : ... .. . ... : ... .. . ... : ... .. . ... : F-2 01 . ... : ... .. . ...
ROW 07 : ... .. . ... : ... .. . ... : ... .. . ... : ... .. . ... : ... .. . ... : ... .. . ... : --- .. . ... : ... .. . ...
ROW 08 : F-3 06 . ... : C-3 06 . ... : C-2 0E . ... : 4-# 03 . ... : ... .. . ... : D-4 0F . ... : F-2 01 . ... : ... .. . ...
ROW 09 : ... .. . ... : ... .. . ... : ... .. . ... : ... .. . ... : ... .. . ... : ... .. . ... : --- .. . ... : ... .. . ...
ROW 0A : ... .. . ... : D-3 06 . ... : ... .. . ... : ... .. . ... : ... .. . ... : ... .. . ... : F-2 01 . ... : ... .. . ...
ROW 0B : ... .. . ... : ... .. . ... : ... .. . ... : ... .. . ... : ... .. . ... : ... .. . ... : --- .. . ... : ... .. . ...
ROW 0C : D-3 0C . ... : ... .. . ... : ... .. . ... : ... .. . ... : ... .. . ... : ... .. . ... : F-2 01 . ... : ... .. . ...
ROW 0D : ... .. . ... : ... .. . ... : ... .. . ... : ... .. . ... : ... .. . ... : ... .. . ... : --- .. . ... : ... .. . ...
ROW 0E : D#3 06 . ... : D#3 0C . ... : ... .. . ... : ... .. . ... : ... .. . ... : ... .. . ... : F-2 01 . ... : ... .. . ...
ROW 0F : ... .. . ... : ... .. . ... : ... .. . ... : ... .. . ... : ... .. . ... : ... .. . ... : --- .. . ... : ... .. . ...
ROW 10 : F-3 06 . ... : F-3 06 . ... : ... .. . ... : ... .. . ... : ... .. . ... : D-4 0F . ... : F-2 01 . ... : ... .. . ...
ROW 11 : ... .. . ... : ... .. . ... : ... .. . ... : ... .. . ... : ... .. . ... : ... .. . ... : --- .. . ... : ... .. . ...
ROW 12 : ... .. . ... : ... .. . ... : ... .. . ... : ... .. . ... : ... .. . ... : ... .. . ... : F-2 01 . ... : ... .. . ...
ROW 13 : D#3 0C . ... : ... .. . ... : ... .. . ... : ... .. . ... : ... .. . ... : ... .. . ... : --- .. . ... : ... .. . ...
ROW 14 : ... .. . ... : D-3 0C . ... : G-2 0E . ... : ... .. . ... : ... .. . ... : ... .. . ... : F-2 01 . ... : ... .. . ...
ROW 15 : D-3 06 . ... : ... .. . ... : ... .. . ... : ... .. . ... : ... .. . ... : ... .. . ... : --- .. . ... : ... .. . ...
ROW 16 : ... .. . ... : D#3 06 . ... : ... .. . ... : ... .. . ... : ... .. . ... : D#4 0F . ... : F-2 01 . ... : ... .. . ...
ROW 17 : ... .. . ... : ... .. . ... : ... .. . ... : ... .. . ... : ... .. . ... : ... .. . ... : --- .. . ... : ... .. . ...
ROW 18 : C-3 0C . ... : F-3 06 . ... : C-2 0E . ... : 4-# 03 . ... : ... .. . ... : ... .. . ... : F-2 01 . ... : ... .. . ...
ROW 19 : ... .. . ... : ... .. . ... : ... .. . ... : ... .. . ... : ... .. . ... : ... .. . ... : --- .. . ... : ... .. . ...
ROW 1A : ... .. . ... : ... .. . ... : ... .. . ... : ... .. . ... : ... .. . ... : ... .. . ... : F-2 01 . ... : ... .. . ...
ROW 1B : D-3 0C . ... : D#3 0C . ... : ... .. . ... : ... .. . ... : ... .. . ... : ... .. . ... : --- .. . ... : ... .. . ...
ROW 1C : ... .. . ... : ... .. . ... : ... .. . ... : ... .. . ... : ... .. . ... : F-4 0F . ... : F-2 01 . ... : ... .. . ...
ROW 1D : ... .. . ... : D-3 06 . ... : ... .. . ... : ... .. . ... : ... .. . ... : ... .. . ... : --- .. . ... : ... .. . ...
ROW 1E : C-3 0C . ... : ... .. . ... : ... .. . ... : 3-# 02 . ... : ... .. . ... : ... .. . ... : F-2 01 . ... : ... .. . ...
ROW 1F : ... .. . ... : ... .. . ... : ... .. . ... : ... .. . ... : ... .. . ... : ... .. . ... : --- .. . ... : ... .. . ...
ROW 20 : C-3 06 . ... : C-3 0C . ... : ... .. . ... : 3-# 02 . ... : ... .. . ... : G-4 0F . ... : G-2 01 . ... : ... .. . ...
ROW 21 : ... .. . ... : ... .. . ... : ... .. . ... : ... .. . ... : ... .. . ... : ... .. . ... : --- .. . ... : ... .. . ...
ROW 22 : D-3 06 . ... : ... .. . ... : ... .. . ... : ... .. . ... : ... .. . ... : ... .. . ... : G-2 01 . ... : ... .. . ...
ROW 23 : ... .. . ... : D-3 0C . ... : ... .. . ... : ... .. . ... : ... .. . ... : ... .. . ... : --- .. . ... : ... .. . ...
ROW 24 : ... .. . ... : ... .. . ... : G-2 0E . ... : ... .. . ... : ... .. . ... : ... .. . ... : G-2 01 . ... : ... .. . ...
ROW 25 : ... .. . ... : ... .. . ... : ... .. . ... : ... .. . ... : ... .. . ... : ... .. . ... : --- .. . ... : ... .. . ...
ROW 26 : D#3 0C . ... : C-3 0C . ... : ... .. . ... : ... .. . ... : ... .. . ... : ... .. . ... : G-2 01 . ... : ... .. . ...
ROW 27 : ... .. . ... : ... .. . ... : ... .. . ... : ... .. . ... : ... .. . ... : ... .. . ... : --- .. . ... : ... .. . ...
ROW 28 : F-3 06 . ... : C-3 06 . ... : C-2 0E . ... : 4-# 03 . ... : ... .. . ... : C-4 0F . ... : G-2 01 . ... : ... .. . ...
ROW 29 : ... .. . ... : ... .. . ... : ... .. . ... : ... .. . ... : ... .. . ... : ... .. . ... : --- .. . ... : ... .. . ...
ROW 2A : ... .. . ... : D-3 06 . ... : ... .. . ... : ... .. . ... : ... .. . ... : ... .. . ... : G-2 01 . ... : ... .. . ...
ROW 2B : ... .. . ... : ... .. . ... : ... .. . ... : ... .. . ... : ... .. . ... : ... .. . ... : --- .. . ... : ... .. . ...
ROW 2C : D-3 0C . ... : ... .. . ... : ... .. . ... : ... .. . ... : ... .. . ... : ... .. . ... : G-2 01 . ... : ... .. . ...
ROW 2D : ... .. . ... : ... .. . ... : ... .. . ... : ... .. . ... : ... .. . ... : ... .. . ... : --- .. . ... : ... .. . ...
ROW 2E : D#3 06 . ... : D#3 0C . ... : ... .. . ... : ... .. . ... : ... .. . ... : D#4 0F . ... : G-2 01 . ... : ... .. . ...
ROW 2F : ... .. . ... : ... .. . ... : ... .. . ... : ... .. . ... : ... .. . ... : ... .. . ... : --- .. . ... : ... .. . ...
ROW 30 : F-3 06 . ... : F-3 06 . ... : ... .. . ... : ... .. . ... : ... .. . ... : ... .. . ... : G-2 01 . ... : ... .. . ...
ROW 31 : ... .. . ... : ... .. . ... : ... .. . ... : ... .. . ... : ... .. . ... : ... .. . ... : --- .. . ... : ... .. . ...
ROW 32 : ... .. . ... : ... .. . ... : ... .. . ... : ... .. . ... : ... .. . ... : ... .. . ... : G-2 01 . ... : ... .. . ...
ROW 33 : D#3 0C . ... : ... .. . ... : ... .. . ... : ... .. . ... : ... .. . ... : ... .. . ... : --- .. . ... : ... .. . ...
ROW 34 : ... .. . ... : D-3 0C . ... : G-2 0E . ... : ... .. . ... : ... .. . ... : F-4 0F . ... : G-2 01 . ... : ... .. . ...
ROW 35 : D-3 06 . ... : ... .. . ... : ... .. . ... : ... .. . ... : ... .. . ... : ... .. . ... : --- .. . ... : ... .. . ...
ROW 36 : ... .. . ... : D#3 06 . ... : ... .. . ... : ... .. . ... : ... .. . ... : ... .. . ... : G-2 01 . ... : ... .. . ...
ROW 37 : ... .. . ... : ... .. . ... : ... .. . ... : ... .. . ... : ... .. . ... : ... .. . ... : --- .. . ... : ... .. . ...
ROW 38 : C-3 0C . ... : F-3 06 . ... : C-2 0E . ... : 4-# 03 . ... : ... .. . ... : D#4 0F . ... : G-2 01 . ... : ... .. . ...
ROW 39 : ... .. . ... : ... .. . ... : ... .. . ... : ... .. . ... : ... .. . ... : ... .. . ... : --- .. . ... : ... .. . ...
ROW 3A : ... .. . ... : ... .. . ... : ... .. . ... : ... .. . ... : ... .. . ... : ... .. . ... : G-2 01 . ... : ... .. . ...
ROW 3B : D-3 0C . ... : D#3 0C . ... : ... .. . ... : 2-# 03 . ... : ... .. . ... : ... .. . ... : --- .. . ... : ... .. . ...
ROW 3C : ... .. . ... : ... .. . ... : ... .. . ... : ... .. . ... : ... .. . ... : D-4 0F . ... : G-2 01 . ... : ... .. . ...
ROW 3D : ... .. . ... : D-3 06 . ... : ... .. . ... : ... .. . ... : ... .. . ... : ... .. . ... : --- .. . ... : ... .. . ...
ROW 3E : C-3 0C . ... : ... .. . ... : ... .. . ... : 5-# 03 . ... : ... .. . ... : ... .. . ... : G-2 01 . ... : ... .. . ...
ROW 3F : ... .. . ... : ... .. . ... : ... .. . ... : ... .. . ... : ... .. . ... : ... .. . ... : --- .. . ... : ... .. . ...
ROW 40 : C-3 06 . ... : C-3 0C . ... : ... .. . ... : 4-# 02 . ... : ... .. . ... : G#4 0F . ... : G#2 01 . ... : ... .. . ...
ROW 41 : ... .. . ... : ... .. . ... : ... .. . ... : ... .. . ... : ... .. . ... : ... .. . ... : --- 01 . ... : ... .. . ...
ROW 42 : D-3 06 . ... : ... .. . ... : ... .. . ... : ... .. . ... : ... .. . ... : ... .. . ... : G#2 01 . ... : ... .. . ...
ROW 43 : ... .. . ... : D-3 0C . ... : ... .. . ... : ... .. . ... : ... .. . ... : ... .. . ... : --- .. . ... : ... .. . ...
ROW 44 : ... .. . ... : ... .. . ... : G-2 0E . ... : 4-# 02 . ... : ... .. . ... : ... .. . ... : G#2 01 . ... : ... .. . ...
ROW 45 : ... .. . ... : ... .. . ... : ... .. . ... : ... .. . ... : ... .. . ... : ... .. . ... : --- .. . ... : ... .. . ...
ROW 46 : D#3 0C . ... : C-3 0C . ... : ... .. . ... : ... .. . ... : ... .. . ... : ... .. . ... : G#2 01 . ... : ... .. . ...
ROW 47 : ... .. . ... : ... .. . ... : ... .. . ... : ... .. . ... : ... .. . ... : ... .. . ... : --- .. . ... : ... .. . ...
ROW 48 : F-3 06 . ... : C-3 06 . ... : C-2 0E . ... : 4-# 03 . ... : ... .. . ... : G#4 0F . ... : G#2 01 . ... : ... .. . ...
ROW 49 : ... .. . ... : ... .. . ... : ... .. . ... : ... .. . ... : ... .. . ... : ... .. . ... : --- .. . ... : ... .. . ...
ROW 4A : ... .. . ... : D-3 06 . ... : ... .. . ... : ... .. . ... : ... .. . ... : ... .. . ... : G#2 01 . ... : ... .. . ...
ROW 4B : ... .. . ... : ... .. . ... : ... .. . ... : ... .. . ... : ... .. . ... : ... .. . ... : --- .. . ... : ... .. . ...
ROW 4C : D-3 0C . ... : ... .. . ... : ... .. . ... : ... .. . ... : ... .. . ... : G-4 0F . ... : G#2 01 . ... : ... .. . ...
ROW 4D : ... .. . ... : ... .. . ... : ... .. . ... : ... .. . ... : ... .. . ... : ... .. . ... : --- .. . ... : ... .. . ...
ROW 4E : D#3 06 . ... : D#3 0C . ... : ... .. . ... : ... .. . ... : ... .. . ... : ... .. . ... : G#2 01 . ... : ... .. . ...
ROW 4F : ... .. . ... : ... .. . ... : ... .. . ... : ... .. . ... : ... .. . ... : ... .. . ... : --- .. . ... : ... .. . ...
ROW 50 : F-3 06 . ... : F-3 06 . ... : ... .. . ... : ... .. . ... : ... .. . ... : F-4 0F . ... : G#2 01 . ... : ... .. . ...
ROW 51 : ... .. . ... : ... .. . ... : ... .. . ... : ... .. . ... : ... .. . ... : ... .. . ... : --- .. . ... : ... .. . ...
ROW 52 : ... .. . ... : ... .. . ... : ... .. . ... : ... .. . ... : ... .. . ... : ... .. . ... : G#2 01 . ... : ... .. . ...
ROW 53 : D#3 0C . ... : ... .. . ... : ... .. . ... : ... .. . ... : ... .. . ... : ... .. . ... : --- .. . ... : ... .. . ...
ROW 54 : ... .. . ... : D-3 0C . ... : G-2 0E . ... : ... .. . ... : ... .. . ... : ... .. . ... : G#2 01 . ... : ... .. . ...
ROW 55 : D-3 06 . ... : ... .. . ... : ... .. . ... : ... .. . ... : ... .. . ... : ... .. . ... : --- .. . ... : ... .. . ...
ROW 56 : ... .. . ... : D#3 06 . ... : ... .. . ... : ... .. . ... : ... .. . ... : ... .. . ... : G#2 01 . ... : ... .. . ...
ROW 57 : ... .. . ... : ... .. . ... : ... .. . ... : ... .. . ... : ... .. . ... : ... .. . ... : --- .. . ... : ... .. . ...
ROW 58 : C-3 0C . ... : F-3 06 . ... : C-2 0E . ... : 4-# 03 . ... : ... .. . ... : D-4 0F . ... : G#2 01 . ... : ... .. . ...
ROW 59 : ... .. . ... : ... .. . ... : ... .. . ... : ... .. . ... : ... .. . ... : ... .. . ... : --- .. . ... : ... .. . ...
ROW 5A : ... .. . ... : ... .. . ... : ... .. . ... : ... .. . ... : ... .. . ... : ... .. . ... : G#2 01 . ... : ... .. . ...
ROW 5B : D-3 0C . ... : D#3 0C . ... : ... .. . ... : ... .. . ... : ... .. . ... : ... .. . ... : --- .. . ... : ... .. . ...
ROW 5C : ... .. . ... : ... .. . ... : ... .. . ... : ... .. . ... : ... .. . ... : ... .. . ... : G#2 01 . ... : ... .. . ...
ROW 5D : ... .. . ... : D-3 06 . ... : ... .. . ... : ... .. . ... : ... .. . ... : ... .. . ... : --- .. . ... : ... .. . ...
ROW 5E : C-3 0C . ... : ... .. . ... : ... .. . ... : 3-# 02 . ... : ... .. . ... : ... .. . ... : G#2 01 . ... : ... .. . ...
ROW 5F : ... .. . ... : ... .. . ... : ... .. . ... : ... .. . ... : ... .. . ... : ... .. . ... : --- .. . ... : ... .. . ...
ROW 60 : C-3 06 . ... : C-3 0C . ... : ... .. . ... : 3-# 02 . ... : ... .. . ... : G-4 0F . ... : G-2 01 . ... : ... .. . ...
ROW 61 : ... .. . ... : ... .. . ... : ... .. . ... : ... .. . ... : ... .. . ... : ... .. . ... : --- .. . ... : ... .. . ...
ROW 62 : D-3 06 . ... : ... .. . ... : ... .. . ... : ... .. . ... : ... .. . ... : ... .. . ... : G-2 01 . ... : ... .. . ...
ROW 63 : ... .. . ... : D-3 0C . ... : ... .. . ... : ... .. . ... : ... .. . ... : ... .. . ... : --- .. . ... : ... .. . ...
ROW 64 : ... .. . ... : ... .. . ... : G-2 0E . ... : ... .. . ... : ... .. . ... : ... .. . ... : G-2 01 . ... : ... .. . ...
ROW 65 : ... .. . ... : ... .. . ... : ... .. . ... : ... .. . ... : ... .. . ... : ... .. . ... : --- .. . ... : ... .. . ...
ROW 66 : F-3 0C . ... : C-3 0C . ... : ... .. . ... : ... .. . ... : ... .. . ... : ... .. . ... : G-2 01 . ... : ... .. . ...
ROW 67 : ... .. . ... : ... .. . ... : ... .. . ... : ... .. . ... : ... .. . ... : ... .. . ... : --- .. . ... : ... .. . ...
ROW 68 : F-3 06 . ... : C-3 06 . ... : C-2 0E . ... : 4-# 03 . ... : ... .. . ... : D#4 0F . ... : G-2 01 . ... : ... .. . ...
ROW 69 : ... .. . ... : ... .. . ... : ... .. . ... : ... .. . ... : ... .. . ... : ... .. . ... : --- .. . ... : ... .. . ...
ROW 6A : ... .. . ... : D-3 06 . ... : ... .. . ... : ... .. . ... : ... .. . ... : ... .. . ... : G-2 01 . ... : ... .. . ...
ROW 6B : ... .. . ... : ... .. . ... : ... .. . ... : ... .. . ... : ... .. . ... : ... .. . ... : --- .. . ... : ... .. . ...
ROW 6C : D-3 0C . ... : ... .. . ... : ... .. . ... : ... .. . ... : ... .. . ... : ... .. . ... : G-2 01 . ... : ... .. . ...
ROW 6D : ... .. . ... : ... .. . ... : ... .. . ... : ... .. . ... : ... .. . ... : ... .. . ... : --- .. . ... : ... .. . ...
ROW 6E : F-3 06 . ... : F-3 0C . ... : ... .. . ... : ... .. . ... : ... .. . ... : ... .. . ... : G-2 01 . ... : ... .. . ...
ROW 6F : ... .. . ... : ... .. . ... : ... .. . ... : ... .. . ... : ... .. . ... : ... .. . ... : --- .. . ... : ... .. . ...
ROW 70 : F-3 06 . ... : F-3 06 . ... : ... .. . ... : ... .. . ... : ... .. . ... : G#4 0F . ... : G#2 01 . ... : ... .. . ...
ROW 71 : ... .. . ... : ... .. . ... : ... .. . ... : ... .. . ... : ... .. . ... : ... .. . ... : --- .. . ... : ... .. . ...
ROW 72 : ... .. . ... : ... .. . ... : ... .. . ... : ... .. . ... : ... .. . ... : ... .. . ... : G#2 01 . ... : ... .. . ...
ROW 73 : D-3 0C . ... : ... .. . ... : ... .. . ... : ... .. . ... : ... .. . ... : D-5 0F . ... : --- .. . ... : ... .. . ...
ROW 74 : ... .. . ... : D-3 0C . ... : G-2 0E . ... : ... .. . ... : ... .. . ... : ... .. . ... : G#2 01 . ... : ... .. . ...
ROW 75 : D-3 06 . ... : ... .. . ... : ... .. . ... : ... .. . ... : ... .. . ... : ... .. . ... : --- .. . ... : ... .. . ...
ROW 76 : ... .. . ... : F-3 06 . ... : ... .. . ... : ... .. . ... : ... .. . ... : F-5 0F . ... : G#2 01 . ... : ... .. . ...
ROW 77 : ... .. . ... : ... .. . ... : ... .. . ... : ... .. . ... : ... .. . ... : ... .. . ... : --- .. . ... : ... .. . ...
ROW 78 : C-3 0C . ... : F-3 06 . ... : C-2 0E . ... : 4-# 03 . ... : ... .. . ... : G#5 0F . ... : G#2 01 . ... : ... .. . ...
ROW 79 : ... .. . ... : ... .. . ... : ... .. . ... : ... .. . ... : ... .. . ... : ... .. . ... : --- .. . ... : ... .. . ...
ROW 7A : ... .. . ... : ... .. . ... : ... .. . ... : ... .. . ... : ... .. . ... : G-5 0F . ... : G#2 01 . ... : ... .. . ...
ROW 7B : D-3 0C . ... : E-3 0C . ... : ... .. . ... : 2-# 03 . ... : ... .. . ... : ... .. . ... : --- .. . ... : ... .. . ...
ROW 7C : ... .. . ... : ... .. . ... : ... .. . ... : ... .. . ... : ... .. . ... : F-5 0F . ... : G#2 01 . ... : ... .. . ...
ROW 7D : ... .. . ... : D-3 06 . ... : ... .. . ... : ... .. . ... : ... .. . ... : ... .. . ... : --- .. . ... : ... .. . ...
ROW 7E : C-3 0C . ... : ... .. . ... : ... .. . ... : 5-# 03 . ... : ... .. . ... : D-5 0F . ... : G#2 01 . ... : ... .. . ...
ROW 7F : ... .. . ... : ... .. . ... : ... .. . ... : ... .. . ... : ... .. . ... : ... .. . ... : --- .. . ... : ... .. . ...

PATTERN 05
ROW 00 : C-3 0C 7 ... : C-2 00 C ... : ... .. . ... : 4-# 02 8 ... : ... .. . ... : D#5 0F F ... : C-5 0F C ... : C-1 01 8 ...
ROW 01 : ... .. . ... : --- .. . ... : ... .. . ... : ... .. . ... : ... .. . ... : ... .. . ... : ... .. . ... : ... .. . ...
ROW 02 : D-3 06 . ... : C-2 00 . ... : ... .. . ... : ... .. . ... : ... .. . ... : ... .. . ... : ... .. . ... : ... .. . ...
ROW 03 : ... .. . ... : --- .. . ... : ... .. . ... : ... .. . ... : ... .. . ... : ... .. . ... : ... .. . ... : ... .. . ...
ROW 04 : ... .. . ... : C-2 00 . ... : G-2 0E . ... : 4-# 02 . ... : ... .. . ... : D-5 0F . ... : C-5 0F . ... : ... .. . ...
ROW 05 : ... .. . ... : --- .. . ... : ... .. . ... : ... .. . ... : ... .. . ... : ... .. . ... : ... .. . ... : ... .. . ...
ROW 06 : D#3 0C . ... : C-2 00 . ... : ... .. . ... : ... .. . ... : ... .. . ... : ... .. . ... : ... .. . ... : ... .. . ...
ROW 07 : ... .. . ... : --- .. . ... : ... .. . ... : ... .. . ... : ... .. . ... : ... .. . ... : ... .. . ... : ... .. . ...
ROW 08 : F-3 06 . ... : C-2 00 . ... : C-2 0E . ... : 4-# 03 . ... : ... .. . ... : C-5 0F . ... : G#4 0F . ... : ... .. . ...
ROW 09 : ... .. . ... : --- .. . ... : ... .. . ... : ... .. . ... : ... .. . ... : ... .. . ... : ... .. . ... : ... .. . ...
ROW 0A : ... .. . ... : C-2 00 . ... : ... .. . ... : ... .. . ... : ... .. . ... : ... .. . ... : ... .. . ... : ... .. . ...
ROW 0B : ... .. . ... : --- .. . ... : ... .. . ... : ... .. . ... : ... .. . ... : ... .. . ... : ... .. . ... : ... .. . ...
ROW 0C : D-3 0C . ... : C-2 00 . ... : ... .. . ... : ... .. . ... : ... .. . ... : ... .. . ... : ... .. . ... : ... .. . ...
ROW 0D : ... .. . ... : --- .. . ... : ... .. . ... : ... .. . ... : ... .. . ... : ... .. . ... : ... .. . ... : ... .. . ...
ROW 0E : D#3 06 . ... : C-2 00 . ... : ... .. . ... : ... .. . ... : ... .. . ... : ... .. . ... : ... .. . ... : ... .. . ...
ROW 0F : ... .. . ... : --- .. . ... : ... .. . ... : ... .. . ... : ... .. . ... : ... .. . ... : ... .. . ... : ... .. . ...
ROW 10 : F-3 06 . ... : C-2 00 . ... : ... .. . ... : ... .. . ... : ... .. . ... : G-4 0F . ... : D#4 0F . ... : ... .. . ...
ROW 11 : ... .. . ... : --- .. . ... : ... .. . ... : ... .. . ... : ... .. . ... : ... .. . ... : ... .. . ... : ... .. . ...
ROW 12 : ... .. . ... : C-2 00 . ... : ... .. . ... : ... .. . ... : ... .. . ... : ... .. . ... : ... .. . ... : ... .. . ...
ROW 13 : D#3 0C . ... : --- .. . ... : ... .. . ... : ... .. . ... : ... .. . ... : ... .. . ... : ... .. . ... : ... .. . ...
ROW 14 : ... .. . ... : C-2 00 . ... : G-2 0E . ... : ... .. . ... : ... .. . ... : G#4 0F . ... : ... .. . ... : ... .. . ...
ROW 15 : D-3 06 . ... : --- .. . ... : ... .. . ... : ... .. . ... : ... .. . ... : ... .. . ... : ... .. . ... : ... .. . ...
ROW 16 : ... .. . ... : C-2 00 . ... : ... .. . ... : ... .. . ... : ... .. . ... : ... .. . ... : ... .. . ... : ... .. . ...
ROW 17 : ... .. . ... : --- .. . ... : ... .. . ... : ... .. . ... : ... .. . ... : ... .. . ... : ... .. . ... : ... .. . ...
ROW 18 : C-3 0C . ... : C-2 00 . ... : C-2 0E . ... : 4-# 03 . ... : ... .. . ... : A#4 0F . ... : G-4 0F . ... : ... .. . ...
ROW 19 : ... .. . ... : --- .. . ... : ... .. . ... : ... .. . ... : ... .. . ... : ... .. . ... : ... .. . ... : ... .. . ...
ROW 1A : ... .. . ... : C-2 00 . ... : ... .. . ... : ... .. . ... : ... .. . ... : ... .. . ... : ... .. . ... : ... .. . ...
ROW 1B : D-3 0C . ... : --- .. . ... : ... .. . ... : ... .. . ... : ... .. . ... : ... .. . ... : ... .. . ... : ... .. . ...
ROW 1C : ... .. . ... : C-2 00 . ... : ... .. . ... : ... .. . ... : ... .. . ... : D#4 0F . ... : ... .. . ... : ... .. . ...
ROW 1D : ... .. . ... : --- .. . ... : ... .. . ... : ... .. . ... : ... .. . ... : ... .. . ... : ... .. . ... : ... .. . ...
ROW 1E : C-3 0C . ... : C-2 00 . ... : ... .. . ... : 3-# 02 . ... : ... .. . ... : ... .. . ... : ... .. . ... : ... .. . ...
ROW 1F : ... .. . ... : --- .. . ... : ... .. . ... : ... .. . ... : ... .. . ... : ... .. . ... : ... .. . ... : ... .. . ...
ROW 20 : C-3 06 . ... : D#2 00 . ... : ... .. . ... : 3-# 02 . ... : ... .. . ... : C-5 0F . ... : G-4 0F . ... : ... .. . ...
ROW 21 : ... .. . ... : --- .. . ... : ... .. . ... : ... .. . ... : ... .. . ... : ... .. . ... : ... .. . ... : ... .. . ...
ROW 22 : D-3 06 . ... : D#2 00 . ... : ... .. . ... : ... .. . ... : ... .. . ... : ... .. . ... : ... .. . ... : ... .. . ...
ROW 23 : ... .. . ... : --- .. . ... : ... .. . ... : ... .. . ... : ... .. . ... : ... .. . ... : ... .. . ... : ... .. . ...
ROW 24 : ... .. . ... : D#2 00 . ... : G-2 0E . ... : ... .. . ... : ... .. . ... : A#4 0F . ... : ... .. . ... : ... .. . ...
ROW 25 : ... .. . ... : --- .. . ... : ... .. . ... : ... .. . ... : ... .. . ... : ... .. . ... : ... .. . ... : ... .. . ...
ROW 26 : D#3 0C . ... : D#2 00 . ... : ... .. . ... : ... .. . ... : ... .. . ... : ... .. . ... : ... .. . ... : ... .. . ...
ROW 27 : ... .. . ... : --- .. . ... : ... .. . ... : ... .. . ... : ... .. . ... : ... .. . ... : ... .. . ... : ... .. . ...
ROW 28 : F-3 06 . ... : D#2 00 . ... : C-2 0E . ... : 4-# 03 . ... : ... .. . ... : G#4 0F . ... : C-4 0F . ... : ... .. . ...
ROW 29 : ... .. . ... : --- .. . ... : ... .. . ... : ... .. . ... : ... .. . ... : ... .. . ... : ... .. . ... : ... .. . ...
ROW 2A : ... .. . ... : D#2 00 . ... : ... .. . ... : ... .. . ... : ... .. . ... : ... .. . ... : ... .. . ... : ... .. . ...
ROW 2B : ... .. . ... : --- .. . ... : ... .. . ... : ... .. . ... : ... .. . ... : ... .. . ... : ... .. . ... : ... .. . ...
ROW 2C : D-3 0C . ... : D#2 00 . ... : ... .. . ... : ... .. . ... : ... .. . ... : D#4 0F . ... : ... .. . ... : ... .. . ...
ROW 2D : ... .. . ... : --- .. . ... : ... .. . ... : ... .. . ... : ... .. . ... : ... .. . ... : ... .. . ... : ... .. . ...
ROW 2E : D#3 06 . ... : D#2 00 . ... : ... .. . ... : ... .. . ... : ... .. . ... : ... .. . ... : ... .. . ... : ... .. . ...
ROW 2F : ... .. . ... : --- .. . ... : ... .. . ... : ... .. . ... : ... .. . ... : ... .. . ... : ... .. . ... : ... .. . ...
ROW 30 : F-3 06 . ... : D#2 00 . ... : ... .. . ... : ... .. . ... : ... .. . ... : F-4 0F . ... : D-4 0F . ... : ... .. . ...
ROW 31 : ... .. . ... : --- .. . ... : ... .. . ... : ... .. . ... : ... .. . ... : ... .. . ... : ... .. . ... : ... .. . ...
ROW 32 : ... .. . ... : D#2 00 . ... : ... .. . ... : ... .. . ... : ... .. . ... : ... .. . ... : ... .. . ... : ... .. . ...
ROW 33 : D#3 0C . ... : --- .. . ... : ... .. . ... : ... .. . ... : ... .. . ... : ... .. . ... : ... .. . ... : ... .. . ...
ROW 34 : ... .. . ... : D#2 00 . ... : G-2 0E . ... : ... .. . ... : ... .. . ... : G-4 0F . ... : ... .. . ... : ... .. . ...
ROW 35 : D-3 06 . ... : --- .. . ... : ... .. . ... : ... .. . ... : ... .. . ... : ... .. . ... : ... .. . ... : ... .. . ...
ROW 36 : ... .. . ... : D#2 00 . ... : ... .. . ... : ... .. . ... : ... .. . ... : ... .. . ... : ... .. . ... : ... .. . ...
ROW 37 : ... .. . ... : --- .. . ... : ... .. . ... : ... .. . ... : ... .. . ... : ... .. . ... : ... .. . ... : ... .. . ...
ROW 38 : C-3 0C . ... : D#2 00 . ... : C-2 0E . ... : 4-# 03 . ... : ... .. . ... : C-4 0F . ... : G#3 0F . ... : ... .. . ...
ROW 39 : ... .. . ... : --- .. . ... : ... .. . ... : ... .. . ... : ... .. . ... : ... .. . ... : ... .. . ... : ... .. . ...
ROW 3A : ... .. . ... : D#2 00 . ... : ... .. . ... : ... .. . ... : ... .. . ... : ... .. . ... : ... .. . ... : ... .. . ...
ROW 3B : D-3 0C . ... : --- .. . ... : ... .. . ... : 2-# 03 . ... : ... .. . ... : ... .. . ... : ... .. . ... : ... .. . ...
ROW 3C : ... .. . ... : D#2 00 . ... : ... .. . ... : ... .. . ... : ... .. . ... : A#4 0F . ... : ... .. . ... : ... .. . ...
ROW 3D : ... .. . ... : --- .. . ... : ... .. . ... : ... .. . ... : ... .. . ... : ... .. . ... : ... .. . ... : ... .. . ...
ROW 3E : C-3 0C . ... : D#2 00 . ... : ... .. . ... : 5-# 03 . ... : ... .. . ... : ... .. . ... : ... .. . ... : ... .. . ...
ROW 3F : ... .. . ... : --- .. . ... : ... .. . ... : ... .. . ... : ... .. . ... : ... .. . ... : ... .. . ... : ... .. . ...
ROW 40 : C-3 06 . ... : F-2 00 . ... : ... .. . ... : 4-# 02 . ... : ... .. . ... : G#4 0F . ... : D-2 01 C ... : ... .. . ...
ROW 41 : ... .. . ... : --- .. . ... : ... .. . ... : ... .. . ... : ... .. . ... : ... .. . ... : --- .. . ... : ... .. . ...
ROW 42 : D-3 06 . ... : F-2 00 . ... : ... .. . ... : ... .. . ... : ... .. . ... : ... .. . ... : D-2 01 . ... : ... .. . ...
ROW 43 : ... .. . ... : --- .. . ... : ... .. . ... : ... .. . ... : ... .. . ... : ... .. . ... : --- .. . ... : ... .. . ...
ROW 44 : ... .. . ... : F-2 00 . ... : G-2 0E . ... : 4-# 02 . ... : ... .. . ... : G-4 0F . ... : D-2 01 . ... : ... .. . ...
ROW 45 : ... .. . ... : --- .. . ... : ... .. . ... : ... .. . ... : ... .. . ... : ... .. . ... : --- .. . ... : ... .. . ...
ROW 46 : D#3 0C . ... : F-2 00 . ... : ... .. . ... : ... .. . ... : ... .. . ... : ... .. . ... : D-2 01 . ... : ... .. . ...
ROW 47 : ... .. . ... : --- .. . ... : ... .. . ... : ... .. . ... : ... .. . ... : ... .. . ... : --- .. . ... : ... .. . ...
ROW 48 : F-3 06 . ... : F-2 00 . ... : C-2 0E . ... : 4-# 03 . ... : ... .. . ... : F-4 0F . ... : D-2 01 . ... : ... .. . ...
ROW 49 : ... .. . ... : --- .. . ... : ... .. . ... : ... .. . ... : ... .. . ... : ... .. . ... : --- .. . ... : ... .. . ...
ROW 4A : ... .. . ... : F-2 00 . ... : ... .. . ... : ... .. . ... : ... .. . ... : ... .. . ... : D-2 01 . ... : ... .. . ...
ROW 4B : ... .. . ... : --- .. . ... : ... .. . ... : ... .. . ... : ... .. . ... : ... .. . ... : --- .. . ... : ... .. . ...
ROW 4C : D-3 0C . ... : F-2 00 . ... : ... .. . ... : ... .. . ... : ... .. . ... : D#4 0F . ... : D-2 01 . ... : ... .. . ...
ROW 4D : ... .. . ... : --- .. . ... : ... .. . ... : ... .. . ... : ... .. . ... : ... .. . ... : --- .. . ... : ... .. . ...
ROW 4E : D#3 06 . ... : F-2 00 . ... : ... .. . ... : ... .. . ... : ... .. . ... : ... .. . ... : D-2 01 . ... : ... .. . ...
ROW 4F : ... .. . ... : --- .. . ... : ... .. . ... : ... .. . ... : ... .. . ... : ... .. . ... : --- .. . ... : ... .. . ...
ROW 50 : F-3 06 . ... : F-2 00 . ... : ... .. . ... : ... .. . ... : ... .. . ... : D-4 0F . ... : D-2 01 . ... : ... .. . ...
ROW 51 : ... .. . ... : --- .. . ... : ... .. . ... : ... .. . ... : ... .. . ... : ... .. . ... : --- .. . ... : ... .. . ...
ROW 52 : ... .. . ... : F-2 00 . ... : ... .. . ... : ... .. . ... : ... .. . ... : ... .. . ... : D-2 01 . ... : ... .. . ...
ROW 53 : D#3 0C . ... : --- .. . ... : ... .. . ... : ... .. . ... : ... .. . ... : ... .. . ... : --- .. . ... : ... .. . ...
ROW 54 : ... .. . ... : F-2 00 . ... : G-2 0E . ... : ... .. . ... : ... .. . ... : C-4 0F . ... : D-2 01 . ... : ... .. . ...
ROW 55 : D-3 06 . ... : --- .. . ... : ... .. . ... : ... .. . ... : ... .. . ... : ... .. . ... : --- .. . ... : ... .. . ...
ROW 56 : ... .. . ... : F-2 00 . ... : ... .. . ... : ... .. . ... : ... .. . ... : ... .. . ... : D-2 01 . ... : ... .. . ...
ROW 57 : ... .. . ... : --- .. . ... : ... .. . ... : ... .. . ... : ... .. . ... : ... .. . ... : --- .. . ... : ... .. . ...
ROW 58 : C-3 0C . ... : F-2 00 . ... : C-2 0E . ... : 4-# 03 . ... : ... .. . ... : D#4 0F . ... : D-2 01 . ... : ... .. . ...
ROW 59 : ... .. . ... : --- .. . ... : ... .. . ... : ... .. . ... : ... .. . ... : ... .. . ... : --- .. . ... : ... .. . ...
ROW 5A : ... .. . ... : F-2 00 . ... : ... .. . ... : ... .. . ... : ... .. . ... : ... .. . ... : D-2 01 . ... : ... .. . ...
ROW 5B : D-3 0C . ... : --- .. . ... : ... .. . ... : ... .. . ... : ... .. . ... : ... .. . ... : --- .. . ... : ... .. . ...
ROW 5C : ... .. . ... : F-2 00 . ... : ... .. . ... : ... .. . ... : ... .. . ... : D-4 0F . ... : D-2 01 . ... : ... .. . ...
ROW 5D : ... .. . ... : --- .. . ... : ... .. . ... : ... .. . ... : ... .. . ... : ... .. . ... : --- .. . ... : ... .. . ...
ROW 5E : C-3 0C . ... : F-2 00 . ... : ... .. . ... : 3-# 02 . ... : ... .. . ... : ... .. . ... : D-2 01 . ... : ... .. . ...
ROW 5F : ... .. . ... : --- .. . ... : ... .. . ... : ... .. . ... : ... .. . ... : ... .. . ... : --- .. . ... : ... .. . ...
ROW 60 : C-3 06 . ... : G-2 00 . ... : ... .. . ... : 3-# 02 . ... : ... .. . ... : C-4 0F . ... : D#2 01 . ... : ... .. . ...
ROW 61 : ... .. . ... : --- .. . ... : ... .. . ... : ... .. . ... : ... .. . ... : ... .. . ... : --- .. . ... : ... .. . ...
ROW 62 : D-3 06 . ... : G-2 00 . ... : ... .. . ... : ... .. . ... : ... .. . ... : ... .. . ... : D#2 01 . ... : ... .. . ...
ROW 63 : ... .. . ... : --- .. . ... : ... .. . ... : ... .. . ... : ... .. . ... : ... .. . ... : --- .. . ... : ... .. . ...
ROW 64 : ... .. . ... : G-2 00 . ... : G-2 0E . ... : ... .. . ... : ... .. . ... : F-4 0F . ... : D#2 01 . ... : ... .. . ...
ROW 65 : ... .. . ... : --- .. . ... : ... .. . ... : ... .. . ... : ... .. . ... : ... .. . ... : --- .. . ... : ... .. . ...
ROW 66 : F-3 0C . ... : G-2 00 . ... : ... .. . ... : ... .. . ... : ... .. . ... : ... .. . ... : D#2 01 . ... : ... .. . ...
ROW 67 : ... .. . ... : --- .. . ... : ... .. . ... : ... .. . ... : ... .. . ... : ... .. . ... : --- .. . ... : ... .. . ...
ROW 68 : F-3 06 . ... : G-2 00 . ... : C-2 0E . ... : 4-# 03 . ... : ... .. . ... : C-4 0F . ... : D#2 01 . ... : ... .. . ...
ROW 69 : ... .. . ... : --- .. . ... : ... .. . ... : ... .. . ... : ... .. . ... : ... .. . ... : --- .. . ... : ... .. . ...
ROW 6A : ... .. . ... : G-2 00 . ... : ... .. . ... : ... .. . ... : ... .. . ... : ... .. . ... : D#2 01 . ... : ... .. . ...
ROW 6B : ... .. . ... : --- .. . ... : ... .. . ... : ... .. . ... : ... .. . ... : ... .. . ... : --- .. . ... : ... .. . ...
ROW 6C : D-3 0C . ... : G-2 00 . ... : ... .. . ... : ... .. . ... : ... .. . ... : G-4 0F . ... : D#2 01 . ... : ... .. . ...
ROW 6D : ... .. . ... : --- .. . ... : ... .. . ... : ... .. . ... : ... .. . ... : ... .. . ... : --- .. . ... : ... .. . ...
ROW 6E : F-3 06 . ... : G-2 00 . ... : ... .. . ... : ... .. . ... : ... .. . ... : ... .. . ... : D#2 01 . ... : ... .. . ...
ROW 6F : ... .. . ... : --- .. . ... : ... .. . ... : ... .. . ... : ... .. . ... : ... .. . ... : --- .. . ... : ... .. . ...
ROW 70 : F-3 06 . ... : G-2 00 . ... : ... .. . ... : ... .. . ... : ... .. . ... : C-4 0F . ... : D#2 01 . ... : ... .. . ...
ROW 71 : ... .. . ... : --- .. . ... : ... .. . ... : ... .. . ... : ... .. . ... : ... .. . ... : --- .. . ... : ... .. . ...
ROW 72 : ... .. . ... : G-2 00 . ... : ... .. . ... : ... .. . ... : ... .. . ... : ... .. . ... : D#2 01 . ... : ... .. . ...
ROW 73 : D-3 0C . ... : --- .. . ... : ... .. . ... : ... .. . ... : ... .. . ... : ... .. . ... : --- .. . ... : ... .. . ...
ROW 74 : ... .. . ... : G-2 00 . ... : G-2 0E . ... : ... .. . ... : ... .. . ... : A#4 0F . ... : D#2 01 . ... : ... .. . ...
ROW 75 : D-3 06 . ... : --- .. . ... : ... .. . ... : ... .. . ... : ... .. . ... : ... .. . ... : --- .. . ... : ... .. . ...
ROW 76 : ... .. . ... : G-2 00 . ... : ... .. . ... : ... .. . ... : ... .. . ... : ... .. . ... : D#2 01 . ... : ... .. . ...
ROW 77 : ... .. . ... : --- .. . ... : ... .. . ... : ... .. . ... : ... .. . ... : ... .. . ... : --- .. . ... : ... .. . ...
ROW 78 : C-3 0C . ... : D-2 00 . ... : C-2 0E . ... : 4-# 03 . ... : ... .. . ... : C-5 0F . ... : C-2 01 . ... : ... .. . ...
ROW 79 : ... .. . ... : --- .. . ... : ... .. . ... : ... .. . ... : ... .. . ... : ... .. . ... : --- .. . ... : ... .. . ...
ROW 7A : ... .. . ... : D-2 00 . ... : ... .. . ... : ... .. . ... : ... .. . ... : ... .. . ... : C-2 01 . ... : ... .. . ...
ROW 7B : D-3 0C . ... : --- .. . ... : ... .. . ... : 2-# 03 . ... : ... .. . ... : ... .. . ... : --- .. . ... : ... .. . ...
ROW 7C : ... .. . ... : D-2 00 . ... : ... .. . ... : ... .. . ... : ... .. . ... : D-5 0F . ... : C-2 01 . ... : ... .. . ...
ROW 7D : ... .. . ... : --- .. . ... : ... .. . ... : ... .. . ... : ... .. . ... : ... .. . ... : --- .. . ... : ... .. . ...
ROW 7E : C-3 0C . ... : D-2 00 . ... : ... .. . ... : 5-# 03 . ... : ... .. . ... : ... .. . ... : C-2 01 . ... : ... .. . ...
ROW 7F : ... .. . ... : --- .. . ... : ... .. . ... : ... .. . ... : ... .. . ... : ... .. . ... : --- .. . ... : ... .. . ...

PATTERN 06
ROW 00 : C-3 0C 7 ... : C-2 0D C ... : ... .. . ... : 4-# 02 8 ... : ... .. . ... : D#5 0F F ... : C-5 0F C ... : C-1 01 8 ...
ROW 01 : ... .. . ... : ... .. . ... : ... .. . ... : ... .. . ... : ... .. . ... : ... .. . ... : ... .. . ... : ... .. . ...
ROW 02 : D-3 06 . ... : C-2 0D A ... : ... .. . ... : ... .. . ... : ... .. . ... : ... .. . ... : ... .. . ... : ... .. . ...
ROW 03 : ... .. . ... : ... .. . ... : ... .. . ... : ... .. . ... : ... .. . ... : ... .. . ... : ... .. . ... : ... .. . ...
ROW 04 : ... .. . ... : C-2 0D 9 ... : G-2 0E . ... : 4-# 02 . ... : ... .. . ... : D-5 0F . ... : C-5 0F . ... : ... .. . ...
ROW 05 : ... .. . ... : ... .. . ... : ... .. . ... : ... .. . ... : ... .. . ... : ... .. . ... : ... .. . ... : ... .. . ...
ROW 06 : D#3 0C . ... : C-2 0D 7 ... : ... .. . ... : ... .. . ... : ... .. . ... : ... .. . ... : ... .. . ... : ... .. . ...
ROW 07 : ... .. . ... : ... .. . ... : ... .. . ... : ... .. . ... : ... .. . ... : ... .. . ... : ... .. . ... : ... .. . ...
ROW 08 : F-3 06 . ... : C-2 0D C ... : C-2 0E . ... : 4-# 03 . ... : ... .. . ... : C-5 0F . ... : G#4 0F . ... : ... .. . ...
ROW 09 : ... .. . ... : ... .. . ... : ... .. . ... : ... .. . ... : ... .. . ... : ... .. . ... : ... .. . ... : ... .. . ...
ROW 0A : ... .. . ... : C-2 0D A ... : ... .. . ... : ... .. . ... : ... .. . ... : ... .. . ... : ... .. . ... : ... .. . ...
ROW 0B : ... .. . ... : ... .. . ... : ... .. . ... : ... .. . ... : ... .. . ... : ... .. . ... : ... .. . ... : ... .. . ...
ROW 0C : D-3 0C . ... : C-2 0D 9 ... : ... .. . ... : ... .. . ... : ... .. . ... : ... .. . ... : ... .. . ... : ... .. . ...
ROW 0D : ... .. . ... : ... .. . ... : ... .. . ... : ... .. . ... : ... .. . ... : ... .. . ... : ... .. . ... : ... .. . ...
ROW 0E : D#3 06 . ... : C-2 0D 7 ... : ... .. . ... : ... .. . ... : ... .. . ... : ... .. . ... : ... .. . ... : ... .. . ...
ROW 0F : ... .. . ... : ... .. . ... : ... .. . ... : ... .. . ... : ... .. . ... : ... .. . ... : ... .. . ... : ... .. . ...
ROW 10 : F-3 06 . ... : C-2 0D C ... : ... .. . ... : ... .. . ... : ... .. . ... : G-4 0F . ... : D#4 0F . ... : ... .. . ...
ROW 11 : ... .. . ... : ... .. . ... : ... .. . ... : ... .. . ... : ... .. . ... : ... .. . ... : ... .. . ... : ... .. . ...
ROW 12 : ... .. . ... : C-2 0D A ... : ... .. . ... : ... .. . ... : ... .. . ... : ... .. . ... : ... .. . ... : ... .. . ...
ROW 13 : D#3 0C . ... : ... .. . ... : ... .. . ... : ... .. . ... : ... .. . ... : ... .. . ... : ... .. . ... : ... .. . ...
ROW 14 : ... .. . ... : C-2 0D 9 ... : G-2 0E . ... : ... .. . ... : ... .. . ... : G#4 0F . ... : ... .. . ... : ... .. . ...
ROW 15 : D-3 06 . ... : ... .. . ... : ... .. . ... : ... .. . ... : ... .. . ... : ... .. . ... : ... .. . ... : ... .. . ...
ROW 16 : ... .. . ... : C-2 0D 7 ... : ... .. . ... : ... .. . ... : ... .. . ... : ... .. . ... : ... .. . ... : ... .. . ...
ROW 17 : ... .. . ... : ... .. . ... : ... .. . ... : ... .. . ... : ... .. . ... : ... .. . ... : ... .. . ... : ... .. . ...
ROW 18 : C-3 0C . ... : C-2 0D C ... : C-2 0E . ... : 4-# 03 . ... : ... .. . ... : A#4 0F . ... : G-4 0F . ... : ... .. . ...
ROW 19 : ... .. . ... : ... .. . ... : ... .. . ... : ... .. . ... : ... .. . ... : ... .. . ... : ... .. . ... : ... .. . ...
ROW 1A : ... .. . ... : C-2 0D A ... : ... .. . ... : ... .. . ... : ... .. . ... : ... .. . ... : ... .. . ... : ... .. . ...
ROW 1B : D-3 0C . ... : ... .. . ... : ... .. . ... : ... .. . ... : ... .. . ... : ... .. . ... : ... .. . ... : ... .. . ...
ROW 1C : ... .. . ... : C-2 0D 9 ... : ... .. . ... : ... .. . ... : ... .. . ... : D#4 0F . ... : ... .. . ... : ... .. . ...
ROW 1D : ... .. . ... : ... .. . ... : ... .. . ... : ... .. . ... : ... .. . ... : ... .. . ... : ... .. . ... : ... .. . ...
ROW 1E : C-3 0C . ... : C-2 0D 7 ... : ... .. . ... : 3-# 02 . ... : ... .. . ... : ... .. . ... : ... .. . ... : ... .. . ...
ROW 1F : ... .. . ... : ... .. . ... : ... .. . ... : ... .. . ... : ... .. . ... : ... .. . ... : ... .. . ... : ... .. . ...
ROW 20 : C-3 06 . ... : D#2 0D C ... : ... .. . ... : 3-# 02 . ... : ... .. . ... : C-5 0F . ... : G-4 0F . ... : ... .. . ...
ROW 21 : ... .. . ... : ... .. . ... : ... .. . ... : ... .. . ... : ... .. . ... : ... .. . ... : ... .. . ... : ... .. . ...
ROW 22 : D-3 06 . ... : D#2 0D A ... : ... .. . ... : ... .. . ... : ... .. . ... : ... .. . ... : ... .. . ... : ... .. . ...
ROW 23 : ... .. . ... : ... .. . ... : ... .. . ... : ... .. . ... : ... .. . ... : ... .. . ... : ... .. . ... : ... .. . ...
ROW 24 : ... .. . ... : D#2 0D 9 ... : G-2 0E . ... : ... .. . ... : ... .. . ... : A#4 0F . ... : ... .. . ... : ... .. . ...
ROW 25 : ... .. . ... : ... .. . ... : ... .. . ... : ... .. . ... : ... .. . ... : ... .. . ... : ... .. . ... : ... .. . ...
ROW 26 : D#3 0C . ... : D#2 0D 7 ... : ... .. . ... : ... .. . ... : ... .. . ... : ... .. . ... : ... .. . ... : ... .. . ...
ROW 27 : ... .. . ... : ... .. . ... : ... .. . ... : ... .. . ... : ... .. . ... : ... .. . ... : ... .. . ... : ... .. . ...
ROW 28 : F-3 06 . ... : D#2 0D C ... : C-2 0E . ... : 4-# 03 . ... : ... .. . ... : G#4 0F . ... : C-4 0F . ... : ... .. . ...
ROW 29 : ... .. . ... : ... .. . ... : ... .. . ... : ... .. . ... : ... .. . ... : ... .. . ... : ... .. . ... : ... .. . ...
ROW 2A : ... .. . ... : D#2 0D A ... : ... .. . ... : ... .. . ... : ... .. . ... : ... .. . ... : ... .. . ... : ... .. . ...
ROW 2B : ... .. . ... : ... .. . ... : ... .. . ... : ... .. . ... : ... .. . ... : ... .. . ... : ... .. . ... : ... .. . ...
ROW 2C : D-3 0C . ... : D#2 0D 9 ... : ... .. . ... : ... .. . ... : ... .. . ... : D#4 0F . ... : ... .. . ... : ... .. . ...
ROW 2D : ... .. . ... : ... .. . ... : ... .. . ... : ... .. . ... : ... .. . ... : ... .. . ... : ... .. . ... : ... .. . ...
ROW 2E : D#3 06 . ... : D#2 0D 7 ... : ... .. . ... : ... .. . ... : ... .. . ... : ... .. . ... : ... .. . ... : ... .. . ...
ROW 2F : ... .. . ... : ... .. . ... : ... .. . ... : ... .. . ... : ... .. . ... : ... .. . ... : ... .. . ... : ... .. . ...
ROW 30 : F-3 06 . ... : D#2 0D C ... : ... .. . ... : ... .. . ... : ... .. . ... : F-4 0F . ... : D-4 0F . ... : ... .. . ...
ROW 31 : ... .. . ... : ... .. . ... : ... .. . ... : ... .. . ... : ... .. . ... : ... .. . ... : ... .. . ... : ... .. . ...
ROW 32 : ... .. . ... : D#2 0D A ... : ... .. . ... : ... .. . ... : ... .. . ... : ... .. . ... : ... .. . ... : ... .. . ...
ROW 33 : D#3 0C . ... : ... .. . ... : ... .. . ... : ... .. . ... : ... .. . ... : ... .. . ... : ... .. . ... : ... .. . ...
ROW 34 : ... .. . ... : D#2 0D 9 ... : G-2 0E . ... : ... .. . ... : ... .. . ... : G-4 0F . ... : ... .. . ... : ... .. . ...
ROW 35 : D-3 06 . ... : ... .. . ... : ... .. . ... : ... .. . ... : ... .. . ... : ... .. . ... : ... .. . ... : ... .. . ...
ROW 36 : ... .. . ... : D#2 0D 7 ... : ... .. . ... : ... .. . ... : ... .. . ... : ... .. . ... : ... .. . ... : ... .. . ...
ROW 37 : ... .. . ... : ... .. . ... : ... .. . ... : ... .. . ... : ... .. . ... : ... .. . ... : ... .. . ... : ... .. . ...
ROW 38 : C-3 0C . ... : D#2 0D C ... : C-2 0E . ... : 4-# 03 . ... : ... .. . ... : C-4 0F . ... : G#3 0F . ... : ... .. . ...
ROW 39 : ... .. . ... : ... .. . ... : ... .. . ... : ... .. . ... : ... .. . ... : ... .. . ... : ... .. . ... : ... .. . ...
ROW 3A : ... .. . ... : D#2 0D A ... : ... .. . ... : ... .. . ... : ... .. . ... : ... .. . ... : ... .. . ... : ... .. . ...
ROW 3B : D-3 0C . ... : ... .. . ... : ... .. . ... : 2-# 03 . ... : ... .. . ... : ... .. . ... : ... .. . ... : ... .. . ...
ROW 3C : ... .. . ... : D#2 0D 9 ... : ... .. . ... : ... .. . ... : ... .. . ... : A#4 0F . ... : ... .. . ... : ... .. . ...
ROW 3D : ... .. . ... : ... .. . ... : ... .. . ... : ... .. . ... : ... .. . ... : ... .. . ... : ... .. . ... : ... .. . ...
ROW 3E : C-3 0C . ... : D#2 0D 7 ... : ... .. . ... : 5-# 03 . ... : ... .. . ... : ... .. . ... : ... .. . ... : ... .. . ...
ROW 3F : ... .. . ... : ... .. . ... : ... .. . ... : ... .. . ... : ... .. . ... : ... .. . ... : ... .. . ... : ... .. . ...
ROW 40 : C-3 06 . ... : F-2 0D C ... : ... .. . ... : 4-# 02 . ... : ... .. . ... : G#4 0F . ... : D-2 09 C ... : ... .. . ...
ROW 41 : ... .. . ... : ... .. . ... : ... .. . ... : ... .. . ... : ... .. . ... : ... .. . ... : ... .. . ... : ... .. . ...
ROW 42 : D-3 06 . ... : F-2 0D A ... : ... .. . ... : ... .. . ... : ... .. . ... : ... .. . ... : D-2 09 A ... : ... .. . ...
ROW 43 : ... .. . ... : ... .. . ... : ... .. . ... : ... .. . ... : ... .. . ... : ... .. . ... : ... .. . ... : ... .. . ...
ROW 44 : ... .. . ... : F-2 0D 9 ... : G-2 0E . ... : 4-# 02 . ... : ... .. . ... : G-4 0F . ... : D-2 09 9 ... : ... .. . ...
ROW 45 : ... .. . ... : ... .. . ... : ... .. . ... : ... .. . ... : ... .. . ... : ... .. . ... : ... .. . ... : ... .. . ...
ROW 46 : D#3 0C . ... : F-2 0D 7 ... : ... .. . ... : ... .. . ... : ... .. . ... : ... .. . ... : D-2 09 7 ... : ... .. . ...
ROW 47 : ... .. . ... : ... .. . ... : ... .. . ... : ... .. . ... : ... .. . ... : ... .. . ... : ... .. . ... : ... .. . ...
ROW 48 : F-3 06 . ... : F-2 0D C ... : C-2 0E . ... : 4-# 03 . ... : ... .. . ... : F-4 0F . ... : D-2 09 C ... : ... .. . ...
ROW 49 : ... .. . ... : ... .. . ... : ... .. . ... : ... .. . ... : ... .. . ... : ... .. . ... : ... .. . ... : ... .. . ...
ROW 4A : ... .. . ... : F-2 0D A ... : ... .. . ... : ... .. . ... : ... .. . ... : ... .. . ... : D-2 09 A ... : ... .. . ...
ROW 4B : ... .. . ... : ... .. . ... : ... .. . ... : ... .. . ... : ... .. . ... : ... .. . ... : ... .. . ... : ... .. . ...
ROW 4C : D-3 0C . ... : F-2 0D 9 ... : ... .. . ... : ... .. . ... : ... .. . ... : D#4 0F . ... : D-2 09 9 ... : ... .. . ...
ROW 4D : ... .. . ... : ... .. . ... : ... .. . ... : ... .. . ... : ... .. . ... : ... .. . ... : ... .. . ... : ... .. . ...
ROW 4E : D#3 06 . ... : F-2 0D 7 ... : ... .. . ... : ... .. . ... : ... .. . ... : ... .. . ... : D-2 09 7 ... : ... .. . ...
ROW 4F : ... .. . ... : ... .. . ... : ... .. . ... : ... .. . ... : ... .. . ... : ... .. . ... : ... .. . ... : ... .. . ...
ROW 50 : F-3 06 . ... : F-2 0D C ... : ... .. . ... : ... .. . ... : ... .. . ... : D-4 0F . ... : D-2 09 C ... : ... .. . ...
ROW 51 : ... .. . ... : ... .. . ... : ... .. . ... : ... .. . ... : ... .. . ... : ... .. . ... : ... .. . ... : ... .. . ...
ROW 52 : ... .. . ... : F-2 0D A ... : ... .. . ... : ... .. . ... : ... .. . ... : ... .. . ... : D-2 09 A ... : ... .. . ...
ROW 53 : D#3 0C . ... : ... .. . ... : ... .. . ... : ... .. . ... : ... .. . ... : ... .. . ... : ... .. . ... : ... .. . ...
ROW 54 : ... .. . ... : F-2 0D 9 ... : G-2 0E . ... : ... .. . ... : ... .. . ... : C-4 0F . ... : D-2 09 9 ... : ... .. . ...
ROW 55 : D-3 06 . ... : ... .. . ... : ... .. . ... : ... .. . ... : ... .. . ... : ... .. . ... : ... .. . ... : ... .. . ...
ROW 56 : ... .. . ... : F-2 0D 7 ... : ... .. . ... : ... .. . ... : ... .. . ... : ... .. . ... : D-2 09 7 ... : ... .. . ...
ROW 57 : ... .. . ... : ... .. . ... : ... .. . ... : ... .. . ... : ... .. . ... : ... .. . ... : ... .. . ... : ... .. . ...
ROW 58 : C-3 0C . ... : F-2 0D C ... : C-2 0E . ... : 4-# 03 . ... : ... .. . ... : D#4 0F . ... : D-2 09 C ... : ... .. . ...
ROW 59 : ... .. . ... : ... .. . ... : ... .. . ... : ... .. . ... : ... .. . ... : ... .. . ... : ... .. . ... : ... .. . ...
ROW 5A : ... .. . ... : F-2 0D A ... : ... .. . ... : ... .. . ... : ... .. . ... : ... .. . ... : D-2 09 A ... : ... .. . ...
ROW 5B : D-3 0C . ... : ... .. . ... : ... .. . ... : ... .. . ... : ... .. . ... : ... .. . ... : ... .. . ... : ... .. . ...
ROW 5C : ... .. . ... : F-2 0D 9 ... : ... .. . ... : ... .. . ... : ... .. . ... : D-4 0F . ... : D-2 09 9 ... : ... .. . ...
ROW 5D : ... .. . ... : ... .. . ... : ... .. . ... : ... .. . ... : ... .. . ... : ... .. . ... : ... .. . ... : ... .. . ...
ROW 5E : C-3 0C . ... : F-2 0D 7 ... : ... .. . ... : 3-# 02 . ... : ... .. . ... : ... .. . ... : D-2 09 7 ... : ... .. . ...
ROW 5F : ... .. . ... : ... .. . ... : ... .. . ... : ... .. . ... : ... .. . ... : ... .. . ... : ... .. . ... : ... .. . ...
ROW 60 : C-3 06 . ... : G-2 0D C ... : ... .. . ... : 3-# 02 . ... : ... .. . ... : C-4 0F . ... : D#2 09 C ... : ... .. . ...
ROW 61 : ... .. . ... : ... .. . ... : ... .. . ... : ... .. . ... : ... .. . ... : ... .. . ... : ... .. . ... : ... .. . ...
ROW 62 : D-3 06 . ... : G-2 0D A ... : ... .. . ... : ... .. . ... : ... .. . ... : ... .. . ... : D#2 09 A ... : ... .. . ...
ROW 63 : ... .. . ... : ... .. . ... : ... .. . ... : ... .. . ... : ... .. . ... : ... .. . ... : ... .. . ... : ... .. . ...
ROW 64 : ... .. . ... : G-2 0D 9 ... : G-2 0E . ... : ... .. . ... : ... .. . ... : F-4 0F . ... : D#2 09 9 ... : ... .. . ...
ROW 65 : ... .. . ... : ... .. . ... : ... .. . ... : ... .. . ... : ... .. . ... : ... .. . ... : ... .. . ... : ... .. . ...
ROW 66 : F-3 0C . ... : G-2 0D 7 ... : ... .. . ... : ... .. . ... : ... .. . ... : ... .. . ... : D#2 09 7 ... : ... .. . ...
ROW 67 : ... .. . ... : ... .. . ... : ... .. . ... : ... .. . ... : ... .. . ... : ... .. . ... : ... .. . ... : ... .. . ...
ROW 68 : F-3 06 . ... : G-2 0D C ... : C-2 0E . ... : 4-# 03 . ... : ... .. . ... : C-4 0F . ... : D#2 09 C ... : ... .. . ...
ROW 69 : ... .. . ... : ... .. . ... : ... .. . ... : ... .. . ... : ... .. . ... : ... .. . ... : ... .. . ... : ... .. . ...
ROW 6A : ... .. . ... : G-2 0D A ... : ... .. . ... : ... .. . ... : ... .. . ... : ... .. . ... : D#2 09 A ... : ... .. . ...
ROW 6B : ... .. . ... : ... .. . ... : ... .. . ... : ... .. . ... : ... .. . ... : ... .. . ... : ... .. . ... : ... .. . ...
ROW 6C : D-3 0C . ... : G-2 0D 9 ... : ... .. . ... : ... .. . ... : ... .. . ... : ... .. . ... : D#2 09 9 ... : ... .. . ...
ROW 6D : ... .. . ... : ... .. . ... : ... .. . ... : ... .. . ... : ... .. . ... : ... .. . ... : ... .. . ... : ... .. . ...
ROW 6E : F-3 06 . ... : G-2 0D 7 ... : ... .. . ... : ... .. . ... : ... .. . ... : C-4 0F . ... : D#2 09 7 ... : ... .. . ...
ROW 6F : ... .. . ... : ... .. . ... : ... .. . ... : ... .. . ... : ... .. . ... : ... .. . ... : ... .. . ... : ... .. . ...
ROW 70 : F-3 06 . ... : G-2 0D C ... : ... .. . ... : ... .. . ... : ... .. . ... : ... .. . ... : D#2 09 C ... : ... .. . ...
ROW 71 : ... .. . ... : ... .. . ... : ... .. . ... : ... .. . ... : ... .. . ... : ... .. . ... : ... .. . ... : ... .. . ...
ROW 72 : ... .. . ... : G-2 0D A ... : ... .. . ... : ... .. . ... : ... .. . ... : ... .. . ... : D#2 09 A ... : ... .. . ...
ROW 73 : D-3 0C . ... : ... .. . ... : ... .. . ... : ... .. . ... : ... .. . ... : ... .. . ... : ... .. . ... : ... .. . ...
ROW 74 : ... .. . ... : G-2 0D 9 ... : G-2 0E . ... : F-# 03 8 ... : ... .. . ... : C-4 0F . ... : D#2 09 9 ... : ... .. . ...
ROW 75 : D-3 06 . ... : ... .. . ... : ... .. . ... : ... .. . ... : ... .. . ... : ... .. . ... : ... .. . ... : ... .. . ...
ROW 76 : ... .. . ... : G-2 0D 7 ... : G-1 0E . ... : D-# 03 9 ... : ... .. . ... : ... .. . ... : D#2 09 7 ... : ... .. . ...
ROW 77 : ... .. . ... : ... .. . ... : ... .. . ... : ... .. . ... : ... .. . ... : ... .. . ... : ... .. . ... : ... .. . ...
ROW 78 : C-3 0C . ... : D-2 0D C ... : G-1 0E . ... : C-# 03 A ... : ... .. . ... : ... .. . ... : C-2 09 C ... : ... .. . ...
ROW 79 : ... .. . ... : ... .. . ... : ... .. . ... : ... .. . ... : ... .. . ... : ... .. . ... : ... .. . ... : ... .. . ...
ROW 7A : ... .. . ... : D-2 0D A ... : G-2 0E . ... : A-# 03 B ... : ... .. . ... : D-4 0F . ... : C-2 09 A ... : F-4 07 . ...
ROW 7B : D-3 0C . ... : ... .. . ... : ... .. . ... : 2-# 03 . ... : ... .. . ... : ... .. . ... : ... .. . ... : ... .. . ...
ROW 7C : ... .. . ... : D-2 0D 9 ... : G-1 0E . ... : 8-# 03 C ... : ... .. . ... : ... .. . ... : C-2 09 9 ... : ... .. . ...
ROW 7D : ... .. . ... : ... .. . ... : D-2 0E . ... : ... .. . ... : ... .. . ... : ... .. . ... : ... .. . ... : ... .. . ...
ROW 7E : C-3 0C . ... : D-2 0D 7 ... : G-1 0E . ... : 1-# 03 D ... : ... .. . ... : ... .. . ... : C-2 09 7 ... : ... .. . ...
ROW 7F : ... .. . ... : ... .. . ... : D-2 0E . ... : ... .. . ... : ... .. . ... : ... .. . ... : ... .. . ... : ... .. . ...

PATTERN 07
ROW 00 : C-3 0C 7 ... : C-3 0C 4 ... : C-2 00 . ... : 0-# 03 F ... : ... .. . ... : G-4 08 F ... : G-2 09 C ... : C-1 01 F ...
ROW 01 : ... .. . ... : ... .. . ... : --- .. . ... : ... .. . ... : ... .. . ... : ... .. . ... : ... .. . ... : --- .. . ...
ROW 02 : D-3 06 . ... : ... .. . ... : C-2 00 . ... : ... .. . ... : ... .. . ... : ... .. . ... : G-2 09 A ... : C-1 01 C ...
ROW 03 : ... .. . ... : D-3 0C . ... : --- .. . ... : 1-# 03 1 ... : ... .. . ... : ... .. . ... : ... .. . ... : --- .. . ...
ROW 04 : ... .. . ... : ... .. . ... : C-2 00 . ... : 1-# 03 2 ... : ... .. . ... : D#4 08 . ... : G-2 09 9 ... : C-1 01 A ...
ROW 05 : ... .. . ... : ... .. . ... : --- .. . ... : 1-# 03 3 ... : ... .. . ... : ... .. . ... : ... .. . ... : --- .. . ...
ROW 06 : D#3 0C . ... : C-3 0C . ... : C-2 00 . ... : 1-# 03 4 ... : ... .. . ... : D-4 08 . ... : G-2 09 7 ... : C-1 01 9 ...
ROW 07 : ... .. . ... : ... .. . ... : --- .. . ... : 1-# 03 5 ... : ... .. . ... : ... .. . ... : ... .. . ... : --- .. . ...
ROW 08 : F-3 06 . ... : C-3 06 . ... : C-3 00 . ... : 4-# 03 C ... : ... .. . ... : C-4 08 . ... : G-2 09 C ... : C-1 01 F ...
ROW 09 : ... .. . ... : ... .. . ... : --- .. . ... : ... .. . ... : ... .. . ... : ... .. . ... : ... .. . ... : --- .. . ...
ROW 0A : ... .. . ... : D-3 06 . ... : C-2 00 . ... : ... .. . ... : ... .. . ... : ... .. . ... : G-2 09 A ... : C-1 01 C ...
ROW 0B : ... .. . ... : ... .. . ... : --- .. . ... : ... .. . ... : ... .. . ... : ... .. . ... : ... .. . ... : --- .. . ...
ROW 0C : D-3 0C . ... : ... .. . ... : C-2 00 . ... : ... .. . ... : ... .. . ... : G-4 08 . ... : G-2 09 9 ... : C-1 01 A ...
ROW 0D : ... .. . ... : ... .. . ... : --- .. . ... : ... .. . ... : ... .. . ... : ... .. . ... : ... .. . ... : --- .. . ...
ROW 0E : D#3 06 . ... : D#3 0C . ... : C-2 00 . ... : ... .. . ... : ... .. . ... : ... .. . ... : G-2 09 7 ... : C-1 01 9 ...
ROW 0F : ... .. . ... : ... .. . ... : --- .. . ... : ... .. . ... : ... .. . ... : ... .. . ... : ... .. . ... : --- .. . ...
ROW 10 : F-3 06 . ... : F-3 06 . ... : C-2 00 . ... : D-# 03 1 ... : ... .. . ... : G-4 08 . ... : G-2 09 C ... : C-1 01 F ...
ROW 11 : ... .. . ... : ... .. . ... : --- .. . ... : D-# 03 2 ... : ... .. . ... : ... .. . ... : ... .. . ... : --- .. . ...
ROW 12 : ... .. . ... : ... .. . ... : C-2 00 . ... : D-# 03 3 ... : ... .. . ... : ... .. . ... : G-2 09 A ... : C-1 01 C ...
ROW 13 : D#3 0C . ... : ... .. . ... : --- .. . ... : D-# 03 4 ... : ... .. . ... : ... .. . ... : ... .. . ... : --- .. . ...
ROW 14 : ... .. . ... : D-3 0C . ... : C-2 00 . ... : D-# 03 5 ... : ... .. . ... : C-4 08 . ... : G-2 09 9 ... : C-1 01 A ...
ROW 15 : D-3 06 . ... : ... .. . ... : --- .. . ... : D-# 03 6 ... : ... .. . ... : ... .. . ... : ... .. . ... : --- .. . ...
ROW 16 : ... .. . ... : D#3 06 . ... : C-2 00 . ... : D-# 03 7 ... : ... .. . ... : ... .. . ... : G-2 09 7 ... : C-1 01 9 ...
ROW 17 : ... .. . ... : ... .. . ... : --- .. . ... : D-# 03 8 ... : ... .. . ... : ... .. . ... : ... .. . ... : --- .. . ...
ROW 18 : C-3 0C . ... : F-3 06 . ... : C-3 00 . ... : 4-# 03 C ... : ... .. . ... : G-4 08 . ... : G-2 09 C ... : C-1 01 F ...
ROW 19 : ... .. . ... : ... .. . ... : --- .. . ... : ... .. . ... : ... .. . ... : ... .. . ... : ... .. . ... : --- .. . ...
ROW 1A : ... .. . ... : ... .. . ... : C-2 00 . ... : 5-# 03 8 ... : ... .. . ... : ... .. . ... : G-2 09 A ... : C-1 01 C ...
ROW 1B : D-3 0C . ... : D#3 0C . ... : --- .. . ... : ... .. . ... : ... .. . ... : ... .. . ... : ... .. . ... : --- .. . ...
ROW 1C : ... .. . ... : ... .. . ... : C-2 00 . ... : 5-# 03 A ... : ... .. . ... : F-4 08 . ... : G-2 09 9 ... : C-1 01 A ...
ROW 1D : ... .. . ... : D-3 06 . ... : --- .. . ... : ... .. . ... : ... .. . ... : ... .. . ... : ... .. . ... : --- .. . ...
ROW 1E : C-3 0C . ... : ... .. . ... : C-2 00 . ... : 3-# 02 8 ... : ... .. . ... : ... .. . ... : G-2 09 7 ... : C-1 01 9 ...
ROW 1F : ... .. . ... : ... .. . ... : --- .. . ... : ... .. . ... : ... .. . ... : ... .. . ... : ... .. . ... : --- .. . ...
ROW 20 : C-3 06 . ... : C-3 0C . ... : C-2 00 . ... : ... .. . ... : ... .. . ... : D#4 08 . ... : D#2 09 C ... : C-1 01 F ...
ROW 21 : ... .. . ... : ... .. . ... : --- .. . ... : ... .. . ... : ... .. . ... : ... .. . ... : ... .. . ... : --- .. . ...
ROW 22 : D#3 06 . ... : ... .. . ... : C-2 00 . ... : ... .. . ... : ... .. . ... : ... .. . ... : D#2 09 A ... : C-1 01 C ...
ROW 23 : ... .. . ... : D#3 0C . ... : --- .. . ... : 1-# 03 1 ... : ... .. . ... : ... .. . ... : ... .. . ... : --- .. . ...
ROW 24 : ... .. . ... : ... .. . ... : C-2 00 . ... : 1-# 03 2 ... : ... .. . ... : ... .. . ... : D#2 09 9 ... : C-1 01 A ...
ROW 25 : ... .. . ... : ... .. . ... : --- .. . ... : 1-# 03 3 ... : ... .. . ... : ... .. . ... : ... .. . ... : --- .. . ...
ROW 26 : D#3 0C . ... : C-3 0C . ... : C-2 00 . ... : 1-# 03 4 ... : ... .. . ... : D-4 08 . ... : D#2 09 7 ... : C-1 01 9 ...
ROW 27 : ... .. . ... : ... .. . ... : --- .. . ... : 1-# 03 5 ... : ... .. . ... : ... .. . ... : ... .. . ... : --- .. . ...
ROW 28 : F-3 06 . ... : C-3 06 . ... : C-3 00 . ... : 4-# 03 C ... : ... .. . ... : ... .. . ... : D#2 09 C ... : C-1 01 F ...
ROW 29 : ... .. . ... : ... .. . ... : --- .. . ... : ... .. . ... : ... .. . ... : ... .. . ... : ... .. . ... : --- .. . ...
ROW 2A : ... .. . ... : D#3 06 . ... : C-2 00 . ... : ... .. . ... : ... .. . ... : ... .. . ... : D#2 09 A ... : C-1 01 C ...
ROW 2B : ... .. . ... : ... .. . ... : --- .. . ... : ... .. . ... : ... .. . ... : ... .. . ... : ... .. . ... : --- .. . ...
ROW 2C : D#3 0C . ... : ... .. . ... : C-2 00 . ... : ... .. . ... : ... .. . ... : C-4 08 . ... : D#2 09 9 ... : C-1 01 A ...
ROW 2D : ... .. . ... : ... .. . ... : --- .. . ... : ... .. . ... : ... .. . ... : ... .. . ... : ... .. . ... : --- .. . ...
ROW 2E : D#3 06 . ... : D#3 0C . ... : C-2 00 . ... : ... .. . ... : ... .. . ... : ... .. . ... : D#2 09 7 ... : C-1 01 9 ...
ROW 2F : ... .. . ... : ... .. . ... : --- .. . ... : ... .. . ... : ... .. . ... : ... .. . ... : ... .. . ... : --- .. . ...
ROW 30 : F-3 06 . ... : F-3 06 . ... : C-2 00 . ... : D-# 03 1 ... : ... .. . ... : C-4 08 . ... : D#2 09 C ... : C-1 01 F ...
ROW 31 : ... .. . ... : ... .. . ... : --- .. . ... : D-# 03 2 ... : ... .. . ... : ... .. . ... : ... .. . ... : --- .. . ...
ROW 32 : ... .. . ... : ... .. . ... : C-2 00 . ... : D-# 03 3 ... : ... .. . ... : D-4 08 . ... : D#2 09 A ... : C-1 01 C ...
ROW 33 : D#3 0C . ... : ... .. . ... : --- .. . ... : D-# 03 4 ... : ... .. . ... : ... .. . ... : ... .. . ... : --- .. . ...
ROW 34 : ... .. . ... : D#3 0C . ... : C-2 00 . ... : D-# 03 5 ... : ... .. . ... : D#4 08 . ... : D#2 09 9 ... : C-1 01 A ...
ROW 35 : D#3 06 . ... : ... .. . ... : --- .. . ... : D-# 03 6 ... : ... .. . ... : ... .. . ... : ... .. . ... : --- .. . ...
ROW 36 : ... .. . ... : D#3 06 . ... : C-2 00 . ... : D-# 03 7 ... : ... .. . ... : D-4 08 . ... : D#2 09 7 ... : C-1 01 9 ...
ROW 37 : ... .. . ... : ... .. . ... : --- .. . ... : D-# 03 8 ... : ... .. . ... : ... .. . ... : ... .. . ... : --- .. . ...
ROW 38 : C-3 0C . ... : F-3 06 . ... : C-3 00 . ... : 4-# 03 C ... : ... .. . ... : F-4 08 . ... : D#2 09 C ... : C-1 01 F ...
ROW 39 : ... .. . ... : ... .. . ... : --- .. . ... : ... .. . ... : ... .. . ... : ... .. . ... : ... .. . ... : --- .. . ...
ROW 3A : ... .. . ... : ... .. . ... : C-2 00 . ... : 5-# 03 8 ... : ... .. . ... : D#4 08 . ... : D#2 09 A ... : C-1 01 C ...
ROW 3B : D#3 0C . ... : D#3 0C . ... : --- .. . ... : ... .. . ... : ... .. . ... : ... .. . ... : ... .. . ... : --- .. . ...
ROW 3C : ... .. . ... : ... .. . ... : C-2 00 . ... : 5-# 03 A ... : ... .. . ... : D-4 08 . ... : D#2 09 9 ... : C-1 01 A ...
ROW 3D : ... .. . ... : D#3 06 . ... : --- .. . ... : ... .. . ... : ... .. . ... : ... .. . ... : ... .. . ... : --- .. . ...
ROW 3E : C-3 0C . ... : ... .. . ... : C-2 00 . ... : 3-# 02 8 ... : ... .. . ... : C-4 08 . ... : D#2 09 7 ... : C-1 01 9 ...
ROW 3F : ... .. . ... : ... .. . ... : --- .. . ... : ... .. . ... : ... .. . ... : ... .. . ... : ... .. . ... : --- .. . ...
ROW 40 : C-3 06 . ... : C-3 0C . ... : C-2 00 . ... : ... .. . ... : ... .. . ... : D-4 08 . ... : D-2 09 C ... : C-1 01 F ...
ROW 41 : ... .. . ... : ... .. . ... : --- .. . ... : ... .. . ... : ... .. . ... : ... .. . ... : ... .. . ... : --- .. . ...
ROW 42 : D-3 06 . ... : ... .. . ... : C-2 00 . ... : ... .. . ... : ... .. . ... : ... .. . ... : D-2 09 A ... : C-1 01 C ...
ROW 43 : ... .. . ... : D-3 0C . ... : --- .. . ... : 1-# 03 1 ... : ... .. . ... : ... .. . ... : ... .. . ... : --- .. . ...
ROW 44 : ... .. . ... : ... .. . ... : C-2 00 . ... : 1-# 03 2 ... : ... .. . ... : G-3 08 . ... : D-2 09 9 ... : C-1 01 A ...
ROW 45 : ... .. . ... : ... .. . ... : --- .. . ... : 1-# 03 3 ... : ... .. . ... : ... .. . ... : ... .. . ... : --- .. . ...
ROW 46 : D-3 0C . ... : C-3 0C . ... : C-2 00 . ... : 1-# 03 4 ... : ... .. . ... : ... .. . ... : D-2 09 7 ... : C-1 01 9 ...
ROW 47 : ... .. . ... : ... .. . ... : --- .. . ... : 1-# 03 5 ... : ... .. . ... : ... .. . ... : ... .. . ... : --- .. . ...
ROW 48 : F-3 06 . ... : C-3 06 . ... : C-3 00 . ... : 4-# 03 C ... : ... .. . ... : G-3 08 . ... : D-2 09 C ... : C-1 01 F ...
ROW 49 : ... .. . ... : ... .. . ... : --- .. . ... : ... .. . ... : ... .. . ... : ... .. . ... : ... .. . ... : --- .. . ...
ROW 4A : ... .. . ... : D-3 06 . ... : C-2 00 . ... : ... .. . ... : ... .. . ... : ... .. . ... : D-2 09 A ... : C-1 01 C ...
ROW 4B : ... .. . ... : ... .. . ... : --- .. . ... : ... .. . ... : ... .. . ... : ... .. . ... : ... .. . ... : --- .. . ...
ROW 4C : D-3 0C . ... : ... .. . ... : C-2 00 . ... : ... .. . ... : ... .. . ... : ... .. . ... : D-2 09 9 ... : C-1 01 A ...
ROW 4D : ... .. . ... : ... .. . ... : --- .. . ... : ... .. . ... : ... .. . ... : ... .. . ... : ... .. . ... : --- .. . ...
ROW 4E : D-3 06 . ... : D-3 0C . ... : C-2 00 . ... : ... .. . ... : ... .. . ... : G-3 08 . ... : D-2 09 7 ... : C-1 01 9 ...
ROW 4F : ... .. . ... : ... .. . ... : --- .. . ... : ... .. . ... : ... .. . ... : ... .. . ... : ... .. . ... : --- .. . ...
ROW 50 : F-3 06 . ... : F-3 06 . ... : C-2 00 . ... : D-# 03 1 ... : ... .. . ... : ... .. . ... : D-2 09 C ... : C-1 01 F ...
ROW 51 : ... .. . ... : ... .. . ... : --- .. . ... : D-# 03 2 ... : ... .. . ... : ... .. . ... : ... .. . ... : --- .. . ...
ROW 52 : ... .. . ... : ... .. . ... : C-2 00 . ... : D-# 03 3 ... : ... .. . ... : ... .. . ... : D-2 09 A ... : C-1 01 C ...
ROW 53 : D-3 0C . ... : ... .. . ... : --- .. . ... : D-# 03 4 ... : ... .. . ... : ... .. . ... : ... .. . ... : --- .. . ...
ROW 54 : ... .. . ... : D-3 0C . ... : C-2 00 . ... : D-# 03 5 ... : ... .. . ... : D-4 08 . ... : D-2 09 9 ... : C-1 01 A ...
ROW 55 : D-3 06 . ... : ... .. . ... : --- .. . ... : D-# 03 6 ... : ... .. . ... : ... .. . ... : ... .. . ... : --- .. . ...
ROW 56 : ... .. . ... : D-3 06 . ... : C-2 00 . ... : D-# 03 7 ... : ... .. . ... : ... .. . ... : D-2 09 7 ... : C-1 01 9 ...
ROW 57 : ... .. . ... : ... .. . ... : --- .. . ... : D-# 03 8 ... : ... .. . ... : ... .. . ... : ... .. . ... : --- .. . ...
ROW 58 : C-3 0C . ... : F-3 06 . ... : C-3 00 . ... : 4-# 03 C ... : ... .. . ... : ... .. . ... : D-2 09 C ... : C-1 01 F ...
ROW 59 : ... .. . ... : ... .. . ... : --- .. . ... : ... .. . ... : ... .. . ... : ... .. . ... : ... .. . ... : --- .. . ...
ROW 5A : ... .. . ... : ... .. . ... : C-2 00 . ... : 5-# 03 8 ... : ... .. . ... : F-4 08 . ... : D-2 09 A ... : C-1 01 C ...
ROW 5B : D-3 0C . ... : D-3 0C . ... : --- .. . ... : ... .. . ... : ... .. . ... : ... .. . ... : ... .. . ... : --- .. . ...
ROW 5C : ... .. . ... : ... .. . ... : C-2 00 . ... : 5-# 03 A ... : ... .. . ... : ... .. . ... : D-2 09 9 ... : C-1 01 A ...
ROW 5D : ... .. . ... : D-3 06 . ... : --- .. . ... : ... .. . ... : ... .. . ... : ... .. . ... : ... .. . ... : --- .. . ...
ROW 5E : C-3 0C . ... : ... .. . ... : C-2 00 . ... : 3-# 02 8 ... : ... .. . ... : ... .. . ... : D-2 09 7 ... : C-1 01 9 ...
ROW 5F : ... .. . ... : ... .. . ... : --- .. . ... : ... .. . ... : ... .. . ... : ... .. . ... : ... .. . ... : --- .. . ...
ROW 60 : C-3 06 . ... : C-3 0C . ... : C-2 00 . ... : ... .. . ... : ... .. . ... : D#4 08 . ... : D#2 09 C ... : C-1 01 F ...
ROW 61 : ... .. . ... : ... .. . ... : --- .. . ... : ... .. . ... : ... .. . ... : ... .. . ... : ... .. . ... : --- .. . ...
ROW 62 : D#3 06 . ... : ... .. . ... : C-2 00 . ... : ... .. . ... : ... .. . ... : ... .. . ... : D#2 09 A ... : C-1 01 C ...
ROW 63 : ... .. . ... : D#3 0C . ... : --- .. . ... : 1-# 03 1 ... : ... .. . ... : ... .. . ... : ... .. . ... : --- .. . ...
ROW 64 : ... .. . ... : ... .. . ... : C-2 00 . ... : 1-# 03 2 ... : ... .. . ... : D-4 08 . ... : D#2 09 9 ... : C-1 01 A ...
ROW 65 : ... .. . ... : ... .. . ... : --- .. . ... : 1-# 03 3 ... : ... .. . ... : ... .. . ... : ... .. . ... : --- .. . ...
ROW 66 : F-3 0C . ... : C-3 0C . ... : C-2 00 . ... : 1-# 03 4 ... : ... .. . ... : ... .. . ... : D#2 09 7 ... : C-1 01 9 ...
ROW 67 : ... .. . ... : ... .. . ... : --- .. . ... : 1-# 03 5 ... : ... .. . ... : ... .. . ... : ... .. . ... : --- .. . ...
ROW 68 : F-3 06 . ... : C-3 06 . ... : C-3 00 . ... : 4-# 03 C ... : ... .. . ... : C-4 08 . ... : D#2 09 C ... : C-1 01 F ...
ROW 69 : ... .. . ... : ... .. . ... : --- .. . ... : ... .. . ... : ... .. . ... : ... .. . ... : ... .. . ... : --- .. . ...
ROW 6A : ... .. . ... : D#3 06 . ... : C-2 00 . ... : ... .. . ... : ... .. . ... : ... .. . ... : D#2 09 A ... : C-1 01 C ...
ROW 6B : ... .. . ... : ... .. . ... : --- .. . ... : ... .. . ... : ... .. . ... : ... .. . ... : ... .. . ... : --- .. . ...
ROW 6C : D#3 0C . ... : ... .. . ... : C-2 00 . ... : ... .. . ... : ... .. . ... : F-4 08 . ... : D#2 09 9 ... : C-1 01 A ...
ROW 6D : ... .. . ... : ... .. . ... : --- .. . ... : ... .. . ... : ... .. . ... : ... .. . ... : ... .. . ... : --- .. . ...
ROW 6E : F-3 06 . ... : F-3 0C . ... : C-2 00 . ... : ... .. . ... : ... .. . ... : ... .. . ... : D#2 09 7 ... : C-1 01 9 ...
ROW 6F : ... .. . ... : ... .. . ... : --- .. . ... : ... .. . ... : ... .. . ... : ... .. . ... : ... .. . ... : --- .. . ...
ROW 70 : F-3 06 . ... : F-3 06 . ... : C-2 00 . ... : D-# 03 1 ... : ... .. . ... : G-4 08 . ... : D-2 09 C ... : C-1 01 F ...
ROW 71 : ... .. . ... : ... .. . ... : --- .. . ... : D-# 03 2 ... : ... .. . ... : ... .. . ... : ... .. . ... : --- .. . ...
ROW 72 : ... .. . ... : ... .. . ... : C-2 00 . ... : D-# 03 3 ... : ... .. . ... : F-4 08 . ... : D-2 09 A ... : C-1 01 C ...
ROW 73 : D-3 0C . ... : ... .. . ... : --- .. . ... : D-# 03 4 ... : ... .. . ... : ... .. . ... : ... .. . ... : --- .. . ...
ROW 74 : ... .. . ... : D-3 0C . ... : C-2 00 . ... : D-# 03 5 ... : ... .. . ... : D#4 08 . ... : D-2 09 9 ... : C-1 01 A ...
ROW 75 : D-3 06 . ... : ... .. . ... : --- .. . ... : D-# 03 6 ... : ... .. . ... : ... .. . ... : ... .. . ... : --- .. . ...
ROW 76 : ... .. . ... : F-3 06 . ... : C-2 00 . ... : D-# 03 7 ... : ... .. . ... : D-4 08 . ... : D-2 09 7 ... : C-1 01 9 ...
ROW 77 : ... .. . ... : ... .. . ... : --- .. . ... : D-# 03 8 ... : ... .. . ... : ... .. . ... : ... .. . ... : --- .. . ...
ROW 78 : C-3 0C . ... : F-3 06 . ... : C-3 00 . ... : 4-# 03 C ... : ... .. . ... : F-4 08 . ... : D-2 09 C ... : C-1 01 F ...
ROW 79 : ... .. . ... : ... .. . ... : --- .. . ... : ... .. . ... : ... .. . ... : ... .. . ... : ... .. . ... : --- .. . ...
ROW 7A : ... .. . ... : ... .. . ... : C-2 00 . ... : 5-# 03 8 ... : ... .. . ... : B-4 08 . ... : D-2 09 A ... : C-1 01 C ...
ROW 7B : D-3 0C . ... : E-3 0C . ... : --- .. . ... : ... .. . ... : ... .. . ... : ... .. . ... : ... .. . ... : --- .. . ...
ROW 7C : ... .. . ... : ... .. . ... : C-2 00 . ... : 5-# 03 A ... : ... .. . ... : D-5 08 . ... : B-1 09 9 ... : C-1 01 A ...
ROW 7D : ... .. . ... : D-3 06 . ... : --- .. . ... : ... .. . ... : ... .. . ... : ... .. . ... : ... .. . ... : --- .. . ...
ROW 7E : C-3 0C . ... : ... .. . ... : C-2 00 . ... : 3-# 02 8 ... : ... .. . ... : B-4 08 . ... : B-1 09 7 ... : C-1 01 9 ...
ROW 7F : ... .. . ... : ... .. . ... : --- .. . ... : ... .. . ... : ... .. . ... : ... .. . ... : ... .. . ... : --- .. . ...

PATTERN 08
ROW 00 : C-3 0C 7 ... : C-3 0C 4 ... : C-2 00 . ... : 0-# 03 F ... : ... .. . ... : C-5 08 F ... : G-2 09 C ... : C-1 01 F ...
ROW 01 : ... .. . ... : ... .. . ... : --- .. . ... : ... .. . ... : ... .. . ... : ... .. . ... : ... .. . ... : --- .. . ...
ROW 02 : D-3 06 . ... : ... .. . ... : C-2 00 . ... : ... .. . ... : ... .. . ... : ... .. . ... : G-2 09 A ... : C-1 01 C ...
ROW 03 : ... .. . ... : D-3 0C . ... : --- .. . ... : 1-# 03 1 ... : ... .. . ... : ... .. . ... : ... .. . ... : --- .. . ...
ROW 04 : ... .. . ... : ... .. . ... : C-2 00 . ... : 1-# 03 2 ... : ... .. . ... : G-4 08 . ... : G-2 09 9 ... : C-1 01 A ...
ROW 05 : ... .. . ... : ... .. . ... : --- .. . ... : 1-# 03 3 ... : ... .. . ... : ... .. . ... : ... .. . ... : --- .. . ...
ROW 06 : D#3 0C . ... : C-3 0C . ... : C-2 00 . ... : 1-# 03 4 ... : ... .. . ... : D#4 08 . ... : G-2 09 7 ... : C-1 01 9 ...
ROW 07 : ... .. . ... : ... .. . ... : --- .. . ... : 1-# 03 5 ... : ... .. . ... : ... .. . ... : ... .. . ... : --- .. . ...
ROW 08 : F-3 06 . ... : C-3 06 . ... : C-3 00 . ... : 4-# 03 C ... : ... .. . ... : C-4 08 . ... : G-2 09 C ... : C-1 01 F ...
ROW 09 : ... .. . ... : ... .. . ... : --- .. . ... : ... .. . ... : ... .. . ... : ... .. . ... : ... .. . ... : --- .. . ...
ROW 0A : ... .. . ... : D-3 06 . ... : C-2 00 . ... : ... .. . ... : ... .. . ... : ... .. . ... : G-2 09 A ... : C-1 01 C ...
ROW 0B : ... .. . ... : ... .. . ... : --- .. . ... : ... .. . ... : ... .. . ... : ... .. . ... : ... .. . ... : --- .. . ...
ROW 0C : D-3 0C . ... : ... .. . ... : C-2 00 . ... : ... .. . ... : ... .. . ... : G-4 08 . ... : G-2 09 9 ... : C-1 01 A ...
ROW 0D : ... .. . ... : ... .. . ... : --- .. . ... : ... .. . ... : ... .. . ... : ... .. . ... : ... .. . ... : --- .. . ...
ROW 0E : D#3 06 . ... : D#3 0C . ... : C-2 00 . ... : ... .. . ... : ... .. . ... : ... .. . ... : G-2 09 7 ... : C-1 01 9 ...
ROW 0F : ... .. . ... : ... .. . ... : --- .. . ... : ... .. . ... : ... .. . ... : ... .. . ... : ... .. . ... : --- .. . ...
ROW 10 : F-3 06 . ... : F-3 06 . ... : C-2 00 . ... : D-# 03 1 ... : ... .. . ... : G-4 08 . ... : G-2 09 C ... : C-1 01 F ...
ROW 11 : ... .. . ... : ... .. . ... : --- .. . ... : D-# 03 2 ... : ... .. . ... : ... .. . ... : ... .. . ... : --- .. . ...
ROW 12 : ... .. . ... : ... .. . ... : C-2 00 . ... : D-# 03 3 ... : ... .. . ... : ... .. . ... : G-2 09 A ... : C-1 01 C ...
ROW 13 : D#3 0C . ... : ... .. . ... : --- .. . ... : D-# 03 4 ... : ... .. . ... : ... .. . ... : ... .. . ... : --- .. . ...
ROW 14 : ... .. . ... : D-3 0C . ... : C-2 00 . ... : D-# 03 5 ... : ... .. . ... : C-4 08 . ... : G-2 09 9 ... : C-1 01 A ...
ROW 15 : D-3 06 . ... : ... .. . ... : --- .. . ... : D-# 03 6 ... : ... .. . ... : ... .. . ... : ... .. . ... : --- .. . ...
ROW 16 : ... .. . ... : D#3 06 . ... : C-2 00 . ... : D-# 03 7 ... : ... .. . ... : ... .. . ... : G-2 09 7 ... : C-1 01 9 ...
ROW 17 : ... .. . ... : ... .. . ... : --- .. . ... : D-# 03 8 ... : ... .. . ... : ... .. . ... : ... .. . ... : --- .. . ...
ROW 18 : C-3 0C . ... : F-3 06 . ... : C-3 00 . ... : 4-# 03 C ... : ... .. . ... : G-4 08 . ... : G-2 09 C ... : C-1 01 F ...
ROW 19 : ... .. . ... : ... .. . ... : --- .. . ... : ... .. . ... : ... .. . ... : ... .. . ... : ... .. . ... : --- .. . ...
ROW 1A : ... .. . ... : ... .. . ... : C-2 00 . ... : 5-# 03 8 ... : ... .. . ... : ... .. . ... : G-2 09 A ... : C-1 01 C ...
ROW 1B : D-3 0C . ... : D#3 0C . ... : --- .. . ... : ... .. . ... : ... .. . ... : ... .. . ... : ... .. . ... : --- .. . ...
ROW 1C : ... .. . ... : ... .. . ... : C-2 00 . ... : 5-# 03 A ... : ... .. . ... : F-4 08 . ... : G-2 09 9 ... : C-1 01 A ...
ROW 1D : ... .. . ... : D-3 06 . ... : --- .. . ... : ... .. . ... : ... .. . ... : ... .. . ... : ... .. . ... : --- .. . ...
ROW 1E : C-3 0C . ... : ... .. . ... : C-2 00 . ... : 3-# 02 8 ... : ... .. . ... : ... .. . ... : G-2 09 7 ... : C-1 01 9 ...
ROW 1F : ... .. . ... : ... .. . ... : --- .. . ... : ... .. . ... : ... .. . ... : ... .. . ... : ... .. . ... : --- .. . ...
ROW 20 : C-3 06 . ... : C-3 0C . ... : C-2 00 . ... : ... .. . ... : ... .. . ... : D#4 08 . ... : D#2 09 C ... : C-1 01 F ...
ROW 21 : ... .. . ... : ... .. . ... : --- .. . ... : ... .. . ... : ... .. . ... : ... .. . ... : ... .. . ... : --- .. . ...
ROW 22 : D#3 06 . ... : ... .. . ... : C-2 00 . ... : ... .. . ... : ... .. . ... : ... .. . ... : D#2 09 A ... : C-1 01 C ...
ROW 23 : ... .. . ... : D#3 0C . ... : --- .. . ... : 1-# 03 1 ... : ... .. . ... : ... .. . ... : ... .. . ... : --- .. . ...
ROW 24 : ... .. . ... : ... .. . ... : C-2 00 . ... : 1-# 03 2 ... : ... .. . ... : C-4 08 . ... : D#2 09 9 ... : C-1 01 A ...
ROW 25 : ... .. . ... : ... .. . ... : --- .. . ... : 1-# 03 3 ... : ... .. . ... : ... .. . ... : ... .. . ... : --- .. . ...
ROW 26 : D#3 0C . ... : C-3 0C . ... : C-2 00 . ... : 1-# 03 4 ... : ... .. . ... : ... .. . ... : D#2 09 7 ... : C-1 01 9 ...
ROW 27 : ... .. . ... : ... .. . ... : --- .. . ... : 1-# 03 5 ... : ... .. . ... : ... .. . ... : ... .. . ... : --- .. . ...
ROW 28 : F-3 06 . ... : C-3 06 . ... : C-3 00 . ... : 4-# 03 C ... : ... .. . ... : D-4 08 . ... : D#2 09 C ... : C-1 01 F ...
ROW 29 : ... .. . ... : ... .. . ... : --- .. . ... : ... .. . ... : ... .. . ... : ... .. . ... : ... .. . ... : --- .. . ...
ROW 2A : ... .. . ... : D#3 06 . ... : C-2 00 . ... : ... .. . ... : ... .. . ... : ... .. . ... : D#2 09 A ... : C-1 01 C ...
ROW 2B : ... .. . ... : ... .. . ... : --- .. . ... : ... .. . ... : ... .. . ... : ... .. . ... : ... .. . ... : --- .. . ...
ROW 2C : D#3 0C . ... : ... .. . ... : C-2 00 . ... : ... .. . ... : ... .. . ... : D#4 08 . ... : D#2 09 9 ... : C-1 01 A ...
ROW 2D : ... .. . ... : ... .. . ... : --- .. . ... : ... .. . ... : ... .. . ... : ... .. . ... : ... .. . ... : --- .. . ...
ROW 2E : D#3 06 . ... : D#3 0C . ... : C-2 00 . ... : ... .. . ... : ... .. . ... : ... .. . ... : D#2 09 7 ... : C-1 01 9 ...
ROW 2F : ... .. . ... : ... .. . ... : --- .. . ... : ... .. . ... : ... .. . ... : ... .. . ... : ... .. . ... : --- .. . ...
ROW 30 : F-3 06 . ... : F-3 06 . ... : C-2 00 . ... : D-# 03 1 ... : ... .. . ... : D#4 08 . ... : D#2 09 C ... : C-1 01 F ...
ROW 31 : ... .. . ... : ... .. . ... : --- .. . ... : D-# 03 2 ... : ... .. . ... : ... .. . ... : ... .. . ... : --- .. . ...
ROW 32 : ... .. . ... : ... .. . ... : C-2 00 . ... : D-# 03 3 ... : ... .. . ... : D-4 08 . ... : D#2 09 A ... : C-1 01 C ...
ROW 33 : D#3 0C . ... : ... .. . ... : --- .. . ... : D-# 03 4 ... : ... .. . ... : ... .. . ... : ... .. . ... : --- .. . ...
ROW 34 : ... .. . ... : D#3 0C . ... : C-2 00 . ... : D-# 03 5 ... : ... .. . ... : C-4 08 . ... : D#2 09 9 ... : C-1 01 A ...
ROW 35 : D#3 06 . ... : ... .. . ... : --- .. . ... : D-# 03 6 ... : ... .. . ... : ... .. . ... : ... .. . ... : --- .. . ...
ROW 36 : ... .. . ... : D#3 06 . ... : C-2 00 . ... : D-# 03 7 ... : ... .. . ... : D-4 08 . ... : D#2 09 7 ... : C-1 01 9 ...
ROW 37 : ... .. . ... : ... .. . ... : --- .. . ... : D-# 03 8 ... : ... .. . ... : ... .. . ... : ... .. . ... : --- .. . ...
ROW 38 : C-3 0C . ... : F-3 06 . ... : C-3 00 . ... : 4-# 03 C ... : ... .. . ... : F-4 08 . ... : D#2 09 C ... : C-1 01 F ...
ROW 39 : ... .. . ... : ... .. . ... : --- .. . ... : ... .. . ... : ... .. . ... : ... .. . ... : ... .. . ... : --- .. . ...
ROW 3A : ... .. . ... : ... .. . ... : C-2 00 . ... : 5-# 03 8 ... : ... .. . ... : D#4 08 . ... : D#2 09 A ... : C-1 01 C ...
ROW 3B : D#3 0C . ... : D#3 0C . ... : --- .. . ... : ... .. . ... : ... .. . ... : ... .. . ... : ... .. . ... : --- .. . ...
ROW 3C : ... .. . ... : ... .. . ... : C-2 00 . ... : 5-# 03 A ... : ... .. . ... : D-4 08 . ... : D#2 09 9 ... : C-1 01 A ...
ROW 3D : ... .. . ... : D#3 06 . ... : --- .. . ... : ... .. . ... : ... .. . ... : ... .. . ... : ... .. . ... : --- .. . ...
ROW 3E : C-3 0C . ... : ... .. . ... : C-2 00 . ... : 3-# 02 8 ... : ... .. . ... : C-4 08 . ... : D#2 09 7 ... : C-1 01 9 ...
ROW 3F : ... .. . ... : ... .. . ... : --- .. . ... : ... .. . ... : ... .. . ... : ... .. . ... : ... .. . ... : --- .. . ...
ROW 40 : C-3 06 . ... : C-3 0C . ... : C-2 00 . ... : ... .. . ... : ... .. . ... : D-4 08 . ... : D-2 09 C ... : C-1 01 F ...
ROW 41 : ... .. . ... : ... .. . ... : --- .. . ... : ... .. . ... : ... .. . ... : ... .. . ... : ... .. . ... : --- .. . ...
ROW 42 : D-3 06 . ... : ... .. . ... : C-2 00 . ... : ... .. . ... : ... .. . ... : ... .. . ... : D-2 09 A ... : C-1 01 C ...
ROW 43 : ... .. . ... : D-3 0C . ... : --- .. . ... : 1-# 03 1 ... : ... .. . ... : ... .. . ... : ... .. . ... : --- .. . ...
ROW 44 : ... .. . ... : ... .. . ... : C-2 00 . ... : 1-# 03 2 ... : ... .. . ... : G-3 08 . ... : D-2 09 9 ... : C-1 01 A ...
ROW 45 : ... .. . ... : ... .. . ... : --- .. . ... : 1-# 03 3 ... : ... .. . ... : ... .. . ... : ... .. . ... : --- .. . ...
ROW 46 : D-3 0C . ... : C-3 0C . ... : C-2 00 . ... : 1-# 03 4 ... : ... .. . ... : ... .. . ... : D-2 09 7 ... : C-1 01 9 ...
ROW 47 : ... .. . ... : ... .. . ... : --- .. . ... : 1-# 03 5 ... : ... .. . ... : ... .. . ... : ... .. . ... : --- .. . ...
ROW 48 : F-3 06 . ... : C-3 06 . ... : C-3 00 . ... : 4-# 03 C ... : ... .. . ... : C-4 08 . ... : D-2 09 C ... : C-1 01 F ...
ROW 49 : ... .. . ... : ... .. . ... : --- .. . ... : ... .. . ... : ... .. . ... : ... .. . ... : ... .. . ... : --- .. . ...
ROW 4A : ... .. . ... : D-3 06 . ... : C-2 00 . ... : ... .. . ... : ... .. . ... : ... .. . ... : D-2 09 A ... : C-1 01 C ...
ROW 4B : ... .. . ... : ... .. . ... : --- .. . ... : ... .. . ... : ... .. . ... : ... .. . ... : ... .. . ... : --- .. . ...
ROW 4C : D-3 0C . ... : ... .. . ... : C-2 00 . ... : ... .. . ... : ... .. . ... : ... .. . ... : D-2 09 9 ... : C-1 01 A ...
ROW 4D : ... .. . ... : ... .. . ... : --- .. . ... : ... .. . ... : ... .. . ... : ... .. . ... : ... .. . ... : --- .. . ...
ROW 4E : D-3 06 . ... : D-3 0C . ... : C-2 00 . ... : ... .. . ... : ... .. . ... : D#4 08 . ... : D-2 09 7 ... : C-1 01 9 ...
ROW 4F : ... .. . ... : ... .. . ... : --- .. . ... : ... .. . ... : ... .. . ... : ... .. . ... : ... .. . ... : --- .. . ...
ROW 50 : F-3 06 . ... : F-3 06 . ... : C-2 00 . ... : D-# 03 1 ... : ... .. . ... : ... .. . ... : D-2 09 C ... : C-1 01 F ...
ROW 51 : ... .. . ... : ... .. . ... : --- .. . ... : D-# 03 2 ... : ... .. . ... : ... .. . ... : ... .. . ... : --- .. . ...
ROW 52 : ... .. . ... : ... .. . ... : C-2 00 . ... : D-# 03 3 ... : ... .. . ... : ... .. . ... : D-2 09 A ... : C-1 01 C ...
ROW 53 : D-3 0C . ... : ... .. . ... : --- .. . ... : D-# 03 4 ... : ... .. . ... : ... .. . ... : ... .. . ... : --- .. . ...
ROW 54 : ... .. . ... : D-3 0C . ... : C-2 00 . ... : D-# 03 5 ... : ... .. . ... : D-4 08 . ... : D-2 09 9 ... : C-1 01 A ...
ROW 55 : D-3 06 . ... : ... .. . ... : --- .. . ... : D-# 03 6 ... : ... .. . ... : ... .. . ... : ... .. . ... : --- .. . ...
ROW 56 : ... .. . ... : D-3 06 . ... : C-2 00 . ... : D-# 03 7 ... : ... .. . ... : ... .. . ... : D-2 09 7 ... : C-1 01 9 ...
ROW 57 : ... .. . ... : ... .. . ... : --- .. . ... : D-# 03 8 ... : ... .. . ... : ... .. . ... : ... .. . ... : --- .. . ...
ROW 58 : C-3 0C . ... : F-3 06 . ... : C-3 00 . ... : 4-# 03 C ... : ... .. . ... : ... .. . ... : D-2 09 C ... : C-1 01 F ...
ROW 59 : ... .. . ... : ... .. . ... : --- .. . ... : ... .. . ... : ... .. . ... : ... .. . ... : ... .. . ... : --- .. . ...
ROW 5A : ... .. . ... : ... .. . ... : C-2 00 . ... : 5-# 03 8 ... : ... .. . ... : F-4 08 . ... : D-2 09 A ... : C-1 01 C ...
ROW 5B : D-3 0C . ... : D-3 0C . ... : --- .. . ... : ... .. . ... : ... .. . ... : ... .. . ... : ... .. . ... : --- .. . ...
ROW 5C : ... .. . ... : ... .. . ... : C-2 00 . ... : 5-# 03 A ... : ... .. . ... : ... .. . ... : D-2 09 9 ... : C-1 01 A ...
ROW 5D : ... .. . ... : D-3 06 . ... : --- .. . ... : ... .. . ... : ... .. . ... : ... .. . ... : ... .. . ... : --- .. . ...
ROW 5E : C-3 0C . ... : ... .. . ... : C-2 00 . ... : 3-# 02 8 ... : ... .. . ... : ... .. . ... : D-2 09 7 ... : C-1 01 9 ...
ROW 5F : ... .. . ... : ... .. . ... : --- .. . ... : ... .. . ... : ... .. . ... : ... .. . ... : ... .. . ... : --- .. . ...
ROW 60 : C-3 06 . ... : C-3 0C . ... : C-2 00 . ... : ... .. . ... : ... .. . ... : D#4 08 . ... : D#2 09 C ... : C-1 01 F ...
ROW 61 : ... .. . ... : ... .. . ... : --- .. . ... : ... .. . ... : ... .. . ... : ... .. . ... : ... .. . ... : --- .. . ...
ROW 62 : D#3 06 . ... : ... .. . ... : C-2 00 . ... : ... .. . ... : ... .. . ... : ... .. . ... : D#2 09 A ... : C-1 01 C ...
ROW 63 : ... .. . ... : D#3 0C . ... : --- .. . ... : 1-# 03 1 ... : ... .. . ... : ... .. . ... : ... .. . ... : --- .. . ...
ROW 64 : ... .. . ... : ... .. . ... : C-2 00 . ... : 1-# 03 2 ... : ... .. . ... : D-4 08 . ... : D#2 09 9 ... : C-1 01 A ...
ROW 65 : ... .. . ... : ... .. . ... : --- .. . ... : 1-# 03 3 ... : ... .. . ... : ... .. . ... : ... .. . ... : --- .. . ...
ROW 66 : F-3 0C . ... : C-3 0C . ... : C-2 00 . ... : 1-# 03 4 ... : ... .. . ... : ... .. . ... : D#2 09 7 ... : C-1 01 9 ...
ROW 67 : ... .. . ... : ... .. . ... : --- .. . ... : 1-# 03 5 ... : ... .. . ... : ... .. . ... : ... .. . ... : --- .. . ...
ROW 68 : F-3 06 . ... : C-3 06 . ... : C-3 00 . ... : 4-# 03 C ... : ... .. . ... : C-4 08 . ... : D#2 09 C ... : C-1 01 F ...
ROW 69 : ... .. . ... : ... .. . ... : --- .. . ... : ... .. . ... : ... .. . ... : ... .. . ... : ... .. . ... : --- .. . ...
ROW 6A : ... .. . ... : D#3 06 . ... : C-2 00 . ... : ... .. . ... : ... .. . ... : ... .. . ... : D#2 09 A ... : C-1 01 C ...
ROW 6B : ... .. . ... : ... .. . ... : --- .. . ... : ... .. . ... : ... .. . ... : ... .. . ... : ... .. . ... : --- .. . ...
ROW 6C : D#3 0C . ... : ... .. . ... : C-2 00 . ... : ... .. . ... : ... .. . ... : F-4 08 . ... : D#2 09 9 ... : C-1 01 A ...
ROW 6D : ... .. . ... : ... .. . ... : --- .. . ... : ... .. . ... : ... .. . ... : ... .. . ... : ... .. . ... : --- .. . ...
ROW 6E : F-3 06 . ... : F-3 0C . ... : C-2 00 . ... : ... .. . ... : ... .. . ... : ... .. . ... : D#2 09 7 ... : C-1 01 9 ...
ROW 6F : ... .. . ... : ... .. . ... : --- .. . ... : ... .. . ... : ... .. . ... : ... .. . ... : ... .. . ... : --- .. . ...
ROW 70 : F-3 06 . ... : F-3 06 . ... : C-2 00 . ... : D-# 03 1 ... : ... .. . ... : G-4 08 . ... : D-2 09 C ... : C-1 01 F ...
ROW 71 : ... .. . ... : ... .. . ... : --- .. . ... : D-# 03 2 ... : ... .. . ... : ... .. . ... : ... .. . ... : --- .. . ...
ROW 72 : ... .. . ... : ... .. . ... : C-2 00 . ... : D-# 03 3 ... : ... .. . ... : F-4 08 . ... : D-2 09 A ... : C-1 01 C ...
ROW 73 : D-3 0C . ... : ... .. . ... : --- .. . ... : D-# 03 4 ... : ... .. . ... : ... .. . ... : ... .. . ... : --- .. . ...
ROW 74 : ... .. . ... : D-3 0C . ... : C-2 00 . ... : D-# 03 5 ... : ... .. . ... : D#4 08 . ... : D-2 09 9 ... : C-1 01 A ...
ROW 75 : D-3 06 . ... : ... .. . ... : --- .. . ... : D-# 03 6 ... : ... .. . ... : ... .. . ... : ... .. . ... : --- .. . ...
ROW 76 : ... .. . ... : F-3 06 . ... : C-2 00 . ... : D-# 03 7 ... : ... .. . ... : D-4 08 . ... : D-2 09 7 ... : C-1 01 9 ...
ROW 77 : ... .. . ... : ... .. . ... : --- .. . ... : D-# 03 8 ... : ... .. . ... : ... .. . ... : ... .. . ... : --- .. . ...
ROW 78 : C-3 0C . ... : F-3 06 . ... : C-3 00 . ... : 4-# 03 C ... : ... .. . ... : F-4 08 . ... : D-2 09 C ... : C-1 01 F ...
ROW 79 : ... .. . ... : ... .. . ... : --- .. . ... : ... .. . ... : ... .. . ... : ... .. . ... : ... .. . ... : --- .. . ...
ROW 7A : ... .. . ... : ... .. . ... : C-2 00 . ... : 5-# 03 8 ... : ... .. . ... : B-4 08 . ... : D-2 09 A ... : C-1 01 C ...
ROW 7B : D-3 0C . ... : E-3 0C . ... : --- .. . ... : ... .. . ... : ... .. . ... : ... .. . ... : ... .. . ... : --- .. . ...
ROW 7C : ... .. . ... : ... .. . ... : C-2 00 . ... : 5-# 03 A ... : ... .. . ... : D-5 08 . ... : B-1 09 9 ... : C-1 01 A ...
ROW 7D : ... .. . ... : D-3 06 . ... : --- .. . ... : ... .. . ... : ... .. . ... : ... .. . ... : ... .. . ... : --- .. . ...
ROW 7E : C-3 0C . ... : ... .. . ... : C-2 00 . ... : 3-# 02 8 ... : ... .. . ... : B-4 08 . ... : B-1 09 7 ... : C-1 01 9 ...
ROW 7F : ... .. . ... : ... .. . ... : --- .. . ... : ... .. . ... : ... .. . ... : ... .. . ... : ... .. . ... : --- .. . ...

PATTERN 09
ROW 00 : G-4 0B 0 ... : C-5 0C F ... : ... .. . ... : 4-# 02 8 ... : ... .. . ... : C-3 08 2 ... : C-3 08 1 ... : C-2 04 4 ...
ROW 01 : ... .. 0 ... : ... .. . ... : ... .. . ... : ... .. . ... : ... .. . ... : ... .. 2 ... : ... .. 1 ... : ... .. . ...
ROW 02 : ... .. 1 ... : ... .. . ... : ... .. . ... : ... .. . ... : ... .. . ... : D-3 07 2 ... : ... .. 1 ... : ... .. . ...
ROW 03 : ... .. 2 ... : ... .. . ... : ... .. . ... : ... .. . ... : ... .. . ... : ... .. 2 ... : D-3 08 1 ... : ... .. . ...
ROW 04 : ... .. 3 ... : ... .. . ... : G-2 0E . ... : 4-# 02 . ... : ... .. . ... : ... .. 2 ... : ... .. 1 ... : ... .. . ...
ROW 05 : ... .. 4 ... : ... .. . ... : ... .. . ... : ... .. . ... : ... .. . ... : ... .. 2 ... : ... .. 1 ... : ... .. . ...
ROW 06 : ... .. 5 ... : ... .. . ... : ... .. . ... : ... .. . ... : ... .. . ... : D#3 08 2 ... : C-3 08 1 ... : ... .. . ...
ROW 07 : ... .. 6 ... : C-5 0B 0 ... : ... .. . ... : ... .. . ... : ... .. . ... : ... .. 2 ... : ... .. 1 ... : ... .. . ...
ROW 08 : ... .. 7 ... : ... .. 1 ... : C-2 0E . ... : 4-# 03 . ... : ... .. . ... : F-3 07 2 ... : C-3 08 1 ... : ... .. . ...
ROW 09 : ... .. 8 ... : ... .. 3 ... : ... .. . ... : ... .. . ... : ... .. . ... : ... .. 2 ... : ... .. 1 ... : ... .. . ...
ROW 0A : ... .. 9 ... : ... .. 5 ... : ... .. . ... : ... .. . ... : ... .. . ... : ... .. 3 ... : D-3 07 1 ... : ... .. . ...
ROW 0B : ... .. A ... : ... .. 6 ... : ... .. . ... : ... .. . ... : ... .. . ... : ... .. 3 ... : ... .. 1 ... : ... .. . ...
ROW 0C : ... .. B ... : ... .. 8 ... : ... .. . ... : ... .. . ... : ... .. . ... : D-3 08 3 ... : ... .. 1 ... : ... .. . ...
ROW 0D : ... .. C ... : ... .. A ... : ... .. . ... : ... .. . ... : ... .. . ... : ... .. 3 ... : ... .. 1 ... : ... .. . ...
ROW 0E : ... .. D ... : ... .. B ... : ... .. . ... : ... .. . ... : ... .. . ... : D#3 07 3 ... : D#3 08 1 ... : ... .. . ...
ROW 0F : ... .. E ... : ... .. D ... : ... .. . ... : ... .. . ... : ... .. . ... : ... .. 3 ... : ... .. 1 ... : ... .. . ...
ROW 10 : ... .. F ... : ... .. F ... : ... .. . ... : ... .. . ... : ... .. . ... : F-3 07 3 ... : F-3 07 1 ... : ... .. . ...
ROW 11 : ... .. E ... : ... .. E ... : ... .. . ... : ... .. . ... : ... .. . ... : ... .. 3 ... : ... .. 1 ... : ... .. . ...
ROW 12 : ... .. D ... : ... .. D ... : ... .. . ... : ... .. . ... : ... .. . ... : ... .. 3 ... : ... .. 1 ... : ... .. . ...
ROW 13 : ... .. C ... : ... .. C ... : ... .. . ... : ... .. . ... : ... .. . ... : D#3 08 3 ... : ... .. 2 ... : ... .. . ...
ROW 14 : ... .. B ... : ... .. B ... : G-2 0E . ... : ... .. . ... : ... .. . ... : ... .. 4 ... : D-3 08 2 ... : ... .. . ...
ROW 15 : ... .. A ... : ... .. A ... : ... .. . ... : ... .. . ... : ... .. . ... : D-3 07 4 ... : ... .. 2 ... : ... .. . ...
ROW 16 : ... .. 9 ... : ... .. 9 ... : ... .. . ... : ... .. . ... : ... .. . ... : ... .. 4 ... : D#3 07 2 ... : ... .. . ...
ROW 17 : ... .. 8 ... : ... .. 8 ... : ... .. . ... : ... .. . ... : ... .. . ... : ... .. 4 ... : ... .. 2 ... : ... .. . ...
ROW 18 : ... .. 7 ... : ... .. 7 ... : C-2 0E . ... : 4-# 03 . ... : ... .. . ... : C-3 08 4 ... : F-3 07 2 ... : C-2 04 6 ...
ROW 19 : ... .. 6 ... : ... .. 6 ... : ... .. . ... : ... .. . ... : ... .. . ... : ... .. 4 ... : ... .. 2 ... : ... .. . ...
ROW 1A : ... .. 5 ... : ... .. 5 ... : ... .. . ... : ... .. . ... : ... .. . ... : ... .. 4 ... : ... .. 2 ... : ... .. . ...
ROW 1B : ... .. 4 ... : ... .. 4 ... : ... .. . ... : ... .. . ... : ... .. . ... : D-3 08 4 ... : D#3 08 2 ... : ... .. . ...
ROW 1C : ... .. 3 ... : ... .. 3 ... : ... .. . ... : ... .. . ... : ... .. . ... : ... .. 4 ... : ... .. 2 ... : ... .. . ...
ROW 1D : ... .. 2 ... : ... .. 2 ... : ... .. . ... : ... .. . ... : ... .. . ... : ... .. 4 ... : D-3 07 2 ... : ... .. . ...
ROW 1E : ... .. 1 ... : ... .. 1 ... : ... .. . ... : 3-# 02 . ... : ... .. . ... : C-3 08 5 ... : ... .. 2 ... : ... .. . ...
ROW 1F : ... .. 0 ... : ... .. 0 ... : ... .. . ... : ... .. . ... : ... .. . ... : ... .. 5 ... : ... .. 2 ... : ... .. . ...
ROW 20 : G-4 0B 0 ... : D#4 0B 0 ... : ... .. . ... : 3-# 02 . ... : ... .. . ... : C-3 07 5 ... : C-3 08 2 ... : C-2 04 8 ...
ROW 21 : ... .. 0 ... : ... .. 0 ... : ... .. . ... : ... .. . ... : ... .. . ... : ... .. 5 ... : ... .. 2 ... : ... .. . ...
ROW 22 : ... .. 1 ... : ... .. 1 ... : ... .. . ... : ... .. . ... : ... .. . ... : D-3 07 5 ... : ... .. 2 ... : ... .. . ...
ROW 23 : ... .. 2 ... : ... .. 2 ... : ... .. . ... : ... .. . ... : ... .. . ... : ... .. 5 ... : D-3 08 2 ... : ... .. . ...
ROW 24 : ... .. 3 ... : ... .. 3 ... : G-2 0E . ... : ... .. . ... : ... .. . ... : ... .. 5 ... : ... .. 2 ... : ... .. . ...
ROW 25 : ... .. 4 ... : ... .. 4 ... : ... .. . ... : ... .. . ... : ... .. . ... : ... .. 5 ... : ... .. 3 ... : ... .. . ...
ROW 26 : ... .. 5 ... : ... .. 5 ... : ... .. . ... : ... .. . ... : ... .. . ... : D#3 08 5 ... : C-3 08 3 ... : ... .. . ...
ROW 27 : ... .. 6 ... : ... .. 6 ... : ... .. . ... : ... .. . ... : ... .. . ... : ... .. 5 ... : ... .. 3 ... : ... .. . ...
ROW 28 : ... .. 7 ... : ... .. 7 ... : C-2 0E . ... : 4-# 03 . ... : ... .. . ... : F-3 07 6 ... : C-3 07 3 ... : ... .. . ...
ROW 29 : ... .. 8 ... : ... .. 8 ... : ... .. . ... : ... .. . ... : ... .. . ... : ... .. 6 ... : ... .. 3 ... : ... .. . ...
ROW 2A : ... .. 9 ... : ... .. 9 ... : ... .. . ... : ... .. . ... : ... .. . ... : ... .. 6 ... : D-3 07 3 ... : ... .. . ...
ROW 2B : ... .. A ... : ... .. A ... : ... .. . ... : ... .. . ... : ... .. . ... : ... .. 6 ... : ... .. 3 ... : ... .. . ...
ROW 2C : ... .. B ... : ... .. B ... : ... .. . ... : ... .. . ... : ... .. . ... : D-3 08 6 ... : ... .. 3 ... : ... .. . ...
ROW 2D : ... .. C ... : ... .. C ... : ... .. . ... : ... .. . ... : ... .. . ... : ... .. 6 ... : ... .. 3 ... : ... .. . ...
ROW 2E : ... .. D ... : ... .. D ... : ... .. . ... : ... .. . ... : ... .. . ... : D#3 07 6 ... : D#3 08 3 ... : ... .. . ...
ROW 2F : ... .. E ... : ... .. E ... : ... .. . ... : ... .. . ... : ... .. . ... : ... .. 6 ... : ... .. 3 ... : ... .. . ...
ROW 30 : ... .. F ... : ... .. F ... : ... .. . ... : ... .. . ... : ... .. . ... : F-3 07 6 ... : F-3 07 3 ... : ... .. . ...
ROW 31 : ... .. E ... : ... .. E ... : ... .. . ... : ... .. . ... : ... .. . ... : ... .. 7 ... : ... .. 3 ... : ... .. . ...
ROW 32 : ... .. D ... : ... .. D ... : ... .. . ... : ... .. . ... : ... .. . ... : ... .. 7 ... : ... .. 3 ... : ... .. . ...
ROW 33 : ... .. C ... : ... .. C ... : ... .. . ... : ... .. . ... : ... .. . ... : D#3 08 7 ... : ... .. 3 ... : ... .. . ...
ROW 34 : ... .. B ... : ... .. B ... : G-2 0E . ... : ... .. . ... : ... .. . ... : ... .. 7 ... : D-3 08 3 ... : ... .. . ...
ROW 35 : ... .. A ... : ... .. A ... : ... .. . ... : ... .. . ... : ... .. . ... : D-3 07 7 ... : ... .. 3 ... : ... .. . ...
ROW 36 : ... .. 9 ... : ... .. 9 ... : ... .. . ... : ... .. . ... : ... .. . ... : ... .. 7 ... : D#3 07 3 ... : ... .. . ...
ROW 37 : ... .. 8 ... : ... .. 8 ... : ... .. . ... : ... .. . ... : ... .. . ... : ... .. 7 ... : ... .. 4 ... : ... .. . ...
ROW 38 : ... .. 7 ... : ... .. 7 ... : C-2 0E . ... : 4-# 03 . ... : ... .. . ... : C-3 08 7 ... : F-3 07 4 ... : C-2 04 5 ...
ROW 39 : ... .. 6 ... : C-4 0B 0 ... : ... .. . ... : ... .. . ... : ... .. . ... : ... .. 7 ... : ... .. 4 ... : ... .. . ...
ROW 3A : ... .. 5 ... : ... .. 2 ... : ... .. . ... : ... .. . ... : ... .. . ... : ... .. 7 ... : ... .. 4 ... : ... .. . ...
ROW 3B : ... .. 4 ... : ... .. 5 ... : ... .. . ... : 2-# 03 . ... : ... .. . ... : D-3 08 8 ... : D#3 08 4 ... : ... .. . ...
ROW 3C : ... .. 3 ... : ... .. 8 ... : ... .. . ... : ... .. . ... : ... .. . ... : ... .. 8 ... : ... .. 4 ... : G-1 04 8 ...
ROW 3D : ... .. 2 ... : ... .. 6 ... : ... .. . ... : ... .. . ... : ... .. . ... : ... .. 8 ... : D-3 07 4 ... : ... .. . ...
ROW 3E : ... .. 1 ... : ... .. 4 ... : ... .. . ... : 5-# 03 . ... : ... .. . ... : C-3 08 8 ... : ... .. 4 ... : ... .. . ...
ROW 3F : ... .. 0 ... : ... .. 2 ... : ... .. . ... : ... .. . ... : ... .. . ... : ... .. 8 ... : ... .. 4 ... : ... .. . ...
ROW 40 : F#4 0B 0 ... : D-4 0B 0 ... : ... .. . ... : 4-# 02 . ... : ... .. . ... : C-3 08 8 ... : C-3 08 4 ... : C-2 04 C ...
ROW 41 : ... .. 0 ... : ... .. 0 ... : ... .. . ... : ... .. . ... : ... .. . ... : ... .. 8 ... : ... .. 4 ... : ... .. . ...
ROW 42 : ... .. 1 ... : ... .. 1 ... : ... .. . ... : ... .. . ... : ... .. . ... : D-3 07 8 ... : ... .. 4 ... : ... .. . ...
ROW 43 : ... .. 2 ... : ... .. 2 ... : ... .. . ... : ... .. . ... : ... .. . ... : ... .. 8 ... : D-3 08 4 ... : ... .. . ...
ROW 44 : ... .. 3 ... : ... .. 3 ... : G-2 0E . ... : 4-# 02 . ... : ... .. . ... : ... .. 8 ... : ... .. 4 ... : ... .. . ...
ROW 45 : ... .. 4 ... : ... .. 4 ... : ... .. . ... : ... .. . ... : ... .. . ... : ... .. 9 ... : ... .. 4 ... : ... .. . ...
ROW 46 : ... .. 5 ... : ... .. 5 ... : ... .. . ... : ... .. . ... : ... .. . ... : D#3 08 9 ... : C-3 08 4 ... : ... .. . ...
ROW 47 : ... .. 6 ... : ... .. 6 ... : ... .. . ... : ... .. . ... : ... .. . ... : ... .. 9 ... : ... .. 4 ... : ... .. . ...
ROW 48 : ... .. 7 ... : ... .. 7 ... : C-2 0E . ... : 4-# 03 . ... : ... .. . ... : F-3 07 9 ... : C-3 08 4 ... : ... .. . ...
ROW 49 : ... .. 8 ... : ... .. 8 ... : ... .. . ... : ... .. . ... : ... .. . ... : ... .. 9 ... : ... .. 5 ... : ... .. . ...
ROW 4A : ... .. 9 ... : ... .. 9 ... : ... .. . ... : ... .. . ... : ... .. . ... : ... .. 9 ... : D-3 07 5 ... : ... .. . ...
ROW 4B : ... .. A ... : ... .. A ... : ... .. . ... : ... .. . ... : ... .. . ... : ... .. 9 ... : ... .. 5 ... : ... .. . ...
ROW 4C : ... .. B ... : ... .. B ... : ... .. . ... : ... .. . ... : ... .. . ... : D-3 08 9 ... : ... .. 5 ... : ... .. . ...
ROW 4D : ... .. C ... : ... .. C ... : ... .. . ... : ... .. . ... : ... .. . ... : ... .. 9 ... : ... .. 5 ... : ... .. . ...
ROW 4E : ... .. D ... : ... .. D ... : ... .. . ... : ... .. . ... : ... .. . ... : D#3 07 9 ... : D#3 08 5 ... : ... .. . ...
ROW 4F : ... .. E ... : ... .. E ... : ... .. . ... : ... .. . ... : ... .. . ... : ... .. A ... : ... .. 5 ... : ... .. . ...
ROW 50 : ... .. F ... : ... .. F ... : ... .. . ... : ... .. . ... : ... .. . ... : F-3 07 A ... : F-3 07 5 ... : ... .. . ...
ROW 51 : ... .. E ... : ... .. E ... : ... .. . ... : ... .. . ... : ... .. . ... : ... .. A ... : ... .. 5 ... : ... .. . ...
ROW 52 : ... .. D ... : ... .. D ... : ... .. . ... : ... .. . ... : ... .. . ... : ... .. A ... : ... .. 5 ... : ... .. . ...
ROW 53 : ... .. C ... : ... .. C ... : ... .. . ... : ... .. . ... : ... .. . ... : D#3 08 A ... : ... .. 5 ... : ... .. . ...
ROW 54 : ... .. B ... : ... .. B ... : G-2 0E . ... : ... .. . ... : ... .. . ... : ... .. A ... : D-3 08 5 ... : ... .. . ...
ROW 55 : ... .. A ... : ... .. A ... : ... .. . ... : ... .. . ... : ... .. . ... : D-3 07 A ... : ... .. 5 ... : ... .. . ...
ROW 56 : ... .. 9 ... : ... .. 9 ... : ... .. . ... : ... .. . ... : ... .. . ... : ... .. A ... : D#3 07 5 ... : ... .. . ...
ROW 57 : ... .. 8 ... : ... .. 8 ... : ... .. . ... : ... .. . ... : ... .. . ... : ... .. A ... : ... .. 5 ... : ... .. . ...
ROW 58 : ... .. 7 ... : ... .. 7 ... : C-2 0E . ... : 4-# 03 . ... : ... .. . ... : C-3 08 B ... : F-3 07 5 ... : C-2 04 . ...
ROW 59 : ... .. 6 ... : ... .. 6 ... : ... .. . ... : ... .. . ... : ... .. . ... : ... .. B ... : ... .. 5 ... : ... .. . ...
ROW 5A : ... .. 5 ... : ... .. 5 ... : ... .. . ... : ... .. . ... : ... .. . ... : ... .. B ... : ... .. 5 ... : ... .. . ...
ROW 5B : ... .. 4 ... : ... .. 4 ... : ... .. . ... : ... .. . ... : ... .. . ... : D-3 08 B ... : D#3 08 6 ... : ... .. . ...
ROW 5C : ... .. 3 ... : ... .. 3 ... : ... .. . ... : ... .. . ... : ... .. . ... : ... .. B ... : ... .. 6 ... : ... .. . ...
ROW 5D : ... .. 2 ... : ... .. 2 ... : ... .. . ... : ... .. . ... : ... .. . ... : ... .. B ... : D-3 07 6 ... : ... .. . ...
ROW 5E : ... .. 1 ... : ... .. 1 ... : ... .. . ... : 3-# 02 . ... : ... .. . ... : C-3 08 B ... : ... .. 6 ... : ... .. . ...
ROW 5F : ... .. 0 ... : ... .. 0 ... : ... .. . ... : ... .. . ... : ... .. . ... : ... .. B ... : ... .. 6 ... : ... .. . ...
ROW 60 : F-4 0B 0 ... : D-4 0B 0 ... : ... .. . ... : 3-# 02 . ... : ... .. . ... : C-3 07 B ... : C-3 08 6 ... : C-2 04 . ...
ROW 61 : ... .. 0 ... : ... .. 0 ... : ... .. . ... : ... .. . ... : ... .. . ... : ... .. B ... : ... .. 6 ... : ... .. . ...
ROW 62 : ... .. 1 ... : ... .. 1 ... : ... .. . ... : ... .. . ... : ... .. . ... : D-3 07 C ... : ... .. 6 ... : ... .. . ...
ROW 63 : ... .. 2 ... : ... .. 2 ... : ... .. . ... : ... .. . ... : ... .. . ... : ... .. C ... : D-3 08 6 ... : ... .. . ...
ROW 64 : ... .. 3 ... : ... .. 3 ... : G-2 0E . ... : ... .. . ... : ... .. . ... : ... .. C ... : ... .. 6 ... : ... .. . ...
ROW 65 : ... .. 4 ... : ... .. 4 ... : ... .. . ... : ... .. . ... : ... .. . ... : ... .. C ... : ... .. 6 ... : ... .. . ...
ROW 66 : ... .. 5 ... : ... .. 5 ... : ... .. . ... : ... .. . ... : ... .. . ... : D#3 08 C ... : C-3 08 6 ... : ... .. . ...
ROW 67 : ... .. 6 ... : ... .. 6 ... : ... .. . ... : ... .. . ... : ... .. . ... : ... .. C ... : ... .. 6 ... : ... .. . ...
ROW 68 : ... .. 7 ... : ... .. 7 ... : C-2 0E . ... : 4-# 03 . ... : ... .. . ... : F-3 07 C ... : C-3 07 6 ... : ... .. . ...
ROW 69 : ... .. 8 ... : ... .. 8 ... : ... .. . ... : ... .. . ... : ... .. . ... : ... .. C ... : ... .. 6 ... : ... .. . ...
ROW 6A : ... .. 9 ... : ... .. 9 ... : ... .. . ... : ... .. . ... : ... .. . ... : ... .. C ... : D-3 07 6 ... : ... .. . ...
ROW 6B : ... .. A ... : ... .. A ... : ... .. . ... : ... .. . ... : ... .. . ... : ... .. C ... : ... .. 6 ... : ... .. . ...
ROW 6C : ... .. B ... : ... .. B ... : ... .. . ... : ... .. . ... : ... .. . ... : D-3 08 D ... : ... .. 6 ... : ... .. . ...
ROW 6D : ... .. C ... : ... .. C ... : ... .. . ... : ... .. . ... : ... .. . ... : ... .. D ... : ... .. 7 ... : ... .. . ...
ROW 6E : ... .. D ... : ... .. D ... : ... .. . ... : ... .. . ... : ... .. . ... : D#3 07 D ... : D#3 08 7 ... : ... .. . ...
ROW 6F : ... .. E ... : ... .. E ... : ... .. . ... : ... .. . ... : ... .. . ... : ... .. D ... : ... .. 7 ... : ... .. . ...
ROW 70 : ... .. F ... : ... .. F ... : ... .. . ... : ... .. . ... : ... .. . ... : F-3 07 D ... : F-3 07 7 ... : G-2 04 F ...
ROW 71 : ... .. E ... : ... .. E ... : ... .. . ... : ... .. . ... : ... .. . ... : ... .. D ... : ... .. 7 ... : ... .. . ...
ROW 72 : ... .. D ... : ... .. D ... : ... .. . ... : ... .. . ... : ... .. . ... : ... .. D ... : ... .. 7 ... : ... .. . ...
ROW 73 : ... .. C ... : ... .. C ... : ... .. . ... : ... .. . ... : ... .. . ... : D#3 08 D ... : ... .. 7 ... : ... .. . ...
ROW 74 : ... .. B ... : ... .. B ... : G-2 0E . ... : ... .. . ... : ... .. . ... : ... .. D ... : D-3 08 7 ... : ... .. . ...
ROW 75 : ... .. A ... : ... .. A ... : ... .. . ... : ... .. . ... : ... .. . ... : D-3 07 D ... : ... .. 7 ... : ... .. . ...
ROW 76 : ... .. 9 ... : ... .. 9 ... : ... .. . ... : ... .. . ... : ... .. . ... : ... .. E ... : D#3 07 7 ... : ... .. . ...
ROW 77 : ... .. 8 ... : ... .. 8 ... : ... .. . ... : ... .. . ... : ... .. . ... : ... .. E ... : ... .. 7 ... : ... .. . ...
ROW 78 : ... .. 7 ... : ... .. 7 ... : C-2 0E . ... : 4-# 03 . ... : ... .. . ... : C-3 08 E ... : F-3 07 7 ... : ... .. . ...
ROW 79 : ... .. 6 ... : ... .. 6 ... : ... .. . ... : ... .. . ... : ... .. . ... : ... .. E ... : ... .. 7 ... : ... .. . ...
ROW 7A : ... .. 5 ... : ... .. 5 ... : ... .. . ... : ... .. . ... : ... .. . ... : ... .. E ... : ... .. 7 ... : ... .. . ...
ROW 7B : ... .. 4 ... : ... .. 4 ... : ... .. . ... : 2-# 03 . ... : ... .. . ... : D-3 08 E ... : D#3 08 7 ... : ... .. . ...
ROW 7C : ... .. 3 ... : ... .. 3 ... : ... .. . ... : ... .. . ... : ... .. . ... : ... .. E ... : ... .. 7 ... : ... .. . ...
ROW 7D : ... .. 2 ... : ... .. 2 ... : ... .. . ... : ... .. . ... : ... .. . ... : ... .. E ... : D-3 07 7 ... : ... .. . ...
ROW 7E : ... .. 1 ... : ... .. 1 ... : ... .. . ... : 5-# 03 . ... : ... .. . ... : C-3 08 E ... : ... .. 7 ... : ... .. . ...
ROW 7F : ... .. 0 ... : ... .. 0 ... : ... .. . ... : ... .. . ... : ... .. . ... : ... .. F ... : ... .. 8 ... : ... .. . ...

PATTERN 0A
ROW 00 : D#4 0B 0 ... : C-4 0B 0 ... : ... .. . ... : 4-# 02 8 ... : ... .. . ... : C-3 08 F ... : C-3 08 8 ... : C-2 04 4 ...
ROW 01 : ... .. 0 ... : ... .. 0 ... : ... .. . ... : ... .. . ... : ... .. . ... : ... .. E ... : ... .. 7 ... : ... .. . ...
ROW 02 : ... .. 1 ... : ... .. 1 ... : ... .. . ... : ... .. . ... : ... .. . ... : D-3 07 E ... : ... .. 7 ... : ... .. . ...
ROW 03 : ... .. 2 ... : ... .. 2 ... : ... .. . ... : ... .. . ... : ... .. . ... : ... .. E ... : D-3 08 7 ... : ... .. . ...
ROW 04 : ... .. 3 ... : ... .. 3 ... : G-2 0E . ... : 4-# 02 . ... : ... .. . ... : ... .. E ... : ... .. 7 ... : ... .. . ...
ROW 05 : ... .. 4 ... : ... .. 4 ... : ... .. . ... : ... .. . ... : ... .. . ... : ... .. E ... : ... .. 7 ... : ... .. . ...
ROW 06 : ... .. 5 ... : ... .. 5 ... : ... .. . ... : ... .. . ... : ... .. . ... : D#3 08 E ... : C-3 08 7 ... : ... .. . ...
ROW 07 : ... .. 6 ... : ... .. 6 ... : ... .. . ... : ... .. . ... : ... .. . ... : ... .. E ... : ... .. 7 ... : ... .. . ...
ROW 08 : ... .. 7 ... : ... .. 7 ... : C-2 0E . ... : 4-# 03 . ... : ... .. . ... : F-3 07 E ... : C-3 08 7 ... : ... .. . ...
ROW 09 : ... .. 8 ... : ... .. 8 ... : ... .. . ... : ... .. . ... : ... .. . ... : ... .. E ... : ... .. 7 ... : ... .. . ...
ROW 0A : ... .. 9 ... : ... .. 9 ... : ... .. . ... : ... .. . ... : ... .. . ... : ... .. E ... : D-3 07 7 ... : ... .. . ...
ROW 0B : ... .. A ... : ... .. A ... : ... .. . ... : ... .. . ... : ... .. . ... : ... .. E ... : ... .. 7 ... : ... .. . ...
ROW 0C : ... .. B ... : ... .. B ... : ... .. . ... : ... .. . ... : ... .. . ... : D-3 08 E ... : ... .. 7 ... : ... .. . ...
ROW 0D : ... .. C ... : ... .. C ... : ... .. . ... : ... .. . ... : ... .. . ... : ... .. E ... : ... .. 7 ... : ... .. . ...
ROW 0E : ... .. D ... : ... .. D ... : ... .. . ... : ... .. . ... : ... .. . ... : D#3 07 E ... : D#3 08 7 ... : ... .. . ...
ROW 0F : ... .. E ... : ... .. E ... : ... .. . ... : ... .. . ... : ... .. . ... : ... .. E ... : ... .. 7 ... : ... .. . ...
ROW 10 : ... .. F ... : ... .. F ... : ... .. . ... : ... .. . ... : ... .. . ... : F-3 07 D ... : F-3 07 7 ... : ... .. . ...
ROW 11 : ... .. E ... : ... .. E ... : ... .. . ... : ... .. . ... : ... .. . ... : ... .. D ... : ... .. 7 ... : ... .. . ...
ROW 12 : ... .. D ... : ... .. D ... : ... .. . ... : ... .. . ... : ... .. . ... : ... .. D ... : ... .. 7 ... : ... .. . ...
ROW 13 : ... .. C ... : ... .. C ... : ... .. . ... : ... .. . ... : ... .. . ... : D#3 08 D ... : ... .. 7 ... : ... .. . ...
ROW 14 : ... .. B ... : ... .. B ... : G-2 0E . ... : ... .. . ... : ... .. . ... : ... .. D ... : D-3 08 7 ... : ... .. . ...
ROW 15 : ... .. A ... : ... .. A ... : ... .. . ... : ... .. . ... : ... .. . ... : D-3 07 D ... : ... .. 7 ... : ... .. . ...
ROW 16 : ... .. 9 ... : ... .. 9 ... : ... .. . ... : ... .. . ... : ... .. . ... : ... .. D ... : D#3 07 7 ... : ... .. . ...
ROW 17 : ... .. 8 ... : ... .. 8 ... : ... .. . ... : ... .. . ... : ... .. . ... : ... .. D ... : ... .. 7 ... : ... .. . ...
ROW 18 : ... .. 7 ... : ... .. 7 ... : C-2 0E . ... : 4-# 03 . ... : ... .. . ... : C-3 08 D ... : F-3 07 7 ... : C-2 04 6 ...
ROW 19 : ... .. 6 ... : ... .. 6 ... : ... .. . ... : ... .. . ... : ... .. . ... : ... .. D ... : ... .. 7 ... : ... .. . ...
ROW 1A : ... .. 5 ... : ... .. 5 ... : ... .. . ... : ... .. . ... : ... .. . ... : ... .. D ... : ... .. 7 ... : ... .. . ...
ROW 1B : ... .. 4 ... : ... .. 4 ... : ... .. . ... : ... .. . ... : ... .. . ... : D-3 08 D ... : D#3 08 7 ... : ... .. . ...
ROW 1C : ... .. 3 ... : ... .. 3 ... : ... .. . ... : ... .. . ... : ... .. . ... : ... .. D ... : ... .. 7 ... : ... .. . ...
ROW 1D : ... .. 2 ... : ... .. 2 ... : ... .. . ... : ... .. . ... : ... .. . ... : ... .. D ... : D-3 07 7 ... : ... .. . ...
ROW 1E : ... .. 1 ... : ... .. 1 ... : ... .. . ... : 3-# 02 . ... : ... .. . ... : C-3 08 D ... : ... .. 7 ... : ... .. . ...
ROW 1F : ... .. 0 ... : ... .. 0 ... : ... .. . ... : ... .. . ... : ... .. . ... : ... .. D ... : ... .. 7 ... : ... .. . ...
ROW 20 : D#4 0B 0 ... : G-3 0B 0 ... : ... .. . ... : 3-# 02 . ... : ... .. . ... : C-3 07 C ... : C-3 08 6 ... : C-2 04 8 ...
ROW 21 : ... .. 0 ... : ... .. 0 ... : ... .. . ... : ... .. . ... : ... .. . ... : ... .. C ... : ... .. 6 ... : ... .. . ...
ROW 22 : ... .. 1 ... : ... .. 1 ... : ... .. . ... : ... .. . ... : ... .. . ... : D-3 07 C ... : ... .. 6 ... : ... .. . ...
ROW 23 : ... .. 2 ... : ... .. 2 ... : ... .. . ... : ... .. . ... : ... .. . ... : ... .. C ... : D-3 08 6 ... : ... .. . ...
ROW 24 : ... .. 3 ... : ... .. 3 ... : G-2 0E . ... : ... .. . ... : ... .. . ... : ... .. C ... : ... .. 6 ... : ... .. . ...
ROW 25 : ... .. 4 ... : ... .. 4 ... : ... .. . ... : ... .. . ... : ... .. . ... : ... .. C ... : ... .. 6 ... : ... .. . ...
ROW 26 : ... .. 5 ... : ... .. 5 ... : ... .. . ... : ... .. . ... : ... .. . ... : D#3 08 C ... : C-3 08 6 ... : ... .. . ...
ROW 27 : ... .. 6 ... : ... .. 6 ... : ... .. . ... : ... .. . ... : ... .. . ... : ... .. C ... : ... .. 6 ... : ... .. . ...
ROW 28 : ... .. 7 ... : ... .. 7 ... : C-2 0E . ... : 4-# 03 . ... : ... .. . ... : F-3 07 C ... : C-3 07 6 ... : ... .. . ...
ROW 29 : ... .. 8 ... : ... .. 8 ... : ... .. . ... : ... .. . ... : ... .. . ... : ... .. C ... : ... .. 6 ... : ... .. . ...
ROW 2A : ... .. 9 ... : ... .. 9 ... : ... .. . ... : ... .. . ... : ... .. . ... : ... .. C ... : D-3 07 6 ... : ... .. . ...
ROW 2B : ... .. A ... : ... .. A ... : ... .. . ... : ... .. . ... : ... .. . ... : ... .. C ... : ... .. 6 ... : ... .. . ...
ROW 2C : ... .. B ... : ... .. B ... : ... .. . ... : ... .. . ... : ... .. . ... : D-3 08 C ... : ... .. 6 ... : ... .. . ...
ROW 2D : ... .. C ... : ... .. C ... : ... .. . ... : ... .. . ... : ... .. . ... : ... .. C ... : ... .. 6 ... : ... .. . ...
ROW 2E : ... .. D ... : ... .. D ... : ... .. . ... : ... .. . ... : ... .. . ... : D#3 07 C ... : D#3 08 6 ... : ... .. . ...
ROW 2F : ... .. E ... : ... .. E ... : ... .. . ... : ... .. . ... : ... .. . ... : ... .. C ... : ... .. 6 ... : ... .. . ...
ROW 30 : ... .. F ... : ... .. F ... : ... .. . ... : ... .. . ... : ... .. . ... : F-3 07 B ... : F-3 07 6 ... : ... .. . ...
ROW 31 : ... .. E ... : ... .. E ... : ... .. . ... : ... .. . ... : ... .. . ... : ... .. B ... : ... .. 6 ... : ... .. . ...
ROW 32 : ... .. D ... : ... .. D ... : ... .. . ... : ... .. . ... : ... .. . ... : ... .. B ... : ... .. 6 ... : ... .. . ...
ROW 33 : ... .. C ... : ... .. C ... : ... .. . ... : ... .. . ... : ... .. . ... : D#3 08 B ... : ... .. 6 ... : ... .. . ...
ROW 34 : ... .. B ... : ... .. B ... : G-2 0E . ... : ... .. . ... : ... .. . ... : ... .. B ... : D-3 08 6 ... : ... .. . ...
ROW 35 : ... .. A ... : ... .. A ... : ... .. . ... : ... .. . ... : ... .. . ... : D-3 07 B ... : ... .. 6 ... : ... .. . ...
ROW 36 : ... .. 9 ... : ... .. 9 ... : ... .. . ... : ... .. . ... : ... .. . ... : ... .. B ... : D#3 07 6 ... : ... .. . ...
ROW 37 : ... .. 8 ... : ... .. 8 ... : ... .. . ... : ... .. . ... : ... .. . ... : ... .. B ... : ... .. 6 ... : ... .. . ...
ROW 38 : ... .. 7 ... : ... .. 7 ... : C-2 0E . ... : 4-# 03 . ... : ... .. . ... : C-3 08 B ... : F-3 07 6 ... : C-2 04 5 ...
ROW 39 : ... .. 6 ... : C-4 0B 0 ... : ... .. . ... : ... .. . ... : ... .. . ... : ... .. B ... : ... .. 6 ... : ... .. . ...
ROW 3A : ... .. 5 ... : ... .. 2 ... : ... .. . ... : ... .. . ... : ... .. . ... : ... .. B ... : ... .. 6 ... : ... .. . ...
ROW 3B : ... .. 4 ... : ... .. 5 ... : ... .. . ... : 2-# 03 . ... : ... .. . ... : D-3 08 B ... : D#3 08 6 ... : ... .. . ...
ROW 3C : ... .. 3 ... : ... .. 8 ... : ... .. . ... : ... .. . ... : ... .. . ... : ... .. B ... : ... .. 6 ... : G-1 04 8 ...
ROW 3D : ... .. 2 ... : ... .. 6 ... : ... .. . ... : ... .. . ... : ... .. . ... : ... .. B ... : D-3 07 6 ... : ... .. . ...
ROW 3E : ... .. 1 ... : ... .. 4 ... : ... .. . ... : 5-# 03 . ... : ... .. . ... : C-3 08 B ... : ... .. 6 ... : ... .. . ...
ROW 3F : ... .. 0 ... : ... .. 2 ... : ... .. . ... : ... .. . ... : ... .. . ... : ... .. B ... : ... .. 6 ... : ... .. . ...
ROW 40 : F#3 0B 0 ... : D-4 0B 0 ... : ... .. . ... : 4-# 02 . ... : ... .. . ... : C-3 08 A ... : C-3 08 5 ... : C-2 04 C ...
ROW 41 : ... .. 0 ... : ... .. 0 ... : ... .. . ... : ... .. . ... : ... .. . ... : ... .. A ... : ... .. 5 ... : ... .. . ...
ROW 42 : ... .. 1 ... : ... .. 1 ... : ... .. . ... : ... .. . ... : ... .. . ... : D-3 07 A ... : ... .. 5 ... : ... .. . ...
ROW 43 : ... .. 2 ... : ... .. 2 ... : ... .. . ... : ... .. . ... : ... .. . ... : ... .. A ... : D-3 08 5 ... : ... .. . ...
ROW 44 : ... .. 3 ... : ... .. 3 ... : G-2 0E . ... : 4-# 02 . ... : ... .. . ... : ... .. A ... : ... .. 5 ... : ... .. . ...
ROW 45 : ... .. 4 ... : ... .. 4 ... : ... .. . ... : ... .. . ... : ... .. . ... : ... .. A ... : ... .. 5 ... : ... .. . ...
ROW 46 : ... .. 5 ... : ... .. 5 ... : ... .. . ... : ... .. . ... : ... .. . ... : D#3 08 A ... : C-3 08 5 ... : ... .. . ...
ROW 47 : ... .. 6 ... : ... .. 6 ... : ... .. . ... : ... .. . ... : ... .. . ... : ... .. A ... : ... .. 5 ... : ... .. . ...
ROW 48 : ... .. 7 ... : ... .. 7 ... : C-2 0E . ... : 4-# 03 . ... : ... .. . ... : F-3 07 A ... : C-3 08 5 ... : ... .. . ...
ROW 49 : ... .. 8 ... : ... .. 8 ... : ... .. . ... : ... .. . ... : ... .. . ... : ... .. A ... : ... .. 5 ... : ... .. . ...
ROW 4A : ... .. 9 ... : ... .. 9 ... : ... .. . ... : ... .. . ... : ... .. . ... : ... .. A ... : D-3 07 5 ... : ... .. . ...
ROW 4B : ... .. A ... : ... .. A ... : ... .. . ... : ... .. . ... : ... .. . ... : ... .. A ... : ... .. 5 ... : ... .. . ...
ROW 4C : ... .. B ... : ... .. B ... : ... .. . ... : ... .. . ... : ... .. . ... : D-3 08 A ... : ... .. 5 ... : ... .. . ...
ROW 4D : ... .. C ... : ... .. C ... : ... .. . ... : ... .. . ... : ... .. . ... : ... .. A ... : ... .. 5 ... : ... .. . ...
ROW 4E : ... .. D ... : ... .. D ... : ... .. . ... : ... .. . ... : ... .. . ... : D#3 07 A ... : D#3 08 5 ... : ... .. . ...
ROW 4F : ... .. E ... : ... .. E ... : ... .. . ... : ... .. . ... : ... .. . ... : ... .. A ... : ... .. 5 ... : ... .. . ...
ROW 50 : ... .. F ... : ... .. F ... : ... .. . ... : ... .. . ... : ... .. . ... : F-3 07 9 ... : F-3 07 5 ... : ... .. . ...
ROW 51 : ... .. E ... : ... .. E ... : ... .. . ... : ... .. . ... : ... .. . ... : ... .. 9 ... : ... .. 5 ... : ... .. . ...
ROW 52 : ... .. D ... : ... .. D ... : ... .. . ... : ... .. . ... : ... .. . ... : ... .. 9 ... : ... .. 5 ... : ... .. . ...
ROW 53 : ... .. C ... : ... .. C ... : ... .. . ... : ... .. . ... : ... .. . ... : D#3 08 9 ... : ... .. 5 ... : ... .. . ...
ROW 54 : ... .. B ... : ... .. B ... : G-2 0E . ... : ... .. . ... : ... .. . ... : ... .. 9 ... : D-3 08 5 ... : ... .. . ...
ROW 55 : ... .. A ... : ... .. A ... : ... .. . ... : ... .. . ... : ... .. . ... : D-3 07 9 ... : ... .. 5 ... : ... .. . ...
ROW 56 : ... .. 9 ... : ... .. 9 ... : ... .. . ... : ... .. . ... : ... .. . ... : ... .. 9 ... : D#3 07 5 ... : ... .. . ...
ROW 57 : ... .. 8 ... : ... .. 8 ... : ... .. . ... : ... .. . ... : ... .. . ... : ... .. 9 ... : ... .. 5 ... : ... .. . ...
ROW 58 : ... .. 7 ... : ... .. 7 ... : C-2 0E . ... : 4-# 03 . ... : ... .. . ... : C-3 08 9 ... : F-3 07 5 ... : C-2 04 . ...
ROW 59 : ... .. 6 ... : ... .. 6 ... : ... .. . ... : ... .. . ... : ... .. . ... : ... .. 9 ... : ... .. 5 ... : ... .. . ...
ROW 5A : ... .. 5 ... : ... .. 5 ... : ... .. . ... : ... .. . ... : ... .. . ... : ... .. 9 ... : ... .. 5 ... : ... .. . ...
ROW 5B : ... .. 4 ... : ... .. 4 ... : ... .. . ... : ... .. . ... : ... .. . ... : D-3 08 9 ... : D#3 08 5 ... : ... .. . ...
ROW 5C : ... .. 3 ... : ... .. 3 ... : ... .. . ... : ... .. . ... : ... .. . ... : ... .. 9 ... : ... .. 5 ... : ... .. . ...
ROW 5D : ... .. 2 ... : ... .. 2 ... : ... .. . ... : ... .. . ... : ... .. . ... : ... .. 9 ... : D-3 07 5 ... : ... .. . ...
ROW 5E : ... .. 1 ... : ... .. 1 ... : ... .. . ... : 3-# 02 . ... : ... .. . ... : C-3 08 9 ... : ... .. 5 ... : ... .. . ...
ROW 5F : ... .. 0 ... : ... .. 0 ... : ... .. . ... : ... .. . ... : ... .. . ... : ... .. 9 ... : ... .. 5 ... : ... .. . ...
ROW 60 : F-3 0B 0 ... : B-3 0B 0 ... : ... .. . ... : 3-# 02 . ... : ... .. . ... : C-3 07 8 ... : C-3 08 4 ... : C-2 04 . ...
ROW 61 : ... .. 0 ... : ... .. 0 ... : ... .. . ... : ... .. . ... : ... .. . ... : ... .. 8 ... : ... .. 4 ... : ... .. . ...
ROW 62 : ... .. 1 ... : ... .. 1 ... : ... .. . ... : ... .. . ... : ... .. . ... : D-3 07 8 ... : ... .. 4 ... : ... .. . ...
ROW 63 : ... .. 2 ... : ... .. 2 ... : ... .. . ... : ... .. . ... : ... .. . ... : ... .. 8 ... : D-3 08 4 ... : ... .. . ...
ROW 64 : ... .. 3 ... : ... .. 3 ... : G-2 0E . ... : ... .. . ... : ... .. . ... : ... .. 8 ... : ... .. 4 ... : ... .. . ...
ROW 65 : ... .. 4 ... : ... .. 4 ... : ... .. . ... : ... .. . ... : ... .. . ... : ... .. 8 ... : ... .. 4 ... : ... .. . ...
ROW 66 : ... .. 5 ... : ... .. 5 ... : ... .. . ... : ... .. . ... : ... .. . ... : D#3 08 8 ... : C-3 08 4 ... : ... .. . ...
ROW 67 : ... .. 6 ... : ... .. 6 ... : ... .. . ... : ... .. . ... : ... .. . ... : ... .. 8 ... : ... .. 4 ... : ... .. . ...
ROW 68 : ... .. 7 ... : ... .. 7 ... : C-2 0E . ... : 4-# 03 . ... : ... .. . ... : F-3 07 8 ... : C-3 07 4 ... : ... .. . ...
ROW 69 : ... .. 8 ... : ... .. 8 ... : ... .. . ... : ... .. . ... : ... .. . ... : ... .. 8 ... : ... .. 4 ... : ... .. . ...
ROW 6A : ... .. 9 ... : ... .. 9 ... : ... .. . ... : ... .. . ... : ... .. . ... : ... .. 8 ... : D-3 07 4 ... : ... .. . ...
ROW 6B : ... .. A ... : ... .. A ... : ... .. . ... : ... .. . ... : ... .. . ... : ... .. 8 ... : ... .. 4 ... : ... .. . ...
ROW 6C : ... .. B ... : ... .. B ... : ... .. . ... : ... .. . ... : ... .. . ... : D-3 08 8 ... : ... .. 4 ... : ... .. . ...
ROW 6D : ... .. C ... : ... .. C ... : ... .. . ... : ... .. . ... : ... .. . ... : ... .. 8 ... : ... .. 4 ... : ... .. . ...
ROW 6E : ... .. D ... : ... .. D ... : ... .. . ... : ... .. . ... : ... .. . ... : D#3 07 8 ... : D#3 08 4 ... : ... .. . ...
ROW 6F : ... .. E ... : ... .. E ... : ... .. . ... : ... .. . ... : ... .. . ... : ... .. 8 ... : ... .. 4 ... : ... .. . ...
ROW 70 : ... .. F ... : ... .. F ... : ... .. . ... : ... .. . ... : ... .. . ... : F-3 07 7 ... : F-3 07 4 ... : G-2 04 F ...
ROW 71 : ... .. E ... : ... .. E ... : ... .. . ... : ... .. . ... : ... .. . ... : ... .. 7 ... : ... .. 4 ... : ... .. . ...
ROW 72 : ... .. D ... : ... .. D ... : ... .. . ... : ... .. . ... : ... .. . ... : ... .. 7 ... : ... .. 4 ... : ... .. . ...
ROW 73 : ... .. C ... : ... .. C ... : ... .. . ... : ... .. . ... : ... .. . ... : D#3 08 7 ... : ... .. 4 ... : ... .. . ...
ROW 74 : ... .. B ... : ... .. B ... : G-2 0E . ... : F-# 03 8 ... : ... .. . ... : ... .. 7 ... : D-3 08 4 ... : ... .. . ...
ROW 75 : ... .. A ... : ... .. A ... : ... .. . ... : ... .. . ... : ... .. . ... : D-3 07 7 ... : ... .. 4 ... : ... .. . ...
ROW 76 : ... .. 9 ... : ... .. 9 ... : G-1 0E . ... : D-# 03 9 ... : ... .. . ... : ... .. 7 ... : D#3 07 4 ... : ... .. . ...
ROW 77 : ... .. 8 ... : ... .. 8 ... : ... .. . ... : ... .. . ... : ... .. . ... : ... .. 7 ... : ... .. 4 ... : ... .. . ...
ROW 78 : ... .. 7 ... : ... .. 7 ... : G-1 0E . ... : C-# 03 A ... : ... .. . ... : C-3 08 7 ... : F-3 07 4 ... : ... .. . ...
ROW 79 : ... .. 6 ... : ... .. 6 ... : ... .. . ... : ... .. . ... : ... .. . ... : ... .. 7 ... : ... .. 4 ... : ... .. . ...
ROW 7A : ... .. 5 ... : F#2 0D F ... : G-2 0E . ... : A-# 03 B ... : ... .. . ... : ... .. 7 ... : ... .. 4 ... : ... .. . ...
ROW 7B : ... .. 4 ... : ... .. . ... : ... .. . ... : 2-# 03 . ... : ... .. . ... : D-3 08 7 ... : D#3 08 4 ... : ... .. . ...
ROW 7C : ... .. 3 ... : F#2 0D F ... : G-1 0E . ... : 8-# 03 C ... : ... .. . ... : ... .. 7 ... : ... .. 4 ... : ... .. . ...
ROW 7D : ... .. 2 ... : ... .. . ... : D-2 0E . ... : ... .. . ... : ... .. . ... : ... .. 7 ... : D-3 07 4 ... : ... .. . ...
ROW 7E : ... .. 1 ... : F#2 0D F ... : G-1 0E . ... : 1-# 03 D ... : ... .. . ... : C-3 08 7 ... : ... .. 4 ... : ... .. . ...
ROW 7F : ... .. 0 ... : ... .. . ... : D-2 0E . ... : ... .. . ... : ... .. . ... : ... .. 7 ... : ... .. 4 ... : ... .. . ...

PATTERN 0B
ROW 00 : D#4 0B 0 ... : C-4 0B 0 ... : ... .. . ... : 4-# 02 8 ... : ... .. . ... : C-3 08 F ... : C-3 08 8 ... : C-2 04 4 ...
ROW 01 : ... .. 0 ... : ... .. 0 ... : ... .. . ... : ... .. . ... : ... .. . ... : ... .. E ... : ... .. 7 ... : ... .. . ...
ROW 02 : ... .. 1 ... : ... .. 1 ... : ... .. . ... : ... .. . ... : ... .. . ... : D-3 07 E ... : ... .. 7 ... : ... .. . ...
ROW 03 : ... .. 2 ... : ... .. 2 ... : ... .. . ... : ... .. . ... : ... .. . ... : ... .. E ... : D-3 08 7 ... : ... .. . ...
ROW 04 : ... .. 3 ... : ... .. 3 ... : G-2 0E . ... : 4-# 02 . ... : ... .. . ... : ... .. E ... : ... .. 7 ... : ... .. . ...
ROW 05 : ... .. 4 ... : ... .. 4 ... : ... .. . ... : ... .. . ... : ... .. . ... : ... .. E ... : ... .. 7 ... : ... .. . ...
ROW 06 : ... .. 5 ... : ... .. 5 ... : ... .. . ... : ... .. . ... : ... .. . ... : D#3 08 E ... : C-3 08 7 ... : ... .. . ...
ROW 07 : ... .. 6 ... : ... .. 6 ... : ... .. . ... : ... .. . ... : ... .. . ... : ... .. E ... : ... .. 7 ... : ... .. . ...
ROW 08 : ... .. 7 ... : ... .. 7 ... : C-2 0E . ... : 4-# 03 . ... : ... .. . ... : F-3 07 E ... : C-3 08 7 ... : ... .. . ...
ROW 09 : ... .. 8 ... : ... .. 8 ... : ... .. . ... : ... .. . ... : ... .. . ... : ... .. E ... : ... .. 7 ... : ... .. . ...
ROW 0A : ... .. 9 ... : ... .. 9 ... : ... .. . ... : ... .. . ... : ... .. . ... : ... .. D ... : D-3 07 7 ... : ... .. . ...
ROW 0B : ... .. A ... : ... .. A ... : ... .. . ... : ... .. . ... : ... .. . ... : ... .. D ... : ... .. 7 ... : ... .. . ...
ROW 0C : ... .. B ... : ... .. B ... : ... .. . ... : ... .. . ... : ... .. . ... : D-3 08 D ... : ... .. 7 ... : ... .. . ...
ROW 0D : ... .. C ... : ... .. C ... : ... .. . ... : ... .. . ... : ... .. . ... : ... .. D ... : ... .. 7 ... : ... .. . ...
ROW 0E : ... .. D ... : ... .. D ... : ... .. . ... : ... .. . ... : ... .. . ... : D#3 07 D ... : D#3 08 7 ... : ... .. . ...
ROW 0F : ... .. E ... : ... .. E ... : ... .. . ... : ... .. . ... : ... .. . ... : ... .. D ... : ... .. 7 ... : ... .. . ...
ROW 10 : ... .. F ... : ... .. F ... : ... .. . ... : ... .. . ... : ... .. . ... : F-3 07 D ... : F-3 07 7 ... : ... .. . ...
ROW 11 : ... .. E ... : ... .. E ... : ... .. . ... : ... .. . ... : ... .. . ... : ... .. D ... : ... .. 7 ... : ... .. . ...
ROW 12 : ... .. D ... : ... .. D ... : ... .. . ... : ... .. . ... : ... .. . ... : ... .. D ... : ... .. 7 ... : ... .. . ...
ROW 13 : ... .. C ... : ... .. C ... : ... .. . ... : ... .. . ... : ... .. . ... : D#3 08 D ... : ... .. 6 ... : ... .. . ...
ROW 14 : ... .. B ... : ... .. B ... : G-2 0E . ... : ... .. . ... : ... .. . ... : ... .. C ... : D-3 08 6 ... : ... .. . ...
ROW 15 : ... .. A ... : ... .. A ... : ... .. . ... : ... .. . ... : ... .. . ... : D-3 07 C ... : ... .. 6 ... : ... .. . ...
ROW 16 : ... .. 9 ... : ... .. 9 ... : ... .. . ... : ... .. . ... : ... .. . ... : ... .. C ... : D#3 07 6 ... : ... .. . ...
ROW 17 : ... .. 8 ... : ... .. 8 ... : ... .. . ... : ... .. . ... : ... .. . ... : ... .. C ... : ... .. 6 ... : ... .. . ...
ROW 18 : ... .. 7 ... : ... .. 7 ... : C-2 0E . ... : 4-# 03 . ... : ... .. . ... : C-3 08 C ... : F-3 07 6 ... : C-2 04 6 ...
ROW 19 : ... .. 6 ... : ... .. 6 ... : ... .. . ... : ... .. . ... : ... .. . ... : ... .. C ... : ... .. 6 ... : ... .. . ...
ROW 1A : ... .. 5 ... : ... .. 5 ... : ... .. . ... : ... .. . ... : ... .. . ... : ... .. C ... : ... .. 6 ... : ... .. . ...
ROW 1B : ... .. 4 ... : ... .. 4 ... : ... .. . ... : ... .. . ... : ... .. . ... : D-3 08 C ... : D#3 08 6 ... : ... .. . ...
ROW 1C : ... .. 3 ... : ... .. 3 ... : ... .. . ... : ... .. . ... : ... .. . ... : ... .. C ... : ... .. 6 ... : ... .. . ...
ROW 1D : ... .. 2 ... : ... .. 2 ... : ... .. . ... : ... .. . ... : ... .. . ... : ... .. C ... : D-3 07 6 ... : ... .. . ...
ROW 1E : ... .. 1 ... : ... .. 1 ... : ... .. . ... : 3-# 02 . ... : ... .. . ... : C-3 08 B ... : ... .. 6 ... : ... .. . ...
ROW 1F : ... .. 0 ... : ... .. 0 ... : ... .. . ... : ... .. . ... : ... .. . ... : ... .. B ... : ... .. 6 ... : ... .. . ...
ROW 20 : D#4 0B 0 ... : G-3 0B 0 ... : ... .. . ... : 3-# 02 . ... : ... .. . ... : C-3 07 B ... : C-3 08 6 ... : C-2 04 8 ...
ROW 21 : ... .. 0 ... : ... .. 0 ... : ... .. . ... : ... .. . ... : ... .. . ... : ... .. B ... : ... .. 6 ... : ... .. . ...
ROW 22 : ... .. 1 ... : ... .. 1 ... : ... .. . ... : ... .. . ... : ... .. . ... : D-3 07 B ... : ... .. 6 ... : ... .. . ...
ROW 23 : ... .. 2 ... : ... .. 2 ... : ... .. . ... : ... .. . ... : ... .. . ... : ... .. B ... : D-3 08 6 ... : ... .. . ...
ROW 24 : ... .. 3 ... : ... .. 3 ... : G-2 0E . ... : ... .. . ... : ... .. . ... : ... .. B ... : ... .. 6 ... : ... .. . ...
ROW 25 : ... .. 4 ... : ... .. 4 ... : ... .. . ... : ... .. . ... : ... .. . ... : ... .. B ... : ... .. 5 ... : ... .. . ...
ROW 26 : ... .. 5 ... : ... .. 5 ... : ... .. . ... : ... .. . ... : ... .. . ... : D#3 08 B ... : C-3 08 5 ... : ... .. . ...
ROW 27 : ... .. 6 ... : ... .. 6 ... : ... .. . ... : ... .. . ... : ... .. . ... : ... .. B ... : ... .. 5 ... : ... .. . ...
ROW 28 : ... .. 7 ... : ... .. 7 ... : C-2 0E . ... : 4-# 03 . ... : ... .. . ... : F-3 07 A ... : C-3 07 5 ... : ... .. . ...
ROW 29 : ... .. 8 ... : ... .. 8 ... : ... .. . ... : ... .. . ... : ... .. . ... : ... .. A ... : ... .. 5 ... : ... .. . ...
ROW 2A : ... .. 9 ... : ... .. 9 ... : ... .. . ... : ... .. . ... : ... .. . ... : ... .. A ... : D-3 07 5 ... : ... .. . ...
ROW 2B : ... .. A ... : ... .. A ... : ... .. . ... : ... .. . ... : ... .. . ... : ... .. A ... : ... .. 5 ... : ... .. . ...
ROW 2C : ... .. B ... : ... .. B ... : ... .. . ... : ... .. . ... : ... .. . ... : D-3 08 A ... : ... .. 5 ... : ... .. . ...
ROW 2D : ... .. C ... : ... .. C ... : ... .. . ... : ... .. . ... : ... .. . ... : ... .. A ... : ... .. 5 ... : ... .. . ...
ROW 2E : ... .. D ... : ... .. D ... : ... .. . ... : ... .. . ... : ... .. . ... : D#3 07 A ... : D#3 08 5 ... : ... .. . ...
ROW 2F : ... .. E ... : ... .. E ... : ... .. . ... : ... .. . ... : ... .. . ... : ... .. A ... : ... .. 5 ... : ... .. . ...
ROW 30 : ... .. F ... : ... .. F ... : ... .. . ... : ... .. . ... : ... .. . ... : F-3 07 A ... : F-3 07 5 ... : ... .. . ...
ROW 31 : ... .. E ... : ... .. E ... : ... .. . ... : ... .. . ... : ... .. . ... : ... .. 9 ... : ... .. 5 ... : ... .. . ...
ROW 32 : ... .. D ... : ... .. D ... : ... .. . ... : ... .. . ... : ... .. . ... : ... .. 9 ... : ... .. 5 ... : ... .. . ...
ROW 33 : ... .. C ... : ... .. C ... : ... .. . ... : ... .. . ... : ... .. . ... : D#3 08 9 ... : ... .. 5 ... : ... .. . ...
ROW 34 : ... .. B ... : ... .. B ... : G-2 0E . ... : ... .. . ... : ... .. . ... : ... .. 9 ... : D-3 08 5 ... : ... .. . ...
ROW 35 : ... .. A ... : ... .. A ... : ... .. . ... : ... .. . ... : ... .. . ... : D-3 07 9 ... : ... .. 5 ... : ... .. . ...
ROW 36 : ... .. 9 ... : ... .. 9 ... : ... .. . ... : ... .. . ... : ... .. . ... : ... .. 9 ... : D#3 07 5 ... : ... .. . ...
ROW 37 : ... .. 8 ... : ... .. 8 ... : ... .. . ... : ... .. . ... : ... .. . ... : ... .. 9 ... : ... .. 4 ... : ... .. . ...
ROW 38 : ... .. 7 ... : ... .. 7 ... : C-2 0E . ... : 4-# 03 . ... : ... .. . ... : C-3 08 9 ... : F-3 07 4 ... : C-2 04 5 ...
ROW 39 : ... .. 6 ... : C-4 0B 0 ... : ... .. . ... : ... .. . ... : ... .. . ... : ... .. 9 ... : ... .. 4 ... : ... .. . ...
ROW 3A : ... .. 5 ... : ... .. 2 ... : ... .. . ... : ... .. . ... : ... .. . ... : ... .. 9 ... : ... .. 4 ... : ... .. . ...
ROW 3B : ... .. 4 ... : ... .. 5 ... : ... .. . ... : 2-# 03 . ... : ... .. . ... : D-3 08 8 ... : D#3 08 4 ... : ... .. . ...
ROW 3C : ... .. 3 ... : ... .. 8 ... : ... .. . ... : ... .. . ... : ... .. . ... : ... .. 8 ... : ... .. 4 ... : G-1 04 8 ...
ROW 3D : ... .. 2 ... : ... .. 6 ... : ... .. . ... : ... .. . ... : ... .. . ... : ... .. 8 ... : D-3 07 4 ... : ... .. . ...
ROW 3E : ... .. 1 ... : ... .. 4 ... : ... .. . ... : 5-# 03 . ... : ... .. . ... : C-3 08 8 ... : ... .. 4 ... : ... .. . ...
ROW 3F : ... .. 0 ... : ... .. 2 ... : ... .. . ... : ... .. . ... : ... .. . ... : ... .. 8 ... : ... .. 4 ... : ... .. . ...
ROW 40 : F#3 0B 0 ... : D-4 0B 0 ... : ... .. . ... : 4-# 02 . ... : ... .. . ... : C-3 08 8 ... : C-3 08 4 ... : C-2 04 C ...
ROW 41 : ... .. 0 ... : ... .. 0 ... : ... .. . ... : ... .. . ... : ... .. . ... : ... .. 8 ... : ... .. 4 ... : ... .. . ...
ROW 42 : ... .. 1 ... : ... .. 1 ... : ... .. . ... : ... .. . ... : ... .. . ... : D-3 07 8 ... : ... .. 4 ... : ... .. . ...
ROW 43 : ... .. 2 ... : ... .. 2 ... : ... .. . ... : ... .. . ... : ... .. . ... : ... .. 8 ... : D-3 08 4 ... : ... .. . ...
ROW 44 : ... .. 3 ... : ... .. 3 ... : G-2 0E . ... : 4-# 02 . ... : ... .. . ... : ... .. 8 ... : ... .. 4 ... : ... .. . ...
ROW 45 : ... .. 4 ... : ... .. 4 ... : ... .. . ... : ... .. . ... : ... .. . ... : ... .. 7 ... : ... .. 4 ... : ... .. . ...
ROW 46 : ... .. 5 ... : ... .. 5 ... : ... .. . ... : ... .. . ... : ... .. . ... : D#3 08 7 ... : C-3 08 4 ... : ... .. . ...
ROW 47 : ... .. 6 ... : ... .. 6 ... : ... .. . ... : ... .. . ... : ... .. . ... : ... .. 7 ... : ... .. 4 ... : ... .. . ...
ROW 48 : ... .. 7 ... : ... .. 7 ... : C-2 0E . ... : 4-# 03 . ... : ... .. . ... : F-3 07 7 ... : C-3 08 4 ... : ... .. . ...
ROW 49 : ... .. 8 ... : ... .. 8 ... : ... .. . ... : ... .. . ... : ... .. . ... : ... .. 7 ... : ... .. 3 ... : ... .. . ...
ROW 4A : ... .. 9 ... : ... .. 9 ... : ... .. . ... : ... .. . ... : ... .. . ... : ... .. 7 ... : D-3 07 3 ... : ... .. . ...
ROW 4B : ... .. A ... : ... .. A ... : ... .. . ... : ... .. . ... : ... .. . ... : ... .. 7 ... : ... .. 3 ... : ... .. . ...
ROW 4C : ... .. B ... : ... .. B ... : ... .. . ... : ... .. . ... : ... .. . ... : D-3 08 7 ... : ... .. 3 ... : ... .. . ...
ROW 4D : ... .. C ... : ... .. C ... : ... .. . ... : ... .. . ... : ... .. . ... : ... .. 7 ... : ... .. 3 ... : ... .. . ...
ROW 4E : ... .. D ... : ... .. D ... : ... .. . ... : ... .. . ... : ... .. . ... : D#3 07 7 ... : D#3 08 3 ... : ... .. . ...
ROW 4F : ... .. E ... : ... .. E ... : ... .. . ... : ... .. . ... : ... .. . ... : ... .. 6 ... : ... .. 3 ... : ... .. . ...
ROW 50 : ... .. F ... : ... .. F ... : ... .. . ... : ... .. . ... : ... .. . ... : F-3 07 6 ... : F-3 07 3 ... : ... .. . ...
ROW 51 : ... .. E ... : ... .. E ... : ... .. . ... : ... .. . ... : ... .. . ... : ... .. 6 ... : ... .. 3 ... : ... .. . ...
ROW 52 : ... .. D ... : ... .. D ... : ... .. . ... : ... .. . ... : ... .. . ... : ... .. 6 ... : ... .. 3 ... : ... .. . ...
ROW 53 : ... .. C ... : ... .. C ... : ... .. . ... : ... .. . ... : ... .. . ... : D#3 08 6 ... : ... .. 3 ... : ... .. . ...
ROW 54 : ... .. B ... : ... .. B ... : G-2 0E . ... : ... .. . ... : ... .. . ... : ... .. 6 ... : D-3 08 3 ... : ... .. . ...
ROW 55 : ... .. A ... : ... .. A ... : ... .. . ... : ... .. . ... : ... .. . ... : D-3 07 6 ... : ... .. 3 ... : ... .. . ...
ROW 56 : ... .. 9 ... : ... .. 9 ... : ... .. . ... : ... .. . ... : ... .. . ... : ... .. 6 ... : D#3 07 3 ... : ... .. . ...
ROW 57 : ... .. 8 ... : ... .. 8 ... : ... .. . ... : ... .. . ... : ... .. . ... : ... .. 6 ... : ... .. 3 ... : ... .. . ...
ROW 58 : ... .. 7 ... : ... .. 7 ... : C-2 0E . ... : 4-# 03 . ... : ... .. . ... : C-3 08 5 ... : F-3 07 3 ... : C-2 04 . ...
ROW 59 : ... .. 6 ... : ... .. 6 ... : ... .. . ... : ... .. . ... : ... .. . ... : ... .. 5 ... : ... .. 3 ... : ... .. . ...
ROW 5A : ... .. 5 ... : ... .. 5 ... : ... .. . ... : ... .. . ... : ... .. . ... : ... .. 5 ... : ... .. 3 ... : ... .. . ...
ROW 5B : ... .. 4 ... : ... .. 4 ... : ... .. . ... : ... .. . ... : ... .. . ... : D-3 08 5 ... : D#3 08 2 ... : ... .. . ...
ROW 5C : ... .. 3 ... : ... .. 3 ... : ... .. . ... : ... .. . ... : ... .. . ... : ... .. 5 ... : ... .. 2 ... : ... .. . ...
ROW 5D : ... .. 2 ... : ... .. 2 ... : ... .. . ... : ... .. . ... : ... .. . ... : ... .. 5 ... : D-3 07 2 ... : ... .. . ...
ROW 5E : ... .. 1 ... : ... .. 1 ... : ... .. . ... : 3-# 02 . ... : ... .. . ... : C-3 08 5 ... : ... .. 2 ... : ... .. . ...
ROW 5F : ... .. 0 ... : ... .. 0 ... : ... .. . ... : ... .. . ... : ... .. . ... : ... .. 5 ... : ... .. 2 ... : ... .. . ...
ROW 60 : F-3 0B 0 ... : B-3 0B 0 ... : ... .. . ... : 3-# 02 . ... : ... .. . ... : C-3 07 5 ... : C-3 08 2 ... : C-2 04 . ...
ROW 61 : ... .. 0 ... : ... .. 0 ... : ... .. . ... : ... .. . ... : ... .. . ... : ... .. 5 ... : ... .. 2 ... : ... .. . ...
ROW 62 : ... .. 1 ... : ... .. 1 ... : ... .. . ... : ... .. . ... : ... .. . ... : D-3 07 4 ... : ... .. 2 ... : ... .. . ...
ROW 63 : ... .. 2 ... : ... .. 2 ... : ... .. . ... : ... .. . ... : ... .. . ... : ... .. 4 ... : D-3 08 2 ... : ... .. . ...
ROW 64 : ... .. 3 ... : ... .. 3 ... : G-2 0E . ... : ... .. . ... : ... .. . ... : ... .. 4 ... : ... .. 2 ... : ... .. . ...
ROW 65 : ... .. 4 ... : ... .. 4 ... : ... .. . ... : ... .. . ... : ... .. . ... : ... .. 4 ... : ... .. 2 ... : ... .. . ...
ROW 66 : ... .. 5 ... : ... .. 5 ... : ... .. . ... : ... .. . ... : ... .. . ... : D#3 08 4 ... : C-3 08 2 ... : ... .. . ...
ROW 67 : ... .. 6 ... : ... .. 6 ... : ... .. . ... : ... .. . ... : ... .. . ... : ... .. 4 ... : ... .. 2 ... : ... .. . ...
ROW 68 : ... .. 7 ... : ... .. 7 ... : C-2 0E . ... : 4-# 03 . ... : ... .. . ... : F-3 07 4 ... : C-3 07 2 ... : ... .. . ...
ROW 69 : ... .. 8 ... : ... .. 8 ... : ... .. . ... : ... .. . ... : ... .. . ... : ... .. 4 ... : ... .. 2 ... : ... .. . ...
ROW 6A : ... .. 9 ... : ... .. 9 ... : ... .. . ... : ... .. . ... : ... .. . ... : ... .. 4 ... : D-3 07 2 ... : ... .. . ...
ROW 6B : ... .. A ... : ... .. A ... : ... .. . ... : ... .. . ... : ... .. . ... : ... .. 4 ... : ... .. 2 ... : ... .. . ...
ROW 6C : ... .. B ... : ... .. B ... : ... .. . ... : ... .. . ... : ... .. . ... : D-3 08 3 ... : ... .. 2 ... : ... .. . ...
ROW 6D : ... .. C ... : ... .. C ... : ... .. . ... : ... .. . ... : ... .. . ... : ... .. 3 ... : ... .. 1 ... : ... .. . ...
ROW 6E : ... .. D ... : ... .. D ... : ... .. . ... : ... .. . ... : ... .. . ... : D#3 07 3 ... : D#3 08 1 ... : ... .. . ...
ROW 6F : ... .. E ... : ... .. E ... : ... .. . ... : ... .. . ... : ... .. . ... : ... .. 3 ... : ... .. 1 ... : ... .. . ...
ROW 70 : ... .. F ... : ... .. F ... : ... .. . ... : ... .. . ... : ... .. . ... : F-3 07 3 ... : F-3 07 1 ... : G-2 04 F ...
ROW 71 : ... .. E ... : ... .. E ... : ... .. . ... : ... .. . ... : ... .. . ... : ... .. 3 ... : ... .. 1 ... : ... .. . ...
ROW 72 : ... .. D ... : ... .. D ... : ... .. . ... : ... .. . ... : ... .. . ... : ... .. 3 ... : ... .. 1 ... : ... .. . ...
ROW 73 : ... .. C ... : ... .. C ... : ... .. . ... : ... .. . ... : ... .. . ... : D#3 08 3 ... : ... .. 1 ... : ... .. . ...
ROW 74 : ... .. B ... : ... .. B ... : G-2 0E . ... : ... .. . ... : ... .. . ... : ... .. 3 ... : D-3 08 1 ... : ... .. . ...
ROW 75 : ... .. A ... : ... .. A ... : ... .. . ... : ... .. . ... : ... .. . ... : D-3 07 3 ... : ... .. 1 ... : ... .. . ...
ROW 76 : ... .. 9 ... : ... .. 9 ... : ... .. . ... : ... .. . ... : ... .. . ... : ... .. 2 ... : D#3 07 1 ... : ... .. . ...
ROW 77 : ... .. 8 ... : ... .. 8 ... : ... .. . ... : ... .. . ... : ... .. . ... : ... .. 2 ... : ... .. 1 ... : ... .. . ...
ROW 78 : ... .. 7 ... : ... .. 7 ... : ... .. . ... : ... .. . ... : ... .. . ... : C-3 08 2 ... : F-3 07 1 ... : ... .. . ...
ROW 79 : ... .. 6 ... : ... .. 6 ... : ... .. . ... : ... .. . ... : ... .. . ... : ... .. 2 ... : ... .. 1 ... : ... .. . ...
ROW 7A : ... .. 5 ... : ... .. 5 ... : ... .. . ... : ... .. . ... : ... .. . ... : ... .. 2 ... : ... .. 1 ... : ... .. . ...
ROW 7B : ... .. 4 ... : ... .. 4 ... : ... .. . ... : ... .. . ... : ... .. . ... : D-3 08 2 ... : D#3 08 1 ... : ... .. . ...
ROW 7C : ... .. 3 ... : ... .. 3 ... : ... .. . ... : ... .. . ... : ... .. . ... : ... .. 2 ... : ... .. 1 ... : ... .. . ...
ROW 7D : ... .. 2 ... : ... .. 2 ... : ... .. . ... : ... .. . ... : ... .. . ... : ... .. 2 ... : D-3 07 1 ... : ... .. . ...
ROW 7E : ... .. 1 ... : ... .. 1 ... : ... .. . ... : ... .. . ... : ... .. . ... : C-3 08 2 ... : ... .. 1 ... : ... .. . ...
ROW 7F : ... .. 1 ... : ... .. 1 ... : ... .. . ... : ... .. . ... : ... .. . ... : ... .. 2 ... : ... .. 1 ... : ... .. . ...

TRACK 128   3 132 "Bubblegum"
COLUMNS : 1 1 1 1 1 1 1 1

ORDER 00 : 00 00 00 00 00 00 00 00
ORDER 01 : 01 01 01 01 01 01 01 01
ORDER 02 : 02 02 02 02 02 02 02 02
ORDER 03 : 03 03 03 03 03 03 03 03
ORDER 04 : 04 04 04 04 04 04 04 04
ORDER 05 : 05 05 05 05 05 05 05 05
ORDER 06 : 06 06 06 06 06 06 06 06
ORDER 07 : 07 07 07 07 07 07 07 07
ORDER 08 : 08 08 08 08 08 08 08 08
ORDER 09 : 09 09 09 09 09 09 09 09
ORDER 0A : 0A 0A 0A 0A 0A 0A 0A 0A
ORDER 0B : 05 05 05 05 05 05 05 05
ORDER 0C : 06 06 06 06 06 06 06 06
ORDER 0D : 07 07 07 07 07 07 07 07
ORDER 0E : 08 08 08 08 08 08 08 08
ORDER 0F : 09 09 09 09 09 09 09 09
ORDER 10 : 0B 0B 0B 0B 0B 0B 0B 0B

PATTERN 00
ROW 00 : D#2 0D 7 ... : C-2 0D 7 ... : --- .. . ... : ... .. F ... : ... .. . ... : --- .. . ... : --- .. . ... : C-1 01 8 ...
ROW 01 : ... .. . ... : C-2 0D . ... : ... .. . ... : ... .. . ... : ... .. . ... : ... .. . ... : ... .. . ... : ... .. . ...
ROW 02 : D#2 0D . ... : C-2 0D . ... : ... .. . ... : ... .. . ... : C-3 00 . ... : ... .. . ... : ... .. . ... : ... .. . ...
ROW 03 : D#2 0D . ... : ... .. . ... : ... .. . ... : ... .. . ... : ... .. . ... : ... .. . ... : ... .. . ... : ... .. . ...
ROW 04 : D#2 0D . ... : C-2 0D . ... : ... .. . ... : ... .. . ... : ... .. . ... : ... .. . ... : ... .. . ... : ... .. . ...
ROW 05 : ... .. . ... : C-2 0D . ... : ... .. . ... : ... .. . ... : ... .. . ... : ... .. . ... : ... .. . ... : ... .. . ...
ROW 06 : D#2 0D . ... : C-2 0D . ... : ... .. . ... : ... .. . ... : ... .. . ... : ... .. . ... : ... .. . ... : ... .. . ...
ROW 07 : D#2 0D . ... : ... .. . ... : ... .. . ... : ... .. . ... : ... .. . ... : ... .. . ... : ... .. . ... : ... .. . ...
ROW 08 : D#2 0D . ... : C-2 0D . ... : ... .. . ... : 4-# 03 . ... : ... .. . ... : ... .. . ... : ... .. . ... : ... .. . ...
ROW 09 : ... .. . ... : C-2 0D . ... : ... .. . ... : ... .. . ... : ... .. . ... : ... .. . ... : ... .. . ... : ... .. . ...
ROW 0A : D#2 0D . ... : C-2 0D . ... : ... .. . ... : ... .. . ... : ... .. . ... : ... .. . ... : ... .. . ... : ... .. . ...
ROW 0B : D#2 0D . ... : ... .. . ... : ... .. . ... : ... .. . ... : ... .. . ... : ... .. . ... : ... .. . ... : ... .. . ...
ROW 0C : D#2 0D . ... : C-2 0D . ... : ... .. . ... : ... .. . ... : ... .. . ... : ... .. . ... : ... .. . ... : ... .. . ...
ROW 0D : ... .. . ... : C-2 0D . ... : ... .. . ... : ... .. . ... : ... .. . ... : ... .. . ... : ... .. . ... : ... .. . ...
ROW 0E : D#2 0D . ... : C-2 0D . ... : ... .. . ... : ... .. . ... : ... .. . ... : ... .. . ... : ... .. . ... : ... .. . ...
ROW 0F : D#2 0D . ... : ... .. . ... : ... .. . ... : ... .. . ... : ... .. . ... : ... .. . ... : ... .. . ... : ... .. . ...
ROW 10 : D#2 0D . ... : C-2 0D . ... : ... .. . ... : ... .. . ... : ... .. . ... : ... .. . ... : ... .. . ... : ... .. . ...
ROW 11 : ... .. . ... : C-2 0D . ... : ... .. . ... : ... .. . ... : ... .. . ... : ... .. . ... : ... .. . ... : ... .. . ...
ROW 12 : D#2 0D . ... : C-2 0D . ... : ... .. . ... : ... .. . ... : C-3 00 . ... : ... .. . ... : ... .. . ... : ... .. . ...
ROW 13 : D#2 0D . ... : ... .. . ... : ... .. . ... : ... .. . ... : ... .. . ... : ... .. . ... : ... .. . ... : ... .. . ...
ROW 14 : D#2 0D . ... : C-2 0D . ... : ... .. . ... : ... .. . ... : ... .. . ... : ... .. . ... : ... .. . ... : ... .. . ...
ROW 15 : ... .. . ... : C-2 0D . ... : ... .. . ... : ... .. . ... : ... .. . ... : ... .. . ... : ... .. . ... : ... .. . ...
ROW 16 : D#2 0D . ... : C-2 0D . ... : ... .. . ... : ... .. . ... : ... .. . ... : ... .. . ... : ... .. . ... : ... .. . ...
ROW 17 : D#2 0D . ... : ... .. . ... : ... .. . ... : ... .. . ... : ... .. . ... : ... .. . ... : ... .. . ... : ... .. . ...
ROW 18 : D#2 0D . ... : C-2 0D . ... : ... .. . ... : 4-# 03 . ... : ... .. . ... : ... .. . ... : ... .. . ... : ... .. . ...
ROW 19 : ... .. . ... : C-2 0D . ... : ... .. . ... : ... .. . ... : ... .. . ... : ... .. . ... : ... .. . ... : ... .. . ...
ROW 1A : D#2 0D . ... : C-2 0D . ... : ... .. . ... : ... .. . ... : ... .. . ... : ... .. . ... : ... .. . ... : ... .. . ...
ROW 1B : D#2 0D . ... : ... .. . ... : ... .. . ... : ... .. . ... : ... .. . ... : ... .. . ... : ... .. . ... : ... .. . ...
ROW 1C : D#2 0D . ... : C-2 0D . ... : ... .. . ... : ... .. . ... : ... .. . ... : ... .. . ... : ... .. . ... : ... .. . ...
ROW 1D : ... .. . ... : C-2 0D . ... : ... .. . ... : ... .. . ... : ... .. . ... : ... .. . ... : ... .. . ... : ... .. . ...
ROW 1E : D#2 0D . ... : C-2 0D . ... : ... .. . ... : ... .. . ... : ... .. . ... : ... .. . ... : ... .. . ... : ... .. . ...
ROW 1F : D#2 0D . ... : ... .. . ... : ... .. . ... : ... .. . ... : ... .. . ... : ... .. . ... : ... .. . ... : ... .. . ...
ROW 20 : D-2 0D . ... : C-2 0D . ... : ... .. . ... : ... .. . ... : ... .. . ... : ... .. . ... : ... .. . ... : ... .. . ...
ROW 21 : ... .. . ... : C-2 0D . ... : ... .. . ... : ... .. . ... : ... .. . ... : ... .. . ... : ... .. . ... : ... .. . ...
ROW 22 : D-2 0D . ... : C-2 0D . ... : ... .. . ... : ... .. . ... : C-3 00 . ... : ... .. . ... : ... .. . ... : ... .. . ...
ROW 23 : D-2 0D . ... : ... .. . ... : ... .. . ... : ... .. . ... : ... .. . ... : ... .. . ... : ... .. . ... : ... .. . ...
ROW 24 : D-2 0D . ... : C-2 0D . ... : ... .. . ... : ... .. . ... : ... .. . ... : ... .. . ... : ... .. . ... : ... .. . ...
ROW 25 : ... .. . ... : C-2 0D . ... : ... .. . ... : ... .. . ... : ... .. . ... : ... .. . ... : ... .. . ... : ... .. . ...
ROW 26 : D-2 0D . ... : C-2 0D . ... : ... .. . ... : ... .. . ... : ... .. . ... : ... .. . ... : ... .. . ... : ... .. . ...
ROW 27 : D-2 0D . ... : ... .. . ... : ... .. . ... : ... .. . ... : ... .. . ... : ... .. . ... : ... .. . ... : ... .. . ...
ROW 28 : D-2 0D . ... : C-2 0D . ... : ... .. . ... : 4-# 03 . ... : ... .. . ... : ... .. . ... : ... .. . ... : ... .. . ...
ROW 29 : ... .. . ... : C-2 0D . ... : ... .. . ... : ... .. . ... : ... .. . ... : ... .. . ... : ... .. . ... : ... .. . ...
ROW 2A : D-2 0D . ... : C-2 0D . ... : ... .. . ... : ... .. . ... : ... .. . ... : ... .. . ... : ... .. . ... : ... .. . ...
ROW 2B : D-2 0D . ... : ... .. . ... : ... .. . ... : ... .. . ... : ... .. . ... : ... .. . ... : ... .. . ... : ... .. . ...
ROW 2C : D-2 0D . ... : C-2 0D . ... : ... .. . ... : ... .. . ... : ... .. . ... : ... .. . ... : ... .. . ... : ... .. . ...
ROW 2D : ... .. . ... : C-2 0D . ... : ... .. . ... : ... .. . ... : ... .. . ... : ... .. . ... : ... .. . ... : ... .. . ...
ROW 2E : D-2 0D . ... : C-2 0D . ... : ... .. . ... : ... .. . ... : ... .. . ... : ... .. . ... : ... .. . ... : ... .. . ...
ROW 2F : D-2 0D . ... : ... .. . ... : ... .. . ... : ... .. . ... : ... .. . ... : ... .. . ... : ... .. . ... : ... .. . ...
ROW 30 : D-2 0D . ... : C-2 0D . ... : ... .. . ... : ... .. . ... : ... .. . ... : ... .. . ... : ... .. . ... : ... .. . ...
ROW 31 : ... .. . ... : C-2 0D . ... : ... .. . ... : ... .. . ... : ... .. . ... : ... .. . ... : ... .. . ... : ... .. . ...
ROW 32 : D-2 0D . ... : C-2 0D . ... : ... .. . ... : ... .. . ... : C-3 00 . ... : ... .. . ... : ... .. . ... : ... .. . ...
ROW 33 : D-2 0D . ... : ... .. . ... : ... .. . ... : ... .. . ... : ... .. . ... : ... .. . ... : ... .. . ... : ... .. . ...
ROW 34 : D-2 0D . ... : C-2 0D . ... : ... .. . ... : ... .. . ... : ... .. . ... : ... .. . ... : ... .. . ... : ... .. . ...
ROW 35 : ... .. . ... : C-2 0D . ... : ... .. . ... : ... .. . ... : ... .. . ... : ... .. . ... : ... .. . ... : ... .. . ...
ROW 36 : D-2 0D . ... : C-2 0D . ... : ... .. . ... : ... .. . ... : ... .. . ... : ... .. . ... : ... .. . ... : ... .. . ...
ROW 37 : D-2 0D . ... : ... .. . ... : ... .. . ... : ... .. . ... : ... .. . ... : ... .. . ... : ... .. . ... : ... .. . ...
ROW 38 : D-2 0D . ... : C-2 0D . ... : ... .. . ... : 4-# 03 . ... : ... .. . ... : ... .. . ... : ... .. . ... : ... .. . ...
ROW 39 : ... .. . ... : C-2 0D . ... : ... .. . ... : ... .. . ... : ... .. . ... : ... .. . ... : ... .. . ... : ... .. . ...
ROW 3A : D-2 0D . ... : C-2 0D . ... : ... .. . ... : ... .. . ... : ... .. . ... : ... .. . ... : ... .. . ... : ... .. . ...
ROW 3B : D-2 0D . ... : ... .. . ... : ... .. . ... : ... .. . ... : ... .. . ... : ... .. . ... : ... .. . ... : ... .. . ...
ROW 3C : D-2 0D . ... : C-2 0D . ... : ... .. . ... : ... .. . ... : ... .. . ... : ... .. . ... : ... .. . ... : ... .. . ...
ROW 3D : ... .. . ... : C-2 0D . ... : ... .. . ... : ... .. . ... : ... .. . ... : ... .. . ... : ... .. . ... : ... .. . ...
ROW 3E : D-2 0D . ... : C-2 0D . ... : ... .. . ... : ... .. . ... : ... .. . ... : ... .. . ... : ... .. . ... : ... .. . ...
ROW 3F : D-2 0D . ... : ... .. . ... : ... .. . ... : ... .. . ... : ... .. . ... : ... .. . ... : ... .. . ... : ... .. . ...
ROW 40 : F-2 0D . ... : B-1 0D . ... : ... .. . ... : ... .. . ... : ... .. . ... : ... .. . ... : ... .. . ... : B-0 01 . ...
ROW 41 : ... .. . ... : B-1 0D . ... : ... .. . ... : ... .. . ... : ... .. . ... : ... .. . ... : ... .. . ... : ... .. . ...
ROW 42 : F-2 0D . ... : B-1 0D . ... : ... .. . ... : ... .. . ... : C-3 00 . ... : ... .. . ... : ... .. . ... : ... .. . ...
ROW 43 : F-2 0D . ... : ... .. . ... : ... .. . ... : ... .. . ... : ... .. . ... : ... .. . ... : ... .. . ... : ... .. . ...
ROW 44 : F-2 0D . ... : B-1 0D . ... : ... .. . ... : ... .. . ... : ... .. . ... : ... .. . ... : ... .. . ... : ... .. . ...
ROW 45 : ... .. . ... : B-1 0D . ... : ... .. . ... : ... .. . ... : ... .. . ... : ... .. . ... : ... .. . ... : ... .. . ...
ROW 46 : F-2 0D . ... : B-1 0D . ... : ... .. . ... : ... .. . ... : ... .. . ... : ... .. . ... : ... .. . ... : ... .. . ...
ROW 47 : F-2 0D . ... : ... .. . ... : ... .. . ... : ... .. . ... : ... .. . ... : ... .. . ... : ... .. . ... : ... .. . ...
ROW 48 : F-2 0D . ... : B-1 0D . ... : ... .. . ... : 5-# 03 . ... : ... .. . ... : ... .. . ... : ... .. . ... : ... .. . ...
ROW 49 : ... .. . ... : B-1 0D . ... : ... .. . ... : ... .. . ... : ... .. . ... : ... .. . ... : ... .. . ... : ... .. . ...
ROW 4A : F-2 0D . ... : B-1 0D . ... : ... .. . ... : ... .. . ... : ... .. . ... : ... .. . ... : ... .. . ... : ... .. . ...
ROW 4B : F-2 0D . ... : ... .. . ... : ... .. . ... : ... .. . ... : ... .. . ... : ... .. . ... : ... .. . ... : ... .. . ...
ROW 4C : F-2 0D . ... : B-1 0D . ... : ... .. . ... : ... .. . ... : ... .. . ... : ... .. . ... : ... .. . ... : ... .. . ...
ROW 4D : ... .. . ... : B-1 0D . ... : ... .. . ... : ... .. . ... : ... .. . ... : ... .. . ... : ... .. . ... : ... .. . ...
ROW 4E : F-2 0D . ... : B-1 0D . ... : ... .. . ... : ... .. . ... : ... .. . ... : ... .. . ... : ... .. . ... : ... .. . ...
ROW 4F : F-2 0D . ... : ... .. . ... : ... .. . ... : ... .. . ... : ... .. . ... : ... .. . ... : ... .. . ... : ... .. . ...
ROW 50 : F-2 0D . ... : B-1 0D . ... : ... .. . ... : ... .. . ... : ... .. . ... : ... .. . ... : ... .. . ... : ... .. . ...
ROW 51 : ... .. . ... : B-1 0D . ... : ... .. . ... : ... .. . ... : ... .. . ... : ... .. . ... : ... .. . ... : ... .. . ...
ROW 52 : F-2 0D . ... : B-1 0D . ... : ... .. . ... : ... .. . ... : C-3 00 . ... : ... .. . ... : ... .. . ... : ... .. . ...
ROW 53 : F-2 0D . ... : ... .. . ... : ... .. . ... : ... .. . ... : ... .. . ... : ... .. . ... : ... .. . ... : ... .. . ...
ROW 54 : F-2 0D . ... : B-1 0D . ... : ... .. . ... : ... .. . ... : ... .. . ... : ... .. . ... : ... .. . ... : ... .. . ...
ROW 55 : ... .. . ... : B-1 0D . ... : ... .. . ... : ... .. . ... : ... .. . ... : ... .. . ... : ... .. . ... : ... .. . ...
ROW 56 : F-2 0D . ... : B-1 0D . ... : ... .. . ... : ... .. . ... : ... .. . ... : ... .. . ... : ... .. . ... : ... .. . ...
ROW 57 : F-2 0D . ... : ... .. . ... : ... .. . ... : ... .. . ... : ... .. . ... : ... .. . ... : ... .. . ... : ... .. . ...
ROW 58 : F-2 0D . ... : B-1 0D . ... : ... .. . ... : 5-# 03 . ... : ... .. . ... : ... .. . ... : ... .. . ... : ... .. . ...
ROW 59 : ... .. . ... : B-1 0D . ... : ... .. . ... : ... .. . ... : ... .. . ... : ... .. . ... : ... .. . ... : ... .. . ...
ROW 5A : F-2 0D . ... : B-1 0D . ... : ... .. . ... : ... .. . ... : ... .. . ... : ... .. . ... : ... .. . ... : ... .. . ...
ROW 5B : F-2 0D . ... : ... .. . ... : ... .. . ... : ... .. . ... : ... .. . ... : ... .. . ... : ... .. . ... : ... .. . ...
ROW 5C : F-2 0D . ... : B-1 0D . ... : ... .. . ... : ... .. . ... : ... .. . ... : ... .. . ... : ... .. . ... : ... .. . ...
ROW 5D : ... .. . ... : B-1 0D . ... : ... .. . ... : ... .. . ... : ... .. . ... : ... .. . ... : ... .. . ... : ... .. . ...
ROW 5E : F-2 0D . ... : B-1 0D . ... : ... .. . ... : ... .. . ... : ... .. . ... : ... .. . ... : ... .. . ... : ... .. . ...
ROW 5F : F-2 0D . ... : ... .. . ... : ... .. . ... : ... .. . ... : ... .. . ... : ... .. . ... : ... .. . ... : ... .. . ...
ROW 60 : E-2 0D . ... : B-1 0D . ... : ... .. . ... : ... .. . ... : ... .. . ... : ... .. . ... : ... .. . ... : ... .. . ...
ROW 61 : ... .. . ... : B-1 0D . ... : ... .. . ... : ... .. . ... : ... .. . ... : ... .. . ... : ... .. . ... : ... .. . ...
ROW 62 : E-2 0D . ... : B-1 0D . ... : ... .. . ... : ... .. . ... : C-3 00 . ... : ... .. . ... : ... .. . ... : ... .. . ...
ROW 63 : E-2 0D . ... : ... .. . ... : ... .. . ... : ... .. . ... : ... .. . ... : ... .. . ... : ... .. . ... : ... .. . ...
ROW 64 : E-2 0D . ... : B-1 0D . ... : ... .. . ... : ... .. . ... : ... .. . ... : ... .. . ... : ... .. . ... : ... .. . ...
ROW 65 : ... .. . ... : B-1 0D . ... : ... .. . ... : ... .. . ... : ... .. . ... : ... .. . ... : ... .. . ... : ... .. . ...
ROW 66 : E-2 0D . ... : B-1 0D . ... : ... .. . ... : ... .. . ... : ... .. . ... : ... .. . ... : ... .. . ... : ... .. . ...
ROW 67 : E-2 0D . ... : ... .. . ... : ... .. . ... : ... .. . ... : ... .. . ... : ... .. . ... : ... .. . ... : ... .. . ...
ROW 68 : E-2 0D . ... : B-1 0D . ... : ... .. . ... : 5-# 03 . ... : ... .. . ... : ... .. . ... : ... .. . ... : ... .. . ...
ROW 69 : ... .. . ... : B-1 0D . ... : ... .. . ... : ... .. . ... : ... .. . ... : ... .. . ... : ... .. . ... : ... .. . ...
ROW 6A : E-2 0D . ... : B-1 0D . ... : ... .. . ... : ... .. . ... : ... .. . ... : ... .. . ... : ... .. . ... : ... .. . ...
ROW 6B : E-2 0D . ... : ... .. . ... : ... .. . ... : ... .. . ... : ... .. . ... : ... .. . ... : ... .. . ... : ... .. . ...
ROW 6C : E-2 0D . ... : B-1 0D . ... : ... .. . ... : ... .. . ... : ... .. . ... : ... .. . ... : ... .. . ... : ... .. . ...
ROW 6D : ... .. . ... : B-1 0D . ... : ... .. . ... : ... .. . ... : ... .. . ... : ... .. . ... : ... .. . ... : ... .. . ...
ROW 6E : E-2 0D . ... : B-1 0D . ... : ... .. . ... : ... .. . ... : ... .. . ... : ... .. . ... : ... .. . ... : ... .. . ...
ROW 6F : E-2 0D . ... : ... .. . ... : ... .. . ... : ... .. . ... : ... .. . ... : ... .. . ... : ... .. . ... : ... .. . ...
ROW 70 : E-2 0D . ... : B-1 0D . ... : ... .. . ... : ... .. . ... : ... .. . ... : ... .. . ... : ... .. . ... : ... .. . ...
ROW 71 : ... .. . ... : B-1 0D . ... : ... .. . ... : ... .. . ... : ... .. . ... : ... .. . ... : ... .. . ... : ... .. . ...
ROW 72 : E-2 0D . ... : B-1 0D . ... : ... .. . ... : ... .. . ... : C-3 00 . ... : ... .. . ... : ... .. . ... : ... .. . ...
ROW 73 : E-2 0D . ... : ... .. . ... : ... .. . ... : ... .. . ... : ... .. . ... : ... .. . ... : ... .. . ... : ... .. . ...
ROW 74 : E-2 0D . ... : B-1 0D . ... : ... .. . ... : ... .. . ... : ... .. . ... : ... .. . ... : ... .. . ... : ... .. . ...
ROW 75 : ... .. . ... : B-1 0D . ... : ... .. . ... : ... .. . ... : ... .. . ... : ... .. . ... : ... .. . ... : ... .. . ...
ROW 76 : E-2 0D . ... : B-1 0D . ... : ... .. . ... : ... .. . ... : ... .. . ... : ... .. . ... : ... .. . ... : ... .. . ...
ROW 77 : E-2 0D . ... : ... .. . ... : ... .. . ... : ... .. . ... : ... .. . ... : ... .. . ... : ... .. . ... : ... .. . ...
ROW 78 : E-2 0D . ... : B-1 0D . ... : ... .. . ... : 5-# 03 . ... : ... .. . ... : ... .. . ... : ... .. . ... : ... .. . ...
ROW 79 : ... .. . ... : B-1 0D . ... : ... .. . ... : ... .. . ... : ... .. . ... : ... .. . ... : ... .. . ... : ... .. . ...
ROW 7A : E-2 0D . ... : B-1 0D . ... : ... .. . ... : ... .. . ... : ... .. . ... : ... .. . ... : ... .. . ... : ... .. . ...
ROW 7B : E-2 0D . ... : ... .. . ... : ... .. . ... : ... .. . ... : ... .. . ... : ... .. . ... : ... .. . ... : ... .. . ...
ROW 7C : E-2 0D . ... : B-1 0D . ... : ... .. . ... : F-# 03 . ... : ... .. . ... : ... .. . ... : ... .. . ... : ... .. . ...
ROW 7D : ... .. . ... : B-1 0D . ... : ... .. . ... : ... .. . ... : ... .. . ... : ... .. . ... : ... .. . ... : ... .. . ...
ROW 7E : E-2 0D . ... : B-1 0D . ... : ... .. . ... : --- .. . ... : ... .. . ... : ... .. . ... : ... .. . ... : ... .. . ...
ROW 7F : E-2 0D . ... : ... .. . ... : ... .. . ... : ... .. . ... : ... .. . ... : ... .. . ... : ... .. . ... : ... .. . ...

PATTERN 01
ROW 00 : G-2 0D 7 ... : A#1 0D 7 ... : ... .. . ... : ... .. F ... : ... .. . ... : --- .. . ... : --- .. . ... : A#0 01 8 ...
ROW 01 : ... .. . ... : A#1 0D . ... : ... .. . ... : ... .. . ... : ... .. . ... : ... .. . ... : ... .. . ... : ... .. . ...
ROW 02 : G-2 0D . ... : A#1 0D . ... : ... .. . ... : ... .. . ... : C-3 00 . ... : ... .. . ... : ... .. . ... : ... .. . ...
ROW 03 : G-2 0D . ... : ... .. . ... : ... .. . ... : ... .. . ... : ... .. . ... : ... .. . ... : ... .. . ... : ... .. . ...
ROW 04 : G-2 0D . ... : A#1 0D . ... : ... .. . ... : ... .. . ... : ... .. . ... : ... .. . ... : ... .. . ... : ... .. . ...
ROW 05 : ... .. . ... : A#1 0D . ... : ... .. . ... : ... .. . ... : ... .. . ... : ... .. . ... : ... .. . ... : ... .. . ...
ROW 06 : G-2 0D . ... : A#1 0D . ... : ... .. . ... : ... .. . ... : ... .. . ... : ... .. . ... : ... .. . ... : ... .. . ...
ROW 07 : G-2 0D . ... : ... .. . ... : ... .. . ... : ... .. . ... : ... .. . ... : ... .. . ... : ... .. . ... : ... .. . ...
ROW 08 : G-2 0D . ... : A#1 0D . ... : ... .. . ... : 4-# 03 . ... : ... .. . ... : ... .. . ... : ... .. . ... : ... .. . ...
ROW 09 : ... .. . ... : A#1 0D . ... : ... .. . ... : ... .. . ... : ... .. . ... : ... .. . ... : ... .. . ... : ... .. . ...
ROW 0A : G-2 0D . ... : A#1 0D . ... : ... .. . ... : ... .. . ... : ... .. . ... : ... .. . ... : ... .. . ... : ... .. . ...
ROW 0B : G-2 0D . ... : ... .. . ... : ... .. . ... : ... .. . ... : ... .. . ... : ... .. . ... : ... .. . ... : ... .. . ...
ROW 0C : G-2 0D . ... : A#1 0D . ... : ... .. . ... : ... .. . ... : ... .. . ... : ... .. . ... : ... .. . ... : ... .. . ...
ROW 0D : ... .. . ... : A#1 0D . ... : ... .. . ... : ... .. . ... : ... .. . ... : ... .. . ... : ... .. . ... : ... .. . ...
ROW 0E : G-2 0D . ... : A#1 0D . ... : ... .. . ... : ... .. . ... : ... .. . ... : ... .. . ... : ... .. . ... : ... .. . ...
ROW 0F : G-2 0D . ... : ... .. . ... : ... .. . ... : ... .. . ... : ... .. . ... : ... .. . ... : ... .. . ... : ... .. . ...
ROW 10 : G-2 0D . ... : A#1 0D . ... : ... .. . ... : ... .. . ... : ... .. . ... : ... .. . ... : ... .. . ... : ... .. . ...
ROW 11 : ... .. . ... : A#1 0D . ... : ... .. . ... : ... .. . ... : ... .. . ... : ... .. . ... : ... .. . ... : ... .. . ...
ROW 12 : G-2 0D . ... : A#1 0D . ... : ... .. . ... : ... .. . ... : C-3 00 . ... : ... .. . ... : ... .. . ... : ... .. . ...
ROW 13 : G-2 0D . ... : ... .. . ... : ... .. . ... : ... .. . ... : ... .. . ... : ... .. . ... : ... .. . ... : ... .. . ...
ROW 14 : G-2 0D . ... : A#1 0D . ... : ... .. . ... : ... .. . ... : ... .. . ... : ... .. . ... : ... .. . ... : ... .. . ...
ROW 15 : ... .. . ... : A#1 0D . ... : ... .. . ... : ... .. . ... : ... .. . ... : ... .. . ... : ... .. . ... : ... .. . ...
ROW 16 : G-2 0D . ... : A#1 0D . ... : ... .. . ... : ... .. . ... : ... .. . ... : ... .. . ... : ... .. . ... : ... .. . ...
ROW 17 : G-2 0D . ... : ... .. . ... : ... .. . ... : ... .. . ... : ... .. . ... : ... .. . ... : ... .. . ... : ... .. . ...
ROW 18 : G-2 0D . ... : A#1 0D . ... : ... .. . ... : 4-# 03 . ... : ... .. . ... : ... .. . ... : ... .. . ... : ... .. . ...
ROW 19 : ... .. . ... : A#1 0D . ... : ... .. . ... : ... .. . ... : ... .. . ... : ... .. . ... : ... .. . ... : ... .. . ...
ROW 1A : G-2 0D . ... : A#1 0D . ... : ... .. . ... : ... .. . ... : ... .. . ... : ... .. . ... : ... .. . ... : ... .. . ...
ROW 1B : G-2 0D . ... : ... .. . ... : ... .. . ... : ... .. . ... : ... .. . ... : ... .. . ... : ... .. . ... : ... .. . ...
ROW 1C : G-2 0D . ... : A#1 0D . ... : ... .. . ... : ... .. . ... : ... .. . ... : ... .. . ... : ... .. . ... : ... .. . ...
ROW 1D : ... .. . ... : A#1 0D . ... : ... .. . ... : ... .. . ... : ... .. . ... : ... .. . ... : ... .. . ... : ... .. . ...
ROW 1E : G-2 0D . ... : A#1 0D . ... : ... .. . ... : ... .. . ... : ... .. . ... : ... .. . ... : ... .. . ... : ... .. . ...
ROW 1F : G-2 0D . ... : ... .. . ... : ... .. . ... : ... .. . ... : ... .. . ... : ... .. . ... : ... .. . ... : ... .. . ...
ROW 20 : F#2 0D . ... : A#1 0D . ... : ... .. . ... : ... .. . ... : ... .. . ... : ... .. . ... : ... .. . ... : ... .. . ...
ROW 21 : ... .. . ... : A#1 0D . ... : ... .. . ... : ... .. . ... : ... .. . ... : ... .. . ... : ... .. . ... : ... .. . ...
ROW 22 : F#2 0D . ... : A#1 0D . ... : ... .. . ... : ... .. . ... : C-3 00 . ... : ... .. . ... : ... .. . ... : ... .. . ...
ROW 23 : F#2 0D . ... : ... .. . ... : ... .. . ... : ... .. . ... : ... .. . ... : ... .. . ... : ... .. . ... : ... .. . ...
ROW 24 : F#2 0D . ... : A#1 0D . ... : ... .. . ... : ... .. . ... : ... .. . ... : ... .. . ... : ... .. . ... : ... .. . ...
ROW 25 : ... .. . ... : A#1 0D . ... : ... .. . ... : ... .. . ... : ... .. . ... : ... .. . ... : ... .. . ... : ... .. . ...
ROW 26 : F#2 0D . ... : A#1 0D . ... : ... .. . ... : ... .. . ... : ... .. . ... : ... .. . ... : ... .. . ... : ... .. . ...
ROW 27 : F#2 0D . ... : ... .. . ... : ... .. . ... : ... .. . ... : ... .. . ... : ... .. . ... : ... .. . ... : ... .. . ...
ROW 28 : F#2 0D . ... : A#1 0D . ... : ... .. . ... : 4-# 03 . ... : ... .. . ... : ... .. . ... : ... .. . ... : ... .. . ...
ROW 29 : ... .. . ... : A#1 0D . ... : ... .. . ... : ... .. . ... : ... .. . ... : ... .. . ... : ... .. . ... : ... .. . ...
ROW 2A : F#2 0D . ... : A#1 0D . ... : ... .. . ... : ... .. . ... : ... .. . ... : ... .. . ... : ... .. . ... : ... .. . ...
ROW 2B : F#2 0D . ... : ... .. . ... : ... .. . ... : ... .. . ... : ... .. . ... : ... .. . ... : ... .. . ... : ... .. . ...
ROW 2C : F#2 0D . ... : A#1 0D . ... : ... .. . ... : ... .. . ... : ... .. . ... : ... .. . ... : ... .. . ... : ... .. . ...
ROW 2D : ... .. . ... : A#1 0D . ... : ... .. . ... : ... .. . ... : ... .. . ... : ... .. . ... : ... .. . ... : ... .. . ...
ROW 2E : F#2 0D . ... : A#1 0D . ... : ... .. . ... : ... .. . ... : ... .. . ... : ... .. . ... : ... .. . ... : ... .. . ...
ROW 2F : F#2 0D . ... : ... .. . ... : ... .. . ... : ... .. . ... : ... .. . ... : ... .. . ... : ... .. . ... : ... .. . ...
ROW 30 : F#2 0D . ... : A#1 0D . ... : ... .. . ... : ... .. . ... : ... .. . ... : ... .. . ... : ... .. . ... : ... .. . ...
ROW 31 : ... .. . ... : A#1 0D . ... : ... .. . ... : ... .. . ... : ... .. . ... : ... .. . ... : ... .. . ... : ... .. . ...
ROW 32 : F#2 0D . ... : A#1 0D . ... : ... .. . ... : ... .. . ... : C-3 00 . ... : ... .. . ... : ... .. . ... : ... .. . ...
ROW 33 : F#2 0D . ... : ... .. . ... : ... .. . ... : ... .. . ... : ... .. . ... : ... .. . ... : ... .. . ... : ... .. . ...
ROW 34 : F#2 0D . ... : A#1 0D . ... : ... .. . ... : ... .. . ... : ... .. . ... : ... .. . ... : ... .. . ... : ... .. . ...
ROW 35 : ... .. . ... : A#1 0D . ... : ... .. . ... : ... .. . ... : ... .. . ... : ... .. . ... : ... .. . ... : ... .. . ...
ROW 36 : F#2 0D . ... : A#1 0D . ... : ... .. . ... : ... .. . ... : ... .. . ... : ... .. . ... : ... .. . ... : ... .. . ...
ROW 37 : F#2 0D . ... : ... .. . ... : ... .. . ... : ... .. . ... : ... .. . ... : ... .. . ... : ... .. . ... : ... .. . ...
ROW 38 : F#2 0D . ... : A#1 0D . ... : ... .. . ... : 4-# 03 . ... : ... .. . ... : ... .. . ... : ... .. . ... : ... .. . ...
ROW 39 : ... .. . ... : A#1 0D . ... : ... .. . ... : ... .. . ... : ... .. . ... : ... .. . ... : ... .. . ... : ... .. . ...
ROW 3A : F#2 0D . ... : A#1 0D . ... : ... .. . ... : ... .. . ... : ... .. . ... : ... .. . ... : ... .. . ... : ... .. . ...
ROW 3B : F#2 0D . ... : ... .. . ... : ... .. . ... : ... .. . ... : ... .. . ... : ... .. . ... : ... .. . ... : ... .. . ...
ROW 3C : F#2 0D . ... : A#1 0D . ... : ... .. . ... : ... .. . ... : ... .. . ... : ... .. . ... : ... .. . ... : ... .. . ...
ROW 3D : ... .. . ... : A#1 0D . ... : ... .. . ... : ... .. . ... : ... .. . ... : ... .. . ... : ... .. . ... : ... .. . ...
ROW 3E : F#2 0D . ... : A#1 0D . ... : ... .. . ... : ... .. . ... : ... .. . ... : ... .. . ... : ... .. . ... : ... .. . ...
ROW 3F : F#2 0D . ... : ... .. . ... : ... .. . ... : ... .. . ... : ... .. . ... : ... .. . ... : ... .. . ... : ... .. . ...
ROW 40 : A#2 0D 7 ... : A-1 0D 7 ... : ... .. . ... : ... .. . ... : ... .. . ... : ... .. . ... : ... .. . ... : A-0 01 . ...
ROW 41 : ... .. . ... : A-1 0D . ... : ... .. . ... : ... .. . ... : ... .. . ... : ... .. . ... : ... .. . ... : ... .. . ...
ROW 42 : A#2 0D . ... : A-1 0D . ... : ... .. . ... : ... .. . ... : C-3 00 . ... : ... .. . ... : ... .. . ... : ... .. . ...
ROW 43 : A#2 0D . ... : ... .. . ... : ... .. . ... : ... .. . ... : ... .. . ... : ... .. . ... : ... .. . ... : ... .. . ...
ROW 44 : A#2 0D . ... : A-1 0D . ... : ... .. . ... : ... .. . ... : ... .. . ... : ... .. . ... : ... .. . ... : ... .. . ...
ROW 45 : ... .. . ... : A-1 0D . ... : ... .. . ... : ... .. . ... : ... .. . ... : ... .. . ... : ... .. . ... : ... .. . ...
ROW 46 : A#2 0D . ... : A-1 0D . ... : ... .. . ... : ... .. . ... : ... .. . ... : ... .. . ... : ... .. . ... : ... .. . ...
ROW 47 : A#2 0D . ... : ... .. . ... : ... .. . ... : ... .. . ... : ... .. . ... : ... .. . ... : ... .. . ... : ... .. . ...
ROW 48 : A#2 0D . ... : A-1 0D . ... : ... .. . ... : 5-# 03 . ... : ... .. . ... : ... .. . ... : ... .. . ... : ... .. . ...
ROW 49 : ... .. . ... : A-1 0D . ... : ... .. . ... : ... .. . ... : ... .. . ... : ... .. . ... : ... .. . ... : ... .. . ...
ROW 4A : A#2 0D . ... : A-1 0D . ... : ... .. . ... : ... .. . ... : ... .. . ... : ... .. . ... : ... .. . ... : ... .. . ...
ROW 4B : A#2 0D . ... : ... .. . ... : ... .. . ... : ... .. . ... : ... .. . ... : ... .. . ... : ... .. . ... : ... .. . ...
ROW 4C : A#2 0D . ... : A-1 0D . ... : ... .. . ... : ... .. . ... : ... .. . ... : ... .. . ... : ... .. . ... : ... .. . ...
ROW 4D : ... .. . ... : A-1 0D . ... : ... .. . ... : ... .. . ... : ... .. . ... : ... .. . ... : ... .. . ... : ... .. . ...
ROW 4E : A#2 0D . ... : A-1 0D . ... : ... .. . ... : ... .. . ... : ... .. . ... : ... .. . ... : ... .. . ... : ... .. . ...
ROW 4F : A#2 0D . ... : ... .. . ... : ... .. . ... : ... .. . ... : ... .. . ... : ... .. . ... : ... .. . ... : ... .. . ...
ROW 50 : A#2 0D . ... : A-1 0D . ... : ... .. . ... : ... .. . ... : ... .. . ... : ... .. . ... : ... .. . ... : ... .. . ...
ROW 51 : ... .. . ... : A-1 0D . ... : ... .. . ... : ... .. . ... : ... .. . ... : ... .. . ... : ... .. . ... : ... .. . ...
ROW 52 : A#2 0D . ... : A-1 0D . ... : ... .. . ... : ... .. . ... : C-3 00 . ... : ... .. . ... : ... .. . ... : ... .. . ...
ROW 53 : A#2 0D . ... : ... .. . ... : ... .. . ... : ... .. . ... : ... .. . ... : ... .. . ... : ... .. . ... : ... .. . ...
ROW 54 : A#2 0D . ... : A-1 0D . ... : ... .. . ... : ... .. . ... : ... .. . ... : ... .. . ... : ... .. . ... : ... .. . ...
ROW 55 : ... .. . ... : A-1 0D . ... : ... .. . ... : ... .. . ... : ... .. . ... : ... .. . ... : ... .. . ... : ... .. . ...
ROW 56 : A#2 0D . ... : A-1 0D . ... : ... .. . ... : ... .. . ... : ... .. . ... : ... .. . ... : ... .. . ... : ... .. . ...
ROW 57 : A#2 0D . ... : ... .. . ... : ... .. . ... : ... .. . ... : ... .. . ... : ... .. . ... : ... .. . ... : ... .. . ...
ROW 58 : A#2 0D . ... : A-1 0D . ... : ... .. . ... : 5-# 03 . ... : ... .. . ... : ... .. . ... : ... .. . ... : ... .. . ...
ROW 59 : ... .. . ... : A-1 0D . ... : ... .. . ... : ... .. . ... : ... .. . ... : ... .. . ... : ... .. . ... : ... .. . ...
ROW 5A : A#2 0D . ... : A-1 0D . ... : ... .. . ... : ... .. . ... : ... .. . ... : ... .. . ... : ... .. . ... : ... .. . ...
ROW 5B : A#2 0D . ... : ... .. . ... : ... .. . ... : ... .. . ... : ... .. . ... : ... .. . ... : ... .. . ... : ... .. . ...
ROW 5C : A#2 0D . ... : A-1 0D . ... : ... .. . ... : ... .. . ... : ... .. . ... : ... .. . ... : ... .. . ... : ... .. . ...
ROW 5D : ... .. . ... : A-1 0D . ... : ... .. . ... : ... .. . ... : ... .. . ... : ... .. . ... : ... .. . ... : ... .. . ...
ROW 5E : A#2 0D . ... : A-1 0D . ... : ... .. . ... : ... .. . ... : ... .. . ... : ... .. . ... : ... .. . ... : ... .. . ...
ROW 5F : A#2 0D . ... : ... .. . ... : ... .. . ... : ... .. . ... : ... .. . ... : ... .. . ... : ... .. . ... : ... .. . ...
ROW 60 : G#2 0D . ... : A-1 0D . ... : ... .. . ... : ... .. . ... : ... .. . ... : ... .. . ... : ... .. . ... : ... .. . ...
ROW 61 : ... .. . ... : A-1 0D . ... : ... .. . ... : ... .. . ... : ... .. . ... : ... .. . ... : ... .. . ... : ... .. . ...
ROW 62 : G#2 0D . ... : A-1 0D . ... : ... .. . ... : ... .. . ... : C-3 00 . ... : ... .. . ... : ... .. . ... : ... .. . ...
ROW 63 : G#2 0D . ... : ... .. . ... : ... .. . ... : ... .. . ... : ... .. . ... : ... .. . ... : ... .. . ... : ... .. . ...
ROW 64 : G#2 0D . ... : A-1 0D . ... : ... .. . ... : ... .. . ... : ... .. . ... : ... .. . ... : ... .. . ... : ... .. . ...
ROW 65 : ... .. . ... : A-1 0D . ... : ... .. . ... : ... .. . ... : ... .. . ... : ... .. . ... : ... .. . ... : ... .. . ...
ROW 66 : G#2 0D . ... : A-1 0D . ... : ... .. . ... : ... .. . ... : ... .. . ... : ... .. . ... : ... .. . ... : ... .. . ...
ROW 67 : G#2 0D . ... : ... .. . ... : ... .. . ... : ... .. . ... : ... .. . ... : ... .. . ... : ... .. . ... : ... .. . ...
ROW 68 : G#2 0D . ... : A-1 0D . ... : ... .. . ... : 5-# 03 . ... : ... .. . ... : ... .. . ... : ... .. . ... : ... .. . ...
ROW 69 : ... .. . ... : A-1 0D . ... : ... .. . ... : ... .. . ... : ... .. . ... : ... .. . ... : ... .. . ... : ... .. . ...
ROW 6A : G#2 0D . ... : A-1 0D . ... : ... .. . ... : ... .. . ... : ... .. . ... : ... .. . ... : ... .. . ... : ... .. . ...
ROW 6B : G#2 0D . ... : ... .. . ... : ... .. . ... : ... .. . ... : ... .. . ... : ... .. . ... : ... .. . ... : ... .. . ...
ROW 6C : G#2 0D . ... : A-1 0D . ... : ... .. . ... : ... .. . ... : ... .. . ... : ... .. . ... : ... .. . ... : ... .. . ...
ROW 6D : ... .. . ... : A-1 0D . ... : ... .. . ... : ... .. . ... : ... .. . ... : ... .. . ... : ... .. . ... : ... .. . ...
ROW 6E : G#2 0D . ... : A-1 0D . ... : ... .. . ... : ... .. . ... : ... .. . ... : ... .. . ... : ... .. . ... : ... .. . ...
ROW 6F : G#2 0D . ... : ... .. . ... : ... .. . ... : ... .. . ... : ... .. . ... : ... .. . ... : ... .. . ... : ... .. . ...
ROW 70 : G#2 0D . ... : A-1 0D . ... : ... .. . ... : ... .. . ... : ... .. . ... : ... .. . ... : ... .. . ... : ... .. . ...
ROW 71 : ... .. . ... : A-1 0D . ... : ... .. . ... : ... .. . ... : ... .. . ... : ... .. . ... : ... .. . ... : ... .. . ...
ROW 72 : G#2 0D . ... : A-1 0D . ... : ... .. . ... : ... .. . ... : C-3 00 . ... : ... .. . ... : ... .. . ... : ... .. . ...
ROW 73 : G#2 0D . ... : ... .. . ... : ... .. . ... : ... .. . ... : ... .. . ... : ... .. . ... : ... .. . ... : ... .. . ...
ROW 74 : G#2 0D . ... : A-1 0D . ... : ... .. . ... : ... .. . ... : ... .. . ... : ... .. . ... : ... .. . ... : ... .. . ...
ROW 75 : ... .. . ... : A-1 0D . ... : ... .. . ... : ... .. . ... : ... .. . ... : ... .. . ... : ... .. . ... : ... .. . ...
ROW 76 : G#2 0D . ... : A-1 0D . ... : ... .. . ... : ... .. . ... : ... .. . ... : ... .. . ... : ... .. . ... : ... .. . ...
ROW 77 : G#2 0D . ... : ... .. . ... : ... .. . ... : ... .. . ... : ... .. . ... : ... .. . ... : ... .. . ... : ... .. . ...
ROW 78 : G#2 0D . ... : A-1 0D . ... : ... .. . ... : 5-# 03 F ... : ... .. . ... : ... .. . ... : ... .. . ... : ... .. . ...
ROW 79 : ... .. . ... : A-1 0D . ... : ... .. . ... : ... .. . ... : ... .. . ... : ... .. . ... : ... .. . ... : ... .. . ...
ROW 7A : G#2 0D . ... : A-1 0D . ... : ... .. . ... : 4-# 03 7 ... : ... .. . ... : ... .. . ... : ... .. . ... : ... .. . ...
ROW 7B : G#2 0D . ... : ... .. . ... : ... .. . ... : ... .. . ... : ... .. . ... : ... .. . ... : ... .. . ... : ... .. . ...
ROW 7C : G#2 0D . ... : A-1 0D . ... : ... .. . ... : 4-# 03 A ... : ... .. . ... : ... .. . ... : ... .. . ... : ... .. . ...
ROW 7D : ... .. . ... : A-1 0D . ... : ... .. . ... : ... .. . ... : ... .. . ... : ... .. . ... : ... .. . ... : ... .. . ...
ROW 7E : G#2 0D . ... : A-1 0D . ... : ... .. . ... : 3-# 03 C ... : ... .. . ... : ... .. . ... : ... .. . ... : ... .. . ...
ROW 7F : G#2 0D . ... : ... .. . ... : ... .. . ... : ... .. . ... : ... .. . ... : ... .. . ... : ... .. . ... : ... .. . ...

PATTERN 02
ROW 00 : C-2 0D 7 ... : C-3 0D 7 ... : ... .. . ... : 8-# 03 F ... : ... .. . ... : D#2 07 F ... : D#3 07 F ... : C-1 01 8 ...
ROW 01 : ... .. . ... : C-3 0D . ... : ... .. . ... : ... .. . ... : ... .. . ... : ... .. . ... : ... .. . ... : ... .. . ...
ROW 02 : C-2 0D . ... : C-3 0D . ... : ... .. . ... : 1-# 03 2 ... : C-3 00 . ... : ... .. . ... : ... .. . ... : ... .. . ...
ROW 03 : C-2 0D . ... : ... .. . ... : ... .. . ... : ... .. . ... : ... .. . ... : ... .. . ... : ... .. . ... : ... .. . ...
ROW 04 : C-2 0D . ... : C-3 0D . ... : ... .. . ... : 1-# 03 4 ... : ... .. . ... : D-2 07 . ... : D-3 07 . ... : ... .. . ...
ROW 05 : ... .. . ... : C-3 0D . ... : ... .. . ... : ... .. . ... : ... .. . ... : ... .. . ... : ... .. . ... : ... .. . ...
ROW 06 : C-2 0D . ... : C-3 0D . ... : ... .. . ... : 1-# 03 6 ... : ... .. . ... : ... .. . ... : ... .. . ... : ... .. . ...
ROW 07 : C-2 0D . ... : ... .. . ... : ... .. . ... : ... .. . ... : ... .. . ... : ... .. . ... : ... .. . ... : ... .. . ...
ROW 08 : C-2 0D . ... : C-3 0D . ... : ... .. . ... : 4-# 03 F ... : ... .. . ... : D#2 07 . ... : D#3 07 . ... : ... .. . ...
ROW 09 : ... .. . ... : C-3 0D . ... : ... .. . ... : ... .. . ... : ... .. . ... : ... .. . ... : ... .. . ... : ... .. . ...
ROW 0A : C-2 0D . ... : C-3 0D . ... : ... .. . ... : 1-# 03 2 ... : ... .. . ... : ... .. . ... : ... .. . ... : ... .. . ...
ROW 0B : C-2 0D . ... : ... .. . ... : ... .. . ... : ... .. . ... : ... .. . ... : ... .. . ... : ... .. . ... : ... .. . ...
ROW 0C : C-2 0D . ... : C-3 0D . ... : ... .. . ... : 1-# 03 3 ... : ... .. . ... : C-2 07 . ... : C-3 07 . ... : ... .. . ...
ROW 0D : ... .. . ... : C-3 0D . ... : ... .. . ... : ... .. . ... : ... .. . ... : ... .. . ... : ... .. . ... : ... .. . ...
ROW 0E : C-2 0D . ... : C-3 0D . ... : ... .. . ... : 1-# 03 4 ... : ... .. . ... : ... .. . ... : ... .. . ... : ... .. . ...
ROW 0F : C-2 0D . ... : ... .. . ... : ... .. . ... : ... .. . ... : ... .. . ... : ... .. . ... : ... .. . ... : ... .. . ...
ROW 10 : C-2 0D . ... : C-3 0D . ... : ... .. . ... : 1-# 03 5 ... : ... .. . ... : ... .. . ... : ... .. . ... : ... .. . ...
ROW 11 : ... .. . ... : C-3 0D . ... : ... .. . ... : ... .. . ... : ... .. . ... : ... .. . ... : ... .. . ... : ... .. . ...
ROW 12 : C-2 0D . ... : C-3 0D . ... : ... .. . ... : 1-# 03 6 ... : C-3 00 . ... : ... .. . ... : ... .. . ... : ... .. . ...
ROW 13 : C-2 0D . ... : ... .. . ... : ... .. . ... : ... .. . ... : ... .. . ... : ... .. . ... : ... .. . ... : ... .. . ...
ROW 14 : C-2 0D . ... : C-3 0D . ... : ... .. . ... : 1-# 03 7 ... : ... .. . ... : D-2 07 . ... : D-3 07 . ... : ... .. . ...
ROW 15 : ... .. . ... : C-3 0D . ... : ... .. . ... : ... .. . ... : ... .. . ... : ... .. . ... : ... .. . ... : ... .. . ...
ROW 16 : C-2 0D . ... : C-3 0D . ... : ... .. . ... : 1-# 03 8 ... : ... .. . ... : ... .. . ... : ... .. . ... : ... .. . ...
ROW 17 : C-2 0D . ... : ... .. . ... : ... .. . ... : ... .. . ... : ... .. . ... : ... .. . ... : ... .. . ... : ... .. . ...
ROW 18 : C-2 0D . ... : C-3 0D . ... : ... .. . ... : 4-# 03 F ... : ... .. . ... : D#2 07 . ... : D#3 07 . ... : ... .. . ...
ROW 19 : ... .. . ... : C-3 0D . ... : ... .. . ... : ... .. . ... : ... .. . ... : ... .. . ... : ... .. . ... : ... .. . ...
ROW 1A : C-2 0D . ... : C-3 0D . ... : ... .. . ... : 1-# 03 2 ... : ... .. . ... : ... .. . ... : ... .. . ... : ... .. . ...
ROW 1B : C-2 0D . ... : ... .. . ... : ... .. . ... : ... .. . ... : ... .. . ... : ... .. . ... : ... .. . ... : ... .. . ...
ROW 1C : C-2 0D . ... : C-3 0D . ... : ... .. . ... : 1-# 03 3 ... : ... .. . ... : F-2 07 . ... : F-3 07 . ... : ... .. . ...
ROW 1D : ... .. . ... : C-3 0D . ... : ... .. . ... : ... .. . ... : ... .. . ... : ... .. . ... : ... .. . ... : ... .. . ...
ROW 1E : C-2 0D . ... : C-3 0D . ... : ... .. . ... : 1-# 03 4 ... : ... .. . ... : ... .. . ... : ... .. . ... : ... .. . ...
ROW 1F : C-2 0D . ... : ... .. . ... : ... .. . ... : ... .. . ... : ... .. . ... : ... .. . ... : ... .. . ... : ... .. . ...
ROW 20 : D#2 0D . ... : D#3 0D . ... : ... .. . ... : 1-# 03 5 ... : ... .. . ... : G-2 07 . ... : G-3 07 . ... : D#1 01 . ...
ROW 21 : ... .. . ... : D#3 0D . ... : ... .. . ... : ... .. . ... : ... .. . ... : ... .. . ... : ... .. . ... : ... .. . ...
ROW 22 : D#2 0D . ... : D#3 0D . ... : ... .. . ... : 1-# 03 6 ... : C-3 00 . ... : ... .. . ... : ... .. . ... : ... .. . ...
ROW 23 : D#2 0D . ... : ... .. . ... : ... .. . ... : ... .. . ... : ... .. . ... : ... .. . ... : ... .. . ... : ... .. . ...
ROW 24 : D#2 0D . ... : D#3 0D . ... : ... .. . ... : 1-# 03 7 ... : ... .. . ... : ... .. . ... : ... .. . ... : ... .. . ...
ROW 25 : ... .. . ... : D#3 0D . ... : ... .. . ... : ... .. . ... : ... .. . ... : ... .. . ... : ... .. . ... : ... .. . ...
ROW 26 : D#2 0D . ... : D#3 0D . ... : ... .. . ... : 1-# 03 8 ... : ... .. . ... : ... .. . ... : ... .. . ... : ... .. . ...
ROW 27 : D#2 0D . ... : ... .. . ... : ... .. . ... : ... .. . ... : ... .. . ... : ... .. . ... : ... .. . ... : ... .. . ...
ROW 28 : D#2 0D . ... : D#3 0D . ... : ... .. . ... : 4-# 03 F ... : ... .. . ... : G#2 07 . ... : G#3 07 . ... : ... .. . ...
ROW 29 : ... .. . ... : D#3 0D . ... : ... .. . ... : ... .. . ... : ... .. . ... : ... .. . ... : ... .. . ... : ... .. . ...
ROW 2A : D#2 0D . ... : D#3 0D . ... : ... .. . ... : 1-# 03 2 ... : ... .. . ... : ... .. . ... : ... .. . ... : ... .. . ...
ROW 2B : D#2 0D . ... : ... .. . ... : ... .. . ... : ... .. . ... : ... .. . ... : ... .. . ... : ... .. . ... : ... .. . ...
ROW 2C : D#2 0D . ... : D#3 0D . ... : ... .. . ... : 1-# 03 3 ... : ... .. . ... : ... .. . ... : ... .. . ... : ... .. . ...
ROW 2D : ... .. . ... : D#3 0D . ... : ... .. . ... : ... .. . ... : ... .. . ... : ... .. . ... : ... .. . ... : ... .. . ...
ROW 2E : D#2 0D . ... : D#3 0D . ... : ... .. . ... : 1-# 03 4 ... : ... .. . ... : ... .. . ... : ... .. . ... : ... .. . ...
ROW 2F : D#2 0D . ... : ... .. . ... : ... .. . ... : ... .. . ... : ... .. . ... : ... .. . ... : ... .. . ... : ... .. . ...
ROW 30 : D#2 0D . ... : D#3 0D . ... : ... .. . ... : 1-# 03 5 ... : ... .. . ... : G-2 07 . ... : G-3 07 . ... : ... .. . ...
ROW 31 : ... .. . ... : D#3 0D . ... : ... .. . ... : ... .. . ... : ... .. . ... : ... .. . ... : ... .. . ... : ... .. . ...
ROW 32 : D#2 0D . ... : D#3 0D . ... : ... .. . ... : 1-# 03 6 ... : C-3 00 . ... : ... .. . ... : ... .. . ... : ... .. . ...
ROW 33 : D#2 0D . ... : ... .. . ... : ... .. . ... : ... .. . ... : ... .. . ... : ... .. . ... : ... .. . ... : ... .. . ...
ROW 34 : D#2 0D . ... : D#3 0D . ... : ... .. . ... : 1-# 03 7 ... : ... .. . ... : ... .. . ... : ... .. . ... : ... .. . ...
ROW 35 : ... .. . ... : D#3 0D . ... : ... .. . ... : ... .. . ... : ... .. . ... : ... .. . ... : ... .. . ... : ... .. . ...
ROW 36 : D#2 0D . ... : D#3 0D . ... : ... .. . ... : 1-# 03 8 ... : ... .. . ... : ... .. . ... : ... .. . ... : ... .. . ...
ROW 37 : D#2 0D . ... : ... .. . ... : ... .. . ... : ... .. . ... : ... .. . ... : ... .. . ... : ... .. . ... : ... .. . ...
ROW 38 : D#2 0D . ... : D#3 0D . ... : ... .. . ... : 4-# 03 F ... : ... .. . ... : F#2 07 . ... : F#3 07 . ... : ... .. . ...
ROW 39 : ... .. . ... : D#3 0D . ... : ... .. . ... : ... .. . ... : ... .. . ... : ... .. . ... : ... .. . ... : ... .. . ...
ROW 3A : D#2 0D . ... : D#3 0D . ... : ... .. . ... : ... .. . ... : ... .. . ... : ... .. . ... : ... .. . ... : ... .. . ...
ROW 3B : D#2 0D . ... : ... .. . ... : ... .. . ... : 3-# 03 C ... : ... .. . ... : ... .. . ... : ... .. . ... : ... .. . ...
ROW 3C : D#2 0D . ... : D#3 0D . ... : ... .. . ... : ... .. . ... : ... .. . ... : ... .. . ... : ... .. . ... : ... .. . ...
ROW 3D : ... .. . ... : D#3 0D . ... : ... .. . ... : ... .. . ... : ... .. . ... : ... .. . ... : ... .. . ... : ... .. . ...
ROW 3E : D#2 0D . ... : D#3 0D . ... : ... .. . ... : 1-# 03 A ... : ... .. . ... : ... .. . ... : ... .. . ... : ... .. . ...
ROW 3F : D#2 0D . ... : ... .. . ... : ... .. . ... : ... .. . ... : ... .. . ... : ... .. . ... : ... .. . ... : ... .. . ...
ROW 40 : G-2 0D . ... : G-3 0D . ... : ... .. . ... : 1-# 03 5 ... : ... .. . ... : G-2 07 . ... : G-3 07 . ... : G-1 01 . ...
ROW 41 : ... .. . ... : G-3 0D . ... : ... .. . ... : ... .. . ... : ... .. . ... : ... .. . ... : ... .. . ... : ... .. . ...
ROW 42 : G-2 0D . ... : G-3 0D . ... : ... .. . ... : 1-# 03 6 ... : C-3 00 . ... : ... .. . ... : ... .. . ... : ... .. . ...
ROW 43 : G-2 0D . ... : ... .. . ... : ... .. . ... : ... .. . ... : ... .. . ... : ... .. . ... : ... .. . ... : ... .. . ...
ROW 44 : G-2 0D . ... : G-3 0D . ... : ... .. . ... : 1-# 03 7 ... : ... .. . ... : F-2 07 . ... : F-3 07 . ... : ... .. . ...
ROW 45 : ... .. . ... : G-3 0D . ... : ... .. . ... : ... .. . ... : ... .. . ... : ... .. . ... : ... .. . ... : ... .. . ...
ROW 46 : G-2 0D . ... : G-3 0D . ... : ... .. . ... : 1-# 03 8 ... : ... .. . ... : D#2 07 . ... : D#3 07 . ... : ... .. . ...
ROW 47 : G-2 0D . ... : ... .. . ... : ... .. . ... : ... .. . ... : ... .. . ... : ... .. . ... : ... .. . ... : ... .. . ...
ROW 48 : G-2 0D . ... : G-3 0D . ... : ... .. . ... : 4-# 03 F ... : ... .. . ... : D-2 07 . ... : D-3 07 . ... : ... .. . ...
ROW 49 : ... .. . ... : G-3 0D . ... : ... .. . ... : ... .. . ... : ... .. . ... : ... .. . ... : ... .. . ... : ... .. . ...
ROW 4A : G-2 0D . ... : G-3 0D . ... : ... .. . ... : 1-# 03 2 ... : ... .. . ... : ... .. . ... : ... .. . ... : ... .. . ...
ROW 4B : G-2 0D . ... : ... .. . ... : ... .. . ... : ... .. . ... : ... .. . ... : ... .. . ... : ... .. . ... : ... .. . ...
ROW 4C : G-2 0D . ... : G-3 0D . ... : ... .. . ... : 1-# 03 3 ... : ... .. . ... : D#2 07 . ... : D#3 07 . ... : ... .. . ...
ROW 4D : ... .. . ... : G-3 0D . ... : ... .. . ... : ... .. . ... : ... .. . ... : ... .. . ... : ... .. . ... : ... .. . ...
ROW 4E : G-2 0D . ... : G-3 0D . ... : ... .. . ... : 1-# 03 4 ... : ... .. . ... : ... .. . ... : ... .. . ... : ... .. . ...
ROW 4F : G-2 0D . ... : ... .. . ... : ... .. . ... : ... .. . ... : ... .. . ... : ... .. . ... : ... .. . ... : ... .. . ...
ROW 50 : G-2 0D . ... : G-3 0D . ... : ... .. . ... : 1-# 03 5 ... : ... .. . ... : C-2 07 . ... : C-3 07 . ... : ... .. . ...
ROW 51 : ... .. . ... : G-3 0D . ... : ... .. . ... : ... .. . ... : ... .. . ... : ... .. . ... : ... .. . ... : ... .. . ...
ROW 52 : G-2 0D . ... : G-3 0D . ... : ... .. . ... : 1-# 03 6 ... : C-3 00 . ... : ... .. . ... : ... .. . ... : ... .. . ...
ROW 53 : G-2 0D . ... : ... .. . ... : ... .. . ... : ... .. . ... : ... .. . ... : ... .. . ... : ... .. . ... : ... .. . ...
ROW 54 : G-2 0D . ... : G-3 0D . ... : ... .. . ... : 1-# 03 7 ... : ... .. . ... : ... .. . ... : ... .. . ... : ... .. . ...
ROW 55 : ... .. . ... : G-3 0D . ... : ... .. . ... : ... .. . ... : ... .. . ... : ... .. . ... : ... .. . ... : ... .. . ...
ROW 56 : G-2 0D . ... : G-3 0D . ... : ... .. . ... : 1-# 03 8 ... : ... .. . ... : ... .. . ... : ... .. . ... : ... .. . ...
ROW 57 : G-2 0D . ... : ... .. . ... : ... .. . ... : ... .. . ... : ... .. . ... : ... .. . ... : ... .. . ... : ... .. . ...
ROW 58 : G-2 0D . ... : G-3 0D . ... : ... .. . ... : 4-# 03 F ... : ... .. . ... : ... .. . ... : ... .. . ... : ... .. . ...
ROW 59 : ... .. . ... : G-3 0D . ... : ... .. . ... : ... .. . ... : ... .. . ... : ... .. . ... : ... .. . ... : ... .. . ...
ROW 5A : G-2 0D . ... : G-3 0D . ... : ... .. . ... : 1-# 03 2 ... : ... .. . ... : ... .. . ... : ... .. . ... : ... .. . ...
ROW 5B : G-2 0D . ... : ... .. . ... : ... .. . ... : ... .. . ... : ... .. . ... : ... .. . ... : ... .. . ... : ... .. . ...
ROW 5C : D-2 0D . ... : D-3 0D . ... : ... .. . ... : 1-# 03 3 ... : ... .. . ... : B-1 07 . ... : B-2 07 . ... : D-1 01 . ...
ROW 5D : ... .. . ... : D-3 0D . ... : ... .. . ... : ... .. . ... : ... .. . ... : ... .. . ... : ... .. . ... : ... .. . ...
ROW 5E : D-2 0D . ... : D-3 0D . ... : ... .. . ... : 1-# 03 4 ... : ... .. . ... : ... .. . ... : ... .. . ... : ... .. . ...
ROW 5F : D-2 0D . ... : ... .. . ... : ... .. . ... : ... .. . ... : ... .. . ... : ... .. . ... : ... .. . ... : ... .. . ...
ROW 60 : C-2 0D . ... : C-3 0D . ... : ... .. . ... : 1-# 03 5 ... : ... .. . ... : C-2 07 . ... : C-3 07 . ... : C-1 01 . ...
ROW 61 : ... .. . ... : C-3 0D . ... : ... .. . ... : ... .. . ... : ... .. . ... : ... .. . ... : ... .. . ... : ... .. . ...
ROW 62 : C-2 0D . ... : C-3 0D . ... : ... .. . ... : 1-# 03 6 ... : C-3 00 . ... : ... .. . ... : ... .. . ... : ... .. . ...
ROW 63 : C-2 0D . ... : ... .. . ... : ... .. . ... : ... .. . ... : ... .. . ... : ... .. . ... : ... .. . ... : ... .. . ...
ROW 64 : C-2 0D . ... : C-3 0D . ... : ... .. . ... : 1-# 03 7 ... : ... .. . ... : ... .. . ... : ... .. . ... : ... .. . ...
ROW 65 : ... .. . ... : C-3 0D . ... : ... .. . ... : ... .. . ... : ... .. . ... : ... .. . ... : ... .. . ... : ... .. . ...
ROW 66 : C-2 0D . ... : C-3 0D . ... : ... .. . ... : 1-# 03 8 ... : ... .. . ... : ... .. . ... : ... .. . ... : ... .. . ...
ROW 67 : C-2 0D . ... : ... .. . ... : ... .. . ... : ... .. . ... : ... .. . ... : ... .. . ... : ... .. . ... : ... .. . ...
ROW 68 : C-2 0D . ... : C-3 0D . ... : ... .. . ... : 4-# 03 F ... : ... .. . ... : ... .. . ... : ... .. . ... : ... .. . ...
ROW 69 : ... .. . ... : C-3 0D . ... : ... .. . ... : ... .. . ... : ... .. . ... : ... .. . ... : ... .. . ... : ... .. . ...
ROW 6A : C-2 0D . ... : C-3 0D . ... : ... .. . ... : 1-# 03 2 ... : ... .. . ... : ... .. . ... : ... .. . ... : ... .. . ...
ROW 6B : C-2 0D . ... : ... .. . ... : ... .. . ... : ... .. . ... : ... .. . ... : ... .. . ... : ... .. . ... : ... .. . ...
ROW 6C : C-2 0D . ... : C-3 0D . ... : ... .. . ... : 1-# 03 3 ... : ... .. . ... : ... .. . ... : ... .. . ... : ... .. . ...
ROW 6D : ... .. . ... : C-3 0D . ... : ... .. . ... : ... .. . ... : ... .. . ... : ... .. . ... : ... .. . ... : ... .. . ...
ROW 6E : C-2 0D . ... : C-3 0D . ... : ... .. . ... : 1-# 03 4 ... : ... .. . ... : ... .. . ... : ... .. . ... : ... .. . ...
ROW 6F : C-2 0D . ... : ... .. . ... : ... .. . ... : ... .. . ... : ... .. . ... : ... .. . ... : ... .. . ... : ... .. . ...
ROW 70 : D-2 0D . ... : D-3 0D . ... : ... .. . ... : 1-# 03 5 ... : ... .. . ... : D-2 07 . ... : D-3 07 . ... : D-1 01 . ...
ROW 71 : ... .. . ... : D-3 0D . ... : ... .. . ... : ... .. . ... : ... .. . ... : ... .. . ... : ... .. . ... : ... .. . ...
ROW 72 : D-2 0D . ... : D-3 0D . ... : ... .. . ... : 1-# 03 6 ... : C-3 00 . ... : ... .. . ... : ... .. . ... : ... .. . ...
ROW 73 : D-2 0D . ... : ... .. . ... : ... .. . ... : ... .. . ... : ... .. . ... : ... .. . ... : ... .. . ... : ... .. . ...
ROW 74 : D-2 0D . ... : D-3 0D . ... : ... .. . ... : 1-# 03 7 ... : ... .. . ... : ... .. . ... : ... .. . ... : ... .. . ...
ROW 75 : ... .. . ... : D-3 0D . ... : ... .. . ... : ... .. . ... : ... .. . ... : ... .. . ... : ... .. . ... : ... .. . ...
ROW 76 : D-2 0D . ... : D-3 0D . ... : ... .. . ... : 1-# 03 8 ... : ... .. . ... : ... .. . ... : ... .. . ... : ... .. . ...
ROW 77 : D-2 0D . ... : ... .. . ... : ... .. . ... : ... .. . ... : ... .. . ... : ... .. . ... : ... .. . ... : ... .. . ...
ROW 78 : D-2 0D . ... : D-3 0D . ... : ... .. . ... : 4-# 03 F ... : ... .. . ... : B-1 07 . ... : B-2 07 . ... : ... .. . ...
ROW 79 : ... .. . ... : D-3 0D . ... : ... .. . ... : ... .. . ... : ... .. . ... : ... .. . ... : ... .. . ... : ... .. . ...
ROW 7A : D-2 0D . ... : D-3 0D . ... : ... .. . ... : 1-# 03 2 ... : ... .. . ... : ... .. . ... : ... .. . ... : ... .. . ...
ROW 7B : D-2 0D . ... : ... .. . ... : ... .. . ... : ... .. . ... : ... .. . ... : ... .. . ... : ... .. . ... : ... .. . ...
ROW 7C : D-2 0D . ... : D-3 0D . ... : ... .. . ... : 1-# 03 3 ... : ... .. . ... : ... .. . ... : ... .. . ... : ... .. . ...
ROW 7D : ... .. . ... : D-3 0D . ... : ... .. . ... : ... .. . ... : ... .. . ... : ... .. . ... : ... .. . ... : ... .. . ...
ROW 7E : D-2 0D . ... : D-3 0D . ... : ... .. . ... : 1-# 03 4 ... : ... .. . ... : ... .. . ... : ... .. . ... : ... .. . ...
ROW 7F : D-2 0D . ... : ... .. . ... : ... .. . ... : ... .. . ... : ... .. . ... : ... .. . ... : ... .. . ... : ... .. . ...

PATTERN 03
ROW 00 : ... .. . ... : C-3 0D F ... : ... .. . ... : 1-# 03 5 ... : ... .. . ... : D#2 07 F ... : C-3 07 F ... : C-1 01 8 ...
ROW 01 : ... .. . ... : ... .. . ... : ... .. . ... : ... .. . ... : ... .. . ... : ... .. . ... : ... .. . ... : ... .. . ...
ROW 02 : C-3 0D 7 ... : G-2 0D . ... : ... .. . ... : 1-# 03 6 ... : C-3 00 . ... : ... .. . ... : ... .. . ... : ... .. . ...
ROW 03 : ... .. . ... : ... .. . ... : ... .. . ... : ... .. . ... : ... .. . ... : ... .. . ... : ... .. . ... : ... .. . ...
ROW 04 : G-2 0D . ... : C-2 0D . ... : ... .. . ... : 1-# 03 7 ... : ... .. . ... : D-2 07 . ... : ... .. . ... : ... .. . ...
ROW 05 : ... .. . ... : ... .. . ... : ... .. . ... : ... .. . ... : ... .. . ... : ... .. . ... : ... .. . ... : ... .. . ...
ROW 06 : C-2 0D . ... : G-2 0D . ... : ... .. . ... : 1-# 03 8 ... : ... .. . ... : ... .. . ... : ... .. . ... : ... .. . ...
ROW 07 : ... .. . ... : ... .. . ... : ... .. . ... : ... .. . ... : ... .. . ... : ... .. . ... : ... .. . ... : ... .. . ...
ROW 08 : G-2 0D . ... : C-3 0D . ... : ... .. . ... : 4-# 03 F ... : ... .. . ... : D#2 07 . ... : G-2 07 . ... : ... .. . ...
ROW 09 : ... .. . ... : ... .. . ... : ... .. . ... : ... .. . ... : ... .. . ... : ... .. . ... : ... .. . ... : ... .. . ...
ROW 0A : C-3 0D . ... : G-2 0D . ... : ... .. . ... : 1-# 03 2 ... : ... .. . ... : ... .. . ... : ... .. . ... : ... .. . ...
ROW 0B : ... .. . ... : ... .. . ... : ... .. . ... : ... .. . ... : ... .. . ... : ... .. . ... : ... .. . ... : ... .. . ...
ROW 0C : G-2 0D . ... : C-2 0D . ... : ... .. . ... : 1-# 03 3 ... : ... .. . ... : C-2 07 . ... : ... .. . ... : ... .. . ...
ROW 0D : ... .. . ... : ... .. . ... : ... .. . ... : ... .. . ... : ... .. . ... : ... .. . ... : ... .. . ... : ... .. . ...
ROW 0E : C-2 0D . ... : G-2 0D . ... : ... .. . ... : 1-# 03 4 ... : ... .. . ... : ... .. . ... : ... .. . ... : ... .. . ...
ROW 0F : ... .. . ... : ... .. . ... : ... .. . ... : ... .. . ... : ... .. . ... : ... .. . ... : ... .. . ... : ... .. . ...
ROW 10 : G-2 0D . ... : C-3 0D . ... : ... .. . ... : 1-# 03 5 ... : ... .. . ... : ... .. . ... : C-3 07 . ... : ... .. . ...
ROW 11 : ... .. . ... : ... .. . ... : ... .. . ... : ... .. . ... : ... .. . ... : ... .. . ... : ... .. . ... : ... .. . ...
ROW 12 : C-3 0D . ... : G-2 0D . ... : ... .. . ... : 1-# 03 6 ... : C-3 00 . ... : ... .. . ... : ... .. . ... : ... .. . ...
ROW 13 : ... .. . ... : ... .. . ... : ... .. . ... : ... .. . ... : ... .. . ... : ... .. . ... : ... .. . ... : ... .. . ...
ROW 14 : G-2 0D . ... : C-2 0D . ... : ... .. . ... : 1-# 03 7 ... : ... .. . ... : D-2 07 . ... : ... .. . ... : ... .. . ...
ROW 15 : ... .. . ... : ... .. . ... : ... .. . ... : ... .. . ... : ... .. . ... : ... .. . ... : ... .. . ... : ... .. . ...
ROW 16 : C-2 0D . ... : G-2 0D . ... : ... .. . ... : 1-# 03 8 ... : ... .. . ... : ... .. . ... : ... .. . ... : ... .. . ...
ROW 17 : ... .. . ... : ... .. . ... : ... .. . ... : ... .. . ... : ... .. . ... : ... .. . ... : ... .. . ... : ... .. . ...
ROW 18 : G-2 0D . ... : C-3 0D . ... : ... .. . ... : 4-# 03 F ... : ... .. . ... : D#2 07 . ... : B-2 07 . ... : ... .. . ...
ROW 19 : ... .. . ... : ... .. . ... : ... .. . ... : ... .. . ... : ... .. . ... : ... .. . ... : ... .. . ... : ... .. . ...
ROW 1A : C-3 0D . ... : G-2 0D . ... : ... .. . ... : 1-# 03 2 ... : ... .. . ... : ... .. . ... : ... .. . ... : ... .. . ...
ROW 1B : ... .. . ... : ... .. . ... : ... .. . ... : ... .. . ... : ... .. . ... : ... .. . ... : ... .. . ... : ... .. . ...
ROW 1C : G-2 0D . ... : C-2 0D . ... : ... .. . ... : 1-# 03 3 ... : ... .. . ... : F-2 07 . ... : ... .. . ... : ... .. . ...
ROW 1D : ... .. . ... : ... .. . ... : ... .. . ... : ... .. . ... : ... .. . ... : ... .. . ... : ... .. . ... : ... .. . ...
ROW 1E : C-2 0D . ... : G-2 0D . ... : ... .. . ... : 1-# 03 4 ... : ... .. . ... : ... .. . ... : ... .. . ... : ... .. . ...
ROW 1F : ... .. . ... : ... .. . ... : ... .. . ... : ... .. . ... : ... .. . ... : ... .. . ... : ... .. . ... : ... .. . ...
ROW 20 : G-2 0D . ... : C-3 0D . ... : ... .. . ... : 1-# 03 5 ... : ... .. . ... : G-2 07 . ... : D#3 07 . ... : D#1 01 . ...
ROW 21 : ... .. . ... : ... .. . ... : ... .. . ... : ... .. . ... : ... .. . ... : ... .. . ... : ... .. . ... : ... .. . ...
ROW 22 : C-3 0D . ... : D#2 0D . ... : ... .. . ... : 1-# 03 6 ... : C-3 00 . ... : ... .. . ... : ... .. . ... : ... .. . ...
ROW 23 : ... .. . ... : ... .. . ... : ... .. . ... : ... .. . ... : ... .. . ... : ... .. . ... : ... .. . ... : ... .. . ...
ROW 24 : D#2 0D . ... : C-2 0D . ... : ... .. . ... : 1-# 03 7 ... : ... .. . ... : ... .. . ... : D-3 07 . ... : ... .. . ...
ROW 25 : ... .. . ... : ... .. . ... : ... .. . ... : ... .. . ... : ... .. . ... : ... .. . ... : ... .. . ... : ... .. . ...
ROW 26 : C-2 0D . ... : D#2 0D . ... : ... .. . ... : 1-# 03 8 ... : ... .. . ... : ... .. . ... : C-3 07 . ... : ... .. . ...
ROW 27 : ... .. . ... : ... .. . ... : ... .. . ... : ... .. . ... : ... .. . ... : ... .. . ... : ... .. . ... : ... .. . ...
ROW 28 : D#2 0D . ... : C-3 0D . ... : ... .. . ... : 4-# 03 F ... : ... .. . ... : G#2 07 . ... : D#3 07 . ... : ... .. . ...
ROW 29 : ... .. . ... : ... .. . ... : ... .. . ... : ... .. . ... : ... .. . ... : ... .. . ... : ... .. . ... : ... .. . ...
ROW 2A : C-3 0D . ... : D#2 0D . ... : ... .. . ... : 1-# 03 2 ... : ... .. . ... : ... .. . ... : ... .. . ... : ... .. . ...
ROW 2B : ... .. . ... : ... .. . ... : ... .. . ... : ... .. . ... : ... .. . ... : ... .. . ... : ... .. . ... : ... .. . ...
ROW 2C : D#2 0D . ... : C-2 0D . ... : ... .. . ... : 1-# 03 3 ... : ... .. . ... : ... .. . ... : F-3 07 . ... : ... .. . ...
ROW 2D : ... .. . ... : ... .. . ... : ... .. . ... : ... .. . ... : ... .. . ... : ... .. . ... : ... .. . ... : ... .. . ...
ROW 2E : C-2 0D . ... : D#2 0D . ... : ... .. . ... : 1-# 03 4 ... : ... .. . ... : ... .. . ... : ... .. . ... : ... .. . ...
ROW 2F : ... .. . ... : ... .. . ... : ... .. . ... : ... .. . ... : ... .. . ... : ... .. . ... : ... .. . ... : ... .. . ...
ROW 30 : D#2 0D . ... : C-3 0D . ... : ... .. . ... : 1-# 03 5 ... : ... .. . ... : G-2 07 . ... : G-3 07 . ... : ... .. . ...
ROW 31 : ... .. . ... : ... .. . ... : ... .. . ... : ... .. . ... : ... .. . ... : ... .. . ... : ... .. . ... : ... .. . ...
ROW 32 : C-3 0D . ... : D#2 0D . ... : ... .. . ... : 1-# 03 6 ... : C-3 00 . ... : ... .. . ... : ... .. . ... : ... .. . ...
ROW 33 : ... .. . ... : ... .. . ... : ... .. . ... : ... .. . ... : ... .. . ... : ... .. . ... : ... .. . ... : ... .. . ...
ROW 34 : D#2 0D . ... : C-2 0D . ... : ... .. . ... : 1-# 03 7 ... : ... .. . ... : ... .. . ... : ... .. . ... : ... .. . ...
ROW 35 : ... .. . ... : ... .. . ... : ... .. . ... : ... .. . ... : ... .. . ... : ... .. . ... : ... .. . ... : ... .. . ...
ROW 36 : C-2 0D . ... : D#2 0D . ... : ... .. . ... : 1-# 03 8 ... : ... .. . ... : ... .. . ... : ... .. . ... : ... .. . ...
ROW 37 : ... .. . ... : ... .. . ... : ... .. . ... : ... .. . ... : ... .. . ... : ... .. . ... : ... .. . ... : ... .. . ...
ROW 38 : D#2 0D . ... : C-3 0D . ... : ... .. . ... : 4-# 03 F ... : ... .. . ... : F#2 07 . ... : C-4 07 . ... : ... .. . ...
ROW 39 : ... .. . ... : ... .. . ... : ... .. . ... : 1-# 03 8 ... : ... .. . ... : ... .. . ... : ... .. . ... : ... .. . ...
ROW 3A : C-3 0D . ... : D#2 0D . ... : ... .. . ... : ... .. . ... : ... .. . ... : ... .. . ... : ... .. . ... : ... .. . ...
ROW 3B : ... .. . ... : ... .. . ... : ... .. . ... : 3-# 03 C ... : ... .. . ... : ... .. . ... : ... .. . ... : ... .. . ...
ROW 3C : D#2 0D . ... : C-2 0D . ... : ... .. . ... : 1-# 03 8 ... : ... .. . ... : ... .. . ... : G-3 07 . ... : ... .. . ...
ROW 3D : ... .. . ... : ... .. . ... : ... .. . ... : ... .. . ... : ... .. . ... : ... .. . ... : ... .. . ... : ... .. . ...
ROW 3E : C-2 0D . ... : D#2 0D . ... : ... .. . ... : 1-# 03 A ... : ... .. . ... : ... .. . ... : ... .. . ... : ... .. . ...
ROW 3F : ... .. . ... : ... .. . ... : ... .. . ... : 1-# 03 8 ... : ... .. . ... : ... .. . ... : ... .. . ... : ... .. . ...
ROW 40 : D#2 0D . ... : C-3 0D . ... : ... .. . ... : 1-# 03 5 ... : ... .. . ... : G-2 07 . ... : A#3 07 . ... : G-1 01 . ...
ROW 41 : ... .. . ... : ... .. . ... : ... .. . ... : ... .. . ... : ... .. . ... : ... .. . ... : ... .. . ... : ... .. . ...
ROW 42 : C-3 0D . ... : G-2 0D . ... : ... .. . ... : 1-# 03 6 ... : C-3 00 . ... : ... .. . ... : ... .. . ... : ... .. . ...
ROW 43 : ... .. . ... : ... .. . ... : ... .. . ... : ... .. . ... : ... .. . ... : ... .. . ... : ... .. . ... : ... .. . ...
ROW 44 : G-2 0D . ... : D-2 0D . ... : ... .. . ... : 1-# 03 7 ... : ... .. . ... : F-2 07 . ... : A-3 07 . ... : ... .. . ...
ROW 45 : ... .. . ... : ... .. . ... : ... .. . ... : ... .. . ... : ... .. . ... : ... .. . ... : ... .. . ... : ... .. . ...
ROW 46 : D-2 0D . ... : G-2 0D . ... : ... .. . ... : 1-# 03 8 ... : ... .. . ... : D#2 07 . ... : C-4 07 . ... : ... .. . ...
ROW 47 : ... .. . ... : ... .. . ... : ... .. . ... : ... .. . ... : ... .. . ... : ... .. . ... : ... .. . ... : ... .. . ...
ROW 48 : G-2 0D . ... : C-3 0D . ... : ... .. . ... : 4-# 03 F ... : ... .. . ... : D-2 07 . ... : A#3 07 . ... : ... .. . ...
ROW 49 : ... .. . ... : ... .. . ... : ... .. . ... : ... .. . ... : ... .. . ... : ... .. . ... : ... .. . ... : ... .. . ...
ROW 4A : C-3 0D . ... : G-2 0D . ... : ... .. . ... : 1-# 03 2 ... : ... .. . ... : ... .. . ... : ... .. . ... : ... .. . ...
ROW 4B : ... .. . ... : ... .. . ... : ... .. . ... : ... .. . ... : ... .. . ... : ... .. . ... : ... .. . ... : ... .. . ...
ROW 4C : G-2 0D . ... : D-2 0D . ... : ... .. . ... : 1-# 03 3 ... : ... .. . ... : D#2 07 . ... : ... .. . ... : ... .. . ...
ROW 4D : ... .. . ... : ... .. . ... : ... .. . ... : ... .. . ... : ... .. . ... : ... .. . ... : ... .. . ... : ... .. . ...
ROW 4E : D-2 0D . ... : G-2 0D . ... : ... .. . ... : 1-# 03 4 ... : ... .. . ... : ... .. . ... : ... .. . ... : ... .. . ...
ROW 4F : ... .. . ... : ... .. . ... : ... .. . ... : ... .. . ... : ... .. . ... : ... .. . ... : ... .. . ... : ... .. . ...
ROW 50 : G-2 0D . ... : C-3 0D . ... : ... .. . ... : 1-# 03 5 ... : ... .. . ... : C-2 07 . ... : G-3 07 . ... : ... .. . ...
ROW 51 : ... .. . ... : ... .. . ... : ... .. . ... : ... .. . ... : ... .. . ... : ... .. . ... : ... .. . ... : ... .. . ...
ROW 52 : C-3 0D . ... : G-2 0D . ... : ... .. . ... : 1-# 03 6 ... : C-3 00 . ... : ... .. . ... : ... .. . ... : ... .. . ...
ROW 53 : ... .. . ... : ... .. . ... : ... .. . ... : ... .. . ... : ... .. . ... : ... .. . ... : ... .. . ... : ... .. . ...
ROW 54 : G-2 0D . ... : D-2 0D . ... : ... .. . ... : 1-# 03 7 ... : ... .. . ... : ... .. . ... : F-3 07 . ... : ... .. . ...
ROW 55 : ... .. . ... : ... .. . ... : ... .. . ... : ... .. . ... : ... .. . ... : ... .. . ... : ... .. . ... : ... .. . ...
ROW 56 : D-2 0D . ... : G-2 0D . ... : ... .. . ... : 1-# 03 8 ... : ... .. . ... : ... .. . ... : ... .. . ... : ... .. . ...
ROW 57 : ... .. . ... : ... .. . ... : ... .. . ... : ... .. . ... : ... .. . ... : ... .. . ... : ... .. . ... : ... .. . ...
ROW 58 : G-2 0D . ... : C-3 0D . ... : ... .. . ... : 4-# 03 F ... : ... .. . ... : ... .. . ... : D#3 07 . ... : ... .. . ...
ROW 59 : ... .. . ... : ... .. . ... : ... .. . ... : ... .. . ... : ... .. . ... : ... .. . ... : ... .. . ... : ... .. . ...
ROW 5A : C-3 0D . ... : G-2 0D . ... : ... .. . ... : 1-# 03 2 ... : ... .. . ... : ... .. . ... : ... .. . ... : ... .. . ...
ROW 5B : ... .. . ... : ... .. . ... : ... .. . ... : ... .. . ... : ... .. . ... : ... .. . ... : ... .. . ... : ... .. . ...
ROW 5C : G-2 0D . ... : D-2 0D . ... : ... .. . ... : 1-# 03 3 ... : ... .. . ... : B-1 07 . ... : D-3 07 . ... : D-1 01 . ...
ROW 5D : ... .. . ... : ... .. . ... : ... .. . ... : ... .. . ... : ... .. . ... : ... .. . ... : ... .. . ... : ... .. . ...
ROW 5E : D-2 0D . ... : G-2 0D . ... : ... .. . ... : 1-# 03 4 ... : ... .. . ... : ... .. . ... : ... .. . ... : ... .. . ...
ROW 5F : ... .. . ... : ... .. . ... : ... .. . ... : ... .. . ... : ... .. . ... : ... .. . ... : ... .. . ... : ... .. . ...
ROW 60 : G-2 0D . ... : C-3 0D . ... : ... .. . ... : 1-# 03 5 ... : ... .. . ... : C-2 07 . ... : D#3 07 . ... : C-1 01 . ...
ROW 61 : ... .. . ... : ... .. . ... : ... .. . ... : ... .. . ... : ... .. . ... : ... .. . ... : ... .. . ... : ... .. . ...
ROW 62 : C-3 0D . ... : G-2 0D . ... : ... .. . ... : 1-# 03 6 ... : C-3 00 . ... : ... .. . ... : ... .. . ... : ... .. . ...
ROW 63 : ... .. . ... : ... .. . ... : ... .. . ... : ... .. . ... : ... .. . ... : ... .. . ... : ... .. . ... : ... .. . ...
ROW 64 : G-2 0D . ... : C-2 0D . ... : ... .. . ... : 1-# 03 7 ... : ... .. . ... : ... .. . ... : C-3 07 . ... : ... .. . ...
ROW 65 : ... .. . ... : ... .. . ... : ... .. . ... : ... .. . ... : ... .. . ... : ... .. . ... : ... .. . ... : ... .. . ...
ROW 66 : C-2 0D . ... : G-2 0D . ... : ... .. . ... : 1-# 03 8 ... : ... .. . ... : ... .. . ... : ... .. . ... : ... .. . ...
ROW 67 : ... .. . ... : ... .. . ... : ... .. . ... : ... .. . ... : ... .. . ... : ... .. . ... : ... .. . ... : ... .. . ...
ROW 68 : G-2 0D . ... : C-3 0D . ... : ... .. . ... : 4-# 03 F ... : ... .. . ... : ... .. . ... : D-3 07 . ... : ... .. . ...
ROW 69 : ... .. . ... : ... .. . ... : ... .. . ... : ... .. . ... : ... .. . ... : ... .. . ... : ... .. . ... : ... .. . ...
ROW 6A : C-3 0D . ... : G-2 0D . ... : ... .. . ... : 1-# 03 2 ... : ... .. . ... : ... .. . ... : ... .. . ... : ... .. . ...
ROW 6B : ... .. . ... : ... .. . ... : ... .. . ... : ... .. . ... : ... .. . ... : ... .. . ... : ... .. . ... : ... .. . ...
ROW 6C : G-2 0D . ... : C-2 0D . ... : ... .. . ... : 1-# 03 3 ... : ... .. . ... : ... .. . ... : F-3 07 . ... : ... .. . ...
ROW 6D : ... .. . ... : ... .. . ... : ... .. . ... : ... .. . ... : ... .. . ... : ... .. . ... : ... .. . ... : ... .. . ...
ROW 6E : C-2 0D . ... : G-2 0D . ... : ... .. . ... : 1-# 03 4 ... : ... .. . ... : ... .. . ... : ... .. . ... : ... .. . ...
ROW 6F : ... .. . ... : ... .. . ... : ... .. . ... : ... .. . ... : ... .. . ... : ... .. . ... : ... .. . ... : ... .. . ...
ROW 70 : G-2 0D . ... : D-3 0D . ... : ... .. . ... : 1-# 03 5 ... : ... .. . ... : D-2 07 . ... : F-3 07 . ... : D-1 01 . ...
ROW 71 : ... .. . ... : ... .. . ... : ... .. . ... : ... .. . ... : ... .. . ... : ... .. . ... : ... .. . ... : ... .. . ...
ROW 72 : D-3 0D . ... : G-2 0D . ... : ... .. . ... : 1-# 03 6 ... : C-3 00 . ... : ... .. . ... : ... .. . ... : ... .. . ...
ROW 73 : ... .. . ... : ... .. . ... : ... .. . ... : ... .. . ... : ... .. . ... : ... .. . ... : ... .. . ... : ... .. . ...
ROW 74 : G-2 0D . ... : D-2 0D . ... : ... .. . ... : 1-# 03 7 ... : ... .. . ... : ... .. . ... : D#3 07 . ... : ... .. . ...
ROW 75 : ... .. . ... : ... .. . ... : ... .. . ... : ... .. . ... : ... .. . ... : ... .. . ... : ... .. . ... : ... .. . ...
ROW 76 : D-2 0D . ... : G-2 0D . ... : ... .. . ... : 1-# 03 8 ... : ... .. . ... : ... .. . ... : ... .. . ... : ... .. . ...
ROW 77 : ... .. . ... : ... .. . ... : ... .. . ... : ... .. . ... : ... .. . ... : ... .. . ... : ... .. . ... : ... .. . ...
ROW 78 : G-2 0D . ... : D-3 0D . ... : ... .. . ... : 5-# 03 F ... : ... .. . ... : B-1 07 . ... : D-3 07 . ... : ... .. . ...
ROW 79 : ... .. . ... : ... .. . ... : ... .. . ... : ... .. . ... : ... .. . ... : ... .. . ... : ... .. . ... : ... .. . ...
ROW 7A : D-3 0D . ... : B-2 0D . ... : ... .. . ... : 4-# 03 7 ... : ... .. . ... : ... .. . ... : ... .. . ... : ... .. . ...
ROW 7B : ... .. . ... : ... .. . ... : ... .. . ... : ... .. . ... : ... .. . ... : ... .. . ... : ... .. . ... : ... .. . ...
ROW 7C : B-2 0D . ... : D-2 0D . ... : ... .. . ... : 4-# 03 A ... : ... .. . ... : ... .. . ... : G-3 07 . ... : ... .. . ...
ROW 7D : ... .. . ... : ... .. . ... : ... .. . ... : ... .. . ... : ... .. . ... : ... .. . ... : ... .. . ... : ... .. . ...
ROW 7E : D-2 0D . ... : B-2 0D . ... : ... .. . ... : 3-# 03 C ... : ... .. . ... : ... .. . ... : ... .. . ... : ... .. . ...
ROW 7F : ... .. . ... : ... .. . ... : ... .. . ... : ... .. . ... : ... .. . ... : ... .. . ... : ... .. . ... : ... .. . ...

PATTERN 04
ROW 00 : ... .. . ... : D#3 0D F ... : --- .. . ... : 1-# 03 5 ... : ... .. . ... : D#2 07 F ... : C-3 07 F ... : C-1 01 8 ...
ROW 01 : ... .. . ... : ... .. . ... : ... .. . ... : ... .. . ... : ... .. . ... : ... .. . ... : ... .. . ... : ... .. . ...
ROW 02 : D#3 0D 7 ... : C-3 0D . ... : ... .. . ... : 1-# 03 6 ... : C-3 00 . ... : ... .. . ... : ... .. . ... : ... .. . ...
ROW 03 : ... .. . ... : ... .. . ... : ... .. . ... : ... .. . ... : ... .. . ... : ... .. . ... : ... .. . ... : ... .. . ...
ROW 04 : C-3 0D . ... : G-2 0D . ... : ... .. . ... : 1-# 03 7 ... : ... .. . ... : D-2 07 . ... : ... .. . ... : ... .. . ...
ROW 05 : ... .. . ... : ... .. . ... : ... .. . ... : ... .. . ... : ... .. . ... : ... .. . ... : ... .. . ... : ... .. . ...
ROW 06 : G-2 0D . ... : C-3 0D . ... : ... .. . ... : 1-# 03 8 ... : ... .. . ... : ... .. . ... : ... .. . ... : ... .. . ...
ROW 07 : ... .. . ... : ... .. . ... : ... .. . ... : ... .. . ... : ... .. . ... : ... .. . ... : ... .. . ... : ... .. . ...
ROW 08 : C-3 0D . ... : D#3 0D . ... : ... .. . ... : 4-# 03 F ... : ... .. . ... : D#2 07 . ... : G-2 07 . ... : ... .. . ...
ROW 09 : ... .. . ... : ... .. . ... : ... .. . ... : ... .. . ... : ... .. . ... : ... .. . ... : ... .. . ... : ... .. . ...
ROW 0A : D#3 0D . ... : C-3 0D . ... : ... .. . ... : 1-# 03 2 ... : ... .. . ... : ... .. . ... : ... .. . ... : ... .. . ...
ROW 0B : ... .. . ... : ... .. . ... : ... .. . ... : ... .. . ... : ... .. . ... : ... .. . ... : ... .. . ... : ... .. . ...
ROW 0C : C-3 0D . ... : G-2 0D . ... : ... .. . ... : 1-# 03 3 ... : ... .. . ... : C-2 07 . ... : ... .. . ... : ... .. . ...
ROW 0D : ... .. . ... : ... .. . ... : ... .. . ... : ... .. . ... : ... .. . ... : ... .. . ... : ... .. . ... : ... .. . ...
ROW 0E : G-2 0D . ... : C-3 0D . ... : ... .. . ... : 1-# 03 4 ... : ... .. . ... : ... .. . ... : ... .. . ... : ... .. . ...
ROW 0F : ... .. . ... : ... .. . ... : ... .. . ... : ... .. . ... : ... .. . ... : ... .. . ... : ... .. . ... : ... .. . ...
ROW 10 : C-3 0D . ... : D#3 0D . ... : ... .. . ... : 1-# 03 5 ... : ... .. . ... : ... .. . ... : C-3 07 . ... : ... .. . ...
ROW 11 : ... .. . ... : ... .. . ... : ... .. . ... : ... .. . ... : ... .. . ... : ... .. . ... : ... .. . ... : ... .. . ...
ROW 12 : D#3 0D . ... : C-3 0D . ... : ... .. . ... : 1-# 03 6 ... : C-3 00 . ... : ... .. . ... : ... .. . ... : ... .. . ...
ROW 13 : ... .. . ... : ... .. . ... : ... .. . ... : ... .. . ... : ... .. . ... : ... .. . ... : ... .. . ... : ... .. . ...
ROW 14 : C-3 0D . ... : G-2 0D . ... : ... .. . ... : 1-# 03 7 ... : ... .. . ... : D-2 07 . ... : ... .. . ... : ... .. . ...
ROW 15 : ... .. . ... : ... .. . ... : ... .. . ... : ... .. . ... : ... .. . ... : ... .. . ... : ... .. . ... : ... .. . ...
ROW 16 : G-2 0D . ... : C-3 0D . ... : ... .. . ... : 1-# 03 8 ... : ... .. . ... : ... .. . ... : ... .. . ... : ... .. . ...
ROW 17 : ... .. . ... : ... .. . ... : ... .. . ... : ... .. . ... : ... .. . ... : ... .. . ... : ... .. . ... : ... .. . ...
ROW 18 : C-3 0D . ... : D#3 0D . ... : ... .. . ... : 4-# 03 F ... : ... .. . ... : D#2 07 . ... : B-2 07 . ... : ... .. . ...
ROW 19 : ... .. . ... : ... .. . ... : ... .. . ... : ... .. . ... : ... .. . ... : ... .. . ... : ... .. . ... : ... .. . ...
ROW 1A : D#3 0D . ... : C-3 0D . ... : ... .. . ... : 1-# 03 2 ... : ... .. . ... : ... .. . ... : ... .. . ... : ... .. . ...
ROW 1B : ... .. . ... : ... .. . ... : ... .. . ... : ... .. . ... : ... .. . ... : ... .. . ... : ... .. . ... : ... .. . ...
ROW 1C : C-3 0D . ... : G-2 0D . ... : ... .. . ... : 1-# 03 3 ... : ... .. . ... : F-2 07 . ... : ... .. . ... : ... .. . ...
ROW 1D : ... .. . ... : ... .. . ... : ... .. . ... : ... .. . ... : ... .. . ... : ... .. . ... : ... .. . ... : ... .. . ...
ROW 1E : G-2 0D . ... : C-3 0D . ... : ... .. . ... : 1-# 03 4 ... : ... .. . ... : ... .. . ... : ... .. . ... : ... .. . ...
ROW 1F : ... .. . ... : ... .. . ... : ... .. . ... : ... .. . ... : ... .. . ... : ... .. . ... : ... .. . ... : ... .. . ...
ROW 20 : C-3 0D . ... : G-3 0D . ... : ... .. . ... : 1-# 03 5 ... : ... .. . ... : G-2 07 . ... : D#3 07 . ... : D#1 01 . ...
ROW 21 : ... .. . ... : ... .. . ... : ... .. . ... : ... .. . ... : ... .. . ... : ... .. . ... : ... .. . ... : ... .. . ...
ROW 22 : G-3 0D . ... : C-3 0D . ... : ... .. . ... : 1-# 03 6 ... : C-3 00 . ... : ... .. . ... : ... .. . ... : ... .. . ...
ROW 23 : ... .. . ... : ... .. . ... : ... .. . ... : ... .. . ... : ... .. . ... : ... .. . ... : ... .. . ... : ... .. . ...
ROW 24 : C-3 0D . ... : G-2 0D . ... : ... .. . ... : 1-# 03 7 ... : ... .. . ... : ... .. . ... : D-3 07 . ... : ... .. . ...
ROW 25 : ... .. . ... : ... .. . ... : ... .. . ... : ... .. . ... : ... .. . ... : ... .. . ... : ... .. . ... : ... .. . ...
ROW 26 : G-2 0D . ... : C-3 0D . ... : ... .. . ... : 1-# 03 8 ... : ... .. . ... : ... .. . ... : C-3 07 . ... : ... .. . ...
ROW 27 : ... .. . ... : ... .. . ... : ... .. . ... : ... .. . ... : ... .. . ... : ... .. . ... : ... .. . ... : ... .. . ...
ROW 28 : C-3 0D . ... : G-3 0D . ... : ... .. . ... : 4-# 03 F ... : ... .. . ... : G#2 07 . ... : D#3 07 . ... : ... .. . ...
ROW 29 : ... .. . ... : ... .. . ... : ... .. . ... : ... .. . ... : ... .. . ... : ... .. . ... : ... .. . ... : ... .. . ...
ROW 2A : G-3 0D . ... : C-3 0D . ... : ... .. . ... : 1-# 03 2 ... : ... .. . ... : ... .. . ... : ... .. . ... : ... .. . ...
ROW 2B : ... .. . ... : ... .. . ... : ... .. . ... : ... .. . ... : ... .. . ... : ... .. . ... : ... .. . ... : ... .. . ...
ROW 2C : C-3 0D . ... : G-2 0D . ... : ... .. . ... : 1-# 03 3 ... : ... .. . ... : ... .. . ... : F-3 07 . ... : ... .. . ...
ROW 2D : ... .. . ... : ... .. . ... : ... .. . ... : ... .. . ... : ... .. . ... : ... .. . ... : ... .. . ... : ... .. . ...
ROW 2E : G-2 0D . ... : C-3 0D . ... : ... .. . ... : 1-# 03 4 ... : ... .. . ... : ... .. . ... : ... .. . ... : ... .. . ...
ROW 2F : ... .. . ... : ... .. . ... : ... .. . ... : ... .. . ... : ... .. . ... : ... .. . ... : ... .. . ... : ... .. . ...
ROW 30 : C-3 0D . ... : G-3 0D . ... : ... .. . ... : 1-# 03 5 ... : ... .. . ... : G-2 07 . ... : G-3 07 . ... : ... .. . ...
ROW 31 : ... .. . ... : ... .. . ... : ... .. . ... : ... .. . ... : ... .. . ... : ... .. . ... : ... .. . ... : ... .. . ...
ROW 32 : G-3 0D . ... : C-3 0D . ... : ... .. . ... : 1-# 03 6 ... : C-3 00 . ... : ... .. . ... : ... .. . ... : ... .. . ...
ROW 33 : ... .. . ... : ... .. . ... : ... .. . ... : ... .. . ... : ... .. . ... : ... .. . ... : ... .. . ... : ... .. . ...
ROW 34 : C-3 0D . ... : G-2 0D . ... : ... .. . ... : 1-# 03 7 ... : ... .. . ... : ... .. . ... : ... .. . ... : ... .. . ...
ROW 35 : ... .. . ... : ... .. . ... : ... .. . ... : ... .. . ... : ... .. . ... : ... .. . ... : ... .. . ... : ... .. . ...
ROW 36 : G-2 0D . ... : C-3 0D . ... : ... .. . ... : 1-# 03 8 ... : ... .. . ... : ... .. . ... : ... .. . ... : ... .. . ...
ROW 37 : ... .. . ... : ... .. . ... : ... .. . ... : ... .. . ... : ... .. . ... : ... .. . ... : ... .. . ... : ... .. . ...
ROW 38 : C-3 0D . ... : G-3 0D . ... : ... .. . ... : 4-# 03 F ... : ... .. . ... : F#2 07 . ... : C-4 07 . ... : ... .. . ...
ROW 39 : ... .. . ... : ... .. . ... : ... .. . ... : 1-# 03 8 ... : ... .. . ... : ... .. . ... : ... .. . ... : ... .. . ...
ROW 3A : G-3 0D . ... : C-3 0D . ... : ... .. . ... : ... .. . ... : ... .. . ... : ... .. . ... : ... .. . ... : ... .. . ...
ROW 3B : ... .. . ... : ... .. . ... : ... .. . ... : 3-# 03 C ... : ... .. . ... : ... .. . ... : ... .. . ... : ... .. . ...
ROW 3C : C-3 0D . ... : G-2 0D . ... : ... .. . ... : 1-# 03 8 ... : ... .. . ... : ... .. . ... : G-3 07 . ... : ... .. . ...
ROW 3D : ... .. . ... : ... .. . ... : ... .. . ... : ... .. . ... : ... .. . ... : ... .. . ... : ... .. . ... : ... .. . ...
ROW 3E : G-2 0D . ... : C-3 0D . ... : ... .. . ... : 1-# 03 A ... : ... .. . ... : ... .. . ... : ... .. . ... : ... .. . ...
ROW 3F : ... .. . ... : ... .. . ... : ... .. . ... : 1-# 03 8 ... : ... .. . ... : ... .. . ... : ... .. . ... : ... .. . ...
ROW 40 : C-3 0D . ... : G-3 0D . ... : ... .. . ... : 1-# 03 5 ... : ... .. . ... : G-2 07 . ... : A#3 07 . ... : G-1 01 . ...
ROW 41 : ... .. . ... : ... .. . ... : ... .. . ... : ... .. . ... : ... .. . ... : ... .. . ... : ... .. . ... : ... .. . ...
ROW 42 : G-3 0D . ... : D#3 0D . ... : ... .. . ... : 1-# 03 6 ... : C-3 00 . ... : ... .. . ... : ... .. . ... : ... .. . ...
ROW 43 : ... .. . ... : ... .. . ... : ... .. . ... : ... .. . ... : ... .. . ... : ... .. . ... : ... .. . ... : ... .. . ...
ROW 44 : D#3 0D . ... : G-2 0D . ... : ... .. . ... : 1-# 03 7 ... : ... .. . ... : F-2 07 . ... : A-3 07 . ... : ... .. . ...
ROW 45 : ... .. . ... : ... .. . ... : ... .. . ... : ... .. . ... : ... .. . ... : ... .. . ... : ... .. . ... : ... .. . ...
ROW 46 : G-2 0D . ... : D#3 0D . ... : ... .. . ... : 1-# 03 8 ... : ... .. . ... : D#2 07 . ... : C-4 07 . ... : ... .. . ...
ROW 47 : ... .. . ... : ... .. . ... : ... .. . ... : ... .. . ... : ... .. . ... : ... .. . ... : ... .. . ... : ... .. . ...
ROW 48 : D#3 0D . ... : G-3 0D . ... : ... .. . ... : 4-# 03 F ... : ... .. . ... : D-2 07 . ... : A#3 07 . ... : ... .. . ...
ROW 49 : ... .. . ... : ... .. . ... : ... .. . ... : ... .. . ... : ... .. . ... : ... .. . ... : ... .. . ... : ... .. . ...
ROW 4A : G-3 0D . ... : D#3 0D . ... : ... .. . ... : 1-# 03 2 ... : ... .. . ... : ... .. . ... : ... .. . ... : ... .. . ...
ROW 4B : ... .. . ... : ... .. . ... : ... .. . ... : ... .. . ... : ... .. . ... : ... .. . ... : ... .. . ... : ... .. . ...
ROW 4C : D#3 0D . ... : G-2 0D . ... : ... .. . ... : 1-# 03 3 ... : ... .. . ... : D#2 07 . ... : ... .. . ... : ... .. . ...
ROW 4D : ... .. . ... : ... .. . ... : ... .. . ... : ... .. . ... : ... .. . ... : ... .. . ... : ... .. . ... : ... .. . ...
ROW 4E : G-2 0D . ... : D#3 0D . ... : ... .. . ... : 1-# 03 4 ... : ... .. . ... : ... .. . ... : ... .. . ... : ... .. . ...
ROW 4F : ... .. . ... : ... .. . ... : ... .. . ... : ... .. . ... : ... .. . ... : ... .. . ... : ... .. . ... : ... .. . ...
ROW 50 : D#3 0D . ... : G-3 0D . ... : ... .. . ... : 1-# 03 5 ... : ... .. . ... : C-2 07 . ... : C-4 07 . ... : ... .. . ...
ROW 51 : ... .. . ... : ... .. . ... : ... .. . ... : ... .. . ... : ... .. . ... : ... .. . ... : ... .. . ... : ... .. . ...
ROW 52 : G-3 0D . ... : D#3 0D . ... : ... .. . ... : 1-# 03 6 ... : C-3 00 . ... : ... .. . ... : ... .. . ... : ... .. . ...
ROW 53 : ... .. . ... : ... .. . ... : ... .. . ... : ... .. . ... : ... .. . ... : ... .. . ... : ... .. . ... : ... .. . ...
ROW 54 : D#3 0D . ... : G-2 0D . ... : ... .. . ... : 1-# 03 7 ... : ... .. . ... : ... .. . ... : D-4 07 . ... : ... .. . ...
ROW 55 : ... .. . ... : ... .. . ... : ... .. . ... : ... .. . ... : ... .. . ... : ... .. . ... : ... .. . ... : ... .. . ...
ROW 56 : G-2 0D . ... : D#3 0D . ... : ... .. . ... : 1-# 03 8 ... : ... .. . ... : ... .. . ... : ... .. . ... : ... .. . ...
ROW 57 : ... .. . ... : ... .. . ... : ... .. . ... : ... .. . ... : ... .. . ... : ... .. . ... : ... .. . ... : ... .. . ...
ROW 58 : D#3 0D . ... : G-3 0D . ... : ... .. . ... : 4-# 03 F ... : ... .. . ... : ... .. . ... : D#4 07 . ... : ... .. . ...
ROW 59 : ... .. . ... : ... .. . ... : ... .. . ... : ... .. . ... : ... .. . ... : ... .. . ... : ... .. . ... : ... .. . ...
ROW 5A : G-3 0D . ... : D#3 0D . ... : ... .. . ... : 1-# 03 2 ... : ... .. . ... : ... .. . ... : ... .. . ... : ... .. . ...
ROW 5B : ... .. . ... : ... .. . ... : ... .. . ... : ... .. . ... : ... .. . ... : ... .. . ... : ... .. . ... : ... .. . ...
ROW 5C : D#3 0D . ... : G-2 0D . ... : ... .. . ... : 1-# 03 3 ... : ... .. . ... : B-1 07 . ... : G-4 07 . ... : D-1 01 . ...
ROW 5D : ... .. . ... : ... .. . ... : ... .. . ... : ... .. . ... : ... .. . ... : ... .. . ... : ... .. . ... : ... .. . ...
ROW 5E : G-2 0D . ... : D#3 0D . ... : ... .. . ... : 1-# 03 4 ... : ... .. . ... : ... .. . ... : ... .. . ... : ... .. . ...
ROW 5F : ... .. . ... : ... .. . ... : ... .. . ... : ... .. . ... : ... .. . ... : ... .. . ... : ... .. . ... : ... .. . ...
ROW 60 : D#3 0D . ... : G-3 0D . ... : ... .. . ... : 1-# 03 5 ... : ... .. . ... : C-2 07 . ... : A#4 07 . ... : C-1 01 . ...
ROW 61 : ... .. . ... : ... .. . ... : ... .. . ... : ... .. . ... : ... .. . ... : ... .. . ... : ... .. . ... : ... .. . ...
ROW 62 : G-3 0D . ... : C-3 0D . ... : ... .. . ... : 1-# 03 6 ... : C-3 00 . ... : ... .. . ... : ... .. . ... : ... .. . ...
ROW 63 : ... .. . ... : ... .. . ... : ... .. . ... : ... .. . ... : ... .. . ... : ... .. . ... : ... .. . ... : ... .. . ...
ROW 64 : C-3 0D . ... : G-2 0D . ... : ... .. . ... : 1-# 03 7 ... : ... .. . ... : ... .. . ... : ... .. . ... : ... .. . ...
ROW 65 : ... .. . ... : ... .. . ... : ... .. . ... : ... .. . ... : ... .. . ... : ... .. . ... : ... .. . ... : ... .. . ...
ROW 66 : G-2 0D . ... : C-3 0D . ... : ... .. . ... : 1-# 03 8 ... : ... .. . ... : ... .. . ... : ... .. . ... : ... .. . ...
ROW 67 : ... .. . ... : ... .. . ... : ... .. . ... : ... .. . ... : ... .. . ... : ... .. . ... : ... .. . ... : ... .. . ...
ROW 68 : C-3 0D . ... : G-3 0D . ... : ... .. . ... : 4-# 03 F ... : ... .. . ... : ... .. . ... : B-4 07 . ... : ... .. . ...
ROW 69 : ... .. . ... : ... .. . ... : ... .. . ... : ... .. . ... : ... .. . ... : ... .. . ... : ... .. . ... : ... .. . ...
ROW 6A : G-3 0D . ... : C-3 0D . ... : ... .. . ... : 1-# 03 2 ... : ... .. . ... : ... .. . ... : ... .. . ... : ... .. . ...
ROW 6B : ... .. . ... : ... .. . ... : ... .. . ... : ... .. . ... : ... .. . ... : ... .. . ... : ... .. . ... : ... .. . ...
ROW 6C : C-3 0D . ... : G-2 0D . ... : ... .. . ... : 1-# 03 3 ... : ... .. . ... : ... .. . ... : ... .. . ... : ... .. . ...
ROW 6D : ... .. . ... : ... .. . ... : ... .. . ... : ... .. . ... : ... .. . ... : ... .. . ... : ... .. . ... : ... .. . ...
ROW 6E : G-2 0D . ... : C-3 0D . ... : ... .. . ... : 1-# 03 4 ... : ... .. . ... : ... .. . ... : ... .. . ... : ... .. . ...
ROW 6F : ... .. . ... : ... .. . ... : ... .. . ... : ... .. . ... : ... .. . ... : ... .. . ... : ... .. . ... : ... .. . ...
ROW 70 : C-3 0D . ... : G-3 0D . ... : ... .. . ... : 1-# 03 5 ... : ... .. . ... : D-2 07 . ... : C-5 07 . ... : D-1 01 . ...
ROW 71 : ... .. . ... : ... .. . ... : ... .. . ... : ... .. . ... : ... .. . ... : ... .. . ... : ... .. . ... : ... .. . ...
ROW 72 : G-3 0D . ... : C-3 0D . ... : ... .. . ... : 1-# 03 6 ... : C-3 00 . ... : ... .. . ... : ... .. . ... : ... .. . ...
ROW 73 : ... .. . ... : ... .. . ... : ... .. . ... : ... .. . ... : ... .. . ... : ... .. . ... : ... .. . ... : ... .. . ...
ROW 74 : C-3 0D . ... : G-2 0D . ... : ... .. . ... : 1-# 03 7 ... : ... .. . ... : ... .. . ... : ... .. . ... : ... .. . ...
ROW 75 : ... .. . ... : ... .. . ... : ... .. . ... : ... .. . ... : ... .. . ... : ... .. . ... : ... .. . ... : ... .. . ...
ROW 76 : G-2 0D . ... : C-3 0D . ... : ... .. . ... : 1-# 03 8 ... : ... .. . ... : ... .. . ... : ... .. . ... : ... .. . ...
ROW 77 : ... .. . ... : ... .. . ... : ... .. . ... : ... .. . ... : ... .. . ... : ... .. . ... : ... .. . ... : ... .. . ...
ROW 78 : C-3 0D . ... : B-3 0D . ... : ... .. . ... : 5-# 03 F ... : ... .. . ... : B-1 07 . ... : D-5 07 . ... : ... .. . ...
ROW 79 : ... .. . ... : ... .. . ... : ... .. . ... : ... .. . ... : ... .. . ... : ... .. . ... : ... .. . ... : ... .. . ...
ROW 7A : B-3 0D . ... : G-3 0D . ... : ... .. . ... : 4-# 03 7 ... : ... .. . ... : ... .. . ... : ... .. . ... : ... .. . ...
ROW 7B : ... .. . ... : ... .. . ... : ... .. . ... : ... .. . ... : ... .. . ... : ... .. . ... : ... .. . ... : ... .. . ...
ROW 7C : G-3 0D . ... : B-2 0D . ... : ... .. . ... : 4-# 03 A ... : ... .. . ... : ... .. . ... : ... .. . ... : ... .. . ...
ROW 7D : ... .. . ... : ... .. . ... : ... .. . ... : ... .. . ... : ... .. . ... : ... .. . ... : ... .. . ... : ... .. . ...
ROW 7E : B-2 0D . ... : G-3 0D . ... : ... .. . ... : 3-# 03 C ... : ... .. . ... : ... .. . ... : ... .. . ... : ... .. . ...
ROW 7F : ... .. . ... : ... .. . ... : ... .. . ... : ... .. . ... : ... .. . ... : ... .. . ... : ... .. . ... : ... .. . ...

PATTERN 05
ROW 00 : ... .. . ... : D#3 0D F ... : C-3 00 . ... : 1-# 03 5 ... : ... .. . ... : D#4 08 F ... : D#5 07 F ... : C-1 01 8 200
ROW 01 : ... .. . ... : ... .. . ... : --- .. . ... : ... .. . ... : ... .. . ... : ... .. . ... : ... .. . ... : ... .. . ...
ROW 02 : D#3 0D 7 ... : C-3 0D . ... : C-3 00 . ... : 1-# 03 6 ... : C-3 00 . ... : ... .. . ... : ... .. . ... : ... .. . ...
ROW 03 : ... .. . ... : ... .. . ... : --- .. . ... : ... .. . ... : ... .. . ... : ... .. . ... : ... .. . ... : ... .. . ...
ROW 04 : C-3 0D . ... : G-2 0D . ... : C-3 00 . ... : 1-# 03 7 ... : ... .. . ... : D-4 08 . ... : D-5 07 . ... : ... .. . ...
ROW 05 : ... .. . ... : ... .. . ... : --- .. . ... : ... .. . ... : ... .. . ... : ... .. . ... : ... .. . ... : ... .. . ...
ROW 06 : G-2 0D . ... : C-3 0D . ... : C-3 00 . ... : 1-# 03 8 ... : ... .. . ... : ... .. . ... : ... .. . ... : ... .. . ...
ROW 07 : ... .. . ... : ... .. . ... : --- .. . ... : ... .. . ... : ... .. . ... : ... .. . ... : ... .. . ... : ... .. . ...
ROW 08 : C-3 0D . ... : D#3 0D . ... : C-4 00 . ... : 4-# 03 F ... : ... .. . ... : C-4 08 . ... : C-5 07 . ... : ... .. . ...
ROW 09 : ... .. . ... : ... .. . ... : --- .. . ... : ... .. . ... : ... .. . ... : ... .. . ... : ... .. . ... : ... .. . ...
ROW 0A : D#3 0D . ... : C-3 0D . ... : C-3 00 . ... : 1-# 03 2 ... : ... .. . ... : ... .. . ... : ... .. . ... : ... .. . ...
ROW 0B : ... .. . ... : ... .. . ... : --- .. . ... : ... .. . ... : ... .. . ... : ... .. . ... : ... .. . ... : ... .. . ...
ROW 0C : C-3 0D . ... : G-2 0D . ... : C-3 00 . ... : 1-# 03 3 ... : ... .. . ... : G-3 08 . ... : G-4 07 . ... : ... .. . ...
ROW 0D : ... .. . ... : ... .. . ... : --- .. . ... : ... .. . ... : ... .. . ... : ... .. . ... : ... .. . ... : ... .. . ...
ROW 0E : G-2 0D . ... : C-3 0D . ... : C-3 00 . ... : 1-# 03 4 ... : ... .. . ... : ... .. . ... : ... .. . ... : ... .. . ...
ROW 0F : ... .. . ... : ... .. . ... : --- .. . ... : ... .. . ... : ... .. . ... : ... .. . ... : ... .. . ... : ... .. . ...
ROW 10 : C-3 0D . ... : D#3 0D . ... : C-3 00 . ... : 1-# 03 5 ... : ... .. . ... : C-3 08 . ... : C-4 07 . ... : ... .. . ...
ROW 11 : ... .. . ... : ... .. . ... : --- .. . ... : ... .. . ... : ... .. . ... : ... .. . ... : ... .. . ... : ... .. . ...
ROW 12 : D#3 0D . ... : C-3 0D . ... : C-3 00 . ... : 1-# 03 6 ... : C-3 00 . ... : ... .. . ... : ... .. . ... : ... .. . ...
ROW 13 : ... .. . ... : ... .. . ... : --- .. . ... : ... .. . ... : ... .. . ... : ... .. . ... : ... .. . ... : ... .. . ...
ROW 14 : C-3 0D . ... : G-2 0D . ... : C-3 00 . ... : 1-# 03 7 ... : ... .. . ... : ... .. . ... : ... .. . ... : ... .. . ...
ROW 15 : ... .. . ... : ... .. . ... : --- .. . ... : ... .. . ... : ... .. . ... : ... .. . ... : ... .. . ... : ... .. . ...
ROW 16 : G-2 0D . ... : C-3 0D . ... : C-3 00 . ... : 1-# 03 8 ... : ... .. . ... : ... .. . ... : ... .. . ... : ... .. . ...
ROW 17 : ... .. . ... : ... .. . ... : --- .. . ... : ... .. . ... : ... .. . ... : ... .. . ... : ... .. . ... : ... .. . ...
ROW 18 : C-3 0D . ... : D#3 0D . ... : C-4 00 . ... : 4-# 03 F ... : ... .. . ... : D-3 08 . ... : D-4 07 . ... : ... .. . ...
ROW 19 : ... .. . ... : ... .. . ... : --- .. . ... : ... .. . ... : ... .. . ... : ... .. . ... : ... .. . ... : ... .. . ...
ROW 1A : D#3 0D . ... : C-3 0D . ... : C-3 00 . ... : 1-# 03 2 ... : ... .. . ... : ... .. . ... : ... .. . ... : ... .. . ...
ROW 1B : ... .. . ... : ... .. . ... : --- .. . ... : ... .. . ... : ... .. . ... : ... .. . ... : ... .. . ... : ... .. . ...
ROW 1C : C-3 0D . ... : G-2 0D . ... : C-3 00 . ... : 1-# 03 3 ... : ... .. . ... : ... .. . ... : ... .. . ... : ... .. . ...
ROW 1D : ... .. . ... : ... .. . ... : --- .. . ... : ... .. . ... : ... .. . ... : ... .. . ... : ... .. . ... : ... .. . ...
ROW 1E : G-2 0D . ... : C-3 0D . ... : C-3 00 . ... : 1-# 03 4 ... : ... .. . ... : ... .. . ... : ... .. . ... : ... .. . ...
ROW 1F : ... .. . ... : ... .. . ... : --- .. . ... : ... .. . ... : ... .. . ... : ... .. . ... : ... .. . ... : ... .. . ...
ROW 20 : C-3 0D . ... : G-3 0D . ... : D#3 00 . ... : 1-# 03 5 ... : ... .. . ... : D#3 08 . ... : D#4 07 . ... : D#1 01 . ...
ROW 21 : ... .. . ... : ... .. . ... : --- .. . ... : ... .. . ... : ... .. . ... : ... .. . ... : ... .. . ... : ... .. . ...
ROW 22 : G-3 0D . ... : C-3 0D . ... : D#3 00 . ... : 1-# 03 6 ... : C-3 00 . ... : ... .. . ... : ... .. . ... : ... .. . ...
ROW 23 : ... .. . ... : ... .. . ... : --- .. . ... : ... .. . ... : ... .. . ... : ... .. . ... : ... .. . ... : ... .. . ...
ROW 24 : C-3 0D . ... : G-2 0D . ... : D#3 00 . ... : 1-# 03 7 ... : ... .. . ... : C-3 08 . ... : C-4 07 . ... : ... .. . ...
ROW 25 : ... .. . ... : ... .. . ... : --- .. . ... : ... .. . ... : ... .. . ... : ... .. . ... : ... .. . ... : ... .. . ...
ROW 26 : G-2 0D . ... : C-3 0D . ... : D#3 00 . ... : 1-# 03 8 ... : ... .. . ... : ... .. . ... : ... .. . ... : ... .. . ...
ROW 27 : ... .. . ... : ... .. . ... : --- .. . ... : ... .. . ... : ... .. . ... : ... .. . ... : ... .. . ... : ... .. . ...
ROW 28 : C-3 0D . ... : G-3 0D . ... : D#4 00 . ... : 4-# 03 F ... : ... .. . ... : D-3 08 . ... : D-4 07 . ... : ... .. . ...
ROW 29 : ... .. . ... : ... .. . ... : --- .. . ... : ... .. . ... : ... .. . ... : ... .. . ... : ... .. . ... : ... .. . ...
ROW 2A : G-3 0D . ... : C-3 0D . ... : D#3 00 . ... : 1-# 03 2 ... : ... .. . ... : ... .. . ... : ... .. . ... : ... .. . ...
ROW 2B : ... .. . ... : ... .. . ... : --- .. . ... : ... .. . ... : ... .. . ... : ... .. . ... : ... .. . ... : ... .. . ...
ROW 2C : C-3 0D . ... : G-2 0D . ... : D#3 00 . ... : 1-# 03 3 ... : ... .. . ... : D#3 08 . ... : D#4 07 . ... : ... .. . ...
ROW 2D : ... .. . ... : ... .. . ... : --- .. . ... : ... .. . ... : ... .. . ... : ... .. . ... : ... .. . ... : ... .. . ...
ROW 2E : G-2 0D . ... : C-3 0D . ... : D#3 00 . ... : 1-# 03 4 ... : ... .. . ... : ... .. . ... : ... .. . ... : ... .. . ...
ROW 2F : ... .. . ... : ... .. . ... : --- .. . ... : ... .. . ... : ... .. . ... : ... .. . ... : ... .. . ... : ... .. . ...
ROW 30 : C-3 0D . ... : G-3 0D . ... : D#3 00 . ... : 1-# 03 5 ... : ... .. . ... : G-3 08 . ... : G-4 07 . ... : ... .. . ...
ROW 31 : ... .. . ... : ... .. . ... : --- .. . ... : ... .. . ... : ... .. . ... : ... .. . ... : ... .. . ... : ... .. . ...
ROW 32 : G-3 0D . ... : C-3 0D . ... : D#3 00 . ... : 1-# 03 6 ... : C-3 00 . ... : ... .. . ... : ... .. . ... : ... .. . ...
ROW 33 : ... .. . ... : ... .. . ... : --- .. . ... : ... .. . ... : ... .. . ... : ... .. . ... : ... .. . ... : ... .. . ...
ROW 34 : C-3 0D . ... : G-2 0D . ... : D#3 00 . ... : 1-# 03 7 ... : ... .. . ... : G#3 08 . ... : G#4 07 . ... : ... .. . ...
ROW 35 : ... .. . ... : ... .. . ... : --- .. . ... : ... .. . ... : ... .. . ... : ... .. . ... : ... .. . ... : ... .. . ...
ROW 36 : G-2 0D . ... : C-3 0D . ... : D#3 00 . ... : 1-# 03 8 ... : ... .. . ... : G-3 08 . ... : G-4 07 . ... : ... .. . ...
ROW 37 : ... .. . ... : ... .. . ... : --- .. . ... : ... .. . ... : ... .. . ... : ... .. . ... : ... .. . ... : ... .. . ...
ROW 38 : C-3 0D . ... : G-3 0D . ... : D#4 00 . ... : 4-# 03 F ... : ... .. . ... : F-3 08 . ... : F-4 07 . ... : ... .. . ...
ROW 39 : ... .. . ... : ... .. . ... : --- 00 . ... : 1-# 03 8 ... : ... .. . ... : ... .. . ... : ... .. . ... : ... .. . ...
ROW 3A : G-3 0D . ... : C-3 0D . ... : D#3 00 . ... : ... .. . ... : ... .. . ... : D#3 08 . ... : D#4 07 . ... : ... .. . ...
ROW 3B : ... .. . ... : ... .. . ... : --- .. . ... : 3-# 03 C ... : ... .. . ... : ... .. . ... : ... .. . ... : ... .. . ...
ROW 3C : C-3 0D . ... : G-2 0D . ... : D#3 00 . ... : 1-# 03 8 ... : ... .. . ... : D-3 08 . ... : D-4 07 . ... : ... .. . ...
ROW 3D : ... .. . ... : ... .. . ... : --- .. . ... : ... .. . ... : ... .. . ... : ... .. . ... : ... .. . ... : ... .. . ...
ROW 3E : G-2 0D . ... : C-3 0D . ... : D#3 00 . ... : 1-# 03 A ... : ... .. . ... : C-3 08 . ... : C-4 07 . ... : ... .. . ...
ROW 3F : ... .. . ... : ... .. . ... : --- .. . ... : 1-# 03 8 ... : ... .. . ... : ... .. . ... : ... .. . ... : ... .. . ...
ROW 40 : C-3 0D . ... : G#3 0D . ... : G#2 00 . ... : 1-# 03 5 ... : ... .. . ... : C-3 08 . ... : C-4 07 . ... : G#0 01 . ...
ROW 41 : ... .. . ... : ... .. . ... : --- .. . ... : ... .. . ... : ... .. . ... : ... .. . ... : ... .. . ... : ... .. . ...
ROW 42 : G#3 0D . ... : D#3 0D . ... : G#2 00 . ... : 1-# 03 6 ... : C-3 00 . ... : ... .. . ... : ... .. . ... : ... .. . ...
ROW 43 : ... .. . ... : ... .. . ... : --- .. . ... : ... .. . ... : ... .. . ... : ... .. . ... : ... .. . ... : ... .. . ...
ROW 44 : D#3 0D . ... : C-3 0D . ... : G#2 00 . ... : 1-# 03 7 ... : ... .. . ... : ... .. . ... : ... .. . ... : ... .. . ...
ROW 45 : ... .. . ... : ... .. . ... : --- .. . ... : ... .. . ... : ... .. . ... : ... .. . ... : ... .. . ... : ... .. . ...
ROW 46 : C-3 0D . ... : D#3 0D . ... : G#2 00 . ... : 1-# 03 8 ... : ... .. . ... : ... .. . ... : ... .. . ... : ... .. . ...
ROW 47 : ... .. . ... : ... .. . ... : --- .. . ... : ... .. . ... : ... .. . ... : ... .. . ... : ... .. . ... : ... .. . ...
ROW 48 : D#3 0D . ... : G#3 0D . ... : G#3 00 . ... : 4-# 03 F ... : ... .. . ... : ... .. . ... : ... .. . ... : ... .. . ...
ROW 49 : ... .. . ... : ... .. . ... : --- .. . ... : ... .. . ... : ... .. . ... : ... .. . ... : ... .. . ... : ... .. . ...
ROW 4A : G#3 0D . ... : D#3 0D . ... : G#2 00 . ... : 1-# 03 2 ... : ... .. . ... : ... .. . ... : ... .. . ... : ... .. . ...
ROW 4B : ... .. . ... : ... .. . ... : --- .. . ... : ... .. . ... : ... .. . ... : ... .. . ... : ... .. . ... : ... .. . ...
ROW 4C : D#3 0D . ... : C-3 0D . ... : G#2 00 . ... : 1-# 03 3 ... : ... .. . ... : ... .. . ... : ... .. . ... : ... .. . ...
ROW 4D : ... .. . ... : ... .. . ... : --- .. . ... : ... .. . ... : ... .. . ... : ... .. . ... : ... .. . ... : ... .. . ...
ROW 4E : C-3 0D . ... : D#3 0D . ... : G#2 00 . ... : 1-# 03 4 ... : ... .. . ... : ... .. . ... : ... .. . ... : ... .. . ...
ROW 4F : ... .. . ... : ... .. . ... : --- .. . ... : ... .. . ... : ... .. . ... : ... .. . ... : ... .. . ... : ... .. . ...
ROW 50 : D#3 0D . ... : G#3 0D . ... : G#2 00 . ... : 1-# 03 5 ... : ... .. . ... : C-3 08 . ... : C-4 07 . ... : ... .. . ...
ROW 51 : ... .. . ... : ... .. . ... : --- .. . ... : ... .. . ... : ... .. . ... : ... .. . ... : ... .. . ... : ... .. . ...
ROW 52 : G#3 0D . ... : D#3 0D . ... : G#2 00 . ... : 1-# 03 6 ... : C-3 00 . ... : ... .. . ... : ... .. . ... : ... .. . ...
ROW 53 : ... .. . ... : ... .. . ... : --- .. . ... : ... .. . ... : ... .. . ... : ... .. . ... : ... .. . ... : ... .. . ...
ROW 54 : D#3 0D . ... : C-3 0D . ... : G#2 00 . ... : 1-# 03 7 ... : ... .. . ... : ... .. . ... : ... .. . ... : ... .. . ...
ROW 55 : ... .. . ... : ... .. . ... : --- .. . ... : ... .. . ... : ... .. . ... : ... .. . ... : ... .. . ... : ... .. . ...
ROW 56 : C-3 0D . ... : D#3 0D . ... : G#2 00 . ... : 1-# 03 8 ... : ... .. . ... : D-3 08 . ... : D-4 07 . ... : ... .. . ...
ROW 57 : ... .. . ... : ... .. . ... : --- .. . ... : ... .. . ... : ... .. . ... : ... .. . ... : ... .. . ... : ... .. . ...
ROW 58 : D#3 0D . ... : G#3 0D . ... : G#3 00 . ... : 4-# 03 F ... : ... .. . ... : ... .. . ... : ... .. . ... : ... .. . ...
ROW 59 : ... .. . ... : ... .. . ... : --- .. . ... : ... .. . ... : ... .. . ... : ... .. . ... : ... .. . ... : ... .. . ...
ROW 5A : G#3 0D . ... : D#3 0D . ... : G#2 00 . ... : 1-# 03 2 ... : ... .. . ... : ... .. . ... : ... .. . ... : ... .. . ...
ROW 5B : ... .. . ... : ... .. . ... : --- .. . ... : ... .. . ... : ... .. . ... : ... .. . ... : ... .. . ... : ... .. . ...
ROW 5C : D#3 0D . ... : C-3 0D . ... : G#2 00 . ... : 1-# 03 3 ... : ... .. . ... : D#3 08 . ... : D#4 07 . ... : D#1 01 . ...
ROW 5D : ... .. . ... : ... .. . ... : --- .. . ... : ... .. . ... : ... .. . ... : ... .. . ... : ... .. . ... : ... .. . ...
ROW 5E : C-3 0D . ... : D#3 0D . ... : G#2 00 . ... : 1-# 03 4 ... : ... .. . ... : ... .. . ... : ... .. . ... : ... .. . ...
ROW 5F : ... .. . ... : ... .. . ... : --- .. . ... : ... .. . ... : ... .. . ... : ... .. . ... : ... .. . ... : ... .. . ...
ROW 60 : D#3 0D . ... : G#3 0D . ... : C-3 00 . ... : 1-# 03 5 ... : ... .. . ... : F-3 08 . ... : F-4 07 . ... : C-1 01 . ...
ROW 61 : ... .. . ... : ... .. . ... : --- .. . ... : ... .. . ... : ... .. . ... : ... .. . ... : ... .. . ... : ... .. . ...
ROW 62 : G#3 0D . ... : F-3 0D . ... : C-3 00 . ... : 1-# 03 6 ... : C-3 00 . ... : ... .. . ... : ... .. . ... : ... .. . ...
ROW 63 : ... .. . ... : ... .. . ... : --- .. . ... : ... .. . ... : ... .. . ... : ... .. . ... : ... .. . ... : ... .. . ...
ROW 64 : F-3 0D . ... : C-3 0D . ... : C-3 00 . ... : 1-# 03 7 ... : ... .. . ... : ... .. . ... : ... .. . ... : ... .. . ...
ROW 65 : ... .. . ... : ... .. . ... : --- .. . ... : ... .. . ... : ... .. . ... : ... .. . ... : ... .. . ... : ... .. . ...
ROW 66 : C-3 0D . ... : F-3 0D . ... : C-3 00 . ... : 1-# 03 8 ... : ... .. . ... : ... .. . ... : ... .. . ... : ... .. . ...
ROW 67 : ... .. . ... : ... .. . ... : --- .. . ... : ... .. . ... : ... .. . ... : ... .. . ... : ... .. . ... : ... .. . ...
ROW 68 : F-3 0D . ... : G#3 0D . ... : C-4 00 . ... : 4-# 03 F ... : ... .. . ... : ... .. . ... : ... .. . ... : ... .. . ...
ROW 69 : ... .. . ... : ... .. . ... : --- .. . ... : ... .. . ... : ... .. . ... : ... .. . ... : ... .. . ... : ... .. . ...
ROW 6A : G#3 0D . ... : F-3 0D . ... : C-3 00 . ... : 1-# 03 2 ... : ... .. . ... : ... .. . ... : ... .. . ... : ... .. . ...
ROW 6B : ... .. . ... : ... .. . ... : --- .. . ... : ... .. . ... : ... .. . ... : ... .. . ... : ... .. . ... : ... .. . ...
ROW 6C : F-3 0D . ... : C-3 0D . ... : C-3 00 . ... : 1-# 03 3 ... : ... .. . ... : ... .. . ... : ... .. . ... : ... .. . ...
ROW 6D : ... .. . ... : ... .. . ... : --- .. . ... : ... .. . ... : ... .. . ... : ... .. . ... : ... .. . ... : ... .. . ...
ROW 6E : C-3 0D . ... : F-3 0D . ... : C-3 00 . ... : 1-# 03 4 ... : ... .. . ... : ... .. . ... : ... .. . ... : ... .. . ...
ROW 6F : ... .. . ... : ... .. . ... : --- .. . ... : ... .. . ... : ... .. . ... : ... .. . ... : ... .. . ... : ... .. . ...
ROW 70 : F-3 0D . ... : G#3 0D . ... : C-3 00 . ... : 1-# 03 5 ... : ... .. . ... : ... .. . ... : ... .. . ... : F-1 01 . ...
ROW 71 : ... .. . ... : ... .. . ... : --- .. . ... : ... .. . ... : ... .. . ... : ... .. . ... : ... .. . ... : ... .. . ...
ROW 72 : G#3 0D . ... : F-3 0D . ... : C-3 00 . ... : 1-# 03 6 ... : C-3 00 . ... : ... .. . ... : ... .. . ... : ... .. . ...
ROW 73 : ... .. . ... : ... .. . ... : --- .. . ... : ... .. . ... : ... .. . ... : ... .. . ... : ... .. . ... : ... .. . ...
ROW 74 : F-3 0D . ... : C-3 0D . ... : C-3 00 . ... : 1-# 03 7 ... : ... .. . ... : ... .. . ... : ... .. . ... : ... .. . ...
ROW 75 : ... .. . ... : ... .. . ... : --- .. . ... : ... .. . ... : ... .. . ... : ... .. . ... : ... .. . ... : ... .. . ...
ROW 76 : C-3 0D . ... : F-3 0D . ... : C-3 00 . ... : 1-# 03 8 ... : ... .. . ... : ... .. . ... : ... .. . ... : ... .. . ...
ROW 77 : ... .. . ... : ... .. . ... : --- .. . ... : ... .. . ... : ... .. . ... : ... .. . ... : ... .. . ... : ... .. . ...
ROW 78 : F-3 0D . ... : G#3 0D . ... : C-4 00 . ... : 4-# 03 F ... : ... .. . ... : ... .. . ... : ... .. . ... : ... .. . ...
ROW 79 : ... .. . ... : ... .. . ... : --- .. . ... : ... .. . ... : ... .. . ... : ... .. . ... : ... .. . ... : ... .. . ...
ROW 7A : G#3 0D . ... : F-3 0D . ... : C-3 00 . ... : 1-# 03 2 ... : ... .. . ... : ... .. . ... : ... .. . ... : ... .. . ...
ROW 7B : ... .. . ... : ... .. . ... : --- .. . ... : ... .. . ... : ... .. . ... : ... .. . ... : ... .. . ... : ... .. . ...
ROW 7C : F-3 0D . ... : C-3 0D . ... : C-3 00 . ... : 1-# 03 3 ... : ... .. . ... : ... .. . ... : ... .. . ... : ... .. . ...
ROW 7D : ... .. . ... : ... .. . ... : --- .. . ... : ... .. . ... : ... .. . ... : ... .. . ... : ... .. . ... : ... .. . ...
ROW 7E : C-3 0D . ... : F-3 0D . ... : C-3 00 . ... : 1-# 03 4 ... : ... .. . ... : ... .. . ... : ... .. . ... : ... .. . ...
ROW 7F : ... .. . ... : ... .. . ... : --- .. . ... : ... .. . ... : ... .. . ... : ... .. . ... : ... .. . ... : ... .. . ...

PATTERN 06
ROW 00 : ... .. . ... : D#3 0D F ... : G-2 00 . ... : 1-# 03 5 ... : ... .. . ... : G-3 08 F ... : G-4 07 F ... : C-1 01 8 ...
ROW 01 : ... .. . ... : ... .. . ... : --- .. . ... : ... .. . ... : ... .. . ... : ... .. . ... : ... .. . ... : ... .. . ...
ROW 02 : D#3 0D 7 ... : C-3 0D . ... : G-2 00 . ... : 1-# 03 6 ... : C-3 00 . ... : ... .. . ... : ... .. . ... : ... .. . ...
ROW 03 : ... .. . ... : ... .. . ... : --- .. . ... : ... .. . ... : ... .. . ... : ... .. . ... : ... .. . ... : ... .. . ...
ROW 04 : C-3 0D . ... : G-2 0D . ... : G-2 00 . ... : 1-# 03 7 ... : ... .. . ... : D#3 08 . ... : D#4 07 . ... : ... .. . ...
ROW 05 : ... .. . ... : ... .. . ... : --- .. . ... : ... .. . ... : ... .. . ... : ... .. . ... : ... .. . ... : ... .. . ...
ROW 06 : G-2 0D . ... : C-3 0D . ... : G-2 00 . ... : 1-# 03 8 ... : ... .. . ... : ... .. . ... : ... .. . ... : ... .. . ...
ROW 07 : ... .. . ... : ... .. . ... : --- .. . ... : ... .. . ... : ... .. . ... : ... .. . ... : ... .. . ... : ... .. . ...
ROW 08 : C-3 0D . ... : D#3 0D . ... : G-3 00 . ... : 4-# 03 F ... : ... .. . ... : D#3 08 . ... : D#4 07 . ... : ... .. . ...
ROW 09 : ... .. . ... : ... .. . ... : --- .. . ... : ... .. . ... : ... .. . ... : ... .. . ... : ... .. . ... : ... .. . ...
ROW 0A : D#3 0D . ... : C-3 0D . ... : G-2 00 . ... : 1-# 03 2 ... : ... .. . ... : ... .. . ... : ... .. . ... : ... .. . ...
ROW 0B : ... .. . ... : ... .. . ... : --- .. . ... : ... .. . ... : ... .. . ... : ... .. . ... : ... .. . ... : ... .. . ...
ROW 0C : C-3 0D . ... : G-2 0D . ... : G-2 00 . ... : 1-# 03 3 ... : ... .. . ... : D-3 08 . ... : D-4 07 . ... : ... .. . ...
ROW 0D : ... .. . ... : ... .. . ... : --- .. . ... : ... .. . ... : ... .. . ... : ... .. . ... : ... .. . ... : ... .. . ...
ROW 0E : G-2 0D . ... : C-3 0D . ... : G-2 00 . ... : 1-# 03 4 ... : ... .. . ... : ... .. . ... : ... .. . ... : ... .. . ...
ROW 0F : ... .. . ... : ... .. . ... : --- .. . ... : ... .. . ... : ... .. . ... : ... .. . ... : ... .. . ... : ... .. . ...
ROW 10 : C-3 0D . ... : D#3 0D . ... : G-2 00 . ... : 1-# 03 5 ... : ... .. . ... : C-3 08 . ... : C-4 07 . ... : ... .. . ...
ROW 11 : ... .. . ... : ... .. . ... : --- .. . ... : ... .. . ... : ... .. . ... : ... .. . ... : ... .. . ... : ... .. . ...
ROW 12 : D#3 0D . ... : C-3 0D . ... : G-2 00 . ... : 1-# 03 6 ... : C-3 00 . ... : ... .. . ... : ... .. . ... : ... .. . ...
ROW 13 : ... .. . ... : ... .. . ... : --- .. . ... : ... .. . ... : ... .. . ... : ... .. . ... : ... .. . ... : ... .. . ...
ROW 14 : C-3 0D . ... : G-2 0D . ... : G-2 00 . ... : 1-# 03 7 ... : ... .. . ... : ... .. . ... : ... .. . ... : ... .. . ...
ROW 15 : ... .. . ... : ... .. . ... : --- .. . ... : ... .. . ... : ... .. . ... : ... .. . ... : ... .. . ... : ... .. . ...
ROW 16 : G-2 0D . ... : C-3 0D . ... : G-2 00 . ... : 1-# 03 8 ... : ... .. . ... : D-3 08 . ... : D-4 07 . ... : ... .. . ...
ROW 17 : ... .. . ... : ... .. . ... : --- .. . ... : ... .. . ... : ... .. . ... : ... .. . ... : ... .. . ... : ... .. . ...
ROW 18 : C-3 0D . ... : D#3 0D . ... : G-3 00 . ... : 4-# 03 F ... : ... .. . ... : ... .. . ... : ... .. . ... : ... .. . ...
ROW 19 : ... .. . ... : ... .. . ... : --- .. . ... : ... .. . ... : ... .. . ... : ... .. . ... : ... .. . ... : ... .. . ...
ROW 1A : D#3 0D . ... : C-3 0D . ... : G-2 00 . ... : 1-# 03 2 ... : ... .. . ... : ... .. . ... : ... .. . ... : ... .. . ...
ROW 1B : ... .. . ... : ... .. . ... : --- .. . ... : ... .. . ... : ... .. . ... : ... .. . ... : ... .. . ... : ... .. . ...
ROW 1C : C-3 0D . ... : G-2 0D . ... : G-2 00 . ... : 1-# 03 3 ... : ... .. . ... : D#3 08 . ... : D#4 07 . ... : ... .. . ...
ROW 1D : ... .. . ... : ... .. . ... : --- .. . ... : ... .. . ... : ... .. . ... : ... .. . ... : ... .. . ... : ... .. . ...
ROW 1E : G-2 0D . ... : C-3 0D . ... : G-2 00 . ... : 1-# 03 4 ... : ... .. . ... : ... .. . ... : ... .. . ... : ... .. . ...
ROW 1F : ... .. . ... : ... .. . ... : --- .. . ... : ... .. . ... : ... .. . ... : ... .. . ... : ... .. . ... : ... .. . ...
ROW 20 : C-3 0D . ... : G-3 0D . ... : C-3 00 . ... : 1-# 03 5 ... : ... .. . ... : D#3 08 . ... : D#4 07 . ... : D#1 01 . ...
ROW 21 : ... .. . ... : ... .. . ... : --- .. . ... : ... .. . ... : ... .. . ... : ... .. . ... : ... .. . ... : ... .. . ...
ROW 22 : G-3 0D . ... : C-3 0D . ... : C-3 00 . ... : 1-# 03 6 ... : C-3 00 . ... : ... .. . ... : ... .. . ... : ... .. . ...
ROW 23 : ... .. . ... : ... .. . ... : --- .. . ... : ... .. . ... : ... .. . ... : ... .. . ... : ... .. . ... : ... .. . ...
ROW 24 : C-3 0D . ... : G-2 0D . ... : C-3 00 . ... : 1-# 03 7 ... : ... .. . ... : ... .. . ... : ... .. . ... : ... .. . ...
ROW 25 : ... .. . ... : ... .. . ... : --- .. . ... : ... .. . ... : ... .. . ... : ... .. . ... : ... .. . ... : ... .. . ...
ROW 26 : G-2 0D . ... : C-3 0D . ... : C-3 00 . ... : 1-# 03 8 ... : ... .. . ... : C-3 08 . ... : C-4 07 . ... : ... .. . ...
ROW 27 : ... .. . ... : ... .. . ... : --- .. . ... : ... .. . ... : ... .. . ... : ... .. . ... : ... .. . ... : ... .. . ...
ROW 28 : C-3 0D . ... : G-3 0D . ... : C-4 00 . ... : 4-# 03 F ... : ... .. . ... : ... .. . ... : ... .. . ... : ... .. . ...
ROW 29 : ... .. . ... : ... .. . ... : --- .. . ... : ... .. . ... : ... .. . ... : ... .. . ... : ... .. . ... : ... .. . ...
ROW 2A : G-3 0D . ... : C-3 0D . ... : C-3 00 . ... : 1-# 03 2 ... : ... .. . ... : ... .. . ... : ... .. . ... : ... .. . ...
ROW 2B : ... .. . ... : ... .. . ... : --- .. . ... : ... .. . ... : ... .. . ... : ... .. . ... : ... .. . ... : ... .. . ...
ROW 2C : C-3 0D . ... : G-2 0D . ... : C-3 00 . ... : 1-# 03 3 ... : ... .. . ... : D#3 08 . ... : D#4 07 . ... : ... .. . ...
ROW 2D : ... .. . ... : ... .. . ... : --- .. . ... : ... .. . ... : ... .. . ... : ... .. . ... : ... .. . ... : ... .. . ...
ROW 2E : G-2 0D . ... : C-3 0D . ... : C-3 00 . ... : 1-# 03 4 ... : ... .. . ... : ... .. . ... : ... .. . ... : ... .. . ...
ROW 2F : ... .. . ... : ... .. . ... : --- .. . ... : ... .. . ... : ... .. . ... : ... .. . ... : ... .. . ... : ... .. . ...
ROW 30 : C-3 0D . ... : G-3 0D . ... : C-3 00 . ... : 1-# 03 5 ... : ... .. . ... : D#3 08 . ... : D#4 07 . ... : ... .. . ...
ROW 31 : ... .. . ... : ... .. . ... : --- .. . ... : ... .. . ... : ... .. . ... : ... .. . ... : ... .. . ... : ... .. . ...
ROW 32 : G-3 0D . ... : C-3 0D . ... : C-3 00 . ... : 1-# 03 6 ... : C-3 00 . ... : ... .. . ... : ... .. . ... : ... .. . ...
ROW 33 : ... .. . ... : ... .. . ... : --- .. . ... : ... .. . ... : ... .. . ... : ... .. . ... : ... .. . ... : ... .. . ...
ROW 34 : C-3 0D . ... : G-2 0D . ... : C-3 00 . ... : 1-# 03 7 ... : ... .. . ... : ... .. . ... : ... .. . ... : ... .. . ...
ROW 35 : ... .. . ... : ... .. . ... : --- .. . ... : ... .. . ... : ... .. . ... : ... .. . ... : ... .. . ... : ... .. . ...
ROW 36 : G-2 0D . ... : C-3 0D . ... : C-3 00 . ... : 1-# 03 8 ... : ... .. . ... : F-3 08 . ... : F-4 07 . ... : ... .. . ...
ROW 37 : ... .. . ... : ... .. . ... : --- .. . ... : ... .. . ... : ... .. . ... : ... .. . ... : ... .. . ... : ... .. . ...
ROW 38 : C-3 0D . ... : G-3 0D . ... : C-4 00 . ... : 4-# 03 F ... : ... .. . ... : ... .. . ... : ... .. . ... : ... .. . ...
ROW 39 : ... .. . ... : ... .. . ... : --- 00 . ... : 1-# 03 8 ... : ... .. . ... : ... .. . ... : ... .. . ... : ... .. . ...
ROW 3A : G-3 0D . ... : C-3 0D . ... : C-3 00 . ... : ... .. . ... : ... .. . ... : ... .. . ... : ... .. . ... : ... .. . ...
ROW 3B : ... .. . ... : ... .. . ... : --- .. . ... : 3-# 03 C ... : ... .. . ... : ... .. . ... : ... .. . ... : ... .. . ...
ROW 3C : C-3 0D . ... : G-2 0D . ... : C-3 00 . ... : 1-# 03 8 ... : ... .. . ... : G-3 08 . ... : G-4 07 . ... : ... .. . ...
ROW 3D : ... .. . ... : ... .. . ... : --- .. . ... : ... .. . ... : ... .. . ... : ... .. . ... : ... .. . ... : ... .. . ...
ROW 3E : G-2 0D . ... : C-3 0D . ... : C-3 00 . ... : 1-# 03 A ... : ... .. . ... : ... .. . ... : ... .. . ... : ... .. . ...
ROW 3F : ... .. . ... : ... .. . ... : --- .. . ... : 1-# 03 8 ... : ... .. . ... : ... .. . ... : ... .. . ... : ... .. . ...
ROW 40 : C-3 0D . ... : G#3 0D . ... : D#3 00 . ... : 1-# 03 5 ... : ... .. . ... : D#3 08 . ... : G#4 07 . ... : G#0 01 . ...
ROW 41 : ... .. . ... : ... .. . ... : --- .. . ... : ... .. . ... : ... .. . ... : ... .. . ... : ... .. . ... : ... .. . ...
ROW 42 : G#3 0D . ... : D#3 0D . ... : D#3 00 . ... : 1-# 03 6 ... : C-3 00 . ... : ... .. . ... : ... .. . ... : ... .. . ...
ROW 43 : ... .. . ... : ... .. . ... : --- .. . ... : ... .. . ... : ... .. . ... : ... .. . ... : ... .. . ... : ... .. . ...
ROW 44 : D#3 0D . ... : C-3 0D . ... : D#3 00 . ... : 1-# 03 7 ... : ... .. . ... : ... .. . ... : ... .. . ... : ... .. . ...
ROW 45 : ... .. . ... : ... .. . ... : --- .. . ... : ... .. . ... : ... .. . ... : ... .. . ... : ... .. . ... : ... .. . ...
ROW 46 : C-3 0D . ... : D#3 0D . ... : D#3 00 . ... : 1-# 03 8 ... : ... .. . ... : ... .. . ... : D#4 07 . ... : ... .. . ...
ROW 47 : ... .. . ... : ... .. . ... : --- .. . ... : ... .. . ... : ... .. . ... : ... .. . ... : ... .. . ... : ... .. . ...
ROW 48 : D#3 0D . ... : G#3 0D . ... : D#4 00 . ... : 4-# 03 F ... : ... .. . ... : ... .. . ... : ... .. . ... : ... .. . ...
ROW 49 : ... .. . ... : ... .. . ... : --- .. . ... : ... .. . ... : ... .. . ... : ... .. . ... : ... .. . ... : ... .. . ...
ROW 4A : G#3 0D . ... : D#3 0D . ... : D#3 00 . ... : 1-# 03 2 ... : ... .. . ... : ... .. . ... : ... .. . ... : ... .. . ...
ROW 4B : ... .. . ... : ... .. . ... : --- .. . ... : ... .. . ... : ... .. . ... : ... .. . ... : ... .. . ... : ... .. . ...
ROW 4C : D#3 0D . ... : C-3 0D . ... : D#3 00 . ... : 1-# 03 3 ... : ... .. . ... : ... .. . ... : G#4 07 . ... : ... .. . ...
ROW 4D : ... .. . ... : ... .. . ... : --- .. . ... : ... .. . ... : ... .. . ... : ... .. . ... : ... .. . ... : ... .. . ...
ROW 4E : C-3 0D . ... : D#3 0D . ... : D#3 00 . ... : 1-# 03 4 ... : ... .. . ... : ... .. . ... : ... .. . ... : ... .. . ...
ROW 4F : ... .. . ... : ... .. . ... : --- .. . ... : ... .. . ... : ... .. . ... : ... .. . ... : ... .. . ... : ... .. . ...
ROW 50 : D#3 0D . ... : G#3 0D . ... : D#3 00 . ... : 1-# 03 5 ... : ... .. . ... : ... .. . ... : G#4 07 . ... : ... .. . ...
ROW 51 : ... .. . ... : ... .. . ... : --- .. . ... : ... .. . ... : ... .. . ... : ... .. . ... : ... .. . ... : ... .. . ...
ROW 52 : G#3 0D . ... : D#3 0D . ... : D#3 00 . ... : 1-# 03 6 ... : C-3 00 . ... : ... .. . ... : ... .. . ... : ... .. . ...
ROW 53 : ... .. . ... : ... .. . ... : --- .. . ... : ... .. . ... : ... .. . ... : ... .. . ... : ... .. . ... : ... .. . ...
ROW 54 : D#3 0D . ... : C-3 0D . ... : D#3 00 . ... : 1-# 03 7 ... : ... .. . ... : ... .. . ... : ... .. . ... : ... .. . ...
ROW 55 : ... .. . ... : ... .. . ... : --- .. . ... : ... .. . ... : ... .. . ... : ... .. . ... : ... .. . ... : ... .. . ...
ROW 56 : C-3 0D . ... : D#3 0D . ... : D#3 00 . ... : 1-# 03 8 ... : ... .. . ... : ... .. . ... : A#4 07 . ... : ... .. . ...
ROW 57 : ... .. . ... : ... .. . ... : --- .. . ... : ... .. . ... : ... .. . ... : ... .. . ... : ... .. . ... : ... .. . ...
ROW 58 : D#3 0D . ... : G#3 0D . ... : D#4 00 . ... : 4-# 03 F ... : ... .. . ... : ... .. . ... : ... .. . ... : ... .. . ...
ROW 59 : ... .. . ... : ... .. . ... : --- .. . ... : ... .. . ... : ... .. . ... : ... .. . ... : ... .. . ... : ... .. . ...
ROW 5A : G#3 0D . ... : D#3 0D . ... : D#3 00 . ... : 1-# 03 2 ... : ... .. . ... : ... .. . ... : ... .. . ... : ... .. . ...
ROW 5B : ... .. . ... : ... .. . ... : --- .. . ... : ... .. . ... : ... .. . ... : ... .. . ... : ... .. . ... : ... .. . ...
ROW 5C : D#3 0D . ... : C-3 0D . ... : D#3 00 . ... : 1-# 03 3 ... : ... .. . ... : ... .. . ... : C-5 07 . ... : D#1 01 . ...
ROW 5D : ... .. . ... : ... .. . ... : --- .. . ... : ... .. . ... : ... .. . ... : ... .. . ... : ... .. . ... : ... .. . ...
ROW 5E : C-3 0D . ... : D#3 0D . ... : D#3 00 . ... : 1-# 03 4 ... : ... .. . ... : ... .. . ... : ... .. . ... : ... .. . ...
ROW 5F : ... .. . ... : ... .. . ... : --- .. . ... : ... .. . ... : ... .. . ... : ... .. . ... : ... .. . ... : ... .. . ...
ROW 60 : D#3 0D . ... : G#3 0D . ... : G#2 00 . ... : 1-# 03 5 ... : ... .. . ... : F-3 08 . ... : G#4 07 . ... : C-1 01 . ...
ROW 61 : ... .. . ... : ... .. . ... : --- .. . ... : ... .. . ... : ... .. . ... : ... .. . ... : ... .. . ... : ... .. . ...
ROW 62 : G#3 0D . ... : F-3 0D . ... : G#2 00 . ... : 1-# 03 6 ... : C-3 00 . ... : ... .. . ... : ... .. . ... : ... .. . ...
ROW 63 : ... .. . ... : ... .. . ... : --- .. . ... : ... .. . ... : ... .. . ... : ... .. . ... : ... .. . ... : ... .. . ...
ROW 64 : F-3 0D . ... : C-3 0D . ... : G#2 00 . ... : 1-# 03 7 ... : ... .. . ... : ... .. . ... : ... .. . ... : ... .. . ...
ROW 65 : ... .. . ... : ... .. . ... : --- .. . ... : ... .. . ... : ... .. . ... : ... .. . ... : ... .. . ... : ... .. . ...
ROW 66 : C-3 0D . ... : F-3 0D . ... : G#2 00 . ... : 1-# 03 8 ... : ... .. . ... : ... .. . ... : G-4 07 . ... : ... .. . ...
ROW 67 : ... .. . ... : ... .. . ... : --- .. . ... : ... .. . ... : ... .. . ... : ... .. . ... : ... .. . ... : ... .. . ...
ROW 68 : F-3 0D . ... : G#3 0D . ... : G#3 00 . ... : 4-# 03 F ... : ... .. . ... : ... .. . ... : ... .. . ... : ... .. . ...
ROW 69 : ... .. . ... : ... .. . ... : --- .. . ... : ... .. . ... : ... .. . ... : ... .. . ... : ... .. . ... : ... .. . ...
ROW 6A : G#3 0D . ... : F-3 0D . ... : G#2 00 . ... : 1-# 03 2 ... : ... .. . ... : ... .. . ... : ... .. . ... : ... .. . ...
ROW 6B : ... .. . ... : ... .. . ... : --- .. . ... : ... .. . ... : ... .. . ... : ... .. . ... : ... .. . ... : ... .. . ...
ROW 6C : F-3 0D . ... : C-3 0D . ... : G#2 00 . ... : 1-# 03 3 ... : ... .. . ... : ... .. . ... : F-4 07 . ... : ... .. . ...
ROW 6D : ... .. . ... : ... .. . ... : --- .. . ... : ... .. . ... : ... .. . ... : ... .. . ... : ... .. . ... : ... .. . ...
ROW 6E : C-3 0D . ... : F-3 0D . ... : G#2 00 . ... : 1-# 03 4 ... : ... .. . ... : ... .. . ... : ... .. . ... : ... .. . ...
ROW 6F : ... .. . ... : ... .. . ... : --- .. . ... : ... .. . ... : ... .. . ... : ... .. . ... : ... .. . ... : ... .. . ...
ROW 70 : F-3 0D . ... : G#3 0D . ... : G#2 00 . ... : 1-# 03 5 ... : ... .. . ... : ... .. . ... : F-4 07 . ... : F-1 01 . ...
ROW 71 : ... .. . ... : ... .. . ... : --- .. . ... : ... .. . ... : ... .. . ... : ... .. . ... : ... .. . ... : ... .. . ...
ROW 72 : G#3 0D . ... : F-3 0D . ... : G#2 00 . ... : 1-# 03 6 ... : C-3 00 . ... : ... .. . ... : ... .. . ... : ... .. . ...
ROW 73 : ... .. . ... : ... .. . ... : --- .. . ... : ... .. . ... : ... .. . ... : ... .. . ... : ... .. . ... : ... .. . ...
ROW 74 : F-3 0D . ... : C-3 0D . ... : G#2 00 . ... : 1-# 03 7 ... : ... .. . ... : ... .. . ... : ... .. . ... : ... .. . ...
ROW 75 : ... .. . ... : ... .. . ... : --- .. . ... : ... .. . ... : ... .. . ... : ... .. . ... : ... .. . ... : ... .. . ...
ROW 76 : C-3 0D . ... : F-3 0D . ... : G#2 00 . ... : 1-# 03 8 ... : ... .. . ... : ... .. . ... : G-4 07 . ... : ... .. . ...
ROW 77 : ... .. . ... : ... .. . ... : --- .. . ... : ... .. . ... : ... .. . ... : ... .. . ... : ... .. . ... : ... .. . ...
ROW 78 : F-3 0D . ... : G#3 0D . ... : G#3 00 . ... : 4-# 03 F ... : ... .. . ... : ... .. . ... : ... .. . ... : ... .. . ...
ROW 79 : ... .. . ... : ... .. . ... : --- .. . ... : ... .. . ... : ... .. . ... : ... .. . ... : ... .. . ... : ... .. . ...
ROW 7A : G#3 0D . ... : F-3 0D . ... : G#2 00 . ... : 1-# 03 2 ... : ... .. . ... : ... .. . ... : ... .. . ... : ... .. . ...
ROW 7B : ... .. . ... : ... .. . ... : --- .. . ... : ... .. . ... : ... .. . ... : ... .. . ... : ... .. . ... : ... .. . ...
ROW 7C : F-3 0D . ... : C-3 0D . ... : G#2 00 . ... : 1-# 03 3 ... : ... .. . ... : D#3 08 . ... : D#4 07 . ... : ... .. . ...
ROW 7D : ... .. . ... : ... .. . ... : --- .. . ... : ... .. . ... : ... .. . ... : ... .. . ... : ... .. . ... : ... .. . ...
ROW 7E : C-3 0D . ... : F-3 0D . ... : G#2 00 . ... : 1-# 03 4 ... : ... .. . ... : F-3 08 . ... : F-4 07 . ... : ... .. . ...
ROW 7F : ... .. . ... : ... .. . ... : --- .. . ... : ... .. . ... : ... .. . ... : ... .. . ... : ... .. . ... : ... .. . ...

PATTERN 07
ROW 00 : ... .. . ... : D#3 0D F ... : C-3 00 . ... : 1-# 03 5 ... : ... .. . ... : D#4 08 F ... : G-4 07 F ... : C-1 01 8 ...
ROW 01 : ... .. . ... : ... .. . ... : --- .. . ... : ... .. . ... : ... .. . ... : ... .. . ... : ... .. . ... : ... .. . ...
ROW 02 : D#3 0D 7 ... : C-3 0D . ... : C-3 00 . ... : 1-# 03 6 ... : C-3 00 . ... : ... .. . ... : ... .. . ... : ... .. . ...
ROW 03 : ... .. . ... : ... .. . ... : --- .. . ... : ... .. . ... : ... .. . ... : ... .. . ... : ... .. . ... : ... .. . ...
ROW 04 : C-3 0D . ... : G-2 0D . ... : C-3 00 . ... : 1-# 03 7 ... : ... .. . ... : D-4 08 . ... : F-4 07 . ... : ... .. . ...
ROW 05 : ... .. . ... : ... .. . ... : --- .. . ... : ... .. . ... : ... .. . ... : ... .. . ... : ... .. . ... : ... .. . ...
ROW 06 : G-2 0D . ... : C-3 0D . ... : C-3 00 . ... : 1-# 03 8 ... : ... .. . ... : ... .. . ... : ... .. . ... : ... .. . ...
ROW 07 : ... .. . ... : ... .. . ... : --- .. . ... : ... .. . ... : ... .. . ... : ... .. . ... : ... .. . ... : ... .. . ...
ROW 08 : C-3 0D . ... : D#3 0D . ... : C-4 00 . ... : 4-# 03 F ... : ... .. . ... : C-4 08 . ... : D#4 07 . ... : ... .. . ...
ROW 09 : ... .. . ... : ... .. . ... : --- .. . ... : ... .. . ... : ... .. . ... : ... .. . ... : ... .. . ... : ... .. . ...
ROW 0A : D#3 0D . ... : C-3 0D . ... : C-3 00 . ... : 1-# 03 2 ... : ... .. . ... : ... .. . ... : ... .. . ... : ... .. . ...
ROW 0B : ... .. . ... : ... .. . ... : --- .. . ... : ... .. . ... : ... .. . ... : ... .. . ... : ... .. . ... : ... .. . ...
ROW 0C : C-3 0D . ... : G-2 0D . ... : C-3 00 . ... : 1-# 03 3 ... : ... .. . ... : G-3 08 . ... : D-4 07 . ... : ... .. . ...
ROW 0D : ... .. . ... : ... .. . ... : --- .. . ... : ... .. . ... : ... .. . ... : ... .. . ... : ... .. . ... : ... .. . ...
ROW 0E : G-2 0D . ... : C-3 0D . ... : C-3 00 . ... : 1-# 03 4 ... : ... .. . ... : ... .. . ... : ... .. . ... : ... .. . ...
ROW 0F : ... .. . ... : ... .. . ... : --- .. . ... : ... .. . ... : ... .. . ... : ... .. . ... : ... .. . ... : ... .. . ...
ROW 10 : C-3 0D . ... : D#3 0D . ... : C-3 00 . ... : 1-# 03 5 ... : ... .. . ... : C-3 08 . ... : C-4 07 . ... : ... .. . ...
ROW 11 : ... .. . ... : ... .. . ... : --- .. . ... : ... .. . ... : ... .. . ... : ... .. . ... : ... .. . ... : ... .. . ...
ROW 12 : D#3 0D . ... : C-3 0D . ... : C-3 00 . ... : 1-# 03 6 ... : C-3 00 . ... : ... .. . ... : ... .. . ... : ... .. . ...
ROW 13 : ... .. . ... : ... .. . ... : --- .. . ... : ... .. . ... : ... .. . ... : ... .. . ... : ... .. . ... : ... .. . ...
ROW 14 : C-3 0D . ... : G-2 0D . ... : C-3 00 . ... : 1-# 03 7 ... : ... .. . ... : ... .. . ... : ... .. . ... : ... .. . ...
ROW 15 : ... .. . ... : ... .. . ... : --- .. . ... : ... .. . ... : ... .. . ... : ... .. . ... : ... .. . ... : ... .. . ...
ROW 16 : G-2 0D . ... : C-3 0D . ... : C-3 00 . ... : 1-# 03 8 ... : ... .. . ... : ... .. . ... : ... .. . ... : ... .. . ...
ROW 17 : ... .. . ... : ... .. . ... : --- .. . ... : ... .. . ... : ... .. . ... : ... .. . ... : ... .. . ... : ... .. . ...
ROW 18 : C-3 0D . ... : D#3 0D . ... : C-4 00 . ... : 4-# 03 F ... : ... .. . ... : D-3 08 . ... : D-4 07 . ... : ... .. . ...
ROW 19 : ... .. . ... : ... .. . ... : --- .. . ... : ... .. . ... : ... .. . ... : ... .. . ... : ... .. . ... : ... .. . ...
ROW 1A : D#3 0D . ... : C-3 0D . ... : C-3 00 . ... : 1-# 03 2 ... : ... .. . ... : ... .. . ... : ... .. . ... : ... .. . ...
ROW 1B : ... .. . ... : ... .. . ... : --- .. . ... : ... .. . ... : ... .. . ... : ... .. . ... : ... .. . ... : ... .. . ...
ROW 1C : C-3 0D . ... : G-2 0D . ... : C-3 00 . ... : 1-# 03 3 ... : ... .. . ... : ... .. . ... : ... .. . ... : ... .. . ...
ROW 1D : ... .. . ... : ... .. . ... : --- .. . ... : ... .. . ... : ... .. . ... : ... .. . ... : ... .. . ... : ... .. . ...
ROW 1E : G-2 0D . ... : C-3 0D . ... : C-3 00 . ... : 1-# 03 4 ... : ... .. . ... : ... .. . ... : ... .. . ... : ... .. . ...
ROW 1F : ... .. . ... : ... .. . ... : --- .. . ... : ... .. . ... : ... .. . ... : ... .. . ... : ... .. . ... : ... .. . ...
ROW 20 : C-3 0D . ... : G-3 0D . ... : D#3 00 . ... : 1-# 03 5 ... : ... .. . ... : D#3 08 . ... : D#4 07 . ... : D#1 01 . ...
ROW 21 : ... .. . ... : ... .. . ... : --- .. . ... : ... .. . ... : ... .. . ... : ... .. . ... : ... .. . ... : ... .. . ...
ROW 22 : G-3 0D . ... : C-3 0D . ... : D#3 00 . ... : 1-# 03 6 ... : C-3 00 . ... : ... .. . ... : ... .. . ... : ... .. . ...
ROW 23 : ... .. . ... : ... .. . ... : --- .. . ... : ... .. . ... : ... .. . ... : ... .. . ... : ... .. . ... : ... .. . ...
ROW 24 : C-3 0D . ... : G-2 0D . ... : D#3 00 . ... : 1-# 03 7 ... : ... .. . ... : C-3 08 . ... : C-4 07 . ... : ... .. . ...
ROW 25 : ... .. . ... : ... .. . ... : --- .. . ... : ... .. . ... : ... .. . ... : ... .. . ... : ... .. . ... : ... .. . ...
ROW 26 : G-2 0D . ... : C-3 0D . ... : D#3 00 . ... : 1-# 03 8 ... : ... .. . ... : ... .. . ... : ... .. . ... : ... .. . ...
ROW 27 : ... .. . ... : ... .. . ... : --- .. . ... : ... .. . ... : ... .. . ... : ... .. . ... : ... .. . ... : ... .. . ...
ROW 28 : C-3 0D . ... : G-3 0D . ... : D#4 00 . ... : 4-# 03 F ... : ... .. . ... : D-3 08 . ... : D-4 07 . ... : ... .. . ...
ROW 29 : ... .. . ... : ... .. . ... : --- .. . ... : ... .. . ... : ... .. . ... : ... .. . ... : ... .. . ... : ... .. . ...
ROW 2A : G-3 0D . ... : C-3 0D . ... : D#3 00 . ... : 1-# 03 2 ... : ... .. . ... : ... .. . ... : ... .. . ... : ... .. . ...
ROW 2B : ... .. . ... : ... .. . ... : --- .. . ... : ... .. . ... : ... .. . ... : ... .. . ... : ... .. . ... : ... .. . ...
ROW 2C : C-3 0D . ... : G-2 0D . ... : D#3 00 . ... : 1-# 03 3 ... : ... .. . ... : D#3 08 . ... : D#4 07 . ... : ... .. . ...
ROW 2D : ... .. . ... : ... .. . ... : --- .. . ... : ... .. . ... : ... .. . ... : ... .. . ... : ... .. . ... : ... .. . ...
ROW 2E : G-2 0D . ... : C-3 0D . ... : D#3 00 . ... : 1-# 03 4 ... : ... .. . ... : ... .. . ... : ... .. . ... : ... .. . ...
ROW 2F : ... .. . ... : ... .. . ... : --- .. . ... : ... .. . ... : ... .. . ... : ... .. . ... : ... .. . ... : ... .. . ...
ROW 30 : C-3 0D . ... : G-3 0D . ... : D#3 00 . ... : 1-# 03 5 ... : ... .. . ... : G-3 08 . ... : G-4 07 . ... : ... .. . ...
ROW 31 : ... .. . ... : ... .. . ... : --- .. . ... : ... .. . ... : ... .. . ... : ... .. . ... : ... .. . ... : ... .. . ...
ROW 32 : G-3 0D . ... : C-3 0D . ... : D#3 00 . ... : 1-# 03 6 ... : C-3 00 . ... : ... .. . ... : ... .. . ... : ... .. . ...
ROW 33 : ... .. . ... : ... .. . ... : --- .. . ... : ... .. . ... : ... .. . ... : ... .. . ... : ... .. . ... : ... .. . ...
ROW 34 : C-3 0D . ... : G-2 0D . ... : D#3 00 . ... : 1-# 03 7 ... : ... .. . ... : G#3 08 . ... : G#4 07 . ... : ... .. . ...
ROW 35 : ... .. . ... : ... .. . ... : --- .. . ... : ... .. . ... : ... .. . ... : ... .. . ... : ... .. . ... : ... .. . ...
ROW 36 : G-2 0D . ... : C-3 0D . ... : D#3 00 . ... : 1-# 03 8 ... : ... .. . ... : G-3 08 . ... : G-4 07 . ... : ... .. . ...
ROW 37 : ... .. . ... : ... .. . ... : --- .. . ... : ... .. . ... : ... .. . ... : ... .. . ... : ... .. . ... : ... .. . ...
ROW 38 : C-3 0D . ... : G-3 0D . ... : D#4 00 . ... : 4-# 03 F ... : ... .. . ... : F-3 08 . ... : F-4 07 . ... : ... .. . ...
ROW 39 : ... .. . ... : ... .. . ... : --- 00 . ... : 1-# 03 8 ... : ... .. . ... : ... .. . ... : ... .. . ... : ... .. . ...
ROW 3A : G-3 0D . ... : C-3 0D . ... : D#3 00 . ... : ... .. . ... : ... .. . ... : D#3 08 . ... : D#4 07 . ... : ... .. . ...
ROW 3B : ... .. . ... : ... .. . ... : --- .. . ... : 3-# 03 C ... : ... .. . ... : ... .. . ... : ... .. . ... : ... .. . ...
ROW 3C : C-3 0D . ... : G-2 0D . ... : D#3 00 . ... : 1-# 03 8 ... : ... .. . ... : D-3 08 . ... : D-4 07 . ... : ... .. . ...
ROW 3D : ... .. . ... : ... .. . ... : --- .. . ... : ... .. . ... : ... .. . ... : ... .. . ... : ... .. . ... : ... .. . ...
ROW 3E : G-2 0D . ... : C-3 0D . ... : D#3 00 . ... : 1-# 03 A ... : ... .. . ... : C-3 08 . ... : C-4 07 . ... : ... .. . ...
ROW 3F : ... .. . ... : ... .. . ... : --- .. . ... : 1-# 03 8 ... : ... .. . ... : ... .. . ... : ... .. . ... : ... .. . ...
ROW 40 : C-3 0D . ... : G#3 0D . ... : G#2 00 . ... : 1-# 03 5 ... : ... .. . ... : C-3 08 . ... : C-4 07 . ... : G#0 01 . ...
ROW 41 : ... .. . ... : ... .. . ... : --- .. . ... : ... .. . ... : ... .. . ... : ... .. . ... : ... .. . ... : ... .. . ...
ROW 42 : G#3 0D . ... : D#3 0D . ... : G#2 00 . ... : 1-# 03 6 ... : C-3 00 . ... : ... .. . ... : ... .. . ... : ... .. . ...
ROW 43 : ... .. . ... : ... .. . ... : --- .. . ... : ... .. . ... : ... .. . ... : ... .. . ... : ... .. . ... : ... .. . ...
ROW 44 : D#3 0D . ... : C-3 0D . ... : G#2 00 . ... : 1-# 03 7 ... : ... .. . ... : ... .. . ... : ... .. . ... : ... .. . ...
ROW 45 : ... .. . ... : ... .. . ... : --- .. . ... : ... .. . ... : ... .. . ... : ... .. . ... : ... .. . ... : ... .. . ...
ROW 46 : C-3 0D . ... : D#3 0D . ... : G#2 00 . ... : 1-# 03 8 ... : ... .. . ... : ... .. . ... : ... .. . ... : ... .. . ...
ROW 47 : ... .. . ... : ... .. . ... : --- .. . ... : ... .. . ... : ... .. . ... : ... .. . ... : ... .. . ... : ... .. . ...
ROW 48 : D#3 0D . ... : G#3 0D . ... : G#3 00 . ... : 4-# 03 F ... : ... .. . ... : ... .. . ... : ... .. . ... : ... .. . ...
ROW 49 : ... .. . ... : ... .. . ... : --- .. . ... : ... .. . ... : ... .. . ... : ... .. . ... : ... .. . ... : ... .. . ...
ROW 4A : G#3 0D . ... : D#3 0D . ... : G#2 00 . ... : 1-# 03 2 ... : ... .. . ... : ... .. . ... : ... .. . ... : ... .. . ...
ROW 4B : ... .. . ... : ... .. . ... : --- .. . ... : ... .. . ... : ... .. . ... : ... .. . ... : ... .. . ... : ... .. . ...
ROW 4C : D#3 0D . ... : C-3 0D . ... : G#2 00 . ... : 1-# 03 3 ... : ... .. . ... : ... .. . ... : ... .. . ... : ... .. . ...
ROW 4D : ... .. . ... : ... .. . ... : --- .. . ... : ... .. . ... : ... .. . ... : ... .. . ... : ... .. . ... : ... .. . ...
ROW 4E : C-3 0D . ... : D#3 0D . ... : G#2 00 . ... : 1-# 03 4 ... : ... .. . ... : ... .. . ... : ... .. . ... : ... .. . ...
ROW 4F : ... .. . ... : ... .. . ... : --- .. . ... : ... .. . ... : ... .. . ... : ... .. . ... : ... .. . ... : ... .. . ...
ROW 50 : D#3 0D . ... : G#3 0D . ... : G#2 00 . ... : 1-# 03 5 ... : ... .. . ... : G#3 08 . ... : C-4 07 . ... : ... .. . ...
ROW 51 : ... .. . ... : ... .. . ... : --- .. . ... : ... .. . ... : ... .. . ... : ... .. . ... : ... .. . ... : ... .. . ...
ROW 52 : G#3 0D . ... : D#3 0D . ... : G#2 00 . ... : 1-# 03 6 ... : C-3 00 . ... : ... .. . ... : ... .. . ... : ... .. . ...
ROW 53 : ... .. . ... : ... .. . ... : --- .. . ... : ... .. . ... : ... .. . ... : ... .. . ... : ... .. . ... : ... .. . ...
ROW 54 : D#3 0D . ... : C-3 0D . ... : G#2 00 . ... : 1-# 03 7 ... : ... .. . ... : ... .. . ... : ... .. . ... : ... .. . ...
ROW 55 : ... .. . ... : ... .. . ... : --- .. . ... : ... .. . ... : ... .. . ... : ... .. . ... : ... .. . ... : ... .. . ...
ROW 56 : C-3 0D . ... : D#3 0D . ... : G#2 00 . ... : 1-# 03 8 ... : ... .. . ... : A#3 08 . ... : D-4 07 . ... : ... .. . ...
ROW 57 : ... .. . ... : ... .. . ... : --- .. . ... : ... .. . ... : ... .. . ... : ... .. . ... : ... .. . ... : ... .. . ...
ROW 58 : D#3 0D . ... : G#3 0D . ... : G#3 00 . ... : 4-# 03 F ... : ... .. . ... : ... .. . ... : ... .. . ... : ... .. . ...
ROW 59 : ... .. . ... : ... .. . ... : --- .. . ... : ... .. . ... : ... .. . ... : ... .. . ... : ... .. . ... : ... .. . ...
ROW 5A : G#3 0D . ... : D#3 0D . ... : G#2 00 . ... : 1-# 03 2 ... : ... .. . ... : ... .. . ... : ... .. . ... : ... .. . ...
ROW 5B : ... .. . ... : ... .. . ... : --- .. . ... : ... .. . ... : ... .. . ... : ... .. . ... : ... .. . ... : ... .. . ...
ROW 5C : D#3 0D . ... : C-3 0D . ... : G#2 00 . ... : 1-# 03 3 ... : ... .. . ... : C-4 08 . ... : D#4 07 . ... : D#1 01 . ...
ROW 5D : ... .. . ... : ... .. . ... : --- .. . ... : ... .. . ... : ... .. . ... : ... .. . ... : ... .. . ... : ... .. . ...
ROW 5E : C-3 0D . ... : D#3 0D . ... : G#2 00 . ... : 1-# 03 4 ... : ... .. . ... : ... .. . ... : ... .. . ... : ... .. . ...
ROW 5F : ... .. . ... : ... .. . ... : --- .. . ... : ... .. . ... : ... .. . ... : ... .. . ... : ... .. . ... : ... .. . ...
ROW 60 : D#3 0D . ... : G#3 0D . ... : C-3 00 . ... : 1-# 03 5 ... : ... .. . ... : D-4 08 . ... : F-4 07 . ... : C-1 01 . ...
ROW 61 : ... .. . ... : ... .. . ... : --- .. . ... : ... .. . ... : ... .. . ... : ... .. . ... : ... .. . ... : ... .. . ...
ROW 62 : G#3 0D . ... : F-3 0D . ... : C-3 00 . ... : 1-# 03 6 ... : C-3 00 . ... : ... .. . ... : ... .. . ... : ... .. . ...
ROW 63 : ... .. . ... : ... .. . ... : --- .. . ... : ... .. . ... : ... .. . ... : ... .. . ... : ... .. . ... : ... .. . ...
ROW 64 : F-3 0D . ... : C-3 0D . ... : C-3 00 . ... : 1-# 03 7 ... : ... .. . ... : ... .. . ... : ... .. . ... : ... .. . ...
ROW 65 : ... .. . ... : ... .. . ... : --- .. . ... : ... .. . ... : ... .. . ... : ... .. . ... : ... .. . ... : ... .. . ...
ROW 66 : C-3 0D . ... : F-3 0D . ... : C-3 00 . ... : 1-# 03 8 ... : ... .. . ... : ... .. . ... : ... .. . ... : ... .. . ...
ROW 67 : ... .. . ... : ... .. . ... : --- .. . ... : ... .. . ... : ... .. . ... : ... .. . ... : ... .. . ... : ... .. . ...
ROW 68 : F-3 0D . ... : G#3 0D . ... : C-4 00 . ... : 4-# 03 F ... : ... .. . ... : ... .. . ... : ... .. . ... : ... .. . ...
ROW 69 : ... .. . ... : ... .. . ... : --- .. . ... : ... .. . ... : ... .. . ... : ... .. . ... : ... .. . ... : ... .. . ...
ROW 6A : G#3 0D . ... : F-3 0D . ... : C-3 00 . ... : 1-# 03 2 ... : ... .. . ... : ... .. . ... : ... .. . ... : ... .. . ...
ROW 6B : ... .. . ... : ... .. . ... : --- .. . ... : ... .. . ... : ... .. . ... : ... .. . ... : ... .. . ... : ... .. . ...
ROW 6C : F-3 0D . ... : C-3 0D . ... : C-3 00 . ... : 1-# 03 3 ... : ... .. . ... : ... .. . ... : ... .. . ... : ... .. . ...
ROW 6D : ... .. . ... : ... .. . ... : --- .. . ... : ... .. . ... : ... .. . ... : ... .. . ... : ... .. . ... : ... .. . ...
ROW 6E : C-3 0D . ... : F-3 0D . ... : C-3 00 . ... : 1-# 03 4 ... : ... .. . ... : ... .. . ... : ... .. . ... : ... .. . ...
ROW 6F : ... .. . ... : ... .. . ... : --- .. . ... : ... .. . ... : ... .. . ... : ... .. . ... : ... .. . ... : ... .. . ...
ROW 70 : F-3 0D . ... : G#3 0D . ... : C-3 00 . ... : 1-# 03 5 ... : ... .. . ... : G#3 08 . ... : ... .. . ... : F-1 01 . ...
ROW 71 : ... .. . ... : ... .. . ... : --- .. . ... : ... .. . ... : ... .. . ... : ... .. . ... : ... .. . ... : ... .. . ...
ROW 72 : G#3 0D . ... : F-3 0D . ... : C-3 00 . ... : 1-# 03 6 ... : C-3 00 . ... : ... .. . ... : ... .. . ... : ... .. . ...
ROW 73 : ... .. . ... : ... .. . ... : --- .. . ... : ... .. . ... : ... .. . ... : ... .. . ... : ... .. . ... : ... .. . ...
ROW 74 : F-3 0D . ... : C-3 0D . ... : C-3 00 . ... : 1-# 03 7 ... : ... .. . ... : ... .. . ... : ... .. . ... : ... .. . ...
ROW 75 : ... .. . ... : ... .. . ... : --- .. . ... : ... .. . ... : ... .. . ... : ... .. . ... : ... .. . ... : ... .. . ...
ROW 76 : C-3 0D . ... : F-3 0D . ... : C-3 00 . ... : 1-# 03 8 ... : ... .. . ... : ... .. . ... : ... .. . ... : ... .. . ...
ROW 77 : ... .. . ... : ... .. . ... : --- .. . ... : ... .. . ... : ... .. . ... : ... .. . ... : ... .. . ... : ... .. . ...
ROW 78 : F-3 0D . ... : G#3 0D . ... : C-4 00 . ... : 4-# 03 F ... : ... .. . ... : ... .. . ... : ... .. . ... : ... .. . ...
ROW 79 : ... .. . ... : ... .. . ... : --- .. . ... : ... .. . ... : ... .. . ... : ... .. . ... : ... .. . ... : ... .. . ...
ROW 7A : G#3 0D . ... : F-3 0D . ... : C-3 00 . ... : 1-# 03 2 ... : ... .. . ... : ... .. . ... : ... .. . ... : ... .. . ...
ROW 7B : ... .. . ... : ... .. . ... : --- .. . ... : ... .. . ... : ... .. . ... : ... .. . ... : ... .. . ... : ... .. . ...
ROW 7C : F-3 0D . ... : C-3 0D . ... : C-3 00 . ... : 1-# 03 3 ... : ... .. . ... : ... .. . ... : ... .. . ... : ... .. . ...
ROW 7D : ... .. . ... : ... .. . ... : --- .. . ... : ... .. . ... : ... .. . ... : ... .. . ... : ... .. . ... : ... .. . ...
ROW 7E : C-3 0D . ... : F-3 0D . ... : C-3 00 . ... : 1-# 03 4 ... : ... .. . ... : ... .. . ... : ... .. . ... : ... .. . ...
ROW 7F : ... .. . ... : ... .. . ... : --- .. . ... : ... .. . ... : ... .. . ... : ... .. . ... : ... .. . ... : ... .. . ...

PATTERN 08
ROW 00 : ... .. . ... : D#3 0D F ... : C-3 00 . ... : 1-# 03 5 ... : ... .. . ... : D#3 08 F ... : D#4 07 F ... : C-1 01 8 ...
ROW 01 : ... .. . ... : ... .. . ... : --- .. . ... : ... .. . ... : ... .. . ... : ... .. . ... : ... .. . ... : ... .. . ...
ROW 02 : D#3 0D 7 ... : C-3 0D . ... : C-3 00 . ... : 1-# 03 6 ... : C-3 00 . ... : ... .. . ... : ... .. . ... : ... .. . ...
ROW 03 : ... .. . ... : ... .. . ... : --- .. . ... : ... .. . ... : ... .. . ... : ... .. . ... : ... .. . ... : ... .. . ...
ROW 04 : C-3 0D . ... : G-2 0D . ... : C-3 00 . ... : 1-# 03 7 ... : ... .. . ... : ... .. . ... : ... .. . ... : ... .. . ...
ROW 05 : ... .. . ... : ... .. . ... : --- .. . ... : ... .. . ... : ... .. . ... : ... .. . ... : ... .. . ... : ... .. . ...
ROW 06 : G-2 0D . ... : C-3 0D . ... : C-3 00 . ... : 1-# 03 8 ... : ... .. . ... : D-3 08 . ... : D-4 07 . ... : ... .. . ...
ROW 07 : ... .. . ... : ... .. . ... : --- .. . ... : ... .. . ... : ... .. . ... : ... .. . ... : ... .. . ... : ... .. . ...
ROW 08 : C-3 0D . ... : D#3 0D . ... : C-4 00 . ... : 4-# 03 F ... : ... .. . ... : ... .. . ... : ... .. . ... : ... .. . ...
ROW 09 : ... .. . ... : ... .. . ... : --- .. . ... : ... .. . ... : ... .. . ... : ... .. . ... : ... .. . ... : ... .. . ...
ROW 0A : D#3 0D . ... : C-3 0D . ... : C-3 00 . ... : 1-# 03 2 ... : ... .. . ... : ... .. . ... : ... .. . ... : ... .. . ...
ROW 0B : ... .. . ... : ... .. . ... : --- .. . ... : ... .. . ... : ... .. . ... : ... .. . ... : ... .. . ... : ... .. . ...
ROW 0C : C-3 0D . ... : G-2 0D . ... : C-3 00 . ... : 1-# 03 3 ... : ... .. . ... : C-3 08 . ... : C-4 07 . ... : ... .. . ...
ROW 0D : ... .. . ... : ... .. . ... : --- .. . ... : ... .. . ... : ... .. . ... : ... .. . ... : ... .. . ... : ... .. . ...
ROW 0E : G-2 0D . ... : C-3 0D . ... : C-3 00 . ... : 1-# 03 4 ... : ... .. . ... : ... .. . ... : ... .. . ... : ... .. . ...
ROW 0F : ... .. . ... : ... .. . ... : --- .. . ... : ... .. . ... : ... .. . ... : ... .. . ... : ... .. . ... : ... .. . ...
ROW 10 : C-3 0D . ... : D#3 0D . ... : C-3 00 . ... : 1-# 03 5 ... : ... .. . ... : D#3 08 . ... : D#4 07 . ... : ... .. . ...
ROW 11 : ... .. . ... : ... .. . ... : --- .. . ... : ... .. . ... : ... .. . ... : ... .. . ... : ... .. . ... : ... .. . ...
ROW 12 : D#3 0D . ... : C-3 0D . ... : C-3 00 . ... : 1-# 03 6 ... : C-3 00 . ... : ... .. . ... : ... .. . ... : ... .. . ...
ROW 13 : ... .. . ... : ... .. . ... : --- .. . ... : ... .. . ... : ... .. . ... : ... .. . ... : ... .. . ... : ... .. . ...
ROW 14 : C-3 0D . ... : G-2 0D . ... : C-3 00 . ... : 1-# 03 7 ... : ... .. . ... : ... .. . ... : ... .. . ... : ... .. . ...
ROW 15 : ... .. . ... : ... .. . ... : --- .. . ... : ... .. . ... : ... .. . ... : ... .. . ... : ... .. . ... : ... .. . ...
ROW 16 : G-2 0D . ... : C-3 0D . ... : C-3 00 . ... : 1-# 03 8 ... : ... .. . ... : F-3 08 . ... : F-4 07 . ... : ... .. . ...
ROW 17 : ... .. . ... : ... .. . ... : --- .. . ... : ... .. . ... : ... .. . ... : ... .. . ... : ... .. . ... : ... .. . ...
ROW 18 : C-3 0D . ... : D#3 0D . ... : C-4 00 . ... : 4-# 03 F ... : ... .. . ... : ... .. . ... : ... .. . ... : ... .. . ...
ROW 19 : ... .. . ... : ... .. . ... : --- .. . ... : ... .. . ... : ... .. . ... : ... .. . ... : ... .. . ... : ... .. . ...
ROW 1A : D#3 0D . ... : C-3 0D . ... : C-3 00 . ... : 1-# 03 2 ... : ... .. . ... : ... .. . ... : ... .. . ... : ... .. . ...
ROW 1B : ... .. . ... : ... .. . ... : --- .. . ... : ... .. . ... : ... .. . ... : ... .. . ... : ... .. . ... : ... .. . ...
ROW 1C : C-3 0D . ... : G-2 0D . ... : C-3 00 . ... : 1-# 03 3 ... : ... .. . ... : G-3 08 . ... : G-4 07 . ... : ... .. . ...
ROW 1D : ... .. . ... : ... .. . ... : --- .. . ... : ... .. . ... : ... .. . ... : ... .. . ... : ... .. . ... : ... .. . ...
ROW 1E : G-2 0D . ... : C-3 0D . ... : C-3 00 . ... : 1-# 03 4 ... : ... .. . ... : ... .. . ... : ... .. . ... : ... .. . ...
ROW 1F : ... .. . ... : ... .. . ... : --- .. . ... : ... .. . ... : ... .. . ... : ... .. . ... : ... .. . ... : ... .. . ...
ROW 20 : C-3 0D . ... : G-3 0D . ... : D#3 00 . ... : 1-# 03 5 ... : ... .. . ... : G-3 08 . ... : G-4 07 . ... : D#1 01 . ...
ROW 21 : ... .. . ... : ... .. . ... : --- .. . ... : ... .. . ... : ... .. . ... : ... .. . ... : ... .. . ... : ... .. . ...
ROW 22 : G-3 0D . ... : C-3 0D . ... : D#3 00 . ... : 1-# 03 6 ... : C-3 00 . ... : ... .. . ... : ... .. . ... : ... .. . ...
ROW 23 : ... .. . ... : ... .. . ... : --- .. . ... : ... .. . ... : ... .. . ... : ... .. . ... : ... .. . ... : ... .. . ...
ROW 24 : C-3 0D . ... : G-2 0D . ... : D#3 00 . ... : 1-# 03 7 ... : ... .. . ... : ... .. . ... : ... .. . ... : ... .. . ...
ROW 25 : ... .. . ... : ... .. . ... : --- .. . ... : ... .. . ... : ... .. . ... : ... .. . ... : ... .. . ... : ... .. . ...
ROW 26 : G-2 0D . ... : C-3 0D . ... : D#3 00 . ... : 1-# 03 8 ... : ... .. . ... : D#3 08 . ... : D#4 07 . ... : ... .. . ...
ROW 27 : ... .. . ... : ... .. . ... : --- .. . ... : ... .. . ... : ... .. . ... : ... .. . ... : ... .. . ... : ... .. . ...
ROW 28 : C-3 0D . ... : G-3 0D . ... : D#4 00 . ... : 4-# 03 F ... : ... .. . ... : ... .. . ... : ... .. . ... : ... .. . ...
ROW 29 : ... .. . ... : ... .. . ... : --- .. . ... : ... .. . ... : ... .. . ... : ... .. . ... : ... .. . ... : ... .. . ...
ROW 2A : G-3 0D . ... : C-3 0D . ... : D#3 00 . ... : 1-# 03 2 ... : ... .. . ... : ... .. . ... : ... .. . ... : ... .. . ...
ROW 2B : ... .. . ... : ... .. . ... : --- .. . ... : ... .. . ... : ... .. . ... : ... .. . ... : ... .. . ... : ... .. . ...
ROW 2C : C-3 0D . ... : G-2 0D . ... : D#3 00 . ... : 1-# 03 3 ... : ... .. . ... : D-3 08 . ... : D-4 07 . ... : ... .. . ...
ROW 2D : ... .. . ... : ... .. . ... : --- .. . ... : ... .. . ... : ... .. . ... : ... .. . ... : ... .. . ... : ... .. . ...
ROW 2E : G-2 0D . ... : C-3 0D . ... : D#3 00 . ... : 1-# 03 4 ... : ... .. . ... : ... .. . ... : ... .. . ... : ... .. . ...
ROW 2F : ... .. . ... : ... .. . ... : --- .. . ... : ... .. . ... : ... .. . ... : ... .. . ... : ... .. . ... : ... .. . ...
ROW 30 : C-3 0D . ... : G-3 0D . ... : D#3 00 . ... : 1-# 03 5 ... : ... .. . ... : C-3 08 . ... : C-4 07 . ... : ... .. . ...
ROW 31 : ... .. . ... : ... .. . ... : --- .. . ... : ... .. . ... : ... .. . ... : ... .. . ... : ... .. . ... : ... .. . ...
ROW 32 : G-3 0D . ... : C-3 0D . ... : D#3 00 . ... : 1-# 03 6 ... : C-3 00 . ... : ... .. . ... : ... .. . ... : ... .. . ...
ROW 33 : ... .. . ... : ... .. . ... : --- .. . ... : ... .. . ... : ... .. . ... : ... .. . ... : ... .. . ... : ... .. . ...
ROW 34 : C-3 0D . ... : G-2 0D . ... : D#3 00 . ... : 1-# 03 7 ... : ... .. . ... : ... .. . ... : ... .. . ... : ... .. . ...
ROW 35 : ... .. . ... : ... .. . ... : --- .. . ... : ... .. . ... : ... .. . ... : ... .. . ... : ... .. . ... : ... .. . ...
ROW 36 : G-2 0D . ... : C-3 0D . ... : D#3 00 . ... : 1-# 03 8 ... : ... .. . ... : ... .. . ... : ... .. . ... : ... .. . ...
ROW 37 : ... .. . ... : ... .. . ... : --- .. . ... : ... .. . ... : ... .. . ... : ... .. . ... : ... .. . ... : ... .. . ...
ROW 38 : C-3 0D . ... : G-3 0D . ... : D#4 00 . ... : 4-# 03 F ... : ... .. . ... : G-3 08 . ... : G-4 07 . ... : ... .. . ...
ROW 39 : ... .. . ... : ... .. . ... : --- 00 . ... : 1-# 03 8 ... : ... .. . ... : ... .. . ... : ... .. . ... : ... .. . ...
ROW 3A : G-3 0D . ... : C-3 0D . ... : D#3 00 . ... : ... .. . ... : ... .. . ... : ... .. . ... : ... .. . ... : ... .. . ...
ROW 3B : ... .. . ... : ... .. . ... : --- .. . ... : 3-# 03 C ... : ... .. . ... : ... .. . ... : ... .. . ... : ... .. . ...
ROW 3C : C-3 0D . ... : G-2 0D . ... : D#3 00 . ... : 1-# 03 8 ... : ... .. . ... : ... .. . ... : ... .. . ... : ... .. . ...
ROW 3D : ... .. . ... : ... .. . ... : --- .. . ... : ... .. . ... : ... .. . ... : ... .. . ... : ... .. . ... : ... .. . ...
ROW 3E : G-2 0D . ... : C-3 0D . ... : D#3 00 . ... : 1-# 03 A ... : ... .. . ... : ... .. . ... : ... .. . ... : ... .. . ...
ROW 3F : ... .. . ... : ... .. . ... : --- .. . ... : 1-# 03 8 ... : ... .. . ... : ... .. . ... : ... .. . ... : ... .. . ...
ROW 40 : C-3 0D . ... : G#3 0D . ... : G#2 00 . ... : 1-# 03 5 ... : ... .. . ... : G#3 08 . ... : G#4 07 . ... : G#0 01 . ...
ROW 41 : ... .. . ... : ... .. . ... : --- .. . ... : ... .. . ... : ... .. . ... : ... .. . ... : ... .. . ... : ... .. . ...
ROW 42 : G#3 0D . ... : D#3 0D . ... : G#2 00 . ... : 1-# 03 6 ... : C-3 00 . ... : ... .. . ... : ... .. . ... : ... .. . ...
ROW 43 : ... .. . ... : ... .. . ... : --- .. . ... : ... .. . ... : ... .. . ... : ... .. . ... : ... .. . ... : ... .. . ...
ROW 44 : D#3 0D . ... : C-3 0D . ... : G#2 00 . ... : 1-# 03 7 ... : ... .. . ... : ... .. . ... : ... .. . ... : ... .. . ...
ROW 45 : ... .. . ... : ... .. . ... : --- .. . ... : ... .. . ... : ... .. . ... : ... .. . ... : ... .. . ... : ... .. . ...
ROW 46 : C-3 0D . ... : D#3 0D . ... : G#2 00 . ... : 1-# 03 8 ... : ... .. . ... : D#3 08 . ... : D#4 07 . ... : ... .. . ...
ROW 47 : ... .. . ... : ... .. . ... : --- .. . ... : ... .. . ... : ... .. . ... : ... .. . ... : ... .. . ... : ... .. . ...
ROW 48 : D#3 0D . ... : G#3 0D . ... : G#3 00 . ... : 4-# 03 F ... : ... .. . ... : ... .. . ... : ... .. . ... : ... .. . ...
ROW 49 : ... .. . ... : ... .. . ... : --- .. . ... : ... .. . ... : ... .. . ... : ... .. . ... : ... .. . ... : ... .. . ...
ROW 4A : G#3 0D . ... : D#3 0D . ... : G#2 00 . ... : 1-# 03 2 ... : ... .. . ... : ... .. . ... : ... .. . ... : ... .. . ...
ROW 4B : ... .. . ... : ... .. . ... : --- .. . ... : ... .. . ... : ... .. . ... : ... .. . ... : ... .. . ... : ... .. . ...
ROW 4C : D#3 0D . ... : C-3 0D . ... : G#2 00 . ... : 1-# 03 3 ... : ... .. . ... : D-3 08 . ... : D-4 07 . ... : ... .. . ...
ROW 4D : ... .. . ... : ... .. . ... : --- .. . ... : ... .. . ... : ... .. . ... : ... .. . ... : ... .. . ... : ... .. . ...
ROW 4E : C-3 0D . ... : D#3 0D . ... : G#2 00 . ... : 1-# 03 4 ... : ... .. . ... : ... .. . ... : ... .. . ... : ... .. . ...
ROW 4F : ... .. . ... : ... .. . ... : --- .. . ... : ... .. . ... : ... .. . ... : ... .. . ... : ... .. . ... : ... .. . ...
ROW 50 : D#3 0D . ... : G#3 0D . ... : G#2 00 . ... : 1-# 03 5 ... : ... .. . ... : C-3 08 . ... : C-4 07 . ... : ... .. . ...
ROW 51 : ... .. . ... : ... .. . ... : --- .. . ... : ... .. . ... : ... .. . ... : ... .. . ... : ... .. . ... : ... .. . ...
ROW 52 : G#3 0D . ... : D#3 0D . ... : G#2 00 . ... : 1-# 03 6 ... : C-3 00 . ... : ... .. . ... : ... .. . ... : ... .. . ...
ROW 53 : ... .. . ... : ... .. . ... : --- .. . ... : ... .. . ... : ... .. . ... : ... .. . ... : ... .. . ... : ... .. . ...
ROW 54 : D#3 0D . ... : C-3 0D . ... : G#2 00 . ... : 1-# 03 7 ... : ... .. . ... : ... .. . ... : ... .. . ... : ... .. . ...
ROW 55 : ... .. . ... : ... .. . ... : --- .. . ... : ... .. . ... : ... .. . ... : ... .. . ... : ... .. . ... : ... .. . ...
ROW 56 : C-3 0D . ... : D#3 0D . ... : G#2 00 . ... : 1-# 03 8 ... : ... .. . ... : D#3 08 . ... : D#4 07 . ... : ... .. . ...
ROW 57 : ... .. . ... : ... .. . ... : --- .. . ... : ... .. . ... : ... .. . ... : ... .. . ... : ... .. . ... : ... .. . ...
ROW 58 : D#3 0D . ... : G#3 0D . ... : G#3 00 . ... : 4-# 03 F ... : ... .. . ... : ... .. . ... : ... .. . ... : ... .. . ...
ROW 59 : ... .. . ... : ... .. . ... : --- .. . ... : ... .. . ... : ... .. . ... : ... .. . ... : ... .. . ... : ... .. . ...
ROW 5A : G#3 0D . ... : D#3 0D . ... : G#2 00 . ... : 1-# 03 2 ... : ... .. . ... : ... .. . ... : ... .. . ... : ... .. . ...
ROW 5B : ... .. . ... : ... .. . ... : --- .. . ... : ... .. . ... : ... .. . ... : ... .. . ... : ... .. . ... : ... .. . ...
ROW 5C : D#3 0D . ... : C-3 0D . ... : G#2 00 . ... : 1-# 03 3 ... : ... .. . ... : F-3 08 . ... : F-4 07 . ... : D#1 01 . ...
ROW 5D : ... .. . ... : ... .. . ... : --- .. . ... : ... .. . ... : ... .. . ... : ... .. . ... : ... .. . ... : ... .. . ...
ROW 5E : C-3 0D . ... : D#3 0D . ... : G#2 00 . ... : 1-# 03 4 ... : ... .. . ... : ... .. . ... : ... .. . ... : ... .. . ...
ROW 5F : ... .. . ... : ... .. . ... : --- .. . ... : ... .. . ... : ... .. . ... : ... .. . ... : ... .. . ... : ... .. . ...
ROW 60 : D#3 0D . ... : G#3 0D . ... : C-3 00 . ... : 1-# 03 5 ... : ... .. . ... : G#3 08 . ... : G#4 07 . ... : C-1 01 . ...
ROW 61 : ... .. . ... : ... .. . ... : --- .. . ... : ... .. . ... : ... .. . ... : ... .. . ... : ... .. . ... : ... .. . ...
ROW 62 : G#3 0D . ... : F-3 0D . ... : C-3 00 . ... : 1-# 03 6 ... : C-3 00 . ... : ... .. . ... : ... .. . ... : ... .. . ...
ROW 63 : ... .. . ... : ... .. . ... : --- .. . ... : ... .. . ... : ... .. . ... : ... .. . ... : ... .. . ... : ... .. . ...
ROW 64 : F-3 0D . ... : C-3 0D . ... : C-3 00 . ... : 1-# 03 7 ... : ... .. . ... : ... .. . ... : ... .. . ... : ... .. . ...
ROW 65 : ... .. . ... : ... .. . ... : --- .. . ... : ... .. . ... : ... .. . ... : ... .. . ... : ... .. . ... : ... .. . ...
ROW 66 : C-3 0D . ... : F-3 0D . ... : C-3 00 . ... : 1-# 03 8 ... : ... .. . ... : ... .. . ... : ... .. . ... : ... .. . ...
ROW 67 : ... .. . ... : ... .. . ... : --- .. . ... : ... .. . ... : ... .. . ... : ... .. . ... : ... .. . ... : ... .. . ...
ROW 68 : F-3 0D . ... : G#3 0D . ... : C-4 00 . ... : 4-# 03 F ... : ... .. . ... : ... .. . ... : ... .. . ... : ... .. . ...
ROW 69 : ... .. . ... : ... .. . ... : --- .. . ... : ... .. . ... : ... .. . ... : ... .. . ... : ... .. . ... : ... .. . ...
ROW 6A : G#3 0D . ... : F-3 0D . ... : C-3 00 . ... : 1-# 03 2 ... : ... .. . ... : ... .. . ... : ... .. . ... : ... .. . ...
ROW 6B : ... .. . ... : ... .. . ... : --- .. . ... : ... .. . ... : ... .. . ... : ... .. . ... : ... .. . ... : ... .. . ...
ROW 6C : F-3 0D . ... : C-3 0D . ... : C-3 00 . ... : 1-# 03 3 ... : ... .. . ... : ... .. . ... : ... .. . ... : ... .. . ...
ROW 6D : ... .. . ... : ... .. . ... : --- .. . ... : ... .. . ... : ... .. . ... : ... .. . ... : ... .. . ... : ... .. . ...
ROW 6E : C-3 0D . ... : F-3 0D . ... : C-3 00 . ... : 1-# 03 4 ... : ... .. . ... : ... .. . ... : ... .. . ... : ... .. . ...
ROW 6F : ... .. . ... : ... .. . ... : --- .. . ... : ... .. . ... : ... .. . ... : ... .. . ... : ... .. . ... : ... .. . ...
ROW 70 : F-3 0D . ... : B-3 0D . ... : C-3 00 . ... : 8-# 03 F ... : ... .. . ... : D-4 08 . ... : B-4 07 . ... : G-1 01 . ...
ROW 71 : ... .. . ... : ... .. . ... : --- .. . ... : ... .. . ... : ... .. . ... : ... .. . ... : ... .. . ... : ... .. . ...
ROW 72 : B-3 0D . ... : G-3 0D . ... : B-2 00 . ... : 1-# 03 6 ... : C-3 00 . ... : ... .. . ... : ... .. . ... : ... .. . ...
ROW 73 : ... .. . ... : ... .. . ... : --- .. . ... : ... .. . ... : ... .. . ... : ... .. . ... : ... .. . ... : ... .. . ...
ROW 74 : G-3 0D . ... : D-3 0D . ... : B-2 00 . ... : 1-# 03 7 ... : ... .. . ... : ... .. . ... : ... .. . ... : ... .. . ...
ROW 75 : ... .. . ... : ... .. . ... : --- .. . ... : ... .. . ... : ... .. . ... : ... .. . ... : ... .. . ... : ... .. . ...
ROW 76 : D-3 0D . ... : G-3 0D . ... : B-2 00 . ... : 6-# 03 F ... : ... .. . ... : ... .. . ... : ... .. . ... : ... .. . ...
ROW 77 : ... .. . ... : ... .. . ... : --- .. . ... : ... .. . ... : ... .. . ... : ... .. . ... : ... .. . ... : ... .. . ...
ROW 78 : G-3 0D . ... : B-3 0D . ... : B-3 00 . ... : 4-# 03 F ... : ... .. . ... : ... .. . ... : ... .. . ... : ... .. . ...
ROW 79 : ... .. . ... : ... .. . ... : --- .. . ... : ... .. . ... : ... .. . ... : ... .. . ... : ... .. . ... : ... .. . ...
ROW 7A : B-3 0D . ... : G-3 0D . ... : B-2 00 . ... : 1-# 03 2 ... : ... .. . ... : ... .. . ... : ... .. . ... : ... .. . ...
ROW 7B : ... .. . ... : ... .. . ... : --- .. . ... : ... .. . ... : ... .. . ... : ... .. . ... : ... .. . ... : ... .. . ...
ROW 7C : G-3 0D . ... : D-3 0D . ... : B-2 00 . ... : 4-# 03 F ... : ... .. . ... : ... .. . ... : ... .. . ... : ... .. . ...
ROW 7D : ... .. . ... : ... .. . ... : --- .. . ... : ... .. . ... : ... .. . ... : ... .. . ... : ... .. . ... : ... .. . ...
ROW 7E : D-3 0D . ... : G-3 0D . ... : B-2 00 . ... : 2-# 03 F ... : ... .. . ... : ... .. . ... : ... .. . ... : ... .. . ...
ROW 7F : ... .. . ... : ... .. . ... : --- .. . ... : ... .. . ... : ... .. . ... : ... .. . ... : ... .. . ... : ... .. . ...

PATTERN 09
ROW 00 : C-2 0D 7 ... : D#2 0D 7 ... : ... .. . ... : 0-# 03 F ... : ... .. . ... : G-4 08 F ... : C-5 07 F ... : C-2 01 8 ...
ROW 01 : ... .. . ... : D#2 0D . ... : ... .. . ... : ... .. . ... : ... .. . ... : ... .. . ... : ... .. . ... : ... .. . ...
ROW 02 : C-2 0D . ... : D#2 0D . ... : ... .. . ... : 0-# 03 2 ... : C-3 00 . ... : ... .. E ... : ... .. E ... : ... .. . ...
ROW 03 : C-2 0D . ... : ... .. . ... : ... .. . ... : ... .. . ... : ... .. . ... : ... .. . ... : ... .. . ... : ... .. . ...
ROW 04 : C-2 0D . ... : D#2 0D . ... : ... .. . ... : 0-# 03 4 ... : ... .. . ... : ... .. D ... : ... .. D ... : ... .. . ...
ROW 05 : ... .. . ... : D#2 0D . ... : ... .. . ... : ... .. . ... : ... .. . ... : ... .. . ... : ... .. . ... : ... .. . ...
ROW 06 : C-2 0D . ... : D#2 0D . ... : ... .. . ... : 0-# 03 6 ... : ... .. . ... : ... .. C ... : ... .. C ... : ... .. . ...
ROW 07 : C-2 0D . ... : ... .. . ... : ... .. . ... : ... .. . ... : ... .. . ... : ... .. . ... : ... .. . ... : ... .. . ...
ROW 08 : C-2 0D . ... : D#2 0D . ... : ... .. . ... : 4-# 03 F ... : ... .. . ... : ... .. B ... : ... .. B ... : ... .. . ...
ROW 09 : ... .. . ... : D#2 0D . ... : ... .. . ... : ... .. . ... : ... .. . ... : ... .. . ... : ... .. . ... : ... .. . ...
ROW 0A : C-2 0D . ... : D#2 0D . ... : ... .. . ... : ... .. . ... : ... .. . ... : ... .. A ... : ... .. A ... : ... .. . ...
ROW 0B : C-2 0D . ... : ... .. . ... : ... .. . ... : ... .. . ... : ... .. . ... : ... .. . ... : ... .. . ... : ... .. . ...
ROW 0C : C-2 0D . ... : D#2 0D . ... : ... .. . ... : ... .. . ... : ... .. . ... : ... .. 9 ... : ... .. 9 ... : ... .. . ...
ROW 0D : ... .. . ... : D#2 0D . ... : ... .. . ... : ... .. . ... : ... .. . ... : ... .. . ... : ... .. . ... : ... .. . ...
ROW 0E : C-2 0D . ... : D#2 0D . ... : ... .. . ... : ... .. . ... : ... .. . ... : ... .. 8 ... : ... .. 8 ... : ... .. . ...
ROW 0F : C-2 0D . ... : ... .. . ... : ... .. . ... : ... .. . ... : ... .. . ... : ... .. . ... : ... .. . ... : ... .. . ...
ROW 10 : C-2 0D . ... : D#2 0D . ... : ... .. . ... : ... .. . ... : ... .. . ... : ... .. 7 ... : ... .. 7 ... : ... .. . ...
ROW 11 : ... .. . ... : D#2 0D . ... : ... .. . ... : ... .. . ... : ... .. . ... : ... .. . ... : ... .. . ... : ... .. . ...
ROW 12 : C-2 0D . ... : D#2 0D . ... : ... .. . ... : ... .. . ... : C-3 00 . ... : ... .. 6 ... : ... .. 6 ... : ... .. . ...
ROW 13 : C-2 0D . ... : ... .. . ... : ... .. . ... : ... .. . ... : ... .. . ... : ... .. . ... : ... .. . ... : ... .. . ...
ROW 14 : C-2 0D . ... : D#2 0D . ... : ... .. . ... : ... .. . ... : ... .. . ... : ... .. 5 ... : ... .. 5 ... : ... .. . ...
ROW 15 : ... .. . ... : D#2 0D . ... : ... .. . ... : ... .. . ... : ... .. . ... : ... .. . ... : ... .. . ... : ... .. . ...
ROW 16 : C-2 0D . ... : D#2 0D . ... : ... .. . ... : ... .. . ... : ... .. . ... : ... .. 4 ... : ... .. 4 ... : ... .. . ...
ROW 17 : C-2 0D . ... : ... .. . ... : ... .. . ... : ... .. . ... : ... .. . ... : ... .. . ... : ... .. . ... : ... .. . ...
ROW 18 : C-2 0D . ... : D#2 0D . ... : ... .. . ... : 4-# 03 . ... : ... .. . ... : ... .. 3 ... : ... .. 3 ... : ... .. . ...
ROW 19 : ... .. . ... : D#2 0D . ... : ... .. . ... : ... .. . ... : ... .. . ... : ... .. . ... : ... .. . ... : ... .. . ...
ROW 1A : C-2 0D . ... : D#2 0D . ... : ... .. . ... : ... .. . ... : ... .. . ... : ... .. 2 ... : ... .. 2 ... : ... .. . ...
ROW 1B : C-2 0D . ... : ... .. . ... : ... .. . ... : ... .. . ... : ... .. . ... : ... .. . ... : ... .. . ... : ... .. . ...
ROW 1C : C-2 0D . ... : D#2 0D . ... : ... .. . ... : ... .. . ... : ... .. . ... : ... .. 1 ... : ... .. 1 ... : ... .. . ...
ROW 1D : ... .. . ... : D#2 0D . ... : ... .. . ... : ... .. . ... : ... .. . ... : ... .. . ... : ... .. . ... : ... .. . ...
ROW 1E : C-2 0D . ... : D#2 0D . ... : ... .. . ... : ... .. . ... : ... .. . ... : ... .. 0 ... : ... .. 0 ... : ... .. . ...
ROW 1F : C-2 0D . ... : ... .. . ... : ... .. . ... : ... .. . ... : ... .. . ... : ... .. . ... : ... .. . ... : ... .. . ...
ROW 20 : F#2 0D . ... : D#2 0D . ... : ... .. . ... : ... .. . ... : ... .. . ... : ... .. . ... : ... .. . ... : D-2 01 . ...
ROW 21 : ... .. . ... : A#1 0D . ... : ... .. . ... : ... .. . ... : ... .. . ... : ... .. . ... : ... .. . ... : ... .. . ...
ROW 22 : F#2 0D . ... : A#1 0D . ... : ... .. . ... : ... .. . ... : C-3 00 . ... : ... .. . ... : ... .. . ... : ... .. . ...
ROW 23 : F#2 0D . ... : ... .. . ... : ... .. . ... : ... .. . ... : ... .. . ... : ... .. . ... : ... .. . ... : ... .. . ...
ROW 24 : F#2 0D . ... : A#1 0D . ... : ... .. . ... : ... .. . ... : ... .. . ... : ... .. . ... : ... .. . ... : ... .. . ...
ROW 25 : ... .. . ... : A#1 0D . ... : ... .. . ... : ... .. . ... : ... .. . ... : ... .. . ... : ... .. . ... : ... .. . ...
ROW 26 : F#2 0D . ... : A#1 0D . ... : ... .. . ... : ... .. . ... : ... .. . ... : ... .. . ... : ... .. . ... : ... .. . ...
ROW 27 : F#2 0D . ... : ... .. . ... : ... .. . ... : ... .. . ... : ... .. . ... : ... .. . ... : ... .. . ... : ... .. . ...
ROW 28 : F#2 0D . ... : A#1 0D . ... : ... .. . ... : 4-# 03 . ... : ... .. . ... : ... .. . ... : ... .. . ... : ... .. . ...
ROW 29 : ... .. . ... : A#1 0D . ... : ... .. . ... : ... .. . ... : ... .. . ... : ... .. . ... : ... .. . ... : ... .. . ...
ROW 2A : F#2 0D . ... : A#1 0D . ... : ... .. . ... : ... .. . ... : ... .. . ... : ... .. . ... : ... .. . ... : ... .. . ...
ROW 2B : F#2 0D . ... : ... .. . ... : ... .. . ... : ... .. . ... : ... .. . ... : ... .. . ... : ... .. . ... : ... .. . ...
ROW 2C : F#2 0D . ... : A#1 0D . ... : ... .. . ... : ... .. . ... : ... .. . ... : ... .. . ... : ... .. . ... : ... .. . ...
ROW 2D : ... .. . ... : A#1 0D . ... : ... .. . ... : ... .. . ... : ... .. . ... : ... .. . ... : ... .. . ... : ... .. . ...
ROW 2E : F#2 0D . ... : A#1 0D . ... : ... .. . ... : ... .. . ... : ... .. . ... : ... .. . ... : ... .. . ... : ... .. . ...
ROW 2F : F#2 0D . ... : ... .. . ... : ... .. . ... : ... .. . ... : ... .. . ... : ... .. . ... : ... .. . ... : ... .. . ...
ROW 30 : F#2 0D . ... : A#1 0D . ... : ... .. . ... : ... .. . ... : ... .. . ... : ... .. . ... : ... .. . ... : ... .. . ...
ROW 31 : ... .. . ... : A#1 0D . ... : ... .. . ... : ... .. . ... : ... .. . ... : ... .. . ... : ... .. . ... : ... .. . ...
ROW 32 : F#2 0D . ... : A#1 0D . ... : ... .. . ... : ... .. . ... : C-3 00 . ... : ... .. . ... : ... .. . ... : ... .. . ...
ROW 33 : F#2 0D . ... : ... .. . ... : ... .. . ... : ... .. . ... : ... .. . ... : ... .. . ... : ... .. . ... : ... .. . ...
ROW 34 : F#2 0D . ... : A#1 0D . ... : ... .. . ... : ... .. . ... : ... .. . ... : ... .. . ... : ... .. . ... : ... .. . ...
ROW 35 : ... .. . ... : A#1 0D . ... : ... .. . ... : ... .. . ... : ... .. . ... : ... .. . ... : ... .. . ... : ... .. . ...
ROW 36 : F#2 0D . ... : A#1 0D . ... : ... .. . ... : ... .. . ... : ... .. . ... : ... .. . ... : ... .. . ... : ... .. . ...
ROW 37 : F#2 0D . ... : ... .. . ... : ... .. . ... : ... .. . ... : ... .. . ... : ... .. . ... : ... .. . ... : ... .. . ...
ROW 38 : F#2 0D . ... : A#1 0D . ... : ... .. . ... : 4-# 03 . ... : ... .. . ... : ... .. . ... : ... .. . ... : ... .. . ...
ROW 39 : ... .. . ... : A#1 0D . ... : ... .. . ... : ... .. . ... : ... .. . ... : ... .. . ... : ... .. . ... : ... .. . ...
ROW 3A : F#2 0D . ... : A#1 0D . ... : ... .. . ... : ... .. . ... : ... .. . ... : ... .. . ... : ... .. . ... : ... .. . ...
ROW 3B : F#2 0D . ... : ... .. . ... : ... .. . ... : ... .. . ... : ... .. . ... : ... .. . ... : ... .. . ... : ... .. . ...
ROW 3C : F#2 0D . ... : A#1 0D . ... : ... .. . ... : ... .. . ... : ... .. . ... : ... .. . ... : ... .. . ... : ... .. . ...
ROW 3D : ... .. . ... : A#1 0D . ... : ... .. . ... : ... .. . ... : ... .. . ... : ... .. . ... : ... .. . ... : ... .. . ...
ROW 3E : F#2 0D . ... : A#1 0D . ... : ... .. . ... : ... .. . ... : ... .. . ... : ... .. . ... : ... .. . ... : ... .. . ...
ROW 3F : F#2 0D . ... : ... .. . ... : ... .. . ... : ... .. . ... : ... .. . ... : ... .. . ... : ... .. . ... : ... .. . ...
ROW 40 : G-2 0D 7 ... : G-1 0D 7 ... : ... .. . ... : ... .. . ... : ... .. . ... : ... .. . ... : ... .. . ... : D#2 01 . ...
ROW 41 : ... .. . ... : G-1 0D . ... : ... .. . ... : ... .. . ... : ... .. . ... : ... .. . ... : ... .. . ... : ... .. . ...
ROW 42 : G-2 0D . ... : G-1 0D . ... : ... .. . ... : ... .. . ... : C-3 00 . ... : ... .. . ... : ... .. . ... : ... .. . ...
ROW 43 : G-2 0D . ... : ... .. . ... : ... .. . ... : ... .. . ... : ... .. . ... : ... .. . ... : ... .. . ... : ... .. . ...
ROW 44 : G-2 0D . ... : G-1 0D . ... : ... .. . ... : ... .. . ... : ... .. . ... : ... .. . ... : ... .. . ... : ... .. . ...
ROW 45 : ... .. . ... : G-1 0D . ... : ... .. . ... : ... .. . ... : ... .. . ... : ... .. . ... : ... .. . ... : ... .. . ...
ROW 46 : G-2 0D . ... : G-1 0D . ... : ... .. . ... : ... .. . ... : ... .. . ... : ... .. . ... : ... .. . ... : ... .. . ...
ROW 47 : G-2 0D . ... : ... .. . ... : ... .. . ... : ... .. . ... : ... .. . ... : ... .. . ... : ... .. . ... : ... .. . ...
ROW 48 : G-2 0D . ... : G-1 0D . ... : ... .. . ... : 5-# 03 . ... : ... .. . ... : ... .. . ... : ... .. . ... : ... .. . ...
ROW 49 : ... .. . ... : G-1 0D . ... : ... .. . ... : ... .. . ... : ... .. . ... : ... .. . ... : ... .. . ... : ... .. . ...
ROW 4A : G-2 0D . ... : G-1 0D . ... : ... .. . ... : ... .. . ... : ... .. . ... : ... .. . ... : ... .. . ... : ... .. . ...
ROW 4B : G-2 0D . ... : ... .. . ... : ... .. . ... : ... .. . ... : ... .. . ... : ... .. . ... : ... .. . ... : ... .. . ...
ROW 4C : G-2 0D . ... : G-1 0D . ... : ... .. . ... : ... .. . ... : ... .. . ... : ... .. . ... : ... .. . ... : ... .. . ...
ROW 4D : ... .. . ... : G-1 0D . ... : ... .. . ... : ... .. . ... : ... .. . ... : ... .. . ... : ... .. . ... : ... .. . ...
ROW 4E : G-2 0D . ... : G-1 0D . ... : ... .. . ... : ... .. . ... : ... .. . ... : ... .. . ... : ... .. . ... : ... .. . ...
ROW 4F : G-2 0D . ... : ... .. . ... : ... .. . ... : ... .. . ... : ... .. . ... : ... .. . ... : ... .. . ... : ... .. . ...
ROW 50 : G-2 0D . ... : G-1 0D . ... : ... .. . ... : ... .. . ... : ... .. . ... : ... .. . ... : ... .. . ... : ... .. . ...
ROW 51 : ... .. . ... : G-1 0D . ... : ... .. . ... : ... .. . ... : ... .. . ... : ... .. . ... : ... .. . ... : ... .. . ...
ROW 52 : G-2 0D . ... : G-1 0D . ... : ... .. . ... : ... .. . ... : C-3 00 . ... : ... .. . ... : ... .. . ... : ... .. . ...
ROW 53 : G-2 0D . ... : ... .. . ... : ... .. . ... : ... .. . ... : ... .. . ... : ... .. . ... : ... .. . ... : ... .. . ...
ROW 54 : G-2 0D . ... : G-1 0D . ... : ... .. . ... : ... .. . ... : ... .. . ... : ... .. . ... : ... .. . ... : ... .. . ...
ROW 55 : ... .. . ... : G-1 0D . ... : ... .. . ... : ... .. . ... : ... .. . ... : ... .. . ... : ... .. . ... : ... .. . ...
ROW 56 : G-2 0D . ... : G-1 0D . ... : ... .. . ... : ... .. . ... : ... .. . ... : ... .. . ... : ... .. . ... : ... .. . ...
ROW 57 : G-2 0D . ... : ... .. . ... : ... .. . ... : ... .. . ... : ... .. . ... : ... .. . ... : ... .. . ... : ... .. . ...
ROW 58 : G-2 0D . ... : G-1 0D . ... : ... .. . ... : 5-# 03 . ... : ... .. . ... : ... .. . ... : ... .. . ... : ... .. . ...
ROW 59 : ... .. . ... : G-1 0D . ... : ... .. . ... : ... .. . ... : ... .. . ... : ... .. . ... : ... .. . ... : ... .. . ...
ROW 5A : G-2 0D . ... : G-1 0D . ... : ... .. . ... : ... .. . ... : ... .. . ... : ... .. . ... : ... .. . ... : ... .. . ...
ROW 5B : G-2 0D . ... : ... .. . ... : ... .. . ... : ... .. . ... : ... .. . ... : ... .. . ... : ... .. . ... : ... .. . ...
ROW 5C : G-2 0D . ... : G-1 0D . ... : ... .. . ... : ... .. . ... : ... .. . ... : ... .. . ... : ... .. . ... : ... .. . ...
ROW 5D : ... .. . ... : G-1 0D . ... : ... .. . ... : ... .. . ... : ... .. . ... : ... .. . ... : ... .. . ... : ... .. . ...
ROW 5E : G-2 0D . ... : G-1 0D . ... : ... .. . ... : ... .. . ... : ... .. . ... : ... .. . ... : ... .. . ... : ... .. . ...
ROW 5F : G-2 0D . ... : ... .. . ... : ... .. . ... : ... .. . ... : ... .. . ... : ... .. . ... : ... .. . ... : ... .. . ...
ROW 60 : A-2 0D . ... : F-2 0D . ... : ... .. . ... : ... .. . ... : ... .. . ... : ... .. . ... : ... .. . ... : F-2 01 . ...
ROW 61 : ... .. . ... : F-2 0D . ... : ... .. . ... : ... .. . ... : ... .. . ... : ... .. . ... : ... .. . ... : ... .. . ...
ROW 62 : A-2 0D . ... : F-2 0D . ... : ... .. . ... : ... .. . ... : C-3 00 . ... : ... .. . ... : ... .. . ... : ... .. . ...
ROW 63 : A-2 0D . ... : ... .. . ... : ... .. . ... : ... .. . ... : ... .. . ... : ... .. . ... : ... .. . ... : ... .. . ...
ROW 64 : A-2 0D . ... : F-2 0D . ... : ... .. . ... : ... .. . ... : ... .. . ... : ... .. . ... : ... .. . ... : ... .. . ...
ROW 65 : ... .. . ... : F-2 0D . ... : ... .. . ... : ... .. . ... : ... .. . ... : ... .. . ... : ... .. . ... : ... .. . ...
ROW 66 : A-2 0D . ... : F-2 0D . ... : ... .. . ... : ... .. . ... : ... .. . ... : ... .. . ... : ... .. . ... : ... .. . ...
ROW 67 : A-2 0D . ... : ... .. . ... : ... .. . ... : ... .. . ... : ... .. . ... : ... .. . ... : ... .. . ... : ... .. . ...
ROW 68 : A-2 0D . ... : F-2 0D . ... : ... .. . ... : 5-# 03 . ... : ... .. . ... : ... .. . ... : ... .. . ... : ... .. . ...
ROW 69 : ... .. . ... : F-2 0D . ... : ... .. . ... : ... .. . ... : ... .. . ... : ... .. . ... : ... .. . ... : ... .. . ...
ROW 6A : A-2 0D . ... : F-2 0D . ... : ... .. . ... : ... .. . ... : ... .. . ... : ... .. . ... : ... .. . ... : ... .. . ...
ROW 6B : A-2 0D . ... : ... .. . ... : ... .. . ... : ... .. . ... : ... .. . ... : ... .. . ... : ... .. . ... : ... .. . ...
ROW 6C : A-2 0D . ... : F-2 0D . ... : ... .. . ... : ... .. . ... : ... .. . ... : ... .. . ... : ... .. . ... : ... .. . ...
ROW 6D : ... .. . ... : F-2 0D . ... : ... .. . ... : ... .. . ... : ... .. . ... : ... .. . ... : ... .. . ... : ... .. . ...
ROW 6E : A-2 0D . ... : F-2 0D . ... : ... .. . ... : ... .. . ... : ... .. . ... : ... .. . ... : ... .. . ... : ... .. . ...
ROW 6F : A-2 0D . ... : ... .. . ... : ... .. . ... : ... .. . ... : ... .. . ... : ... .. . ... : ... .. . ... : ... .. . ...
ROW 70 : A-2 0D . ... : F-2 0D . ... : ... .. . ... : ... .. . ... : ... .. . ... : ... .. . ... : ... .. . ... : ... .. . ...
ROW 71 : ... .. . ... : F-2 0D . ... : ... .. . ... : ... .. . ... : ... .. . ... : ... .. . ... : ... .. . ... : ... .. . ...
ROW 72 : A-2 0D . ... : F-2 0D . ... : ... .. . ... : ... .. . ... : C-3 00 . ... : ... .. . ... : ... .. . ... : ... .. . ...
ROW 73 : A-2 0D . ... : ... .. . ... : ... .. . ... : ... .. . ... : ... .. . ... : ... .. . ... : ... .. . ... : ... .. . ...
ROW 74 : A-2 0D . ... : F-2 0D . ... : ... .. . ... : ... .. . ... : ... .. . ... : ... .. . ... : ... .. . ... : ... .. . ...
ROW 75 : ... .. . ... : F-2 0D . ... : ... .. . ... : ... .. . ... : ... .. . ... : ... .. . ... : ... .. . ... : ... .. . ...
ROW 76 : A-2 0D . ... : F-2 0D . ... : ... .. . ... : ... .. . ... : ... .. . ... : ... .. . ... : ... .. . ... : ... .. . ...
ROW 77 : A-2 0D . ... : ... .. . ... : ... .. . ... : ... .. . ... : ... .. . ... : ... .. . ... : ... .. . ... : ... .. . ...
ROW 78 : A-2 0D . ... : F-2 0D . ... : ... .. . ... : 5-# 03 F ... : ... .. . ... : ... .. . ... : ... .. . ... : C-2 01 . ...
ROW 79 : ... .. . ... : F-2 0D . ... : ... .. . ... : ... .. . ... : ... .. . ... : ... .. . ... : ... .. . ... : ... .. . ...
ROW 7A : A-2 0D . ... : F-2 0D . ... : ... .. . ... : 4-# 03 7 ... : ... .. . ... : ... .. . ... : ... .. . ... : ... .. . ...
ROW 7B : A-2 0D . ... : ... .. . ... : ... .. . ... : ... .. . ... : ... .. . ... : ... .. . ... : ... .. . ... : ... .. . ...
ROW 7C : A-2 0D . ... : F-2 0D . ... : ... .. . ... : 4-# 03 A ... : ... .. . ... : ... .. . ... : ... .. . ... : ... .. . ...
ROW 7D : ... .. . ... : F-2 0D . ... : ... .. . ... : ... .. . ... : ... .. . ... : ... .. . ... : ... .. . ... : ... .. . ...
ROW 7E : A-2 0D . ... : F-2 0D . ... : ... .. . ... : 3-# 03 C ... : ... .. . ... : ... .. . ... : ... .. . ... : ... .. . ...
ROW 7F : A-2 0D . ... : ... .. . ... : ... .. . ... : ... .. . ... : ... .. . ... : ... .. . ... : ... .. . ... : ... .. . ...

PATTERN 0A
ROW 00 : C-2 0D 7 ... : D#2 0D 7 ... : C-2 00 . ... : 0-# 03 F ... : ... .. . ... : ... .. . ... : ... .. . ... : C-2 01 8 ...
ROW 01 : ... .. . ... : D#2 0D . ... : --- .. . ... : ... .. . ... : ... .. . ... : ... .. . ... : ... .. . ... : ... .. . ...
ROW 02 : C-2 0D . ... : D#2 0D . ... : C-2 00 . ... : 0-# 03 2 ... : C-3 00 . ... : ... .. . ... : ... .. . ... : ... .. . ...
ROW 03 : C-2 0D . ... : ... .. . ... : --- .. . ... : ... .. . ... : ... .. . ... : ... .. . ... : ... .. . ... : ... .. . ...
ROW 04 : C-2 0D . ... : D#2 0D . ... : C-2 00 . ... : 0-# 03 4 ... : ... .. . ... : ... .. . ... : ... .. . ... : ... .. . ...
ROW 05 : ... .. . ... : D#2 0D . ... : --- .. . ... : ... .. . ... : ... .. . ... : ... .. . ... : ... .. . ... : ... .. . ...
ROW 06 : C-2 0D . ... : D#2 0D . ... : C-2 00 . ... : 0-# 03 6 ... : ... .. . ... : ... .. . ... : ... .. . ... : ... .. . ...
ROW 07 : C-2 0D . ... : ... .. . ... : --- .. . ... : ... .. . ... : ... .. . ... : ... .. . ... : ... .. . ... : ... .. . ...
ROW 08 : C-2 0D . ... : D#2 0D . ... : C-2 00 . ... : 4-# 03 F ... : ... .. . ... : ... .. . ... : ... .. . ... : ... .. . ...
ROW 09 : ... .. . ... : D#2 0D . ... : --- .. . ... : ... .. . ... : ... .. . ... : ... .. . ... : ... .. . ... : ... .. . ...
ROW 0A : C-2 0D . ... : D#2 0D . ... : C-2 00 . ... : ... .. . ... : ... .. . ... : ... .. . ... : ... .. . ... : ... .. . ...
ROW 0B : C-2 0D . ... : ... .. . ... : --- .. . ... : ... .. . ... : ... .. . ... : ... .. . ... : ... .. . ... : ... .. . ...
ROW 0C : C-2 0D . ... : D#2 0D . ... : C-2 00 . ... : ... .. . ... : ... .. . ... : ... .. . ... : ... .. . ... : ... .. . ...
ROW 0D : ... .. . ... : D#2 0D . ... : --- .. . ... : ... .. . ... : ... .. . ... : ... .. . ... : ... .. . ... : ... .. . ...
ROW 0E : C-2 0D . ... : D#2 0D . ... : C-2 00 . ... : ... .. . ... : ... .. . ... : ... .. . ... : ... .. . ... : ... .. . ...
ROW 0F : C-2 0D . ... : ... .. . ... : --- .. . ... : ... .. . ... : ... .. . ... : ... .. . ... : ... .. . ... : ... .. . ...
ROW 10 : C-2 0D . ... : D#2 0D . ... : C-2 00 . ... : ... .. . ... : ... .. . ... : C-3 01 4 ... : D#3 01 4 ... : ... .. . ...
ROW 11 : ... .. . ... : D#2 0D . ... : --- .. . ... : ... .. . ... : ... .. . ... : ... .. 8 ... : ... .. 8 ... : ... .. . ...
ROW 12 : C-2 0D . ... : D#2 0D . ... : C-2 00 . ... : ... .. . ... : C-3 00 . ... : ... .. . ... : ... .. . ... : ... .. . ...
ROW 13 : C-2 0D . ... : ... .. . ... : --- .. . ... : ... .. . ... : ... .. . ... : ... .. . ... : ... .. . ... : ... .. . ...
ROW 14 : C-2 0D . ... : D#2 0D . ... : C-2 00 . ... : ... .. . ... : ... .. . ... : ... .. . ... : ... .. . ... : ... .. . ...
ROW 15 : ... .. . ... : D#2 0D . ... : --- .. . ... : ... .. . ... : ... .. . ... : ... .. . ... : ... .. . ... : ... .. . ...
ROW 16 : C-2 0D . ... : D#2 0D . ... : C-2 00 . ... : ... .. . ... : ... .. . ... : ... .. . ... : ... .. . ... : ... .. . ...
ROW 17 : C-2 0D . ... : ... .. . ... : --- .. . ... : ... .. . ... : ... .. . ... : ... .. . ... : ... .. . ... : ... .. . ...
ROW 18 : C-2 0D . ... : D#2 0D . ... : C-2 00 . ... : 4-# 03 . ... : ... .. . ... : ... .. . ... : ... .. . ... : ... .. . ...
ROW 19 : ... .. . ... : D#2 0D . ... : --- .. . ... : ... .. . ... : ... .. . ... : ... .. . ... : ... .. . ... : ... .. . ...
ROW 1A : C-2 0D . ... : D#2 0D . ... : C-2 00 . ... : ... .. . ... : ... .. . ... : ... .. . ... : ... .. . ... : ... .. . ...
ROW 1B : C-2 0D . ... : ... .. . ... : --- .. . ... : ... .. . ... : ... .. . ... : ... .. . ... : ... .. . ... : ... .. . ...
ROW 1C : C-2 0D . ... : D#2 0D . ... : C-2 00 . ... : ... .. . ... : ... .. . ... : ... .. 6 ... : ... .. 6 ... : ... .. . ...
ROW 1D : ... .. . ... : D#2 0D . ... : --- .. . ... : ... .. . ... : ... .. . ... : ... .. 4 ... : ... .. 4 ... : ... .. . ...
ROW 1E : C-2 0D . ... : D#2 0D . ... : C-2 00 . ... : ... .. . ... : ... .. . ... : ... .. 2 ... : ... .. 2 ... : ... .. . ...
ROW 1F : C-2 0D . ... : ... .. . ... : --- .. . ... : ... .. . ... : ... .. . ... : ... .. 1 ... : ... .. 1 ... : ... .. . ...
ROW 20 : F#2 0D . ... : D#2 0D . ... : A#1 00 . ... : ... .. . ... : ... .. . ... : C#3 01 4 ... : F#3 01 4 ... : ... .. . ...
ROW 21 : ... .. . ... : A#1 0D . ... : --- .. . ... : ... .. . ... : ... .. . ... : ... .. 8 ... : ... .. 8 ... : ... .. . ...
ROW 22 : F#2 0D . ... : A#1 0D . ... : A#1 00 . ... : ... .. . ... : C-3 00 . ... : ... .. . ... : ... .. . ... : ... .. . ...
ROW 23 : F#2 0D . ... : ... .. . ... : --- .. . ... : ... .. . ... : ... .. . ... : ... .. . ... : ... .. . ... : ... .. . ...
ROW 24 : F#2 0D . ... : A#1 0D . ... : A#1 00 . ... : ... .. . ... : ... .. . ... : ... .. . ... : ... .. . ... : ... .. . ...
ROW 25 : ... .. . ... : A#1 0D . ... : --- .. . ... : ... .. . ... : ... .. . ... : ... .. . ... : ... .. . ... : ... .. . ...
ROW 26 : F#2 0D . ... : A#1 0D . ... : A#1 00 . ... : ... .. . ... : ... .. . ... : ... .. . ... : ... .. . ... : ... .. . ...
ROW 27 : F#2 0D . ... : ... .. . ... : --- .. . ... : ... .. . ... : ... .. . ... : ... .. . ... : ... .. . ... : ... .. . ...
ROW 28 : F#2 0D . ... : A#1 0D . ... : A#1 00 . ... : 4-# 03 . ... : ... .. . ... : ... .. . ... : ... .. . ... : ... .. . ...
ROW 29 : ... .. . ... : A#1 0D . ... : --- .. . ... : ... .. . ... : ... .. . ... : ... .. . ... : ... .. . ... : ... .. . ...
ROW 2A : F#2 0D . ... : A#1 0D . ... : A#1 00 . ... : ... .. . ... : ... .. . ... : ... .. . ... : ... .. . ... : ... .. . ...
ROW 2B : F#2 0D . ... : ... .. . ... : --- .. . ... : ... .. . ... : ... .. . ... : ... .. . ... : ... .. . ... : ... .. . ...
ROW 2C : F#2 0D . ... : A#1 0D . ... : A#1 00 . ... : ... .. . ... : ... .. . ... : ... .. 6 ... : ... .. 6 ... : ... .. . ...
ROW 2D : ... .. . ... : A#1 0D . ... : --- .. . ... : ... .. . ... : ... .. . ... : ... .. 4 ... : ... .. 4 ... : ... .. . ...
ROW 2E : F#2 0D . ... : A#1 0D . ... : A#1 00 . ... : ... .. . ... : ... .. . ... : ... .. 2 ... : ... .. 2 ... : ... .. . ...
ROW 2F : F#2 0D . ... : ... .. . ... : --- .. . ... : ... .. . ... : ... .. . ... : ... .. 1 ... : ... .. 1 ... : ... .. . ...
ROW 30 : F#2 0D . ... : A#1 0D . ... : A#1 00 . ... : ... .. . ... : ... .. . ... : D#3 01 4 ... : F#3 01 4 ... : ... .. . ...
ROW 31 : ... .. . ... : A#1 0D . ... : --- .. . ... : ... .. . ... : ... .. . ... : ... .. 8 ... : ... .. 8 ... : ... .. . ...
ROW 32 : F#2 0D . ... : A#1 0D . ... : A#1 00 . ... : ... .. . ... : C-3 00 . ... : ... .. . ... : ... .. . ... : ... .. . ...
ROW 33 : F#2 0D . ... : ... .. . ... : --- .. . ... : ... .. . ... : ... .. . ... : ... .. . ... : ... .. . ... : ... .. . ...
ROW 34 : F#2 0D . ... : A#1 0D . ... : A#1 00 . ... : ... .. . ... : ... .. . ... : ... .. . ... : ... .. . ... : ... .. . ...
ROW 35 : ... .. . ... : A#1 0D . ... : --- .. . ... : ... .. . ... : ... .. . ... : ... .. . ... : ... .. . ... : ... .. . ...
ROW 36 : F#2 0D . ... : A#1 0D . ... : A#1 00 . ... : ... .. . ... : ... .. . ... : ... .. . ... : ... .. . ... : ... .. . ...
ROW 37 : F#2 0D . ... : ... .. . ... : --- .. . ... : ... .. . ... : ... .. . ... : ... .. . ... : ... .. . ... : ... .. . ...
ROW 38 : F#2 0D . ... : A#1 0D . ... : A#1 00 . ... : 4-# 03 . ... : ... .. . ... : ... .. . ... : ... .. . ... : ... .. . ...
ROW 39 : ... .. . ... : A#1 0D . ... : --- .. . ... : ... .. . ... : ... .. . ... : ... .. . ... : ... .. . ... : ... .. . ...
ROW 3A : F#2 0D . ... : A#1 0D . ... : A#1 00 . ... : ... .. . ... : ... .. . ... : ... .. . ... : ... .. . ... : ... .. . ...
ROW 3B : F#2 0D . ... : ... .. . ... : --- .. . ... : ... .. . ... : ... .. . ... : ... .. . ... : ... .. . ... : ... .. . ...
ROW 3C : F#2 0D . ... : A#1 0D . ... : A#1 00 . ... : ... .. . ... : ... .. . ... : ... .. 6 ... : ... .. 6 ... : ... .. . ...
ROW 3D : ... .. . ... : A#1 0D . ... : --- .. . ... : ... .. . ... : ... .. . ... : ... .. 4 ... : ... .. 4 ... : ... .. . ...
ROW 3E : F#2 0D . ... : A#1 0D . ... : A#1 00 . ... : ... .. . ... : ... .. . ... : ... .. 2 ... : ... .. 2 ... : ... .. . ...
ROW 3F : F#2 0D . ... : ... .. . ... : --- .. . ... : ... .. . ... : ... .. . ... : ... .. 1 ... : ... .. 1 ... : ... .. . ...
ROW 40 : G-2 0D 7 ... : G-1 0D 7 ... : C-2 00 . ... : ... .. . ... : ... .. . ... : C#3 01 4 ... : G-3 01 4 ... : ... .. . ...
ROW 41 : ... .. . ... : G-1 0D . ... : --- .. . ... : ... .. . ... : ... .. . ... : ... .. 8 ... : ... .. 8 ... : ... .. . ...
ROW 42 : G-2 0D . ... : G-1 0D . ... : C-2 00 . ... : ... .. . ... : C-3 00 . ... : ... .. . ... : ... .. . ... : ... .. . ...
ROW 43 : G-2 0D . ... : ... .. . ... : --- .. . ... : ... .. . ... : ... .. . ... : ... .. . ... : ... .. . ... : ... .. . ...
ROW 44 : G-2 0D . ... : G-1 0D . ... : C-2 00 . ... : ... .. . ... : ... .. . ... : ... .. . ... : ... .. . ... : ... .. . ...
ROW 45 : ... .. . ... : G-1 0D . ... : --- .. . ... : ... .. . ... : ... .. . ... : ... .. . ... : ... .. . ... : ... .. . ...
ROW 46 : G-2 0D . ... : G-1 0D . ... : C-2 00 . ... : ... .. . ... : ... .. . ... : ... .. . ... : ... .. . ... : ... .. . ...
ROW 47 : G-2 0D . ... : ... .. . ... : --- .. . ... : ... .. . ... : ... .. . ... : ... .. . ... : ... .. . ... : ... .. . ...
ROW 48 : G-2 0D . ... : G-1 0D . ... : C-2 00 . ... : 5-# 03 . ... : ... .. . ... : ... .. . ... : ... .. . ... : ... .. . ...
ROW 49 : ... .. . ... : G-1 0D . ... : --- .. . ... : ... .. . ... : ... .. . ... : ... .. . ... : ... .. . ... : ... .. . ...
ROW 4A : G-2 0D . ... : G-1 0D . ... : C-2 00 . ... : ... .. . ... : ... .. . ... : ... .. . ... : ... .. . ... : ... .. . ...
ROW 4B : G-2 0D . ... : ... .. . ... : --- .. . ... : ... .. . ... : ... .. . ... : ... .. . ... : ... .. . ... : ... .. . ...
ROW 4C : G-2 0D . ... : G-1 0D . ... : C-2 00 . ... : ... .. . ... : ... .. . ... : ... .. . ... : ... .. . ... : ... .. . ...
ROW 4D : ... .. . ... : G-1 0D . ... : --- .. . ... : ... .. . ... : ... .. . ... : ... .. . ... : ... .. . ... : ... .. . ...
ROW 4E : G-2 0D . ... : G-1 0D . ... : C-2 00 . ... : ... .. . ... : ... .. . ... : ... .. . ... : ... .. . ... : ... .. . ...
ROW 4F : G-2 0D . ... : ... .. . ... : --- .. . ... : ... .. . ... : ... .. . ... : ... .. . ... : ... .. . ... : ... .. . ...
ROW 50 : G-2 0D . ... : G-1 0D . ... : C-2 00 . ... : ... .. . ... : ... .. . ... : ... .. . ... : ... .. . ... : ... .. . ...
ROW 51 : ... .. . ... : G-1 0D . ... : --- .. . ... : ... .. . ... : ... .. . ... : ... .. . ... : ... .. . ... : ... .. . ...
ROW 52 : G-2 0D . ... : G-1 0D . ... : C-2 00 . ... : ... .. . ... : C-3 00 . ... : ... .. . ... : ... .. . ... : ... .. . ...
ROW 53 : G-2 0D . ... : ... .. . ... : --- .. . ... : ... .. . ... : ... .. . ... : ... .. . ... : ... .. . ... : ... .. . ...
ROW 54 : G-2 0D . ... : G-1 0D . ... : C-2 00 . ... : ... .. . ... : ... .. . ... : ... .. . ... : ... .. . ... : ... .. . ...
ROW 55 : ... .. . ... : G-1 0D . ... : --- .. . ... : ... .. . ... : ... .. . ... : ... .. . ... : ... .. . ... : ... .. . ...
ROW 56 : G-2 0D . ... : G-1 0D . ... : C-2 00 . ... : ... .. . ... : ... .. . ... : ... .. . ... : ... .. . ... : ... .. . ...
ROW 57 : G-2 0D . ... : ... .. . ... : --- .. . ... : ... .. . ... : ... .. . ... : ... .. . ... : ... .. . ... : ... .. . ...
ROW 58 : G-2 0D . ... : G-1 0D . ... : C-2 00 . ... : 5-# 03 . ... : ... .. . ... : ... .. . ... : ... .. . ... : ... .. . ...
ROW 59 : ... .. . ... : G-1 0D . ... : --- .. . ... : ... .. . ... : ... .. . ... : ... .. . ... : ... .. . ... : ... .. . ...
ROW 5A : G-2 0D . ... : G-1 0D . ... : C-2 00 . ... : ... .. . ... : ... .. . ... : ... .. . ... : ... .. . ... : ... .. . ...
ROW 5B : G-2 0D . ... : ... .. . ... : --- .. . ... : ... .. . ... : ... .. . ... : ... .. . ... : ... .. . ... : ... .. . ...
ROW 5C : G-2 0D . ... : G-1 0D . ... : C-2 00 . ... : ... .. . ... : ... .. . ... : ... .. 6 ... : ... .. 6 ... : ... .. . ...
ROW 5D : ... .. . ... : G-1 0D . ... : --- .. . ... : ... .. . ... : ... .. . ... : ... .. 4 ... : ... .. 4 ... : ... .. . ...
ROW 5E : G-2 0D . ... : G-1 0D . ... : C-2 00 . ... : ... .. . ... : ... .. . ... : ... .. 2 ... : ... .. 2 ... : ... .. . ...
ROW 5F : G-2 0D . ... : ... .. . ... : --- .. . ... : ... .. . ... : ... .. . ... : ... .. 1 ... : ... .. 1 ... : ... .. . ...
ROW 60 : A-2 0D . ... : F-2 0D . ... : F-2 00 . ... : ... .. . ... : ... .. . ... : F-3 01 4 ... : A-3 01 4 ... : ... .. . ...
ROW 61 : ... .. . ... : F-2 0D . ... : --- .. . ... : ... .. . ... : ... .. . ... : ... .. 8 ... : ... .. 8 ... : ... .. . ...
ROW 62 : A-2 0D . ... : F-2 0D . ... : F-2 00 . ... : ... .. . ... : C-3 00 . ... : ... .. . ... : ... .. . ... : ... .. . ...
ROW 63 : A-2 0D . ... : ... .. . ... : --- .. . ... : ... .. . ... : ... .. . ... : ... .. . ... : ... .. . ... : ... .. . ...
ROW 64 : A-2 0D . ... : F-2 0D . ... : F-2 00 . ... : ... .. . ... : ... .. . ... : ... .. . ... : ... .. . ... : ... .. . ...
ROW 65 : ... .. . ... : F-2 0D . ... : --- .. . ... : ... .. . ... : ... .. . ... : ... .. . ... : ... .. . ... : ... .. . ...
ROW 66 : A-2 0D . ... : F-2 0D . ... : F-2 00 . ... : ... .. . ... : ... .. . ... : ... .. . ... : ... .. . ... : ... .. . ...
ROW 67 : A-2 0D . ... : ... .. . ... : --- .. . ... : ... .. . ... : ... .. . ... : ... .. . ... : ... .. . ... : ... .. . ...
ROW 68 : A-2 0D . ... : F-2 0D . ... : F-2 00 . ... : 5-# 03 . ... : ... .. . ... : ... .. . ... : ... .. . ... : ... .. . ...
ROW 69 : ... .. . ... : F-2 0D . ... : --- .. . ... : ... .. . ... : ... .. . ... : ... .. . ... : ... .. . ... : ... .. . ...
ROW 6A : A-2 0D . ... : F-2 0D . ... : F-2 00 . ... : ... .. . ... : ... .. . ... : ... .. . ... : ... .. . ... : ... .. . ...
ROW 6B : A-2 0D . ... : ... .. . ... : --- .. . ... : ... .. . ... : ... .. . ... : ... .. . ... : ... .. . ... : ... .. . ...
ROW 6C : A-2 0D . ... : F-2 0D . ... : F-2 00 . ... : ... .. . ... : ... .. . ... : ... .. 6 ... : ... .. 6 ... : ... .. . ...
ROW 6D : ... .. . ... : F-2 0D . ... : --- .. . ... : ... .. . ... : ... .. . ... : ... .. 4 ... : ... .. 4 ... : ... .. . ...
ROW 6E : A-2 0D . ... : F-2 0D . ... : F-2 00 . ... : ... .. . ... : ... .. . ... : ... .. 2 ... : ... .. 2 ... : ... .. . ...
ROW 6F : A-2 0D . ... : ... .. . ... : --- .. . ... : ... .. . ... : ... .. . ... : ... .. 1 ... : ... .. 1 ... : ... .. . ...
ROW 70 : B-2 0D . ... : G-2 0D . ... : F-2 00 . ... : 1-# 03 3 ... : ... .. . ... : G-4 0A 4 ... : B-4 01 4 ... : C-2 01 8 213
ROW 71 : ... .. . ... : G-2 0D . ... : --- .. . ... : ... .. . ... : ... .. . ... : ... .. 4 ... : ... .. 4 ... : ... .. . ...
ROW 72 : B-2 0D . ... : G-2 0D . ... : F-2 00 . ... : 1-# 03 5 ... : C-3 00 . ... : ... .. 5 ... : ... .. 5 ... : ... .. . ...
ROW 73 : B-2 0D . ... : ... .. . ... : --- .. . ... : ... .. . ... : ... .. . ... : ... .. 6 ... : ... .. 6 ... : ... .. . ...
ROW 74 : B-2 0D . ... : G-2 0D . ... : F-2 00 . ... : 1-# 03 7 ... : ... .. . ... : ... .. 6 ... : ... .. 6 ... : ... .. . ...
ROW 75 : ... .. . ... : G-2 0D . ... : --- .. . ... : ... .. . ... : ... .. . ... : ... .. 7 ... : ... .. 7 ... : ... .. . ...
ROW 76 : B-2 0D . ... : G-2 0D . ... : F-2 00 . ... : 1-# 03 9 ... : ... .. . ... : ... .. 8 ... : ... .. 8 ... : ... .. . ...
ROW 77 : B-2 0D . ... : ... .. . ... : --- .. . ... : ... .. . ... : ... .. . ... : ... .. 9 ... : ... .. 9 ... : ... .. . ...
ROW 78 : B-2 0D . ... : G-2 0D . ... : F-2 00 . ... : 5-# 03 F ... : ... .. . ... : ... .. 9 ... : ... .. 9 ... : ... .. . ...
ROW 79 : ... .. . ... : G-2 0D . ... : --- .. . ... : ... .. . ... : ... .. . ... : ... .. A ... : ... .. A ... : ... .. . ...
ROW 7A : B-2 0D . ... : G-2 0D . ... : F-2 00 . ... : 1-# 03 A ... : ... .. . ... : ... .. B ... : ... .. B ... : ... .. . ...
ROW 7B : B-2 0D . ... : ... .. . ... : --- .. . ... : ... .. . ... : ... .. . ... : ... .. C ... : ... .. B ... : ... .. . ...
ROW 7C : B-2 0D . ... : G-2 0D . ... : F-2 00 . ... : 1-# 03 C ... : ... .. . ... : ... .. C ... : ... .. C ... : ... .. . ...
ROW 7D : ... .. . ... : G-2 0D . ... : --- .. . ... : ... .. . ... : ... .. . ... : ... .. D ... : ... .. D ... : ... .. . ...
ROW 7E : B-2 0D . ... : G-2 0D . ... : F-2 00 . ... : 1-# 03 F ... : ... .. . ... : ... .. E ... : ... .. E ... : ... .. . ...
ROW 7F : B-2 0D . ... : ... .. . ... : --- .. . ... : ... .. . ... : ... .. . ... : ... .. F ... : ... .. F ... : ... .. . 200

PATTERN 0B
ROW 00 : C-2 0D 7 ... : D#2 0D 7 ... : ... .. . ... : 0-# 03 F ... : ... .. . ... : --- .. . ... : --- .. . ... : C-2 01 8 ...
ROW 01 : ... .. . ... : D#2 0D . ... : ... .. . ... : ... .. . ... : ... .. . ... : ... .. . ... : ... .. . ... : ... .. . ...
ROW 02 : C-2 0D . ... : D#2 0D . ... : ... .. . ... : 0-# 03 2 ... : C-3 00 . ... : ... .. . ... : ... .. . ... : ... .. . ...
ROW 03 : C-2 0D . ... : ... .. . ... : ... .. . ... : ... .. . ... : ... .. . ... : ... .. . ... : ... .. . ... : ... .. . ...
ROW 04 : C-2 0D . ... : D#2 0D . ... : ... .. . ... : 0-# 03 4 ... : ... .. . ... : ... .. . ... : ... .. . ... : ... .. . ...
ROW 05 : ... .. . ... : D#2 0D . ... : ... .. . ... : ... .. . ... : ... .. . ... : ... .. . ... : ... .. . ... : ... .. . ...
ROW 06 : C-2 0D . ... : D#2 0D . ... : ... .. . ... : 0-# 03 6 ... : ... .. . ... : ... .. . ... : ... .. . ... : ... .. . ...
ROW 07 : C-2 0D . ... : ... .. . ... : ... .. . ... : ... .. . ... : ... .. . ... : ... .. . ... : ... .. . ... : ... .. . ...
ROW 08 : C-2 0D . ... : D#2 0D . ... : ... .. . ... : 4-# 03 F ... : ... .. . ... : ... .. . ... : ... .. . ... : ... .. . ...
ROW 09 : ... .. . ... : D#2 0D . ... : ... .. . ... : ... .. . ... : ... .. . ... : ... .. . ... : ... .. . ... : ... .. . ...
ROW 0A : C-2 0D . ... : D#2 0D . ... : ... .. . ... : ... .. . ... : ... .. . ... : ... .. . ... : ... .. . ... : ... .. . ...
ROW 0B : C-2 0D . ... : ... .. . ... : ... .. . ... : ... .. . ... : ... .. . ... : ... .. . ... : ... .. . ... : ... .. . ...
ROW 0C : C-2 0D . ... : D#2 0D . ... : ... .. . ... : ... .. . ... : ... .. . ... : ... .. . ... : ... .. . ... : ... .. . ...
ROW 0D : ... .. . ... : D#2 0D . ... : ... .. . ... : ... .. . ... : ... .. . ... : ... .. . ... : ... .. . ... : ... .. . ...
ROW 0E : C-2 0D . ... : D#2 0D . ... : ... .. . ... : ... .. . ... : ... .. . ... : ... .. . ... : ... .. . ... : ... .. . ...
ROW 0F : C-2 0D . ... : ... .. . ... : ... .. . ... : ... .. . ... : ... .. . ... : ... .. . ... : ... .. . ... : ... .. . ...
ROW 10 : C-2 0D . ... : D#2 0D . ... : ... .. . ... : ... .. . ... : ... .. . ... : ... .. . ... : ... .. . ... : ... .. . ...
ROW 11 : ... .. . ... : D#2 0D . ... : ... .. . ... : ... .. . ... : ... .. . ... : ... .. . ... : ... .. . ... : ... .. . ...
ROW 12 : C-2 0D . ... : D#2 0D . ... : ... .. . ... : ... .. . ... : C-3 00 . ... : ... .. . ... : ... .. . ... : ... .. . ...
ROW 13 : C-2 0D . ... : ... .. . ... : ... .. . ... : ... .. . ... : ... .. . ... : ... .. . ... : ... .. . ... : ... .. . ...
ROW 14 : C-2 0D . ... : D#2 0D . ... : ... .. . ... : ... .. . ... : ... .. . ... : ... .. . ... : ... .. . ... : ... .. . ...
ROW 15 : ... .. . ... : D#2 0D . ... : ... .. . ... : ... .. . ... : ... .. . ... : ... .. . ... : ... .. . ... : ... .. . ...
ROW 16 : C-2 0D . ... : D#2 0D . ... : ... .. . ... : ... .. . ... : ... .. . ... : ... .. . ... : ... .. . ... : ... .. . ...
ROW 17 : C-2 0D . ... : ... .. . ... : ... .. . ... : ... .. . ... : ... .. . ... : ... .. . ... : ... .. . ... : ... .. . ...
ROW 18 : C-2 0D . ... : D#2 0D . ... : ... .. . ... : 4-# 03 . ... : ... .. . ... : ... .. . ... : ... .. . ... : ... .. . ...
ROW 19 : ... .. . ... : D#2 0D . ... : ... .. . ... : ... .. . ... : ... .. . ... : ... .. . ... : ... .. . ... : ... .. . ...
ROW 1A : C-2 0D . ... : D#2 0D . ... : ... .. . ... : ... .. . ... : ... .. . ... : ... .. . ... : ... .. . ... : ... .. . ...
ROW 1B : C-2 0D . ... : ... .. . ... : ... .. . ... : ... .. . ... : ... .. . ... : ... .. . ... : ... .. . ... : ... .. . ...
ROW 1C : C-2 0D . ... : D#2 0D . ... : ... .. . ... : ... .. . ... : ... .. . ... : ... .. . ... : ... .. . ... : ... .. . ...
ROW 1D : ... .. . ... : D#2 0D . ... : ... .. . ... : ... .. . ... : ... .. . ... : ... .. . ... : ... .. . ... : ... .. . ...
ROW 1E : C-2 0D . ... : D#2 0D . ... : ... .. . ... : ... .. . ... : ... .. . ... : ... .. . ... : ... .. . ... : ... .. . ...
ROW 1F : C-2 0D . ... : ... .. . ... : ... .. . ... : ... .. . ... : ... .. . ... : ... .. . ... : ... .. . ... : ... .. . ...
ROW 20 : F#2 0D . ... : D#2 0D . ... : ... .. . ... : ... .. . ... : ... .. . ... : ... .. . ... : ... .. . ... : D-2 01 . ...
ROW 21 : ... .. . ... : A#1 0D . ... : ... .. . ... : ... .. . ... : ... .. . ... : ... .. . ... : ... .. . ... : ... .. . ...
ROW 22 : F#2 0D . ... : A#1 0D . ... : ... .. . ... : ... .. . ... : C-3 00 . ... : ... .. . ... : ... .. . ... : ... .. . ...
ROW 23 : F#2 0D . ... : ... .. . ... : ... .. . ... : ... .. . ... : ... .. . ... : ... .. . ... : ... .. . ... : ... .. . ...
ROW 24 : F#2 0D . ... : A#1 0D . ... : ... .. . ... : ... .. . ... : ... .. . ... : ... .. . ... : ... .. . ... : ... .. . ...
ROW 25 : ... .. . ... : A#1 0D . ... : ... .. . ... : ... .. . ... : ... .. . ... : ... .. . ... : ... .. . ... : ... .. . ...
ROW 26 : F#2 0D . ... : A#1 0D . ... : ... .. . ... : ... .. . ... : ... .. . ... : ... .. . ... : ... .. . ... : ... .. . ...
ROW 27 : F#2 0D . ... : ... .. . ... : ... .. . ... : ... .. . ... : ... .. . ... : ... .. . ... : ... .. . ... : ... .. . ...
ROW 28 : F#2 0D . ... : A#1 0D . ... : ... .. . ... : 4-# 03 . ... : ... .. . ... : ... .. . ... : ... .. . ... : ... .. . ...
ROW 29 : ... .. . ... : A#1 0D . ... : ... .. . ... : ... .. . ... : ... .. . ... : ... .. . ... : ... .. . ... : ... .. . ...
ROW 2A : F#2 0D . ... : A#1 0D . ... : ... .. . ... : ... .. . ... : ... .. . ... : ... .. . ... : ... .. . ... : ... .. . ...
ROW 2B : F#2 0D . ... : ... .. . ... : ... .. . ... : ... .. . ... : ... .. . ... : ... .. . ... : ... .. . ... : ... .. . ...
ROW 2C : F#2 0D . ... : A#1 0D . ... : ... .. . ... : ... .. . ... : ... .. . ... : ... .. . ... : ... .. . ... : ... .. . ...
ROW 2D : ... .. . ... : A#1 0D . ... : ... .. . ... : ... .. . ... : ... .. . ... : ... .. . ... : ... .. . ... : ... .. . ...
ROW 2E : F#2 0D . ... : A#1 0D . ... : ... .. . ... : ... .. . ... : ... .. . ... : ... .. . ... : ... .. . ... : ... .. . ...
ROW 2F : F#2 0D . ... : ... .. . ... : ... .. . ... : ... .. . ... : ... .. . ... : ... .. . ... : ... .. . ... : ... .. . ...
ROW 30 : F#2 0D . ... : A#1 0D . ... : ... .. . ... : ... .. . ... : ... .. . ... : ... .. . ... : ... .. . ... : ... .. . ...
ROW 31 : ... .. . ... : A#1 0D . ... : ... .. . ... : ... .. . ... : ... .. . ... : ... .. . ... : ... .. . ... : ... .. . ...
ROW 32 : F#2 0D . ... : A#1 0D . ... : ... .. . ... : ... .. . ... : C-3 00 . ... : ... .. . ... : ... .. . ... : ... .. . ...
ROW 33 : F#2 0D . ... : ... .. . ... : ... .. . ... : ... .. . ... : ... .. . ... : ... .. . ... : ... .. . ... : ... .. . ...
ROW 34 : F#2 0D . ... : A#1 0D . ... : ... .. . ... : ... .. . ... : ... .. . ... : ... .. . ... : ... .. . ... : ... .. . ...
ROW 35 : ... .. . ... : A#1 0D . ... : ... .. . ... : ... .. . ... : ... .. . ... : ... .. . ... : ... .. . ... : ... .. . ...
ROW 36 : F#2 0D . ... : A#1 0D . ... : ... .. . ... : ... .. . ... : ... .. . ... : ... .. . ... : ... .. . ... : ... .. . ...
ROW 37 : F#2 0D . ... : ... .. . ... : ... .. . ... : ... .. . ... : ... .. . ... : ... .. . ... : ... .. . ... : ... .. . ...
ROW 38 : F#2 0D . ... : A#1 0D . ... : ... .. . ... : 4-# 03 . ... : ... .. . ... : ... .. . ... : ... .. . ... : ... .. . ...
ROW 39 : ... .. . ... : A#1 0D . ... : ... .. . ... : ... .. . ... : ... .. . ... : ... .. . ... : ... .. . ... : ... .. . ...
ROW 3A : F#2 0D . ... : A#1 0D . ... : ... .. . ... : ... .. . ... : ... .. . ... : ... .. . ... : ... .. . ... : ... .. . ...
ROW 3B : F#2 0D . ... : ... .. . ... : ... .. . ... : ... .. . ... : ... .. . ... : ... .. . ... : ... .. . ... : ... .. . ...
ROW 3C : F#2 0D . ... : A#1 0D . ... : ... .. . ... : ... .. . ... : ... .. . ... : ... .. . ... : ... .. . ... : ... .. . ...
ROW 3D : ... .. . ... : A#1 0D . ... : ... .. . ... : ... .. . ... : ... .. . ... : ... .. . ... : ... .. . ... : ... .. . ...
ROW 3E : F#2 0D . ... : A#1 0D . ... : ... .. . ... : ... .. . ... : ... .. . ... : ... .. . ... : ... .. . ... : ... .. . ...
ROW 3F : F#2 0D . ... : ... .. . ... : ... .. . ... : ... .. . ... : ... .. . ... : ... .. . ... : ... .. . ... : ... .. . ...
ROW 40 : G-2 0D 7 ... : D#2 0D 7 ... : ... .. . ... : ... .. . ... : ... .. . ... : ... .. . ... : ... .. . ... : D#2 01 . ...
ROW 41 : ... .. . ... : D#2 0D . ... : ... .. . ... : ... .. . ... : ... .. . ... : ... .. . ... : ... .. . ... : ... .. . ...
ROW 42 : G-2 0D . ... : D#2 0D . ... : ... .. . ... : ... .. . ... : C-3 00 . ... : ... .. . ... : ... .. . ... : ... .. . ...
ROW 43 : G-2 0D . ... : ... .. . ... : ... .. . ... : ... .. . ... : ... .. . ... : ... .. . ... : ... .. . ... : ... .. . ...
ROW 44 : G-2 0D . ... : D#2 0D . ... : ... .. . ... : ... .. . ... : ... .. . ... : ... .. . ... : ... .. . ... : ... .. . ...
ROW 45 : ... .. . ... : D#2 0D . ... : ... .. . ... : ... .. . ... : ... .. . ... : ... .. . ... : ... .. . ... : ... .. . ...
ROW 46 : G-2 0D . ... : D#2 0D . ... : ... .. . ... : ... .. . ... : ... .. . ... : ... .. . ... : ... .. . ... : ... .. . ...
ROW 47 : G-2 0D . ... : ... .. . ... : ... .. . ... : ... .. . ... : ... .. . ... : ... .. . ... : ... .. . ... : ... .. . ...
ROW 48 : G-2 0D . ... : D#2 0D . ... : ... .. . ... : 5-# 03 . ... : ... .. . ... : ... .. . ... : ... .. . ... : ... .. . ...
ROW 49 : ... .. . ... : D#2 0D . ... : ... .. . ... : ... .. . ... : ... .. . ... : ... .. . ... : ... .. . ... : ... .. . ...
ROW 4A : G-2 0D . ... : D#2 0D . ... : ... .. . ... : ... .. . ... : ... .. . ... : ... .. . ... : ... .. . ... : ... .. . ...
ROW 4B : G-2 0D . ... : ... .. . ... : ... .. . ... : ... .. . ... : ... .. . ... : ... .. . ... : ... .. . ... : ... .. . ...
ROW 4C : G-2 0D . ... : D#2 0D . ... : ... .. . ... : ... .. . ... : ... .. . ... : ... .. . ... : ... .. . ... : ... .. . ...
ROW 4D : ... .. . ... : D#2 0D . ... : ... .. . ... : ... .. . ... : ... .. . ... : ... .. . ... : ... .. . ... : ... .. . ...
ROW 4E : G-2 0D . ... : D#2 0D . ... : ... .. . ... : ... .. . ... : ... .. . ... : ... .. . ... : ... .. . ... : ... .. . ...
ROW 4F : G-2 0D . ... : ... .. . ... : ... .. . ... : ... .. . ... : ... .. . ... : ... .. . ... : ... .. . ... : ... .. . ...
ROW 50 : G-2 0D . ... : D#2 0D . ... : ... .. . ... : ... .. . ... : ... .. . ... : ... .. . ... : ... .. . ... : C-2 01 . ...
ROW 51 : ... .. . ... : D#2 0D . ... : ... .. . ... : ... .. . ... : ... .. . ... : ... .. . ... : ... .. . ... : ... .. . ...
ROW 52 : G-2 0D . ... : D#2 0D . ... : ... .. . ... : ... .. . ... : C-3 00 . ... : ... .. . ... : ... .. . ... : ... .. . ...
ROW 53 : G-2 0D . ... : ... .. . ... : ... .. . ... : ... .. . ... : ... .. . ... : ... .. . ... : ... .. . ... : ... .. . ...
ROW 54 : G-2 0D . ... : D#2 0D . ... : ... .. . ... : ... .. . ... : ... .. . ... : ... .. . ... : ... .. . ... : ... .. . ...
ROW 55 : ... .. . ... : D#2 0D . ... : ... .. . ... : ... .. . ... : ... .. . ... : ... .. . ... : ... .. . ... : ... .. . ...
ROW 56 : G-2 0D . ... : D#2 0D . ... : ... .. . ... : ... .. . ... : ... .. . ... : ... .. . ... : ... .. . ... : ... .. . ...
ROW 57 : G-2 0D . ... : ... .. . ... : ... .. . ... : ... .. . ... : ... .. . ... : ... .. . ... : ... .. . ... : ... .. . ...
ROW 58 : G-2 0D . ... : D#2 0D . ... : ... .. . ... : 5-# 03 . ... : ... .. . ... : ... .. . ... : ... .. . ... : ... .. . ...
ROW 59 : ... .. . ... : D#2 0D . ... : ... .. . ... : ... .. . ... : ... .. . ... : ... .. . ... : ... .. . ... : ... .. . ...
ROW 5A : G-2 0D . ... : D#2 0D . ... : ... .. . ... : ... .. . ... : ... .. . ... : ... .. . ... : ... .. . ... : ... .. . ...
ROW 5B : G-2 0D . ... : ... .. . ... : ... .. . ... : ... .. . ... : ... .. . ... : ... .. . ... : ... .. . ... : ... .. . ...
ROW 5C : G-2 0D . ... : D#2 0D . ... : ... .. . ... : ... .. . ... : ... .. . ... : ... .. . ... : ... .. . ... : ... .. . ...
ROW 5D : ... .. . ... : D#2 0D . ... : ... .. . ... : ... .. . ... : ... .. . ... : ... .. . ... : ... .. . ... : ... .. . ...
ROW 5E : G-2 0D . ... : D#2 0D . ... : ... .. . ... : ... .. . ... : ... .. . ... : ... .. . ... : ... .. . ... : ... .. . ...
ROW 5F : G-2 0D . ... : ... .. . ... : ... .. . ... : ... .. . ... : ... .. . ... : ... .. . ... : ... .. . ... : ... .. . ...
ROW 60 : F-2 0D . ... : C-2 0D . ... : ... .. . ... : ... .. . ... : ... .. . ... : ... .. . ... : ... .. . ... : ... .. . ...
ROW 61 : ... .. . ... : C-2 0D . ... : ... .. . ... : ... .. . ... : ... .. . ... : ... .. . ... : ... .. . ... : ... .. . ...
ROW 62 : F-2 0D . ... : C-2 0D . ... : ... .. . ... : ... .. . ... : C-3 00 . ... : ... .. . ... : ... .. . ... : ... .. . ...
ROW 63 : F-2 0D . ... : ... .. . ... : ... .. . ... : ... .. . ... : ... .. . ... : ... .. . ... : ... .. . ... : ... .. . ...
ROW 64 : F-2 0D . ... : C-2 0D . ... : ... .. . ... : ... .. . ... : ... .. . ... : ... .. . ... : ... .. . ... : ... .. . ...
ROW 65 : ... .. . ... : C-2 0D . ... : ... .. . ... : ... .. . ... : ... .. . ... : ... .. . ... : ... .. . ... : ... .. . ...
ROW 66 : F-2 0D . ... : C-2 0D . ... : ... .. . ... : ... .. . ... : ... .. . ... : ... .. . ... : ... .. . ... : ... .. . ...
ROW 67 : F-2 0D . ... : ... .. . ... : ... .. . ... : ... .. . ... : ... .. . ... : ... .. . ... : ... .. . ... : ... .. . ...
ROW 68 : F-2 0D . ... : C-2 0D . ... : ... .. . ... : 5-# 03 . ... : ... .. . ... : ... .. . ... : ... .. . ... : ... .. . ...
ROW 69 : ... .. . ... : C-2 0D . ... : ... .. . ... : ... .. . ... : ... .. . ... : ... .. . ... : ... .. . ... : ... .. . ...
ROW 6A : F-2 0D . ... : C-2 0D . ... : ... .. . ... : ... .. . ... : ... .. . ... : ... .. . ... : ... .. . ... : ... .. . ...
ROW 6B : F-2 0D . ... : ... .. . ... : ... .. . ... : ... .. . ... : ... .. . ... : ... .. . ... : ... .. . ... : ... .. . ...
ROW 6C : F-2 0D . ... : C-2 0D . ... : ... .. . ... : ... .. . ... : ... .. . ... : ... .. . ... : ... .. . ... : ... .. . ...
ROW 6D : ... .. . ... : C-2 0D . ... : ... .. . ... : ... .. . ... : ... .. . ... : ... .. . ... : ... .. . ... : ... .. . ...
ROW 6E : F-2 0D . ... : C-2 0D . ... : ... .. . ... : ... .. . ... : ... .. . ... : ... .. . ... : ... .. . ... : ... .. . ...
ROW 6F : F-2 0D . ... : ... .. . ... : ... .. . ... : ... .. . ... : ... .. . ... : ... .. . ... : ... .. . ... : ... .. . ...
ROW 70 : F-2 0D . ... : C-2 0D . ... : ... .. . ... : ... .. . ... : ... .. . ... : ... .. . ... : ... .. . ... : C-2 01 8 213
ROW 71 : ... .. . ... : C-2 0D . ... : ... .. . ... : ... .. . ... : ... .. . ... : ... .. . ... : ... .. . ... : ... .. . ...
ROW 72 : F-2 0D . ... : C-2 0D . ... : ... .. . ... : ... .. . ... : C-3 00 . ... : ... .. . ... : ... .. . ... : ... .. . ...
ROW 73 : F-2 0D . ... : ... .. . ... : ... .. . ... : ... .. . ... : ... .. . ... : ... .. . ... : ... .. . ... : ... .. . ...
ROW 74 : F-2 0D . ... : C-2 0D . ... : ... .. . ... : ... .. . ... : ... .. . ... : ... .. . ... : ... .. . ... : ... .. . ...
ROW 75 : ... .. . ... : C-2 0D . ... : ... .. . ... : ... .. . ... : ... .. . ... : ... .. . ... : ... .. . ... : ... .. . ...
ROW 76 : F-2 0D . ... : C-2 0D . ... : ... .. . ... : ... .. . ... : ... .. . ... : ... .. . ... : ... .. . ... : ... .. . ...
ROW 77 : F-2 0D . ... : ... .. . ... : ... .. . ... : ... .. . ... : ... .. . ... : ... .. . ... : ... .. . ... : ... .. . ...
ROW 78 : F-2 0D . ... : C-2 0D . ... : ... .. . ... : 5-# 03 F ... : ... .. . ... : ... .. . ... : ... .. . ... : ... .. . ...
ROW 79 : ... .. . ... : C-2 0D . ... : ... .. . ... : ... .. . ... : ... .. . ... : ... .. . ... : ... .. . ... : ... .. . ...
ROW 7A : F-2 0D . ... : C-2 0D . ... : ... .. . ... : ... .. . ... : ... .. . ... : ... .. . ... : ... .. . ... : ... .. . ...
ROW 7B : F-2 0D . ... : ... .. . ... : ... .. . ... : ... .. . ... : ... .. . ... : ... .. . ... : ... .. . ... : ... .. . ...
ROW 7C : F-2 0D . ... : C-2 0D . ... : ... .. . ... : ... .. . ... : ... .. . ... : ... .. . ... : ... .. . ... : ... .. . ...
ROW 7D : ... .. . ... : C-2 0D . ... : ... .. . ... : ... .. . ... : ... .. . ... : ... .. . ... : ... .. . ... : ... .. . ...
ROW 7E : F-2 0D . ... : C-2 0D . ... : ... .. . ... : ... .. . ... : ... .. . ... : ... .. . ... : ... .. . ... : ... .. . ...
ROW 7F : F-2 0D . ... : ... .. . ... : ... .. . ... : ... .. . ... : ... .. . ... : ... .. . ... : ... .. . ... : ... .. . 200

TRACK 128   3 120 "Colossus"
COLUMNS : 1 1 1 1 1 1 1 1

ORDER 00 : 00 00 00 00 00 00 00 00
ORDER 01 : 01 01 01 01 01 01 01 01
ORDER 02 : 02 02 02 02 02 02 02 02
ORDER 03 : 03 03 03 03 03 03 03 03
ORDER 04 : 04 04 04 04 04 04 04 04
ORDER 05 : 05 05 05 05 05 05 05 05
ORDER 06 : 06 06 06 06 06 06 06 06
ORDER 07 : 07 07 07 07 07 07 07 07
ORDER 08 : 08 08 08 08 08 08 08 08
ORDER 09 : 09 09 09 09 09 09 09 09
ORDER 0A : 0A 0A 0A 0A 0A 0A 0A 0A
ORDER 0B : 05 05 05 05 05 05 05 05
ORDER 0C : 06 06 06 06 06 06 06 06
ORDER 0D : 0B 0B 0B 0B 0B 0B 0B 0B
ORDER 0E : 0C 0C 0C 0C 0C 0C 0C 0C
ORDER 0F : 0D 0D 0D 0D 0D 0D 0D 0D

PATTERN 00
ROW 00 : C-1 00 1 ... : --- .. . ... : --- .. . ... : --- .. . ... : --- .. . ... : C-3 0A 1 ... : E-3 0A 1 ... : G#3 01 1 ...
ROW 01 : ... .. . ... : ... .. . ... : ... .. . ... : ... .. . ... : ... .. . ... : ... .. 1 ... : ... .. 1 ... : ... .. 1 ...
ROW 02 : ... .. 2 ... : ... .. . ... : ... .. . ... : ... .. . ... : ... .. . ... : ... .. 2 ... : ... .. 2 ... : ... .. 2 ...
ROW 03 : ... .. . ... : ... .. . ... : ... .. . ... : ... .. . ... : ... .. . ... : ... .. 3 ... : ... .. 3 ... : ... .. 3 ...
ROW 04 : ... .. 3 ... : ... .. . ... : ... .. . ... : ... .. . ... : ... .. . ... : ... .. 4 ... : ... .. 4 ... : ... .. 4 ...
ROW 05 : ... .. . ... : ... .. . ... : ... .. . ... : ... .. . ... : ... .. . ... : ... .. 5 ... : ... .. 5 ... : ... .. 5 ...
ROW 06 : ... .. 4 ... : ... .. . ... : ... .. . ... : ... .. . ... : ... .. . ... : ... .. 6 ... : ... .. 6 ... : ... .. 6 ...
ROW 07 : ... .. . ... : ... .. . ... : ... .. . ... : ... .. . ... : ... .. . ... : ... .. 7 ... : ... .. 7 ... : ... .. 7 ...
ROW 08 : ... .. 5 ... : ... .. . ... : ... .. . ... : ... .. . ... : ... .. . ... : ... .. 8 ... : ... .. 8 ... : ... .. 8 ...
ROW 09 : ... .. . ... : ... .. . ... : ... .. . ... : ... .. . ... : ... .. . ... : ... .. 7 ... : ... .. 7 ... : ... .. 7 ...
ROW 0A : ... .. 6 ... : ... .. . ... : ... .. . ... : ... .. . ... : ... .. . ... : ... .. 6 ... : ... .. 6 ... : ... .. 6 ...
ROW 0B : ... .. . ... : ... .. . ... : ... .. . ... : ... .. . ... : ... .. . ... : ... .. 5 ... : ... .. 5 ... : ... .. 5 ...
ROW 0C : ... .. 7 ... : ... .. . ... : ... .. . ... : ... .. . ... : ... .. . ... : ... .. 4 ... : ... .. 4 ... : ... .. 4 ...
ROW 0D : ... .. . ... : ... .. . ... : ... .. . ... : ... .. . ... : ... .. . ... : ... .. 3 ... : ... .. 3 ... : ... .. 3 ...
ROW 0E : ... .. 8 ... : ... .. . ... : ... .. . ... : ... .. . ... : ... .. . ... : ... .. 2 ... : ... .. 2 ... : ... .. 2 ...
ROW 0F : ... .. . ... : ... .. . ... : ... .. . ... : ... .. . ... : ... .. . ... : --- .. 1 ... : --- .. 1 ... : --- .. 1 ...
ROW 10 : ... .. 9 ... : ... .. . ... : ... .. . ... : ... .. . ... : ... .. . ... : C-3 0A 1 ... : D#3 0A 1 ... : G#3 01 1 ...
ROW 11 : ... .. . ... : ... .. . ... : ... .. . ... : ... .. . ... : ... .. . ... : ... .. 1 ... : ... .. 1 ... : ... .. 1 ...
ROW 12 : ... .. A ... : ... .. . ... : ... .. . ... : ... .. . ... : ... .. . ... : ... .. 2 ... : ... .. 2 ... : ... .. 2 ...
ROW 13 : ... .. . ... : ... .. . ... : ... .. . ... : ... .. . ... : ... .. . ... : ... .. 3 ... : ... .. 3 ... : ... .. 3 ...
ROW 14 : ... .. B ... : ... .. . ... : ... .. . ... : ... .. . ... : ... .. . ... : ... .. 4 ... : ... .. 4 ... : ... .. 4 ...
ROW 15 : ... .. . ... : ... .. . ... : ... .. . ... : ... .. . ... : ... .. . ... : ... .. 5 ... : ... .. 5 ... : ... .. 5 ...
ROW 16 : ... .. C ... : ... .. . ... : ... .. . ... : ... .. . ... : ... .. . ... : ... .. 6 ... : ... .. 6 ... : ... .. 6 ...
ROW 17 : ... .. . ... : ... .. . ... : ... .. . ... : ... .. . ... : ... .. . ... : ... .. 7 ... : ... .. 7 ... : ... .. 7 ...
ROW 18 : ... .. D ... : ... .. . ... : ... .. . ... : ... .. . ... : ... .. . ... : ... .. 8 ... : ... .. 8 ... : ... .. 8 ...
ROW 19 : ... .. . ... : ... .. . ... : ... .. . ... : ... .. . ... : ... .. . ... : ... .. 7 ... : ... .. 7 ... : ... .. 7 ...
ROW 1A : ... .. E ... : ... .. . ... : ... .. . ... : ... .. . ... : ... .. . ... : ... .. 6 ... : ... .. 6 ... : ... .. 6 ...
ROW 1B : ... .. . ... : ... .. . ... : ... .. . ... : ... .. . ... : ... .. . ... : ... .. 5 ... : ... .. 5 ... : ... .. 5 ...
ROW 1C : ... .. F ... : ... .. . ... : ... .. . ... : ... .. . ... : ... .. . ... : ... .. 4 ... : ... .. 4 ... : ... .. 4 ...
ROW 1D : ... .. . ... : ... .. . ... : ... .. . ... : ... .. . ... : ... .. . ... : ... .. 3 ... : ... .. 3 ... : ... .. 3 ...
ROW 1E : ... .. E ... : ... .. . ... : ... .. . ... : ... .. . ... : ... .. . ... : ... .. 2 ... : ... .. 2 ... : ... .. 2 ...
ROW 1F : ... .. . ... : ... .. . ... : ... .. . ... : ... .. . ... : ... .. . ... : --- .. 1 ... : --- .. 1 ... : --- .. 1 ...
ROW 20 : ... .. D ... : ... .. . ... : ... .. . ... : ... .. . ... : ... .. . ... : C-3 0A 1 ... : D#3 0A 1 ... : A-3 01 1 ...
ROW 21 : ... .. . ... : ... .. . ... : ... .. . ... : ... .. . ... : ... .. . ... : ... .. 1 ... : ... .. 1 ... : ... .. 1 ...
ROW 22 : ... .. C ... : ... .. . ... : ... .. . ... : ... .. . ... : ... .. . ... : ... .. 2 ... : ... .. 2 ... : ... .. 2 ...
ROW 23 : ... .. . ... : ... .. . ... : ... .. . ... : ... .. . ... : ... .. . ... : ... .. 3 ... : ... .. 3 ... : ... .. 3 ...
ROW 24 : ... .. B ... : ... .. . ... : ... .. . ... : ... .. . ... : ... .. . ... : ... .. 4 ... : ... .. 4 ... : ... .. 4 ...
ROW 25 : ... .. . ... : ... .. . ... : ... .. . ... : ... .. . ... : ... .. . ... : ... .. 5 ... : ... .. 5 ... : ... .. 5 ...
ROW 26 : ... .. A ... : ... .. . ... : ... .. . ... : ... .. . ... : ... .. . ... : ... .. 6 ... : ... .. 6 ... : ... .. 6 ...
ROW 27 : ... .. . ... : ... .. . ... : ... .. . ... : ... .. . ... : ... .. . ... : ... .. 7 ... : ... .. 7 ... : ... .. 7 ...
ROW 28 : ... .. 9 ... : ... .. . ... : ... .. . ... : ... .. . ... : ... .. . ... : ... .. 8 ... : ... .. 8 ... : ... .. 8 ...
ROW 29 : ... .. . ... : ... .. . ... : ... .. . ... : ... .. . ... : ... .. . ... : ... .. 7 ... : ... .. 7 ... : ... .. 7 ...
ROW 2A : ... .. 8 ... : ... .. . ... : ... .. . ... : ... .. . ... : ... .. . ... : ... .. 6 ... : ... .. 6 ... : ... .. 6 ...
ROW 2B : ... .. . ... : ... .. . ... : ... .. . ... : ... .. . ... : ... .. . ... : ... .. 5 ... : ... .. 5 ... : ... .. 5 ...
ROW 2C : ... .. 7 ... : ... .. . ... : ... .. . ... : ... .. . ... : ... .. . ... : ... .. 4 ... : ... .. 4 ... : ... .. 4 ...
ROW 2D : ... .. . ... : ... .. . ... : ... .. . ... : ... .. . ... : ... .. . ... : ... .. 3 ... : ... .. 3 ... : ... .. 3 ...
ROW 2E : ... .. 6 ... : ... .. . ... : ... .. . ... : ... .. . ... : ... .. . ... : ... .. 2 ... : ... .. 2 ... : ... .. 2 ...
ROW 2F : ... .. . ... : ... .. . ... : ... .. . ... : ... .. . ... : ... .. . ... : --- .. 1 ... : --- .. 1 ... : --- .. 1 ...
ROW 30 : ... .. 5 ... : ... .. . ... : ... .. . ... : ... .. . ... : ... .. . ... : C-3 0A 1 ... : F-3 0A 1 ... : A-3 01 1 ...
ROW 31 : ... .. . ... : ... .. . ... : ... .. . ... : ... .. . ... : ... .. . ... : ... .. 1 ... : ... .. 1 ... : ... .. 1 ...
ROW 32 : ... .. 4 ... : ... .. . ... : ... .. . ... : ... .. . ... : ... .. . ... : ... .. 2 ... : ... .. 2 ... : ... .. 2 ...
ROW 33 : ... .. . ... : ... .. . ... : ... .. . ... : ... .. . ... : ... .. . ... : ... .. 3 ... : ... .. 3 ... : ... .. 3 ...
ROW 34 : ... .. 3 ... : ... .. . ... : ... .. . ... : ... .. . ... : ... .. . ... : ... .. 4 ... : ... .. 4 ... : ... .. 4 ...
ROW 35 : ... .. . ... : ... .. . ... : ... .. . ... : ... .. . ... : ... .. . ... : ... .. 5 ... : ... .. 5 ... : ... .. 5 ...
ROW 36 : ... .. 2 ... : ... .. . ... : ... .. . ... : ... .. . ... : ... .. . ... : ... .. 6 ... : ... .. 6 ... : ... .. 6 ...
ROW 37 : ... .. . ... : ... .. . ... : ... .. . ... : ... .. . ... : ... .. . ... : ... .. 7 ... : ... .. 7 ... : ... .. 7 ...
ROW 38 : ... .. 1 ... : ... .. . ... : ... .. . ... : ... .. . ... : ... .. . ... : ... .. 8 ... : ... .. 8 ... : ... .. 8 ...
ROW 39 : ... .. . ... : ... .. . ... : ... .. . ... : ... .. . ... : ... .. . ... : ... .. 7 ... : ... .. 7 ... : ... .. 7 ...
ROW 3A : ... .. . ... : ... .. . ... : ... .. . ... : ... .. . ... : ... .. . ... : ... .. 6 ... : ... .. 6 ... : ... .. 6 ...
ROW 3B : ... .. . ... : ... .. . ... : ... .. . ... : ... .. . ... : ... .. . ... : ... .. 5 ... : ... .. 5 ... : ... .. 5 ...
ROW 3C : ... .. . ... : ... .. . ... : ... .. . ... : ... .. . ... : ... .. . ... : ... .. 4 ... : ... .. 4 ... : ... .. 4 ...
ROW 3D : ... .. . ... : ... .. . ... : ... .. . ... : ... .. . ... : ... .. . ... : ... .. 3 ... : ... .. 3 ... : ... .. 3 ...
ROW 3E : ... .. . ... : ... .. . ... : ... .. . ... : ... .. . ... : ... .. . ... : ... .. 2 ... : ... .. 2 ... : ... .. 2 ...
ROW 3F : ... .. . ... : ... .. . ... : ... .. . ... : ... .. . ... : ... .. . ... : --- .. 1 ... : --- .. 1 ... : --- .. 1 ...
ROW 40 : C-1 0B 1 ... : ... .. . ... : ... .. . ... : ... .. . ... : ... .. . ... : C-3 0A 1 ... : F-3 0A 1 ... : G#3 0A 1 ...
ROW 41 : ... .. . ... : ... .. . ... : ... .. . ... : ... .. . ... : ... .. . ... : ... .. 1 ... : ... .. 1 ... : ... .. 1 ...
ROW 42 : ... .. 2 ... : ... .. . ... : ... .. . ... : ... .. . ... : ... .. . ... : ... .. 2 ... : ... .. 2 ... : ... .. 2 ...
ROW 43 : ... .. . ... : ... .. . ... : ... .. . ... : ... .. . ... : ... .. . ... : ... .. 3 ... : ... .. 3 ... : ... .. 3 ...
ROW 44 : ... .. 3 ... : ... .. . ... : ... .. . ... : ... .. . ... : ... .. . ... : ... .. 4 ... : ... .. 4 ... : ... .. 4 ...
ROW 45 : ... .. . ... : ... .. . ... : ... .. . ... : ... .. . ... : ... .. . ... : ... .. 5 ... : ... .. 5 ... : ... .. 5 ...
ROW 46 : ... .. 4 ... : ... .. . ... : ... .. . ... : ... .. . ... : ... .. . ... : ... .. 6 ... : ... .. 6 ... : ... .. 6 ...
ROW 47 : ... .. . ... : ... .. . ... : ... .. . ... : ... .. . ... : ... .. . ... : ... .. 7 ... : ... .. 7 ... : ... .. 7 ...
ROW 48 : ... .. 5 ... : ... .. . ... : ... .. . ... : ... .. . ... : ... .. . ... : ... .. 8 ... : ... .. 8 ... : ... .. 8 ...
ROW 49 : ... .. . ... : ... .. . ... : ... .. . ... : ... .. . ... : ... .. . ... : ... .. 7 ... : ... .. 7 ... : ... .. 7 ...
ROW 4A : ... .. 6 ... : ... .. . ... : ... .. . ... : ... .. . ... : ... .. . ... : ... .. 6 ... : ... .. 6 ... : ... .. 6 ...
ROW 4B : ... .. . ... : ... .. . ... : ... .. . ... : ... .. . ... : ... .. . ... : ... .. 5 ... : ... .. 5 ... : ... .. 5 ...
ROW 4C : ... .. 7 ... : ... .. . ... : ... .. . ... : ... .. . ... : ... .. . ... : ... .. 4 ... : ... .. 4 ... : ... .. 4 ...
ROW 4D : ... .. . ... : ... .. . ... : ... .. . ... : ... .. . ... : ... .. . ... : ... .. 3 ... : ... .. 3 ... : ... .. 3 ...
ROW 4E : ... .. 8 ... : ... .. . ... : ... .. . ... : ... .. . ... : ... .. . ... : ... .. 2 ... : ... .. 2 ... : ... .. 2 ...
ROW 4F : ... .. . ... : ... .. . ... : ... .. . ... : ... .. . ... : ... .. . ... : --- .. 1 ... : --- .. 1 ... : --- .. 1 ...
ROW 50 : ... .. 9 ... : ... .. . ... : ... .. . ... : ... .. . ... : ... .. . ... : C-3 0A 1 ... : D#3 0A 1 ... : G#3 01 1 ...
ROW 51 : ... .. . ... : ... .. . ... : ... .. . ... : ... .. . ... : ... .. . ... : ... .. 1 ... : ... .. 1 ... : ... .. 1 ...
ROW 52 : ... .. A ... : ... .. . ... : ... .. . ... : ... .. . ... : ... .. . ... : ... .. 2 ... : ... .. 2 ... : ... .. 2 ...
ROW 53 : ... .. . ... : ... .. . ... : ... .. . ... : ... .. . ... : ... .. . ... : ... .. 3 ... : ... .. 3 ... : ... .. 3 ...
ROW 54 : ... .. B ... : ... .. . ... : ... .. . ... : ... .. . ... : ... .. . ... : ... .. 4 ... : ... .. 4 ... : ... .. 4 ...
ROW 55 : ... .. . ... : ... .. . ... : ... .. . ... : ... .. . ... : ... .. . ... : ... .. 5 ... : ... .. 5 ... : ... .. 5 ...
ROW 56 : ... .. C ... : ... .. . ... : ... .. . ... : ... .. . ... : ... .. . ... : ... .. 6 ... : ... .. 6 ... : ... .. 6 ...
ROW 57 : ... .. . ... : ... .. . ... : ... .. . ... : ... .. . ... : ... .. . ... : ... .. 7 ... : ... .. 7 ... : ... .. 7 ...
ROW 58 : ... .. D ... : ... .. . ... : ... .. . ... : ... .. . ... : ... .. . ... : ... .. 8 ... : ... .. 8 ... : ... .. 8 ...
ROW 59 : ... .. . ... : ... .. . ... : ... .. . ... : ... .. . ... : ... .. . ... : ... .. 7 ... : ... .. 7 ... : ... .. 7 ...
ROW 5A : ... .. E ... : ... .. . ... : ... .. . ... : ... .. . ... : ... .. . ... : ... .. 6 ... : ... .. 6 ... : ... .. 6 ...
ROW 5B : ... .. . ... : ... .. . ... : ... .. . ... : ... .. . ... : ... .. . ... : ... .. 5 ... : ... .. 5 ... : ... .. 5 ...
ROW 5C : ... .. F ... : ... .. . ... : ... .. . ... : ... .. . ... : ... .. . ... : ... .. 4 ... : ... .. 4 ... : ... .. 4 ...
ROW 5D : ... .. . ... : ... .. . ... : ... .. . ... : ... .. . ... : ... .. . ... : ... .. 3 ... : ... .. 3 ... : ... .. 3 ...
ROW 5E : ... .. E ... : ... .. . ... : ... .. . ... : ... .. . ... : ... .. . ... : ... .. 2 ... : ... .. 2 ... : ... .. 2 ...
ROW 5F : ... .. . ... : ... .. . ... : ... .. . ... : ... .. . ... : ... .. . ... : --- .. 1 ... : --- .. 1 ... : --- .. 1 ...
ROW 60 : ... .. D ... : ... .. . ... : ... .. . ... : ... .. . ... : ... .. . ... : C-3 0A 1 ... : D#3 0A 1 ... : A-3 01 1 ...
ROW 61 : ... .. . ... : ... .. . ... : ... .. . ... : ... .. . ... : ... .. . ... : ... .. 1 ... : ... .. 1 ... : ... .. 1 ...
ROW 62 : ... .. C ... : ... .. . ... : ... .. . ... : ... .. . ... : ... .. . ... : ... .. 2 ... : ... .. 2 ... : ... .. 2 ...
ROW 63 : ... .. . ... : ... .. . ... : ... .. . ... : ... .. . ... : ... .. . ... : ... .. 3 ... : ... .. 3 ... : ... .. 3 ...
ROW 64 : ... .. B ... : ... .. . ... : ... .. . ... : ... .. . ... : ... .. . ... : ... .. 4 ... : ... .. 4 ... : ... .. 4 ...
ROW 65 : ... .. . ... : ... .. . ... : ... .. . ... : ... .. . ... : ... .. . ... : ... .. 5 ... : ... .. 5 ... : ... .. 5 ...
ROW 66 : ... .. A ... : ... .. . ... : ... .. . ... : ... .. . ... : ... .. . ... : ... .. 6 ... : ... .. 6 ... : ... .. 6 ...
ROW 67 : ... .. . ... : ... .. . ... : ... .. . ... : ... .. . ... : ... .. . ... : ... .. 7 ... : ... .. 7 ... : ... .. 7 ...
ROW 68 : ... .. 9 ... : ... .. . ... : ... .. . ... : ... .. . ... : ... .. . ... : ... .. 8 ... : ... .. 8 ... : ... .. 8 ...
ROW 69 : ... .. . ... : ... .. . ... : ... .. . ... : ... .. . ... : ... .. . ... : ... .. 7 ... : ... .. 7 ... : ... .. 7 ...
ROW 6A : ... .. 8 ... : ... .. . ... : ... .. . ... : ... .. . ... : ... .. . ... : ... .. 6 ... : ... .. 6 ... : ... .. 6 ...
ROW 6B : ... .. . ... : ... .. . ... : ... .. . ... : ... .. . ... : ... .. . ... : ... .. 5 ... : ... .. 5 ... : ... .. 5 ...
ROW 6C : ... .. 7 ... : ... .. . ... : ... .. . ... : ... .. . ... : ... .. . ... : ... .. 4 ... : ... .. 4 ... : ... .. 4 ...
ROW 6D : ... .. . ... : ... .. . ... : ... .. . ... : ... .. . ... : ... .. . ... : ... .. 3 ... : ... .. 3 ... : ... .. 3 ...
ROW 6E : ... .. 6 ... : ... .. . ... : ... .. . ... : ... .. . ... : ... .. . ... : ... .. 2 ... : ... .. 2 ... : ... .. 2 ...
ROW 6F : ... .. . ... : ... .. . ... : ... .. . ... : ... .. . ... : ... .. . ... : --- .. 1 ... : --- .. 1 ... : --- .. 1 ...
ROW 70 : ... .. 5 ... : ... .. . ... : ... .. . ... : ... .. . ... : ... .. . ... : C-3 0A 1 ... : F-3 0A 1 ... : A-3 01 1 ...
ROW 71 : ... .. . ... : ... .. . ... : ... .. . ... : ... .. . ... : ... .. . ... : ... .. 1 ... : ... .. 1 ... : ... .. 1 ...
ROW 72 : ... .. 4 ... : ... .. . ... : ... .. . ... : ... .. . ... : ... .. . ... : ... .. 2 ... : ... .. 2 ... : ... .. 2 ...
ROW 73 : ... .. . ... : ... .. . ... : ... .. . ... : ... .. . ... : ... .. . ... : ... .. 3 ... : ... .. 3 ... : ... .. 3 ...
ROW 74 : ... .. 3 ... : ... .. . ... : ... .. . ... : ... .. . ... : ... .. . ... : ... .. 4 ... : ... .. 4 ... : ... .. 4 ...
ROW 75 : ... .. . ... : ... .. . ... : ... .. . ... : ... .. . ... : ... .. . ... : ... .. 5 ... : ... .. 5 ... : ... .. 5 ...
ROW 76 : ... .. 2 ... : ... .. . ... : ... .. . ... : ... .. . ... : ... .. . ... : ... .. 6 ... : ... .. 6 ... : ... .. 6 ...
ROW 77 : ... .. . ... : ... .. . ... : ... .. . ... : ... .. . ... : ... .. . ... : ... .. 7 ... : ... .. 7 ... : ... .. 7 ...
ROW 78 : ... .. 1 ... : ... .. . ... : ... .. . ... : ... .. . ... : ... .. . ... : ... .. 8 ... : ... .. 8 ... : B-3 01 8 ...
ROW 79 : ... .. . ... : ... .. . ... : ... .. . ... : ... .. . ... : ... .. . ... : ... .. 7 ... : ... .. 7 ... : ... .. 7 ...
ROW 7A : ... .. . ... : ... .. . ... : ... .. . ... : ... .. . ... : ... .. . ... : ... .. 6 ... : ... .. 6 ... : ... .. 6 ...
ROW 7B : ... .. . ... : ... .. . ... : ... .. . ... : ... .. . ... : ... .. . ... : ... .. 5 ... : ... .. 5 ... : ... .. 5 ...
ROW 7C : ... .. . ... : ... .. . ... : ... .. . ... : 8-# 03 4 ... : ... .. . ... : ... .. 4 ... : ... .. 4 ... : ... .. 4 ...
ROW 7D : ... .. . ... : ... .. . ... : ... .. . ... : ... .. . ... : ... .. . ... : ... .. 3 ... : ... .. 3 ... : ... .. 3 ...
ROW 7E : ... .. . ... : ... .. . ... : ... .. . ... : 6-# 03 8 ... : ... .. . ... : ... .. 2 ... : ... .. 2 ... : ... .. 2 ...
ROW 7F : ... .. . ... : ... .. . ... : ... .. . ... : ... .. . ... : ... .. . ... : --- .. 1 ... : --- .. 1 ... : --- .. 1 ...

PATTERN 01
ROW 00 : C-1 00 1 ... : C-2 05 F ... : C-2 00 . ... : 4-# 03 C ... : ... .. . ... : C-3 0A 1 ... : E-3 0A 1 ... : G#3 01 1 ...
ROW 01 : ... .. . ... : ... .. . ... : --- .. . ... : ... .. . ... : ... .. . ... : ... .. 1 ... : ... .. 1 ... : ... .. 1 ...
ROW 02 : ... .. 2 ... : ... .. . ... : C-2 00 . ... : F-# 02 6 ... : ... .. . ... : ... .. 2 ... : ... .. 2 ... : ... .. 2 ...
ROW 03 : ... .. . ... : ... .. . ... : --- .. . ... : ... .. . ... : ... .. . ... : ... .. 3 ... : ... .. 3 ... : ... .. 3 ...
ROW 04 : ... .. 3 ... : ... .. . ... : C-2 00 . ... : F-# 02 7 ... : ... .. . ... : ... .. 4 ... : ... .. 4 ... : ... .. 4 ...
ROW 05 : ... .. . ... : ... .. . ... : --- .. . ... : ... .. . ... : ... .. . ... : ... .. 5 ... : ... .. 5 ... : ... .. 5 ...
ROW 06 : ... .. 4 ... : ... .. . ... : C-2 00 . ... : F-# 02 8 ... : ... .. . ... : ... .. 6 ... : ... .. 6 ... : ... .. 6 ...
ROW 07 : ... .. . ... : ... .. . ... : --- .. . ... : ... .. . ... : ... .. . ... : ... .. 7 ... : ... .. 7 ... : ... .. 7 ...
ROW 08 : ... .. 5 ... : ... .. . ... : C-2 00 . ... : F-# 02 C ... : ... .. . ... : ... .. 8 ... : ... .. 8 ... : ... .. 8 ...
ROW 09 : ... .. . ... : ... .. . ... : --- .. . ... : ... .. . ... : ... .. . ... : ... .. 7 ... : ... .. 7 ... : ... .. 7 ...
ROW 0A : ... .. 6 ... : ... .. . ... : C-2 00 . ... : F-# 02 6 ... : ... .. . ... : ... .. 6 ... : ... .. 6 ... : ... .. 6 ...
ROW 0B : ... .. . ... : ... .. . ... : --- .. . ... : ... .. . ... : ... .. . ... : ... .. 5 ... : ... .. 5 ... : ... .. 5 ...
ROW 0C : ... .. 7 ... : ... .. . ... : C-2 00 . ... : F-# 02 6 ... : ... .. . ... : ... .. 4 ... : ... .. 4 ... : ... .. 4 ...
ROW 0D : ... .. . ... : ... .. . ... : --- .. . ... : ... .. . ... : ... .. . ... : ... .. 3 ... : ... .. 3 ... : ... .. 3 ...
ROW 0E : ... .. 8 ... : ... .. . ... : C-2 00 . ... : F-# 02 7 ... : ... .. . ... : ... .. 2 ... : ... .. 2 ... : ... .. 2 ...
ROW 0F : ... .. . ... : ... .. . ... : --- .. . ... : ... .. . ... : ... .. . ... : --- .. 1 ... : --- .. 1 ... : --- .. 1 ...
ROW 10 : ... .. 9 ... : C-3 05 . ... : C-2 00 . ... : F-# 02 7 ... : ... .. . ... : C-3 0A 1 ... : D#3 0A 1 ... : G#3 01 1 ...
ROW 11 : ... .. . ... : ... .. . ... : --- .. . ... : ... .. . ... : ... .. . ... : ... .. 1 ... : ... .. 1 ... : ... .. 1 ...
ROW 12 : ... .. A ... : ... .. . ... : C-2 00 . ... : F-# 02 8 ... : ... .. . ... : ... .. 2 ... : ... .. 2 ... : ... .. 2 ...
ROW 13 : ... .. . ... : ... .. . ... : --- .. . ... : ... .. . ... : ... .. . ... : ... .. 3 ... : ... .. 3 ... : ... .. 3 ...
ROW 14 : ... .. B ... : ... .. . ... : C-2 00 . ... : F-# 02 8 ... : ... .. . ... : ... .. 4 ... : ... .. 4 ... : ... .. 4 ...
ROW 15 : ... .. . ... : ... .. . ... : --- .. . ... : ... .. . ... : ... .. . ... : ... .. 5 ... : ... .. 5 ... : ... .. 5 ...
ROW 16 : ... .. C ... : ... .. . ... : C-2 00 . ... : F-# 02 9 ... : ... .. . ... : ... .. 6 ... : ... .. 6 ... : ... .. 6 ...
ROW 17 : ... .. . ... : ... .. . ... : --- .. . ... : ... .. . ... : ... .. . ... : ... .. 7 ... : ... .. 7 ... : ... .. 7 ...
ROW 18 : ... .. D ... : ... .. . ... : C-2 00 . ... : F-# 02 C ... : ... .. . ... : ... .. 8 ... : ... .. 8 ... : ... .. 8 ...
ROW 19 : ... .. . ... : ... .. . ... : --- .. . ... : ... .. . ... : ... .. . ... : ... .. 7 ... : ... .. 7 ... : ... .. 7 ...
ROW 1A : ... .. E ... : ... .. . ... : C-2 00 . ... : F-# 02 6 ... : ... .. . ... : ... .. 6 ... : ... .. 6 ... : ... .. 6 ...
ROW 1B : ... .. . ... : ... .. . ... : --- .. . ... : ... .. . ... : ... .. . ... : ... .. 5 ... : ... .. 5 ... : ... .. 5 ...
ROW 1C : ... .. F ... : C-3 05 . ... : C-2 00 . ... : F-# 02 6 ... : ... .. . ... : ... .. 4 ... : ... .. 4 ... : ... .. 4 ...
ROW 1D : ... .. . ... : ... .. . ... : --- .. . ... : ... .. . ... : ... .. . ... : ... .. 3 ... : ... .. 3 ... : ... .. 3 ...
ROW 1E : ... .. E ... : C-3 05 . ... : C-2 00 . ... : F-# 02 7 ... : ... .. . ... : ... .. 2 ... : ... .. 2 ... : ... .. 2 ...
ROW 1F : ... .. . ... : ... .. . ... : --- .. . ... : ... .. . ... : ... .. . ... : --- .. 1 ... : --- .. 1 ... : --- .. 1 ...
ROW 20 : ... .. D ... : C-3 05 . ... : C-2 00 . ... : F-# 02 7 ... : ... .. . ... : C-3 0A 1 ... : D#3 0A 1 ... : A-3 01 1 ...
ROW 21 : ... .. . ... : ... .. . ... : --- .. . ... : ... .. . ... : ... .. . ... : ... .. 1 ... : ... .. 1 ... : ... .. 1 ...
ROW 22 : ... .. C ... : ... .. . ... : C-2 00 . ... : F-# 02 8 ... : ... .. . ... : ... .. 2 ... : ... .. 2 ... : ... .. 2 ...
ROW 23 : ... .. . ... : ... .. . ... : --- .. . ... : ... .. . ... : ... .. . ... : ... .. 3 ... : ... .. 3 ... : ... .. 3 ...
ROW 24 : ... .. B ... : ... .. . ... : C-2 00 . ... : F-# 02 8 ... : ... .. . ... : ... .. 4 ... : ... .. 4 ... : ... .. 4 ...
ROW 25 : ... .. . ... : ... .. . ... : --- .. . ... : ... .. . ... : ... .. . ... : ... .. 5 ... : ... .. 5 ... : ... .. 5 ...
ROW 26 : ... .. A ... : ... .. . ... : C-2 00 . ... : F-# 02 9 ... : ... .. . ... : ... .. 6 ... : ... .. 6 ... : ... .. 6 ...
ROW 27 : ... .. . ... : ... .. . ... : --- .. . ... : ... .. . ... : ... .. . ... : ... .. 7 ... : ... .. 7 ... : ... .. 7 ...
ROW 28 : ... .. 9 ... : ... .. . ... : C-2 00 . ... : F-# 02 C ... : ... .. . ... : ... .. 8 ... : ... .. 8 ... : ... .. 8 ...
ROW 29 : ... .. . ... : ... .. . ... : --- .. . ... : ... .. . ... : ... .. . ... : ... .. 7 ... : ... .. 7 ... : ... .. 7 ...
ROW 2A : ... .. 8 ... : ... .. . ... : C-2 00 . ... : F-# 02 6 ... : ... .. . ... : ... .. 6 ... : ... .. 6 ... : ... .. 6 ...
ROW 2B : ... .. . ... : ... .. . ... : --- .. . ... : ... .. . ... : ... .. . ... : ... .. 5 ... : ... .. 5 ... : ... .. 5 ...
ROW 2C : ... .. 7 ... : ... .. . ... : C-2 00 . ... : F-# 02 6 ... : ... .. . ... : ... .. 4 ... : ... .. 4 ... : ... .. 4 ...
ROW 2D : ... .. . ... : ... .. . ... : --- .. . ... : ... .. . ... : ... .. . ... : ... .. 3 ... : ... .. 3 ... : ... .. 3 ...
ROW 2E : ... .. 6 ... : ... .. . ... : C-2 00 . ... : F-# 02 7 ... : ... .. . ... : ... .. 2 ... : ... .. 2 ... : ... .. 2 ...
ROW 2F : ... .. . ... : ... .. . ... : --- .. . ... : ... .. . ... : ... .. . ... : --- .. 1 ... : --- .. 1 ... : --- .. 1 ...
ROW 30 : ... .. 5 ... : C-3 05 . ... : C-2 00 . ... : F-# 02 7 ... : ... .. . ... : C-3 0A 1 ... : F-3 0A 1 ... : A-3 01 1 ...
ROW 31 : ... .. . ... : ... .. . ... : --- .. . ... : ... .. . ... : ... .. . ... : ... .. 1 ... : ... .. 1 ... : ... .. 1 ...
ROW 32 : ... .. 4 ... : ... .. . ... : C-2 00 . ... : F-# 02 8 ... : ... .. . ... : ... .. 2 ... : ... .. 2 ... : ... .. 2 ...
ROW 33 : ... .. . ... : ... .. . ... : --- .. . ... : ... .. . ... : ... .. . ... : ... .. 3 ... : ... .. 3 ... : ... .. 3 ...
ROW 34 : ... .. 3 ... : ... .. . ... : C-2 00 . ... : F-# 02 8 ... : ... .. . ... : ... .. 4 ... : ... .. 4 ... : ... .. 4 ...
ROW 35 : ... .. . ... : ... .. . ... : --- .. . ... : ... .. . ... : ... .. . ... : ... .. 5 ... : ... .. 5 ... : ... .. 5 ...
ROW 36 : ... .. 2 ... : ... .. . ... : C-2 00 . ... : F-# 02 9 ... : ... .. . ... : ... .. 6 ... : ... .. 6 ... : ... .. 6 ...
ROW 37 : ... .. . ... : ... .. . ... : --- .. . ... : ... .. . ... : ... .. . ... : ... .. 7 ... : ... .. 7 ... : ... .. 7 ...
ROW 38 : ... .. 1 ... : ... .. . ... : C-2 00 . ... : F-# 02 C ... : ... .. . ... : ... .. 8 ... : ... .. 8 ... : ... .. 8 ...
ROW 39 : ... .. . ... : ... .. . ... : --- .. . ... : ... .. . ... : ... .. . ... : ... .. 7 ... : ... .. 7 ... : ... .. 7 ...
ROW 3A : ... .. . ... : ... .. . ... : C-2 00 . ... : F-# 02 6 ... : ... .. . ... : ... .. 6 ... : ... .. 6 ... : ... .. 6 ...
ROW 3B : ... .. . ... : ... .. . ... : --- .. . ... : ... .. . ... : ... .. . ... : ... .. 5 ... : ... .. 5 ... : ... .. 5 ...
ROW 3C : ... .. . ... : D#3 05 . ... : C-2 00 . ... : F-# 02 6 ... : ... .. . ... : ... .. 4 ... : ... .. 4 ... : ... .. 4 ...
ROW 3D : ... .. . ... : ... .. . ... : --- .. . ... : ... .. . ... : ... .. . ... : ... .. 3 ... : ... .. 3 ... : ... .. 3 ...
ROW 3E : ... .. . ... : ... .. . ... : C-2 00 . ... : F-# 02 7 ... : ... .. . ... : ... .. 2 ... : ... .. 2 ... : ... .. 2 ...
ROW 3F : ... .. . ... : ... .. . ... : --- .. . ... : ... .. . ... : ... .. . ... : --- .. 1 ... : --- .. 1 ... : --- .. 1 ...
ROW 40 : C-1 0B 1 ... : F-3 05 . ... : C-2 00 . ... : F-# 02 7 ... : ... .. . ... : C-3 0A 1 ... : F-3 0A 1 ... : G#3 0A 1 ...
ROW 41 : ... .. . ... : ... .. . ... : --- .. . ... : ... .. . ... : ... .. . ... : ... .. 1 ... : ... .. 1 ... : ... .. 1 ...
ROW 42 : ... .. 2 ... : ... .. . ... : C-2 00 . ... : F-# 02 8 ... : ... .. . ... : ... .. 2 ... : ... .. 2 ... : ... .. 2 ...
ROW 43 : ... .. . ... : ... .. . ... : --- .. . ... : ... .. . ... : ... .. . ... : ... .. 3 ... : ... .. 3 ... : ... .. 3 ...
ROW 44 : ... .. 3 ... : ... .. . ... : C-2 00 . ... : F-# 02 8 ... : ... .. . ... : ... .. 4 ... : ... .. 4 ... : ... .. 4 ...
ROW 45 : ... .. . ... : ... .. . ... : --- .. . ... : ... .. . ... : ... .. . ... : ... .. 5 ... : ... .. 5 ... : ... .. 5 ...
ROW 46 : ... .. 4 ... : ... .. . ... : C-2 00 . ... : F-# 02 9 ... : ... .. . ... : ... .. 6 ... : ... .. 6 ... : ... .. 6 ...
ROW 47 : ... .. . ... : ... .. . ... : --- .. . ... : ... .. . ... : ... .. . ... : ... .. 7 ... : ... .. 7 ... : ... .. 7 ...
ROW 48 : ... .. 5 ... : ... .. . ... : C-2 00 . ... : F-# 02 C ... : ... .. . ... : ... .. 8 ... : ... .. 8 ... : ... .. 8 ...
ROW 49 : ... .. . ... : ... .. . ... : --- .. . ... : ... .. . ... : ... .. . ... : ... .. 7 ... : ... .. 7 ... : ... .. 7 ...
ROW 4A : ... .. 6 ... : ... .. . ... : C-2 00 . ... : F-# 02 6 ... : ... .. . ... : ... .. 6 ... : ... .. 6 ... : ... .. 6 ...
ROW 4B : ... .. . ... : ... .. . ... : --- .. . ... : ... .. . ... : ... .. . ... : ... .. 5 ... : ... .. 5 ... : ... .. 5 ...
ROW 4C : ... .. 7 ... : ... .. . ... : C-2 00 . ... : F-# 02 6 ... : ... .. . ... : ... .. 4 ... : ... .. 4 ... : ... .. 4 ...
ROW 4D : ... .. . ... : ... .. . ... : --- .. . ... : ... .. . ... : ... .. . ... : ... .. 3 ... : ... .. 3 ... : ... .. 3 ...
ROW 4E : ... .. 8 ... : ... .. . ... : C-2 00 . ... : F-# 02 7 ... : ... .. . ... : ... .. 2 ... : ... .. 2 ... : ... .. 2 ...
ROW 4F : ... .. . ... : ... .. . ... : --- .. . ... : ... .. . ... : ... .. . ... : --- .. 1 ... : --- .. 1 ... : --- .. 1 ...
ROW 50 : ... .. 9 ... : D#3 05 . ... : C-2 00 . ... : F-# 02 7 ... : ... .. . ... : C-3 0A 1 ... : D#3 0A 1 ... : G#3 01 1 ...
ROW 51 : ... .. . ... : ... .. . ... : --- .. . ... : ... .. . ... : ... .. . ... : ... .. 1 ... : ... .. 1 ... : ... .. 1 ...
ROW 52 : ... .. A ... : ... .. . ... : C-2 00 . ... : F-# 02 8 ... : ... .. . ... : ... .. 2 ... : ... .. 2 ... : ... .. 2 ...
ROW 53 : ... .. . ... : ... .. . ... : --- .. . ... : ... .. . ... : ... .. . ... : ... .. 3 ... : ... .. 3 ... : ... .. 3 ...
ROW 54 : ... .. B ... : ... .. . ... : C-2 00 . ... : F-# 02 8 ... : ... .. . ... : ... .. 4 ... : ... .. 4 ... : ... .. 4 ...
ROW 55 : ... .. . ... : ... .. . ... : --- .. . ... : ... .. . ... : ... .. . ... : ... .. 5 ... : ... .. 5 ... : ... .. 5 ...
ROW 56 : ... .. C ... : ... .. . ... : C-2 00 . ... : F-# 02 9 ... : ... .. . ... : ... .. 6 ... : ... .. 6 ... : ... .. 6 ...
ROW 57 : ... .. . ... : ... .. . ... : --- .. . ... : ... .. . ... : ... .. . ... : ... .. 7 ... : ... .. 7 ... : ... .. 7 ...
ROW 58 : ... .. D ... : ... .. . ... : C-2 00 . ... : F-# 02 C ... : ... .. . ... : ... .. 8 ... : ... .. 8 ... : ... .. 8 ...
ROW 59 : ... .. . ... : ... .. . ... : --- .. . ... : ... .. . ... : ... .. . ... : ... .. 7 ... : ... .. 7 ... : ... .. 7 ...
ROW 5A : ... .. E ... : ... .. . ... : C-2 00 . ... : F-# 02 6 ... : ... .. . ... : ... .. 6 ... : ... .. 6 ... : ... .. 6 ...
ROW 5B : ... .. . ... : ... .. . ... : --- .. . ... : ... .. . ... : ... .. . ... : ... .. 5 ... : ... .. 5 ... : ... .. 5 ...
ROW 5C : ... .. F ... : ... .. . ... : C-2 00 . ... : F-# 02 6 ... : ... .. . ... : ... .. 4 ... : ... .. 4 ... : ... .. 4 ...
ROW 5D : ... .. . ... : ... .. . ... : --- .. . ... : ... .. . ... : ... .. . ... : ... .. 3 ... : ... .. 3 ... : ... .. 3 ...
ROW 5E : ... .. E ... : ... .. . ... : C-2 00 . ... : F-# 02 7 ... : ... .. . ... : ... .. 2 ... : ... .. 2 ... : ... .. 2 ...
ROW 5F : ... .. . ... : ... .. . ... : --- .. . ... : ... .. . ... : ... .. . ... : --- .. 1 ... : --- .. 1 ... : --- .. 1 ...
ROW 60 : ... .. D ... : A-3 05 . ... : C-2 00 . ... : F-# 02 7 ... : ... .. . ... : C-3 0A 1 ... : D#3 0A 1 ... : A-3 01 1 ...
ROW 61 : ... .. . ... : ... .. . ... : --- .. . ... : ... .. . ... : ... .. . ... : ... .. 1 ... : ... .. 1 ... : ... .. 1 ...
ROW 62 : ... .. C ... : ... .. . ... : C-2 00 . ... : F-# 02 8 ... : ... .. . ... : ... .. 2 ... : ... .. 2 ... : ... .. 2 ...
ROW 63 : ... .. . ... : ... .. . ... : --- .. . ... : ... .. . ... : ... .. . ... : ... .. 3 ... : ... .. 3 ... : ... .. 3 ...
ROW 64 : ... .. B ... : ... .. . ... : C-2 00 . ... : F-# 02 8 ... : ... .. . ... : ... .. 4 ... : ... .. 4 ... : ... .. 4 ...
ROW 65 : ... .. . ... : ... .. . ... : --- .. . ... : ... .. . ... : ... .. . ... : ... .. 5 ... : ... .. 5 ... : ... .. 5 ...
ROW 66 : ... .. A ... : ... .. . ... : C-2 00 . ... : F-# 02 9 ... : ... .. . ... : ... .. 6 ... : ... .. 6 ... : ... .. 6 ...
ROW 67 : ... .. . ... : ... .. . ... : --- .. . ... : ... .. . ... : ... .. . ... : ... .. 7 ... : ... .. 7 ... : ... .. 7 ...
ROW 68 : ... .. 9 ... : ... .. . ... : C-2 00 . ... : F-# 02 C ... : ... .. . ... : ... .. 8 ... : ... .. 8 ... : ... .. 8 ...
ROW 69 : ... .. . ... : ... .. . ... : --- .. . ... : ... .. . ... : ... .. . ... : ... .. 7 ... : ... .. 7 ... : ... .. 7 ...
ROW 6A : ... .. 8 ... : ... .. . ... : C-2 00 . ... : F-# 02 6 ... : ... .. . ... : ... .. 6 ... : ... .. 6 ... : ... .. 6 ...
ROW 6B : ... .. . ... : ... .. . ... : --- .. . ... : ... .. . ... : ... .. . ... : ... .. 5 ... : ... .. 5 ... : ... .. 5 ...
ROW 6C : ... .. 7 ... : ... .. . ... : C-2 00 . ... : F-# 02 6 ... : ... .. . ... : ... .. 4 ... : ... .. 4 ... : ... .. 4 ...
ROW 6D : ... .. . ... : ... .. . ... : --- .. . ... : ... .. . ... : ... .. . ... : ... .. 3 ... : ... .. 3 ... : ... .. 3 ...
ROW 6E : ... .. 6 ... : ... .. . ... : C-2 00 . ... : F-# 02 7 ... : ... .. . ... : ... .. 2 ... : ... .. 2 ... : ... .. 2 ...
ROW 6F : ... .. . ... : ... .. . ... : --- .. . ... : ... .. . ... : ... .. . ... : --- .. 1 ... : --- .. 1 ... : --- .. 1 ...
ROW 70 : ... .. 5 ... : A-3 05 . ... : C-2 00 . ... : F-# 02 7 ... : ... .. . ... : C-3 0A 1 ... : F-3 0A 1 ... : A-3 01 1 ...
ROW 71 : ... .. . ... : ... .. . ... : --- .. . ... : ... .. . ... : ... .. . ... : ... .. 1 ... : ... .. 1 ... : ... .. 1 ...
ROW 72 : ... .. 4 ... : ... .. . ... : C-2 00 . ... : F-# 02 8 ... : ... .. . ... : ... .. 2 ... : ... .. 2 ... : ... .. 2 ...
ROW 73 : ... .. . ... : ... .. . ... : --- .. . ... : ... .. . ... : ... .. . ... : ... .. 3 ... : ... .. 3 ... : ... .. 3 ...
ROW 74 : ... .. 3 ... : ... .. . ... : C-2 00 . ... : F-# 02 8 ... : ... .. . ... : ... .. 4 ... : ... .. 4 ... : ... .. 4 ...
ROW 75 : ... .. . ... : ... .. . ... : --- .. . ... : ... .. . ... : ... .. . ... : ... .. 5 ... : ... .. 5 ... : ... .. 5 ...
ROW 76 : ... .. 2 ... : ... .. . ... : C-2 00 . ... : F-# 02 9 ... : ... .. . ... : ... .. 6 ... : ... .. 6 ... : ... .. 6 ...
ROW 77 : ... .. . ... : ... .. . ... : --- .. . ... : ... .. . ... : ... .. . ... : ... .. 7 ... : ... .. 7 ... : --- .. 7 ...
ROW 78 : ... .. 1 ... : B-3 05 F ... : C-2 00 . ... : F-# 02 C ... : ... .. . ... : ... .. 8 ... : ... .. 8 ... : B-3 01 8 ...
ROW 79 : ... .. . ... : B-3 05 4 ... : --- .. . ... : ... .. . ... : ... .. . ... : ... .. 7 ... : ... .. 7 ... : ... .. 7 ...
ROW 7A : ... .. . ... : D-3 05 6 ... : C-2 00 . ... : F-# 02 6 ... : ... .. . ... : ... .. 6 ... : ... .. 6 ... : ... .. 6 ...
ROW 7B : ... .. . ... : B-3 05 8 ... : --- .. . ... : ... .. . ... : ... .. . ... : ... .. 5 ... : ... .. 5 ... : ... .. 5 ...
ROW 7C : ... .. . ... : D-3 05 A ... : C-2 00 . ... : F-# 02 6 ... : ... .. . ... : ... .. 4 ... : ... .. 4 ... : ... .. 4 ...
ROW 7D : ... .. . ... : B-3 05 C ... : --- .. . ... : ... .. . ... : ... .. . ... : ... .. 3 ... : ... .. 3 ... : ... .. 3 ...
ROW 7E : ... .. . ... : D-3 05 D ... : C-2 00 . ... : F-# 02 7 ... : ... .. . ... : ... .. 2 ... : ... .. 2 ... : ... .. 2 ...
ROW 7F : ... .. . ... : B-3 05 E ... : --- .. . ... : ... .. . ... : ... .. . ... : --- .. 1 ... : --- .. 1 ... : --- .. 1 ...

PATTERN 02
ROW 00 : C-1 00 1 ... : ... .. . ... : C-2 00 . ... : 4-# 03 C ... : ... .. . ... : F-3 08 F ... : G#3 08 F ... : C-4 07 F ...
ROW 01 : ... .. . ... : ... .. . ... : --- .. . ... : ... .. . ... : ... .. . ... : ... .. . ... : ... .. . ... : ... .. . ...
ROW 02 : ... .. 2 ... : ... .. . ... : C-2 00 . ... : F-# 02 6 ... : ... .. . ... : ... .. . ... : ... .. . ... : ... .. . ...
ROW 03 : ... .. . ... : ... .. . ... : --- .. . ... : ... .. . ... : ... .. . ... : ... .. . ... : ... .. . ... : ... .. . ...
ROW 04 : ... .. 3 ... : ... .. . ... : C-2 00 . ... : F-# 02 7 ... : ... .. . ... : ... .. . ... : ... .. . ... : A#3 07 . ...
ROW 05 : ... .. . ... : ... .. . ... : --- .. . ... : ... .. . ... : ... .. . ... : ... .. . ... : ... .. . ... : ... .. . ...
ROW 06 : ... .. 4 ... : ... .. . ... : C-2 00 . ... : F-# 02 8 ... : ... .. . ... : ... .. . ... : ... .. . ... : G#3 07 . ...
ROW 07 : ... .. . ... : ... .. . ... : --- .. . ... : ... .. . ... : ... .. . ... : ... .. . ... : ... .. . ... : ... .. . ...
ROW 08 : ... .. 5 ... : ... .. . ... : C-2 00 . ... : 5-# 03 C ... : ... .. . ... : C-3 08 . ... : D#3 08 . ... : G-3 07 . ...
ROW 09 : ... .. . ... : ... .. . ... : --- .. . ... : ... .. . ... : ... .. . ... : ... .. . ... : ... .. . ... : ... .. . ...
ROW 0A : ... .. 6 ... : ... .. . ... : C-2 00 . ... : ... .. . ... : ... .. . ... : ... .. . ... : ... .. . ... : ... .. . ...
ROW 0B : ... .. . ... : ... .. . ... : --- .. . ... : ... .. . ... : ... .. . ... : ... .. . ... : ... .. . ... : ... .. . ...
ROW 0C : ... .. 7 ... : ... .. . ... : C-2 00 . ... : F-# 02 6 ... : ... .. . ... : C-3 09 8 ... : D#4 09 8 ... : ... .. . ...
ROW 0D : ... .. . ... : ... .. . ... : --- .. . ... : ... .. . ... : ... .. . ... : ... .. . ... : ... .. . ... : ... .. . ...
ROW 0E : ... .. 8 ... : ... .. . ... : C-2 00 . ... : F-# 02 7 ... : ... .. . ... : C-3 09 C ... : D#4 09 C ... : ... .. . ...
ROW 0F : ... .. . ... : ... .. . ... : --- .. . ... : ... .. . ... : ... .. . ... : ... .. . ... : ... .. . ... : ... .. . ...
ROW 10 : ... .. . ... : ... .. . ... : C-2 00 . ... : F-# 02 7 ... : ... .. . ... : C-3 09 F ... : D#4 09 F ... : ... .. . ...
ROW 11 : ... .. . ... : ... .. . ... : --- .. . ... : ... .. . ... : ... .. . ... : ... .. . ... : ... .. . ... : ... .. . ...
ROW 12 : ... .. . ... : ... .. . ... : C-2 00 . ... : F-# 02 8 ... : ... .. . ... : ... .. . ... : ... .. . ... : ... .. . ...
ROW 13 : ... .. . ... : ... .. . ... : --- .. . ... : ... .. . ... : ... .. . ... : ... .. . ... : ... .. . ... : C-3 07 . ...
ROW 14 : ... .. . ... : ... .. . ... : C-2 00 . ... : F-# 02 8 ... : ... .. . ... : ... .. . ... : ... .. . ... : ... .. . ...
ROW 15 : ... .. . ... : ... .. . ... : --- .. . ... : ... .. . ... : ... .. . ... : ... .. . ... : ... .. . ... : ... .. . ...
ROW 16 : ... .. . ... : ... .. . ... : C-2 00 . ... : 0-# 03 9 ... : ... .. . ... : ... .. . ... : ... .. . ... : ... .. . ...
ROW 17 : ... .. . ... : ... .. . ... : --- .. . ... : ... .. . ... : ... .. . ... : ... .. . ... : ... .. . ... : ... .. . ...
ROW 18 : ... .. . ... : ... .. . ... : C-2 00 . ... : 5-# 03 C ... : ... .. . ... : ... .. . ... : ... .. . ... : F-3 07 . ...
ROW 19 : ... .. . ... : ... .. . ... : --- .. . ... : ... .. . ... : ... .. . ... : ... .. . ... : ... .. . ... : ... .. . ...
ROW 1A : ... .. . ... : ... .. . ... : C-2 00 . ... : ... .. . ... : ... .. . ... : ... .. . ... : ... .. . ... : G-3 07 . ...
ROW 1B : ... .. . ... : ... .. . ... : --- .. . ... : ... .. . ... : ... .. . ... : ... .. . ... : ... .. . ... : ... .. . ...
ROW 1C : ... .. . ... : ... .. . ... : C-2 00 . ... : F-# 02 6 ... : ... .. . ... : ... .. . ... : ... .. . ... : G#3 07 . ...
ROW 1D : ... .. . ... : ... .. . ... : --- .. . ... : ... .. . ... : ... .. . ... : ... .. . ... : ... .. . ... : ... .. . ...
ROW 1E : ... .. . ... : ... .. . ... : C-2 00 . ... : F-# 02 7 ... : ... .. . ... : ... .. . ... : ... .. . ... : A#3 07 . ...
ROW 1F : ... .. . ... : ... .. . ... : --- .. . ... : ... .. . ... : ... .. . ... : ... .. . ... : ... .. . ... : ... .. . ...
ROW 20 : C-1 00 . ... : ... .. . ... : C-2 00 . ... : F-# 02 7 ... : ... .. . ... : ... .. . ... : ... .. . ... : G-3 07 . ...
ROW 21 : ... .. . ... : ... .. . ... : --- .. . ... : ... .. . ... : ... .. . ... : ... .. . ... : ... .. . ... : ... .. . ...
ROW 22 : ... .. . ... : ... .. . ... : C-2 00 . ... : F-# 02 8 ... : ... .. . ... : ... .. . ... : ... .. . ... : ... .. . ...
ROW 23 : ... .. . ... : ... .. . ... : --- .. . ... : ... .. . ... : ... .. . ... : ... .. . ... : ... .. . ... : ... .. . ...
ROW 24 : ... .. . ... : ... .. . ... : C-2 00 . ... : F-# 02 8 ... : ... .. . ... : ... .. . ... : ... .. . ... : F-3 07 . ...
ROW 25 : ... .. . ... : ... .. . ... : --- .. . ... : ... .. . ... : ... .. . ... : ... .. . ... : ... .. . ... : ... .. . ...
ROW 26 : ... .. . ... : ... .. . ... : C-2 00 . ... : F-# 02 9 ... : ... .. . ... : ... .. . ... : ... .. . ... : D#3 07 . ...
ROW 27 : ... .. . ... : ... .. . ... : --- .. . ... : ... .. . ... : ... .. . ... : ... .. . ... : ... .. . ... : ... .. . ...
ROW 28 : B-0 00 . ... : ... .. . ... : B-1 00 . ... : 5-# 03 C ... : ... .. . ... : G-3 08 . ... : B-3 08 . ... : D-3 07 . ...
ROW 29 : ... .. . ... : ... .. . ... : --- .. . ... : ... .. . ... : ... .. . ... : ... .. . ... : ... .. . ... : ... .. . ...
ROW 2A : ... .. . ... : ... .. . ... : B-1 00 . ... : ... .. . ... : ... .. . ... : ... .. . ... : ... .. . ... : ... .. . ...
ROW 2B : ... .. . ... : ... .. . ... : --- .. . ... : ... .. . ... : ... .. . ... : ... .. . ... : ... .. . ... : ... .. . ...
ROW 2C : ... .. . ... : ... .. . ... : B-1 00 . ... : F-# 02 6 ... : ... .. . ... : ... .. . ... : ... .. . ... : B-2 07 . ...
ROW 2D : ... .. . ... : ... .. . ... : --- .. . ... : ... .. . ... : ... .. . ... : ... .. . ... : ... .. . ... : ... .. . ...
ROW 2E : ... .. . ... : ... .. . ... : B-1 00 . ... : F-# 02 7 ... : ... .. . ... : ... .. . ... : ... .. . ... : D-3 07 . ...
ROW 2F : ... .. . ... : ... .. . ... : --- .. . ... : ... .. . ... : ... .. . ... : ... .. . ... : ... .. . ... : ... .. . ...
ROW 30 : C-1 00 . ... : ... .. . ... : C-2 00 . ... : F-# 02 7 ... : ... .. . ... : G-3 08 . ... : C-4 08 . ... : D#3 07 . ...
ROW 31 : ... .. . ... : ... .. . ... : --- .. . ... : ... .. . ... : ... .. . ... : ... .. . ... : ... .. . ... : ... .. . ...
ROW 32 : ... .. . ... : ... .. . ... : C-2 00 . ... : F-# 02 8 ... : ... .. . ... : ... .. . ... : ... .. . ... : D-3 07 . ...
ROW 33 : ... .. . ... : ... .. . ... : --- .. . ... : ... .. . ... : ... .. . ... : ... .. . ... : ... .. . ... : ... .. . ...
ROW 34 : ... .. . ... : ... .. . ... : C-2 00 . ... : F-# 02 8 ... : ... .. . ... : ... .. . ... : ... .. . ... : C-3 07 . ...
ROW 35 : ... .. . ... : ... .. . ... : --- .. . ... : ... .. . ... : ... .. . ... : ... .. . ... : ... .. . ... : ... .. . ...
ROW 36 : ... .. . ... : ... .. . ... : C-2 00 . ... : 0-# 03 9 ... : ... .. . ... : ... .. . ... : ... .. . ... : D-3 07 . ...
ROW 37 : ... .. . ... : ... .. . ... : --- .. . ... : ... .. . ... : ... .. . ... : ... .. . ... : ... .. . ... : ... .. . ...
ROW 38 : ... .. . ... : ... .. . ... : C-2 00 . ... : 5-# 03 C ... : ... .. . ... : F-3 08 . ... : G#3 08 . ... : D#3 07 . ...
ROW 39 : ... .. . ... : ... .. . ... : --- .. . ... : ... .. . ... : ... .. . ... : ... .. . ... : ... .. . ... : ... .. . ...
ROW 3A : ... .. . ... : ... .. . ... : C-2 00 . ... : ... .. . ... : ... .. . ... : ... .. . ... : ... .. . ... : F-3 07 . ...
ROW 3B : ... .. . ... : ... .. . ... : --- .. . ... : ... .. . ... : ... .. . ... : ... .. . ... : ... .. . ... : ... .. . ...
ROW 3C : ... .. . ... : ... .. . ... : C-2 00 . ... : F-# 02 6 ... : ... .. . ... : ... .. . ... : ... .. . ... : G-3 07 . ...
ROW 3D : ... .. . ... : ... .. . ... : --- .. . ... : ... .. . ... : ... .. . ... : ... .. . ... : ... .. . ... : ... .. . ...
ROW 3E : ... .. . ... : ... .. . ... : C-2 00 . ... : F-# 02 7 ... : ... .. . ... : ... .. . ... : ... .. . ... : G#3 07 . ...
ROW 3F : ... .. . ... : ... .. . ... : --- .. . ... : ... .. . ... : ... .. . ... : ... .. . ... : ... .. . ... : ... .. . ...
ROW 40 : ... .. . ... : ... .. . ... : C-2 00 . ... : F-# 02 7 ... : ... .. . ... : C-2 08 . ... : D#3 08 . ... : G-3 07 . ...
ROW 41 : ... .. . ... : ... .. . ... : --- .. . ... : ... .. . ... : ... .. . ... : ... .. . ... : ... .. . ... : ... .. . ...
ROW 42 : ... .. . ... : ... .. . ... : C-2 00 . ... : F-# 02 8 ... : ... .. . ... : ... .. . ... : ... .. . ... : ... .. . ...
ROW 43 : ... .. . ... : ... .. . ... : --- .. . ... : ... .. . ... : ... .. . ... : ... .. . ... : ... .. . ... : ... .. . ...
ROW 44 : ... .. . ... : ... .. . ... : C-2 00 . ... : F-# 02 8 ... : ... .. . ... : ... .. . ... : ... .. . ... : ... .. . ...
ROW 45 : ... .. . ... : ... .. . ... : --- .. . ... : ... .. . ... : ... .. . ... : ... .. . ... : ... .. . ... : ... .. . ...
ROW 46 : ... .. . ... : ... .. . ... : C-2 00 . ... : F-# 02 9 ... : ... .. . ... : ... .. . ... : ... .. . ... : ... .. . ...
ROW 47 : ... .. . ... : ... .. . ... : --- .. . ... : ... .. . ... : ... .. . ... : ... .. . ... : ... .. . ... : ... .. . ...
ROW 48 : ... .. . ... : ... .. . ... : C-2 00 . ... : 5-# 03 C ... : ... .. . ... : C-2 08 . ... : F-2 08 . ... : ... .. . ...
ROW 49 : ... .. . ... : ... .. . ... : --- .. . ... : ... .. . ... : ... .. . ... : ... .. . ... : ... .. . ... : ... .. . ...
ROW 4A : ... .. . ... : ... .. . ... : C-2 00 . ... : ... .. . ... : ... .. . ... : ... .. . ... : ... .. . ... : ... .. . ...
ROW 4B : ... .. . ... : ... .. . ... : --- .. . ... : ... .. . ... : ... .. . ... : ... .. . ... : ... .. . ... : ... .. . ...
ROW 4C : ... .. . ... : ... .. . ... : C-2 00 . ... : F-# 02 6 ... : ... .. . ... : ... .. . ... : ... .. . ... : F-3 07 . ...
ROW 4D : ... .. . ... : ... .. . ... : --- .. . ... : ... .. . ... : ... .. . ... : ... .. . ... : ... .. . ... : ... .. . ...
ROW 4E : ... .. . ... : ... .. . ... : C-2 00 . ... : F-# 02 7 ... : ... .. . ... : ... .. . ... : ... .. . ... : ... .. . ...
ROW 4F : ... .. . ... : ... .. . ... : --- .. . ... : ... .. . ... : ... .. . ... : ... .. . ... : ... .. . ... : ... .. . ...
ROW 50 : ... .. . ... : ... .. . ... : C-2 00 . ... : F-# 02 7 ... : ... .. . ... : C-2 08 . ... : D#2 08 . ... : D#3 07 . ...
ROW 51 : ... .. . ... : ... .. . ... : --- .. . ... : ... .. . ... : ... .. . ... : ... .. . ... : ... .. . ... : ... .. . ...
ROW 52 : ... .. . ... : ... .. . ... : C-2 00 . ... : F-# 02 8 ... : ... .. . ... : ... .. . ... : ... .. . ... : ... .. . ...
ROW 53 : ... .. . ... : ... .. . ... : --- .. . ... : ... .. . ... : ... .. . ... : ... .. . ... : ... .. . ... : ... .. . ...
ROW 54 : ... .. . ... : ... .. . ... : C-2 00 . ... : F-# 02 8 ... : ... .. . ... : ... .. . ... : ... .. . ... : ... .. . ...
ROW 55 : ... .. . ... : ... .. . ... : --- .. . ... : ... .. . ... : ... .. . ... : ... .. . ... : ... .. . ... : ... .. . ...
ROW 56 : ... .. . ... : ... .. . ... : C-2 00 . ... : 0-# 03 9 ... : ... .. . ... : ... .. . ... : ... .. . ... : ... .. . ...
ROW 57 : ... .. . ... : ... .. . ... : --- .. . ... : ... .. . ... : ... .. . ... : ... .. . ... : ... .. . ... : ... .. . ...
ROW 58 : ... .. . ... : ... .. . ... : C-2 00 . ... : 5-# 03 C ... : ... .. . ... : C-2 08 . ... : D-2 08 . ... : ... .. . ...
ROW 59 : ... .. . ... : ... .. . ... : --- .. . ... : ... .. . ... : ... .. . ... : ... .. . ... : ... .. . ... : ... .. . ...
ROW 5A : ... .. . ... : ... .. . ... : C-2 00 . ... : ... .. . ... : ... .. . ... : ... .. . ... : ... .. . ... : D-3 07 . ...
ROW 5B : ... .. . ... : ... .. . ... : --- .. . ... : ... .. . ... : ... .. . ... : ... .. . ... : ... .. . ... : ... .. . ...
ROW 5C : ... .. . ... : ... .. . ... : C-2 00 . ... : F-# 02 6 ... : ... .. . ... : ... .. . ... : ... .. . ... : D#3 07 . ...
ROW 5D : ... .. . ... : ... .. . ... : --- .. . ... : ... .. . ... : ... .. . ... : ... .. . ... : ... .. . ... : ... .. . ...
ROW 5E : ... .. . ... : ... .. . ... : C-2 00 . ... : F-# 02 7 ... : ... .. . ... : ... .. . ... : ... .. . ... : F-3 07 . ...
ROW 5F : ... .. . ... : ... .. . ... : --- .. . ... : ... .. . ... : ... .. . ... : ... .. . ... : ... .. . ... : ... .. . ...
ROW 60 : ... .. . ... : ... .. . ... : C-2 00 . ... : F-# 02 7 ... : ... .. . ... : C-2 08 . ... : D#2 08 . ... : G-3 07 . ...
ROW 61 : ... .. . ... : ... .. . ... : --- .. . ... : ... .. . ... : ... .. . ... : ... .. . ... : ... .. . ... : ... .. . ...
ROW 62 : ... .. . ... : ... .. . ... : C-2 00 . ... : F-# 02 8 ... : ... .. . ... : ... .. . ... : ... .. . ... : ... .. . ...
ROW 63 : ... .. . ... : ... .. . ... : --- .. . ... : ... .. . ... : ... .. . ... : ... .. . ... : ... .. . ... : ... .. . ...
ROW 64 : ... .. . ... : ... .. . ... : C-2 00 . ... : F-# 02 8 ... : ... .. . ... : ... .. . ... : ... .. . ... : ... .. . ...
ROW 65 : ... .. . ... : ... .. . ... : --- .. . ... : ... .. . ... : ... .. . ... : ... .. . ... : ... .. . ... : ... .. . ...
ROW 66 : ... .. . ... : ... .. . ... : C-2 00 . ... : F-# 02 9 ... : ... .. . ... : ... .. . ... : ... .. . ... : ... .. . ...
ROW 67 : ... .. . ... : ... .. . ... : --- .. . ... : ... .. . ... : ... .. . ... : ... .. . ... : ... .. . ... : ... .. . ...
ROW 68 : ... .. . ... : ... .. . ... : C-2 00 . ... : 5-# 03 C ... : ... .. . ... : C-2 08 . ... : F-3 08 . ... : G-3 07 . ...
ROW 69 : ... .. . ... : ... .. . ... : --- .. . ... : ... .. . ... : ... .. . ... : ... .. . ... : ... .. . ... : ... .. . ...
ROW 6A : ... .. . ... : ... .. . ... : C-2 00 . ... : ... .. . ... : ... .. . ... : ... .. . ... : ... .. . ... : ... .. . ...
ROW 6B : ... .. . ... : ... .. . ... : --- .. . ... : ... .. . ... : ... .. . ... : ... .. . ... : ... .. . ... : ... .. . ...
ROW 6C : ... .. . ... : ... .. . ... : C-2 00 . ... : F-# 02 6 ... : ... .. . ... : === .. . ... : === .. . ... : === .. . ...
ROW 6D : ... .. . ... : ... .. . ... : --- .. . ... : ... .. . ... : ... .. . ... : ... .. . ... : ... .. . ... : ... .. . ...
ROW 6E : ... .. . ... : ... .. . ... : C-2 00 . ... : F-# 02 7 ... : ... .. . ... : ... .. . ... : ... .. . ... : ... .. . ...
ROW 6F : ... .. . ... : ... .. . ... : --- .. . ... : ... .. . ... : ... .. . ... : ... .. . ... : ... .. . ... : ... .. . ...
ROW 70 : ... .. . ... : ... .. . ... : C-2 00 . ... : F-# 02 7 ... : ... .. . ... : C-2 08 . ... : D#3 08 . ... : G-3 07 . ...
ROW 71 : ... .. . ... : ... .. . ... : --- .. . ... : ... .. . ... : ... .. . ... : ... .. . ... : ... .. . ... : ... .. . ...
ROW 72 : ... .. . ... : ... .. . ... : C-2 00 . ... : F-# 02 8 ... : ... .. . ... : ... .. . ... : ... .. . ... : ... .. . ...
ROW 73 : ... .. . ... : ... .. . ... : --- .. . ... : ... .. . ... : ... .. . ... : ... .. . ... : ... .. . ... : ... .. . ...
ROW 74 : ... .. . ... : ... .. . ... : C-2 00 . ... : F-# 02 8 ... : ... .. . ... : === .. . ... : === .. . ... : === .. . ...
ROW 75 : ... .. . ... : ... .. . ... : --- .. . ... : ... .. . ... : ... .. . ... : ... .. . ... : ... .. . ... : ... .. . ...
ROW 76 : ... .. . ... : ... .. . ... : C-2 00 . ... : 0-# 03 9 ... : ... .. . ... : ... .. . ... : ... .. . ... : ... .. . ...
ROW 77 : ... .. . ... : ... .. . ... : --- .. . ... : ... .. . ... : ... .. . ... : ... .. . ... : ... .. . ... : ... .. . ...
ROW 78 : B-0 00 . ... : ... .. . ... : D-2 00 . ... : 5-# 03 C ... : ... .. . ... : G-2 08 . ... : B-2 08 . ... : D-3 07 . ...
ROW 79 : ... .. . ... : ... .. . ... : --- .. . ... : ... .. . ... : ... .. . ... : ... .. . ... : ... .. . ... : ... .. . ...
ROW 7A : ... .. . ... : ... .. . ... : D-2 00 . ... : ... .. . ... : ... .. . ... : ... .. . ... : ... .. . ... : ... .. . ...
ROW 7B : ... .. . ... : ... .. . ... : --- .. . ... : ... .. . ... : ... .. . ... : ... .. . ... : ... .. . ... : ... .. . ...
ROW 7C : ... .. . ... : ... .. . ... : D-2 00 . ... : F-# 02 6 ... : ... .. . ... : === .. . ... : === .. . ... : === .. . ...
ROW 7D : ... .. . ... : ... .. . ... : --- .. . ... : ... .. . ... : ... .. . ... : ... .. . ... : ... .. . ... : ... .. . ...
ROW 7E : ... .. . ... : ... .. . ... : D-2 00 . ... : F-# 02 7 ... : ... .. . ... : ... .. . ... : ... .. . ... : ... .. . ...
ROW 7F : ... .. . ... : ... .. . ... : --- .. . ... : ... .. . ... : ... .. . ... : ... .. . ... : ... .. . ... : ... .. . ...

PATTERN 03
ROW 00 : C-1 00 1 ... : ... .. . ... : C-2 00 . ... : F-# 02 7 ... : ... .. . ... : C-2 08 . ... : G-2 08 . ... : D#3 07 . ...
ROW 01 : ... .. . ... : ... .. . ... : --- .. . ... : ... .. . ... : ... .. . ... : ... .. . ... : ... .. . ... : ... .. . ...
ROW 02 : ... .. 2 ... : ... .. . ... : C-2 00 . ... : F-# 02 6 ... : ... .. . ... : ... .. . ... : ... .. . ... : ... .. . ...
ROW 03 : ... .. . ... : ... .. . ... : --- .. . ... : ... .. . ... : ... .. . ... : ... .. . ... : ... .. . ... : ... .. . ...
ROW 04 : ... .. 3 ... : ... .. . ... : C-2 00 . ... : F-# 02 7 ... : ... .. . ... : ... .. . ... : ... .. . ... : ... .. . ...
ROW 05 : ... .. . ... : ... .. . ... : --- .. . ... : ... .. . ... : ... .. . ... : ... .. . ... : ... .. . ... : ... .. . ...
ROW 06 : ... .. 4 ... : ... .. . ... : C-2 00 . ... : F-# 02 8 ... : ... .. . ... : ... .. . ... : ... .. . ... : ... .. . ...
ROW 07 : ... .. . ... : ... .. . ... : --- .. . ... : ... .. . ... : ... .. . ... : ... .. . ... : ... .. . ... : ... .. . ...
ROW 08 : ... .. 5 ... : ... .. . ... : C-2 00 . ... : 5-# 03 C ... : ... .. . ... : ... .. . ... : ... .. . ... : D-3 07 . ...
ROW 09 : ... .. . ... : ... .. . ... : --- .. . ... : ... .. . ... : ... .. . ... : ... .. . ... : ... .. . ... : ... .. . ...
ROW 0A : ... .. 6 ... : ... .. . ... : C-2 00 . ... : ... .. . ... : ... .. . ... : ... .. . ... : ... .. . ... : ... .. . ...
ROW 0B : ... .. . ... : ... .. . ... : --- .. . ... : ... .. . ... : ... .. . ... : ... .. . ... : ... .. . ... : ... .. . ...
ROW 0C : ... .. 7 ... : ... .. . ... : C-2 00 . ... : F-# 02 6 ... : ... .. . ... : ... .. . ... : ... .. . ... : C-3 07 . ...
ROW 0D : ... .. . ... : ... .. . ... : --- .. . ... : ... .. . ... : ... .. . ... : ... .. . ... : ... .. . ... : ... .. . ...
ROW 0E : ... .. 8 ... : ... .. . ... : C-2 00 . ... : F-# 02 7 ... : ... .. . ... : ... .. . ... : ... .. . ... : ... .. . ...
ROW 0F : ... .. . ... : ... .. . ... : --- .. . ... : ... .. . ... : ... .. . ... : ... .. . ... : ... .. . ... : ... .. . ...
ROW 10 : ... .. . ... : ... .. . ... : C-2 00 . ... : F-# 02 7 ... : ... .. . ... : C-2 08 . ... : F-2 08 . ... : F-3 07 . ...
ROW 11 : ... .. . ... : ... .. . ... : --- .. . ... : ... .. . ... : ... .. . ... : ... .. . ... : ... .. . ... : ... .. . ...
ROW 12 : ... .. . ... : ... .. . ... : C-2 00 . ... : F-# 02 8 ... : ... .. . ... : ... .. . ... : ... .. . ... : ... .. . ...
ROW 13 : ... .. . ... : ... .. . ... : --- .. . ... : ... .. . ... : ... .. . ... : ... .. . ... : ... .. . ... : ... .. . ...
ROW 14 : ... .. . ... : ... .. . ... : C-2 00 . ... : F-# 02 8 ... : ... .. . ... : ... .. . ... : ... .. . ... : F-3 07 . ...
ROW 15 : ... .. . ... : ... .. . ... : --- .. . ... : ... .. . ... : ... .. . ... : ... .. . ... : ... .. . ... : ... .. . ...
ROW 16 : ... .. . ... : ... .. . ... : C-2 00 . ... : 0-# 03 9 ... : ... .. . ... : ... .. . ... : ... .. . ... : G-3 07 . ...
ROW 17 : ... .. . ... : ... .. . ... : --- .. . ... : ... .. . ... : ... .. . ... : ... .. . ... : ... .. . ... : ... .. . ...
ROW 18 : ... .. . ... : ... .. . ... : C-2 00 . ... : 5-# 03 C ... : ... .. . ... : ... .. . ... : ... .. . ... : G#3 07 . ...
ROW 19 : ... .. . ... : ... .. . ... : --- .. . ... : ... .. . ... : ... .. . ... : ... .. . ... : ... .. . ... : ... .. . ...
ROW 1A : ... .. . ... : ... .. . ... : C-2 00 . ... : ... .. . ... : ... .. . ... : ... .. . ... : ... .. . ... : ... .. . ...
ROW 1B : ... .. . ... : ... .. . ... : --- .. . ... : ... .. . ... : ... .. . ... : ... .. . ... : ... .. . ... : ... .. . ...
ROW 1C : ... .. . ... : ... .. . ... : C-2 00 . ... : F-# 02 6 ... : ... .. . ... : ... .. . ... : ... .. . ... : F-3 07 . ...
ROW 1D : ... .. . ... : ... .. . ... : --- .. . ... : ... .. . ... : ... .. . ... : ... .. . ... : ... .. . ... : ... .. . ...
ROW 1E : ... .. . ... : ... .. . ... : C-2 00 . ... : F-# 02 7 ... : ... .. . ... : ... .. . ... : ... .. . ... : ... .. . ...
ROW 1F : ... .. . ... : ... .. . ... : --- .. . ... : ... .. . ... : ... .. . ... : ... .. . ... : ... .. . ... : ... .. . ...
ROW 20 : ... .. . ... : ... .. . ... : C-2 00 . ... : F-# 02 7 ... : ... .. . ... : C-2 08 . ... : D#2 08 . ... : G-3 07 . ...
ROW 21 : ... .. . ... : ... .. . ... : --- .. . ... : ... .. . ... : ... .. . ... : ... .. . ... : ... .. . ... : ... .. . ...
ROW 22 : ... .. . ... : ... .. . ... : C-2 00 . ... : F-# 02 8 ... : ... .. . ... : ... .. . ... : ... .. . ... : ... .. . ...
ROW 23 : ... .. . ... : ... .. . ... : --- .. . ... : ... .. . ... : ... .. . ... : ... .. . ... : ... .. . ... : ... .. . ...
ROW 24 : ... .. . ... : ... .. . ... : C-2 00 . ... : F-# 02 8 ... : ... .. . ... : ... .. . ... : ... .. . ... : ... .. . ...
ROW 25 : ... .. . ... : ... .. . ... : --- .. . ... : ... .. . ... : ... .. . ... : ... .. . ... : ... .. . ... : ... .. . ...
ROW 26 : ... .. . ... : ... .. . ... : C-2 00 . ... : F-# 02 9 ... : ... .. . ... : ... .. . ... : ... .. . ... : D#3 07 . ...
ROW 27 : ... .. . ... : ... .. . ... : --- .. . ... : ... .. . ... : ... .. . ... : ... .. . ... : ... .. . ... : ... .. . ...
ROW 28 : ... .. . ... : ... .. . ... : B-1 00 . ... : 5-# 03 C ... : ... .. . ... : ... .. . ... : ... .. . ... : ... .. . ...
ROW 29 : ... .. . ... : ... .. . ... : --- .. . ... : ... .. . ... : ... .. . ... : ... .. . ... : ... .. . ... : ... .. . ...
ROW 2A : ... .. . ... : ... .. . ... : B-1 00 . ... : ... .. . ... : ... .. . ... : ... .. . ... : ... .. . ... : ... .. . ...
ROW 2B : ... .. . ... : ... .. . ... : --- .. . ... : ... .. . ... : ... .. . ... : ... .. . ... : ... .. . ... : ... .. . ...
ROW 2C : ... .. . ... : ... .. . ... : B-1 00 . ... : F-# 02 6 ... : ... .. . ... : ... .. . ... : ... .. . ... : D-3 07 . ...
ROW 2D : ... .. . ... : ... .. . ... : --- .. . ... : ... .. . ... : ... .. . ... : ... .. . ... : ... .. . ... : ... .. . ...
ROW 2E : ... .. . ... : ... .. . ... : B-1 00 . ... : F-# 02 7 ... : ... .. . ... : ... .. . ... : ... .. . ... : ... .. . ...
ROW 2F : ... .. . ... : ... .. . ... : --- .. . ... : ... .. . ... : ... .. . ... : ... .. . ... : ... .. . ... : ... .. . ...
ROW 30 : ... .. . ... : ... .. . ... : C-2 00 . ... : F-# 02 7 ... : ... .. . ... : C-2 08 . ... : F-2 08 . ... : C-3 07 . ...
ROW 31 : ... .. . ... : ... .. . ... : --- .. . ... : ... .. . ... : ... .. . ... : ... .. . ... : ... .. . ... : ... .. . ...
ROW 32 : ... .. . ... : ... .. . ... : C-2 00 . ... : F-# 02 8 ... : ... .. . ... : ... .. . ... : ... .. . ... : ... .. . ...
ROW 33 : ... .. . ... : ... .. . ... : --- .. . ... : ... .. . ... : ... .. . ... : ... .. . ... : ... .. . ... : ... .. . ...
ROW 34 : ... .. . ... : ... .. . ... : C-2 00 . ... : F-# 02 8 ... : ... .. . ... : ... .. . ... : ... .. . ... : ... .. . ...
ROW 35 : ... .. . ... : ... .. . ... : --- .. . ... : ... .. . ... : ... .. . ... : ... .. . ... : ... .. . ... : ... .. . ...
ROW 36 : ... .. . ... : ... .. . ... : C-2 00 . ... : 0-# 03 9 ... : ... .. . ... : ... .. . ... : ... .. . ... : ... .. . ...
ROW 37 : ... .. . ... : ... .. . ... : --- .. . ... : ... .. . ... : ... .. . ... : ... .. . ... : ... .. . ... : ... .. . ...
ROW 38 : ... .. . ... : ... .. . ... : C-2 00 . ... : 5-# 03 C ... : ... .. . ... : ... .. . ... : ... .. . ... : C-3 07 . ...
ROW 39 : ... .. . ... : ... .. . ... : --- .. . ... : ... .. . ... : ... .. . ... : ... .. . ... : ... .. . ... : ... .. . ...
ROW 3A : ... .. . ... : ... .. . ... : C-2 00 . ... : ... .. . ... : ... .. . ... : ... .. . ... : ... .. . ... : ... .. . ...
ROW 3B : ... .. . ... : ... .. . ... : --- .. . ... : ... .. . ... : ... .. . ... : ... .. . ... : ... .. . ... : ... .. . ...
ROW 3C : ... .. . ... : ... .. . ... : C-2 00 . ... : F-# 02 6 ... : ... .. . ... : ... .. . ... : ... .. . ... : D-3 07 . ...
ROW 3D : ... .. . ... : ... .. . ... : --- .. . ... : ... .. . ... : ... .. . ... : ... .. . ... : ... .. . ... : ... .. . ...
ROW 3E : ... .. . ... : ... .. . ... : C-2 00 . ... : F-# 02 7 ... : ... .. . ... : ... .. . ... : ... .. . ... : ... .. . ...
ROW 3F : ... .. . ... : ... .. . ... : --- .. . ... : ... .. . ... : ... .. . ... : ... .. . ... : ... .. . ... : ... .. . ...
ROW 40 : B-0 00 . ... : ... .. . ... : C-2 00 . ... : F-# 02 7 ... : ... .. . ... : D-2 08 . ... : G-2 08 . ... : B-2 07 . ...
ROW 41 : ... .. . ... : ... .. . ... : --- .. . ... : ... .. . ... : ... .. . ... : ... .. . ... : ... .. . ... : ... .. . ...
ROW 42 : ... .. . ... : ... .. . ... : C-2 00 . ... : F-# 02 8 ... : ... .. . ... : ... .. . ... : ... .. . ... : ... .. . ...
ROW 43 : ... .. . ... : ... .. . ... : --- .. . ... : ... .. . ... : ... .. . ... : ... .. . ... : ... .. . ... : ... .. . ...
ROW 44 : ... .. . ... : ... .. . ... : C-2 00 . ... : F-# 02 8 ... : ... .. . ... : ... .. . ... : ... .. . ... : ... .. . ...
ROW 45 : ... .. . ... : ... .. . ... : --- .. . ... : ... .. . ... : ... .. . ... : ... .. . ... : ... .. . ... : ... .. . ...
ROW 46 : ... .. . ... : ... .. . ... : C-2 00 . ... : F-# 02 9 ... : ... .. . ... : ... .. . ... : ... .. . ... : ... .. . ...
ROW 47 : ... .. . ... : ... .. . ... : --- .. . ... : ... .. . ... : ... .. . ... : ... .. . ... : ... .. . ... : ... .. . ...
ROW 48 : ... .. . ... : ... .. . ... : C-2 00 . ... : 5-# 03 C ... : ... .. . ... : ... .. . ... : ... .. . ... : ... .. . ...
ROW 49 : ... .. . ... : ... .. . ... : --- .. . ... : ... .. . ... : ... .. . ... : ... .. . ... : ... .. . ... : ... .. . ...
ROW 4A : ... .. . ... : ... .. . ... : C-2 00 . ... : ... .. . ... : ... .. . ... : ... .. . ... : ... .. . ... : ... .. . ...
ROW 4B : ... .. . ... : ... .. . ... : --- .. . ... : ... .. . ... : ... .. . ... : ... .. . ... : ... .. . ... : ... .. . ...
ROW 4C : ... .. . ... : ... .. . ... : C-2 00 . ... : F-# 02 6 ... : ... .. . ... : ... .. . ... : ... .. . ... : ... .. . ...
ROW 4D : ... .. . ... : ... .. . ... : --- .. . ... : ... .. . ... : ... .. . ... : ... .. . ... : ... .. . ... : ... .. . ...
ROW 4E : ... .. . ... : ... .. . ... : C-2 00 . ... : F-# 02 7 ... : ... .. . ... : ... .. . ... : ... .. . ... : ... .. . ...
ROW 4F : ... .. . ... : ... .. . ... : --- .. . ... : ... .. . ... : ... .. . ... : ... .. . ... : ... .. . ... : ... .. . ...
ROW 50 : ... .. . ... : ... .. . ... : C-2 00 . ... : F-# 02 7 ... : ... .. . ... : D-2 08 . ... : G#2 08 . ... : B-2 07 . ...
ROW 51 : ... .. . ... : ... .. . ... : --- .. . ... : ... .. . ... : ... .. . ... : ... .. . ... : ... .. . ... : ... .. . ...
ROW 52 : ... .. . ... : ... .. . ... : C-2 00 . ... : F-# 02 8 ... : ... .. . ... : ... .. . ... : ... .. . ... : ... .. . ...
ROW 53 : ... .. . ... : ... .. . ... : --- .. . ... : ... .. . ... : ... .. . ... : ... .. . ... : ... .. . ... : ... .. . ...
ROW 54 : ... .. . ... : ... .. . ... : C-2 00 . ... : F-# 02 8 ... : ... .. . ... : ... .. . ... : ... .. . ... : ... .. . ...
ROW 55 : ... .. . ... : ... .. . ... : --- .. . ... : ... .. . ... : ... .. . ... : ... .. . ... : ... .. . ... : ... .. . ...
ROW 56 : ... .. . ... : ... .. . ... : C-2 00 . ... : 0-# 03 9 ... : ... .. . ... : ... .. . ... : ... .. . ... : C-3 07 . ...
ROW 57 : ... .. . ... : ... .. . ... : --- .. . ... : ... .. . ... : ... .. . ... : ... .. . ... : ... .. . ... : ... .. . ...
ROW 58 : ... .. . ... : ... .. . ... : C-2 00 . ... : 5-# 03 C ... : ... .. . ... : ... .. . ... : ... .. . ... : ... .. . ...
ROW 59 : ... .. . ... : ... .. . ... : --- .. . ... : ... .. . ... : ... .. . ... : ... .. . ... : ... .. . ... : ... .. . ...
ROW 5A : ... .. . ... : ... .. . ... : C-2 00 . ... : ... .. . ... : ... .. . ... : ... .. . ... : ... .. . ... : ... .. . ...
ROW 5B : ... .. . ... : ... .. . ... : --- .. . ... : ... .. . ... : ... .. . ... : ... .. . ... : ... .. . ... : ... .. . ...
ROW 5C : ... .. . ... : ... .. . ... : C-2 00 . ... : F-# 02 6 ... : ... .. . ... : ... .. . ... : ... .. . ... : D-3 07 . ...
ROW 5D : ... .. . ... : ... .. . ... : --- .. . ... : ... .. . ... : ... .. . ... : ... .. . ... : ... .. . ... : ... .. . ...
ROW 5E : ... .. . ... : ... .. . ... : C-2 00 . ... : F-# 02 7 ... : ... .. . ... : ... .. . ... : ... .. . ... : ... .. . ...
ROW 5F : ... .. . ... : ... .. . ... : --- .. . ... : ... .. . ... : ... .. . ... : ... .. . ... : ... .. . ... : ... .. . ...
ROW 60 : C-1 00 . ... : ... .. . ... : C-2 00 . ... : F-# 02 7 ... : ... .. . ... : D-2 08 . ... : G-2 08 . ... : D-3 07 . ...
ROW 61 : ... .. . ... : ... .. . ... : --- .. . ... : ... .. . ... : ... .. . ... : ... .. . ... : ... .. . ... : ... .. . ...
ROW 62 : ... .. . ... : ... .. . ... : C-2 00 . ... : F-# 02 8 ... : ... .. . ... : ... .. . ... : F#2 08 . ... : D#3 07 . ...
ROW 63 : ... .. . ... : ... .. . ... : --- .. . ... : ... .. . ... : ... .. . ... : ... .. . ... : ... .. . ... : ... .. . ...
ROW 64 : ... .. . ... : ... .. . ... : C-2 00 . ... : F-# 02 8 ... : ... .. . ... : ... .. . ... : F-2 08 . ... : F-3 07 . ...
ROW 65 : ... .. . ... : ... .. . ... : --- .. . ... : ... .. . ... : ... .. . ... : ... .. . ... : ... .. . ... : ... .. . ...
ROW 66 : ... .. . ... : ... .. . ... : C-2 00 . ... : F-# 02 9 ... : ... .. . ... : ... .. . ... : E-2 08 . ... : D#3 07 . ...
ROW 67 : ... .. . ... : ... .. . ... : --- .. . ... : ... .. . ... : ... .. . ... : ... .. . ... : ... .. . ... : ... .. . ...
ROW 68 : ... .. . ... : ... .. . ... : C-2 00 . ... : 5-# 03 C ... : ... .. . ... : ... .. . ... : D#2 08 . ... : A#3 07 . ...
ROW 69 : ... .. . ... : ... .. . ... : --- .. . ... : ... .. . ... : ... .. . ... : ... .. . ... : ... .. . ... : ... .. . ...
ROW 6A : ... .. . ... : ... .. . ... : C-2 00 . ... : ... .. . ... : ... .. . ... : ... .. . ... : D-2 08 . ... : C-4 07 . ...
ROW 6B : ... .. . ... : ... .. . ... : --- .. . ... : ... .. . ... : ... .. . ... : ... .. . ... : ... .. . ... : ... .. . ...
ROW 6C : ... .. . ... : ... .. . ... : C-2 00 . ... : F-# 02 6 ... : ... .. . ... : ... .. . ... : C#2 08 . ... : G#3 07 . ...
ROW 6D : ... .. . ... : ... .. . ... : --- .. . ... : ... .. . ... : ... .. . ... : ... .. . ... : ... .. . ... : ... .. . ...
ROW 6E : ... .. . ... : ... .. . ... : C-2 00 . ... : F-# 02 7 ... : ... .. . ... : ... .. . ... : C-2 08 . ... : G-3 07 . ...
ROW 6F : ... .. . ... : ... .. . ... : --- .. . ... : ... .. . ... : ... .. . ... : ... .. . ... : ... .. . ... : ... .. . ...
ROW 70 : ... .. . ... : ... .. . ... : C-2 00 . ... : F-# 02 7 ... : ... .. . ... : C-2 08 . ... : C-2 08 . ... : G#3 07 . ...
ROW 71 : ... .. . ... : ... .. . ... : --- .. . ... : ... .. . ... : ... .. . ... : ... .. . ... : ... .. . ... : ... .. . ...
ROW 72 : ... .. . ... : ... .. . ... : C-2 00 . ... : F-# 02 8 ... : ... .. . ... : ... .. . ... : ... .. . ... : F-3 07 . ...
ROW 73 : ... .. . ... : ... .. . ... : --- .. . ... : ... .. . ... : ... .. . ... : ... .. . ... : ... .. . ... : ... .. . ...
ROW 74 : ... .. . ... : ... .. . ... : C-2 00 . ... : F-# 02 8 ... : ... .. . ... : ... .. . ... : ... .. . ... : D#3 07 . ...
ROW 75 : ... .. . ... : ... .. . ... : --- .. . ... : ... .. . ... : ... .. . ... : ... .. . ... : ... .. . ... : ... .. . ...
ROW 76 : ... .. . ... : ... .. . ... : C-2 00 . ... : 0-# 03 9 ... : ... .. . ... : ... .. . ... : ... .. . ... : F-3 07 . ...
ROW 77 : ... .. . ... : ... .. . ... : --- .. . ... : ... .. . ... : ... .. . ... : ... .. . ... : ... .. . ... : ... .. . ...
ROW 78 : ... .. . ... : ... .. . ... : D-2 00 . ... : 5-# 03 C ... : ... .. . ... : ... .. . ... : ... .. . ... : D-3 07 . ...
ROW 79 : ... .. . ... : ... .. . ... : --- .. . ... : ... .. . ... : ... .. . ... : ... .. . ... : ... .. . ... : ... .. . ...
ROW 7A : ... .. . ... : ... .. . ... : D-2 00 . ... : ... .. . ... : ... .. . ... : ... .. . ... : ... .. . ... : D#3 07 . ...
ROW 7B : ... .. . ... : ... .. . ... : --- .. . ... : ... .. . ... : ... .. . ... : ... .. . ... : ... .. . ... : ... .. . ...
ROW 7C : ... .. . ... : ... .. . ... : D-2 00 . ... : F-# 02 6 ... : ... .. . ... : ... .. . ... : ... .. . ... : D-3 07 . ...
ROW 7D : ... .. . ... : ... .. . ... : --- .. . ... : ... .. . ... : ... .. . ... : ... .. . ... : ... .. . ... : ... .. . ...
ROW 7E : ... .. . ... : ... .. . ... : D-2 00 . ... : F-# 02 7 ... : ... .. . ... : ... .. . ... : ... .. . ... : B-2 07 . ...
ROW 7F : ... .. . ... : ... .. . ... : --- .. . ... : ... .. . ... : ... .. . ... : ... .. . ... : ... .. . ... : ... .. . ...

PATTERN 04
ROW 00 : C-1 00 1 ... : ... .. . ... : C-2 00 . ... : 4-# 03 C ... : ... .. . ... : F-2 08 F ... : G#2 08 F ... : C-3 07 F ...
ROW 01 : ... .. . ... : ... .. . ... : --- .. . ... : ... .. . ... : ... .. . ... : ... .. . ... : ... .. . ... : ... .. . ...
ROW 02 : ... .. 2 ... : ... .. . ... : C-2 00 . ... : F-# 02 6 ... : ... .. . ... : ... .. . ... : ... .. . ... : ... .. . ...
ROW 03 : ... .. . ... : ... .. . ... : --- .. . ... : ... .. . ... : ... .. . ... : ... .. . ... : ... .. . ... : ... .. . ...
ROW 04 : ... .. 3 ... : ... .. . ... : C-2 00 . ... : F-# 02 7 ... : ... .. . ... : ... .. . ... : ... .. . ... : D#3 07 . ...
ROW 05 : ... .. . ... : ... .. . ... : --- .. . ... : ... .. . ... : ... .. . ... : ... .. . ... : ... .. . ... : ... .. . ...
ROW 06 : ... .. 4 ... : ... .. . ... : C-2 00 . ... : F-# 02 8 ... : ... .. . ... : ... .. . ... : ... .. . ... : F-3 07 . ...
ROW 07 : ... .. . ... : ... .. . ... : --- .. . ... : ... .. . ... : ... .. . ... : ... .. . ... : ... .. . ... : ... .. . ...
ROW 08 : ... .. 5 ... : ... .. . ... : C-2 00 . ... : 5-# 03 C ... : ... .. . ... : C-3 08 . ... : D#3 08 . ... : G-3 07 . ...
ROW 09 : ... .. . ... : ... .. . ... : --- .. . ... : ... .. . ... : ... .. . ... : ... .. . ... : ... .. . ... : ... .. . ...
ROW 0A : ... .. 6 ... : ... .. . ... : C-2 00 . ... : ... .. . ... : ... .. . ... : ... .. . ... : ... .. . ... : ... .. . ...
ROW 0B : ... .. . ... : ... .. . ... : --- .. . ... : ... .. . ... : ... .. . ... : ... .. . ... : ... .. . ... : ... .. . ...
ROW 0C : ... .. 7 ... : ... .. . ... : C-2 00 . ... : F-# 02 6 ... : ... .. . ... : C-3 09 8 ... : D#4 09 8 ... : ... .. . ...
ROW 0D : ... .. . ... : ... .. . ... : --- .. . ... : ... .. . ... : ... .. . ... : ... .. . ... : ... .. . ... : ... .. . ...
ROW 0E : ... .. 8 ... : ... .. . ... : C-2 00 . ... : F-# 02 7 ... : ... .. . ... : C-3 09 C ... : D#4 09 C ... : ... .. . ...
ROW 0F : ... .. . ... : ... .. . ... : --- .. . ... : ... .. . ... : ... .. . ... : ... .. . ... : ... .. . ... : ... .. . ...
ROW 10 : ... .. . ... : ... .. . ... : C-2 00 . ... : F-# 02 7 ... : ... .. . ... : C-3 09 F ... : D#4 09 F ... : ... .. . ...
ROW 11 : ... .. . ... : ... .. . ... : --- .. . ... : ... .. . ... : ... .. . ... : ... .. . ... : ... .. . ... : ... .. . ...
ROW 12 : ... .. . ... : ... .. . ... : C-2 00 . ... : F-# 02 8 ... : ... .. . ... : ... .. . ... : ... .. . ... : ... .. . ...
ROW 13 : ... .. . ... : ... .. . ... : --- .. . ... : ... .. . ... : ... .. . ... : ... .. . ... : ... .. . ... : C-3 07 . ...
ROW 14 : ... .. . ... : ... .. . ... : C-2 00 . ... : F-# 02 8 ... : ... .. . ... : ... .. . ... : ... .. . ... : ... .. . ...
ROW 15 : ... .. . ... : ... .. . ... : --- .. . ... : ... .. . ... : ... .. . ... : ... .. . ... : ... .. . ... : ... .. . ...
ROW 16 : ... .. . ... : ... .. . ... : C-2 00 . ... : 0-# 03 9 ... : ... .. . ... : ... .. . ... : ... .. . ... : ... .. . ...
ROW 17 : ... .. . ... : ... .. . ... : --- .. . ... : ... .. . ... : ... .. . ... : ... .. . ... : ... .. . ... : ... .. . ...
ROW 18 : ... .. . ... : ... .. . ... : C-2 00 . ... : 5-# 03 C ... : ... .. . ... : ... .. . ... : ... .. . ... : F-3 07 . ...
ROW 19 : ... .. . ... : ... .. . ... : --- .. . ... : ... .. . ... : ... .. . ... : ... .. . ... : ... .. . ... : ... .. . ...
ROW 1A : ... .. . ... : ... .. . ... : C-2 00 . ... : ... .. . ... : ... .. . ... : ... .. . ... : ... .. . ... : G-3 07 . ...
ROW 1B : ... .. . ... : ... .. . ... : --- .. . ... : ... .. . ... : ... .. . ... : ... .. . ... : ... .. . ... : ... .. . ...
ROW 1C : ... .. . ... : ... .. . ... : C-2 00 . ... : F-# 02 6 ... : ... .. . ... : ... .. . ... : ... .. . ... : G#3 07 . ...
ROW 1D : ... .. . ... : ... .. . ... : --- .. . ... : ... .. . ... : ... .. . ... : ... .. . ... : ... .. . ... : ... .. . ...
ROW 1E : ... .. . ... : ... .. . ... : C-2 00 . ... : F-# 02 7 ... : ... .. . ... : ... .. . ... : ... .. . ... : A#3 07 . ...
ROW 1F : ... .. . ... : ... .. . ... : --- .. . ... : ... .. . ... : ... .. . ... : ... .. . ... : ... .. . ... : ... .. . ...
ROW 20 : C-1 00 . ... : ... .. . ... : C-2 00 . ... : F-# 02 7 ... : ... .. . ... : ... .. . ... : ... .. . ... : C-4 07 . ...
ROW 21 : ... .. . ... : ... .. . ... : --- .. . ... : ... .. . ... : ... .. . ... : ... .. . ... : ... .. . ... : ... .. . ...
ROW 22 : ... .. . ... : ... .. . ... : C-2 00 . ... : F-# 02 8 ... : ... .. . ... : ... .. . ... : ... .. . ... : ... .. . ...
ROW 23 : ... .. . ... : ... .. . ... : --- .. . ... : ... .. . ... : ... .. . ... : ... .. . ... : ... .. . ... : ... .. . ...
ROW 24 : ... .. . ... : ... .. . ... : C-2 00 . ... : F-# 02 8 ... : ... .. . ... : ... .. . ... : ... .. . ... : A#3 07 . ...
ROW 25 : ... .. . ... : ... .. . ... : --- .. . ... : ... .. . ... : ... .. . ... : ... .. . ... : ... .. . ... : ... .. . ...
ROW 26 : ... .. . ... : ... .. . ... : C-2 00 . ... : F-# 02 9 ... : ... .. . ... : ... .. . ... : ... .. . ... : G#3 07 . ...
ROW 27 : ... .. . ... : ... .. . ... : --- .. . ... : ... .. . ... : ... .. . ... : ... .. . ... : ... .. . ... : ... .. . ...
ROW 28 : B-0 00 . ... : ... .. . ... : B-1 00 . ... : 5-# 03 C ... : ... .. . ... : G-3 08 . ... : B-3 08 . ... : G-3 07 . ...
ROW 29 : ... .. . ... : ... .. . ... : --- .. . ... : ... .. . ... : ... .. . ... : ... .. . ... : ... .. . ... : ... .. . ...
ROW 2A : ... .. . ... : ... .. . ... : B-1 00 . ... : ... .. . ... : ... .. . ... : ... .. . ... : ... .. . ... : ... .. . ...
ROW 2B : ... .. . ... : ... .. . ... : --- .. . ... : ... .. . ... : ... .. . ... : ... .. . ... : ... .. . ... : ... .. . ...
ROW 2C : ... .. . ... : ... .. . ... : B-1 00 . ... : F-# 02 6 ... : ... .. . ... : ... .. . ... : ... .. . ... : G-3 07 . ...
ROW 2D : ... .. . ... : ... .. . ... : --- .. . ... : ... .. . ... : ... .. . ... : ... .. . ... : ... .. . ... : ... .. . ...
ROW 2E : ... .. . ... : ... .. . ... : B-1 00 . ... : F-# 02 7 ... : ... .. . ... : ... .. . ... : ... .. . ... : F-3 07 . ...
ROW 2F : ... .. . ... : ... .. . ... : --- .. . ... : ... .. . ... : ... .. . ... : ... .. . ... : ... .. . ... : ... .. . ...
ROW 30 : C-1 00 . ... : ... .. . ... : C-2 00 . ... : F-# 02 7 ... : ... .. . ... : G-3 08 . ... : C-4 08 . ... : D#3 07 . ...
ROW 31 : ... .. . ... : ... .. . ... : --- .. . ... : ... .. . ... : ... .. . ... : ... .. . ... : ... .. . ... : ... .. . ...
ROW 32 : ... .. . ... : ... .. . ... : C-2 00 . ... : F-# 02 8 ... : ... .. . ... : ... .. . ... : ... .. . ... : D-3 07 . ...
ROW 33 : ... .. . ... : ... .. . ... : --- .. . ... : ... .. . ... : ... .. . ... : ... .. . ... : ... .. . ... : ... .. . ...
ROW 34 : ... .. . ... : ... .. . ... : C-2 00 . ... : F-# 02 8 ... : ... .. . ... : ... .. . ... : ... .. . ... : C-3 07 . ...
ROW 35 : ... .. . ... : ... .. . ... : --- .. . ... : ... .. . ... : ... .. . ... : ... .. . ... : ... .. . ... : ... .. . ...
ROW 36 : ... .. . ... : ... .. . ... : C-2 00 . ... : 0-# 03 9 ... : ... .. . ... : ... .. . ... : ... .. . ... : D-3 07 . ...
ROW 37 : ... .. . ... : ... .. . ... : --- .. . ... : ... .. . ... : ... .. . ... : ... .. . ... : ... .. . ... : ... .. . ...
ROW 38 : ... .. . ... : ... .. . ... : C-2 00 . ... : 5-# 03 C ... : ... .. . ... : F-3 08 . ... : G#3 08 . ... : D#3 07 . ...
ROW 39 : ... .. . ... : ... .. . ... : --- .. . ... : ... .. . ... : ... .. . ... : ... .. . ... : ... .. . ... : ... .. . ...
ROW 3A : ... .. . ... : ... .. . ... : C-2 00 . ... : ... .. . ... : ... .. . ... : ... .. . ... : ... .. . ... : F-3 07 . ...
ROW 3B : ... .. . ... : ... .. . ... : --- .. . ... : ... .. . ... : ... .. . ... : ... .. . ... : ... .. . ... : ... .. . ...
ROW 3C : ... .. . ... : ... .. . ... : C-2 00 . ... : F-# 02 6 ... : ... .. . ... : ... .. . ... : ... .. . ... : G-3 07 . ...
ROW 3D : ... .. . ... : ... .. . ... : --- .. . ... : ... .. . ... : ... .. . ... : ... .. . ... : ... .. . ... : ... .. . ...
ROW 3E : ... .. . ... : ... .. . ... : C-2 00 . ... : F-# 02 7 ... : ... .. . ... : ... .. . ... : ... .. . ... : G#3 07 . ...
ROW 3F : ... .. . ... : ... .. . ... : --- .. . ... : ... .. . ... : ... .. . ... : ... .. . ... : ... .. . ... : ... .. . ...
ROW 40 : ... .. . ... : ... .. . ... : C-2 00 . ... : F-# 02 7 ... : ... .. . ... : C-2 08 . ... : D#3 08 . ... : G-3 07 . ...
ROW 41 : ... .. . ... : ... .. . ... : --- .. . ... : ... .. . ... : ... .. . ... : ... .. . ... : ... .. . ... : ... .. . ...
ROW 42 : ... .. . ... : ... .. . ... : C-2 00 . ... : F-# 02 8 ... : ... .. . ... : ... .. . ... : ... .. . ... : ... .. . ...
ROW 43 : ... .. . ... : ... .. . ... : --- .. . ... : ... .. . ... : ... .. . ... : ... .. . ... : ... .. . ... : ... .. . ...
ROW 44 : ... .. . ... : ... .. . ... : C-2 00 . ... : F-# 02 8 ... : ... .. . ... : ... .. . ... : ... .. . ... : ... .. . ...
ROW 45 : ... .. . ... : ... .. . ... : --- .. . ... : ... .. . ... : ... .. . ... : ... .. . ... : ... .. . ... : ... .. . ...
ROW 46 : ... .. . ... : ... .. . ... : C-2 00 . ... : F-# 02 9 ... : ... .. . ... : ... .. . ... : ... .. . ... : ... .. . ...
ROW 47 : ... .. . ... : ... .. . ... : --- .. . ... : ... .. . ... : ... .. . ... : ... .. . ... : ... .. . ... : ... .. . ...
ROW 48 : ... .. . ... : ... .. . ... : C-2 00 . ... : 5-# 03 C ... : ... .. . ... : C-2 08 . ... : F-2 08 . ... : ... .. . ...
ROW 49 : ... .. . ... : ... .. . ... : --- .. . ... : ... .. . ... : ... .. . ... : ... .. . ... : ... .. . ... : ... .. . ...
ROW 4A : ... .. . ... : ... .. . ... : C-2 00 . ... : ... .. . ... : ... .. . ... : ... .. . ... : ... .. . ... : ... .. . ...
ROW 4B : ... .. . ... : ... .. . ... : --- .. . ... : ... .. . ... : ... .. . ... : ... .. . ... : ... .. . ... : ... .. . ...
ROW 4C : ... .. . ... : ... .. . ... : C-2 00 . ... : F-# 02 6 ... : ... .. . ... : ... .. . ... : ... .. . ... : G#3 07 . ...
ROW 4D : ... .. . ... : ... .. . ... : --- .. . ... : ... .. . ... : ... .. . ... : ... .. . ... : ... .. . ... : ... .. . ...
ROW 4E : ... .. . ... : ... .. . ... : C-2 00 . ... : F-# 02 7 ... : ... .. . ... : ... .. . ... : ... .. . ... : ... .. . ...
ROW 4F : ... .. . ... : ... .. . ... : --- .. . ... : ... .. . ... : ... .. . ... : ... .. . ... : ... .. . ... : ... .. . ...
ROW 50 : ... .. . ... : ... .. . ... : C-2 00 . ... : F-# 02 7 ... : ... .. . ... : D-2 08 . ... : F-2 08 . ... : F-3 07 . ...
ROW 51 : ... .. . ... : ... .. . ... : --- .. . ... : ... .. . ... : ... .. . ... : ... .. . ... : ... .. . ... : ... .. . ...
ROW 52 : ... .. . ... : ... .. . ... : C-2 00 . ... : F-# 02 8 ... : ... .. . ... : ... .. . ... : ... .. . ... : ... .. . ...
ROW 53 : ... .. . ... : ... .. . ... : --- .. . ... : ... .. . ... : ... .. . ... : ... .. . ... : ... .. . ... : ... .. . ...
ROW 54 : ... .. . ... : ... .. . ... : C-2 00 . ... : F-# 02 8 ... : ... .. . ... : ... .. . ... : ... .. . ... : ... .. . ...
ROW 55 : ... .. . ... : ... .. . ... : --- .. . ... : ... .. . ... : ... .. . ... : ... .. . ... : ... .. . ... : ... .. . ...
ROW 56 : ... .. . ... : ... .. . ... : C-2 00 . ... : 0-# 03 9 ... : ... .. . ... : ... .. . ... : ... .. . ... : ... .. . ...
ROW 57 : ... .. . ... : ... .. . ... : --- .. . ... : ... .. . ... : ... .. . ... : ... .. . ... : ... .. . ... : ... .. . ...
ROW 58 : ... .. . ... : ... .. . ... : C-2 00 . ... : 5-# 03 C ... : ... .. . ... : C-2 08 . ... : F-2 08 . ... : ... .. . ...
ROW 59 : ... .. . ... : ... .. . ... : --- .. . ... : ... .. . ... : ... .. . ... : ... .. . ... : ... .. . ... : ... .. . ...
ROW 5A : ... .. . ... : ... .. . ... : C-2 00 . ... : ... .. . ... : ... .. . ... : ... .. . ... : ... .. . ... : D-3 07 . ...
ROW 5B : ... .. . ... : ... .. . ... : --- .. . ... : ... .. . ... : ... .. . ... : ... .. . ... : ... .. . ... : ... .. . ...
ROW 5C : ... .. . ... : ... .. . ... : C-2 00 . ... : F-# 02 6 ... : ... .. . ... : ... .. . ... : ... .. . ... : D#3 07 . ...
ROW 5D : ... .. . ... : ... .. . ... : --- .. . ... : ... .. . ... : ... .. . ... : ... .. . ... : ... .. . ... : ... .. . ...
ROW 5E : ... .. . ... : ... .. . ... : C-2 00 . ... : F-# 02 7 ... : ... .. . ... : ... .. . ... : ... .. . ... : F-3 07 . ...
ROW 5F : ... .. . ... : ... .. . ... : --- .. . ... : ... .. . ... : ... .. . ... : ... .. . ... : ... .. . ... : ... .. . ...
ROW 60 : ... .. . ... : ... .. . ... : C-2 00 . ... : F-# 02 7 ... : ... .. . ... : C-2 08 . ... : D#2 08 . ... : G-3 07 . ...
ROW 61 : ... .. . ... : ... .. . ... : --- .. . ... : ... .. . ... : ... .. . ... : ... .. . ... : ... .. . ... : ... .. . ...
ROW 62 : ... .. . ... : ... .. . ... : C-2 00 . ... : F-# 02 8 ... : ... .. . ... : ... .. . ... : ... .. . ... : ... .. . ...
ROW 63 : ... .. . ... : ... .. . ... : --- .. . ... : ... .. . ... : ... .. . ... : ... .. . ... : ... .. . ... : ... .. . ...
ROW 64 : ... .. . ... : ... .. . ... : C-2 00 . ... : F-# 02 8 ... : ... .. . ... : ... .. . ... : ... .. . ... : ... .. . ...
ROW 65 : ... .. . ... : ... .. . ... : --- .. . ... : ... .. . ... : ... .. . ... : ... .. . ... : ... .. . ... : ... .. . ...
ROW 66 : ... .. . ... : ... .. . ... : C-2 00 . ... : F-# 02 9 ... : ... .. . ... : ... .. . ... : ... .. . ... : ... .. . ...
ROW 67 : ... .. . ... : ... .. . ... : --- .. . ... : ... .. . ... : ... .. . ... : ... .. . ... : ... .. . ... : ... .. . ...
ROW 68 : ... .. . ... : ... .. . ... : C-2 00 . ... : 5-# 03 C ... : ... .. . ... : C-2 08 . ... : F-3 08 . ... : A-3 07 . ...
ROW 69 : ... .. . ... : ... .. . ... : --- .. . ... : ... .. . ... : ... .. . ... : ... .. . ... : ... .. . ... : ... .. . ...
ROW 6A : ... .. . ... : ... .. . ... : C-2 00 . ... : ... .. . ... : ... .. . ... : ... .. . ... : ... .. . ... : ... .. . ...
ROW 6B : ... .. . ... : ... .. . ... : --- .. . ... : ... .. . ... : ... .. . ... : ... .. . ... : ... .. . ... : ... .. . ...
ROW 6C : ... .. . ... : ... .. . ... : C-2 00 . ... : F-# 02 6 ... : ... .. . ... : === .. . ... : === .. . ... : === .. . ...
ROW 6D : ... .. . ... : ... .. . ... : --- .. . ... : ... .. . ... : ... .. . ... : ... .. . ... : ... .. . ... : ... .. . ...
ROW 6E : ... .. . ... : ... .. . ... : C-2 00 . ... : F-# 02 7 ... : ... .. . ... : ... .. . ... : ... .. . ... : ... .. . ...
ROW 6F : ... .. . ... : ... .. . ... : --- .. . ... : ... .. . ... : ... .. . ... : ... .. . ... : ... .. . ... : ... .. . ...
ROW 70 : B-0 00 . ... : ... .. . ... : D-2 00 . ... : F-# 02 7 ... : ... .. . ... : D-2 08 . ... : G-3 08 . ... : B-3 07 . ...
ROW 71 : ... .. . ... : ... .. . ... : --- .. . ... : ... .. . ... : ... .. . ... : ... .. . ... : ... .. . ... : ... .. . ...
ROW 72 : ... .. . ... : ... .. . ... : D-2 00 . ... : F-# 02 8 ... : ... .. . ... : ... .. . ... : ... .. . ... : ... .. . ...
ROW 73 : ... .. . ... : ... .. . ... : --- .. . ... : ... .. . ... : ... .. . ... : ... .. . ... : ... .. . ... : ... .. . ...
ROW 74 : ... .. . ... : ... .. . ... : D-2 00 . ... : F-# 02 8 ... : ... .. . ... : === .. . ... : === .. . ... : === .. . ...
ROW 75 : ... .. . ... : ... .. . ... : --- .. . ... : ... .. . ... : ... .. . ... : ... .. . ... : ... .. . ... : ... .. . ...
ROW 76 : ... .. . ... : ... .. . ... : D-2 00 . ... : 0-# 03 9 ... : ... .. . ... : ... .. . ... : ... .. . ... : ... .. . ...
ROW 77 : ... .. . ... : ... .. . ... : --- .. . ... : ... .. . ... : ... .. . ... : ... .. . ... : ... .. . ... : ... .. . ...
ROW 78 : ... .. . ... : ... .. . ... : D-2 00 . ... : 5-# 03 C ... : ... .. . ... : G-2 08 . ... : B-2 08 . ... : D-4 07 . ...
ROW 79 : ... .. . ... : ... .. . ... : --- .. . ... : ... .. . ... : ... .. . ... : ... .. . ... : ... .. . ... : ... .. . ...
ROW 7A : ... .. . ... : ... .. . ... : D-2 00 . ... : ... .. . ... : ... .. . ... : ... .. . ... : ... .. . ... : ... .. . ...
ROW 7B : ... .. . ... : ... .. . ... : --- .. . ... : ... .. . ... : ... .. . ... : ... .. . ... : ... .. . ... : ... .. . ...
ROW 7C : ... .. . ... : ... .. . ... : D-2 00 . ... : F-# 02 6 ... : ... .. . ... : === .. . ... : === .. . ... : === .. . ...
ROW 7D : ... .. . ... : ... .. . ... : --- .. . ... : ... .. . ... : ... .. . ... : ... .. . ... : ... .. . ... : ... .. . ...
ROW 7E : ... .. . ... : ... .. . ... : D-2 00 . ... : F-# 02 7 ... : ... .. . ... : ... .. . ... : ... .. . ... : ... .. . ...
ROW 7F : ... .. . ... : ... .. . ... : --- .. . ... : ... .. . ... : ... .. . ... : ... .. . ... : ... .. . ... : ... .. . ...

PATTERN 05
ROW 00 : C-1 00 . ... : C-1 0B 8 ... : C-2 00 . ... : F-# 02 7 ... : ... .. . ... : C-3 09 F ... : D#4 08 F ... : ... .. . ...
ROW 01 : --- .. . ... : ... .. . ... : --- .. . ... : ... .. . ... : ... .. . ... : ... .. . ... : ... .. . ... : ... .. . ...
ROW 02 : C-1 00 . ... : ... .. . ... : C-2 00 . ... : F-# 02 6 ... : ... .. . ... : G-2 09 . ... : D-4 08 . ... : D#4 07 4 ...
ROW 03 : --- .. . ... : ... .. . ... : --- .. . ... : ... .. . ... : ... .. . ... : ... .. . ... : ... .. . ... : ... .. . ...
ROW 04 : C-1 00 . ... : ... .. . ... : C-2 00 . ... : F-# 02 7 ... : ... .. . ... : D#2 09 . ... : C-4 08 . ... : D-4 07 . ...
ROW 05 : --- .. . ... : ... .. . ... : --- .. . ... : ... .. . ... : ... .. . ... : ... .. . ... : ... .. . ... : ... .. . ...
ROW 06 : C-1 00 . ... : ... .. . ... : C-2 00 . ... : F-# 02 8 ... : ... .. . ... : C-2 09 . ... : G-3 08 . ... : C-4 07 . ...
ROW 07 : --- .. . ... : ... .. . ... : --- .. . ... : ... .. . ... : ... .. . ... : ... .. . ... : ... .. . ... : ... .. . ...
ROW 08 : C-2 00 . ... : ... .. . ... : C-3 00 . ... : 5-# 03 C ... : ... .. . ... : C-3 09 . ... : C-3 08 . ... : G-3 07 . ...
ROW 09 : --- .. . ... : ... .. . ... : --- .. . ... : ... .. . ... : ... .. . ... : ... .. . ... : ... .. . ... : ... .. . ...
ROW 0A : C-1 00 . ... : ... .. . ... : C-2 00 . ... : ... .. . ... : ... .. . ... : G-2 09 . ... : ... .. . ... : C-3 07 . ...
ROW 0B : --- .. . ... : ... .. . ... : --- .. . ... : ... .. . ... : ... .. . ... : ... .. . ... : ... .. . ... : ... .. . ...
ROW 0C : C-1 00 . ... : ... .. . ... : C-2 00 . ... : F-# 02 6 ... : ... .. . ... : D#2 09 . ... : C-3 08 . ... : ... .. . ...
ROW 0D : --- .. . ... : ... .. . ... : --- .. . ... : ... .. . ... : ... .. . ... : ... .. . ... : ... .. . ... : ... .. . ...
ROW 0E : C-1 00 . ... : ... .. . ... : C-2 00 . ... : F-# 02 7 ... : ... .. . ... : C-2 09 . ... : G-3 08 . ... : C-3 07 . ...
ROW 0F : --- .. . ... : ... .. . ... : --- .. . ... : ... .. . ... : ... .. . ... : ... .. . ... : ... .. . ... : ... .. . ...
ROW 10 : C-1 00 . ... : ... .. . ... : C-2 00 . ... : F-# 02 7 ... : ... .. . ... : C-3 09 . ... : C-4 08 . ... : G-3 07 . ...
ROW 11 : --- .. . ... : ... .. . ... : --- .. . ... : ... .. . ... : ... .. . ... : ... .. . ... : ... .. . ... : ... .. . ...
ROW 12 : C-1 00 . ... : ... .. . ... : C-2 00 . ... : F-# 02 8 ... : ... .. . ... : G-2 09 . ... : ... .. . ... : C-4 07 . ...
ROW 13 : --- .. . ... : ... .. . ... : --- .. . ... : ... .. . ... : ... .. . ... : ... .. . ... : ... .. . ... : ... .. . ...
ROW 14 : C-1 00 . ... : ... .. . ... : C-2 00 . ... : F-# 02 8 ... : ... .. . ... : D#2 09 . ... : ... .. . ... : ... .. . ...
ROW 15 : --- .. . ... : ... .. . ... : --- .. . ... : ... .. . ... : ... .. . ... : ... .. . ... : ... .. . ... : ... .. . ...
ROW 16 : C-1 00 . ... : ... .. . ... : C-2 00 . ... : 0-# 03 9 ... : ... .. . ... : C-2 09 . ... : A#3 08 . ... : ... .. . ...
ROW 17 : --- .. . ... : ... .. . ... : --- .. . ... : ... .. . ... : ... .. . ... : ... .. . ... : ... .. . ... : ... .. . ...
ROW 18 : C-2 00 . ... : ... .. . ... : C-3 00 . ... : 5-# 03 C ... : ... .. . ... : C-3 09 . ... : ... .. . ... : A#3 07 . ...
ROW 19 : --- .. . ... : ... .. . ... : --- .. . ... : ... .. . ... : ... .. . ... : ... .. . ... : ... .. . ... : ... .. . ...
ROW 1A : C-1 00 . ... : ... .. . ... : C-2 00 . ... : ... .. . ... : ... .. . ... : G-2 09 . ... : ... .. . ... : ... .. . ...
ROW 1B : --- .. . ... : ... .. . ... : --- .. . ... : ... .. . ... : ... .. . ... : ... .. . ... : ... .. . ... : ... .. . ...
ROW 1C : C-1 00 . ... : ... .. . ... : C-2 00 . ... : F-# 02 6 ... : ... .. . ... : D#2 09 . ... : G#3 08 . ... : ... .. . ...
ROW 1D : --- .. . ... : ... .. . ... : --- .. . ... : ... .. . ... : ... .. . ... : ... .. . ... : ... .. . ... : ... .. . ...
ROW 1E : C-1 00 . ... : ... .. . ... : C-2 00 . ... : F-# 02 7 ... : ... .. . ... : C-2 09 . ... : ... .. . ... : G#3 07 . ...
ROW 1F : --- .. . ... : ... .. . ... : --- .. . ... : ... .. . ... : ... .. . ... : ... .. . ... : ... .. . ... : ... .. . ...
ROW 20 : D#1 00 . ... : D#1 0B . ... : D#2 00 . ... : F-# 02 7 ... : ... .. . ... : G#2 09 . ... : G#3 08 . ... : ... .. . ...
ROW 21 : --- .. . ... : ... .. . ... : --- .. . ... : ... .. . ... : ... .. . ... : ... .. . ... : ... .. . ... : ... .. . ...
ROW 22 : D#1 00 . ... : ... .. . ... : D#2 00 . ... : F-# 02 8 ... : ... .. . ... : F-2 09 . ... : ... .. . ... : G#3 07 . ...
ROW 23 : --- .. . ... : ... .. . ... : --- .. . ... : ... .. . ... : ... .. . ... : ... .. . ... : ... .. . ... : ... .. . ...
ROW 24 : D#1 00 . ... : ... .. . ... : D#2 00 . ... : F-# 02 8 ... : ... .. . ... : D#2 09 . ... : ... .. . ... : ... .. . ...
ROW 25 : --- .. . ... : ... .. . ... : --- .. . ... : ... .. . ... : ... .. . ... : ... .. . ... : ... .. . ... : ... .. . ...
ROW 26 : D#1 00 . ... : ... .. . ... : D#2 00 . ... : F-# 02 9 ... : ... .. . ... : D-2 09 . ... : ... .. . ... : ... .. . ...
ROW 27 : --- .. . ... : ... .. . ... : --- .. . ... : ... .. . ... : ... .. . ... : ... .. . ... : ... .. . ... : ... .. . ...
ROW 28 : D#2 00 . ... : ... .. . ... : D#3 00 . ... : 5-# 03 C ... : ... .. . ... : G#2 09 . ... : G#4 08 . ... : ... .. . ...
ROW 29 : --- .. . ... : ... .. . ... : --- .. . ... : ... .. . ... : ... .. . ... : ... .. . ... : G#4 08 . ... : ... .. . ...
ROW 2A : D#1 00 . ... : ... .. . ... : D#2 00 . ... : ... .. . ... : ... .. . ... : F-2 09 . ... : A#4 08 . ... : G#4 07 . ...
ROW 2B : --- .. . ... : ... .. . ... : --- .. . ... : ... .. . ... : ... .. . ... : ... .. . ... : G#4 08 . ... : G#4 07 . ...
ROW 2C : D#1 00 . ... : ... .. . ... : D#2 00 . ... : F-# 02 6 ... : ... .. . ... : D#2 09 . ... : G-4 08 . ... : A#4 07 . ...
ROW 2D : --- .. . ... : ... .. . ... : --- .. . ... : ... .. . ... : ... .. . ... : ... .. . ... : ... .. . ... : G#4 07 . ...
ROW 2E : D#1 00 . ... : ... .. . ... : D#2 00 . ... : F-# 02 7 ... : ... .. . ... : D-2 09 . ... : ... .. . ... : G-4 07 . ...
ROW 2F : --- .. . ... : ... .. . ... : --- .. . ... : ... .. . ... : ... .. . ... : ... .. . ... : ... .. . ... : ... .. . ...
ROW 30 : D#1 00 . ... : ... .. . ... : D#2 00 . ... : F-# 02 7 ... : ... .. . ... : G#2 09 . ... : G-3 08 . ... : ... .. . ...
ROW 31 : --- 00 . ... : ... .. . ... : --- 00 . ... : ... .. . ... : ... .. . ... : ... .. . ... : ... .. . ... : ... .. . ...
ROW 32 : D#1 00 . ... : ... .. . ... : D#2 00 . ... : F-# 02 8 ... : ... .. . ... : F-2 09 . ... : ... .. . ... : G-3 07 . ...
ROW 33 : --- .. . ... : ... .. . ... : --- .. . ... : ... .. . ... : ... .. . ... : ... .. . ... : ... .. . ... : ... .. . ...
ROW 34 : D#1 00 . ... : ... .. . ... : D#2 00 . ... : F-# 02 8 ... : ... .. . ... : D#2 09 . ... : ... .. . ... : ... .. . ...
ROW 35 : --- .. . ... : ... .. . ... : --- .. . ... : ... .. . ... : ... .. . ... : ... .. . ... : ... .. . ... : ... .. . ...
ROW 36 : D#1 00 . ... : ... .. . ... : D#2 00 . ... : 0-# 03 9 ... : ... .. . ... : D-2 09 . ... : G#3 08 . ... : ... .. . ...
ROW 37 : --- .. . ... : ... .. . ... : --- .. . ... : ... .. . ... : ... .. . ... : ... .. . ... : ... .. . ... : ... .. . ...
ROW 38 : D#2 00 . ... : ... .. . ... : D#3 00 . ... : 5-# 03 C ... : ... .. . ... : G#2 09 . ... : ... .. . ... : G#3 07 . ...
ROW 39 : --- .. . ... : ... .. . ... : --- .. . ... : ... .. . ... : ... .. . ... : ... .. . ... : ... .. . ... : ... .. . ...
ROW 3A : D#1 00 . ... : ... .. . ... : D#2 00 . ... : ... .. . ... : ... .. . ... : F-2 09 . ... : ... .. . ... : ... .. . ...
ROW 3B : --- .. . ... : ... .. . ... : --- .. . ... : ... .. . ... : ... .. . ... : ... .. . ... : ... .. . ... : ... .. . ...
ROW 3C : D#1 00 . ... : ... .. . ... : D#2 00 . ... : F-# 02 6 ... : ... .. . ... : D#2 09 . ... : A#3 08 . ... : ... .. . ...
ROW 3D : --- .. . ... : ... .. . ... : --- .. . ... : ... .. . ... : ... .. . ... : ... .. . ... : ... .. . ... : ... .. . ...
ROW 3E : D#1 00 . ... : ... .. . ... : D#2 00 . ... : F-# 02 7 ... : ... .. . ... : D-2 09 . ... : ... .. . ... : A#3 07 . ...
ROW 3F : --- .. . ... : ... .. . ... : --- .. . ... : ... .. . ... : ... .. . ... : ... .. . ... : ... .. . ... : ... .. . ...
ROW 40 : G-1 00 . ... : G-1 0B . ... : G-2 00 . ... : F-# 02 7 ... : ... .. . ... : G-2 09 . ... : G-3 08 . ... : ... .. . ...
ROW 41 : --- .. . ... : ... .. . ... : --- .. . ... : ... .. . ... : ... .. . ... : ... .. . ... : ... .. . ... : ... .. . ...
ROW 42 : G-1 00 . ... : ... .. . ... : G-2 00 . ... : F-# 02 8 ... : ... .. . ... : D#2 09 . ... : ... .. . ... : G-3 07 . ...
ROW 43 : --- .. . ... : ... .. . ... : --- .. . ... : ... .. . ... : ... .. . ... : ... .. . ... : ... .. . ... : ... .. . ...
ROW 44 : G-1 00 . ... : ... .. . ... : G-2 00 . ... : F-# 02 8 ... : ... .. . ... : D-2 09 . ... : ... .. . ... : ... .. . ...
ROW 45 : --- .. . ... : ... .. . ... : --- .. . ... : ... .. . ... : ... .. . ... : ... .. . ... : ... .. . ... : ... .. . ...
ROW 46 : G-1 00 . ... : ... .. . ... : G-2 00 . ... : F-# 02 9 ... : ... .. . ... : C-2 09 . ... : ... .. . ... : ... .. . ...
ROW 47 : --- .. . ... : ... .. . ... : --- .. . ... : ... .. . ... : ... .. . ... : ... .. . ... : ... .. . ... : ... .. . ...
ROW 48 : G-2 00 . ... : ... .. . ... : G-3 00 . ... : 5-# 03 C ... : ... .. . ... : G-2 09 . ... : C-4 08 . ... : ... .. . ...
ROW 49 : --- .. . ... : ... .. . ... : --- .. . ... : ... .. . ... : ... .. . ... : ... .. . ... : ... .. . ... : ... .. . ...
ROW 4A : G-1 00 . ... : ... .. . ... : G-2 00 . ... : ... .. . ... : ... .. . ... : D#2 09 . ... : ... .. . ... : C-4 07 . ...
ROW 4B : --- .. . ... : ... .. . ... : --- .. . ... : ... .. . ... : ... .. . ... : ... .. . ... : ... .. . ... : ... .. . ...
ROW 4C : G-1 00 . ... : ... .. . ... : G-2 00 . ... : F-# 02 6 ... : ... .. . ... : D-2 09 . ... : ... .. . ... : ... .. . ...
ROW 4D : --- .. . ... : ... .. . ... : --- .. . ... : ... .. . ... : ... .. . ... : ... .. . ... : ... .. . ... : ... .. . ...
ROW 4E : G-1 00 . ... : ... .. . ... : G-2 00 . ... : F-# 02 7 ... : ... .. . ... : C-2 09 . ... : ... .. . ... : ... .. . ...
ROW 4F : --- .. . ... : ... .. . ... : --- .. . ... : ... .. . ... : ... .. . ... : ... .. . ... : ... .. . ... : ... .. . ...
ROW 50 : G-1 00 . ... : ... .. . ... : G-2 00 . ... : F-# 02 7 ... : ... .. . ... : G-2 09 . ... : G-4 08 . ... : ... .. . ...
ROW 51 : --- .. . ... : ... .. . ... : --- .. . ... : ... .. . ... : ... .. . ... : ... .. . ... : ... .. . ... : ... .. . ...
ROW 52 : G-1 00 . ... : ... .. . ... : G-2 00 . ... : F-# 02 8 ... : ... .. . ... : D#2 09 . ... : ... .. . ... : G-4 07 . ...
ROW 53 : --- .. . ... : ... .. . ... : --- .. . ... : ... .. . ... : ... .. . ... : ... .. . ... : ... .. . ... : ... .. . ...
ROW 54 : G-1 00 . ... : ... .. . ... : G-2 00 . ... : F-# 02 8 ... : ... .. . ... : D-2 09 . ... : ... .. . ... : ... .. . ...
ROW 55 : --- .. . ... : ... .. . ... : --- .. . ... : ... .. . ... : ... .. . ... : ... .. . ... : ... .. . ... : ... .. . ...
ROW 56 : G-1 00 . ... : ... .. . ... : G-2 00 . ... : 0-# 03 9 ... : ... .. . ... : C-2 09 . ... : ... .. . ... : ... .. . ...
ROW 57 : --- .. . ... : ... .. . ... : --- .. . ... : ... .. . ... : ... .. . ... : ... .. . ... : ... .. . ... : ... .. . ...
ROW 58 : G-2 00 . ... : ... .. . ... : G-3 00 . ... : 5-# 03 C ... : ... .. . ... : G-2 09 . ... : C-5 08 . ... : ... .. . ...
ROW 59 : --- .. . ... : ... .. . ... : --- .. . ... : ... .. . ... : ... .. . ... : ... .. . ... : ... .. . ... : ... .. . ...
ROW 5A : G-1 00 . ... : ... .. . ... : G-2 00 . ... : ... .. . ... : ... .. . ... : D#2 09 . ... : ... .. . ... : C-5 07 . ...
ROW 5B : --- .. . ... : ... .. . ... : --- .. . ... : ... .. . ... : ... .. . ... : ... .. . ... : ... .. . ... : ... .. . ...
ROW 5C : G-1 00 . ... : ... .. . ... : G-2 00 . ... : F-# 02 6 ... : ... .. . ... : D-2 09 . ... : A#4 08 . ... : ... .. . ...
ROW 5D : --- .. . ... : ... .. . ... : --- .. . ... : ... .. . ... : ... .. . ... : ... .. . ... : ... .. . ... : ... .. . ...
ROW 5E : G-1 00 . ... : ... .. . ... : G-2 00 . ... : F-# 02 7 ... : ... .. . ... : C-2 09 . ... : ... .. . ... : A#4 07 . ...
ROW 5F : --- .. . ... : ... .. . ... : --- .. . ... : ... .. . ... : ... .. . ... : ... .. . ... : ... .. . ... : ... .. . ...
ROW 60 : F-1 00 . ... : F-1 0B . ... : F-2 00 . ... : F-# 02 7 ... : ... .. . ... : A-2 09 . ... : A-4 08 . ... : ... .. . ...
ROW 61 : --- .. . ... : ... .. . ... : --- .. . ... : ... .. . ... : ... .. . ... : ... .. . ... : ... .. . ... : ... .. . ...
ROW 62 : F-1 00 . ... : ... .. . ... : F-2 00 . ... : F-# 02 8 ... : ... .. . ... : G-2 09 . ... : ... .. . ... : A-4 07 . ...
ROW 63 : --- .. . ... : ... .. . ... : --- .. . ... : ... .. . ... : ... .. . ... : ... .. . ... : ... .. . ... : ... .. . ...
ROW 64 : F-1 00 . ... : ... .. . ... : F-2 00 . ... : F-# 02 8 ... : ... .. . ... : F-2 09 . ... : ... .. . ... : ... .. . ...
ROW 65 : --- .. . ... : ... .. . ... : --- .. . ... : ... .. . ... : ... .. . ... : ... .. . ... : ... .. . ... : ... .. . ...
ROW 66 : F-1 00 . ... : ... .. . ... : F-2 00 . ... : F-# 02 9 ... : ... .. . ... : D#2 09 . ... : ... .. . ... : ... .. . ...
ROW 67 : --- .. . ... : ... .. . ... : --- .. . ... : ... .. . ... : ... .. . ... : ... .. . ... : ... .. . ... : ... .. . ...
ROW 68 : F-2 00 . ... : ... .. . ... : F-3 00 . ... : 5-# 03 C ... : ... .. . ... : A-2 09 . ... : F-4 08 . ... : ... .. . ...
ROW 69 : --- .. . ... : ... .. . ... : --- .. . ... : ... .. . ... : ... .. . ... : ... .. . ... : ... .. . ... : ... .. . ...
ROW 6A : F-1 00 . ... : ... .. . ... : F-2 00 . ... : ... .. . ... : ... .. . ... : G-2 09 . ... : ... .. . ... : F-4 07 . ...
ROW 6B : --- .. . ... : ... .. . ... : --- .. . ... : ... .. . ... : ... .. . ... : ... .. . ... : ... .. . ... : ... .. . ...
ROW 6C : F-1 00 . ... : ... .. . ... : F-2 00 . ... : F-# 02 6 ... : ... .. . ... : F-2 09 . ... : F-4 08 . ... : ... .. . ...
ROW 6D : --- .. . ... : ... .. . ... : --- .. . ... : ... .. . ... : ... .. . ... : ... .. . ... : G-4 08 . ... : ... .. . ...
ROW 6E : F-1 00 . ... : ... .. . ... : F-2 00 . ... : F-# 02 7 ... : ... .. . ... : D#2 09 . ... : F-4 08 . ... : F-4 07 . ...
ROW 6F : --- .. . ... : ... .. . ... : --- .. . ... : ... .. . ... : ... .. . ... : ... .. . ... : G-4 08 . ... : G-4 07 . ...
ROW 70 : F-1 00 . ... : ... .. . ... : F-2 00 . ... : F-# 02 7 ... : ... .. . ... : A-2 09 . ... : F-4 08 . ... : F-4 07 . ...
ROW 71 : --- .. . ... : ... .. . ... : --- .. . ... : ... .. . ... : ... .. . ... : ... .. . ... : ... .. . ... : G-4 07 . ...
ROW 72 : F-1 00 . ... : ... .. . ... : F-2 00 . ... : F-# 02 8 ... : ... .. . ... : G-2 09 . ... : ... .. . ... : F-4 07 . ...
ROW 73 : --- .. . ... : ... .. . ... : --- .. . ... : ... .. . ... : ... .. . ... : ... .. . ... : ... .. . ... : ... .. . ...
ROW 74 : F-1 00 . ... : ... .. . ... : F-2 00 . ... : F-# 02 8 ... : ... .. . ... : F-2 09 . ... : G-4 08 . ... : ... .. . ...
ROW 75 : --- .. . ... : ... .. . ... : --- .. . ... : ... .. . ... : ... .. . ... : ... .. . ... : ... .. . ... : ... .. . ...
ROW 76 : F-1 00 . ... : ... .. . ... : F-2 00 . ... : 0-# 03 9 ... : ... .. . ... : D#2 09 . ... : ... .. . ... : G-4 07 . ...
ROW 77 : --- .. . ... : ... .. . ... : --- .. . ... : ... .. . ... : ... .. . ... : ... .. . ... : ... .. . ... : ... .. . ...
ROW 78 : F-2 00 . ... : ... .. . ... : F-3 00 . ... : 5-# 03 C ... : ... .. . ... : A-2 09 . ... : G#4 08 . ... : ... .. . ...
ROW 79 : --- .. . ... : ... .. . ... : --- .. . ... : ... .. . ... : ... .. . ... : ... .. . ... : ... .. . ... : ... .. . ...
ROW 7A : F-1 00 . ... : ... .. . ... : F-2 00 . ... : ... .. . ... : ... .. . ... : G-2 09 . ... : ... .. . ... : G#4 07 . ...
ROW 7B : --- .. . ... : ... .. . ... : --- .. . ... : ... .. . ... : ... .. . ... : ... .. . ... : ... .. . ... : ... .. . ...
ROW 7C : F-1 00 . ... : ... .. . ... : F-2 00 . ... : F-# 02 6 ... : ... .. . ... : F-2 09 . ... : F-4 08 . ... : ... .. . ...
ROW 7D : --- .. . ... : ... .. . ... : --- .. . ... : ... .. . ... : ... .. . ... : ... .. . ... : ... .. . ... : ... .. . ...
ROW 7E : F-1 00 . ... : ... .. . ... : F-2 00 . ... : F-# 02 7 ... : ... .. . ... : D#2 09 . ... : ... .. . ... : F-4 07 . ...
ROW 7F : --- .. . ... : ... .. . ... : --- .. . ... : ... .. . ... : ... .. . ... : ... .. . ... : ... .. . ... : ... .. . ...

PATTERN 06
ROW 00 : G-1 00 . ... : G-1 0B 8 ... : G-2 00 . ... : 4-# 03 C ... : ... .. . ... : G-2 09 F ... : G-4 08 F ... : ... .. . ...
ROW 01 : --- .. . ... : ... .. . ... : --- .. . ... : ... .. . ... : ... .. . ... : ... .. . ... : ... .. . ... : ... .. . ...
ROW 02 : G-1 00 . ... : ... .. . ... : G-2 00 . ... : F-# 02 6 ... : ... .. . ... : D#2 09 . ... : ... .. . ... : G-4 07 4 ...
ROW 03 : --- .. . ... : ... .. . ... : --- .. . ... : ... .. . ... : ... .. . ... : ... .. . ... : ... .. . ... : ... .. . ...
ROW 04 : G-1 00 . ... : ... .. . ... : G-2 00 . ... : F-# 02 7 ... : ... .. . ... : D-2 09 . ... : ... .. . ... : ... .. . ...
ROW 05 : --- .. . ... : ... .. . ... : --- .. . ... : ... .. . ... : ... .. . ... : ... .. . ... : ... .. . ... : ... .. . ...
ROW 06 : G-1 00 . ... : ... .. . ... : G-2 00 . ... : F-# 02 8 ... : ... .. . ... : C-2 09 . ... : ... .. . ... : ... .. . ...
ROW 07 : --- .. . ... : ... .. . ... : --- .. . ... : ... .. . ... : ... .. . ... : ... .. . ... : ... .. . ... : ... .. . ...
ROW 08 : G-2 00 . ... : ... .. . ... : G-3 00 . ... : 5-# 03 C ... : ... .. . ... : G-2 09 . ... : C-4 08 . ... : ... .. . ...
ROW 09 : --- .. . ... : ... .. . ... : --- .. . ... : ... .. . ... : ... .. . ... : ... .. . ... : ... .. . ... : ... .. . ...
ROW 0A : G-1 00 . ... : ... .. . ... : G-2 00 . ... : ... .. . ... : ... .. . ... : D#2 09 . ... : ... .. . ... : C-4 07 . ...
ROW 0B : --- .. . ... : ... .. . ... : --- .. . ... : ... .. . ... : ... .. . ... : ... .. . ... : ... .. . ... : ... .. . ...
ROW 0C : G-1 00 . ... : ... .. . ... : G-2 00 . ... : F-# 02 6 ... : ... .. . ... : D-2 09 . ... : D-4 08 . ... : ... .. . ...
ROW 0D : --- .. . ... : ... .. . ... : --- .. . ... : ... .. . ... : ... .. . ... : ... .. . ... : ... .. . ... : ... .. . ...
ROW 0E : G-1 00 . ... : ... .. . ... : G-2 00 . ... : F-# 02 7 ... : ... .. . ... : C-2 09 . ... : ... .. . ... : D-4 07 . ...
ROW 0F : --- .. . ... : ... .. . ... : --- .. . ... : ... .. . ... : ... .. . ... : ... .. . ... : ... .. . ... : ... .. . ...
ROW 10 : G-1 00 . ... : ... .. . ... : G-2 00 . ... : F-# 02 7 ... : ... .. . ... : G-2 09 . ... : D#4 08 . ... : ... .. . ...
ROW 11 : --- .. . ... : ... .. . ... : --- .. . ... : ... .. . ... : ... .. . ... : ... .. . ... : ... .. . ... : ... .. . ...
ROW 12 : G-1 00 . ... : ... .. . ... : G-2 00 . ... : F-# 02 8 ... : ... .. . ... : D#2 09 . ... : ... .. . ... : D#4 07 . ...
ROW 13 : --- .. . ... : ... .. . ... : --- .. . ... : ... .. . ... : ... .. . ... : ... .. . ... : ... .. . ... : ... .. . ...
ROW 14 : G-1 00 . ... : ... .. . ... : G-2 00 . ... : F-# 02 8 ... : ... .. . ... : D-2 09 . ... : ... .. . ... : ... .. . ...
ROW 15 : --- .. . ... : ... .. . ... : --- .. . ... : ... .. . ... : ... .. . ... : ... .. . ... : ... .. . ... : ... .. . ...
ROW 16 : G-1 00 . ... : ... .. . ... : G-2 00 . ... : 0-# 03 9 ... : ... .. . ... : C-2 09 . ... : ... .. . ... : ... .. . ...
ROW 17 : --- .. . ... : ... .. . ... : --- .. . ... : ... .. . ... : ... .. . ... : ... .. . ... : ... .. . ... : ... .. . ...
ROW 18 : G-2 00 . ... : ... .. . ... : G-3 00 . ... : 5-# 03 C ... : ... .. . ... : G-2 09 . ... : D-4 08 . ... : ... .. . ...
ROW 19 : --- .. . ... : ... .. . ... : --- .. . ... : ... .. . ... : ... .. . ... : ... .. . ... : ... .. . ... : ... .. . ...
ROW 1A : G-1 00 . ... : ... .. . ... : G-2 00 . ... : ... .. . ... : ... .. . ... : D#2 09 . ... : ... .. . ... : D-4 07 . ...
ROW 1B : --- .. . ... : ... .. . ... : --- .. . ... : ... .. . ... : ... .. . ... : ... .. . ... : ... .. . ... : ... .. . ...
ROW 1C : G-1 00 . ... : ... .. . ... : G-2 00 . ... : F-# 02 6 ... : ... .. . ... : D-2 09 . ... : C-4 08 . ... : ... .. . ...
ROW 1D : --- .. . ... : ... .. . ... : --- .. . ... : ... .. . ... : ... .. . ... : ... .. . ... : ... .. . ... : ... .. . ...
ROW 1E : G-1 00 . ... : ... .. . ... : G-2 00 . ... : F-# 02 7 ... : ... .. . ... : C-2 09 . ... : ... .. . ... : C-4 07 . ...
ROW 1F : --- .. . ... : ... .. . ... : --- .. . ... : ... .. . ... : ... .. . ... : ... .. . ... : ... .. . ... : ... .. . ...
ROW 20 : D#1 00 . ... : D#1 0B . ... : D#2 00 . ... : F-# 02 7 ... : ... .. . ... : C-3 09 . ... : C-4 08 . ... : ... .. . ...
ROW 21 : --- .. . ... : ... .. . ... : --- .. . ... : ... .. . ... : ... .. . ... : ... .. . ... : ... .. . ... : ... .. . ...
ROW 22 : D#1 00 . ... : ... .. . ... : D#2 00 . ... : F-# 02 8 ... : ... .. . ... : G-2 09 . ... : ... .. . ... : C-4 07 . ...
ROW 23 : --- .. . ... : ... .. . ... : --- .. . ... : ... .. . ... : ... .. . ... : ... .. . ... : ... .. . ... : ... .. . ...
ROW 24 : D#1 00 . ... : ... .. . ... : D#2 00 . ... : F-# 02 8 ... : ... .. . ... : F-2 09 . ... : G-4 08 . ... : ... .. . ...
ROW 25 : --- .. . ... : ... .. . ... : --- .. . ... : ... .. . ... : ... .. . ... : ... .. . ... : ... .. . ... : ... .. . ...
ROW 26 : D#1 00 . ... : ... .. . ... : D#2 00 . ... : F-# 02 9 ... : ... .. . ... : D#2 09 . ... : ... .. . ... : G-4 07 . ...
ROW 27 : --- .. . ... : ... .. . ... : --- .. . ... : ... .. . ... : ... .. . ... : ... .. . ... : ... .. . ... : ... .. . ...
ROW 28 : D#2 00 . ... : ... .. . ... : D#3 00 . ... : 5-# 03 C ... : ... .. . ... : C-3 09 . ... : C-5 08 . ... : ... .. . ...
ROW 29 : --- .. . ... : ... .. . ... : --- .. . ... : ... .. . ... : ... .. . ... : ... .. . ... : ... .. . ... : ... .. . ...
ROW 2A : D#1 00 . ... : ... .. . ... : D#2 00 . ... : ... .. . ... : ... .. . ... : G-2 09 . ... : ... .. . ... : C-5 07 . ...
ROW 2B : --- .. . ... : ... .. . ... : --- .. . ... : ... .. . ... : ... .. . ... : ... .. . ... : ... .. . ... : ... .. . ...
ROW 2C : D#1 00 . ... : ... .. . ... : D#2 00 . ... : F-# 02 6 ... : ... .. . ... : F-2 09 . ... : C-5 08 . ... : ... .. . ...
ROW 2D : --- .. . ... : ... .. . ... : --- .. . ... : ... .. . ... : ... .. . ... : ... .. . ... : ... .. . ... : ... .. . ...
ROW 2E : D#1 00 . ... : ... .. . ... : D#2 00 . ... : F-# 02 7 ... : ... .. . ... : D#2 09 . ... : D-5 08 . ... : C-5 07 . ...
ROW 2F : --- .. . ... : ... .. . ... : --- .. . ... : ... .. . ... : ... .. . ... : ... .. . ... : ... .. . ... : ... .. . ...
ROW 30 : D#1 00 . ... : ... .. . ... : D#2 00 . ... : F-# 02 7 ... : ... .. . ... : C-3 09 . ... : D#5 08 . ... : D-5 07 . ...
ROW 31 : --- .. . ... : ... .. . ... : --- .. . ... : ... .. . ... : ... .. . ... : ... .. . ... : F-5 08 . ... : ... .. . ...
ROW 32 : D#1 00 . ... : ... .. . ... : D#2 00 . ... : F-# 02 8 ... : ... .. . ... : G-2 09 . ... : D#5 08 . ... : D#5 07 . ...
ROW 33 : --- .. . ... : ... .. . ... : --- .. . ... : ... .. . ... : ... .. . ... : ... .. . ... : F-5 08 . ... : F-5 07 . ...
ROW 34 : D#1 00 . ... : ... .. . ... : D#2 00 . ... : F-# 02 8 ... : ... .. . ... : F-2 09 . ... : D#5 08 . ... : D#5 07 . ...
ROW 35 : --- .. . ... : ... .. . ... : --- .. . ... : ... .. . ... : ... .. . ... : ... .. . ... : F-5 08 . ... : F-5 07 . ...
ROW 36 : D#1 00 . ... : ... .. . ... : D#2 00 . ... : 0-# 03 9 ... : ... .. . ... : D#2 09 . ... : D#5 08 . ... : D#5 07 . ...
ROW 37 : --- .. . ... : ... .. . ... : --- .. . ... : ... .. . ... : ... .. . ... : ... .. . ... : F-5 08 . ... : F-5 07 . ...
ROW 38 : D#2 00 . ... : ... .. . ... : D#3 00 . ... : 5-# 03 C ... : ... .. . ... : C-3 09 . ... : D#5 08 . ... : D#5 07 . ...
ROW 39 : --- .. . ... : ... .. . ... : --- .. . ... : ... .. . ... : ... .. . ... : ... .. . ... : ... .. . ... : F-5 07 . ...
ROW 3A : D#1 00 . ... : ... .. . ... : D#2 00 . ... : ... .. . ... : ... .. . ... : G-2 09 . ... : D-5 08 . ... : D#5 07 . ...
ROW 3B : --- .. . ... : ... .. . ... : --- .. . ... : ... .. . ... : ... .. . ... : ... .. . ... : ... .. . ... : ... .. . ...
ROW 3C : D#1 00 . ... : ... .. . ... : D#2 00 . ... : F-# 02 6 ... : ... .. . ... : F-2 09 . ... : C-5 08 . ... : D-5 07 . ...
ROW 3D : --- .. . ... : ... .. . ... : --- .. . ... : ... .. . ... : ... .. . ... : ... .. . ... : ... .. . ... : ... .. . ...
ROW 3E : D#1 00 . ... : ... .. . ... : D#2 00 . ... : F-# 02 7 ... : ... .. . ... : D#2 09 . ... : A#4 08 . ... : C-5 07 . ...
ROW 3F : --- .. . ... : ... .. . ... : --- .. . ... : ... .. . ... : ... .. . ... : ... .. . ... : ... .. . ... : ... .. . ...
ROW 40 : G#1 00 . ... : G#1 0B . ... : G#1 00 . ... : F-# 02 7 ... : ... .. . ... : G#2 09 . ... : G#4 08 . ... : A#4 07 . ...
ROW 41 : --- .. . ... : ... .. . ... : --- .. . ... : ... .. . ... : ... .. . ... : ... .. . ... : ... .. . ... : ... .. . ...
ROW 42 : G#1 00 . ... : ... .. . ... : G#1 00 . ... : F-# 02 8 ... : ... .. . ... : G-2 09 . ... : ... .. . ... : G#4 07 . ...
ROW 43 : --- .. . ... : ... .. . ... : --- .. . ... : ... .. . ... : ... .. . ... : ... .. . ... : ... .. . ... : ... .. . ...
ROW 44 : G#1 00 . ... : ... .. . ... : G#1 00 . ... : F-# 02 8 ... : ... .. . ... : F-2 09 . ... : ... .. . ... : ... .. . ...
ROW 45 : --- .. . ... : ... .. . ... : --- .. . ... : ... .. . ... : ... .. . ... : ... .. . ... : ... .. . ... : ... .. . ...
ROW 46 : G#1 00 . ... : ... .. . ... : G#1 00 . ... : F-# 02 9 ... : ... .. . ... : C-2 09 . ... : ... .. . ... : ... .. . ...
ROW 47 : --- .. . ... : ... .. . ... : --- .. . ... : ... .. . ... : ... .. . ... : ... .. . ... : ... .. . ... : ... .. . ...
ROW 48 : G#2 00 . ... : ... .. . ... : G#2 00 . ... : 5-# 03 C ... : ... .. . ... : G#2 09 . ... : G#4 08 . ... : ... .. . ...
ROW 49 : --- .. . ... : ... .. . ... : --- .. . ... : ... .. . ... : ... .. . ... : ... .. . ... : ... .. . ... : ... .. . ...
ROW 4A : G#1 00 . ... : ... .. . ... : G#1 00 . ... : ... .. . ... : ... .. . ... : G-2 09 . ... : ... .. . ... : G#4 07 . ...
ROW 4B : --- .. . ... : ... .. . ... : --- .. . ... : ... .. . ... : ... .. . ... : ... .. . ... : ... .. . ... : ... .. . ...
ROW 4C : G-1 00 . ... : G-1 0B . ... : G-1 00 . ... : F-# 02 6 ... : ... .. . ... : F-2 09 . ... : G-4 08 . ... : ... .. . ...
ROW 4D : --- .. . ... : ... .. . ... : --- .. . ... : ... .. . ... : ... .. . ... : ... .. . ... : ... .. . ... : ... .. . ...
ROW 4E : G-1 00 . ... : ... .. . ... : G-1 00 . ... : F-# 02 7 ... : ... .. . ... : C-2 09 . ... : ... .. . ... : G-4 07 . ...
ROW 4F : --- .. . ... : ... .. . ... : --- .. . ... : ... .. . ... : ... .. . ... : ... .. . ... : ... .. . ... : ... .. . ...
ROW 50 : F-1 00 . ... : F-1 0B . ... : F-1 00 . ... : F-# 02 7 ... : ... .. . ... : G#2 09 . ... : F-4 08 . ... : ... .. . ...
ROW 51 : --- .. . ... : ... .. . ... : --- .. . ... : ... .. . ... : ... .. . ... : ... .. . ... : ... .. . ... : ... .. . ...
ROW 52 : F-1 00 . ... : ... .. . ... : F-1 00 . ... : F-# 02 8 ... : ... .. . ... : G-2 09 . ... : ... .. . ... : F-4 07 . ...
ROW 53 : --- .. . ... : ... .. . ... : --- .. . ... : ... .. . ... : ... .. . ... : ... .. . ... : ... .. . ... : ... .. . ...
ROW 54 : F-1 00 . ... : ... .. . ... : F-1 00 . ... : F-# 02 8 ... : ... .. . ... : F-2 09 . ... : ... .. . ... : ... .. . ...
ROW 55 : --- .. . ... : ... .. . ... : --- .. . ... : ... .. . ... : ... .. . ... : ... .. . ... : ... .. . ... : ... .. . ...
ROW 56 : F-1 00 . ... : ... .. . ... : F-1 00 . ... : 0-# 03 9 ... : ... .. . ... : C-2 09 . ... : ... .. . ... : ... .. . ...
ROW 57 : --- .. . ... : ... .. . ... : --- .. . ... : ... .. . ... : ... .. . ... : ... .. . ... : ... .. . ... : ... .. . ...
ROW 58 : G-2 00 . ... : G-1 0B . ... : G-2 00 . ... : 5-# 03 C ... : ... .. . ... : G#2 09 . ... : G-4 08 . ... : ... .. . ...
ROW 59 : --- .. . ... : ... .. . ... : --- .. . ... : ... .. . ... : ... .. . ... : ... .. . ... : ... .. . ... : ... .. . ...
ROW 5A : G-1 00 . ... : ... .. . ... : G-1 00 . ... : ... .. . ... : ... .. . ... : G-2 09 . ... : ... .. . ... : G-4 07 . ...
ROW 5B : --- .. . ... : ... .. . ... : --- .. . ... : ... .. . ... : ... .. . ... : ... .. . ... : ... .. . ... : ... .. . ...
ROW 5C : G#1 00 . ... : G#1 0B . ... : G#1 00 . ... : F-# 02 6 ... : ... .. . ... : F-2 09 . ... : G#4 08 . ... : ... .. . ...
ROW 5D : --- 00 . ... : ... .. . ... : --- 00 . ... : ... .. . ... : ... .. . ... : ... .. . ... : ... .. . ... : ... .. . ...
ROW 5E : G#1 00 . ... : ... .. . ... : G#1 00 . ... : F-# 02 7 ... : ... .. . ... : C-2 09 . ... : ... .. . ... : G#4 07 . ...
ROW 5F : --- .. . ... : ... .. . ... : --- .. . ... : ... .. . ... : ... .. . ... : ... .. . ... : ... .. . ... : ... .. . ...
ROW 60 : B-1 00 . ... : B-1 0B . ... : B-1 00 . ... : F-# 02 7 ... : ... .. . ... : B-2 09 . ... : B-4 08 . ... : ... .. . ...
ROW 61 : --- .. . ... : ... .. . ... : --- .. . ... : ... .. . ... : ... .. . ... : ... .. . ... : ... .. . ... : ... .. . ...
ROW 62 : B-1 00 . ... : ... .. . ... : B-1 00 . ... : F-# 02 8 ... : ... .. . ... : G-2 09 . ... : ... .. . ... : B-4 07 . ...
ROW 63 : --- .. . ... : ... .. . ... : --- .. . ... : ... .. . ... : ... .. . ... : ... .. . ... : ... .. . ... : ... .. . ...
ROW 64 : B-1 00 . ... : B-0 0B . ... : B-1 00 . ... : F-# 02 8 ... : ... .. . ... : D-2 09 . ... : ... .. . ... : ... .. . ...
ROW 65 : --- .. . ... : ... .. . ... : --- .. . ... : ... .. . ... : ... .. . ... : ... .. . ... : ... .. . ... : ... .. . ...
ROW 66 : B-1 00 . ... : ... .. . ... : B-1 00 . ... : F-# 02 9 ... : ... .. . ... : B-1 09 . ... : ... .. . ... : ... .. . ...
ROW 67 : --- .. . ... : ... .. . ... : --- .. . ... : ... .. . ... : ... .. . ... : ... .. . ... : ... .. . ... : ... .. . ...
ROW 68 : B-2 00 . ... : ... .. . ... : B-2 00 . ... : 5-# 03 C ... : ... .. . ... : B-2 09 . ... : G-4 08 . ... : ... .. . ...
ROW 69 : --- .. . ... : ... .. . ... : --- .. . ... : ... .. . ... : ... .. . ... : ... .. . ... : ... .. . ... : ... .. . ...
ROW 6A : B-1 00 . ... : ... .. . ... : B-1 00 . ... : ... .. . ... : ... .. . ... : G-2 09 . ... : ... .. . ... : G-4 07 . ...
ROW 6B : --- .. . ... : ... .. . ... : --- .. . ... : ... .. . ... : ... .. . ... : ... .. . ... : ... .. . ... : ... .. . ...
ROW 6C : B-1 00 . ... : ... .. . ... : B-1 00 . ... : F-# 02 6 ... : ... .. . ... : D-2 09 . ... : ... .. . ... : ... .. . ...
ROW 6D : --- .. . ... : ... .. . ... : --- .. . ... : ... .. . ... : ... .. . ... : ... .. . ... : ... .. . ... : ... .. . ...
ROW 6E : B-1 00 . ... : ... .. . ... : B-1 00 . ... : F-# 02 7 ... : ... .. . ... : B-1 09 . ... : ... .. . ... : ... .. . ...
ROW 6F : --- .. . ... : ... .. . ... : --- .. . ... : ... .. . ... : ... .. . ... : ... .. . ... : ... .. . ... : ... .. . ...
ROW 70 : B-1 00 . ... : ... .. . ... : B-1 00 . ... : F-# 02 7 ... : ... .. . ... : B-2 09 . ... : D-4 08 . ... : ... .. . ...
ROW 71 : --- .. . ... : ... .. . ... : --- .. . ... : ... .. . ... : ... .. . ... : ... .. . ... : ... .. . ... : ... .. . ...
ROW 72 : B-1 00 . ... : ... .. . ... : B-1 00 . ... : F-# 02 8 ... : ... .. . ... : G-2 09 . ... : D#4 08 . ... : D-4 07 . ...
ROW 73 : --- .. . ... : ... .. . ... : --- .. . ... : ... .. . ... : ... .. . ... : ... .. . ... : ... .. . ... : ... .. . ...
ROW 74 : B-1 00 . ... : ... .. . ... : B-1 00 . ... : F-# 02 8 ... : ... .. . ... : D-2 09 . ... : F-4 08 . ... : D#4 07 . ...
ROW 75 : --- .. . ... : ... .. . ... : --- .. . ... : ... .. . ... : ... .. . ... : ... .. . ... : ... .. . ... : ... .. . ...
ROW 76 : B-1 00 . ... : ... .. . ... : B-1 00 . ... : 0-# 03 9 ... : ... .. . ... : B-1 09 . ... : D#4 08 . ... : F-4 07 . ...
ROW 77 : --- .. . ... : ... .. . ... : --- .. . ... : ... .. . ... : ... .. . ... : ... .. . ... : ... .. . ... : ... .. . ...
ROW 78 : B-2 00 . ... : ... .. . ... : B-2 00 . ... : 5-# 03 C ... : ... .. . ... : B-2 09 . ... : D-4 08 . ... : D#4 07 . ...
ROW 79 : --- .. . ... : ... .. . ... : --- .. . ... : ... .. . ... : ... .. . ... : ... .. . ... : ... .. . ... : ... .. . ...
ROW 7A : B-1 00 . ... : ... .. . ... : B-1 00 . ... : ... .. . ... : ... .. . ... : G-2 09 . ... : D#4 08 . ... : D-4 07 . ...
ROW 7B : --- .. . ... : ... .. . ... : --- .. . ... : ... .. . ... : ... .. . ... : ... .. . ... : ... .. . ... : ... .. . ...
ROW 7C : B-1 00 . ... : ... .. . ... : B-1 00 . ... : F-# 02 6 ... : ... .. . ... : D-2 09 . ... : D-4 08 . ... : D#4 07 . ...
ROW 7D : --- .. . ... : ... .. . ... : --- .. . ... : ... .. . ... : ... .. . ... : ... .. . ... : ... .. . ... : ... .. . ...
ROW 7E : B-1 00 . ... : ... .. . ... : B-1 00 . ... : F-# 02 7 ... : ... .. . ... : B-1 09 . ... : G-4 08 . ... : D-4 07 . ...
ROW 7F : --- .. . ... : ... .. . ... : --- .. . ... : ... .. . ... : ... .. . ... : ... .. . ... : ... .. . ... : ... .. . ...

PATTERN 07
ROW 00 : C-1 00 . ... : C-1 0B 8 ... : C-2 00 . ... : F-# 02 7 ... : ... .. . ... : C-3 09 F ... : D#4 08 F ... : ... .. . ...
ROW 01 : --- .. . ... : ... .. . ... : --- .. . ... : ... .. . ... : ... .. . ... : ... .. . ... : ... .. . ... : ... .. . ...
ROW 02 : C-1 00 . ... : ... .. . ... : C-2 00 . ... : F-# 02 6 ... : ... .. . ... : G-2 09 . ... : D-4 08 . ... : D#4 07 4 ...
ROW 03 : --- .. . ... : ... .. . ... : --- .. . ... : ... .. . ... : ... .. . ... : ... .. . ... : ... .. . ... : ... .. . ...
ROW 04 : C-1 00 . ... : ... .. . ... : C-2 00 . ... : F-# 02 7 ... : ... .. . ... : D#2 09 . ... : C-4 08 . ... : D-4 07 . ...
ROW 05 : --- .. . ... : ... .. . ... : --- .. . ... : ... .. . ... : ... .. . ... : ... .. . ... : ... .. . ... : ... .. . ...
ROW 06 : C-1 00 . ... : ... .. . ... : C-2 00 . ... : F-# 02 8 ... : ... .. . ... : C-2 09 . ... : G-3 08 . ... : C-4 07 . ...
ROW 07 : --- .. . ... : ... .. . ... : --- .. . ... : ... .. . ... : ... .. . ... : ... .. . ... : ... .. . ... : ... .. . ...
ROW 08 : C-2 00 . ... : ... .. . ... : C-3 00 . ... : 5-# 03 C ... : ... .. . ... : C-3 09 . ... : C-3 08 . ... : G-3 07 . ...
ROW 09 : --- .. . ... : ... .. . ... : --- .. . ... : ... .. . ... : ... .. . ... : ... .. . ... : ... .. . ... : ... .. . ...
ROW 0A : C-1 00 . ... : ... .. . ... : C-2 00 . ... : ... .. . ... : ... .. . ... : G-2 09 . ... : ... .. . ... : C-3 07 . ...
ROW 0B : --- .. . ... : ... .. . ... : --- .. . ... : ... .. . ... : ... .. . ... : ... .. . ... : ... .. . ... : ... .. . ...
ROW 0C : C-1 00 . ... : ... .. . ... : C-2 00 . ... : F-# 02 6 ... : ... .. . ... : D#2 09 . ... : C-3 08 . ... : ... .. . ...
ROW 0D : --- .. . ... : ... .. . ... : --- .. . ... : ... .. . ... : ... .. . ... : ... .. . ... : ... .. . ... : ... .. . ...
ROW 0E : C-1 00 . ... : ... .. . ... : C-2 00 . ... : F-# 02 7 ... : ... .. . ... : C-2 09 . ... : G-3 08 . ... : C-3 07 . ...
ROW 0F : --- .. . ... : ... .. . ... : --- .. . ... : ... .. . ... : ... .. . ... : ... .. . ... : ... .. . ... : ... .. . ...
ROW 10 : C-1 00 . ... : ... .. . ... : C-2 00 . ... : F-# 02 7 ... : ... .. . ... : C-3 09 . ... : C-4 08 . ... : G-3 07 . ...
ROW 11 : --- .. . ... : ... .. . ... : --- .. . ... : ... .. . ... : ... .. . ... : ... .. . ... : ... .. . ... : ... .. . ...
ROW 12 : C-1 00 . ... : ... .. . ... : C-2 00 . ... : F-# 02 8 ... : ... .. . ... : G-2 09 . ... : ... .. . ... : C-4 07 . ...
ROW 13 : --- .. . ... : ... .. . ... : --- .. . ... : ... .. . ... : ... .. . ... : ... .. . ... : ... .. . ... : ... .. . ...
ROW 14 : C-1 00 . ... : ... .. . ... : C-2 00 . ... : F-# 02 8 ... : ... .. . ... : D#2 09 . ... : ... .. . ... : ... .. . ...
ROW 15 : --- .. . ... : ... .. . ... : --- .. . ... : ... .. . ... : ... .. . ... : ... .. . ... : ... .. . ... : ... .. . ...
ROW 16 : C-1 00 . ... : D-4 0C C ... : C-2 00 . ... : 0-# 03 9 ... : ... .. . ... : C-2 09 . ... : A#3 08 . ... : ... .. . ...
ROW 17 : --- .. . ... : ... .. . ... : --- .. . ... : ... .. . ... : ... .. . ... : ... .. . ... : ... .. . ... : ... .. . ...
ROW 18 : C-2 00 . ... : ... .. . ... : C-3 00 . ... : 5-# 03 C ... : ... .. . ... : C-3 09 . ... : ... .. . ... : A#3 07 . ...
ROW 19 : --- .. . ... : ... .. . ... : --- .. . ... : ... .. . ... : ... .. . ... : ... .. . ... : ... .. . ... : ... .. . ...
ROW 1A : C-1 00 . ... : ... .. . ... : C-2 00 . ... : ... .. . ... : ... .. . ... : G-2 09 . ... : ... .. . ... : ... .. . ...
ROW 1B : --- .. . ... : ... .. . ... : --- .. . ... : ... .. . ... : ... .. . ... : ... .. . ... : ... .. . ... : ... .. . ...
ROW 1C : C-1 00 . ... : D#4 0C . ... : C-2 00 . ... : F-# 02 6 ... : ... .. . ... : D#2 09 . ... : G#3 08 . ... : ... .. . ...
ROW 1D : --- .. . ... : ... .. . ... : --- .. . ... : ... .. . ... : ... .. . ... : ... .. . ... : ... .. . ... : ... .. . ...
ROW 1E : C-1 00 . ... : ... .. . ... : C-2 00 . ... : F-# 02 7 ... : ... .. . ... : C-2 09 . ... : ... .. . ... : G#3 07 . ...
ROW 1F : --- .. . ... : ... .. . ... : --- .. . ... : ... .. . ... : ... .. . ... : ... .. . ... : ... .. . ... : ... .. . ...
ROW 20 : D#1 00 . ... : F-4 0C . ... : D#2 00 . ... : F-# 02 7 ... : ... .. . ... : G#2 09 . ... : G#3 08 . ... : ... .. . ...
ROW 21 : --- .. . ... : ... .. . ... : --- .. . ... : ... .. . ... : ... .. . ... : ... .. . ... : ... .. . ... : ... .. . ...
ROW 22 : D#1 00 . ... : ... .. . ... : D#2 00 . ... : F-# 02 8 ... : ... .. . ... : F-2 09 . ... : ... .. . ... : G#3 07 . ...
ROW 23 : --- .. . ... : ... .. . ... : --- .. . ... : ... .. . ... : ... .. . ... : ... .. . ... : ... .. . ... : ... .. . ...
ROW 24 : D#1 00 . ... : ... .. . ... : D#2 00 . ... : F-# 02 8 ... : ... .. . ... : D#2 09 . ... : ... .. . ... : ... .. . ...
ROW 25 : --- .. . ... : ... .. . ... : --- .. . ... : ... .. . ... : ... .. . ... : ... .. . ... : ... .. . ... : ... .. . ...
ROW 26 : D#1 00 . ... : ... .. . ... : D#2 00 . ... : F-# 02 9 ... : ... .. . ... : D-2 09 . ... : ... .. . ... : ... .. . ...
ROW 27 : --- .. . ... : ... .. . ... : --- .. . ... : ... .. . ... : ... .. . ... : ... .. . ... : ... .. . ... : ... .. . ...
ROW 28 : D#2 00 . ... : === 0C . ... : D#3 00 . ... : 5-# 03 C ... : ... .. . ... : G#2 09 . ... : G#4 08 . ... : ... .. . ...
ROW 29 : --- .. . ... : ... .. . ... : --- .. . ... : ... .. . ... : ... .. . ... : ... .. . ... : G#4 08 . ... : ... .. . ...
ROW 2A : D#1 00 . ... : ... .. . ... : D#2 00 . ... : ... .. . ... : ... .. . ... : F-2 09 . ... : A#4 08 . ... : G#4 07 . ...
ROW 2B : --- .. . ... : ... .. . ... : --- .. . ... : ... .. . ... : ... .. . ... : ... .. . ... : G#4 08 . ... : G#4 07 . ...
ROW 2C : D#1 00 . ... : ... .. . ... : D#2 00 . ... : F-# 02 6 ... : ... .. . ... : D#2 09 . ... : G-4 08 . ... : A#4 07 . ...
ROW 2D : --- .. . ... : ... .. . ... : --- .. . ... : ... .. . ... : ... .. . ... : ... .. . ... : ... .. . ... : G#4 07 . ...
ROW 2E : D#1 00 . ... : ... .. . ... : D#2 00 . ... : F-# 02 7 ... : ... .. . ... : D-2 09 . ... : ... .. . ... : G-4 07 . ...
ROW 2F : --- .. . ... : ... .. . ... : --- .. . ... : ... .. . ... : ... .. . ... : ... .. . ... : ... .. . ... : ... .. . ...
ROW 30 : D#1 00 . ... : D#3 0C . ... : D#2 00 . ... : F-# 02 7 ... : ... .. . ... : G#2 09 . ... : G-3 08 . ... : ... .. . ...
ROW 31 : --- 00 . ... : ... .. . ... : --- 00 . ... : ... .. . ... : ... .. . ... : ... .. . ... : ... .. . ... : ... .. . ...
ROW 32 : D#1 00 . ... : ... .. . ... : D#2 00 . ... : F-# 02 8 ... : ... .. . ... : F-2 09 . ... : ... .. . ... : G-3 07 . ...
ROW 33 : --- .. . ... : ... .. . ... : --- .. . ... : ... .. . ... : ... .. . ... : ... .. . ... : ... .. . ... : ... .. . ...
ROW 34 : D#1 00 . ... : ... .. . ... : D#2 00 . ... : F-# 02 8 ... : ... .. . ... : D#2 09 . ... : ... .. . ... : ... .. . ...
ROW 35 : --- .. . ... : ... .. . ... : --- .. . ... : ... .. . ... : ... .. . ... : ... .. . ... : ... .. . ... : ... .. . ...
ROW 36 : D#1 00 . ... : F-3 0C . ... : D#2 00 . ... : 0-# 03 9 ... : ... .. . ... : D-2 09 . ... : G#3 08 . ... : ... .. . ...
ROW 37 : --- .. . ... : ... .. . ... : --- .. . ... : ... .. . ... : ... .. . ... : ... .. . ... : ... .. . ... : ... .. . ...
ROW 38 : D#2 00 . ... : ... .. . ... : D#3 00 . ... : 5-# 03 C ... : ... .. . ... : G#2 09 . ... : ... .. . ... : G#3 07 . ...
ROW 39 : --- .. . ... : ... .. . ... : --- .. . ... : ... .. . ... : ... .. . ... : ... .. . ... : ... .. . ... : ... .. . ...
ROW 3A : D#1 00 . ... : ... .. . ... : D#2 00 . ... : ... .. . ... : ... .. . ... : F-2 09 . ... : ... .. . ... : ... .. . ...
ROW 3B : --- .. . ... : ... .. . ... : --- .. . ... : ... .. . ... : ... .. . ... : ... .. . ... : ... .. . ... : ... .. . ...
ROW 3C : D#1 00 . ... : G-3 0C . ... : D#2 00 . ... : F-# 02 6 ... : ... .. . ... : D#2 09 . ... : A#3 08 . ... : ... .. . ...
ROW 3D : --- .. . ... : ... .. . ... : --- .. . ... : ... .. . ... : ... .. . ... : ... .. . ... : ... .. . ... : ... .. . ...
ROW 3E : D#1 00 . ... : ... .. . ... : D#2 00 . ... : F-# 02 7 ... : ... .. . ... : D-2 09 . ... : ... .. . ... : A#3 07 . ...
ROW 3F : --- .. . ... : ... .. . ... : --- .. . ... : ... .. . ... : ... .. . ... : ... .. . ... : ... .. . ... : ... .. . ...
ROW 40 : G-1 00 . ... : D#3 0C . ... : G-2 00 . ... : F-# 02 7 ... : ... .. . ... : G-2 09 . ... : G-3 08 . ... : ... .. . ...
ROW 41 : --- .. . ... : ... .. . ... : --- .. . ... : ... .. . ... : ... .. . ... : ... .. . ... : ... .. . ... : ... .. . ...
ROW 42 : G-1 00 . ... : ... .. . ... : G-2 00 . ... : F-# 02 8 ... : ... .. . ... : D#2 09 . ... : ... .. . ... : G-3 07 . ...
ROW 43 : --- .. . ... : ... .. . ... : --- .. . ... : ... .. . ... : ... .. . ... : ... .. . ... : ... .. . ... : ... .. . ...
ROW 44 : G-1 00 . ... : ... .. . ... : G-2 00 . ... : F-# 02 8 ... : ... .. . ... : D-2 09 . ... : ... .. . ... : ... .. . ...
ROW 45 : --- .. . ... : ... .. . ... : --- .. . ... : ... .. . ... : ... .. . ... : ... .. . ... : ... .. . ... : ... .. . ...
ROW 46 : G-1 00 . ... : ... .. . ... : G-2 00 . ... : F-# 02 9 ... : ... .. . ... : C-2 09 . ... : ... .. . ... : ... .. . ...
ROW 47 : --- .. . ... : ... .. . ... : --- .. . ... : ... .. . ... : ... .. . ... : ... .. . ... : ... .. . ... : ... .. . ...
ROW 48 : G-2 00 . ... : === .. . ... : G-3 00 . ... : 5-# 03 C ... : ... .. . ... : G-2 09 . ... : C-4 08 . ... : ... .. . ...
ROW 49 : --- .. . ... : ... .. . ... : --- .. . ... : ... .. . ... : ... .. . ... : ... .. . ... : ... .. . ... : ... .. . ...
ROW 4A : G-1 00 . ... : ... .. . ... : G-2 00 . ... : ... .. . ... : ... .. . ... : D#2 09 . ... : ... .. . ... : C-4 07 . ...
ROW 4B : --- .. . ... : ... .. . ... : --- .. . ... : ... .. . ... : ... .. . ... : ... .. . ... : ... .. . ... : ... .. . ...
ROW 4C : G-1 00 . ... : ... .. . ... : G-2 00 . ... : F-# 02 6 ... : ... .. . ... : D-2 09 . ... : ... .. . ... : ... .. . ...
ROW 4D : --- .. . ... : ... .. . ... : --- .. . ... : ... .. . ... : ... .. . ... : ... .. . ... : ... .. . ... : ... .. . ...
ROW 4E : G-1 00 . ... : ... .. . ... : G-2 00 . ... : F-# 02 7 ... : ... .. . ... : C-2 09 . ... : ... .. . ... : ... .. . ...
ROW 4F : --- .. . ... : ... .. . ... : --- .. . ... : ... .. . ... : ... .. . ... : ... .. . ... : ... .. . ... : ... .. . ...
ROW 50 : G-1 00 . ... : D#4 0C . ... : G-2 00 . ... : F-# 02 7 ... : ... .. . ... : G-2 09 . ... : G-4 08 . ... : ... .. . ...
ROW 51 : --- .. . ... : ... .. . ... : --- .. . ... : ... .. . ... : ... .. . ... : ... .. . ... : ... .. . ... : ... .. . ...
ROW 52 : G-1 00 . ... : ... .. . ... : G-2 00 . ... : F-# 02 8 ... : ... .. . ... : D#2 09 . ... : ... .. . ... : G-4 07 . ...
ROW 53 : --- .. . ... : ... .. . ... : --- .. . ... : ... .. . ... : ... .. . ... : ... .. . ... : ... .. . ... : ... .. . ...
ROW 54 : G-1 00 . ... : ... .. . ... : G-2 00 . ... : F-# 02 8 ... : ... .. . ... : D-2 09 . ... : ... .. . ... : ... .. . ...
ROW 55 : --- .. . ... : ... .. . ... : --- .. . ... : ... .. . ... : ... .. . ... : ... .. . ... : ... .. . ... : ... .. . ...
ROW 56 : G-1 00 . ... : ... .. . ... : G-2 00 . ... : 0-# 03 9 ... : ... .. . ... : C-2 09 . ... : ... .. . ... : ... .. . ...
ROW 57 : --- .. . ... : ... .. . ... : --- .. . ... : ... .. . ... : ... .. . ... : ... .. . ... : ... .. . ... : ... .. . ...
ROW 58 : G-2 00 . ... : G-4 0C . ... : G-3 00 . ... : 5-# 03 C ... : ... .. . ... : G-2 09 . ... : C-5 08 . ... : ... .. . ...
ROW 59 : --- .. . ... : ... .. . ... : --- .. . ... : ... .. . ... : ... .. . ... : ... .. . ... : ... .. . ... : ... .. . ...
ROW 5A : G-1 00 . ... : ... .. . ... : G-2 00 . ... : ... .. . ... : ... .. . ... : D#2 09 . ... : ... .. . ... : C-5 07 . ...
ROW 5B : --- .. . ... : ... .. . ... : --- .. . ... : ... .. . ... : ... .. . ... : ... .. . ... : ... .. . ... : ... .. . ...
ROW 5C : G-1 00 . ... : ... .. . ... : G-2 00 . ... : F-# 02 6 ... : ... .. . ... : D-2 09 . ... : A#4 08 . ... : ... .. . ...
ROW 5D : --- .. . ... : ... .. . ... : --- .. . ... : ... .. . ... : ... .. . ... : ... .. . ... : ... .. . ... : ... .. . ...
ROW 5E : G-1 00 . ... : ... .. . ... : G-2 00 . ... : F-# 02 7 ... : ... .. . ... : C-2 09 . ... : ... .. . ... : A#4 07 . ...
ROW 5F : --- .. . ... : ... .. . ... : --- .. . ... : ... .. . ... : ... .. . ... : ... .. . ... : ... .. . ... : ... .. . ...
ROW 60 : F-1 00 . ... : F-4 0C . ... : F-2 00 . ... : F-# 02 7 ... : ... .. . ... : A-2 09 . ... : A-4 08 . ... : ... .. . ...
ROW 61 : --- .. . ... : ... .. . ... : --- .. . ... : ... .. . ... : ... .. . ... : ... .. . ... : ... .. . ... : ... .. . ...
ROW 62 : F-1 00 . ... : ... .. . ... : F-2 00 . ... : F-# 02 8 ... : ... .. . ... : G-2 09 . ... : ... .. . ... : A-4 07 . ...
ROW 63 : --- .. . ... : ... .. . ... : --- .. . ... : ... .. . ... : ... .. . ... : ... .. . ... : ... .. . ... : ... .. . ...
ROW 64 : F-1 00 . ... : ... .. . ... : F-2 00 . ... : F-# 02 8 ... : ... .. . ... : F-2 09 . ... : ... .. . ... : ... .. . ...
ROW 65 : --- .. . ... : ... .. . ... : --- .. . ... : ... .. . ... : ... .. . ... : ... .. . ... : ... .. . ... : ... .. . ...
ROW 66 : F-1 00 . ... : ... .. . ... : F-2 00 . ... : F-# 02 9 ... : ... .. . ... : D#2 09 . ... : ... .. . ... : ... .. . ...
ROW 67 : --- .. . ... : ... .. . ... : --- .. . ... : ... .. . ... : ... .. . ... : ... .. . ... : ... .. . ... : ... .. . ...
ROW 68 : F-2 00 . ... : D-4 0C . ... : F-3 00 . ... : 5-# 03 C ... : ... .. . ... : A-2 09 . ... : F-4 08 . ... : ... .. . ...
ROW 69 : --- .. . ... : ... .. . ... : --- .. . ... : ... .. . ... : ... .. . ... : ... .. . ... : ... .. . ... : ... .. . ...
ROW 6A : F-1 00 . ... : ... .. . ... : F-2 00 . ... : ... .. . ... : ... .. . ... : G-2 09 . ... : ... .. . ... : F-4 07 . ...
ROW 6B : --- .. . ... : ... .. . ... : --- .. . ... : ... .. . ... : ... .. . ... : ... .. . ... : ... .. . ... : ... .. . ...
ROW 6C : F-1 00 . ... : === .. . ... : F-2 00 . ... : F-# 02 6 ... : ... .. . ... : F-2 09 . ... : F-4 08 . ... : ... .. . ...
ROW 6D : --- .. . ... : ... .. . ... : --- .. . ... : ... .. . ... : ... .. . ... : ... .. . ... : G-4 08 . ... : ... .. . ...
ROW 6E : F-1 00 . ... : ... .. . ... : F-2 00 . ... : F-# 02 7 ... : ... .. . ... : D#2 09 . ... : F-4 08 . ... : F-4 07 . ...
ROW 6F : --- .. . ... : ... .. . ... : --- .. . ... : ... .. . ... : ... .. . ... : ... .. . ... : G-4 08 . ... : G-4 07 . ...
ROW 70 : F-1 00 . ... : D-4 0C . ... : F-2 00 . ... : F-# 02 7 ... : ... .. . ... : A-2 09 . ... : F-4 08 . ... : F-4 07 . ...
ROW 71 : --- .. . ... : ... .. . ... : --- .. . ... : ... .. . ... : ... .. . ... : ... .. . ... : ... .. . ... : G-4 07 . ...
ROW 72 : F-1 00 . ... : ... .. . ... : F-2 00 . ... : F-# 02 8 ... : ... .. . ... : G-2 09 . ... : ... .. . ... : F-4 07 . ...
ROW 73 : --- .. . ... : ... .. . ... : --- .. . ... : ... .. . ... : ... .. . ... : ... .. . ... : ... .. . ... : ... .. . ...
ROW 74 : F-1 00 . ... : D#4 0C . ... : F-2 00 . ... : F-# 02 8 ... : ... .. . ... : F-2 09 . ... : G-4 08 . ... : ... .. . ...
ROW 75 : --- .. . ... : ... .. . ... : --- .. . ... : ... .. . ... : ... .. . ... : ... .. . ... : ... .. . ... : ... .. . ...
ROW 76 : F-1 00 . ... : ... .. . ... : F-2 00 . ... : 0-# 03 9 ... : ... .. . ... : D#2 09 . ... : ... .. . ... : G-4 07 . ...
ROW 77 : --- .. . ... : ... .. . ... : --- .. . ... : ... .. . ... : ... .. . ... : ... .. . ... : ... .. . ... : ... .. . ...
ROW 78 : F-2 00 . ... : F-4 0C . ... : F-3 00 . ... : 5-# 03 C ... : ... .. . ... : A-2 09 . ... : G#4 08 . ... : ... .. . ...
ROW 79 : --- .. . ... : ... .. . ... : --- .. . ... : ... .. . ... : ... .. . ... : ... .. . ... : ... .. . ... : ... .. . ...
ROW 7A : F-1 00 . ... : ... .. . ... : F-2 00 . ... : ... .. . ... : ... .. . ... : G-2 09 . ... : ... .. . ... : G#4 07 . ...
ROW 7B : --- .. . ... : ... .. . ... : --- .. . ... : ... .. . ... : ... .. . ... : ... .. . ... : ... .. . ... : ... .. . ...
ROW 7C : F-1 00 . ... : D-4 0C . ... : F-2 00 . ... : F-# 02 6 ... : ... .. . ... : F-2 09 . ... : F-4 08 . ... : ... .. . ...
ROW 7D : --- .. . ... : ... .. . ... : --- .. . ... : ... .. . ... : ... .. . ... : ... .. . ... : ... .. . ... : ... .. . ...
ROW 7E : F-1 00 . ... : ... .. . ... : F-2 00 . ... : F-# 02 7 ... : ... .. . ... : D#2 09 . ... : ... .. . ... : F-4 07 . ...
ROW 7F : --- .. . ... : ... .. . ... : --- .. . ... : ... .. . ... : ... .. . ... : ... .. . ... : ... .. . ... : ... .. . ...

PATTERN 08
ROW 00 : G-1 00 . ... : G-1 0B 8 ... : G-2 00 . ... : 4-# 03 C ... : ... .. . ... : G-2 09 F ... : G-4 08 F ... : ... .. . ...
ROW 01 : --- .. . ... : ... .. . ... : --- .. . ... : ... .. . ... : ... .. . ... : ... .. . ... : ... .. . ... : ... .. . ...
ROW 02 : G-1 00 . ... : ... .. . ... : G-2 00 . ... : F-# 02 6 ... : ... .. . ... : D#2 09 . ... : ... .. . ... : G-4 07 4 ...
ROW 03 : --- .. . ... : ... .. . ... : --- .. . ... : ... .. . ... : ... .. . ... : ... .. . ... : ... .. . ... : ... .. . ...
ROW 04 : G-1 00 . ... : ... .. . ... : G-2 00 . ... : F-# 02 7 ... : ... .. . ... : D-2 09 . ... : ... .. . ... : ... .. . ...
ROW 05 : --- .. . ... : ... .. . ... : --- .. . ... : ... .. . ... : ... .. . ... : ... .. . ... : ... .. . ... : ... .. . ...
ROW 06 : G-1 00 . ... : ... .. . ... : G-2 00 . ... : F-# 02 8 ... : ... .. . ... : C-2 09 . ... : ... .. . ... : ... .. . ...
ROW 07 : --- .. . ... : ... .. . ... : --- .. . ... : ... .. . ... : ... .. . ... : ... .. . ... : ... .. . ... : ... .. . ...
ROW 08 : G-2 00 . ... : ... .. . ... : G-3 00 . ... : 5-# 03 C ... : ... .. . ... : G-2 09 . ... : C-4 08 . ... : ... .. . ...
ROW 09 : --- .. . ... : ... .. . ... : --- .. . ... : ... .. . ... : ... .. . ... : ... .. . ... : ... .. . ... : ... .. . ...
ROW 0A : G-1 00 . ... : ... .. . ... : G-2 00 . ... : ... .. . ... : ... .. . ... : D#2 09 . ... : ... .. . ... : C-4 07 . ...
ROW 0B : --- .. . ... : ... .. . ... : --- .. . ... : ... .. . ... : ... .. . ... : ... .. . ... : ... .. . ... : ... .. . ...
ROW 0C : G-1 00 . ... : ... .. . ... : G-2 00 . ... : F-# 02 6 ... : ... .. . ... : D-2 09 . ... : D-4 08 . ... : ... .. . ...
ROW 0D : --- .. . ... : ... .. . ... : --- .. . ... : ... .. . ... : ... .. . ... : ... .. . ... : ... .. . ... : ... .. . ...
ROW 0E : G-1 00 . ... : ... .. . ... : G-2 00 . ... : F-# 02 7 ... : ... .. . ... : C-2 09 . ... : ... .. . ... : D-4 07 . ...
ROW 0F : --- .. . ... : ... .. . ... : --- .. . ... : ... .. . ... : ... .. . ... : ... .. . ... : ... .. . ... : ... .. . ...
ROW 10 : G-1 00 . ... : ... .. . ... : G-2 00 . ... : F-# 02 7 ... : ... .. . ... : G-2 09 . ... : D#4 08 . ... : ... .. . ...
ROW 11 : --- .. . ... : ... .. . ... : --- .. . ... : ... .. . ... : ... .. . ... : ... .. . ... : ... .. . ... : ... .. . ...
ROW 12 : G-1 00 . ... : ... .. . ... : G-2 00 . ... : F-# 02 8 ... : ... .. . ... : D#2 09 . ... : ... .. . ... : D#4 07 . ...
ROW 13 : --- .. . ... : ... .. . ... : --- .. . ... : ... .. . ... : ... .. . ... : ... .. . ... : ... .. . ... : ... .. . ...
ROW 14 : G-1 00 . ... : ... .. . ... : G-2 00 . ... : F-# 02 8 ... : ... .. . ... : D-2 09 . ... : ... .. . ... : ... .. . ...
ROW 15 : --- .. . ... : ... .. . ... : --- .. . ... : ... .. . ... : ... .. . ... : ... .. . ... : ... .. . ... : ... .. . ...
ROW 16 : G-1 00 . ... : ... .. . ... : G-2 00 . ... : 0-# 03 9 ... : ... .. . ... : C-2 09 . ... : ... .. . ... : ... .. . ...
ROW 17 : --- .. . ... : ... .. . ... : --- .. . ... : ... .. . ... : ... .. . ... : ... .. . ... : ... .. . ... : ... .. . ...
ROW 18 : G-2 00 . ... : ... .. . ... : G-3 00 . ... : 5-# 03 C ... : ... .. . ... : G-2 09 . ... : D-4 08 . ... : ... .. . ...
ROW 19 : --- .. . ... : ... .. . ... : --- .. . ... : ... .. . ... : ... .. . ... : ... .. . ... : ... .. . ... : ... .. . ...
ROW 1A : G-1 00 . ... : ... .. . ... : G-2 00 . ... : ... .. . ... : ... .. . ... : D#2 09 . ... : ... .. . ... : D-4 07 . ...
ROW 1B : --- .. . ... : ... .. . ... : --- .. . ... : ... .. . ... : ... .. . ... : ... .. . ... : ... .. . ... : ... .. . ...
ROW 1C : G-1 00 . ... : ... .. . ... : G-2 00 . ... : F-# 02 6 ... : ... .. . ... : D-2 09 . ... : C-4 08 . ... : ... .. . ...
ROW 1D : --- .. . ... : ... .. . ... : --- .. . ... : ... .. . ... : ... .. . ... : ... .. . ... : ... .. . ... : ... .. . ...
ROW 1E : G-1 00 . ... : ... .. . ... : G-2 00 . ... : F-# 02 7 ... : ... .. . ... : C-2 09 . ... : ... .. . ... : C-4 07 . ...
ROW 1F : --- .. . ... : ... .. . ... : --- .. . ... : ... .. . ... : ... .. . ... : ... .. . ... : ... .. . ... : ... .. . ...
ROW 20 : D#1 00 . ... : D#1 0B . ... : D#2 00 . ... : F-# 02 7 ... : ... .. . ... : C-3 09 . ... : C-4 08 . ... : ... .. . ...
ROW 21 : --- .. . ... : ... .. . ... : --- .. . ... : ... .. . ... : ... .. . ... : ... .. . ... : ... .. . ... : ... .. . ...
ROW 22 : D#1 00 . ... : ... .. . ... : D#2 00 . ... : F-# 02 8 ... : ... .. . ... : G-2 09 . ... : ... .. . ... : C-4 07 . ...
ROW 23 : --- .. . ... : ... .. . ... : --- .. . ... : ... .. . ... : ... .. . ... : ... .. . ... : ... .. . ... : ... .. . ...
ROW 24 : D#1 00 . ... : ... .. . ... : D#2 00 . ... : F-# 02 8 ... : ... .. . ... : F-2 09 . ... : G-4 08 . ... : ... .. . ...
ROW 25 : --- .. . ... : ... .. . ... : --- .. . ... : ... .. . ... : ... .. . ... : ... .. . ... : ... .. . ... : ... .. . ...
ROW 26 : D#1 00 . ... : ... .. . ... : D#2 00 . ... : F-# 02 9 ... : ... .. . ... : D#2 09 . ... : ... .. . ... : G-4 07 . ...
ROW 27 : --- .. . ... : ... .. . ... : --- .. . ... : ... .. . ... : ... .. . ... : ... .. . ... : ... .. . ... : ... .. . ...
ROW 28 : D#2 00 . ... : ... .. . ... : D#3 00 . ... : 5-# 03 C ... : ... .. . ... : C-3 09 . ... : C-5 08 . ... : ... .. . ...
ROW 29 : --- .. . ... : ... .. . ... : --- .. . ... : ... .. . ... : ... .. . ... : ... .. . ... : ... .. . ... : ... .. . ...
ROW 2A : D#1 00 . ... : ... .. . ... : D#2 00 . ... : ... .. . ... : ... .. . ... : G-2 09 . ... : ... .. . ... : C-5 07 . ...
ROW 2B : --- .. . ... : ... .. . ... : --- .. . ... : ... .. . ... : ... .. . ... : ... .. . ... : ... .. . ... : ... .. . ...
ROW 2C : D#1 00 . ... : ... .. . ... : D#2 00 . ... : F-# 02 6 ... : ... .. . ... : F-2 09 . ... : C-5 08 . ... : ... .. . ...
ROW 2D : --- .. . ... : ... .. . ... : --- .. . ... : ... .. . ... : ... .. . ... : ... .. . ... : ... .. . ... : ... .. . ...
ROW 2E : D#1 00 . ... : ... .. . ... : D#2 00 . ... : F-# 02 7 ... : ... .. . ... : D#2 09 . ... : D-5 08 . ... : C-5 07 . ...
ROW 2F : --- .. . ... : ... .. . ... : --- .. . ... : ... .. . ... : ... .. . ... : ... .. . ... : ... .. . ... : ... .. . ...
ROW 30 : D#1 00 . ... : ... .. . ... : D#2 00 . ... : F-# 02 7 ... : ... .. . ... : C-3 09 . ... : D#5 08 . ... : D-5 07 . ...
ROW 31 : --- .. . ... : ... .. . ... : --- .. . ... : ... .. . ... : ... .. . ... : ... .. . ... : F-5 08 . ... : ... .. . ...
ROW 32 : D#1 00 . ... : ... .. . ... : D#2 00 . ... : F-# 02 8 ... : ... .. . ... : G-2 09 . ... : D#5 08 . ... : D#5 07 . ...
ROW 33 : --- .. . ... : ... .. . ... : --- .. . ... : ... .. . ... : ... .. . ... : ... .. . ... : F-5 08 . ... : F-5 07 . ...
ROW 34 : D#1 00 . ... : ... .. . ... : D#2 00 . ... : F-# 02 8 ... : ... .. . ... : F-2 09 . ... : D#5 08 . ... : D#5 07 . ...
ROW 35 : --- .. . ... : ... .. . ... : --- .. . ... : ... .. . ... : ... .. . ... : ... .. . ... : F-5 08 . ... : F-5 07 . ...
ROW 36 : D#1 00 . ... : ... .. . ... : D#2 00 . ... : 0-# 03 9 ... : ... .. . ... : D#2 09 . ... : D#5 08 . ... : D#5 07 . ...
ROW 37 : --- .. . ... : ... .. . ... : --- .. . ... : ... .. . ... : ... .. . ... : ... .. . ... : F-5 08 . ... : F-5 07 . ...
ROW 38 : D#2 00 . ... : ... .. . ... : D#3 00 . ... : 5-# 03 C ... : ... .. . ... : C-3 09 . ... : D#5 08 . ... : D#5 07 . ...
ROW 39 : --- .. . ... : ... .. . ... : --- .. . ... : ... .. . ... : ... .. . ... : ... .. . ... : ... .. . ... : F-5 07 . ...
ROW 3A : D#1 00 . ... : ... .. . ... : D#2 00 . ... : ... .. . ... : ... .. . ... : G-2 09 . ... : D-5 08 . ... : D#5 07 . ...
ROW 3B : --- .. . ... : ... .. . ... : --- .. . ... : ... .. . ... : ... .. . ... : ... .. . ... : ... .. . ... : ... .. . ...
ROW 3C : D#1 00 . ... : ... .. . ... : D#2 00 . ... : F-# 02 6 ... : ... .. . ... : F-2 09 . ... : C-5 08 . ... : D-5 07 . ...
ROW 3D : --- .. . ... : ... .. . ... : --- .. . ... : ... .. . ... : ... .. . ... : ... .. . ... : ... .. . ... : ... .. . ...
ROW 3E : D#1 00 . ... : ... .. . ... : D#2 00 . ... : F-# 02 7 ... : ... .. . ... : D#2 09 . ... : A#4 08 . ... : C-5 07 . ...
ROW 3F : --- .. . ... : ... .. . ... : --- .. . ... : ... .. . ... : ... .. . ... : ... .. . ... : ... .. . ... : ... .. . ...
ROW 40 : G#1 00 . ... : G#1 0B . ... : G#1 00 . ... : F-# 02 7 ... : ... .. . ... : G#2 09 . ... : G#4 08 . ... : A#4 07 . ...
ROW 41 : --- .. . ... : ... .. . ... : --- .. . ... : ... .. . ... : ... .. . ... : ... .. . ... : ... .. . ... : ... .. . ...
ROW 42 : G#1 00 . ... : ... .. . ... : G#1 00 . ... : F-# 02 8 ... : ... .. . ... : G-2 09 . ... : ... .. . ... : G#4 07 . ...
ROW 43 : --- .. . ... : ... .. . ... : --- .. . ... : ... .. . ... : ... .. . ... : ... .. . ... : ... .. . ... : ... .. . ...
ROW 44 : G#1 00 . ... : ... .. . ... : G#1 00 . ... : F-# 02 8 ... : ... .. . ... : F-2 09 . ... : ... .. . ... : ... .. . ...
ROW 45 : --- .. . ... : ... .. . ... : --- .. . ... : ... .. . ... : ... .. . ... : ... .. . ... : ... .. . ... : ... .. . ...
ROW 46 : G#1 00 . ... : ... .. . ... : G#1 00 . ... : F-# 02 9 ... : ... .. . ... : C-2 09 . ... : ... .. . ... : ... .. . ...
ROW 47 : --- .. . ... : ... .. . ... : --- .. . ... : ... .. . ... : ... .. . ... : ... .. . ... : ... .. . ... : ... .. . ...
ROW 48 : G#2 00 . ... : ... .. . ... : G#2 00 . ... : 5-# 03 C ... : ... .. . ... : G#2 09 . ... : G#4 08 . ... : ... .. . ...
ROW 49 : --- .. . ... : ... .. . ... : --- .. . ... : ... .. . ... : ... .. . ... : ... .. . ... : ... .. . ... : ... .. . ...
ROW 4A : G#1 00 . ... : ... .. . ... : G#1 00 . ... : ... .. . ... : ... .. . ... : G-2 09 . ... : ... .. . ... : G#4 07 . ...
ROW 4B : --- .. . ... : ... .. . ... : --- .. . ... : ... .. . ... : ... .. . ... : ... .. . ... : ... .. . ... : ... .. . ...
ROW 4C : G-1 00 . ... : G-1 0B . ... : G-1 00 . ... : F-# 02 6 ... : ... .. . ... : F-2 09 . ... : G-4 08 . ... : ... .. . ...
ROW 4D : --- .. . ... : ... .. . ... : --- .. . ... : ... .. . ... : ... .. . ... : ... .. . ... : ... .. . ... : ... .. . ...
ROW 4E : G-1 00 . ... : ... .. . ... : G-1 00 . ... : F-# 02 7 ... : ... .. . ... : C-2 09 . ... : ... .. . ... : G-4 07 . ...
ROW 4F : --- .. . ... : ... .. . ... : --- .. . ... : ... .. . ... : ... .. . ... : ... .. . ... : ... .. . ... : ... .. . ...
ROW 50 : F-1 00 . ... : F-1 0B . ... : F-1 00 . ... : F-# 02 7 ... : ... .. . ... : G#2 09 . ... : F-4 08 . ... : ... .. . ...
ROW 51 : --- .. . ... : ... .. . ... : --- .. . ... : ... .. . ... : ... .. . ... : ... .. . ... : ... .. . ... : ... .. . ...
ROW 52 : F-1 00 . ... : ... .. . ... : F-1 00 . ... : F-# 02 8 ... : ... .. . ... : G-2 09 . ... : ... .. . ... : F-4 07 . ...
ROW 53 : --- .. . ... : ... .. . ... : --- .. . ... : ... .. . ... : ... .. . ... : ... .. . ... : ... .. . ... : ... .. . ...
ROW 54 : F-1 00 . ... : ... .. . ... : F-1 00 . ... : F-# 02 8 ... : ... .. . ... : F-2 09 . ... : ... .. . ... : ... .. . ...
ROW 55 : --- .. . ... : ... .. . ... : --- .. . ... : ... .. . ... : ... .. . ... : ... .. . ... : ... .. . ... : ... .. . ...
ROW 56 : F-1 00 . ... : ... .. . ... : F-1 00 . ... : 0-# 03 9 ... : ... .. . ... : C-2 09 . ... : ... .. . ... : ... .. . ...
ROW 57 : --- .. . ... : ... .. . ... : --- .. . ... : ... .. . ... : ... .. . ... : ... .. . ... : ... .. . ... : ... .. . ...
ROW 58 : G-2 00 . ... : G-1 0B . ... : G-2 00 . ... : 5-# 03 C ... : ... .. . ... : G#2 09 . ... : G-4 08 . ... : ... .. . ...
ROW 59 : --- .. . ... : ... .. . ... : --- .. . ... : ... .. . ... : ... .. . ... : ... .. . ... : ... .. . ... : ... .. . ...
ROW 5A : G-1 00 . ... : ... .. . ... : G-1 00 . ... : ... .. . ... : ... .. . ... : G-2 09 . ... : ... .. . ... : G-4 07 . ...
ROW 5B : --- .. . ... : ... .. . ... : --- .. . ... : ... .. . ... : ... .. . ... : ... .. . ... : ... .. . ... : ... .. . ...
ROW 5C : G#1 00 . ... : G#1 0B . ... : G#1 00 . ... : F-# 02 6 ... : ... .. . ... : F-2 09 . ... : G#4 08 . ... : ... .. . ...
ROW 5D : --- 00 . ... : ... .. . ... : --- 00 . ... : ... .. . ... : ... .. . ... : ... .. . ... : ... .. . ... : ... .. . ...
ROW 5E : G#1 00 . ... : ... .. . ... : G#1 00 . ... : F-# 02 7 ... : ... .. . ... : C-2 09 . ... : ... .. . ... : G#4 07 . ...
ROW 5F : --- .. . ... : ... .. . ... : --- .. . ... : ... .. . ... : ... .. . ... : ... .. . ... : ... .. . ... : ... .. . ...
ROW 60 : B-1 00 . ... : B-1 0B . ... : B-1 00 . ... : 5-# 03 F ... : ... .. . ... : B-2 09 . ... : B-4 08 . ... : ... .. . ...
ROW 61 : --- .. . ... : ... .. . ... : --- .. . ... : ... .. . ... : ... .. . ... : ... .. . ... : ... .. . ... : ... .. . ...
ROW 62 : B-1 00 . ... : ... .. . ... : B-1 00 . ... : 4-# 03 C ... : ... .. . ... : G-2 09 . ... : ... .. . ... : B-4 07 . ...
ROW 63 : --- .. . ... : ... .. . ... : --- .. . ... : ... .. . ... : ... .. . ... : ... .. . ... : ... .. . ... : ... .. . ...
ROW 64 : B-1 00 . ... : B-0 0B . ... : B-1 00 . ... : ... .. . ... : ... .. . ... : D-2 09 . ... : ... .. . ... : ... .. . ...
ROW 65 : --- .. . ... : ... .. . ... : --- .. . ... : ... .. . ... : ... .. . ... : ... .. . ... : ... .. . ... : ... .. . ...
ROW 66 : B-1 00 . ... : ... .. . ... : B-1 00 . ... : 5-# 03 A ... : ... .. . ... : B-1 09 . ... : ... .. . ... : ... .. . ...
ROW 67 : --- .. . ... : ... .. . ... : --- .. . ... : ... .. . ... : ... .. . ... : ... .. . ... : ... .. . ... : ... .. . ...
ROW 68 : B-2 00 . ... : ... .. . ... : B-2 00 . ... : ... .. . ... : ... .. . ... : B-2 09 . ... : B-4 08 . ... : ... .. . ...
ROW 69 : --- .. . ... : ... .. . ... : --- .. . ... : ... .. . ... : ... .. . ... : ... .. . ... : ... .. . ... : ... .. . ...
ROW 6A : B-1 00 . ... : ... .. . ... : B-1 00 . ... : 8-# 03 8 ... : ... .. . ... : G-2 09 . ... : ... .. . ... : B-4 07 . ...
ROW 6B : --- .. . ... : ... .. . ... : --- .. . ... : ... .. . ... : ... .. . ... : ... .. . ... : ... .. . ... : ... .. . ...
ROW 6C : B-1 00 . ... : ... .. . ... : B-1 00 . ... : 9-# 03 7 ... : ... .. . ... : D-2 09 . ... : C-5 08 . ... : ... .. . ...
ROW 6D : --- .. . ... : ... .. . ... : --- .. . ... : ... .. . ... : ... .. . ... : ... .. . ... : ... .. . ... : ... .. . ...
ROW 6E : B-1 00 . ... : ... .. . ... : B-1 00 . ... : 8-# 03 6 ... : ... .. . ... : B-1 09 . ... : ... .. . ... : C-5 07 . ...
ROW 6F : --- .. . ... : ... .. . ... : --- .. . ... : ... .. . ... : ... .. . ... : ... .. . ... : ... .. . ... : ... .. . ...
ROW 70 : B-1 00 . ... : ... .. . ... : B-1 00 . ... : 5-# 03 F ... : ... .. . ... : B-2 09 . ... : D-5 08 . ... : ... .. . ...
ROW 71 : --- .. . ... : ... .. . ... : --- .. . ... : ... .. . ... : ... .. . ... : ... .. . ... : ... .. . ... : ... .. . ...
ROW 72 : B-1 00 . ... : ... .. . ... : B-1 00 . ... : 4-# 03 C ... : ... .. . ... : G-2 09 . ... : ... .. . ... : D-5 07 . ...
ROW 73 : --- .. . ... : ... .. . ... : --- .. . ... : ... .. . ... : ... .. . ... : ... .. . ... : ... .. . ... : ... .. . ...
ROW 74 : B-1 00 . ... : ... .. . ... : B-1 00 . ... : 4-# 03 D ... : ... .. . ... : D-2 09 . ... : ... .. . ... : ... .. . ...
ROW 75 : --- .. . ... : ... .. . ... : --- .. . ... : ... .. . ... : ... .. . ... : ... .. . ... : ... .. . ... : ... .. . ...
ROW 76 : B-1 00 . ... : ... .. . ... : B-1 00 . ... : 3-# 03 E ... : ... .. . ... : B-1 09 . ... : ... .. . ... : ... .. . ...
ROW 77 : --- .. . ... : ... .. . ... : --- .. . ... : ... .. . ... : ... .. . ... : ... .. . ... : ... .. . ... : ... .. . ...
ROW 78 : B-2 00 . ... : ... .. . ... : B-2 00 . ... : 3-# 03 F ... : ... .. . ... : B-2 09 . ... : G-5 08 . ... : ... .. . ...
ROW 79 : --- .. . ... : ... .. . ... : --- .. . ... : ... .. . ... : ... .. . ... : ... .. . ... : ... .. . ... : ... .. . ...
ROW 7A : B-1 00 . ... : ... .. . ... : B-1 00 . ... : 2-# 03 E ... : ... .. . ... : G-2 09 . ... : ... .. . ... : G-5 07 . ...
ROW 7B : --- .. . ... : ... .. . ... : --- .. . ... : ... .. . ... : ... .. . ... : ... .. . ... : ... .. . ... : ... .. . ...
ROW 7C : B-1 00 . ... : ... .. . ... : B-1 00 . ... : 2-# 03 D ... : ... .. . ... : D-2 09 . ... : ... .. . ... : ... .. . ...
ROW 7D : --- .. . ... : ... .. . ... : --- .. . ... : ... .. . ... : ... .. . ... : ... .. . ... : ... .. . ... : ... .. . ...
ROW 7E : B-1 00 . ... : ... .. . ... : B-1 00 . ... : 1-# 03 C ... : ... .. . ... : B-1 09 . ... : ... .. . ... : ... .. . ...
ROW 7F : --- .. . ... : ... .. . ... : --- .. . ... : ... .. . ... : ... .. . ... : ... .. . ... : ... .. . ... : ... .. . ...

PATTERN 09
ROW 00 : C-1 00 8 ... : C-1 0B 1 ... : C-2 00 . ... : 4-# 03 F ... : ... .. . ... : C-3 09 8 ... : D#5 08 F ... : C-5 07 F ...
ROW 01 : --- 00 . ... : ... .. . ... : --- 00 . ... : ... .. . ... : ... .. . ... : ... .. . ... : ... .. . ... : ... .. . ...
ROW 02 : C-1 00 . ... : ... .. 2 ... : C-2 00 . ... : F-# 02 6 ... : ... .. . ... : G-2 09 7 ... : ... .. E ... : ... .. E ...
ROW 03 : --- 00 . ... : ... .. . ... : --- 00 . ... : ... .. . ... : ... .. . ... : ... .. . ... : ... .. . ... : ... .. . ...
ROW 04 : C-1 00 . ... : ... .. 3 ... : C-2 00 . ... : F-# 02 7 ... : ... .. . ... : D#2 09 6 ... : ... .. D ... : ... .. D ...
ROW 05 : --- 00 . ... : ... .. . ... : --- 00 . ... : ... .. . ... : ... .. . ... : ... .. . ... : ... .. . ... : ... .. . ...
ROW 06 : C-1 00 . ... : ... .. 4 ... : C-2 00 . ... : F-# 02 8 ... : ... .. . ... : C-2 09 5 ... : ... .. C ... : ... .. C ...
ROW 07 : --- 00 . ... : ... .. . ... : --- 00 . ... : ... .. . ... : ... .. . ... : ... .. . ... : ... .. . ... : ... .. . ...
ROW 08 : C-1 00 . ... : ... .. 5 ... : C-2 00 . ... : F-# 02 C ... : ... .. . ... : C-3 09 8 ... : ... .. B ... : ... .. B ...
ROW 09 : --- .. . ... : ... .. . ... : --- .. . ... : ... .. . ... : ... .. . ... : ... .. . ... : ... .. . ... : ... .. . ...
ROW 0A : C-1 00 . ... : ... .. . ... : C-2 00 . ... : F-# 02 6 ... : ... .. . ... : G-2 09 7 ... : ... .. A ... : ... .. A ...
ROW 0B : --- .. . ... : ... .. . ... : --- .. . ... : ... .. . ... : ... .. . ... : ... .. . ... : ... .. . ... : ... .. . ...
ROW 0C : C-1 00 . ... : ... .. . ... : C-2 00 . ... : F-# 02 6 ... : ... .. . ... : D#2 09 6 ... : ... .. 9 ... : ... .. 9 ...
ROW 0D : --- .. . ... : ... .. . ... : --- .. . ... : ... .. . ... : ... .. . ... : ... .. . ... : ... .. . ... : ... .. . ...
ROW 0E : C-1 00 . ... : ... .. . ... : C-2 00 . ... : F-# 02 7 ... : ... .. . ... : C-2 09 5 ... : ... .. 8 ... : ... .. 8 ...
ROW 0F : --- .. . ... : ... .. . ... : --- .. . ... : ... .. . ... : ... .. . ... : ... .. . ... : ... .. . ... : ... .. . ...
ROW 10 : C-1 00 . ... : ... .. . ... : C-2 00 . ... : F-# 02 7 ... : ... .. . ... : C-3 09 8 ... : ... .. 7 ... : ... .. 7 ...
ROW 11 : --- .. . ... : ... .. . ... : --- .. . ... : ... .. . ... : ... .. . ... : ... .. . ... : ... .. . ... : ... .. . ...
ROW 12 : C-1 00 . ... : ... .. . ... : C-2 00 . ... : F-# 02 8 ... : ... .. . ... : G-2 09 7 ... : ... .. 6 ... : ... .. 6 ...
ROW 13 : --- .. . ... : ... .. . ... : --- .. . ... : ... .. . ... : ... .. . ... : ... .. . ... : ... .. . ... : ... .. . ...
ROW 14 : C-1 00 . ... : ... .. . ... : C-2 00 . ... : F-# 02 8 ... : ... .. . ... : D#2 09 6 ... : ... .. 5 ... : ... .. 5 ...
ROW 15 : --- .. . ... : ... .. . ... : --- .. . ... : ... .. . ... : ... .. . ... : ... .. . ... : ... .. . ... : ... .. . ...
ROW 16 : C-1 00 . ... : ... .. . ... : C-2 00 . ... : F-# 02 9 ... : ... .. . ... : C-2 09 5 ... : ... .. 4 ... : ... .. 4 ...
ROW 17 : --- .. . ... : ... .. . ... : --- .. . ... : ... .. . ... : ... .. . ... : ... .. . ... : ... .. . ... : ... .. . ...
ROW 18 : C-1 00 . ... : ... .. . ... : C-2 00 . ... : F-# 02 C ... : ... .. . ... : C-3 09 8 ... : ... .. 3 ... : ... .. 3 ...
ROW 19 : --- .. . ... : ... .. . ... : --- .. . ... : ... .. . ... : ... .. . ... : ... .. . ... : ... .. . ... : ... .. . ...
ROW 1A : C-1 00 . ... : ... .. . ... : C-2 00 . ... : F-# 02 6 ... : ... .. . ... : G-2 09 7 ... : ... .. 2 ... : ... .. 2 ...
ROW 1B : --- .. . ... : ... .. . ... : --- .. . ... : ... .. . ... : ... .. . ... : ... .. . ... : ... .. . ... : ... .. . ...
ROW 1C : C-1 00 . ... : ... .. . ... : C-2 00 . ... : F-# 02 6 ... : ... .. . ... : D#2 09 6 ... : ... .. 1 ... : ... .. 1 ...
ROW 1D : --- .. . ... : ... .. . ... : --- .. . ... : ... .. . ... : ... .. . ... : ... .. . ... : ... .. . ... : ... .. . ...
ROW 1E : C-1 00 . ... : ... .. . ... : C-2 00 . ... : F-# 02 7 ... : ... .. . ... : C-2 09 5 ... : ... .. 0 ... : ... .. 0 ...
ROW 1F : --- .. . ... : ... .. . ... : --- .. . ... : ... .. . ... : ... .. . ... : ... .. . ... : ... .. . ... : ... .. . ...
ROW 20 : C-1 00 . ... : ... .. . ... : C-2 00 . ... : F-# 02 7 ... : ... .. . ... : C-3 09 8 ... : ... .. . ... : ... .. . ...
ROW 21 : --- .. . ... : ... .. . ... : --- .. . ... : ... .. . ... : ... .. . ... : ... .. . ... : ... .. . ... : ... .. . ...
ROW 22 : C-1 00 . ... : ... .. . ... : C-2 00 . ... : F-# 02 8 ... : ... .. . ... : G-2 09 7 ... : ... .. . ... : ... .. . ...
ROW 23 : --- .. . ... : ... .. . ... : --- .. . ... : ... .. . ... : ... .. . ... : ... .. . ... : ... .. . ... : ... .. . ...
ROW 24 : C-1 00 . ... : ... .. . ... : C-2 00 . ... : F-# 02 8 ... : ... .. . ... : D#2 09 6 ... : ... .. . ... : ... .. . ...
ROW 25 : --- .. . ... : ... .. . ... : --- .. . ... : ... .. . ... : ... .. . ... : ... .. . ... : ... .. . ... : ... .. . ...
ROW 26 : C-1 00 . ... : ... .. . ... : C-2 00 . ... : F-# 02 9 ... : ... .. . ... : C-2 09 5 ... : ... .. . ... : ... .. . ...
ROW 27 : --- .. . ... : ... .. . ... : --- .. . ... : ... .. . ... : ... .. . ... : ... .. . ... : ... .. . ... : ... .. . ...
ROW 28 : C-1 00 . ... : ... .. . ... : C-2 00 . ... : F-# 02 C ... : ... .. . ... : C-3 09 8 ... : ... .. . ... : ... .. . ...
ROW 29 : --- .. . ... : ... .. . ... : --- .. . ... : ... .. . ... : ... .. . ... : ... .. . ... : ... .. . ... : ... .. . ...
ROW 2A : C-1 00 . ... : ... .. . ... : C-2 00 . ... : F-# 02 6 ... : ... .. . ... : G-2 09 7 ... : ... .. . ... : ... .. . ...
ROW 2B : --- .. . ... : ... .. . ... : --- .. . ... : ... .. . ... : ... .. . ... : ... .. . ... : ... .. . ... : ... .. . ...
ROW 2C : C-1 00 . ... : ... .. . ... : C-2 00 . ... : F-# 02 6 ... : ... .. . ... : D#2 09 6 ... : ... .. . ... : ... .. . ...
ROW 2D : --- .. . ... : ... .. . ... : --- .. . ... : ... .. . ... : ... .. . ... : ... .. . ... : ... .. . ... : ... .. . ...
ROW 2E : C-1 00 . ... : ... .. . ... : C-2 00 . ... : F-# 02 7 ... : ... .. . ... : C-2 09 5 ... : ... .. . ... : ... .. . ...
ROW 2F : --- 00 . ... : ... .. . ... : --- 00 . ... : ... .. . ... : ... .. . ... : ... .. . ... : ... .. . ... : ... .. . ...
ROW 30 : C-1 00 . ... : ... .. . ... : C-2 00 . ... : F-# 02 7 ... : ... .. . ... : C-3 09 8 ... : D#2 07 C ... : C-2 07 C ...
ROW 31 : --- 00 . ... : ... .. . ... : --- 00 . ... : ... .. . ... : ... .. . ... : ... .. . ... : ... .. . ... : ... .. . ...
ROW 32 : C-1 00 . ... : ... .. . ... : C-2 00 . ... : F-# 02 8 ... : ... .. . ... : G-2 09 7 ... : ... .. . ... : ... .. . ...
ROW 33 : --- .. . ... : ... .. . ... : --- .. . ... : ... .. . ... : ... .. . ... : ... .. . ... : ... .. . ... : ... .. . ...
ROW 34 : C-1 00 . ... : ... .. . ... : C-2 00 . ... : F-# 02 8 ... : ... .. . ... : D#2 09 6 ... : ... .. . ... : ... .. . ...
ROW 35 : --- .. . ... : ... .. . ... : --- .. . ... : ... .. . ... : ... .. . ... : ... .. . ... : ... .. . ... : ... .. . ...
ROW 36 : C-1 00 . ... : ... .. . ... : C-2 00 . ... : F-# 02 9 ... : ... .. . ... : C-2 09 5 ... : ... .. . ... : ... .. . ...
ROW 37 : --- .. . ... : ... .. . ... : --- .. . ... : ... .. . ... : ... .. . ... : ... .. . ... : ... .. . ... : ... .. . ...
ROW 38 : C-1 00 . ... : ... .. . ... : D-2 00 . ... : F-# 02 C ... : ... .. . ... : C-3 09 8 ... : F-2 07 . ... : D-2 07 . ...
ROW 39 : --- 00 . ... : ... .. . ... : --- 00 . ... : ... .. . ... : ... .. . ... : ... .. . ... : ... .. . ... : ... .. . ...
ROW 3A : C-1 00 . ... : ... .. . ... : D-2 00 . ... : F-# 02 6 ... : ... .. . ... : G-2 09 7 ... : ... .. . ... : ... .. . ...
ROW 3B : --- .. . ... : ... .. . ... : --- .. . ... : ... .. . ... : ... .. . ... : ... .. . ... : ... .. . ... : ... .. . ...
ROW 3C : C-1 00 . ... : ... .. . ... : D-2 00 . ... : F-# 02 6 ... : ... .. . ... : D#2 09 6 ... : ... .. . ... : ... .. . ...
ROW 3D : --- .. . ... : ... .. . ... : --- .. . ... : ... .. . ... : ... .. . ... : ... .. . ... : ... .. . ... : ... .. . ...
ROW 3E : C-1 00 . ... : ... .. . ... : D-2 00 . ... : F-# 02 7 ... : ... .. . ... : C-2 09 5 ... : ... .. . ... : ... .. . ...
ROW 3F : --- .. . ... : ... .. . ... : --- .. . ... : ... .. . ... : ... .. . ... : ... .. . ... : ... .. . ... : ... .. . ...
ROW 40 : D#1 00 . ... : B-0 0B . ... : D#2 00 . ... : F-# 02 7 ... : ... .. . ... : B-2 09 8 ... : G-2 07 . ... : D#2 07 . ...
ROW 41 : --- .. . ... : ... .. . ... : --- .. . ... : ... .. . ... : ... .. . ... : ... .. . ... : ... .. . ... : ... .. . ...
ROW 42 : D#1 00 . ... : ... .. . ... : D#2 00 . ... : F-# 02 8 ... : ... .. . ... : G-2 09 7 ... : ... .. . ... : ... .. . ...
ROW 43 : --- .. . ... : ... .. . ... : --- .. . ... : ... .. . ... : ... .. . ... : ... .. . ... : ... .. . ... : ... .. . ...
ROW 44 : D#1 00 . ... : ... .. . ... : D#2 00 . ... : F-# 02 8 ... : ... .. . ... : D#2 09 6 ... : ... .. . ... : ... .. . ...
ROW 45 : --- .. . ... : ... .. . ... : --- .. . ... : ... .. . ... : ... .. . ... : ... .. . ... : ... .. . ... : ... .. . ...
ROW 46 : D#1 00 . ... : ... .. . ... : D#2 00 . ... : F-# 02 9 ... : ... .. . ... : B-1 09 5 ... : ... .. . ... : ... .. . ...
ROW 47 : --- 00 . ... : ... .. . ... : --- 00 . ... : ... .. . ... : ... .. . ... : ... .. . ... : ... .. . ... : ... .. . ...
ROW 48 : D#1 00 . ... : ... .. . ... : D#2 00 . ... : F-# 02 C ... : ... .. . ... : B-2 09 8 ... : ... .. . ... : === .. . ...
ROW 49 : --- 00 . ... : ... .. . ... : --- 00 . ... : ... .. . ... : ... .. . ... : ... .. . ... : ... .. . ... : ... .. . ...
ROW 4A : D#1 00 . ... : ... .. . ... : D#2 00 . ... : F-# 02 6 ... : ... .. . ... : G-2 09 7 ... : ... .. . ... : ... .. . ...
ROW 4B : --- .. . ... : ... .. . ... : --- .. . ... : ... .. . ... : ... .. . ... : ... .. . ... : ... .. . ... : ... .. . ...
ROW 4C : D#1 00 . ... : ... .. . ... : D#2 00 . ... : F-# 02 6 ... : ... .. . ... : D#2 09 6 ... : ... .. . ... : ... .. . ...
ROW 4D : --- .. . ... : ... .. . ... : --- .. . ... : ... .. . ... : ... .. . ... : ... .. . ... : ... .. . ... : ... .. . ...
ROW 4E : D#1 00 . ... : ... .. . ... : D#2 00 . ... : F-# 02 7 ... : ... .. . ... : B-1 09 5 ... : ... .. . ... : ... .. . ...
ROW 4F : --- .. . ... : ... .. . ... : --- .. . ... : ... .. . ... : ... .. . ... : ... .. . ... : ... .. . ... : ... .. . ...
ROW 50 : D#1 00 . ... : ... .. . ... : D#2 00 . ... : F-# 02 7 ... : ... .. . ... : B-2 09 8 ... : === .. . ... : ... .. . ...
ROW 51 : --- .. . ... : ... .. . ... : --- .. . ... : ... .. . ... : ... .. . ... : ... .. . ... : ... .. . ... : ... .. . ...
ROW 52 : D#1 00 . ... : ... .. . ... : D#2 00 . ... : F-# 02 8 ... : ... .. . ... : G-2 09 7 ... : ... .. . ... : ... .. . ...
ROW 53 : --- .. . ... : ... .. . ... : --- .. . ... : ... .. . ... : ... .. . ... : ... .. . ... : ... .. . ... : ... .. . ...
ROW 54 : D#1 00 . ... : ... .. . ... : D#2 00 . ... : F-# 02 8 ... : ... .. . ... : D#2 09 6 ... : ... .. . ... : ... .. . ...
ROW 55 : --- .. . ... : ... .. . ... : --- .. . ... : ... .. . ... : ... .. . ... : ... .. . ... : ... .. . ... : ... .. . ...
ROW 56 : D#1 00 . ... : ... .. . ... : D#2 00 . ... : F-# 02 9 ... : ... .. . ... : B-1 09 5 ... : ... .. . ... : ... .. . ...
ROW 57 : --- .. . ... : ... .. . ... : --- .. . ... : ... .. . ... : ... .. . ... : ... .. . ... : ... .. . ... : ... .. . ...
ROW 58 : D#1 00 . ... : ... .. . ... : D#2 00 . ... : F-# 02 C ... : ... .. . ... : B-2 09 8 ... : ... .. . ... : ... .. . ...
ROW 59 : --- .. . ... : ... .. . ... : --- .. . ... : ... .. . ... : ... .. . ... : ... .. . ... : ... .. . ... : ... .. . ...
ROW 5A : D#1 00 . ... : ... .. . ... : D#2 00 . ... : F-# 02 6 ... : ... .. . ... : G-2 09 7 ... : ... .. . ... : ... .. . ...
ROW 5B : --- .. . ... : ... .. . ... : --- .. . ... : ... .. . ... : ... .. . ... : ... .. . ... : ... .. . ... : ... .. . ...
ROW 5C : D#1 00 . ... : ... .. . ... : D#2 00 . ... : F-# 02 6 ... : ... .. . ... : D#2 09 6 ... : ... .. . ... : ... .. . ...
ROW 5D : --- .. . ... : ... .. . ... : --- .. . ... : ... .. . ... : ... .. . ... : ... .. . ... : ... .. . ... : ... .. . ...
ROW 5E : D#1 00 . ... : ... .. . ... : D#2 00 . ... : F-# 02 7 ... : ... .. . ... : B-1 09 5 ... : ... .. . ... : ... .. . ...
ROW 5F : --- .. . ... : ... .. . ... : --- .. . ... : ... .. . ... : ... .. . ... : ... .. . ... : ... .. . ... : ... .. . ...
ROW 60 : D#1 00 . ... : ... .. . ... : D#2 00 . ... : F-# 02 7 ... : ... .. . ... : B-2 09 8 ... : D#2 07 . ... : B-1 07 . ...
ROW 61 : --- .. . ... : ... .. . ... : --- .. . ... : ... .. . ... : ... .. . ... : ... .. . ... : ... .. . ... : ... .. . ...
ROW 62 : D#1 00 . ... : ... .. . ... : D#2 00 . ... : F-# 02 8 ... : ... .. . ... : G-2 09 7 ... : ... .. . ... : ... .. . ...
ROW 63 : --- .. . ... : ... .. . ... : --- .. . ... : ... .. . ... : ... .. . ... : ... .. . ... : ... .. . ... : ... .. . ...
ROW 64 : D#1 00 . ... : ... .. . ... : D#2 00 . ... : F-# 02 8 ... : ... .. . ... : D#2 09 6 ... : ... .. . ... : ... .. . ...
ROW 65 : --- .. . ... : ... .. . ... : --- .. . ... : ... .. . ... : ... .. . ... : ... .. . ... : ... .. . ... : ... .. . ...
ROW 66 : D#1 00 . ... : ... .. . ... : D#2 00 . ... : F-# 02 9 ... : ... .. . ... : B-1 09 5 ... : ... .. . ... : ... .. . ...
ROW 67 : --- .. . ... : ... .. . ... : --- .. . ... : ... .. . ... : ... .. . ... : ... .. . ... : ... .. . ... : ... .. . ...
ROW 68 : D#1 00 . ... : ... .. . ... : D#2 00 . ... : F-# 02 C ... : ... .. . ... : B-2 09 8 ... : D-2 07 . ... : ... .. . ...
ROW 69 : --- .. . ... : ... .. . ... : --- .. . ... : ... .. . ... : ... .. . ... : ... .. . ... : ... .. . ... : ... .. . ...
ROW 6A : D#1 00 . ... : ... .. . ... : D#2 00 . ... : F-# 02 6 ... : ... .. . ... : G-2 09 7 ... : ... .. . ... : ... .. . ...
ROW 6B : --- .. . ... : ... .. . ... : --- .. . ... : ... .. . ... : ... .. . ... : ... .. . ... : ... .. . ... : ... .. . ...
ROW 6C : D#1 00 . ... : ... .. . ... : D#2 00 . ... : F-# 02 6 ... : ... .. . ... : D#2 09 6 ... : D#2 07 . ... : ... .. . ...
ROW 6D : --- .. . ... : ... .. . ... : --- .. . ... : ... .. . ... : ... .. . ... : ... .. . ... : ... .. . ... : ... .. . ...
ROW 6E : D#1 00 . ... : ... .. . ... : D#2 00 . ... : F-# 02 7 ... : ... .. . ... : B-1 09 5 ... : ... .. . ... : ... .. . ...
ROW 6F : --- .. . ... : ... .. . ... : --- .. . ... : ... .. . ... : ... .. . ... : ... .. . ... : ... .. . ... : ... .. . ...
ROW 70 : D#1 00 . ... : ... .. . ... : D#2 00 . ... : F-# 02 7 ... : ... .. . ... : B-2 09 8 ... : F-2 07 . ... : ... .. . ...
ROW 71 : --- .. . ... : ... .. . ... : --- .. . ... : ... .. . ... : ... .. . ... : ... .. . ... : ... .. . ... : ... .. . ...
ROW 72 : D#1 00 . ... : ... .. . ... : D#2 00 . ... : F-# 02 8 ... : ... .. . ... : G-2 09 7 ... : ... .. . ... : ... .. . ...
ROW 73 : --- .. . ... : ... .. . ... : --- .. . ... : ... .. . ... : ... .. . ... : ... .. . ... : ... .. . ... : ... .. . ...
ROW 74 : D#1 00 . ... : ... .. . ... : D#2 00 . ... : F-# 02 8 ... : ... .. . ... : D#2 09 6 ... : D#2 07 . ... : ... .. . ...
ROW 75 : --- .. . ... : ... .. . ... : --- .. . ... : ... .. . ... : ... .. . ... : ... .. . ... : ... .. . ... : ... .. . ...
ROW 76 : D#1 00 . ... : ... .. . ... : D#2 00 . ... : F-# 02 9 ... : ... .. . ... : B-1 09 5 ... : ... .. . ... : ... .. . ...
ROW 77 : --- .. . ... : ... .. . ... : --- .. . ... : ... .. . ... : ... .. . ... : ... .. . ... : ... .. . ... : ... .. . ...
ROW 78 : B-0 00 . ... : ... .. . ... : B-1 00 . ... : F-# 02 C ... : ... .. . ... : B-2 09 8 ... : D-2 07 . ... : ... .. . ...
ROW 79 : --- .. . ... : ... .. . ... : --- .. . ... : ... .. . ... : ... .. . ... : ... .. . ... : ... .. . ... : ... .. . ...
ROW 7A : B-0 00 . ... : ... .. . ... : B-1 00 . ... : F-# 02 6 ... : ... .. . ... : G-2 09 7 ... : ... .. . ... : ... .. . ...
ROW 7B : --- .. . ... : ... .. . ... : --- .. . ... : ... .. . ... : ... .. . ... : ... .. . ... : ... .. . ... : ... .. . ...
ROW 7C : B-0 00 . ... : ... .. . ... : B-1 00 . ... : F-# 02 6 ... : ... .. . ... : D#2 09 6 ... : D#2 07 . ... : ... .. . ...
ROW 7D : --- .. . ... : ... .. . ... : --- .. . ... : ... .. . ... : ... .. . ... : ... .. . ... : ... .. . ... : ... .. . ...
ROW 7E : B-0 00 . ... : ... .. . ... : B-1 00 . ... : F-# 02 7 ... : ... .. . ... : B-1 09 5 ... : ... .. . ... : ... .. . ...
ROW 7F : --- .. . ... : ... .. . ... : --- .. . ... : ... .. . ... : ... .. . ... : ... .. . ... : ... .. . ... : ... .. . ...

PATTERN 0A
ROW 00 : A#0 00 8 ... : A#0 0B 4 ... : A#1 00 . ... : F-# 02 7 ... : ... .. . ... : A#2 09 8 ... : D#2 07 C ... : A#1 07 C ...
ROW 01 : --- .. . ... : ... .. . ... : --- .. . ... : ... .. . ... : ... .. . ... : ... .. . ... : ... .. . ... : ... .. . ...
ROW 02 : A#0 00 . ... : ... .. . ... : A#1 00 . ... : F-# 02 6 ... : ... .. . ... : G-2 09 7 ... : ... .. . ... : ... .. . ...
ROW 03 : --- .. . ... : ... .. . ... : --- .. . ... : ... .. . ... : ... .. . ... : ... .. . ... : ... .. . ... : ... .. . ...
ROW 04 : A#0 00 . ... : ... .. . ... : A#1 00 . ... : F-# 02 7 ... : ... .. . ... : D#2 09 6 ... : ... .. . ... : ... .. . ...
ROW 05 : --- .. . ... : ... .. . ... : --- .. . ... : ... .. . ... : ... .. . ... : ... .. . ... : ... .. . ... : ... .. . ...
ROW 06 : A#0 00 . ... : ... .. . ... : A#1 00 . ... : F-# 02 8 ... : ... .. . ... : A#1 09 5 ... : ... .. . ... : ... .. . ...
ROW 07 : --- .. . ... : ... .. . ... : --- .. . ... : ... .. . ... : ... .. . ... : ... .. . ... : ... .. . ... : ... .. . ...
ROW 08 : A#0 00 . ... : ... .. . ... : A#1 00 . ... : F-# 02 C ... : ... .. . ... : A#2 09 8 ... : ... .. . ... : ... .. . ...
ROW 09 : --- .. . ... : ... .. . ... : --- .. . ... : ... .. . ... : ... .. . ... : ... .. . ... : ... .. . ... : ... .. . ...
ROW 0A : A#0 00 . ... : ... .. . ... : A#1 00 . ... : F-# 02 6 ... : ... .. . ... : G-2 09 7 ... : ... .. . ... : ... .. . ...
ROW 0B : --- .. . ... : ... .. . ... : --- .. . ... : ... .. . ... : ... .. . ... : ... .. . ... : ... .. . ... : ... .. . ...
ROW 0C : A#0 00 . ... : ... .. . ... : A#1 00 . ... : F-# 02 6 ... : ... .. . ... : D#2 09 6 ... : ... .. . ... : ... .. . ...
ROW 0D : --- .. . ... : ... .. . ... : --- .. . ... : ... .. . ... : ... .. . ... : ... .. . ... : ... .. . ... : ... .. . ...
ROW 0E : A#0 00 . ... : ... .. . ... : A#1 00 . ... : F-# 02 7 ... : ... .. . ... : A#1 09 5 ... : ... .. . ... : ... .. . ...
ROW 0F : --- .. . ... : ... .. . ... : --- .. . ... : ... .. . ... : ... .. . ... : ... .. . ... : ... .. . ... : ... .. . ...
ROW 10 : A#0 00 . ... : ... .. . ... : A#1 00 . ... : F-# 02 7 ... : ... .. . ... : A#2 09 8 ... : ... .. . ... : A#1 07 . ...
ROW 11 : --- .. . ... : ... .. . ... : --- .. . ... : ... .. . ... : ... .. . ... : ... .. . ... : ... .. . ... : ... .. . ...
ROW 12 : A#0 00 . ... : ... .. . ... : A#1 00 . ... : F-# 02 8 ... : ... .. . ... : G-2 09 7 ... : ... .. . ... : ... .. . ...
ROW 13 : --- .. . ... : ... .. . ... : --- .. . ... : ... .. . ... : ... .. . ... : ... .. . ... : ... .. . ... : ... .. . ...
ROW 14 : A#0 00 . ... : ... .. . ... : A#1 00 . ... : F-# 02 8 ... : ... .. . ... : D#2 09 6 ... : ... .. . ... : ... .. . ...
ROW 15 : --- .. . ... : ... .. . ... : --- .. . ... : ... .. . ... : ... .. . ... : ... .. . ... : ... .. . ... : ... .. . ...
ROW 16 : A#0 00 . ... : ... .. . ... : A#1 00 . ... : F-# 02 9 ... : ... .. . ... : A#1 09 5 ... : ... .. . ... : ... .. . ...
ROW 17 : --- 00 . ... : ... .. . ... : --- 00 . ... : ... .. . ... : ... .. . ... : ... .. . ... : ... .. . ... : ... .. . ...
ROW 18 : A#0 00 . ... : ... .. . ... : A#1 00 . ... : F-# 02 C ... : ... .. . ... : A#2 09 8 ... : ... .. . ... : ... .. . ...
ROW 19 : --- 00 . ... : ... .. . ... : --- 00 . ... : ... .. . ... : ... .. . ... : ... .. . ... : ... .. . ... : ... .. . ...
ROW 1A : A#0 00 . ... : ... .. . ... : A#1 00 . ... : F-# 02 6 ... : ... .. . ... : G-2 09 7 ... : ... .. . ... : ... .. . ...
ROW 1B : --- .. . ... : ... .. . ... : --- .. . ... : ... .. . ... : ... .. . ... : ... .. . ... : ... .. . ... : ... .. . ...
ROW 1C : A#0 00 . ... : ... .. . ... : A#1 00 . ... : F-# 02 6 ... : ... .. . ... : D#2 09 6 ... : ... .. . ... : ... .. . ...
ROW 1D : --- .. . ... : ... .. . ... : --- .. . ... : ... .. . ... : ... .. . ... : ... .. . ... : ... .. . ... : ... .. . ...
ROW 1E : A#0 00 . ... : ... .. . ... : A#1 00 . ... : F-# 02 7 ... : ... .. . ... : A#1 09 5 ... : ... .. . ... : ... .. . ...
ROW 1F : --- .. . ... : ... .. . ... : --- .. . ... : ... .. . ... : ... .. . ... : ... .. . ... : ... .. . ... : ... .. . ...
ROW 20 : D-1 00 . ... : D-1 0B . ... : D-2 00 . ... : F-# 02 7 ... : ... .. . ... : A#2 09 8 ... : D-2 07 . ... : A#1 07 . ...
ROW 21 : --- .. . ... : ... .. . ... : --- .. . ... : ... .. . ... : ... .. . ... : ... .. . ... : ... .. . ... : ... .. . ...
ROW 22 : D-1 00 . ... : ... .. . ... : D-2 00 . ... : F-# 02 8 ... : ... .. . ... : G-2 09 7 ... : ... .. . ... : ... .. . ...
ROW 23 : --- .. . ... : ... .. . ... : --- .. . ... : ... .. . ... : ... .. . ... : ... .. . ... : ... .. . ... : ... .. . ...
ROW 24 : D-1 00 . ... : ... .. . ... : D-2 00 . ... : F-# 02 8 ... : ... .. . ... : D-2 09 6 ... : ... .. . ... : ... .. . ...
ROW 25 : --- .. . ... : ... .. . ... : --- .. . ... : ... .. . ... : ... .. . ... : ... .. . ... : ... .. . ... : ... .. . ...
ROW 26 : D-1 00 . ... : ... .. . ... : D-2 00 . ... : F-# 02 9 ... : ... .. . ... : A#1 09 5 ... : ... .. . ... : ... .. . ...
ROW 27 : --- .. . ... : ... .. . ... : --- .. . ... : ... .. . ... : ... .. . ... : ... .. . ... : ... .. . ... : ... .. . ...
ROW 28 : D-1 00 . ... : ... .. . ... : D-2 00 . ... : F-# 02 C ... : ... .. . ... : A#2 09 8 ... : ... .. . ... : ... .. . ...
ROW 29 : --- .. . ... : ... .. . ... : --- .. . ... : ... .. . ... : ... .. . ... : ... .. . ... : ... .. . ... : ... .. . ...
ROW 2A : D-1 00 . ... : ... .. . ... : D-2 00 . ... : F-# 02 6 ... : ... .. . ... : G-2 09 7 ... : ... .. . ... : ... .. . ...
ROW 2B : --- .. . ... : ... .. . ... : --- .. . ... : ... .. . ... : ... .. . ... : ... .. . ... : ... .. . ... : ... .. . ...
ROW 2C : D-1 00 . ... : ... .. . ... : D-2 00 . ... : F-# 02 6 ... : ... .. . ... : D-2 09 6 ... : ... .. . ... : ... .. . ...
ROW 2D : --- .. . ... : ... .. . ... : --- .. . ... : ... .. . ... : ... .. . ... : ... .. . ... : ... .. . ... : ... .. . ...
ROW 2E : D-1 00 . ... : ... .. . ... : D-2 00 . ... : F-# 02 7 ... : ... .. . ... : A#1 09 5 ... : ... .. . ... : ... .. . ...
ROW 2F : --- .. . ... : ... .. . ... : --- .. . ... : ... .. . ... : ... .. . ... : ... .. . ... : ... .. . ... : ... .. . ...
ROW 30 : D-1 00 . ... : ... .. . ... : D-2 00 . ... : F-# 02 7 ... : ... .. . ... : A-2 09 8 ... : D-2 07 . ... : A-1 07 . ...
ROW 31 : --- .. . ... : ... .. . ... : --- .. . ... : ... .. . ... : ... .. . ... : ... .. . ... : ... .. . ... : ... .. . ...
ROW 32 : D-1 00 . ... : ... .. . ... : D-2 00 . ... : F-# 02 8 ... : ... .. . ... : G-2 09 7 ... : ... .. . ... : ... .. . ...
ROW 33 : --- .. . ... : ... .. . ... : --- .. . ... : ... .. . ... : ... .. . ... : ... .. . ... : ... .. . ... : ... .. . ...
ROW 34 : D-1 00 . ... : ... .. . ... : D-2 00 . ... : F-# 02 8 ... : ... .. . ... : D-2 09 6 ... : ... .. . ... : ... .. . ...
ROW 35 : --- .. . ... : ... .. . ... : --- .. . ... : ... .. . ... : ... .. . ... : ... .. . ... : ... .. . ... : ... .. . ...
ROW 36 : D-1 00 . ... : ... .. . ... : D-2 00 . ... : F-# 02 9 ... : ... .. . ... : A-1 09 5 ... : ... .. . ... : ... .. . ...
ROW 37 : --- .. . ... : ... .. . ... : --- .. . ... : ... .. . ... : ... .. . ... : ... .. . ... : ... .. . ... : ... .. . ...
ROW 38 : D-1 00 . ... : ... .. . ... : D-2 00 . ... : F-# 02 C ... : ... .. . ... : A-2 09 8 ... : ... .. . ... : ... .. . ...
ROW 39 : --- .. . ... : ... .. . ... : --- .. . ... : ... .. . ... : ... .. . ... : ... .. . ... : ... .. . ... : ... .. . ...
ROW 3A : D-1 00 . ... : ... .. . ... : D-2 00 . ... : F-# 02 6 ... : ... .. . ... : G-2 09 7 ... : ... .. . ... : ... .. . ...
ROW 3B : --- .. . ... : ... .. . ... : --- .. . ... : ... .. . ... : ... .. . ... : ... .. . ... : ... .. . ... : ... .. . ...
ROW 3C : D-1 00 . ... : ... .. . ... : D-2 00 . ... : F-# 02 6 ... : ... .. . ... : D-2 09 6 ... : ... .. . ... : ... .. . ...
ROW 3D : --- .. . ... : ... .. . ... : --- .. . ... : ... .. . ... : ... .. . ... : ... .. . ... : ... .. . ... : ... .. . ...
ROW 3E : D-1 00 . ... : ... .. . ... : D-2 00 . ... : F-# 02 7 ... : ... .. . ... : A-1 09 5 ... : ... .. . ... : ... .. . ...
ROW 3F : --- .. . ... : ... .. . ... : --- .. . ... : ... .. . ... : ... .. . ... : ... .. . ... : ... .. . ... : ... .. . ...
ROW 40 : C#1 00 . ... : C#1 0B . ... : C#2 00 . ... : F-# 02 7 ... : ... .. . ... : A-2 09 8 ... : C#2 07 . ... : A-1 07 . ...
ROW 41 : --- .. . ... : ... .. . ... : --- .. . ... : ... .. . ... : ... .. . ... : ... .. . ... : ... .. . ... : ... .. . ...
ROW 42 : C#1 00 . ... : ... .. . ... : C#2 00 . ... : F-# 02 8 ... : ... .. . ... : G-2 09 7 ... : ... .. . ... : ... .. . ...
ROW 43 : --- .. . ... : ... .. . ... : --- .. . ... : ... .. . ... : ... .. . ... : ... .. . ... : ... .. . ... : ... .. . ...
ROW 44 : C#1 00 . ... : ... .. . ... : C#2 00 . ... : F-# 02 8 ... : ... .. . ... : C#2 09 6 ... : ... .. . ... : ... .. . ...
ROW 45 : --- .. . ... : ... .. . ... : --- .. . ... : ... .. . ... : ... .. . ... : ... .. . ... : ... .. . ... : ... .. . ...
ROW 46 : C#1 00 . ... : ... .. . ... : C#2 00 . ... : F-# 02 9 ... : ... .. . ... : A-1 09 5 ... : ... .. . ... : ... .. . ...
ROW 47 : --- .. . ... : ... .. . ... : --- .. . ... : ... .. . ... : ... .. . ... : ... .. . ... : ... .. . ... : ... .. . ...
ROW 48 : C#1 00 . ... : ... .. . ... : C#2 00 . ... : F-# 02 C ... : ... .. . ... : A-2 09 8 ... : ... .. . ... : ... .. . ...
ROW 49 : --- .. . ... : ... .. . ... : --- .. . ... : ... .. . ... : ... .. . ... : ... .. . ... : ... .. . ... : ... .. . ...
ROW 4A : C#1 00 . ... : ... .. . ... : C#2 00 . ... : F-# 02 6 ... : ... .. . ... : G-2 09 7 ... : ... .. . ... : ... .. . ...
ROW 4B : --- .. . ... : ... .. . ... : --- .. . ... : ... .. . ... : ... .. . ... : ... .. . ... : ... .. . ... : ... .. . ...
ROW 4C : C#1 00 . ... : ... .. . ... : C#2 00 . ... : F-# 02 6 ... : ... .. . ... : C#2 09 6 ... : ... .. . ... : ... .. . ...
ROW 4D : --- .. . ... : ... .. . ... : --- .. . ... : ... .. . ... : ... .. . ... : ... .. . ... : ... .. . ... : ... .. . ...
ROW 4E : C#1 00 . ... : ... .. . ... : C#2 00 . ... : F-# 02 7 ... : ... .. . ... : A-1 09 5 ... : ... .. . ... : ... .. . ...
ROW 4F : --- .. . ... : ... .. . ... : --- .. . ... : ... .. . ... : ... .. . ... : ... .. . ... : ... .. . ... : ... .. . ...
ROW 50 : C#1 00 . ... : ... .. . ... : C#2 00 . ... : F-# 02 7 ... : ... .. . ... : A-2 09 8 ... : ... .. . ... : ... .. . ...
ROW 51 : --- .. . ... : ... .. . ... : --- .. . ... : ... .. . ... : ... .. . ... : ... .. . ... : ... .. . ... : ... .. . ...
ROW 52 : C#1 00 . ... : ... .. . ... : C#2 00 . ... : F-# 02 8 ... : ... .. . ... : G-2 09 7 ... : ... .. . ... : ... .. . ...
ROW 53 : --- .. . ... : ... .. . ... : --- .. . ... : ... .. . ... : ... .. . ... : ... .. . ... : ... .. . ... : ... .. . ...
ROW 54 : C#1 00 . ... : ... .. . ... : C#2 00 . ... : F-# 02 8 ... : ... .. . ... : C#2 09 6 ... : ... .. . ... : ... .. . ...
ROW 55 : --- .. . ... : ... .. . ... : --- .. . ... : ... .. . ... : ... .. . ... : ... .. . ... : ... .. . ... : ... .. . ...
ROW 56 : C#1 00 . ... : ... .. . ... : C#2 00 . ... : F-# 02 9 ... : ... .. . ... : A-1 09 5 ... : ... .. . ... : ... .. . ...
ROW 57 : --- .. . ... : ... .. . ... : --- .. . ... : ... .. . ... : ... .. . ... : ... .. . ... : ... .. . ... : ... .. . ...
ROW 58 : C#1 00 . ... : ... .. . ... : C#2 00 . ... : F-# 02 C ... : ... .. . ... : A-2 09 8 ... : ... .. . ... : ... .. . ...
ROW 59 : --- .. . ... : ... .. . ... : --- .. . ... : ... .. . ... : ... .. . ... : ... .. . ... : ... .. . ... : ... .. . ...
ROW 5A : C#1 00 . ... : ... .. . ... : C#2 00 . ... : F-# 02 6 ... : ... .. . ... : G-2 09 7 ... : ... .. . ... : ... .. . ...
ROW 5B : --- .. . ... : ... .. . ... : --- .. . ... : ... .. . ... : ... .. . ... : ... .. . ... : ... .. . ... : ... .. . ...
ROW 5C : C#1 00 . ... : ... .. . ... : C#2 00 . ... : F-# 02 6 ... : ... .. . ... : C#2 09 6 ... : ... .. . ... : ... .. . ...
ROW 5D : --- .. . ... : ... .. . ... : --- .. . ... : ... .. . ... : ... .. . ... : ... .. . ... : ... .. . ... : ... .. . ...
ROW 5E : C#1 00 . ... : ... .. . ... : C#2 00 . ... : F-# 02 7 ... : ... .. . ... : A-1 09 5 ... : ... .. . ... : ... .. . ...
ROW 5F : --- .. . ... : ... .. . ... : --- .. . ... : ... .. . ... : ... .. . ... : ... .. . ... : ... .. . ... : ... .. . ...
ROW 60 : D-1 00 . ... : D-1 0B . ... : D-2 00 . ... : F-# 02 7 ... : ... .. . ... : B-2 09 8 ... : G-2 07 . ... : B-1 07 . ...
ROW 61 : --- .. . ... : ... .. . ... : --- .. . ... : ... .. . ... : ... .. . ... : ... .. . ... : ... .. . ... : ... .. . ...
ROW 62 : D-1 00 . ... : ... .. . ... : D-2 00 . ... : F-# 02 8 ... : ... .. . ... : G-2 09 7 ... : ... .. . ... : ... .. . ...
ROW 63 : --- 00 . ... : ... .. . ... : --- 00 . ... : ... .. . ... : ... .. . ... : ... .. . ... : ... .. . ... : ... .. . ...
ROW 64 : D-1 00 . ... : ... .. . ... : D-2 00 . ... : F-# 02 8 ... : ... .. . ... : D-2 09 6 ... : ... .. . ... : ... .. . ...
ROW 65 : --- 00 . ... : ... .. . ... : --- 00 . ... : ... .. . ... : ... .. . ... : ... .. . ... : ... .. . ... : ... .. . ...
ROW 66 : D-1 00 . ... : ... .. . ... : D-2 00 . ... : F-# 02 9 ... : ... .. . ... : B-1 09 5 ... : ... .. . ... : ... .. . ...
ROW 67 : --- .. . ... : ... .. . ... : --- .. . ... : ... .. . ... : ... .. . ... : ... .. . ... : ... .. . ... : ... .. . ...
ROW 68 : D-1 00 . ... : ... .. . ... : D-2 00 . ... : F-# 02 C ... : ... .. . ... : B-2 09 8 ... : ... .. . ... : ... .. . ...
ROW 69 : --- .. . ... : ... .. . ... : --- .. . ... : ... .. . ... : ... .. . ... : ... .. . ... : ... .. . ... : ... .. . ...
ROW 6A : D-1 00 . ... : ... .. . ... : D-2 00 . ... : F-# 02 6 ... : ... .. . ... : G-2 09 7 ... : ... .. . ... : ... .. . ...
ROW 6B : --- .. . ... : ... .. . ... : --- .. . ... : ... .. . ... : ... .. . ... : ... .. . ... : ... .. . ... : ... .. . ...
ROW 6C : D-1 00 . ... : ... .. . ... : D-2 00 . ... : F-# 02 6 ... : ... .. . ... : D-2 09 6 ... : ... .. . ... : ... .. . ...
ROW 6D : --- .. . ... : ... .. . ... : --- .. . ... : ... .. . ... : ... .. . ... : ... .. . ... : ... .. . ... : ... .. . ...
ROW 6E : D-1 00 . ... : ... .. . ... : D-2 00 . ... : F-# 02 7 ... : ... .. . ... : B-1 09 5 ... : ... .. . ... : ... .. . ...
ROW 6F : --- .. . ... : ... .. . ... : --- .. . ... : ... .. . ... : ... .. . ... : ... .. . ... : ... .. . ... : ... .. . ...
ROW 70 : D-1 00 . ... : --- .. . ... : D-2 00 . ... : 5-# 03 7 ... : ... .. . ... : B-2 09 8 ... : B-2 07 . ... : === .. . ...
ROW 71 : --- .. . ... : ... .. . ... : --- .. . ... : ... .. . ... : ... .. . ... : ... .. . ... : ... .. . ... : ... .. . ...
ROW 72 : D-1 00 . ... : ... .. . ... : D-2 00 . ... : 4-# 03 8 ... : ... .. . ... : G-2 09 7 ... : ... .. . ... : ... .. . ...
ROW 73 : --- .. . ... : ... .. . ... : --- .. . ... : ... .. . ... : ... .. . ... : ... .. . ... : ... .. . ... : ... .. . ...
ROW 74 : D-1 00 . ... : ... .. . ... : D-2 00 . ... : 4-# 03 9 ... : ... .. . ... : D-2 09 6 ... : ... .. . ... : ... .. . ...
ROW 75 : --- .. . ... : ... .. . ... : --- .. . ... : ... .. . ... : ... .. . ... : ... .. . ... : ... .. . ... : ... .. . ...
ROW 76 : D-1 00 . ... : ... .. . ... : D-2 00 . ... : 3-# 03 A ... : ... .. . ... : B-1 09 5 ... : ... .. . ... : ... .. . ...
ROW 77 : --- .. . ... : ... .. . ... : --- .. . ... : ... .. . ... : ... .. . ... : ... .. . ... : ... .. . ... : ... .. . ...
ROW 78 : A#0 00 . ... : ... .. . ... : A#1 00 . ... : 3-# 03 B ... : ... .. . ... : A#2 09 8 ... : A#3 08 F ... : ... .. . ...
ROW 79 : --- .. . ... : ... .. . ... : --- .. . ... : ... .. . ... : ... .. . ... : ... .. . ... : ... .. . ... : ... .. . ...
ROW 7A : C-1 00 . ... : ... .. . ... : C-2 00 . ... : 2-# 03 C ... : ... .. . ... : C-3 09 7 ... : C-4 08 . ... : ... .. . ...
ROW 7B : --- .. . ... : ... .. . ... : --- .. . ... : ... .. . ... : ... .. . ... : ... .. . ... : ... .. . ... : ... .. . ...
ROW 7C : D-1 00 . ... : ... .. . ... : D-2 00 . ... : 2-# 03 D ... : ... .. . ... : D-3 09 6 ... : D-4 08 . ... : ... .. . ...
ROW 7D : --- .. . ... : ... .. . ... : --- .. . ... : ... .. . ... : ... .. . ... : ... .. . ... : ... .. . ... : ... .. . ...
ROW 7E : F-1 00 . ... : ... .. . ... : F-2 00 . ... : 1-# 03 E ... : ... .. . ... : F-3 09 5 ... : F-4 08 . ... : ... .. . ...
ROW 7F : --- .. . ... : ... .. . ... : --- .. . ... : ... .. . ... : ... .. . ... : ... .. . ... : ... .. . ... : ... .. . ...

PATTERN 0B
ROW 00 : C-1 00 . ... : C-1 0B 8 ... : C-2 00 . ... : F-# 02 7 ... : ... .. . ... : C-3 09 F ... : D#4 08 F ... : D#3 07 F ...
ROW 01 : --- .. . ... : ... .. . ... : --- .. . ... : ... .. . ... : ... .. . ... : ... .. . ... : ... .. . ... : ... .. . ...
ROW 02 : C-1 00 . ... : ... .. . ... : C-2 00 . ... : F-# 02 6 ... : ... .. . ... : G-2 09 . ... : D-4 08 . ... : D-3 07 . ...
ROW 03 : --- .. . ... : ... .. . ... : --- .. . ... : ... .. . ... : ... .. . ... : ... .. . ... : ... .. . ... : ... .. . ...
ROW 04 : C-1 00 . ... : ... .. . ... : C-2 00 . ... : F-# 02 7 ... : ... .. . ... : D#2 09 . ... : C-4 08 . ... : C-3 07 . ...
ROW 05 : --- .. . ... : ... .. . ... : --- .. . ... : ... .. . ... : ... .. . ... : ... .. . ... : ... .. . ... : ... .. . ...
ROW 06 : C-1 00 . ... : ... .. . ... : C-2 00 . ... : F-# 02 8 ... : ... .. . ... : C-2 09 . ... : G-3 08 . ... : G-2 07 . ...
ROW 07 : --- .. . ... : ... .. . ... : --- .. . ... : ... .. . ... : ... .. . ... : ... .. . ... : ... .. . ... : ... .. . ...
ROW 08 : C-2 00 . ... : ... .. . ... : C-3 00 . ... : 5-# 03 C ... : ... .. . ... : C-3 09 . ... : C-3 08 . ... : C-2 07 . ...
ROW 09 : --- .. . ... : ... .. . ... : --- .. . ... : ... .. . ... : ... .. . ... : ... .. . ... : ... .. . ... : ... .. . ...
ROW 0A : C-1 00 . ... : ... .. . ... : C-2 00 . ... : ... .. . ... : ... .. . ... : G-2 09 . ... : ... .. . ... : ... .. . ...
ROW 0B : --- .. . ... : ... .. . ... : --- .. . ... : ... .. . ... : ... .. . ... : ... .. . ... : ... .. . ... : ... .. . ...
ROW 0C : C-1 00 . ... : ... .. . ... : C-2 00 . ... : F-# 02 6 ... : ... .. . ... : D#2 09 . ... : C-3 08 . ... : C-2 07 . ...
ROW 0D : --- .. . ... : ... .. . ... : --- .. . ... : ... .. . ... : ... .. . ... : ... .. . ... : ... .. . ... : ... .. . ...
ROW 0E : C-1 00 . ... : ... .. . ... : C-2 00 . ... : F-# 02 7 ... : ... .. . ... : C-2 09 . ... : G-3 08 . ... : G-2 07 . ...
ROW 0F : --- .. . ... : ... .. . ... : --- .. . ... : ... .. . ... : ... .. . ... : ... .. . ... : ... .. . ... : ... .. . ...
ROW 10 : C-1 00 . ... : ... .. . ... : C-2 00 . ... : F-# 02 7 ... : ... .. . ... : C-3 09 . ... : C-4 08 . ... : C-3 07 . ...
ROW 11 : --- .. . ... : ... .. . ... : --- .. . ... : ... .. . ... : ... .. . ... : ... .. . ... : ... .. . ... : ... .. . ...
ROW 12 : C-1 00 . ... : ... .. . ... : C-2 00 . ... : F-# 02 8 ... : ... .. . ... : G-2 09 . ... : ... .. . ... : ... .. . ...
ROW 13 : --- .. . ... : ... .. . ... : --- .. . ... : ... .. . ... : ... .. . ... : ... .. . ... : ... .. . ... : ... .. . ...
ROW 14 : C-1 00 . ... : ... .. . ... : C-2 00 . ... : F-# 02 8 ... : ... .. . ... : D#2 09 . ... : ... .. . ... : ... .. . ...
ROW 15 : --- .. . ... : ... .. . ... : --- .. . ... : ... .. . ... : ... .. . ... : ... .. . ... : ... .. . ... : ... .. . ...
ROW 16 : C-1 00 . ... : D-4 0C C ... : C-2 00 . ... : 0-# 03 9 ... : ... .. . ... : C-2 09 . ... : A#3 08 . ... : A#2 07 . ...
ROW 17 : --- .. . ... : ... .. . ... : --- .. . ... : ... .. . ... : ... .. . ... : ... .. . ... : ... .. . ... : ... .. . ...
ROW 18 : C-2 00 . ... : ... .. . ... : C-3 00 . ... : 5-# 03 C ... : ... .. . ... : C-3 09 . ... : ... .. . ... : ... .. . ...
ROW 19 : --- .. . ... : ... .. . ... : --- .. . ... : ... .. . ... : ... .. . ... : ... .. . ... : ... .. . ... : ... .. . ...
ROW 1A : C-1 00 . ... : ... .. . ... : C-2 00 . ... : ... .. . ... : ... .. . ... : G-2 09 . ... : ... .. . ... : ... .. . ...
ROW 1B : --- .. . ... : ... .. . ... : --- .. . ... : ... .. . ... : ... .. . ... : ... .. . ... : ... .. . ... : ... .. . ...
ROW 1C : C-1 00 . ... : D#4 0C . ... : C-2 00 . ... : F-# 02 6 ... : ... .. . ... : D#2 09 . ... : G#3 08 . ... : G#2 07 . ...
ROW 1D : --- .. . ... : ... .. . ... : --- .. . ... : ... .. . ... : ... .. . ... : ... .. . ... : ... .. . ... : ... .. . ...
ROW 1E : C-1 00 . ... : ... .. . ... : C-2 00 . ... : F-# 02 7 ... : ... .. . ... : C-2 09 . ... : ... .. . ... : ... .. . ...
ROW 1F : --- .. . ... : ... .. . ... : --- .. . ... : ... .. . ... : ... .. . ... : ... .. . ... : ... .. . ... : ... .. . ...
ROW 20 : D#1 00 . ... : F-4 0C . ... : D#2 00 . ... : F-# 02 7 ... : ... .. . ... : G#2 09 . ... : G#3 08 . ... : G#2 07 . ...
ROW 21 : --- .. . ... : ... .. . ... : --- .. . ... : ... .. . ... : ... .. . ... : ... .. . ... : ... .. . ... : ... .. . ...
ROW 22 : D#1 00 . ... : ... .. . ... : D#2 00 . ... : F-# 02 8 ... : ... .. . ... : F-2 09 . ... : ... .. . ... : ... .. . ...
ROW 23 : --- .. . ... : ... .. . ... : --- .. . ... : ... .. . ... : ... .. . ... : ... .. . ... : ... .. . ... : ... .. . ...
ROW 24 : D#1 00 . ... : ... .. . ... : D#2 00 . ... : F-# 02 8 ... : ... .. . ... : D#2 09 . ... : ... .. . ... : ... .. . ...
ROW 25 : --- .. . ... : ... .. . ... : --- .. . ... : ... .. . ... : ... .. . ... : ... .. . ... : ... .. . ... : ... .. . ...
ROW 26 : D#1 00 . ... : ... .. . ... : D#2 00 . ... : F-# 02 9 ... : ... .. . ... : D-2 09 . ... : ... .. . ... : ... .. . ...
ROW 27 : --- .. . ... : ... .. . ... : --- .. . ... : ... .. . ... : ... .. . ... : ... .. . ... : ... .. . ... : ... .. . ...
ROW 28 : D#2 00 . ... : === 0C . ... : D#3 00 . ... : 5-# 03 C ... : ... .. . ... : G#2 09 . ... : G#4 08 . ... : G#3 07 . ...
ROW 29 : --- .. . ... : ... .. . ... : --- .. . ... : ... .. . ... : ... .. . ... : ... .. . ... : G#4 08 . ... : G#3 07 . ...
ROW 2A : D#1 00 . ... : ... .. . ... : D#2 00 . ... : ... .. . ... : ... .. . ... : F-2 09 . ... : A#4 08 . ... : A#3 07 . ...
ROW 2B : --- .. . ... : ... .. . ... : --- .. . ... : ... .. . ... : ... .. . ... : ... .. . ... : G#4 08 . ... : G#3 07 . ...
ROW 2C : D#1 00 . ... : ... .. . ... : D#2 00 . ... : F-# 02 6 ... : ... .. . ... : D#2 09 . ... : G-4 08 . ... : G-3 07 . ...
ROW 2D : --- .. . ... : ... .. . ... : --- .. . ... : ... .. . ... : ... .. . ... : ... .. . ... : ... .. . ... : ... .. . ...
ROW 2E : D#1 00 . ... : ... .. . ... : D#2 00 . ... : F-# 02 7 ... : ... .. . ... : D-2 09 . ... : ... .. . ... : ... .. . ...
ROW 2F : --- .. . ... : ... .. . ... : --- .. . ... : ... .. . ... : ... .. . ... : ... .. . ... : ... .. . ... : ... .. . ...
ROW 30 : D#1 00 . ... : D#3 0C . ... : D#2 00 . ... : F-# 02 7 ... : ... .. . ... : G#2 09 . ... : G-3 08 . ... : G-2 07 . ...
ROW 31 : --- 00 . ... : ... .. . ... : --- 00 . ... : ... .. . ... : ... .. . ... : ... .. . ... : ... .. . ... : ... .. . ...
ROW 32 : D#1 00 . ... : ... .. . ... : D#2 00 . ... : F-# 02 8 ... : ... .. . ... : F-2 09 . ... : ... .. . ... : ... .. . ...
ROW 33 : --- .. . ... : ... .. . ... : --- .. . ... : ... .. . ... : ... .. . ... : ... .. . ... : ... .. . ... : ... .. . ...
ROW 34 : D#1 00 . ... : ... .. . ... : D#2 00 . ... : F-# 02 8 ... : ... .. . ... : D#2 09 . ... : ... .. . ... : ... .. . ...
ROW 35 : --- .. . ... : ... .. . ... : --- .. . ... : ... .. . ... : ... .. . ... : ... .. . ... : ... .. . ... : ... .. . ...
ROW 36 : D#1 00 . ... : F-3 0C . ... : D#2 00 . ... : 0-# 03 9 ... : ... .. . ... : D-2 09 . ... : G#3 08 . ... : G#2 07 . ...
ROW 37 : --- .. . ... : ... .. . ... : --- .. . ... : ... .. . ... : ... .. . ... : ... .. . ... : ... .. . ... : ... .. . ...
ROW 38 : D#2 00 . ... : ... .. . ... : D#3 00 . ... : 5-# 03 C ... : ... .. . ... : G#2 09 . ... : ... .. . ... : ... .. . ...
ROW 39 : --- .. . ... : ... .. . ... : --- .. . ... : ... .. . ... : ... .. . ... : ... .. . ... : ... .. . ... : ... .. . ...
ROW 3A : D#1 00 . ... : ... .. . ... : D#2 00 . ... : ... .. . ... : ... .. . ... : F-2 09 . ... : ... .. . ... : ... .. . ...
ROW 3B : --- .. . ... : ... .. . ... : --- .. . ... : ... .. . ... : ... .. . ... : ... .. . ... : ... .. . ... : ... .. . ...
ROW 3C : D#1 00 . ... : G-3 0C . ... : D#2 00 . ... : F-# 02 6 ... : ... .. . ... : D#2 09 . ... : A#3 08 . ... : A#2 07 . ...
ROW 3D : --- .. . ... : ... .. . ... : --- .. . ... : ... .. . ... : ... .. . ... : ... .. . ... : ... .. . ... : ... .. . ...
ROW 3E : D#1 00 . ... : ... .. . ... : D#2 00 . ... : F-# 02 7 ... : ... .. . ... : D-2 09 . ... : ... .. . ... : ... .. . ...
ROW 3F : --- .. . ... : ... .. . ... : --- .. . ... : ... .. . ... : ... .. . ... : ... .. . ... : ... .. . ... : ... .. . ...
ROW 40 : G-1 00 . ... : D#3 0C . ... : G-2 00 . ... : F-# 02 7 ... : ... .. . ... : G-2 09 . ... : G-3 08 . ... : G-2 07 . ...
ROW 41 : --- .. . ... : ... .. . ... : --- .. . ... : ... .. . ... : ... .. . ... : ... .. . ... : ... .. . ... : ... .. . ...
ROW 42 : G-1 00 . ... : ... .. . ... : G-2 00 . ... : F-# 02 8 ... : ... .. . ... : D#2 09 . ... : ... .. . ... : ... .. . ...
ROW 43 : --- .. . ... : ... .. . ... : --- .. . ... : ... .. . ... : ... .. . ... : ... .. . ... : ... .. . ... : ... .. . ...
ROW 44 : G-1 00 . ... : ... .. . ... : G-2 00 . ... : F-# 02 8 ... : ... .. . ... : D-2 09 . ... : ... .. . ... : ... .. . ...
ROW 45 : --- .. . ... : ... .. . ... : --- .. . ... : ... .. . ... : ... .. . ... : ... .. . ... : ... .. . ... : ... .. . ...
ROW 46 : G-1 00 . ... : ... .. . ... : G-2 00 . ... : F-# 02 9 ... : ... .. . ... : C-2 09 . ... : ... .. . ... : ... .. . ...
ROW 47 : --- .. . ... : ... .. . ... : --- .. . ... : ... .. . ... : ... .. . ... : ... .. . ... : ... .. . ... : ... .. . ...
ROW 48 : G-2 00 . ... : === .. . ... : G-3 00 . ... : 5-# 03 C ... : ... .. . ... : G-2 09 . ... : C-4 08 . ... : C-3 07 . ...
ROW 49 : --- .. . ... : ... .. . ... : --- .. . ... : ... .. . ... : ... .. . ... : ... .. . ... : ... .. . ... : ... .. . ...
ROW 4A : G-1 00 . ... : ... .. . ... : G-2 00 . ... : ... .. . ... : ... .. . ... : D#2 09 . ... : ... .. . ... : ... .. . ...
ROW 4B : --- .. . ... : ... .. . ... : --- .. . ... : ... .. . ... : ... .. . ... : ... .. . ... : ... .. . ... : ... .. . ...
ROW 4C : G-1 00 . ... : ... .. . ... : G-2 00 . ... : F-# 02 6 ... : ... .. . ... : D-2 09 . ... : ... .. . ... : ... .. . ...
ROW 4D : --- .. . ... : ... .. . ... : --- .. . ... : ... .. . ... : ... .. . ... : ... .. . ... : ... .. . ... : ... .. . ...
ROW 4E : G-1 00 . ... : ... .. . ... : G-2 00 . ... : F-# 02 7 ... : ... .. . ... : C-2 09 . ... : ... .. . ... : ... .. . ...
ROW 4F : --- .. . ... : ... .. . ... : --- .. . ... : ... .. . ... : ... .. . ... : ... .. . ... : ... .. . ... : ... .. . ...
ROW 50 : G-1 00 . ... : D#4 0C . ... : G-2 00 . ... : F-# 02 7 ... : ... .. . ... : G-2 09 . ... : G-4 08 . ... : G-3 07 . ...
ROW 51 : --- .. . ... : ... .. . ... : --- .. . ... : ... .. . ... : ... .. . ... : ... .. . ... : ... .. . ... : ... .. . ...
ROW 52 : G-1 00 . ... : ... .. . ... : G-2 00 . ... : F-# 02 8 ... : ... .. . ... : D#2 09 . ... : ... .. . ... : ... .. . ...
ROW 53 : --- .. . ... : ... .. . ... : --- .. . ... : ... .. . ... : ... .. . ... : ... .. . ... : ... .. . ... : ... .. . ...
ROW 54 : G-1 00 . ... : ... .. . ... : G-2 00 . ... : F-# 02 8 ... : ... .. . ... : D-2 09 . ... : ... .. . ... : ... .. . ...
ROW 55 : --- .. . ... : ... .. . ... : --- .. . ... : ... .. . ... : ... .. . ... : ... .. . ... : ... .. . ... : ... .. . ...
ROW 56 : G-1 00 . ... : ... .. . ... : G-2 00 . ... : 0-# 03 9 ... : ... .. . ... : C-2 09 . ... : ... .. . ... : ... .. . ...
ROW 57 : --- .. . ... : ... .. . ... : --- .. . ... : ... .. . ... : ... .. . ... : ... .. . ... : ... .. . ... : ... .. . ...
ROW 58 : G-2 00 . ... : G-4 0C . ... : G-3 00 . ... : 5-# 03 C ... : ... .. . ... : G-2 09 . ... : C-5 08 . ... : C-4 07 . ...
ROW 59 : --- .. . ... : ... .. . ... : --- .. . ... : ... .. . ... : ... .. . ... : ... .. . ... : ... .. . ... : ... .. . ...
ROW 5A : G-1 00 . ... : ... .. . ... : G-2 00 . ... : ... .. . ... : ... .. . ... : D#2 09 . ... : ... .. . ... : ... .. . ...
ROW 5B : --- .. . ... : ... .. . ... : --- .. . ... : ... .. . ... : ... .. . ... : ... .. . ... : ... .. . ... : ... .. . ...
ROW 5C : G-1 00 . ... : ... .. . ... : G-2 00 . ... : F-# 02 6 ... : ... .. . ... : D-2 09 . ... : A#4 08 . ... : A#3 07 . ...
ROW 5D : --- .. . ... : ... .. . ... : --- .. . ... : ... .. . ... : ... .. . ... : ... .. . ... : ... .. . ... : ... .. . ...
ROW 5E : G-1 00 . ... : ... .. . ... : G-2 00 . ... : F-# 02 7 ... : ... .. . ... : C-2 09 . ... : ... .. . ... : ... .. . ...
ROW 5F : --- .. . ... : ... .. . ... : --- .. . ... : ... .. . ... : ... .. . ... : ... .. . ... : ... .. . ... : ... .. . ...
ROW 60 : F-1 00 . ... : F-4 0C . ... : F-2 00 . ... : F-# 02 7 ... : ... .. . ... : A-2 09 . ... : A-4 08 . ... : A-3 07 . ...
ROW 61 : --- .. . ... : ... .. . ... : --- .. . ... : ... .. . ... : ... .. . ... : ... .. . ... : ... .. . ... : ... .. . ...
ROW 62 : F-1 00 . ... : ... .. . ... : F-2 00 . ... : F-# 02 8 ... : ... .. . ... : G-2 09 . ... : ... .. . ... : ... .. . ...
ROW 63 : --- .. . ... : ... .. . ... : --- .. . ... : ... .. . ... : ... .. . ... : ... .. . ... : ... .. . ... : ... .. . ...
ROW 64 : F-1 00 . ... : ... .. . ... : F-2 00 . ... : F-# 02 8 ... : ... .. . ... : F-2 09 . ... : ... .. . ... : ... .. . ...
ROW 65 : --- .. . ... : ... .. . ... : --- .. . ... : ... .. . ... : ... .. . ... : ... .. . ... : ... .. . ... : ... .. . ...
ROW 66 : F-1 00 . ... : ... .. . ... : F-2 00 . ... : F-# 02 9 ... : ... .. . ... : D#2 09 . ... : ... .. . ... : ... .. . ...
ROW 67 : --- .. . ... : ... .. . ... : --- .. . ... : ... .. . ... : ... .. . ... : ... .. . ... : ... .. . ... : ... .. . ...
ROW 68 : F-2 00 . ... : D-4 0C . ... : F-3 00 . ... : 5-# 03 C ... : ... .. . ... : A-2 09 . ... : F-4 08 . ... : F-3 07 . ...
ROW 69 : --- .. . ... : ... .. . ... : --- .. . ... : ... .. . ... : ... .. . ... : ... .. . ... : ... .. . ... : ... .. . ...
ROW 6A : F-1 00 . ... : ... .. . ... : F-2 00 . ... : ... .. . ... : ... .. . ... : G-2 09 . ... : ... .. . ... : ... .. . ...
ROW 6B : --- .. . ... : ... .. . ... : --- .. . ... : ... .. . ... : ... .. . ... : ... .. . ... : ... .. . ... : ... .. . ...
ROW 6C : F-1 00 . ... : === .. . ... : F-2 00 . ... : F-# 02 6 ... : ... .. . ... : F-2 09 . ... : F-4 08 . ... : F-3 07 . ...
ROW 6D : --- .. . ... : ... .. . ... : --- .. . ... : ... .. . ... : ... .. . ... : ... .. . ... : G-4 08 . ... : G-3 07 . ...
ROW 6E : F-1 00 . ... : ... .. . ... : F-2 00 . ... : F-# 02 7 ... : ... .. . ... : D#2 09 . ... : F-4 08 . ... : F-3 07 . ...
ROW 6F : --- .. . ... : ... .. . ... : --- .. . ... : ... .. . ... : ... .. . ... : ... .. . ... : G-4 08 . ... : G-3 07 . ...
ROW 70 : F-1 00 . ... : D-4 0C . ... : F-2 00 . ... : F-# 02 7 ... : ... .. . ... : A-2 09 . ... : F-4 08 . ... : F-3 07 . ...
ROW 71 : --- .. . ... : ... .. . ... : --- .. . ... : ... .. . ... : ... .. . ... : ... .. . ... : ... .. . ... : ... .. . ...
ROW 72 : F-1 00 . ... : ... .. . ... : F-2 00 . ... : F-# 02 8 ... : ... .. . ... : G-2 09 . ... : ... .. . ... : ... .. . ...
ROW 73 : --- .. . ... : ... .. . ... : --- .. . ... : ... .. . ... : ... .. . ... : ... .. . ... : ... .. . ... : ... .. . ...
ROW 74 : F-1 00 . ... : D#4 0C . ... : F-2 00 . ... : F-# 02 8 ... : ... .. . ... : F-2 09 . ... : G-4 08 . ... : G-3 07 . ...
ROW 75 : --- .. . ... : ... .. . ... : --- .. . ... : ... .. . ... : ... .. . ... : ... .. . ... : ... .. . ... : ... .. . ...
ROW 76 : F-1 00 . ... : ... .. . ... : F-2 00 . ... : 0-# 03 9 ... : ... .. . ... : D#2 09 . ... : ... .. . ... : ... .. . ...
ROW 77 : --- .. . ... : ... .. . ... : --- .. . ... : ... .. . ... : ... .. . ... : ... .. . ... : ... .. . ... : ... .. . ...
ROW 78 : F-2 00 . ... : F-4 0C . ... : F-3 00 . ... : 5-# 03 C ... : ... .. . ... : A-2 09 . ... : G#4 08 . ... : G#3 07 . ...
ROW 79 : --- .. . ... : ... .. . ... : --- .. . ... : ... .. . ... : ... .. . ... : ... .. . ... : ... .. . ... : ... .. . ...
ROW 7A : F-1 00 . ... : ... .. . ... : F-2 00 . ... : ... .. . ... : ... .. . ... : G-2 09 . ... : ... .. . ... : ... .. . ...
ROW 7B : --- .. . ... : ... .. . ... : --- .. . ... : ... .. . ... : ... .. . ... : ... .. . ... : ... .. . ... : ... .. . ...
ROW 7C : F-1 00 . ... : D-4 0C . ... : F-2 00 . ... : F-# 02 6 ... : ... .. . ... : F-2 09 . ... : F-4 08 . ... : F-3 07 . ...
ROW 7D : --- .. . ... : ... .. . ... : --- .. . ... : ... .. . ... : ... .. . ... : ... .. . ... : ... .. . ... : ... .. . ...
ROW 7E : F-1 00 . ... : ... .. . ... : F-2 00 . ... : F-# 02 7 ... : ... .. . ... : D#2 09 . ... : ... .. . ... : ... .. . ...
ROW 7F : --- .. . ... : ... .. . ... : --- .. . ... : ... .. . ... : ... .. . ... : ... .. . ... : ... .. . ... : ... .. . ...

PATTERN 0C
ROW 00 : G-1 00 . ... : G-1 0B 8 ... : G-2 00 . ... : 4-# 03 C ... : ... .. . ... : G-2 09 F ... : G-4 08 F ... : G-3 07 D ...
ROW 01 : --- .. . ... : ... .. . ... : --- .. . ... : ... .. . ... : ... .. . ... : ... .. . ... : ... .. . ... : ... .. . ...
ROW 02 : G-1 00 . ... : ... .. . ... : G-2 00 . ... : F-# 02 6 ... : ... .. . ... : D#2 09 . ... : ... .. . ... : ... .. . ...
ROW 03 : --- .. . ... : ... .. . ... : --- .. . ... : ... .. . ... : ... .. . ... : ... .. . ... : ... .. . ... : ... .. . ...
ROW 04 : G-1 00 . ... : ... .. . ... : G-2 00 . ... : F-# 02 7 ... : ... .. . ... : D-2 09 . ... : ... .. . ... : ... .. . ...
ROW 05 : --- .. . ... : ... .. . ... : --- .. . ... : ... .. . ... : ... .. . ... : ... .. . ... : ... .. . ... : ... .. . ...
ROW 06 : G-1 00 . ... : ... .. . ... : G-2 00 . ... : F-# 02 8 ... : ... .. . ... : C-2 09 . ... : ... .. . ... : ... .. . ...
ROW 07 : --- .. . ... : ... .. . ... : --- .. . ... : ... .. . ... : ... .. . ... : ... .. . ... : ... .. . ... : ... .. . ...
ROW 08 : G-2 00 . ... : ... .. . ... : G-3 00 . ... : 5-# 03 C ... : ... .. . ... : G-2 09 . ... : C-4 08 . ... : C-3 07 . ...
ROW 09 : --- .. . ... : ... .. . ... : --- .. . ... : ... .. . ... : ... .. . ... : ... .. . ... : ... .. . ... : ... .. . ...
ROW 0A : G-1 00 . ... : ... .. . ... : G-2 00 . ... : ... .. . ... : ... .. . ... : D#2 09 . ... : ... .. . ... : ... .. . ...
ROW 0B : --- .. . ... : ... .. . ... : --- .. . ... : ... .. . ... : ... .. . ... : ... .. . ... : ... .. . ... : ... .. . ...
ROW 0C : G-1 00 . ... : ... .. . ... : G-2 00 . ... : F-# 02 6 ... : ... .. . ... : D-2 09 . ... : D-4 08 . ... : D-3 07 . ...
ROW 0D : --- .. . ... : ... .. . ... : --- .. . ... : ... .. . ... : ... .. . ... : ... .. . ... : ... .. . ... : ... .. . ...
ROW 0E : G-1 00 . ... : ... .. . ... : G-2 00 . ... : F-# 02 7 ... : ... .. . ... : C-2 09 . ... : ... .. . ... : ... .. . ...
ROW 0F : --- .. . ... : ... .. . ... : --- .. . ... : ... .. . ... : ... .. . ... : ... .. . ... : ... .. . ... : ... .. . ...
ROW 10 : G-1 00 . ... : ... .. . ... : G-2 00 . ... : F-# 02 7 ... : ... .. . ... : G-2 09 . ... : D#4 08 . ... : D#3 07 . ...
ROW 11 : --- .. . ... : ... .. . ... : --- .. . ... : ... .. . ... : ... .. . ... : ... .. . ... : ... .. . ... : ... .. . ...
ROW 12 : G-1 00 . ... : ... .. . ... : G-2 00 . ... : F-# 02 8 ... : ... .. . ... : D#2 09 . ... : ... .. . ... : ... .. . ...
ROW 13 : --- .. . ... : ... .. . ... : --- .. . ... : ... .. . ... : ... .. . ... : ... .. . ... : ... .. . ... : ... .. . ...
ROW 14 : G-1 00 . ... : ... .. . ... : G-2 00 . ... : F-# 02 8 ... : ... .. . ... : D-2 09 . ... : ... .. . ... : ... .. . ...
ROW 15 : --- .. . ... : ... .. . ... : --- .. . ... : ... .. . ... : ... .. . ... : ... .. . ... : ... .. . ... : ... .. . ...
ROW 16 : G-1 00 . ... : ... .. . ... : G-2 00 . ... : 0-# 03 9 ... : ... .. . ... : C-2 09 . ... : ... .. . ... : ... .. . ...
ROW 17 : --- .. . ... : ... .. . ... : --- .. . ... : ... .. . ... : ... .. . ... : ... .. . ... : ... .. . ... : ... .. . ...
ROW 18 : G-2 00 . ... : ... .. . ... : G-3 00 . ... : 5-# 03 C ... : ... .. . ... : G-2 09 . ... : D-4 08 . ... : D-3 07 . ...
ROW 19 : --- .. . ... : ... .. . ... : --- .. . ... : ... .. . ... : ... .. . ... : ... .. . ... : ... .. . ... : ... .. . ...
ROW 1A : G-1 00 . ... : ... .. . ... : G-2 00 . ... : ... .. . ... : ... .. . ... : D#2 09 . ... : ... .. . ... : ... .. . ...
ROW 1B : --- .. . ... : ... .. . ... : --- .. . ... : ... .. . ... : ... .. . ... : ... .. . ... : ... .. . ... : ... .. . ...
ROW 1C : G-1 00 . ... : ... .. . ... : G-2 00 . ... : F-# 02 6 ... : ... .. . ... : D-2 09 . ... : C-4 08 . ... : C-3 07 . ...
ROW 1D : --- .. . ... : ... .. . ... : --- .. . ... : ... .. . ... : ... .. . ... : ... .. . ... : ... .. . ... : ... .. . ...
ROW 1E : G-1 00 . ... : ... .. . ... : G-2 00 . ... : F-# 02 7 ... : ... .. . ... : C-2 09 . ... : ... .. . ... : ... .. . ...
ROW 1F : --- .. . ... : ... .. . ... : --- .. . ... : ... .. . ... : ... .. . ... : ... .. . ... : ... .. . ... : ... .. . ...
ROW 20 : D#1 00 . ... : D#1 0B . ... : D#2 00 . ... : F-# 02 7 ... : ... .. . ... : C-3 09 . ... : C-4 08 . ... : C-3 07 . ...
ROW 21 : --- .. . ... : ... .. . ... : --- .. . ... : ... .. . ... : ... .. . ... : ... .. . ... : ... .. . ... : ... .. . ...
ROW 22 : D#1 00 . ... : ... .. . ... : D#2 00 . ... : F-# 02 8 ... : ... .. . ... : G-2 09 . ... : ... .. . ... : ... .. . ...
ROW 23 : --- .. . ... : ... .. . ... : --- .. . ... : ... .. . ... : ... .. . ... : ... .. . ... : ... .. . ... : ... .. . ...
ROW 24 : D#1 00 . ... : ... .. . ... : D#2 00 . ... : F-# 02 8 ... : ... .. . ... : F-2 09 . ... : G-4 08 . ... : G-3 07 . ...
ROW 25 : --- .. . ... : ... .. . ... : --- .. . ... : ... .. . ... : ... .. . ... : ... .. . ... : ... .. . ... : ... .. . ...
ROW 26 : D#1 00 . ... : ... .. . ... : D#2 00 . ... : F-# 02 9 ... : ... .. . ... : D#2 09 . ... : ... .. . ... : ... .. . ...
ROW 27 : --- .. . ... : ... .. . ... : --- .. . ... : ... .. . ... : ... .. . ... : ... .. . ... : ... .. . ... : ... .. . ...
ROW 28 : D#2 00 . ... : ... .. . ... : D#3 00 . ... : 5-# 03 C ... : ... .. . ... : C-3 09 . ... : C-5 08 . ... : C-4 07 . ...
ROW 29 : --- .. . ... : ... .. . ... : --- .. . ... : ... .. . ... : ... .. . ... : ... .. . ... : ... .. . ... : ... .. . ...
ROW 2A : D#1 00 . ... : ... .. . ... : D#2 00 . ... : ... .. . ... : ... .. . ... : G-2 09 . ... : ... .. . ... : ... .. . ...
ROW 2B : --- .. . ... : ... .. . ... : --- .. . ... : ... .. . ... : ... .. . ... : ... .. . ... : ... .. . ... : ... .. . ...
ROW 2C : D#1 00 . ... : ... .. . ... : D#2 00 . ... : F-# 02 6 ... : ... .. . ... : F-2 09 . ... : C-5 08 . ... : C-4 07 . ...
ROW 2D : --- .. . ... : ... .. . ... : --- .. . ... : ... .. . ... : ... .. . ... : ... .. . ... : ... .. . ... : ... .. . ...
ROW 2E : D#1 00 . ... : ... .. . ... : D#2 00 . ... : F-# 02 7 ... : ... .. . ... : D#2 09 . ... : D-5 08 . ... : D-4 07 . ...
ROW 2F : --- .. . ... : ... .. . ... : --- .. . ... : ... .. . ... : ... .. . ... : ... .. . ... : ... .. . ... : ... .. . ...
ROW 30 : D#1 00 . ... : ... .. . ... : D#2 00 . ... : F-# 02 7 ... : ... .. . ... : C-3 09 . ... : D#5 08 . ... : D#4 07 . ...
ROW 31 : --- .. . ... : ... .. . ... : --- .. . ... : ... .. . ... : ... .. . ... : ... .. . ... : F-5 08 . ... : F-4 07 . ...
ROW 32 : D#1 00 . ... : ... .. . ... : D#2 00 . ... : F-# 02 8 ... : ... .. . ... : G-2 09 . ... : D#5 08 . ... : D#4 07 . ...
ROW 33 : --- .. . ... : ... .. . ... : --- .. . ... : ... .. . ... : ... .. . ... : ... .. . ... : F-5 08 . ... : F-4 07 . ...
ROW 34 : D#1 00 . ... : ... .. . ... : D#2 00 . ... : F-# 02 8 ... : ... .. . ... : F-2 09 . ... : D#5 08 . ... : D#4 07 . ...
ROW 35 : --- .. . ... : ... .. . ... : --- .. . ... : ... .. . ... : ... .. . ... : ... .. . ... : F-5 08 . ... : F-4 07 . ...
ROW 36 : D#1 00 . ... : ... .. . ... : D#2 00 . ... : 0-# 03 9 ... : ... .. . ... : D#2 09 . ... : D#5 08 . ... : D#4 07 . ...
ROW 37 : --- .. . ... : ... .. . ... : --- .. . ... : ... .. . ... : ... .. . ... : ... .. . ... : F-5 08 . ... : F-4 07 . ...
ROW 38 : D#2 00 . ... : ... .. . ... : D#3 00 . ... : 5-# 03 C ... : ... .. . ... : C-3 09 . ... : D#5 08 . ... : D#4 07 . ...
ROW 39 : --- .. . ... : ... .. . ... : --- .. . ... : ... .. . ... : ... .. . ... : ... .. . ... : ... .. . ... : ... .. . ...
ROW 3A : D#1 00 . ... : ... .. . ... : D#2 00 . ... : ... .. . ... : ... .. . ... : G-2 09 . ... : D-5 08 . ... : D-4 07 . ...
ROW 3B : --- .. . ... : ... .. . ... : --- .. . ... : ... .. . ... : ... .. . ... : ... .. . ... : ... .. . ... : ... .. . ...
ROW 3C : D#1 00 . ... : ... .. . ... : D#2 00 . ... : F-# 02 6 ... : ... .. . ... : F-2 09 . ... : C-5 08 . ... : C-4 07 . ...
ROW 3D : --- .. . ... : ... .. . ... : --- .. . ... : ... .. . ... : ... .. . ... : ... .. . ... : ... .. . ... : ... .. . ...
ROW 3E : D#1 00 . ... : ... .. . ... : D#2 00 . ... : F-# 02 7 ... : ... .. . ... : D#2 09 . ... : A#4 08 . ... : A#3 07 . ...
ROW 3F : --- .. . ... : ... .. . ... : --- .. . ... : ... .. . ... : ... .. . ... : ... .. . ... : ... .. . ... : ... .. . ...
ROW 40 : G#1 00 . ... : G#1 0B . ... : G#1 00 . ... : F-# 02 7 ... : ... .. . ... : G#2 09 . ... : G#4 08 . ... : G#3 07 . ...
ROW 41 : --- .. . ... : ... .. . ... : --- .. . ... : ... .. . ... : ... .. . ... : ... .. . ... : ... .. . ... : ... .. . ...
ROW 42 : G#1 00 . ... : ... .. . ... : G#1 00 . ... : F-# 02 8 ... : ... .. . ... : G-2 09 . ... : ... .. . ... : ... .. . ...
ROW 43 : --- .. . ... : ... .. . ... : --- .. . ... : ... .. . ... : ... .. . ... : ... .. . ... : ... .. . ... : ... .. . ...
ROW 44 : G#1 00 . ... : ... .. . ... : G#1 00 . ... : F-# 02 8 ... : ... .. . ... : F-2 09 . ... : ... .. . ... : ... .. . ...
ROW 45 : --- .. . ... : ... .. . ... : --- .. . ... : ... .. . ... : ... .. . ... : ... .. . ... : ... .. . ... : ... .. . ...
ROW 46 : G#1 00 . ... : ... .. . ... : G#1 00 . ... : F-# 02 9 ... : ... .. . ... : C-2 09 . ... : ... .. . ... : ... .. . ...
ROW 47 : --- .. . ... : ... .. . ... : --- .. . ... : ... .. . ... : ... .. . ... : ... .. . ... : ... .. . ... : ... .. . ...
ROW 48 : G#2 00 . ... : ... .. . ... : G#2 00 . ... : 5-# 03 C ... : ... .. . ... : G#2 09 . ... : G#4 08 . ... : G#3 07 . ...
ROW 49 : --- .. . ... : ... .. . ... : --- .. . ... : ... .. . ... : ... .. . ... : ... .. . ... : ... .. . ... : ... .. . ...
ROW 4A : G#1 00 . ... : ... .. . ... : G#1 00 . ... : ... .. . ... : ... .. . ... : G-2 09 . ... : ... .. . ... : ... .. . ...
ROW 4B : --- .. . ... : ... .. . ... : --- .. . ... : ... .. . ... : ... .. . ... : ... .. . ... : ... .. . ... : ... .. . ...
ROW 4C : G-1 00 . ... : G-1 0B . ... : G-1 00 . ... : F-# 02 6 ... : ... .. . ... : F-2 09 . ... : G-4 08 . ... : G-3 07 . ...
ROW 4D : --- .. . ... : ... .. . ... : --- .. . ... : ... .. . ... : ... .. . ... : ... .. . ... : ... .. . ... : ... .. . ...
ROW 4E : G-1 00 . ... : ... .. . ... : G-1 00 . ... : F-# 02 7 ... : ... .. . ... : C-2 09 . ... : ... .. . ... : ... .. . ...
ROW 4F : --- .. . ... : ... .. . ... : --- .. . ... : ... .. . ... : ... .. . ... : ... .. . ... : ... .. . ... : ... .. . ...
ROW 50 : F-1 00 . ... : F-1 0B . ... : F-1 00 . ... : F-# 02 7 ... : ... .. . ... : G#2 09 . ... : F-4 08 . ... : F-3 07 . ...
ROW 51 : --- .. . ... : ... .. . ... : --- .. . ... : ... .. . ... : ... .. . ... : ... .. . ... : ... .. . ... : ... .. . ...
ROW 52 : F-1 00 . ... : ... .. . ... : F-1 00 . ... : F-# 02 8 ... : ... .. . ... : G-2 09 . ... : ... .. . ... : ... .. . ...
ROW 53 : --- .. . ... : ... .. . ... : --- .. . ... : ... .. . ... : ... .. . ... : ... .. . ... : ... .. . ... : ... .. . ...
ROW 54 : F-1 00 . ... : ... .. . ... : F-1 00 . ... : F-# 02 8 ... : ... .. . ... : F-2 09 . ... : ... .. . ... : ... .. . ...
ROW 55 : --- .. . ... : ... .. . ... : --- .. . ... : ... .. . ... : ... .. . ... : ... .. . ... : ... .. . ... : ... .. . ...
ROW 56 : F-1 00 . ... : ... .. . ... : F-1 00 . ... : 0-# 03 9 ... : ... .. . ... : C-2 09 . ... : ... .. . ... : ... .. . ...
ROW 57 : --- .. . ... : ... .. . ... : --- .. . ... : ... .. . ... : ... .. . ... : ... .. . ... : ... .. . ... : ... .. . ...
ROW 58 : G-2 00 . ... : G-1 0B . ... : G-2 00 . ... : 5-# 03 C ... : ... .. . ... : G#2 09 . ... : G-4 08 . ... : G-3 07 . ...
ROW 59 : --- .. . ... : ... .. . ... : --- .. . ... : ... .. . ... : ... .. . ... : ... .. . ... : ... .. . ... : ... .. . ...
ROW 5A : G-1 00 . ... : ... .. . ... : G-1 00 . ... : ... .. . ... : ... .. . ... : G-2 09 . ... : ... .. . ... : ... .. . ...
ROW 5B : --- .. . ... : ... .. . ... : --- .. . ... : ... .. . ... : ... .. . ... : ... .. . ... : ... .. . ... : ... .. . ...
ROW 5C : G#1 00 . ... : G#1 0B . ... : G#1 00 . ... : F-# 02 6 ... : ... .. . ... : F-2 09 . ... : G#4 08 . ... : G#3 07 . ...
ROW 5D : --- 00 . ... : ... .. . ... : --- 00 . ... : ... .. . ... : ... .. . ... : ... .. . ... : ... .. . ... : ... .. . ...
ROW 5E : G#1 00 . ... : ... .. . ... : G#1 00 . ... : F-# 02 7 ... : ... .. . ... : C-2 09 . ... : ... .. . ... : ... .. . ...
ROW 5F : --- .. . ... : ... .. . ... : --- .. . ... : ... .. . ... : ... .. . ... : ... .. . ... : ... .. . ... : ... .. . ...
ROW 60 : B-1 00 . ... : B-1 0B . ... : B-1 00 . ... : 5-# 03 F ... : ... .. . ... : B-2 09 . ... : B-4 08 . ... : B-3 07 . ...
ROW 61 : --- .. . ... : ... .. . ... : --- .. . ... : ... .. . ... : ... .. . ... : ... .. . ... : ... .. . ... : ... .. . ...
ROW 62 : B-1 00 . ... : ... .. . ... : B-1 00 . ... : 4-# 03 C ... : ... .. . ... : G-2 09 . ... : ... .. . ... : ... .. . ...
ROW 63 : --- .. . ... : ... .. . ... : --- .. . ... : ... .. . ... : ... .. . ... : ... .. . ... : ... .. . ... : ... .. . ...
ROW 64 : B-1 00 . ... : B-0 0B . ... : B-1 00 . ... : ... .. . ... : ... .. . ... : D-2 09 . ... : ... .. . ... : ... .. . ...
ROW 65 : --- .. . ... : ... .. . ... : --- .. . ... : ... .. . ... : ... .. . ... : ... .. . ... : ... .. . ... : ... .. . ...
ROW 66 : B-1 00 . ... : ... .. . ... : B-1 00 . ... : 5-# 03 A ... : ... .. . ... : B-1 09 . ... : ... .. . ... : ... .. . ...
ROW 67 : --- .. . ... : ... .. . ... : --- .. . ... : ... .. . ... : ... .. . ... : ... .. . ... : ... .. . ... : ... .. . ...
ROW 68 : B-2 00 . ... : ... .. . ... : B-2 00 . ... : ... .. . ... : ... .. . ... : B-2 09 . ... : B-4 08 . ... : B-3 07 . ...
ROW 69 : --- .. . ... : ... .. . ... : --- .. . ... : ... .. . ... : ... .. . ... : ... .. . ... : ... .. . ... : ... .. . ...
ROW 6A : B-1 00 . ... : ... .. . ... : B-1 00 . ... : 8-# 03 8 ... : ... .. . ... : G-2 09 . ... : ... .. . ... : ... .. . ...
ROW 6B : --- .. . ... : ... .. . ... : --- .. . ... : ... .. . ... : ... .. . ... : ... .. . ... : ... .. . ... : ... .. . ...
ROW 6C : B-1 00 . ... : ... .. . ... : B-1 00 . ... : 9-# 03 7 ... : ... .. . ... : D-2 09 . ... : C-5 08 . ... : C-4 07 . ...
ROW 6D : --- .. . ... : ... .. . ... : --- .. . ... : ... .. . ... : ... .. . ... : ... .. . ... : ... .. . ... : ... .. . ...
ROW 6E : B-1 00 . ... : ... .. . ... : B-1 00 . ... : 8-# 03 6 ... : ... .. . ... : B-1 09 . ... : ... .. . ... : ... .. . ...
ROW 6F : --- .. . ... : ... .. . ... : --- .. . ... : ... .. . ... : ... .. . ... : ... .. . ... : ... .. . ... : ... .. . ...
ROW 70 : B-1 00 . ... : ... .. . ... : B-1 00 . ... : 5-# 03 F ... : ... .. . ... : B-2 09 . ... : D-5 08 . ... : D-4 07 . ...
ROW 71 : --- .. . ... : ... .. . ... : --- .. . ... : ... .. . ... : ... .. . ... : ... .. . ... : ... .. . ... : ... .. . ...
ROW 72 : B-1 00 . ... : ... .. . ... : B-1 00 . ... : 4-# 03 C ... : ... .. . ... : G-2 09 . ... : ... .. . ... : ... .. . ...
ROW 73 : --- .. . ... : ... .. . ... : --- .. . ... : ... .. . ... : ... .. . ... : ... .. . ... : ... .. . ... : ... .. . ...
ROW 74 : B-1 00 . ... : ... .. . ... : B-1 00 . ... : 4-# 03 D ... : ... .. . ... : D-2 09 . ... : ... .. . ... : ... .. . ...
ROW 75 : --- .. . ... : ... .. . ... : --- .. . ... : ... .. . ... : ... .. . ... : ... .. . ... : ... .. . ... : ... .. . ...
ROW 76 : B-1 00 . ... : ... .. . ... : B-1 00 . ... : 3-# 03 E ... : ... .. . ... : B-1 09 . ... : ... .. . ... : ... .. . ...
ROW 77 : --- .. . ... : ... .. . ... : --- .. . ... : ... .. . ... : ... .. . ... : ... .. . ... : ... .. . ... : ... .. . ...
ROW 78 : B-2 00 . ... : ... .. . ... : B-2 00 . ... : 3-# 03 F ... : ... .. . ... : B-2 09 . ... : G-5 08 . ... : G-4 07 . ...
ROW 79 : --- .. . ... : ... .. . ... : --- .. . ... : ... .. . ... : ... .. . ... : ... .. . ... : ... .. . ... : ... .. . ...
ROW 7A : B-1 00 . ... : ... .. . ... : B-1 00 . ... : 2-# 03 E ... : ... .. . ... : G-2 09 . ... : ... .. . ... : ... .. . ...
ROW 7B : --- .. . ... : ... .. . ... : --- .. . ... : ... .. . ... : ... .. . ... : ... .. . ... : ... .. . ... : ... .. . ...
ROW 7C : B-1 00 . ... : ... .. . ... : B-1 00 . ... : 2-# 03 D ... : ... .. . ... : D-2 09 . ... : ... .. . ... : ... .. . ...
ROW 7D : --- .. . ... : ... .. . ... : --- .. . ... : ... .. . ... : ... .. . ... : ... .. . ... : ... .. . ... : ... .. . ...
ROW 7E : B-1 00 . ... : ... .. . ... : B-1 00 . ... : 1-# 03 C ... : ... .. . ... : B-1 09 . ... : ... .. . ... : ... .. . ...
ROW 7F : --- .. . ... : ... .. . ... : --- .. . ... : ... .. . ... : ... .. . ... : ... .. . ... : ... .. . ... : ... .. . ...

PATTERN 0D
ROW 00 : C-1 00 1 ... : --- .. . ... : C-2 00 . ... : 4-# 03 C ... : ... .. . ... : ... .. . ... : D#5 08 F ... : C-4 07 F ...
ROW 01 : ... .. . ... : ... .. . ... : --- .. . ... : ... .. . ... : ... .. . ... : ... .. . ... : ... .. . ... : ... .. . ...
ROW 02 : ... .. 2 ... : ... .. . ... : C-2 00 . ... : F-# 02 6 ... : ... .. . ... : ... .. . ... : ... .. . ... : ... .. . ...
ROW 03 : ... .. . ... : ... .. . ... : --- .. . ... : ... .. . ... : ... .. . ... : ... .. . ... : ... .. . ... : ... .. . ...
ROW 04 : ... .. 3 ... : ... .. . ... : C-2 00 . ... : F-# 02 7 ... : ... .. . ... : ... .. . ... : ... .. E ... : ... .. E ...
ROW 05 : ... .. . ... : ... .. . ... : --- .. . ... : ... .. . ... : ... .. . ... : ... .. . ... : ... .. . ... : ... .. . ...
ROW 06 : ... .. 4 ... : ... .. . ... : C-2 00 . ... : F-# 02 8 ... : ... .. . ... : ... .. . ... : ... .. . ... : ... .. . ...
ROW 07 : ... .. . ... : ... .. . ... : --- .. . ... : ... .. . ... : ... .. . ... : ... .. . ... : ... .. . ... : ... .. . ...
ROW 08 : ... .. 5 ... : ... .. . ... : C-2 00 . ... : F-# 02 C ... : ... .. . ... : ... .. . ... : ... .. D ... : ... .. D ...
ROW 09 : ... .. . ... : ... .. . ... : --- .. . ... : ... .. . ... : ... .. . ... : ... .. . ... : ... .. . ... : ... .. . ...
ROW 0A : ... .. 6 ... : ... .. . ... : C-2 00 . ... : F-# 02 6 ... : ... .. . ... : ... .. . ... : ... .. . ... : ... .. . ...
ROW 0B : ... .. . ... : ... .. . ... : --- .. . ... : ... .. . ... : ... .. . ... : ... .. . ... : ... .. . ... : ... .. . ...
ROW 0C : ... .. 7 ... : ... .. . ... : C-2 00 . ... : F-# 02 6 ... : ... .. . ... : ... .. . ... : ... .. C ... : ... .. C ...
ROW 0D : ... .. . ... : ... .. . ... : --- .. . ... : ... .. . ... : ... .. . ... : ... .. . ... : ... .. . ... : ... .. . ...
ROW 0E : ... .. 8 ... : ... .. . ... : C-2 00 . ... : F-# 02 7 ... : ... .. . ... : ... .. . ... : ... .. . ... : ... .. . ...
ROW 0F : ... .. . ... : ... .. . ... : --- .. . ... : ... .. . ... : ... .. . ... : ... .. . ... : ... .. . ... : ... .. . ...
ROW 10 : ... .. 9 ... : ... .. . ... : C-2 00 . ... : F-# 02 7 ... : ... .. . ... : ... .. . ... : ... .. B ... : ... .. B ...
ROW 11 : ... .. . ... : ... .. . ... : --- .. . ... : ... .. . ... : ... .. . ... : ... .. . ... : ... .. . ... : ... .. . ...
ROW 12 : ... .. A ... : ... .. . ... : C-2 00 . ... : F-# 02 8 ... : ... .. . ... : ... .. . ... : ... .. . ... : ... .. . ...
ROW 13 : ... .. . ... : ... .. . ... : --- .. . ... : ... .. . ... : ... .. . ... : ... .. . ... : ... .. . ... : ... .. . ...
ROW 14 : ... .. B ... : ... .. . ... : C-2 00 . ... : F-# 02 8 ... : ... .. . ... : ... .. . ... : ... .. A ... : ... .. A ...
ROW 15 : ... .. . ... : ... .. . ... : --- .. . ... : ... .. . ... : ... .. . ... : ... .. . ... : ... .. . ... : ... .. . ...
ROW 16 : ... .. C ... : ... .. . ... : C-2 00 . ... : F-# 02 9 ... : ... .. . ... : ... .. . ... : ... .. . ... : ... .. . ...
ROW 17 : ... .. . ... : ... .. . ... : --- .. . ... : ... .. . ... : ... .. . ... : ... .. . ... : ... .. . ... : ... .. . ...
ROW 18 : ... .. D ... : ... .. . ... : C-2 00 . ... : F-# 02 C ... : ... .. . ... : ... .. . ... : ... .. 8 ... : ... .. 8 ...
ROW 19 : ... .. . ... : ... .. . ... : --- .. . ... : ... .. . ... : ... .. . ... : ... .. . ... : ... .. . ... : ... .. . ...
ROW 1A : ... .. E ... : ... .. . ... : C-2 00 . ... : F-# 02 6 ... : ... .. . ... : ... .. . ... : ... .. . ... : ... .. . ...
ROW 1B : ... .. . ... : ... .. . ... : --- .. . ... : ... .. . ... : ... .. . ... : ... .. . ... : ... .. . ... : ... .. . ...
ROW 1C : ... .. F ... : ... .. . ... : C-2 00 . ... : F-# 02 6 ... : ... .. . ... : ... .. . ... : ... .. 7 ... : ... .. 7 ...
ROW 1D : ... .. . ... : ... .. . ... : --- .. . ... : ... .. . ... : ... .. . ... : ... .. . ... : ... .. . ... : ... .. . ...
ROW 1E : ... .. E ... : ... .. . ... : C-2 00 . ... : F-# 02 7 ... : ... .. . ... : ... .. . ... : ... .. . ... : ... .. . ...
ROW 1F : ... .. . ... : ... .. . ... : --- .. . ... : ... .. . ... : ... .. . ... : ... .. . ... : ... .. . ... : ... .. . ...
ROW 20 : ... .. D ... : ... .. . ... : C-2 00 . ... : F-# 02 7 ... : ... .. . ... : ... .. . ... : ... .. 6 ... : ... .. 6 ...
ROW 21 : ... .. . ... : ... .. . ... : --- .. . ... : ... .. . ... : ... .. . ... : ... .. . ... : ... .. . ... : ... .. . ...
ROW 22 : ... .. C ... : ... .. . ... : C-2 00 . ... : F-# 02 8 ... : ... .. . ... : ... .. . ... : ... .. . ... : ... .. . ...
ROW 23 : ... .. . ... : ... .. . ... : --- .. . ... : ... .. . ... : ... .. . ... : ... .. . ... : ... .. . ... : ... .. . ...
ROW 24 : ... .. B ... : ... .. . ... : C-2 00 . ... : F-# 02 8 ... : ... .. . ... : ... .. . ... : ... .. 5 ... : ... .. 5 ...
ROW 25 : ... .. . ... : ... .. . ... : --- .. . ... : ... .. . ... : ... .. . ... : ... .. . ... : ... .. . ... : ... .. . ...
ROW 26 : ... .. A ... : ... .. . ... : C-2 00 . ... : F-# 02 9 ... : ... .. . ... : ... .. . ... : ... .. . ... : ... .. . ...
ROW 27 : ... .. . ... : ... .. . ... : --- .. . ... : ... .. . ... : ... .. . ... : ... .. . ... : ... .. . ... : ... .. . ...
ROW 28 : ... .. 9 ... : ... .. . ... : C-2 00 . ... : F-# 02 C ... : ... .. . ... : ... .. . ... : ... .. 4 ... : ... .. 4 ...
ROW 29 : ... .. . ... : ... .. . ... : --- .. . ... : ... .. . ... : ... .. . ... : ... .. . ... : ... .. . ... : ... .. . ...
ROW 2A : ... .. 8 ... : ... .. . ... : C-2 00 . ... : F-# 02 6 ... : ... .. . ... : ... .. . ... : ... .. . ... : ... .. . ...
ROW 2B : ... .. . ... : ... .. . ... : --- .. . ... : ... .. . ... : ... .. . ... : ... .. . ... : ... .. . ... : ... .. . ...
ROW 2C : ... .. 7 ... : ... .. . ... : C-2 00 . ... : F-# 02 6 ... : ... .. . ... : ... .. . ... : ... .. 3 ... : ... .. 3 ...
ROW 2D : ... .. . ... : ... .. . ... : --- .. . ... : ... .. . ... : ... .. . ... : ... .. . ... : ... .. . ... : ... .. . ...
ROW 2E : ... .. 6 ... : ... .. . ... : C-2 00 . ... : F-# 02 7 ... : ... .. . ... : ... .. . ... : ... .. . ... : ... .. . ...
ROW 2F : ... .. . ... : ... .. . ... : --- .. . ... : ... .. . ... : ... .. . ... : ... .. . ... : ... .. . ... : ... .. . ...
ROW 30 : ... .. 5 ... : ... .. . ... : C-2 00 . ... : F-# 02 7 ... : ... .. . ... : ... .. . ... : ... .. 2 ... : ... .. 2 ...
ROW 31 : ... .. . ... : ... .. . ... : --- .. . ... : ... .. . ... : ... .. . ... : ... .. . ... : ... .. . ... : ... .. . ...
ROW 32 : ... .. 4 ... : ... .. . ... : C-2 00 . ... : F-# 02 8 ... : ... .. . ... : ... .. . ... : ... .. . ... : ... .. . ...
ROW 33 : ... .. . ... : ... .. . ... : --- .. . ... : ... .. . ... : ... .. . ... : ... .. . ... : ... .. . ... : ... .. . ...
ROW 34 : ... .. 3 ... : ... .. . ... : C-2 00 . ... : F-# 02 8 ... : ... .. . ... : ... .. . ... : ... .. 1 ... : ... .. 1 ...
ROW 35 : ... .. . ... : ... .. . ... : --- .. . ... : ... .. . ... : ... .. . ... : ... .. . ... : ... .. . ... : ... .. . ...
ROW 36 : ... .. 2 ... : ... .. . ... : C-2 00 . ... : F-# 02 9 ... : ... .. . ... : ... .. . ... : ... .. . ... : ... .. . ...
ROW 37 : ... .. . ... : ... .. . ... : --- .. . ... : ... .. . ... : ... .. . ... : ... .. . ... : ... .. . ... : ... .. . ...
ROW 38 : ... .. 1 ... : ... .. . ... : C-2 00 . ... : F-# 02 C ... : ... .. . ... : ... .. . ... : ... .. 0 ... : ... .. 0 ...
ROW 39 : ... .. . ... : ... .. . ... : --- .. . ... : ... .. . ... : ... .. . ... : ... .. . ... : ... .. . ... : ... .. . ...
ROW 3A : ... .. . ... : ... .. . ... : C-2 00 . ... : F-# 02 6 ... : ... .. . ... : ... .. . ... : ... .. . ... : ... .. . ...
ROW 3B : ... .. . ... : ... .. . ... : --- .. . ... : ... .. . ... : ... .. . ... : ... .. . ... : ... .. . ... : ... .. . ...
ROW 3C : ... .. . ... : ... .. . ... : C-2 00 . ... : F-# 02 6 ... : ... .. . ... : ... .. . ... : ... .. . ... : ... .. . ...
ROW 3D : ... .. . ... : ... .. . ... : --- .. . ... : ... .. . ... : ... .. . ... : ... .. . ... : ... .. . ... : ... .. . ...
ROW 3E : ... .. . ... : ... .. . ... : C-2 00 . ... : F-# 02 7 ... : ... .. . ... : ... .. . ... : ... .. . ... : ... .. . ...
ROW 3F : ... .. . ... : ... .. . ... : --- .. . ... : ... .. . ... : ... .. . ... : ... .. . ... : ... .. . ... : ... .. . ...
ROW 40 : C-1 0B 1 ... : ... .. . ... : C-2 00 . ... : F-# 02 6 ... : ... .. . ... : C-3 0A 1 ... : F-3 0A 1 ... : G#3 0A 1 ...
ROW 41 : ... .. . ... : ... .. . ... : --- .. . ... : ... .. . ... : ... .. . ... : ... .. 1 ... : ... .. 1 ... : ... .. 1 ...
ROW 42 : ... .. 2 ... : ... .. . ... : C-2 00 . ... : F-# 02 7 ... : ... .. . ... : ... .. 1 ... : ... .. 1 ... : ... .. 1 ...
ROW 43 : ... .. . ... : ... .. . ... : --- .. . ... : ... .. . ... : ... .. . ... : ... .. 1 ... : ... .. 1 ... : ... .. 1 ...
ROW 44 : ... .. 3 ... : ... .. . ... : C-2 00 . ... : F-# 02 7 ... : ... .. . ... : ... .. 1 ... : ... .. 1 ... : ... .. 1 ...
ROW 45 : ... .. . ... : ... .. . ... : --- .. . ... : ... .. . ... : ... .. . ... : ... .. 1 ... : ... .. 1 ... : ... .. 1 ...
ROW 46 : ... .. 4 ... : ... .. . ... : C-2 00 . ... : F-# 02 8 ... : ... .. . ... : ... .. 1 ... : ... .. 1 ... : ... .. 1 ...
ROW 47 : ... .. . ... : ... .. . ... : --- .. . ... : ... .. . ... : ... .. . ... : ... .. 1 ... : ... .. 1 ... : ... .. 1 ...
ROW 48 : ... .. 5 ... : ... .. . ... : C-2 00 . ... : F-# 02 A ... : ... .. . ... : ... .. 2 ... : ... .. 2 ... : ... .. 2 ...
ROW 49 : ... .. . ... : ... .. . ... : --- .. . ... : ... .. . ... : ... .. . ... : ... .. 1 ... : ... .. 1 ... : ... .. 1 ...
ROW 4A : ... .. 6 ... : ... .. . ... : C-2 00 . ... : F-# 02 5 ... : ... .. . ... : ... .. 1 ... : ... .. 1 ... : ... .. 1 ...
ROW 4B : ... .. . ... : ... .. . ... : --- .. . ... : ... .. . ... : ... .. . ... : ... .. 1 ... : ... .. 1 ... : ... .. 1 ...
ROW 4C : ... .. 7 ... : ... .. . ... : C-2 00 . ... : F-# 02 5 ... : ... .. . ... : ... .. 1 ... : ... .. 1 ... : ... .. 1 ...
ROW 4D : ... .. . ... : ... .. . ... : --- .. . ... : ... .. . ... : ... .. . ... : ... .. 1 ... : ... .. 1 ... : ... .. 1 ...
ROW 4E : ... .. 8 ... : ... .. . ... : C-2 00 . ... : F-# 02 6 ... : ... .. . ... : ... .. 1 ... : ... .. 1 ... : ... .. 1 ...
ROW 4F : ... .. . ... : ... .. . ... : --- .. . ... : ... .. . ... : ... .. . ... : --- .. 1 ... : --- .. 1 ... : --- .. 1 ...
ROW 50 : ... .. 9 ... : ... .. . ... : C-2 00 . ... : F-# 02 6 ... : ... .. . ... : C-3 0A 1 ... : D#3 0A 1 ... : G#3 01 1 ...
ROW 51 : ... .. . ... : ... .. . ... : --- .. . ... : ... .. . ... : ... .. . ... : ... .. 1 ... : ... .. 1 ... : ... .. 1 ...
ROW 52 : ... .. A ... : ... .. . ... : C-2 00 . ... : F-# 02 5 ... : ... .. . ... : ... .. 1 ... : ... .. 1 ... : ... .. 1 ...
ROW 53 : ... .. . ... : ... .. . ... : --- .. . ... : ... .. . ... : ... .. . ... : ... .. 2 ... : ... .. 2 ... : ... .. 2 ...
ROW 54 : ... .. B ... : ... .. . ... : C-2 00 . ... : F-# 02 5 ... : ... .. . ... : ... .. 2 ... : ... .. 2 ... : ... .. 2 ...
ROW 55 : ... .. . ... : ... .. . ... : --- .. . ... : ... .. . ... : ... .. . ... : ... .. 2 ... : ... .. 2 ... : ... .. 2 ...
ROW 56 : ... .. C ... : ... .. . ... : C-2 00 . ... : F-# 02 6 ... : ... .. . ... : ... .. 3 ... : ... .. 3 ... : ... .. 3 ...
ROW 57 : ... .. . ... : ... .. . ... : --- .. . ... : ... .. . ... : ... .. . ... : ... .. 3 ... : ... .. 3 ... : ... .. 3 ...
ROW 58 : ... .. D ... : ... .. . ... : C-2 00 . ... : F-# 02 A ... : ... .. . ... : ... .. 4 ... : ... .. 4 ... : ... .. 4 ...
ROW 59 : ... .. . ... : ... .. . ... : --- .. . ... : ... .. . ... : ... .. . ... : ... .. 3 ... : ... .. 3 ... : ... .. 3 ...
ROW 5A : ... .. E ... : ... .. . ... : C-2 00 . ... : F-# 02 4 ... : ... .. . ... : ... .. 3 ... : ... .. 3 ... : ... .. 3 ...
ROW 5B : ... .. . ... : ... .. . ... : --- .. . ... : ... .. . ... : ... .. . ... : ... .. 2 ... : ... .. 2 ... : ... .. 2 ...
ROW 5C : ... .. F ... : ... .. . ... : C-2 00 . ... : F-# 02 4 ... : ... .. . ... : ... .. 2 ... : ... .. 2 ... : ... .. 2 ...
ROW 5D : ... .. . ... : ... .. . ... : --- .. . ... : ... .. . ... : ... .. . ... : ... .. 2 ... : ... .. 2 ... : ... .. 2 ...
ROW 5E : ... .. E ... : ... .. . ... : C-2 00 . ... : F-# 02 5 ... : ... .. . ... : ... .. 1 ... : ... .. 1 ... : ... .. 1 ...
ROW 5F : ... .. . ... : ... .. . ... : --- .. . ... : ... .. . ... : ... .. . ... : --- .. 1 ... : --- .. 1 ... : --- .. 1 ...
ROW 60 : ... .. D ... : ... .. . ... : C-2 00 . ... : F-# 02 5 ... : ... .. . ... : C-3 0A 1 ... : D#3 0A 1 ... : A-3 01 1 ...
ROW 61 : ... .. . ... : ... .. . ... : --- .. . ... : ... .. . ... : ... .. . ... : ... .. 1 ... : ... .. 1 ... : ... .. 1 ...
ROW 62 : ... .. C ... : ... .. . ... : C-2 00 . ... : F-# 02 4 ... : ... .. . ... : ... .. 2 ... : ... .. 2 ... : ... .. 2 ...
ROW 63 : ... .. . ... : ... .. . ... : --- .. . ... : ... .. . ... : ... .. . ... : ... .. 2 ... : ... .. 2 ... : ... .. 2 ...
ROW 64 : ... .. B ... : ... .. . ... : C-2 00 . ... : F-# 02 4 ... : ... .. . ... : ... .. 3 ... : ... .. 3 ... : ... .. 3 ...
ROW 65 : ... .. . ... : ... .. . ... : --- .. . ... : ... .. . ... : ... .. . ... : ... .. 4 ... : ... .. 4 ... : ... .. 4 ...
ROW 66 : ... .. A ... : ... .. . ... : C-2 00 . ... : F-# 02 5 ... : ... .. . ... : ... .. 4 ... : ... .. 4 ... : ... .. 4 ...
ROW 67 : ... .. . ... : ... .. . ... : --- .. . ... : ... .. . ... : ... .. . ... : ... .. 5 ... : ... .. 5 ... : ... .. 5 ...
ROW 68 : ... .. 9 ... : ... .. . ... : C-2 00 . ... : F-# 02 6 ... : ... .. . ... : ... .. 6 ... : ... .. 6 ... : ... .. 6 ...
ROW 69 : ... .. . ... : ... .. . ... : --- .. . ... : ... .. . ... : ... .. . ... : ... .. 5 ... : ... .. 5 ... : ... .. 5 ...
ROW 6A : ... .. 8 ... : ... .. . ... : C-2 00 . ... : F-# 02 4 ... : ... .. . ... : ... .. 4 ... : ... .. 4 ... : ... .. 4 ...
ROW 6B : ... .. . ... : ... .. . ... : --- .. . ... : ... .. . ... : ... .. . ... : ... .. 4 ... : ... .. 4 ... : ... .. 4 ...
ROW 6C : ... .. 7 ... : ... .. . ... : C-2 00 . ... : F-# 02 4 ... : ... .. . ... : ... .. 3 ... : ... .. 3 ... : ... .. 3 ...
ROW 6D : ... .. . ... : ... .. . ... : --- .. . ... : ... .. . ... : ... .. . ... : ... .. 2 ... : ... .. 2 ... : ... .. 2 ...
ROW 6E : ... .. 6 ... : ... .. . ... : C-2 00 . ... : F-# 02 5 ... : ... .. . ... : ... .. 2 ... : ... .. 2 ... : ... .. 2 ...
ROW 6F : ... .. . ... : ... .. . ... : --- .. . ... : ... .. . ... : ... .. . ... : --- .. 1 ... : --- .. 1 ... : --- .. 1 ...
ROW 70 : ... .. 5 ... : ... .. . ... : C-2 00 . ... : F-# 02 5 ... : ... .. . ... : C-3 0A 1 ... : F-3 0A 1 ... : A-3 01 1 ...
ROW 71 : ... .. . ... : ... .. . ... : --- .. . ... : ... .. . ... : ... .. . ... : ... .. 1 ... : ... .. 1 ... : ... .. 1 ...
ROW 72 : ... .. 4 ... : ... .. . ... : C-2 00 . ... : F-# 02 3 ... : ... .. . ... : ... .. 2 ... : ... .. 2 ... : ... .. 2 ...
ROW 73 : ... .. . ... : ... .. . ... : --- .. . ... : ... .. . ... : ... .. . ... : ... .. 3 ... : ... .. 3 ... : ... .. 3 ...
ROW 74 : ... .. 3 ... : ... .. . ... : C-2 00 . ... : F-# 02 2 ... : ... .. . ... : ... .. 4 ... : ... .. 4 ... : ... .. 4 ...
ROW 75 : ... .. . ... : ... .. . ... : --- .. . ... : ... .. . ... : ... .. . ... : ... .. 5 ... : ... .. 5 ... : ... .. 5 ...
ROW 76 : ... .. 2 ... : ... .. . ... : C-2 00 . ... : F-# 02 3 ... : ... .. . ... : ... .. 6 ... : ... .. 6 ... : ... .. 6 ...
ROW 77 : ... .. . ... : ... .. . ... : --- .. . ... : ... .. . ... : ... .. . ... : ... .. 7 ... : ... .. 7 ... : ... .. 7 ...
ROW 78 : ... .. 1 ... : ... .. . ... : C-2 00 . ... : F-# 02 5 ... : ... .. . ... : ... .. 8 ... : ... .. 8 ... : ... .. 8 ...
ROW 79 : ... .. . ... : ... .. . ... : --- .. . ... : ... .. . ... : ... .. . ... : ... .. 7 ... : ... .. 7 ... : ... .. 7 ...
ROW 7A : ... .. . ... : ... .. . ... : C-2 00 . ... : F-# 02 2 ... : ... .. . ... : ... .. 6 ... : ... .. 6 ... : ... .. 6 ...
ROW 7B : ... .. . ... : ... .. . ... : --- .. . ... : ... .. . ... : ... .. . ... : ... .. 5 ... : ... .. 5 ... : ... .. 5 ...
ROW 7C : ... .. . ... : ... .. . ... : C-2 00 . ... : F-# 02 3 ... : ... .. . ... : ... .. 4 ... : ... .. 4 ... : ... .. 4 ...
ROW 7D : ... .. . ... : ... .. . ... : --- .. . ... : ... .. . ... : ... .. . ... : ... .. 3 ... : ... .. 3 ... : ... .. 3 ...
ROW 7E : ... .. . ... : ... .. . ... : C-2 00 . ... : F-# 02 1 ... : ... .. . ... : ... .. 2 ... : ... .. 2 ... : ... .. 2 ...
ROW 7F : ... .. . ... : ... .. . ... : --- .. . ... : ... .. . ... : ... .. . ... : --- .. 1 ... : --- .. 1 ... : --- .. 1 ...

TRACK 128   3 140 "Legion"
COLUMNS : 1 1 1 1 1 1 1 1

ORDER 00 : 00 00 00 00 00 00 00 00
ORDER 01 : 01 01 01 01 01 01 01 01
ORDER 02 : 02 02 02 02 02 02 02 02
ORDER 03 : 03 03 03 03 03 03 03 03
ORDER 04 : 04 04 04 04 04 04 04 04
ORDER 05 : 05 05 05 05 05 05 05 05
ORDER 06 : 06 06 06 06 06 06 06 06
ORDER 07 : 08 08 08 08 08 08 08 08
ORDER 08 : 07 07 07 07 07 07 07 07
ORDER 09 : 09 09 09 09 09 09 09 09
ORDER 0A : 0A 0A 0A 0A 0A 0A 0A 0A
ORDER 0B : 03 03 03 03 03 03 03 03
ORDER 0C : 04 04 04 04 04 04 04 04
ORDER 0D : 05 05 05 05 05 05 05 05
ORDER 0E : 0B 0B 0B 0B 0B 0B 0B 0B

PATTERN 00
ROW 00 : C-3 0D F ... : ... .. . ... : C-2 00 . ... : C-# 02 2 ... : ... .. . ... : C-1 01 8 ... : D#2 01 1 ... : C-2 01 1 ...
ROW 01 : ... .. . ... : ... .. . ... : --- .. . ... : ... .. . ... : ... .. . ... : --- .. . ... : ... .. . ... : ... .. . ...
ROW 02 : D#3 0D . ... : C-3 0D 4 ... : C-2 00 . ... : C-# 02 4 ... : ... .. . ... : C-1 01 . ... : ... .. 2 ... : ... .. 2 ...
ROW 03 : ... .. . ... : ... .. . ... : --- .. . ... : ... .. . ... : ... .. . ... : --- .. . ... : ... .. . ... : ... .. . ...
ROW 04 : G-3 0D . ... : D#3 0D . ... : C-2 00 . ... : C-# 02 6 ... : ... .. . ... : C-1 01 . ... : ... .. 3 ... : ... .. 3 ...
ROW 05 : ... .. . ... : ... .. . ... : --- .. . ... : ... .. . ... : ... .. . ... : --- .. . ... : ... .. . ... : ... .. . ...
ROW 06 : B-3 0D . ... : G-3 0D . ... : C-2 00 . ... : B-# 02 8 ... : ... .. . ... : C-1 01 . ... : ... .. 4 ... : ... .. 4 ...
ROW 07 : ... .. . ... : ... .. . ... : --- .. . ... : ... .. . ... : ... .. . ... : --- .. . ... : ... .. . ... : ... .. . ...
ROW 08 : C-4 0D . ... : B-3 0D . ... : C-2 00 . ... : 3-# 03 F ... : ... .. . ... : C-1 01 . ... : ... .. 5 ... : ... .. 5 ...
ROW 09 : ... .. . ... : ... .. . ... : --- .. . ... : ... .. . ... : ... .. . ... : --- .. . ... : ... .. . ... : ... .. . ...
ROW 0A : D#4 0D . ... : C-4 0D . ... : C-2 00 . ... : ... .. . ... : ... .. . ... : C-1 01 . ... : ... .. . ... : ... .. . ...
ROW 0B : ... .. . ... : ... .. . ... : --- .. . ... : ... .. . ... : ... .. . ... : --- .. . ... : ... .. . ... : ... .. . ...
ROW 0C : G-4 0D . ... : D#4 0D . ... : C-2 00 . ... : 9-# 03 C ... : ... .. . ... : C-1 01 . ... : ... .. . ... : ... .. . ...
ROW 0D : ... .. . ... : ... .. . ... : --- .. . ... : ... .. . ... : ... .. . ... : --- .. . ... : ... .. . ... : ... .. . ...
ROW 0E : B-4 0D . ... : G-4 0D . ... : C-2 00 . ... : ... .. . ... : ... .. . ... : C-1 01 . ... : ... .. . ... : ... .. . ...
ROW 0F : ... .. . ... : ... .. . ... : --- .. . ... : ... .. . ... : ... .. . ... : --- .. . ... : ... .. . ... : ... .. . ...
ROW 10 : C-5 0D . ... : B-4 0D . ... : C-2 00 . ... : B-# 03 8 ... : ... .. . ... : C-1 01 . ... : ... .. . ... : ... .. . ...
ROW 11 : ... .. . ... : ... .. . ... : --- .. . ... : --- .. . ... : ... .. . ... : --- .. . ... : ... .. . ... : ... .. . ...
ROW 12 : B-4 0D . ... : C-5 0D . ... : C-2 00 . ... : ... .. . ... : ... .. . ... : C-1 01 . ... : ... .. . ... : ... .. . ...
ROW 13 : ... .. . ... : ... .. . ... : --- .. . ... : ... .. . ... : ... .. . ... : --- .. . ... : ... .. . ... : ... .. . ...
ROW 14 : G-4 0D . ... : B-4 0D . ... : C-2 00 . ... : 9-# 03 C ... : ... .. . ... : C-1 01 . ... : ... .. . ... : ... .. . ...
ROW 15 : ... .. . ... : ... .. . ... : --- .. . ... : ... .. . ... : ... .. . ... : --- .. . ... : ... .. . ... : ... .. . ...
ROW 16 : D#4 0D . ... : G-4 0D . ... : C-2 00 . ... : ... .. . ... : ... .. . ... : C-1 01 . ... : ... .. . ... : ... .. . ...
ROW 17 : ... .. . ... : ... .. . ... : --- .. . ... : ... .. . ... : ... .. . ... : --- .. . ... : ... .. . ... : ... .. . ...
ROW 18 : C-4 0D . ... : D#4 0D . ... : C-2 00 . ... : 3-# 03 F ... : ... .. . ... : C-1 01 . ... : ... .. . ... : ... .. . ...
ROW 19 : ... .. . ... : ... .. . ... : --- .. . ... : ... .. . ... : ... .. . ... : --- .. . ... : ... .. . ... : ... .. . ...
ROW 1A : B-3 0D . ... : C-4 0D . ... : C-2 00 . ... : C-# 02 8 ... : ... .. . ... : C-1 01 . ... : ... .. . ... : ... .. . ...
ROW 1B : ... .. . ... : ... .. . ... : --- .. . ... : ... .. . ... : ... .. . ... : --- .. . ... : ... .. . ... : ... .. . ...
ROW 1C : G-3 0D . ... : B-3 0D . ... : C-2 00 . ... : C-# 02 6 ... : ... .. . ... : C-1 01 . ... : ... .. . ... : ... .. . ...
ROW 1D : ... .. . ... : ... .. . ... : --- .. . ... : ... .. . ... : ... .. . ... : --- .. . ... : ... .. . ... : ... .. . ...
ROW 1E : D#3 0D . ... : G-3 0D . ... : C-2 00 . ... : C-# 02 4 ... : ... .. . ... : C-1 01 . ... : ... .. . ... : ... .. . ...
ROW 1F : ... .. . ... : ... .. . ... : --- .. . ... : ... .. . ... : ... .. . ... : --- .. . ... : ... .. . ... : ... .. . ...
ROW 20 : C-3 0D . ... : D#3 0D . ... : C-2 00 . ... : C-# 02 2 ... : ... .. . ... : C-1 01 . ... : ... .. . ... : ... .. . ...
ROW 21 : ... .. . ... : ... .. . ... : --- .. . ... : ... .. . ... : ... .. . ... : --- .. . ... : ... .. . ... : ... .. . ...
ROW 22 : D#3 0D . ... : C-3 0D . ... : C-2 00 . ... : C-# 02 4 ... : ... .. . ... : C-1 01 . ... : ... .. . ... : ... .. . ...
ROW 23 : ... .. . ... : ... .. . ... : --- .. . ... : ... .. . ... : ... .. . ... : --- .. . ... : ... .. . ... : ... .. . ...
ROW 24 : G-3 0D . ... : D#3 0D . ... : C-2 00 . ... : C-# 02 6 ... : ... .. . ... : C-1 01 . ... : ... .. . ... : ... .. . ...
ROW 25 : ... .. . ... : ... .. . ... : --- .. . ... : ... .. . ... : ... .. . ... : --- .. . ... : ... .. . ... : ... .. . ...
ROW 26 : B-3 0D . ... : G-3 0D . ... : C-2 00 . ... : B-# 02 8 ... : ... .. . ... : C-1 01 . ... : ... .. . ... : ... .. . ...
ROW 27 : ... .. . ... : ... .. . ... : --- .. . ... : ... .. . ... : ... .. . ... : --- .. . ... : ... .. . ... : ... .. . ...
ROW 28 : C-4 0D . ... : B-3 0D . ... : C-2 00 . ... : 3-# 03 F ... : ... .. . ... : C-1 01 . ... : ... .. . ... : ... .. . ...
ROW 29 : ... .. . ... : ... .. . ... : --- .. . ... : ... .. . ... : ... .. . ... : --- .. . ... : ... .. . ... : ... .. . ...
ROW 2A : D#4 0D . ... : C-4 0D . ... : C-2 00 . ... : ... .. . ... : ... .. . ... : C-1 01 . ... : ... .. . ... : ... .. . ...
ROW 2B : ... .. . ... : ... .. . ... : --- .. . ... : ... .. . ... : ... .. . ... : --- .. . ... : ... .. . ... : ... .. . ...
ROW 2C : G-4 0D . ... : D#4 0D . ... : C-2 00 . ... : 9-# 03 C ... : ... .. . ... : C-1 01 . ... : ... .. . ... : ... .. . ...
ROW 2D : ... .. . ... : ... .. . ... : --- .. . ... : ... .. . ... : ... .. . ... : --- .. . ... : ... .. . ... : ... .. . ...
ROW 2E : B-4 0D . ... : G-4 0D . ... : C-2 00 . ... : ... .. . ... : ... .. . ... : C-1 01 . ... : ... .. . ... : ... .. . ...
ROW 2F : ... .. . ... : ... .. . ... : --- .. . ... : ... .. . ... : ... .. . ... : --- .. . ... : ... .. . ... : ... .. . ...
ROW 30 : C-5 0D . ... : B-4 0D . ... : C-2 00 . ... : B-# 03 8 ... : ... .. . ... : C-1 01 . ... : ... .. . ... : ... .. . ...
ROW 31 : ... .. . ... : ... .. . ... : --- .. . ... : --- .. . ... : ... .. . ... : --- .. . ... : ... .. . ... : ... .. . ...
ROW 32 : B-4 0D . ... : C-5 0D . ... : C-2 00 . ... : ... .. . ... : ... .. . ... : C-1 01 . ... : ... .. . ... : ... .. . ...
ROW 33 : ... .. . ... : ... .. . ... : --- .. . ... : ... .. . ... : ... .. . ... : --- .. . ... : ... .. . ... : ... .. . ...
ROW 34 : G-4 0D . ... : B-4 0D . ... : C-2 00 . ... : 9-# 03 C ... : ... .. . ... : C-1 01 . ... : ... .. . ... : ... .. . ...
ROW 35 : ... .. . ... : ... .. . ... : --- .. . ... : ... .. . ... : ... .. . ... : --- .. . ... : ... .. . ... : ... .. . ...
ROW 36 : D#4 0D . ... : G-4 0D . ... : C-2 00 . ... : ... .. . ... : ... .. . ... : C-1 01 . ... : ... .. . ... : ... .. . ...
ROW 37 : ... .. . ... : ... .. . ... : --- .. . ... : ... .. . ... : ... .. . ... : --- .. . ... : ... .. . ... : ... .. . ...
ROW 38 : C-4 0D . ... : D#4 0D . ... : C-2 00 . ... : 3-# 03 F ... : ... .. . ... : C-1 01 . ... : ... .. . ... : ... .. . ...
ROW 39 : ... .. . ... : ... .. . ... : --- .. . ... : ... .. . ... : ... .. . ... : --- .. . ... : ... .. . ... : ... .. . ...
ROW 3A : B-3 0D . ... : C-4 0D . ... : C-2 00 . ... : C-# 02 8 ... : ... .. . ... : C-1 01 . ... : ... .. . ... : ... .. . ...
ROW 3B : ... .. . ... : ... .. . ... : --- .. . ... : ... .. . ... : ... .. . ... : --- .. . ... : ... .. . ... : ... .. . ...
ROW 3C : G-3 0D . ... : B-3 0D . ... : C-2 00 . ... : C-# 02 6 ... : ... .. . ... : C-1 01 . ... : ... .. . ... : ... .. . ...
ROW 3D : ... .. . ... : ... .. . ... : --- .. . ... : ... .. . ... : ... .. . ... : --- .. . ... : ... .. . ... : ... .. . ...
ROW 3E : D#3 0D . ... : G-3 0D . ... : C-2 00 . ... : C-# 02 4 ... : ... .. . ... : C-1 01 . ... : ... .. . ... : ... .. . ...
ROW 3F : ... .. . ... : ... .. . ... : --- .. . ... : ... .. . ... : ... .. . ... : --- .. . ... : ... .. . ... : ... .. . ...
ROW 40 : B-2 0D . ... : D#3 0D . ... : B-1 00 . ... : C-# 02 2 ... : ... .. . ... : B-0 01 . ... : D-2 01 2 ... : B-1 01 2 ...
ROW 41 : ... .. . ... : ... .. . ... : --- .. . ... : ... .. . ... : ... .. . ... : --- .. . ... : ... .. . ... : ... .. . ...
ROW 42 : D-3 0D . ... : B-2 0D . ... : B-1 00 . ... : C-# 02 4 ... : ... .. . ... : B-0 01 . ... : ... .. 3 ... : ... .. 3 ...
ROW 43 : ... .. . ... : ... .. . ... : --- .. . ... : ... .. . ... : ... .. . ... : --- .. . ... : ... .. . ... : ... .. . ...
ROW 44 : D#3 0D . ... : D-3 0D . ... : B-1 00 . ... : C-# 02 6 ... : ... .. . ... : B-0 01 . ... : ... .. 4 ... : ... .. 4 ...
ROW 45 : ... .. . ... : ... .. . ... : --- .. . ... : ... .. . ... : ... .. . ... : --- .. . ... : ... .. . ... : ... .. . ...
ROW 46 : G-3 0D . ... : D#3 0D . ... : B-1 00 . ... : B-# 02 8 ... : ... .. . ... : B-0 01 . ... : ... .. 5 ... : ... .. 5 ...
ROW 47 : ... .. . ... : ... .. . ... : --- .. . ... : ... .. . ... : ... .. . ... : --- .. . ... : ... .. . ... : ... .. . ...
ROW 48 : G#3 0D . ... : G-3 0D . ... : B-1 00 . ... : 3-# 03 F ... : ... .. . ... : B-0 01 . ... : ... .. . ... : ... .. . ...
ROW 49 : ... .. . ... : ... .. . ... : --- .. . ... : ... .. . ... : ... .. . ... : --- .. . ... : ... .. . ... : ... .. . ...
ROW 4A : C-4 0D . ... : G#3 0D . ... : B-1 00 . ... : ... .. . ... : ... .. . ... : B-0 01 . ... : ... .. . ... : ... .. . ...
ROW 4B : ... .. . ... : ... .. . ... : --- .. . ... : ... .. . ... : ... .. . ... : --- .. . ... : ... .. . ... : ... .. . ...
ROW 4C : D-4 0D . ... : C-4 0D . ... : B-1 00 . ... : 9-# 03 C ... : ... .. . ... : B-0 01 . ... : ... .. . ... : ... .. . ...
ROW 4D : ... .. . ... : ... .. . ... : --- 00 . ... : ... .. . ... : ... .. . ... : --- 01 . ... : ... .. . ... : ... .. . ...
ROW 4E : D#4 0D . ... : D-4 0D . ... : B-1 00 . ... : ... .. . ... : ... .. . ... : B-0 01 . ... : ... .. . ... : ... .. . ...
ROW 4F : ... .. . ... : ... .. . ... : --- 00 . ... : ... .. . ... : ... .. . ... : --- 01 . ... : ... .. . ... : ... .. . ...
ROW 50 : G-4 0D . ... : D#4 0D . ... : B-1 00 . ... : B-# 03 8 ... : ... .. . ... : B-0 01 . ... : ... .. . ... : ... .. . ...
ROW 51 : ... .. . ... : ... .. . ... : --- 00 . ... : --- .. . ... : ... .. . ... : --- 01 . ... : ... .. . ... : ... .. . ...
ROW 52 : D#4 0D . ... : G-4 0D . ... : B-1 00 . ... : ... .. . ... : ... .. . ... : B-0 01 . ... : ... .. . ... : ... .. . ...
ROW 53 : ... .. . ... : ... .. . ... : --- .. . ... : ... .. . ... : ... .. . ... : --- .. . ... : ... .. . ... : ... .. . ...
ROW 54 : D-4 0D . ... : D#4 0D . ... : B-1 00 . ... : 9-# 03 C ... : ... .. . ... : B-0 01 . ... : ... .. . ... : ... .. . ...
ROW 55 : ... .. . ... : ... .. . ... : --- .. . ... : ... .. . ... : ... .. . ... : --- .. . ... : ... .. . ... : ... .. . ...
ROW 56 : C-4 0D . ... : D-4 0D . ... : B-1 00 . ... : ... .. . ... : ... .. . ... : B-0 01 . ... : ... .. . ... : ... .. . ...
ROW 57 : ... .. . ... : ... .. . ... : --- .. . ... : ... .. . ... : ... .. . ... : --- .. . ... : ... .. . ... : ... .. . ...
ROW 58 : G#3 0D . ... : C-4 0D . ... : B-1 00 . ... : 3-# 03 F ... : ... .. . ... : B-0 01 . ... : ... .. . ... : ... .. . ...
ROW 59 : ... .. . ... : ... .. . ... : --- .. . ... : ... .. . ... : ... .. . ... : --- .. . ... : ... .. . ... : ... .. . ...
ROW 5A : G-3 0D . ... : G#3 0D . ... : B-1 00 . ... : C-# 02 8 ... : ... .. . ... : B-0 01 . ... : ... .. . ... : ... .. . ...
ROW 5B : ... .. . ... : ... .. . ... : --- .. . ... : ... .. . ... : ... .. . ... : --- .. . ... : ... .. . ... : ... .. . ...
ROW 5C : D#3 0D . ... : G-3 0D . ... : B-1 00 . ... : C-# 02 6 ... : ... .. . ... : B-0 01 . ... : ... .. . ... : ... .. . ...
ROW 5D : ... .. . ... : ... .. . ... : --- .. . ... : ... .. . ... : ... .. . ... : --- .. . ... : ... .. . ... : ... .. . ...
ROW 5E : D-3 0D . ... : D#3 0D . ... : B-1 00 . ... : C-# 02 4 ... : ... .. . ... : B-0 01 . ... : ... .. . ... : ... .. . ...
ROW 5F : ... .. . ... : ... .. . ... : --- .. . ... : ... .. . ... : ... .. . ... : --- .. . ... : ... .. . ... : ... .. . ...
ROW 60 : B-2 0D . ... : D-3 0D . ... : B-1 00 . ... : C-# 02 2 ... : ... .. . ... : B-0 01 . ... : ... .. . ... : ... .. . ...
ROW 61 : ... .. . ... : ... .. . ... : --- .. . ... : ... .. . ... : ... .. . ... : --- .. . ... : ... .. . ... : ... .. . ...
ROW 62 : D-3 0D . ... : B-2 0D . ... : B-1 00 . ... : C-# 02 4 ... : ... .. . ... : B-0 01 . ... : ... .. . ... : ... .. . ...
ROW 63 : ... .. . ... : ... .. . ... : --- .. . ... : ... .. . ... : ... .. . ... : --- .. . ... : ... .. . ... : ... .. . ...
ROW 64 : D#3 0D . ... : D-3 0D . ... : B-1 00 . ... : C-# 02 6 ... : ... .. . ... : B-0 01 . ... : ... .. . ... : ... .. . ...
ROW 65 : ... .. . ... : ... .. . ... : --- .. . ... : ... .. . ... : ... .. . ... : --- .. . ... : ... .. . ... : ... .. . ...
ROW 66 : G-3 0D . ... : D#3 0D . ... : B-1 00 . ... : B-# 02 8 ... : ... .. . ... : B-0 01 . ... : ... .. . ... : ... .. . ...
ROW 67 : ... .. . ... : ... .. . ... : --- .. . ... : ... .. . ... : ... .. . ... : --- .. . ... : ... .. . ... : ... .. . ...
ROW 68 : G#3 0D . ... : G-3 0D . ... : B-1 00 . ... : 3-# 03 F ... : ... .. . ... : B-0 01 . ... : ... .. . ... : ... .. . ...
ROW 69 : ... .. . ... : ... .. . ... : --- .. . ... : ... .. . ... : ... .. . ... : --- .. . ... : ... .. . ... : ... .. . ...
ROW 6A : C-4 0D . ... : G#3 0D . ... : B-1 00 . ... : ... .. . ... : ... .. . ... : B-0 01 . ... : ... .. . ... : ... .. . ...
ROW 6B : ... .. . ... : ... .. . ... : --- .. . ... : ... .. . ... : ... .. . ... : --- .. . ... : ... .. . ... : ... .. . ...
ROW 6C : D-4 0D . ... : C-4 0D . ... : B-1 00 . ... : 9-# 03 C ... : ... .. . ... : B-0 01 . ... : ... .. . ... : ... .. . ...
ROW 6D : ... .. . ... : ... .. . ... : --- .. . ... : ... .. . ... : ... .. . ... : --- .. . ... : ... .. . ... : ... .. . ...
ROW 6E : D#4 0D . ... : D-4 0D . ... : B-1 00 . ... : ... .. . ... : ... .. . ... : B-0 01 . ... : ... .. . ... : ... .. . ...
ROW 6F : ... .. . ... : ... .. . ... : --- .. . ... : ... .. . ... : ... .. . ... : --- .. . ... : ... .. . ... : ... .. . ...
ROW 70 : G-4 0D . ... : D#4 0D . ... : B-1 00 . ... : B-# 03 8 ... : ... .. . ... : B-0 01 . ... : ... .. . ... : ... .. . ...
ROW 71 : ... .. . ... : ... .. . ... : --- .. . ... : --- .. . ... : ... .. . ... : --- .. . ... : ... .. . ... : ... .. . ...
ROW 72 : D#4 0D . ... : G-4 0D . ... : B-1 00 . ... : ... .. . ... : ... .. . ... : B-0 01 . ... : ... .. . ... : ... .. . ...
ROW 73 : ... .. . ... : ... .. . ... : --- .. . ... : ... .. . ... : ... .. . ... : --- .. . ... : ... .. . ... : ... .. . ...
ROW 74 : D-4 0D . ... : D#4 0D . ... : B-1 00 . ... : 9-# 03 C ... : ... .. . ... : B-0 01 . ... : ... .. . ... : ... .. . ...
ROW 75 : ... .. . ... : ... .. . ... : --- .. . ... : ... .. . ... : ... .. . ... : --- .. . ... : ... .. . ... : ... .. . ...
ROW 76 : C-4 0D . ... : D-4 0D . ... : B-1 00 . ... : ... .. . ... : ... .. . ... : B-0 01 . ... : ... .. . ... : ... .. . ...
ROW 77 : ... .. . ... : ... .. . ... : --- .. . ... : ... .. . ... : ... .. . ... : --- .. . ... : ... .. . ... : ... .. . ...
ROW 78 : G#3 0D . ... : C-4 0D . ... : B-1 00 . ... : 3-# 03 F ... : ... .. . ... : B-0 01 . ... : ... .. . ... : ... .. . ...
ROW 79 : ... .. . ... : ... .. . ... : --- .. . ... : ... .. . ... : ... .. . ... : --- .. . ... : ... .. . ... : ... .. . ...
ROW 7A : G-3 0D . ... : G#3 0D . ... : B-1 00 . ... : C-# 02 8 ... : ... .. . ... : B-0 01 . ... : ... .. . ... : ... .. . ...
ROW 7B : ... .. . ... : ... .. . ... : --- .. . ... : ... .. . ... : ... .. . ... : --- .. . ... : ... .. . ... : ... .. . ...
ROW 7C : D#3 0D . ... : G-3 0D . ... : B-1 00 . ... : C-# 02 6 ... : ... .. . ... : B-0 01 . ... : ... .. . ... : ... .. . ...
ROW 7D : ... .. . ... : ... .. . ... : --- .. . ... : ... .. . ... : ... .. . ... : --- .. . ... : ... .. . ... : ... .. . ...
ROW 7E : D-3 0D . ... : D#3 0D . ... : B-1 00 . ... : C-# 02 4 ... : ... .. . ... : B-0 01 . ... : ... .. . ... : ... .. . ...
ROW 7F : ... .. . ... : ... .. . ... : --- .. . ... : ... .. . ... : ... .. . ... : --- .. . ... : ... .. . ... : ... .. . ...

PATTERN 01
ROW 00 : G#2 0D F ... : ... .. . ... : G#2 00 . ... : C-# 02 2 ... : ... .. . ... : G#1 01 7 ... : C-2 01 2 ... : G#1 01 2 ...
ROW 01 : ... .. . ... : ... .. . ... : --- .. . ... : ... .. . ... : ... .. . ... : --- .. . ... : ... .. . ... : ... .. . ...
ROW 02 : C-3 0D . ... : G#2 0D 4 ... : G#2 00 . ... : C-# 02 4 ... : ... .. . ... : G#1 01 . ... : ... .. 3 ... : ... .. 3 ...
ROW 03 : ... .. . ... : ... .. . ... : --- .. . ... : ... .. . ... : ... .. . ... : --- .. . ... : ... .. . ... : ... .. . ...
ROW 04 : D-3 0D . ... : C-3 0D . ... : G#2 00 . ... : C-# 02 6 ... : ... .. . ... : G#1 01 . ... : ... .. 4 ... : ... .. 4 ...
ROW 05 : ... .. . ... : ... .. . ... : --- .. . ... : ... .. . ... : ... .. . ... : --- .. . ... : ... .. . ... : ... .. . ...
ROW 06 : D#3 0D . ... : D-3 0D . ... : G#2 00 . ... : B-# 02 8 ... : ... .. . ... : G#1 01 . ... : ... .. 5 ... : ... .. 5 ...
ROW 07 : ... .. . ... : ... .. . ... : --- .. . ... : ... .. . ... : ... .. . ... : --- .. . ... : ... .. . ... : ... .. . ...
ROW 08 : G-3 0D . ... : D#3 0D . ... : G#2 00 . ... : 3-# 03 F ... : ... .. . ... : G#1 01 . ... : ... .. . ... : ... .. . ...
ROW 09 : ... .. . ... : ... .. . ... : --- .. . ... : ... .. . ... : ... .. . ... : --- .. . ... : ... .. . ... : ... .. . ...
ROW 0A : G#3 0D . ... : G-3 0D . ... : G#2 00 . ... : ... .. . ... : ... .. . ... : G#1 01 . ... : ... .. . ... : ... .. . ...
ROW 0B : ... .. . ... : ... .. . ... : --- .. . ... : ... .. . ... : ... .. . ... : --- .. . ... : ... .. . ... : ... .. . ...
ROW 0C : C-4 0D . ... : G#3 0D . ... : G#2 00 . ... : 9-# 03 C ... : ... .. . ... : G#1 01 . ... : ... .. . ... : ... .. . ...
ROW 0D : ... .. . ... : ... .. . ... : --- .. . ... : ... .. . ... : ... .. . ... : --- .. . ... : ... .. . ... : ... .. . ...
ROW 0E : D-4 0D . ... : C-4 0D . ... : G#2 00 . ... : ... .. . ... : ... .. . ... : G#1 01 . ... : ... .. . ... : ... .. . ...
ROW 0F : ... .. . ... : ... .. . ... : --- .. . ... : ... .. . ... : ... .. . ... : --- .. . ... : ... .. . ... : ... .. . ...
ROW 10 : D#4 0D . ... : D-4 0D . ... : G#2 00 . ... : B-# 03 8 ... : ... .. . ... : G#1 01 . ... : ... .. . ... : ... .. . ...
ROW 11 : ... .. . ... : ... .. . ... : --- .. . ... : --- .. . ... : ... .. . ... : --- .. . ... : ... .. . ... : ... .. . ...
ROW 12 : D-4 0D . ... : D#4 0D . ... : G#2 00 . ... : ... .. . ... : ... .. . ... : G#1 01 . ... : ... .. . ... : ... .. . ...
ROW 13 : ... .. . ... : ... .. . ... : --- .. . ... : ... .. . ... : ... .. . ... : --- .. . ... : ... .. . ... : ... .. . ...
ROW 14 : C-4 0D . ... : D-4 0D . ... : G#2 00 . ... : 9-# 03 C ... : ... .. . ... : G#1 01 . ... : ... .. . ... : ... .. . ...
ROW 15 : ... .. . ... : ... .. . ... : --- .. . ... : ... .. . ... : ... .. . ... : --- .. . ... : ... .. . ... : ... .. . ...
ROW 16 : G#3 0D . ... : C-4 0D . ... : G#2 00 . ... : ... .. . ... : ... .. . ... : G#1 01 . ... : ... .. . ... : ... .. . ...
ROW 17 : ... .. . ... : ... .. . ... : --- .. . ... : ... .. . ... : ... .. . ... : --- .. . ... : ... .. . ... : ... .. . ...
ROW 18 : G-3 0D . ... : G#3 0D . ... : G#2 00 . ... : 3-# 03 F ... : ... .. . ... : G#1 01 . ... : ... .. . ... : ... .. . ...
ROW 19 : ... .. . ... : ... .. . ... : --- .. . ... : ... .. . ... : ... .. . ... : --- .. . ... : ... .. . ... : ... .. . ...
ROW 1A : D#3 0D . ... : G-3 0D . ... : G#2 00 . ... : C-# 02 8 ... : ... .. . ... : G#1 01 . ... : ... .. . ... : ... .. . ...
ROW 1B : ... .. . ... : ... .. . ... : --- .. . ... : ... .. . ... : ... .. . ... : --- .. . ... : ... .. . ... : ... .. . ...
ROW 1C : D-3 0D . ... : D#3 0D . ... : G#2 00 . ... : C-# 02 6 ... : ... .. . ... : G#1 01 . ... : ... .. . ... : ... .. . ...
ROW 1D : ... .. . ... : ... .. . ... : --- .. . ... : ... .. . ... : ... .. . ... : --- .. . ... : ... .. . ... : ... .. . ...
ROW 1E : C-3 0D . ... : D-3 0D . ... : G#2 00 . ... : C-# 02 4 ... : ... .. . ... : G#1 01 . ... : ... .. . ... : ... .. . ...
ROW 1F : ... .. . ... : ... .. . ... : --- .. . ... : ... .. . ... : ... .. . ... : --- .. . ... : ... .. . ... : ... .. . ...
ROW 20 : G#2 0D . ... : C-3 0D . ... : G#2 00 . ... : C-# 02 2 ... : ... .. . ... : G#1 01 . ... : ... .. . ... : ... .. . ...
ROW 21 : ... .. . ... : ... .. . ... : --- .. . ... : ... .. . ... : ... .. . ... : --- .. . ... : ... .. . ... : ... .. . ...
ROW 22 : C-3 0D . ... : G#2 0D . ... : G#2 00 . ... : C-# 02 4 ... : ... .. . ... : G#1 01 . ... : ... .. . ... : ... .. . ...
ROW 23 : ... .. . ... : ... .. . ... : --- .. . ... : ... .. . ... : ... .. . ... : --- .. . ... : ... .. . ... : ... .. . ...
ROW 24 : D-3 0D . ... : C-3 0D . ... : G#2 00 . ... : C-# 02 6 ... : ... .. . ... : G#1 01 . ... : ... .. . ... : ... .. . ...
ROW 25 : ... .. . ... : ... .. . ... : --- .. . ... : ... .. . ... : ... .. . ... : --- .. . ... : ... .. . ... : ... .. . ...
ROW 26 : D#3 0D . ... : D-3 0D . ... : G#2 00 . ... : B-# 02 8 ... : ... .. . ... : G#1 01 . ... : ... .. . ... : ... .. . ...
ROW 27 : ... .. . ... : ... .. . ... : --- .. . ... : ... .. . ... : ... .. . ... : --- .. . ... : ... .. . ... : ... .. . ...
ROW 28 : G-3 0D . ... : D#3 0D . ... : G#2 00 . ... : 3-# 03 F ... : ... .. . ... : G#1 01 . ... : ... .. . ... : ... .. . ...
ROW 29 : ... .. . ... : ... .. . ... : --- .. . ... : ... .. . ... : ... .. . ... : --- .. . ... : ... .. . ... : ... .. . ...
ROW 2A : G#3 0D . ... : G-3 0D . ... : G#2 00 . ... : ... .. . ... : ... .. . ... : G#1 01 . ... : ... .. . ... : ... .. . ...
ROW 2B : ... .. . ... : ... .. . ... : --- .. . ... : ... .. . ... : ... .. . ... : --- .. . ... : ... .. . ... : ... .. . ...
ROW 2C : C-4 0D . ... : G#3 0D . ... : G#2 00 . ... : 9-# 03 C ... : ... .. . ... : G#1 01 . ... : ... .. . ... : ... .. . ...
ROW 2D : ... .. . ... : ... .. . ... : --- .. . ... : ... .. . ... : ... .. . ... : --- .. . ... : ... .. . ... : ... .. . ...
ROW 2E : D-4 0D . ... : C-4 0D . ... : G#2 00 . ... : ... .. . ... : ... .. . ... : G#1 01 . ... : ... .. . ... : ... .. . ...
ROW 2F : ... .. . ... : ... .. . ... : --- .. . ... : ... .. . ... : ... .. . ... : --- .. . ... : ... .. . ... : ... .. . ...
ROW 30 : D#4 0D . ... : D-4 0D . ... : G#2 00 . ... : B-# 03 8 ... : ... .. . ... : G#1 01 . ... : ... .. . ... : ... .. . ...
ROW 31 : ... .. . ... : ... .. . ... : --- .. . ... : --- .. . ... : ... .. . ... : --- .. . ... : ... .. . ... : ... .. . ...
ROW 32 : D-4 0D . ... : D#4 0D . ... : G#2 00 . ... : ... .. . ... : ... .. . ... : G#1 01 . ... : ... .. . ... : ... .. . ...
ROW 33 : ... .. . ... : ... .. . ... : --- .. . ... : ... .. . ... : ... .. . ... : --- .. . ... : ... .. . ... : ... .. . ...
ROW 34 : C-4 0D . ... : D-4 0D . ... : G#2 00 . ... : 9-# 03 C ... : ... .. . ... : G#1 01 . ... : ... .. . ... : ... .. . ...
ROW 35 : ... .. . ... : ... .. . ... : --- .. . ... : ... .. . ... : ... .. . ... : --- .. . ... : ... .. . ... : ... .. . ...
ROW 36 : G#3 0D . ... : C-4 0D . ... : G#2 00 . ... : ... .. . ... : ... .. . ... : G#1 01 . ... : ... .. . ... : ... .. . ...
ROW 37 : ... .. . ... : ... .. . ... : --- .. . ... : ... .. . ... : ... .. . ... : --- .. . ... : ... .. . ... : ... .. . ...
ROW 38 : G-3 0D . ... : G#3 0D . ... : G#2 00 . ... : 3-# 03 F ... : ... .. . ... : G#1 01 . ... : ... .. . ... : ... .. . ...
ROW 39 : ... .. . ... : ... .. . ... : --- .. . ... : ... .. . ... : ... .. . ... : --- .. . ... : ... .. . ... : ... .. . ...
ROW 3A : D#3 0D . ... : G-3 0D . ... : G#2 00 . ... : C-# 02 8 ... : ... .. . ... : G#1 01 . ... : ... .. . ... : ... .. . ...
ROW 3B : ... .. . ... : ... .. . ... : --- .. . ... : ... .. . ... : ... .. . ... : --- .. . ... : ... .. . ... : ... .. . ...
ROW 3C : D-3 0D . ... : D#3 0D . ... : G#2 00 . ... : C-# 02 6 ... : ... .. . ... : G#1 01 . ... : ... .. . ... : ... .. . ...
ROW 3D : ... .. . ... : ... .. . ... : --- .. . ... : ... .. . ... : ... .. . ... : --- .. . ... : ... .. . ... : ... .. . ...
ROW 3E : C-3 0D . ... : D-3 0D . ... : G#2 00 . ... : C-# 02 4 ... : ... .. . ... : G#1 01 . ... : ... .. . ... : ... .. . ...
ROW 3F : ... .. . ... : ... .. . ... : --- .. . ... : ... .. . ... : ... .. . ... : --- .. . ... : ... .. . ... : ... .. . ...
ROW 40 : G-2 0D . ... : C-3 0D . ... : G-2 00 . ... : C-# 02 2 ... : ... .. . ... : G-1 01 . ... : B-1 01 2 ... : G-1 01 2 ...
ROW 41 : ... .. . ... : ... .. . ... : --- .. . ... : ... .. . ... : ... .. . ... : --- .. . ... : ... .. . ... : ... .. . ...
ROW 42 : B-2 0D . ... : G-2 0D . ... : G-2 00 . ... : C-# 02 4 ... : ... .. . ... : G-1 01 . ... : ... .. 3 ... : ... .. 3 ...
ROW 43 : ... .. . ... : ... .. . ... : --- .. . ... : ... .. . ... : ... .. . ... : --- .. . ... : ... .. . ... : ... .. . ...
ROW 44 : D-3 0D . ... : B-2 0D . ... : G-2 00 . ... : C-# 02 6 ... : ... .. . ... : G-1 01 . ... : ... .. 4 ... : ... .. 4 ...
ROW 45 : ... .. . ... : ... .. . ... : --- .. . ... : ... .. . ... : ... .. . ... : --- .. . ... : ... .. . ... : ... .. . ...
ROW 46 : D#3 0D . ... : D-3 0D . ... : G-2 00 . ... : B-# 02 8 ... : ... .. . ... : G-1 01 . ... : ... .. 5 ... : ... .. 5 ...
ROW 47 : ... .. . ... : ... .. . ... : --- .. . ... : ... .. . ... : ... .. . ... : --- .. . ... : ... .. . ... : ... .. . ...
ROW 48 : F-3 0D . ... : D#3 0D . ... : G-2 00 . ... : 3-# 03 F ... : ... .. . ... : G-1 01 . ... : ... .. . ... : ... .. . ...
ROW 49 : ... .. . ... : ... .. . ... : --- .. . ... : ... .. . ... : ... .. . ... : --- .. . ... : ... .. . ... : ... .. . ...
ROW 4A : G-3 0D . ... : F-3 0D . ... : G-2 00 . ... : ... .. . ... : ... .. . ... : G-1 01 . ... : ... .. . ... : ... .. . ...
ROW 4B : ... .. . ... : ... .. . ... : --- .. . ... : ... .. . ... : ... .. . ... : --- .. . ... : ... .. . ... : ... .. . ...
ROW 4C : B-3 0D . ... : G-3 0D . ... : G-2 00 . ... : 9-# 03 C ... : ... .. . ... : G-1 01 . ... : ... .. . ... : ... .. . ...
ROW 4D : ... .. . ... : ... .. . ... : --- .. . ... : ... .. . ... : ... .. . ... : --- .. . ... : ... .. . ... : ... .. . ...
ROW 4E : D-4 0D . ... : B-3 0D . ... : G-2 00 . ... : ... .. . ... : ... .. . ... : G-1 01 . ... : ... .. . ... : ... .. . ...
ROW 4F : ... .. . ... : ... .. . ... : --- .. . ... : ... .. . ... : ... .. . ... : --- .. . ... : ... .. . ... : ... .. . ...
ROW 50 : G-4 0D . ... : D-4 0D . ... : G-2 00 . ... : B-# 03 8 ... : ... .. . ... : G-1 01 . ... : ... .. . ... : ... .. . ...
ROW 51 : ... .. . ... : ... .. . ... : --- .. . ... : --- .. . ... : ... .. . ... : --- .. . ... : ... .. . ... : ... .. . ...
ROW 52 : D-4 0D . ... : G-4 0D . ... : G-2 00 . ... : ... .. . ... : ... .. . ... : G-1 01 . ... : ... .. . ... : ... .. . ...
ROW 53 : ... .. . ... : ... .. . ... : --- .. . ... : ... .. . ... : ... .. . ... : --- .. . ... : ... .. . ... : ... .. . ...
ROW 54 : B-3 0D . ... : D-4 0D . ... : G-2 00 . ... : 9-# 03 C ... : ... .. . ... : G-1 01 . ... : ... .. . ... : ... .. . ...
ROW 55 : ... .. . ... : ... .. . ... : --- .. . ... : ... .. . ... : ... .. . ... : --- .. . ... : ... .. . ... : ... .. . ...
ROW 56 : G-3 0D . ... : B-3 0D . ... : G-2 00 . ... : ... .. . ... : ... .. . ... : G-1 01 . ... : ... .. . ... : ... .. . ...
ROW 57 : ... .. . ... : ... .. . ... : --- .. . ... : ... .. . ... : ... .. . ... : --- .. . ... : ... .. . ... : ... .. . ...
ROW 58 : F-3 0D . ... : G-3 0D . ... : G-2 00 . ... : 3-# 03 F ... : ... .. . ... : G-1 01 . ... : ... .. . ... : ... .. . ...
ROW 59 : ... .. . ... : ... .. . ... : --- .. . ... : ... .. . ... : ... .. . ... : --- .. . ... : ... .. . ... : ... .. . ...
ROW 5A : D#3 0D . ... : F-3 0D . ... : G-2 00 . ... : C-# 02 8 ... : ... .. . ... : G-1 01 . ... : ... .. . ... : ... .. . ...
ROW 5B : ... .. . ... : ... .. . ... : --- .. . ... : ... .. . ... : ... .. . ... : --- .. . ... : ... .. . ... : ... .. . ...
ROW 5C : D-3 0D . ... : D#3 0D . ... : G-2 00 . ... : C-# 02 6 ... : ... .. . ... : G-1 01 . ... : ... .. . ... : ... .. . ...
ROW 5D : ... .. . ... : ... .. . ... : --- .. . ... : ... .. . ... : ... .. . ... : --- .. . ... : ... .. . ... : ... .. . ...
ROW 5E : B-2 0D . ... : D-3 0D . ... : G-2 00 . ... : C-# 02 4 ... : ... .. . ... : G-1 01 . ... : ... .. . ... : ... .. . ...
ROW 5F : ... .. . ... : ... .. . ... : --- .. . ... : ... .. . ... : ... .. . ... : --- .. . ... : ... .. . ... : ... .. . ...
ROW 60 : G-2 0D . ... : B-2 0D . ... : G-2 00 . ... : D-# 03 4 ... : ... .. . ... : G-1 01 . ... : ... .. . ... : ... .. . ...
ROW 61 : ... .. . ... : ... .. . ... : --- .. . ... : ... .. . ... : ... .. . ... : --- .. . ... : ... .. . ... : ... .. . ...
ROW 62 : B-2 0D . ... : G-2 0D . ... : G-2 00 . ... : 9-# 03 5 ... : ... .. . ... : G-1 01 . ... : ... .. . ... : ... .. . ...
ROW 63 : ... .. . ... : ... .. . ... : --- .. . ... : ... .. . ... : ... .. . ... : --- .. . ... : ... .. . ... : ... .. . ...
ROW 64 : D-3 0D . ... : B-2 0D . ... : G-2 00 . ... : ... .. . ... : ... .. . ... : G-1 01 . ... : ... .. . ... : ... .. . ...
ROW 65 : ... .. . ... : ... .. . ... : --- .. . ... : ... .. . ... : ... .. . ... : --- .. . ... : ... .. . ... : ... .. . ...
ROW 66 : D#3 0D . ... : D-3 0D . ... : G-2 00 . ... : D-# 03 6 ... : ... .. . ... : G-1 01 . ... : ... .. . ... : ... .. . ...
ROW 67 : ... .. . ... : ... .. . ... : --- .. . ... : ... .. . ... : ... .. . ... : --- .. . ... : ... .. . ... : ... .. . ...
ROW 68 : F-3 0D . ... : D#3 0D . ... : G-2 00 . ... : 9-# 03 7 ... : ... .. . ... : G-1 01 . ... : ... .. . ... : ... .. . ...
ROW 69 : ... .. . ... : ... .. . ... : --- .. . ... : ... .. . ... : ... .. . ... : --- .. . ... : ... .. . ... : ... .. . ...
ROW 6A : G-3 0D . ... : F-3 0D . ... : G-2 00 . ... : ... .. . ... : ... .. . ... : G-1 01 . ... : ... .. . ... : ... .. . ...
ROW 6B : ... .. . ... : ... .. . ... : --- .. . ... : ... .. . ... : ... .. . ... : --- .. . ... : ... .. . ... : ... .. . ...
ROW 6C : B-3 0D . ... : G-3 0D . ... : G-2 00 . ... : D-# 03 8 ... : ... .. . ... : G-1 01 . ... : ... .. . ... : ... .. . ...
ROW 6D : ... .. . ... : ... .. . ... : --- .. . ... : ... .. . ... : ... .. . ... : --- .. . ... : ... .. . ... : ... .. . ...
ROW 6E : D-4 0D . ... : B-3 0D . ... : G-2 00 . ... : 9-# 03 9 ... : ... .. . ... : G-1 01 . ... : ... .. . ... : ... .. . ...
ROW 6F : ... .. . ... : ... .. . ... : --- .. . ... : ... .. . ... : ... .. . ... : --- .. . ... : ... .. . ... : ... .. . ...
ROW 70 : G-4 0D . ... : D-4 0D . ... : G-2 00 . ... : ... .. . ... : ... .. . ... : G-1 01 . ... : ... .. . ... : ... .. . ...
ROW 71 : ... .. . ... : ... .. . ... : --- .. . ... : ... .. . ... : ... .. . ... : --- .. . ... : ... .. . ... : ... .. . ...
ROW 72 : D-4 0D . ... : G-4 0D . ... : G-2 00 . ... : D-# 03 A ... : ... .. . ... : G-1 01 . ... : ... .. . ... : ... .. . ...
ROW 73 : ... .. . ... : ... .. . ... : --- .. . ... : ... .. . ... : ... .. . ... : --- .. . ... : ... .. . ... : ... .. . ...
ROW 74 : B-3 0D . ... : D-4 0D . ... : G-2 00 . ... : 9-# 03 B ... : ... .. . ... : G-1 01 . ... : ... .. . ... : ... .. . ...
ROW 75 : ... .. . ... : ... .. . ... : --- .. . ... : ... .. . ... : ... .. . ... : --- .. . ... : ... .. . ... : ... .. . ...
ROW 76 : G-3 0D . ... : B-3 0D . ... : G-2 00 . ... : ... .. . ... : ... .. . ... : G-1 01 . ... : ... .. . ... : ... .. . ...
ROW 77 : ... .. . ... : ... .. . ... : --- .. . ... : ... .. . ... : ... .. . ... : --- .. . ... : ... .. . ... : ... .. . ...
ROW 78 : F-3 0D C ... : G-3 0D 2 ... : G-2 00 . ... : 6-# 03 C ... : ... .. . ... : G-1 01 . ... : G-3 11 F ... : ... .. . ...
ROW 79 : ... .. . ... : ... .. . ... : --- .. . ... : ... .. . ... : ... .. . ... : --- .. . ... : ... .. . ... : ... .. . ...
ROW 7A : D#3 0D . ... : F-3 0D . ... : G-2 00 . ... : 5-# 03 D ... : ... .. . ... : G-1 01 . ... : ... .. . ... : ... .. . ...
ROW 7B : ... .. . ... : ... .. . ... : --- .. . ... : ... .. . ... : ... .. . ... : --- .. . ... : ... .. . ... : ... .. . ...
ROW 7C : D-3 0D . ... : D#3 0D . ... : G-2 00 . ... : 4-# 03 E ... : ... .. . ... : G-1 01 . ... : B-3 11 . ... : ... .. . ...
ROW 7D : ... .. . ... : ... .. . ... : --- .. . ... : ... .. . ... : ... .. . ... : --- .. . ... : ... .. . ... : ... .. . ...
ROW 7E : B-2 0D . ... : D-3 0D . ... : G-2 00 . ... : 3-# 03 F ... : ... .. . ... : G-1 01 . ... : D-4 11 . ... : ... .. . ...
ROW 7F : ... .. . ... : ... .. . ... : --- .. . ... : ... .. . ... : ... .. . ... : --- .. . ... : ... .. . ... : ... .. . ...

PATTERN 02
ROW 00 : C-2 0D F ... : ... .. . ... : C-2 00 . ... : 2-# 03 C ... : ... .. . ... : C-1 01 8 ... : D#4 11 F ... : C-2 01 1 ...
ROW 01 : ... .. . ... : ... .. . ... : --- .. . ... : ... .. . ... : ... .. . ... : --- .. . ... : ... .. . ... : ... .. . ...
ROW 02 : D#2 0D . ... : C-2 0D 4 ... : C-2 00 . ... : B-# 03 8 ... : ... .. . ... : C-1 01 . ... : ... .. . ... : ... .. 2 ...
ROW 03 : ... .. . ... : ... .. . ... : --- .. . ... : ... .. . ... : ... .. . ... : --- .. . ... : ... .. . ... : ... .. . ...
ROW 04 : G-2 0D . ... : D#2 0D . ... : C-2 00 . ... : ... .. . ... : ... .. . ... : C-1 01 . ... : D-4 11 . ... : ... .. 3 ...
ROW 05 : ... .. . ... : ... .. . ... : --- .. . ... : ... .. . ... : ... .. . ... : --- .. . ... : ... .. . ... : ... .. . ...
ROW 06 : C-3 0D . ... : G-2 0D . ... : C-2 00 . ... : B-# 03 5 ... : ... .. . ... : C-1 01 . ... : ... .. . ... : ... .. 4 ...
ROW 07 : ... .. . ... : ... .. . ... : --- .. . ... : ... .. . ... : ... .. . ... : --- .. . ... : ... .. . ... : ... .. . ...
ROW 08 : D#3 0D . ... : C-3 0D . ... : C-2 00 . ... : F-# 03 C ... : ... .. . ... : C-1 01 . ... : C-4 11 . ... : ... .. 5 ...
ROW 09 : ... .. . ... : ... .. . ... : --- .. . ... : ... .. . ... : ... .. . ... : --- .. . ... : ... .. . ... : ... .. . ...
ROW 0A : G-3 0D . ... : D#3 0D . ... : C-2 00 . ... : B-# 03 7 ... : ... .. . ... : C-1 01 . ... : ... .. . ... : ... .. . ...
ROW 0B : ... .. . ... : ... .. . ... : --- .. . ... : D-# 03 6 ... : ... .. . ... : --- .. . ... : ... .. . ... : ... .. . ...
ROW 0C : C-4 0D . ... : G-3 0D . ... : C-2 00 . ... : 9-# 03 5 ... : ... .. . ... : C-1 01 . ... : G-3 11 . ... : ... .. . ...
ROW 0D : ... .. . ... : ... .. . ... : --- .. . ... : E-# 03 6 ... : ... .. . ... : --- .. . ... : ... .. . ... : ... .. . ...
ROW 0E : D#4 0D . ... : C-4 0D . ... : C-2 00 . ... : E-# 03 7 ... : ... .. . ... : C-1 01 . ... : ... .. . ... : ... .. . ...
ROW 0F : ... .. . ... : ... .. . ... : --- .. . ... : ... .. . ... : ... .. . ... : --- .. . ... : ... .. . ... : ... .. . ...
ROW 10 : G-4 0D . ... : D#4 0D . ... : C-2 00 . ... : 9-# 03 3 ... : ... .. . ... : C-1 01 . ... : ... .. . ... : ... .. . ...
ROW 11 : ... .. . ... : ... .. . ... : --- .. . ... : ... .. . ... : ... .. . ... : --- .. . ... : ... .. . ... : ... .. . ...
ROW 12 : D#4 0D . ... : G-4 0D . ... : C-2 00 . ... : 7-# 03 5 ... : ... .. . ... : C-1 01 . ... : ... .. . ... : ... .. . ...
ROW 13 : ... .. . ... : ... .. . ... : --- .. . ... : ... .. . ... : ... .. . ... : --- .. . ... : ... .. . ... : ... .. . ...
ROW 14 : C-4 0D . ... : D#4 0D . ... : C-2 00 . ... : 9-# 03 7 ... : ... .. . ... : C-1 01 . ... : C-4 11 . ... : ... .. . ...
ROW 15 : ... .. . ... : ... .. . ... : --- .. . ... : ... .. . ... : ... .. . ... : --- .. . ... : ... .. . ... : ... .. . ...
ROW 16 : G-3 0D . ... : C-4 0D . ... : C-2 00 . ... : 7-# 03 9 ... : ... .. . ... : C-1 01 . ... : ... .. . ... : ... .. . ...
ROW 17 : ... .. . ... : ... .. . ... : --- .. . ... : ... .. . ... : ... .. . ... : --- .. . ... : ... .. . ... : ... .. . ...
ROW 18 : D#3 0D . ... : G-3 0D . ... : C-2 00 . ... : F-# 03 F ... : ... .. . ... : C-1 01 . ... : D-4 11 . ... : ... .. . ...
ROW 19 : ... .. . ... : ... .. . ... : --- .. . ... : ... .. . ... : ... .. . ... : --- .. . ... : ... .. . ... : ... .. . ...
ROW 1A : C-3 0D . ... : D#3 0D . ... : C-2 00 . ... : 8-# 03 4 ... : ... .. . ... : C-1 01 . ... : ... .. . ... : ... .. . ...
ROW 1B : ... .. . ... : ... .. . ... : --- .. . ... : ... .. . ... : ... .. . ... : --- .. . ... : ... .. . ... : ... .. . ...
ROW 1C : G-2 0D . ... : C-3 0D . ... : C-2 00 . ... : A-# 03 6 ... : ... .. . ... : C-1 01 . ... : D#4 11 . ... : ... .. . ...
ROW 1D : ... .. . ... : ... .. . ... : --- .. . ... : A-# 03 7 ... : ... .. . ... : --- .. . ... : ... .. . ... : ... .. . ...
ROW 1E : D#2 0D . ... : G-2 0D . ... : C-2 00 . ... : 5-# 03 8 ... : ... .. . ... : C-1 01 . ... : ... .. . ... : ... .. . ...
ROW 1F : ... .. . ... : ... .. . ... : --- .. . ... : 5-# 03 9 ... : ... .. . ... : --- .. . ... : ... .. . ... : ... .. . ...
ROW 20 : C-2 0D . ... : D#2 0D . ... : C-2 00 . ... : 7-# 03 A ... : ... .. . ... : C-1 01 . ... : G-4 11 . ... : ... .. . ...
ROW 21 : ... .. . ... : ... .. . ... : --- .. . ... : ... .. . ... : ... .. . ... : --- .. . ... : ... .. . ... : ... .. . ...
ROW 22 : D#2 0D . ... : C-2 0D . ... : C-2 00 . ... : B-# 03 8 ... : ... .. . ... : C-1 01 . ... : ... .. . ... : ... .. . ...
ROW 23 : ... .. . ... : ... .. . ... : --- .. . ... : ... .. . ... : ... .. . ... : --- .. . ... : ... .. . ... : ... .. . ...
ROW 24 : G-2 0D . ... : D#2 0D . ... : C-2 00 . ... : ... .. . ... : ... .. . ... : C-1 01 . ... : ... .. . ... : ... .. . ...
ROW 25 : ... .. . ... : ... .. . ... : --- .. . ... : ... .. . ... : ... .. . ... : --- .. . ... : ... .. . ... : ... .. . ...
ROW 26 : C-3 0D . ... : G-2 0D . ... : C-2 00 . ... : B-# 03 5 ... : ... .. . ... : C-1 01 . ... : ... .. . ... : ... .. . ...
ROW 27 : ... .. . ... : ... .. . ... : --- .. . ... : ... .. . ... : ... .. . ... : --- .. . ... : ... .. . ... : ... .. . ...
ROW 28 : D#3 0D . ... : C-3 0D . ... : C-2 00 . ... : F-# 03 C ... : ... .. . ... : C-1 01 . ... : G#4 11 . ... : ... .. . ...
ROW 29 : ... .. . ... : ... .. . ... : --- .. . ... : ... .. . ... : ... .. . ... : --- .. . ... : ... .. . ... : ... .. . ...
ROW 2A : G-3 0D . ... : D#3 0D . ... : C-2 00 . ... : B-# 03 7 ... : ... .. . ... : C-1 01 . ... : ... .. . ... : ... .. . ...
ROW 2B : ... .. . ... : ... .. . ... : --- .. . ... : D-# 03 6 ... : ... .. . ... : --- .. . ... : ... .. . ... : ... .. . ...
ROW 2C : C-4 0D . ... : G-3 0D . ... : C-2 00 . ... : 9-# 03 5 ... : ... .. . ... : C-1 01 . ... : ... .. . ... : ... .. . ...
ROW 2D : ... .. . ... : ... .. . ... : --- .. . ... : E-# 03 6 ... : ... .. . ... : --- .. . ... : ... .. . ... : ... .. . ...
ROW 2E : D#4 0D . ... : C-4 0D . ... : C-2 00 . ... : E-# 03 7 ... : ... .. . ... : C-1 01 . ... : ... .. . ... : ... .. . ...
ROW 2F : ... .. . ... : ... .. . ... : --- .. . ... : ... .. . ... : ... .. . ... : --- .. . ... : ... .. . ... : ... .. . ...
ROW 30 : G-4 0D . ... : D#4 0D . ... : C-2 00 . ... : 9-# 03 3 ... : ... .. . ... : C-1 01 . ... : G-4 11 . ... : ... .. . ...
ROW 31 : ... .. . ... : ... .. . ... : --- .. . ... : ... .. . ... : ... .. . ... : --- .. . ... : ... .. . ... : ... .. . ...
ROW 32 : D#4 0D . ... : G-4 0D . ... : C-2 00 . ... : 7-# 03 5 ... : ... .. . ... : C-1 01 . ... : F-4 11 . ... : ... .. . ...
ROW 33 : ... .. . ... : ... .. . ... : --- .. . ... : ... .. . ... : ... .. . ... : --- .. . ... : ... .. . ... : ... .. . ...
ROW 34 : C-4 0D . ... : D#4 0D . ... : C-2 00 . ... : 9-# 03 7 ... : ... .. . ... : C-1 01 . ... : D#4 11 . ... : ... .. . ...
ROW 35 : ... .. . ... : ... .. . ... : --- .. . ... : ... .. . ... : ... .. . ... : --- .. . ... : ... .. . ... : ... .. . ...
ROW 36 : G-3 0D . ... : C-4 0D . ... : C-2 00 . ... : 7-# 03 9 ... : ... .. . ... : C-1 01 . ... : D-4 11 . ... : ... .. . ...
ROW 37 : ... .. . ... : ... .. . ... : --- .. . ... : ... .. . ... : ... .. . ... : --- .. . ... : ... .. . ... : ... .. . ...
ROW 38 : D#3 0D . ... : G-3 0D . ... : C-2 00 . ... : F-# 03 F ... : ... .. . ... : C-1 01 . ... : D#4 11 . ... : ... .. . ...
ROW 39 : ... .. . ... : ... .. . ... : --- .. . ... : ... .. . ... : ... .. . ... : --- .. . ... : ... .. . ... : ... .. . ...
ROW 3A : C-3 0D . ... : D#3 0D . ... : C-2 00 . ... : 8-# 03 4 ... : ... .. . ... : C-1 01 . ... : D-4 11 . ... : ... .. . ...
ROW 3B : ... .. . ... : ... .. . ... : --- .. . ... : ... .. . ... : ... .. . ... : --- .. . ... : ... .. . ... : ... .. . ...
ROW 3C : G-2 0D . ... : C-3 0D . ... : C-2 00 . ... : A-# 03 6 ... : ... .. . ... : C-1 01 . ... : C-4 11 . ... : ... .. . ...
ROW 3D : ... .. . ... : ... .. . ... : --- .. . ... : A-# 03 7 ... : ... .. . ... : --- .. . ... : ... .. . ... : ... .. . ...
ROW 3E : D#2 0D . ... : G-2 0D . ... : C-2 00 . ... : 5-# 03 8 ... : ... .. . ... : C-1 01 . ... : D#4 11 . ... : ... .. . ...
ROW 3F : ... .. . ... : ... .. . ... : --- .. . ... : 5-# 03 9 ... : ... .. . ... : --- .. . ... : ... .. . ... : ... .. . ...
ROW 40 : C-2 0D . ... : D#2 0D . ... : F-2 00 . ... : 7-# 03 A ... : ... .. . ... : F-1 01 . ... : F-4 11 . ... : G#1 01 1 ...
ROW 41 : ... .. . ... : ... .. . ... : --- .. . ... : ... .. . ... : ... .. . ... : --- .. . ... : ... .. . ... : ... .. . ...
ROW 42 : F-2 0D . ... : C-2 0D . ... : F-2 00 . ... : B-# 03 8 ... : ... .. . ... : F-1 01 . ... : ... .. . ... : ... .. 2 ...
ROW 43 : ... .. . ... : ... .. . ... : --- .. . ... : ... .. . ... : ... .. . ... : --- .. . ... : ... .. . ... : ... .. . ...
ROW 44 : G#2 0D . ... : F-2 0D . ... : F-2 00 . ... : ... .. . ... : ... .. . ... : F-1 01 . ... : ... .. . ... : ... .. 3 ...
ROW 45 : ... .. . ... : ... .. . ... : --- .. . ... : ... .. . ... : ... .. . ... : --- .. . ... : ... .. . ... : ... .. . ...
ROW 46 : C-3 0D . ... : G#2 0D . ... : F-2 00 . ... : B-# 03 5 ... : ... .. . ... : F-1 01 . ... : C-4 11 . ... : ... .. 4 ...
ROW 47 : ... .. . ... : ... .. . ... : --- .. . ... : ... .. . ... : ... .. . ... : --- .. . ... : ... .. . ... : ... .. . ...
ROW 48 : F-3 0D . ... : C-3 0D . ... : F-2 00 . ... : F-# 03 C ... : ... .. . ... : F-1 01 . ... : ... .. . ... : ... .. 5 ...
ROW 49 : ... .. . ... : ... .. . ... : --- .. . ... : ... .. . ... : ... .. . ... : --- .. . ... : ... .. . ... : ... .. . ...
ROW 4A : G#3 0D . ... : F-3 0D . ... : F-2 00 . ... : B-# 03 7 ... : ... .. . ... : F-1 01 . ... : ... .. . ... : ... .. . ...
ROW 4B : ... .. . ... : ... .. . ... : --- .. . ... : D-# 03 6 ... : ... .. . ... : --- .. . ... : ... .. . ... : ... .. . ...
ROW 4C : C-4 0D . ... : G#3 0D . ... : F-2 00 . ... : 9-# 03 5 ... : ... .. . ... : F-1 01 . ... : F-4 11 . ... : ... .. . ...
ROW 4D : ... .. . ... : ... .. . ... : --- .. . ... : E-# 03 6 ... : ... .. . ... : --- .. . ... : ... .. . ... : ... .. . ...
ROW 4E : F-4 0D . ... : C-4 0D . ... : F-2 00 . ... : E-# 03 7 ... : ... .. . ... : F-1 01 . ... : ... .. . ... : ... .. . ...
ROW 4F : ... .. . ... : ... .. . ... : --- .. . ... : ... .. . ... : ... .. . ... : --- .. . ... : ... .. . ... : ... .. . ...
ROW 50 : G#4 0D . ... : F-4 0D . ... : F-2 00 . ... : 9-# 03 3 ... : ... .. . ... : F-1 01 . ... : F-4 11 . ... : ... .. . ...
ROW 51 : ... .. . ... : ... .. . ... : --- .. . ... : ... .. . ... : ... .. . ... : --- .. . ... : ... .. . ... : ... .. . ...
ROW 52 : F-4 0D . ... : G#4 0D . ... : F-2 00 . ... : 7-# 03 5 ... : ... .. . ... : F-1 01 . ... : ... .. . ... : ... .. . ...
ROW 53 : ... .. . ... : ... .. . ... : --- .. . ... : ... .. . ... : ... .. . ... : --- .. . ... : ... .. . ... : ... .. . ...
ROW 54 : C-4 0D . ... : F-4 0D . ... : F-2 00 . ... : 9-# 03 7 ... : ... .. . ... : F-1 01 . ... : ... .. . ... : ... .. . ...
ROW 55 : ... .. . ... : ... .. . ... : --- .. . ... : ... .. . ... : ... .. . ... : --- .. . ... : ... .. . ... : ... .. . ...
ROW 56 : G#3 0D . ... : C-4 0D . ... : F-2 00 . ... : 7-# 03 9 ... : ... .. . ... : F-1 01 . ... : G-4 11 . ... : ... .. . ...
ROW 57 : ... .. . ... : ... .. . ... : --- .. . ... : ... .. . ... : ... .. . ... : --- .. . ... : ... .. . ... : ... .. . ...
ROW 58 : F-3 0D . ... : G#3 0D . ... : F-2 00 . ... : F-# 03 F ... : ... .. . ... : F-1 01 . ... : ... .. . ... : ... .. . ...
ROW 59 : ... .. . ... : ... .. . ... : --- .. . ... : ... .. . ... : ... .. . ... : --- .. . ... : ... .. . ... : ... .. . ...
ROW 5A : C-3 0D . ... : F-3 0D . ... : F-2 00 . ... : 8-# 03 4 ... : ... .. . ... : F-1 01 . ... : ... .. . ... : ... .. . ...
ROW 5B : ... .. . ... : ... .. . ... : --- .. . ... : ... .. . ... : ... .. . ... : --- .. . ... : ... .. . ... : ... .. . ...
ROW 5C : G#2 0D . ... : C-3 0D . ... : F-2 00 . ... : A-# 03 6 ... : ... .. . ... : F-1 01 . ... : G#4 11 . ... : ... .. . ...
ROW 5D : ... .. . ... : ... .. . ... : --- .. . ... : A-# 03 7 ... : ... .. . ... : --- .. . ... : ... .. . ... : ... .. . ...
ROW 5E : F-2 0D . ... : G#2 0D . ... : F-2 00 . ... : 5-# 03 8 ... : ... .. . ... : F-1 01 . ... : ... .. . ... : ... .. . ...
ROW 5F : ... .. . ... : ... .. . ... : --- .. . ... : 5-# 03 9 ... : ... .. . ... : --- .. . ... : ... .. . ... : ... .. . ...
ROW 60 : C-2 0D . ... : F-2 0D . ... : G#2 00 . ... : 7-# 03 A ... : ... .. . ... : G#0 01 . ... : G#4 11 . ... : ... .. . ...
ROW 61 : ... .. . ... : ... .. . ... : --- .. . ... : ... .. . ... : ... .. . ... : --- .. . ... : ... .. . ... : ... .. . ...
ROW 62 : F-2 0D . ... : C-2 0D . ... : G#2 00 . ... : B-# 03 8 ... : ... .. . ... : G#0 01 . ... : ... .. . ... : ... .. . ...
ROW 63 : ... .. . ... : ... .. . ... : --- .. . ... : ... .. . ... : ... .. . ... : --- .. . ... : ... .. . ... : ... .. . ...
ROW 64 : G#2 0D . ... : F-2 0D . ... : G#2 00 . ... : ... .. . ... : ... .. . ... : G#0 01 . ... : ... .. . ... : ... .. . ...
ROW 65 : ... .. . ... : ... .. . ... : --- .. . ... : ... .. . ... : ... .. . ... : --- .. . ... : ... .. . ... : ... .. . ...
ROW 66 : C-3 0D . ... : G#2 0D . ... : G#2 00 . ... : B-# 03 5 ... : ... .. . ... : G#0 01 . ... : G-4 11 . ... : ... .. . ...
ROW 67 : ... .. . ... : ... .. . ... : --- .. . ... : ... .. . ... : ... .. . ... : --- .. . ... : ... .. . ... : ... .. . ...
ROW 68 : F-3 0D . ... : C-3 0D . ... : G#2 00 . ... : F-# 03 C ... : ... .. . ... : G#0 01 . ... : ... .. . ... : ... .. . ...
ROW 69 : ... .. . ... : ... .. . ... : --- .. . ... : ... .. . ... : ... .. . ... : --- .. . ... : ... .. . ... : ... .. . ...
ROW 6A : G#3 0D . ... : F-3 0D . ... : G#2 00 . ... : B-# 03 7 ... : ... .. . ... : G#0 01 . ... : ... .. . ... : ... .. . ...
ROW 6B : ... .. . ... : ... .. . ... : --- .. . ... : D-# 03 6 ... : ... .. . ... : --- .. . ... : ... .. . ... : ... .. . ...
ROW 6C : C-4 0D . ... : G#3 0D . ... : G#2 00 . ... : 9-# 03 5 ... : ... .. . ... : G#0 01 . ... : F-4 11 . ... : ... .. . ...
ROW 6D : ... .. . ... : ... .. . ... : --- .. . ... : E-# 03 6 ... : ... .. . ... : --- .. . ... : ... .. . ... : ... .. . ...
ROW 6E : F-4 0D . ... : C-4 0D . ... : G#2 00 . ... : E-# 03 7 ... : ... .. . ... : G#0 01 . ... : ... .. . ... : ... .. . ...
ROW 6F : ... .. . ... : ... .. . ... : --- .. . ... : ... .. . ... : ... .. . ... : --- .. . ... : ... .. . ... : ... .. . ...
ROW 70 : G#4 0D . ... : F-4 0D . ... : G#2 00 . ... : 9-# 03 3 ... : ... .. . ... : G#0 01 . ... : D#4 11 . ... : ... .. . ...
ROW 71 : ... .. . ... : ... .. . ... : --- .. . ... : ... .. . ... : ... .. . ... : --- .. . ... : ... .. . ... : ... .. . ...
ROW 72 : F-4 0D . ... : G#4 0D . ... : G#2 00 . ... : 7-# 03 5 ... : ... .. . ... : G#0 01 . ... : ... .. . ... : ... .. . ...
ROW 73 : ... .. . ... : ... .. . ... : --- .. . ... : ... .. . ... : ... .. . ... : --- .. . ... : ... .. . ... : ... .. . ...
ROW 74 : C-4 0D . ... : F-4 0D . ... : G#2 00 . ... : 9-# 03 7 ... : ... .. . ... : G#0 01 . ... : D-4 11 . ... : ... .. . ...
ROW 75 : ... .. . ... : ... .. . ... : --- .. . ... : ... .. . ... : ... .. . ... : --- .. . ... : ... .. . ... : ... .. . ...
ROW 76 : G#3 0D . ... : C-4 0D . ... : G#2 00 . ... : 7-# 03 9 ... : ... .. . ... : G#0 01 . ... : ... .. . ... : ... .. . ...
ROW 77 : ... .. . ... : ... .. . ... : --- .. . ... : ... .. . ... : ... .. . ... : --- .. . ... : ... .. . ... : ... .. . ...
ROW 78 : F-3 0D . ... : G#3 0D . ... : G#2 00 . ... : F-# 03 F ... : ... .. . ... : G#0 01 . ... : D-4 11 . ... : ... .. . ...
ROW 79 : ... .. . ... : ... .. . ... : --- .. . ... : ... .. . ... : ... .. . ... : --- .. . ... : ... .. . ... : ... .. . ...
ROW 7A : C-3 0D . ... : F-3 0D . ... : G#2 00 . ... : 8-# 03 4 ... : ... .. . ... : G#0 01 . ... : ... .. . ... : ... .. . ...
ROW 7B : ... .. . ... : ... .. . ... : --- .. . ... : ... .. . ... : ... .. . ... : --- .. . ... : ... .. . ... : ... .. . ...
ROW 7C : G#2 0D . ... : C-3 0D . ... : G#2 00 . ... : A-# 03 6 ... : ... .. . ... : G#0 01 . ... : D#4 11 . ... : ... .. . ...
ROW 7D : ... .. . ... : ... .. . ... : --- .. . ... : A-# 03 7 ... : ... .. . ... : --- .. . ... : ... .. . ... : ... .. . ...
ROW 7E : F-2 0D . ... : G#2 0D . ... : G#2 00 . ... : 5-# 03 8 ... : ... .. . ... : G#0 01 . ... : ... .. . ... : ... .. . ...
ROW 7F : ... .. . ... : ... .. . ... : --- .. . ... : 5-# 03 9 ... : ... .. . ... : --- .. . ... : ... .. . ... : ... .. . ...

PATTERN 03
ROW 00 : C-2 0D F ... : ... .. . ... : C-2 00 . ... : 9-# 03 A ... : ... .. . ... : C-1 01 8 ... : D#4 11 . ... : C-2 01 1 ...
ROW 01 : ... .. . ... : ... .. . ... : --- .. . ... : ... .. . ... : ... .. . ... : --- .. . ... : ... .. . ... : ... .. . ...
ROW 02 : D#2 0D . ... : C-2 0D 4 ... : C-2 00 . ... : D-# 03 8 ... : ... .. . ... : C-1 01 . ... : ... .. . ... : ... .. 2 ...
ROW 03 : ... .. . ... : ... .. . ... : --- .. . ... : ... .. . ... : ... .. . ... : --- .. . ... : ... .. . ... : ... .. . ...
ROW 04 : G-2 0D . ... : D#2 0D . ... : C-2 00 . ... : ... .. . ... : ... .. . ... : C-1 01 . ... : ... .. . ... : ... .. 3 ...
ROW 05 : ... .. . ... : ... .. . ... : --- .. . ... : ... .. . ... : ... .. . ... : --- .. . ... : ... .. . ... : ... .. . ...
ROW 06 : C-3 0D . ... : G-2 0D . ... : C-2 00 . ... : D-# 03 5 ... : ... .. . ... : C-1 01 . ... : C-4 11 . ... : ... .. 4 ...
ROW 07 : ... .. . ... : ... .. . ... : --- .. . ... : ... .. . ... : ... .. . ... : --- .. . ... : ... .. . ... : ... .. . ...
ROW 08 : D#3 0D . ... : C-3 0D . ... : C-2 00 . ... : 1-# 03 C ... : ... .. . ... : C-1 01 . ... : ... .. . ... : ... .. 5 ...
ROW 09 : ... .. . ... : ... .. . ... : --- .. . ... : ... .. . ... : ... .. . ... : --- .. . ... : ... .. . ... : ... .. . ...
ROW 0A : G-3 0D . ... : D#3 0D . ... : C-2 00 . ... : D-# 03 7 ... : ... .. . ... : C-1 01 . ... : ... .. . ... : ... .. . ...
ROW 0B : ... .. . ... : ... .. . ... : --- .. . ... : F-# 03 6 ... : ... .. . ... : --- .. . ... : ... .. . ... : ... .. . ...
ROW 0C : C-4 0D . ... : G-3 0D . ... : C-2 00 . ... : B-# 03 5 ... : ... .. . ... : C-1 01 . ... : D-4 11 . ... : ... .. . ...
ROW 0D : ... .. . ... : ... .. . ... : --- .. . ... : 0-# 03 6 ... : ... .. . ... : --- .. . ... : ... .. . ... : ... .. . ...
ROW 0E : D#4 0D . ... : C-4 0D . ... : C-2 00 . ... : 0-# 03 7 ... : ... .. . ... : C-1 01 . ... : ... .. . ... : ... .. . ...
ROW 0F : ... .. . ... : ... .. . ... : --- .. . ... : ... .. . ... : ... .. . ... : --- .. . ... : ... .. . ... : ... .. . ...
ROW 10 : G-4 0D . ... : D#4 0D . ... : C-2 00 . ... : B-# 03 3 ... : ... .. . ... : C-1 01 . ... : D#4 11 . ... : ... .. . ...
ROW 11 : ... .. . ... : ... .. . ... : --- .. . ... : ... .. . ... : ... .. . ... : --- .. . ... : ... .. . ... : ... .. . ...
ROW 12 : D#4 0D . ... : G-4 0D . ... : C-2 00 . ... : 9-# 03 5 ... : ... .. . ... : C-1 01 . ... : ... .. . ... : ... .. . ...
ROW 13 : ... .. . ... : ... .. . ... : --- .. . ... : ... .. . ... : ... .. . ... : --- .. . ... : ... .. . ... : ... .. . ...
ROW 14 : C-4 0D . ... : D#4 0D . ... : C-2 00 . ... : B-# 03 7 ... : ... .. . ... : C-1 01 . ... : ... .. . ... : ... .. . ...
ROW 15 : ... .. . ... : ... .. . ... : --- .. . ... : ... .. . ... : ... .. . ... : --- .. . ... : ... .. . ... : ... .. . ...
ROW 16 : G-3 0D . ... : C-4 0D . ... : C-2 00 . ... : 9-# 03 9 ... : ... .. . ... : C-1 01 . ... : ... .. . ... : ... .. . ...
ROW 17 : ... .. . ... : ... .. . ... : --- .. . ... : ... .. . ... : ... .. . ... : --- .. . ... : ... .. . ... : ... .. . ...
ROW 18 : D#3 0D . ... : G-3 0D . ... : C-2 00 . ... : 1-# 03 F ... : ... .. . ... : C-1 01 . ... : ... .. . ... : ... .. . ...
ROW 19 : ... .. . ... : ... .. . ... : --- .. . ... : ... .. . ... : ... .. . ... : --- .. . ... : ... .. . ... : ... .. . ...
ROW 1A : C-3 0D . ... : D#3 0D . ... : C-2 00 . ... : A-# 03 4 ... : ... .. . ... : C-1 01 . ... : ... .. . ... : ... .. . ...
ROW 1B : ... .. . ... : ... .. . ... : --- .. . ... : ... .. . ... : ... .. . ... : --- .. . ... : ... .. . ... : ... .. . ...
ROW 1C : G-2 0D . ... : C-3 0D . ... : C-2 00 . ... : C-# 03 6 ... : ... .. . ... : C-1 01 . ... : C-4 11 . ... : ... .. . ...
ROW 1D : ... .. . ... : ... .. . ... : --- .. . ... : C-# 03 7 ... : ... .. . ... : --- .. . ... : ... .. . ... : ... .. . ...
ROW 1E : D#2 0D . ... : G-2 0D . ... : C-2 00 . ... : 7-# 03 8 ... : ... .. . ... : C-1 01 . ... : D#4 11 . ... : ... .. . ...
ROW 1F : ... .. . ... : ... .. . ... : --- .. . ... : 7-# 03 9 ... : ... .. . ... : --- .. . ... : ... .. . ... : ... .. . ...
ROW 20 : C-2 0D . ... : D#2 0D . ... : C-2 00 . ... : 9-# 03 A ... : ... .. . ... : C-1 01 . ... : G-4 11 . ... : ... .. . ...
ROW 21 : ... .. . ... : ... .. . ... : --- .. . ... : ... .. . ... : ... .. . ... : --- .. . ... : ... .. . ... : ... .. . ...
ROW 22 : D#2 0D . ... : C-2 0D . ... : C-2 00 . ... : D-# 03 8 ... : ... .. . ... : C-1 01 . ... : ... .. . ... : ... .. . ...
ROW 23 : ... .. . ... : ... .. . ... : --- .. . ... : ... .. . ... : ... .. . ... : --- .. . ... : ... .. . ... : ... .. . ...
ROW 24 : G-2 0D . ... : D#2 0D . ... : C-2 00 . ... : ... .. . ... : ... .. . ... : C-1 01 . ... : ... .. . ... : ... .. . ...
ROW 25 : ... .. . ... : ... .. . ... : --- .. . ... : ... .. . ... : ... .. . ... : --- .. . ... : ... .. . ... : ... .. . ...
ROW 26 : C-3 0D . ... : G-2 0D . ... : C-2 00 . ... : D-# 03 5 ... : ... .. . ... : C-1 01 . ... : F-4 11 . ... : ... .. . ...
ROW 27 : ... .. . ... : ... .. . ... : --- .. . ... : ... .. . ... : ... .. . ... : --- .. . ... : ... .. . ... : ... .. . ...
ROW 28 : D#3 0D . ... : C-3 0D . ... : C-2 00 . ... : 1-# 03 C ... : ... .. . ... : C-1 01 . ... : ... .. . ... : ... .. . ...
ROW 29 : ... .. . ... : ... .. . ... : --- .. . ... : ... .. . ... : ... .. . ... : --- .. . ... : ... .. . ... : ... .. . ...
ROW 2A : G-3 0D . ... : D#3 0D . ... : C-2 00 . ... : D-# 03 7 ... : ... .. . ... : C-1 01 . ... : ... .. . ... : ... .. . ...
ROW 2B : ... .. . ... : ... .. . ... : --- .. . ... : F-# 03 6 ... : ... .. . ... : --- .. . ... : ... .. . ... : ... .. . ...
ROW 2C : C-4 0D . ... : G-3 0D . ... : C-2 00 . ... : B-# 03 5 ... : ... .. . ... : C-1 01 . ... : D#4 11 . ... : ... .. . ...
ROW 2D : ... .. . ... : ... .. . ... : --- .. . ... : 0-# 03 6 ... : ... .. . ... : --- .. . ... : ... .. . ... : ... .. . ...
ROW 2E : D#4 0D . ... : C-4 0D . ... : C-2 00 . ... : 0-# 03 7 ... : ... .. . ... : C-1 01 . ... : ... .. . ... : ... .. . ...
ROW 2F : ... .. . ... : ... .. . ... : --- .. . ... : ... .. . ... : ... .. . ... : --- .. . ... : ... .. . ... : ... .. . ...
ROW 30 : G-4 0D . ... : D#4 0D . ... : C-2 00 . ... : B-# 03 3 ... : ... .. . ... : C-1 01 . ... : G-4 11 . ... : ... .. . ...
ROW 31 : ... .. . ... : ... .. . ... : --- .. . ... : ... .. . ... : ... .. . ... : --- .. . ... : ... .. . ... : ... .. . ...
ROW 32 : D#4 0D . ... : G-4 0D . ... : C-2 00 . ... : 9-# 03 5 ... : ... .. . ... : C-1 01 . ... : ... .. . ... : ... .. . ...
ROW 33 : ... .. . ... : ... .. . ... : --- .. . ... : ... .. . ... : ... .. . ... : --- .. . ... : ... .. . ... : ... .. . ...
ROW 34 : C-4 0D . ... : D#4 0D . ... : C-2 00 . ... : B-# 03 7 ... : ... .. . ... : C-1 01 . ... : ... .. . ... : ... .. . ...
ROW 35 : ... .. . ... : ... .. . ... : --- .. . ... : ... .. . ... : ... .. . ... : --- .. . ... : ... .. . ... : ... .. . ...
ROW 36 : G-3 0D . ... : C-4 0D . ... : C-2 00 . ... : 9-# 03 9 ... : ... .. . ... : C-1 01 . ... : ... .. . ... : ... .. . ...
ROW 37 : ... .. . ... : ... .. . ... : --- .. . ... : ... .. . ... : ... .. . ... : --- .. . ... : ... .. . ... : ... .. . ...
ROW 38 : D#3 0D . ... : G-3 0D . ... : C-2 00 . ... : 1-# 03 F ... : ... .. . ... : C-1 01 . ... : D#4 11 . ... : ... .. . ...
ROW 39 : ... .. . ... : ... .. . ... : --- .. . ... : ... .. . ... : ... .. . ... : --- .. . ... : ... .. . ... : ... .. . ...
ROW 3A : C-3 0D . ... : D#3 0D . ... : C-2 00 . ... : A-# 03 4 ... : ... .. . ... : C-1 01 . ... : ... .. . ... : ... .. . ...
ROW 3B : ... .. . ... : ... .. . ... : --- .. . ... : ... .. . ... : ... .. . ... : --- .. . ... : ... .. . ... : ... .. . ...
ROW 3C : G-2 0D . ... : C-3 0D . ... : C-2 00 . ... : C-# 03 6 ... : ... .. . ... : C-1 01 . ... : ... .. . ... : ... .. . ...
ROW 3D : ... .. . ... : ... .. . ... : --- .. . ... : C-# 03 7 ... : ... .. . ... : --- .. . ... : ... .. . ... : ... .. . ...
ROW 3E : D#2 0D . ... : G-2 0D . ... : C-2 00 . ... : 7-# 03 8 ... : ... .. . ... : C-1 01 . ... : ... .. . ... : ... .. . ...
ROW 3F : ... .. . ... : ... .. . ... : --- .. . ... : 7-# 03 9 ... : ... .. . ... : --- .. . ... : ... .. . ... : ... .. . ...
ROW 40 : C-2 0D . ... : D#2 0D . ... : F-2 00 . ... : 9-# 03 A ... : ... .. . ... : F-1 01 . ... : G#4 11 . ... : G#1 01 1 ...
ROW 41 : ... .. . ... : ... .. . ... : --- .. . ... : ... .. . ... : ... .. . ... : --- .. . ... : ... .. . ... : ... .. . ...
ROW 42 : F-2 0D . ... : C-2 0D . ... : F-2 00 . ... : D-# 03 8 ... : ... .. . ... : F-1 01 . ... : ... .. . ... : ... .. 2 ...
ROW 43 : ... .. . ... : ... .. . ... : --- .. . ... : ... .. . ... : ... .. . ... : --- .. . ... : ... .. . ... : ... .. . ...
ROW 44 : G#2 0D . ... : F-2 0D . ... : F-2 00 . ... : ... .. . ... : ... .. . ... : F-1 01 . ... : ... .. . ... : ... .. 3 ...
ROW 45 : ... .. . ... : ... .. . ... : --- .. . ... : ... .. . ... : ... .. . ... : --- .. . ... : ... .. . ... : ... .. . ...
ROW 46 : C-3 0D . ... : G#2 0D . ... : F-2 00 . ... : D-# 03 5 ... : ... .. . ... : F-1 01 . ... : ... .. . ... : ... .. 4 ...
ROW 47 : ... .. . ... : ... .. . ... : --- .. . ... : ... .. . ... : ... .. . ... : --- .. . ... : ... .. . ... : ... .. . ...
ROW 48 : F-3 0D . ... : C-3 0D . ... : F-2 00 . ... : 1-# 03 C ... : ... .. . ... : F-1 01 . ... : ... .. . ... : ... .. 5 ...
ROW 49 : ... .. . ... : ... .. . ... : --- .. . ... : ... .. . ... : ... .. . ... : --- .. . ... : ... .. . ... : ... .. . ...
ROW 4A : G#3 0D . ... : F-3 0D . ... : F-2 00 . ... : D-# 03 7 ... : ... .. . ... : F-1 01 . ... : ... .. . ... : ... .. . ...
ROW 4B : ... .. . ... : ... .. . ... : --- .. . ... : F-# 03 6 ... : ... .. . ... : --- .. . ... : ... .. . ... : ... .. . ...
ROW 4C : C-4 0D . ... : G#3 0D . ... : F-2 00 . ... : B-# 03 5 ... : ... .. . ... : F-1 01 . ... : G#4 11 . ... : ... .. . ...
ROW 4D : ... .. . ... : ... .. . ... : --- .. . ... : 0-# 03 6 ... : ... .. . ... : --- .. . ... : ... .. . ... : ... .. . ...
ROW 4E : F-4 0D . ... : C-4 0D . ... : F-2 00 . ... : 0-# 03 7 ... : ... .. . ... : F-1 01 . ... : G-4 11 . ... : ... .. . ...
ROW 4F : ... .. . ... : ... .. . ... : --- .. . ... : ... .. . ... : ... .. . ... : --- .. . ... : ... .. . ... : ... .. . ...
ROW 50 : G#4 0D . ... : F-4 0D . ... : F-2 00 . ... : B-# 03 3 ... : ... .. . ... : F-1 01 . ... : F-4 11 . ... : ... .. . ...
ROW 51 : ... .. . ... : ... .. . ... : --- .. . ... : ... .. . ... : ... .. . ... : --- .. . ... : ... .. . ... : ... .. . ...
ROW 52 : F-4 0D . ... : G#4 0D . ... : F-2 00 . ... : 9-# 03 5 ... : ... .. . ... : F-1 01 . ... : ... .. . ... : ... .. . ...
ROW 53 : ... .. . ... : ... .. . ... : --- .. . ... : ... .. . ... : ... .. . ... : --- .. . ... : ... .. . ... : ... .. . ...
ROW 54 : C-4 0D . ... : F-4 0D . ... : F-2 00 . ... : B-# 03 7 ... : ... .. . ... : F-1 01 . ... : D-4 11 . ... : ... .. . ...
ROW 55 : ... .. . ... : ... .. . ... : --- .. . ... : ... .. . ... : ... .. . ... : --- .. . ... : ... .. . ... : ... .. . ...
ROW 56 : G#3 0D . ... : C-4 0D . ... : F-2 00 . ... : 9-# 03 9 ... : ... .. . ... : F-1 01 . ... : ... .. . ... : ... .. . ...
ROW 57 : ... .. . ... : ... .. . ... : --- .. . ... : ... .. . ... : ... .. . ... : --- .. . ... : ... .. . ... : ... .. . ...
ROW 58 : F-3 0D . ... : G#3 0D . ... : F-2 00 . ... : 1-# 03 F ... : ... .. . ... : F-1 01 . ... : D-4 11 . ... : ... .. . ...
ROW 59 : ... .. . ... : ... .. . ... : --- .. . ... : ... .. . ... : ... .. . ... : --- .. . ... : ... .. . ... : ... .. . ...
ROW 5A : C-3 0D . ... : F-3 0D . ... : F-2 00 . ... : A-# 03 4 ... : ... .. . ... : F-1 01 . ... : ... .. . ... : ... .. . ...
ROW 5B : ... .. . ... : ... .. . ... : --- .. . ... : ... .. . ... : ... .. . ... : --- .. . ... : ... .. . ... : ... .. . ...
ROW 5C : G#2 0D . ... : C-3 0D . ... : F-2 00 . ... : C-# 03 6 ... : ... .. . ... : F-1 01 . ... : F-4 11 . ... : ... .. . ...
ROW 5D : ... .. . ... : ... .. . ... : --- .. . ... : C-# 03 7 ... : ... .. . ... : --- .. . ... : ... .. . ... : ... .. . ...
ROW 5E : F-2 0D . ... : G#2 0D . ... : F-2 00 . ... : 7-# 03 8 ... : ... .. . ... : F-1 01 . ... : ... .. . ... : ... .. . ...
ROW 5F : ... .. . ... : ... .. . ... : --- .. . ... : 7-# 03 9 ... : ... .. . ... : --- .. . ... : ... .. . ... : ... .. . ...
ROW 60 : C-2 0D . ... : F-2 0D . ... : G#2 00 . ... : 9-# 03 A ... : ... .. . ... : G#0 01 . ... : G#4 11 . ... : ... .. . ...
ROW 61 : ... .. . ... : ... .. . ... : --- .. . ... : ... .. . ... : ... .. . ... : --- .. . ... : ... .. . ... : ... .. . ...
ROW 62 : F-2 0D . ... : C-2 0D . ... : G#2 00 . ... : D-# 03 8 ... : ... .. . ... : G#0 01 . ... : ... .. . ... : ... .. . ...
ROW 63 : ... .. . ... : ... .. . ... : --- .. . ... : ... .. . ... : ... .. . ... : --- .. . ... : ... .. . ... : ... .. . ...
ROW 64 : G#2 0D . ... : F-2 0D . ... : G#2 00 . ... : ... .. . ... : ... .. . ... : G#0 01 . ... : G-4 11 . ... : ... .. . ...
ROW 65 : ... .. . ... : ... .. . ... : --- .. . ... : ... .. . ... : ... .. . ... : --- .. . ... : ... .. . ... : ... .. . ...
ROW 66 : C-3 0D . ... : G#2 0D . ... : G#2 00 . ... : D-# 03 5 ... : ... .. . ... : G#0 01 . ... : ... .. . ... : ... .. . ...
ROW 67 : ... .. . ... : ... .. . ... : --- .. . ... : ... .. . ... : ... .. . ... : --- .. . ... : ... .. . ... : ... .. . ...
ROW 68 : F-3 0D . ... : C-3 0D . ... : G#2 00 . ... : 1-# 03 C ... : ... .. . ... : G#0 01 . ... : F-4 11 . ... : ... .. . ...
ROW 69 : ... .. . ... : ... .. . ... : --- .. . ... : ... .. . ... : ... .. . ... : --- .. . ... : ... .. . ... : ... .. . ...
ROW 6A : G#3 0D . ... : F-3 0D . ... : G#2 00 . ... : D-# 03 7 ... : ... .. . ... : G#0 01 . ... : ... .. . ... : ... .. . ...
ROW 6B : ... .. . ... : ... .. . ... : --- .. . ... : F-# 03 6 ... : ... .. . ... : --- .. . ... : ... .. . ... : ... .. . ...
ROW 6C : C-4 0D . ... : G#3 0D . ... : G#2 00 . ... : B-# 03 5 ... : ... .. . ... : G#0 01 . ... : G-4 11 . ... : ... .. . ...
ROW 6D : ... .. . ... : ... .. . ... : --- .. . ... : 0-# 03 6 ... : ... .. . ... : --- .. . ... : ... .. . ... : ... .. . ...
ROW 6E : F-4 0D . ... : C-4 0D . ... : G#2 00 . ... : 0-# 03 7 ... : ... .. . ... : G#0 01 . ... : ... .. . ... : ... .. . ...
ROW 6F : ... .. . ... : ... .. . ... : --- .. . ... : ... .. . ... : ... .. . ... : --- .. . ... : ... .. . ... : ... .. . ...
ROW 70 : G#4 0D . ... : F-4 0D . ... : G#2 00 . ... : B-# 03 3 ... : ... .. . ... : G#0 01 . ... : G-4 11 . ... : ... .. . ...
ROW 71 : ... .. . ... : ... .. . ... : --- .. . ... : ... .. . ... : ... .. . ... : --- .. . ... : ... .. . ... : ... .. . ...
ROW 72 : F-4 0D . ... : G#4 0D . ... : G#2 00 . ... : 9-# 03 5 ... : ... .. . ... : G#0 01 . ... : ... .. . ... : ... .. . ...
ROW 73 : ... .. . ... : ... .. . ... : --- .. . ... : ... .. . ... : ... .. . ... : --- .. . ... : ... .. . ... : ... .. . ...
ROW 74 : C-4 0D . ... : F-4 0D . ... : G#2 00 . ... : B-# 03 7 ... : ... .. . ... : G#0 01 . ... : D-4 11 . ... : ... .. . ...
ROW 75 : ... .. . ... : ... .. . ... : --- .. . ... : ... .. . ... : ... .. . ... : --- .. . ... : ... .. . ... : ... .. . ...
ROW 76 : G#3 0D . ... : C-4 0D . ... : G#2 00 . ... : 9-# 03 9 ... : ... .. . ... : G#0 01 . ... : ... .. . ... : ... .. . ...
ROW 77 : ... .. . ... : ... .. . ... : --- .. . ... : ... .. . ... : ... .. . ... : --- .. . ... : ... .. . ... : ... .. . ...
ROW 78 : F-3 0D . ... : G#3 0D . ... : G#2 00 . ... : 1-# 03 F ... : ... .. . ... : G#0 01 . ... : D-4 11 . ... : ... .. . ...
ROW 79 : ... .. . ... : ... .. . ... : --- .. . ... : ... .. . ... : ... .. . ... : --- .. . ... : ... .. . ... : ... .. . ...
ROW 7A : C-3 0D . ... : F-3 0D . ... : G#2 00 . ... : A-# 03 4 ... : ... .. . ... : G#0 01 . ... : ... .. . ... : ... .. . ...
ROW 7B : ... .. . ... : ... .. . ... : --- .. . ... : ... .. . ... : ... .. . ... : --- .. . ... : ... .. . ... : ... .. . ...
ROW 7C : G#2 0D . ... : C-3 0D . ... : G#2 00 . ... : C-# 03 6 ... : ... .. . ... : G#0 01 . ... : D#4 11 . ... : ... .. . ...
ROW 7D : ... .. . ... : ... .. . ... : --- .. . ... : C-# 03 7 ... : ... .. . ... : --- .. . ... : ... .. . ... : ... .. . ...
ROW 7E : F-2 0D . ... : G#2 0D . ... : G#2 00 . ... : 7-# 03 8 ... : ... .. . ... : G#0 01 . ... : F-4 11 . ... : ... .. . ...
ROW 7F : ... .. . ... : ... .. . ... : --- .. . ... : 7-# 03 9 ... : ... .. . ... : --- .. . ... : ... .. . ... : ... .. . ...

PATTERN 04
ROW 00 : C-2 0D F ... : ... .. . ... : B-1 00 . ... : 2-# 03 C ... : ... .. . ... : C-1 01 8 ... : D#4 11 F ... : C-4 07 C ...
ROW 01 : ... .. . ... : ... .. . ... : --- .. . ... : ... .. . ... : ... .. . ... : --- .. . ... : ... .. . ... : ... .. . ...
ROW 02 : D#2 0D . ... : C-2 0D 4 ... : B-1 00 . ... : B-# 03 8 ... : ... .. . ... : C-1 01 . ... : ... .. . ... : ... .. . ...
ROW 03 : ... .. . ... : ... .. . ... : --- .. . ... : ... .. . ... : ... .. . ... : --- .. . ... : ... .. . ... : ... .. . ...
ROW 04 : G-2 0D . ... : D#2 0D . ... : B-1 00 . ... : ... .. . ... : ... .. . ... : C-1 01 . ... : D-4 11 . ... : A#3 07 . ...
ROW 05 : ... .. . ... : ... .. . ... : --- .. . ... : ... .. . ... : ... .. . ... : --- .. . ... : ... .. . ... : ... .. . ...
ROW 06 : C-3 0D . ... : G-2 0D . ... : B-1 00 . ... : B-# 03 5 ... : ... .. . ... : C-1 01 . ... : ... .. . ... : ... .. . ...
ROW 07 : ... .. . ... : ... .. . ... : --- .. . ... : ... .. . ... : ... .. . ... : --- .. . ... : ... .. . ... : ... .. . ...
ROW 08 : D#3 0D . ... : C-3 0D . ... : B-1 00 . ... : F-# 03 C ... : ... .. . ... : C-1 01 . ... : C-4 11 . ... : G-3 07 . ...
ROW 09 : ... .. . ... : ... .. . ... : --- .. . ... : ... .. . ... : ... .. . ... : --- .. . ... : ... .. . ... : ... .. . ...
ROW 0A : G-3 0D . ... : D#3 0D . ... : B-1 00 . ... : B-# 03 7 ... : ... .. . ... : C-1 01 . ... : ... .. . ... : ... .. . ...
ROW 0B : ... .. . ... : ... .. . ... : --- .. . ... : D-# 03 6 ... : ... .. . ... : --- .. . ... : ... .. . ... : ... .. . ...
ROW 0C : C-4 0D . ... : G-3 0D . ... : B-1 00 . ... : 9-# 03 5 ... : ... .. . ... : C-1 01 . ... : G-3 11 . ... : D#3 07 . ...
ROW 0D : ... .. . ... : ... .. . ... : --- .. . ... : E-# 03 6 ... : ... .. . ... : --- .. . ... : ... .. . ... : ... .. . ...
ROW 0E : D#4 0D . ... : C-4 0D . ... : B-1 00 . ... : E-# 03 7 ... : ... .. . ... : C-1 01 . ... : ... .. . ... : ... .. . ...
ROW 0F : ... .. . ... : ... .. . ... : --- .. . ... : ... .. . ... : ... .. . ... : --- .. . ... : ... .. . ... : ... .. . ...
ROW 10 : G-4 0D . ... : D#4 0D . ... : B-1 00 . ... : 9-# 03 3 ... : ... .. . ... : C-1 01 . ... : ... .. . ... : ... .. . ...
ROW 11 : ... .. . ... : ... .. . ... : --- .. . ... : ... .. . ... : ... .. . ... : --- .. . ... : ... .. . ... : ... .. . ...
ROW 12 : D#4 0D . ... : G-4 0D . ... : B-1 00 . ... : 7-# 03 5 ... : ... .. . ... : C-1 01 . ... : ... .. . ... : ... .. . ...
ROW 13 : ... .. . ... : ... .. . ... : --- .. . ... : ... .. . ... : ... .. . ... : --- .. . ... : ... .. . ... : ... .. . ...
ROW 14 : C-4 0D . ... : D#4 0D . ... : B-1 00 . ... : 9-# 03 7 ... : ... .. . ... : C-1 01 . ... : C-4 11 . ... : === .. . ...
ROW 15 : ... .. . ... : ... .. . ... : --- .. . ... : ... .. . ... : ... .. . ... : --- .. . ... : ... .. . ... : ... .. . ...
ROW 16 : G-3 0D . ... : C-4 0D . ... : B-1 00 . ... : 7-# 03 9 ... : ... .. . ... : C-1 01 . ... : ... .. . ... : ... .. . ...
ROW 17 : ... .. . ... : ... .. . ... : --- .. . ... : ... .. . ... : ... .. . ... : --- .. . ... : ... .. . ... : ... .. . ...
ROW 18 : D#3 0D . ... : G-3 0D . ... : B-1 00 . ... : F-# 03 F ... : ... .. . ... : C-1 01 . ... : D-4 11 . ... : ... .. . ...
ROW 19 : ... .. . ... : ... .. . ... : --- .. . ... : ... .. . ... : ... .. . ... : --- .. . ... : ... .. . ... : ... .. . ...
ROW 1A : C-3 0D . ... : D#3 0D . ... : B-1 00 . ... : 8-# 03 4 ... : ... .. . ... : C-1 01 . ... : ... .. . ... : ... .. . ...
ROW 1B : ... .. . ... : ... .. . ... : --- .. . ... : ... .. . ... : ... .. . ... : --- .. . ... : ... .. . ... : ... .. . ...
ROW 1C : G-2 0D . ... : C-3 0D . ... : B-1 00 . ... : A-# 03 6 ... : ... .. . ... : C-1 01 . ... : D#4 11 . ... : ... .. . ...
ROW 1D : ... .. . ... : ... .. . ... : --- .. . ... : A-# 03 7 ... : ... .. . ... : --- .. . ... : ... .. . ... : ... .. . ...
ROW 1E : D#2 0D . ... : G-2 0D . ... : B-1 00 . ... : 5-# 03 8 ... : ... .. . ... : C-1 01 . ... : ... .. . ... : ... .. . ...
ROW 1F : ... .. . ... : ... .. . ... : --- .. . ... : 5-# 03 9 ... : ... .. . ... : --- .. . ... : ... .. . ... : ... .. . ...
ROW 20 : C-2 0D . ... : D#2 0D . ... : B-1 00 . ... : 7-# 03 A ... : ... .. . ... : C-1 01 . ... : G-4 11 . ... : D#4 07 . ...
ROW 21 : ... .. . ... : ... .. . ... : --- .. . ... : ... .. . ... : ... .. . ... : --- .. . ... : ... .. . ... : ... .. . ...
ROW 22 : D#2 0D . ... : C-2 0D . ... : B-1 00 . ... : B-# 03 8 ... : ... .. . ... : C-1 01 . ... : ... .. . ... : ... .. . ...
ROW 23 : ... .. . ... : ... .. . ... : --- .. . ... : ... .. . ... : ... .. . ... : --- .. . ... : ... .. . ... : ... .. . ...
ROW 24 : G-2 0D . ... : D#2 0D . ... : B-1 00 . ... : ... .. . ... : ... .. . ... : C-1 01 . ... : ... .. . ... : ... .. . ...
ROW 25 : ... .. . ... : ... .. . ... : --- .. . ... : ... .. . ... : ... .. . ... : --- .. . ... : ... .. . ... : ... .. . ...
ROW 26 : C-3 0D . ... : G-2 0D . ... : B-1 00 . ... : B-# 03 5 ... : ... .. . ... : C-1 01 . ... : ... .. . ... : ... .. . ...
ROW 27 : ... .. . ... : ... .. . ... : --- .. . ... : ... .. . ... : ... .. . ... : --- .. . ... : ... .. . ... : ... .. . ...
ROW 28 : D#3 0D . ... : C-3 0D . ... : B-1 00 . ... : F-# 03 C ... : ... .. . ... : C-1 01 . ... : G#4 11 . ... : ... .. . ...
ROW 29 : ... .. . ... : ... .. . ... : --- .. . ... : ... .. . ... : ... .. . ... : --- .. . ... : ... .. . ... : ... .. . ...
ROW 2A : G-3 0D . ... : D#3 0D . ... : B-1 00 . ... : B-# 03 7 ... : ... .. . ... : C-1 01 . ... : ... .. . ... : ... .. . ...
ROW 2B : ... .. . ... : ... .. . ... : --- .. . ... : D-# 03 6 ... : ... .. . ... : --- .. . ... : ... .. . ... : ... .. . ...
ROW 2C : C-4 0D . ... : G-3 0D . ... : B-1 00 . ... : 9-# 03 5 ... : ... .. . ... : C-1 01 . ... : ... .. . ... : ... .. . ...
ROW 2D : ... .. . ... : ... .. . ... : --- .. . ... : E-# 03 6 ... : ... .. . ... : --- .. . ... : ... .. . ... : ... .. . ...
ROW 2E : D#4 0D . ... : C-4 0D . ... : B-1 00 . ... : E-# 03 7 ... : ... .. . ... : C-1 01 . ... : ... .. . ... : ... .. . ...
ROW 2F : ... .. . ... : ... .. . ... : --- .. . ... : ... .. . ... : ... .. . ... : --- .. . ... : ... .. . ... : ... .. . ...
ROW 30 : G-4 0D . ... : D#4 0D . ... : B-1 00 . ... : 9-# 03 3 ... : ... .. . ... : C-1 01 . ... : G-4 11 . ... : C-4 07 . ...
ROW 31 : ... .. . ... : ... .. . ... : --- .. . ... : ... .. . ... : ... .. . ... : --- .. . ... : ... .. . ... : ... .. . ...
ROW 32 : D#4 0D . ... : G-4 0D . ... : B-1 00 . ... : 7-# 03 5 ... : ... .. . ... : C-1 01 . ... : F-4 11 . ... : ... .. . ...
ROW 33 : ... .. . ... : ... .. . ... : --- .. . ... : ... .. . ... : ... .. . ... : --- .. . ... : ... .. . ... : ... .. . ...
ROW 34 : C-4 0D . ... : D#4 0D . ... : B-1 00 . ... : 9-# 03 7 ... : ... .. . ... : C-1 01 . ... : D#4 11 . ... : ... .. . ...
ROW 35 : ... .. . ... : ... .. . ... : --- .. . ... : ... .. . ... : ... .. . ... : --- .. . ... : ... .. . ... : ... .. . ...
ROW 36 : G-3 0D . ... : C-4 0D . ... : B-1 00 . ... : 7-# 03 9 ... : ... .. . ... : C-1 01 . ... : D-4 11 . ... : ... .. . ...
ROW 37 : ... .. . ... : ... .. . ... : --- .. . ... : ... .. . ... : ... .. . ... : --- .. . ... : ... .. . ... : ... .. . ...
ROW 38 : D#3 0D . ... : G-3 0D . ... : B-1 00 . ... : F-# 03 F ... : ... .. . ... : C-1 01 . ... : D#4 11 . ... : === .. . ...
ROW 39 : ... .. . ... : ... .. . ... : --- .. . ... : ... .. . ... : ... .. . ... : --- .. . ... : ... .. . ... : ... .. . ...
ROW 3A : C-3 0D . ... : D#3 0D . ... : B-1 00 . ... : 8-# 03 4 ... : ... .. . ... : C-1 01 . ... : D-4 11 . ... : ... .. . ...
ROW 3B : ... .. . ... : ... .. . ... : --- .. . ... : ... .. . ... : ... .. . ... : --- .. . ... : ... .. . ... : ... .. . ...
ROW 3C : G-2 0D . ... : C-3 0D . ... : B-1 00 . ... : A-# 03 6 ... : ... .. . ... : C-1 01 . ... : C-4 11 . ... : ... .. . ...
ROW 3D : ... .. . ... : ... .. . ... : --- .. . ... : A-# 03 7 ... : ... .. . ... : --- .. . ... : ... .. . ... : ... .. . ...
ROW 3E : D#2 0D . ... : G-2 0D . ... : B-1 00 . ... : 5-# 03 8 ... : ... .. . ... : C-1 01 . ... : D#4 11 . ... : ... .. . ...
ROW 3F : ... .. . ... : ... .. . ... : --- .. . ... : 5-# 03 9 ... : ... .. . ... : --- .. . ... : ... .. . ... : ... .. . ...
ROW 40 : C-2 0D . ... : D#2 0D . ... : E-2 00 . ... : 7-# 03 A ... : ... .. . ... : F-1 01 . ... : F-4 11 . ... : G#3 07 . ...
ROW 41 : ... .. . ... : ... .. . ... : --- .. . ... : ... .. . ... : ... .. . ... : --- .. . ... : ... .. . ... : ... .. . ...
ROW 42 : F-2 0D . ... : C-2 0D . ... : E-2 00 . ... : B-# 03 8 ... : ... .. . ... : F-1 01 . ... : ... .. . ... : ... .. . ...
ROW 43 : ... .. . ... : ... .. . ... : --- .. . ... : ... .. . ... : ... .. . ... : --- .. . ... : ... .. . ... : ... .. . ...
ROW 44 : G#2 0D . ... : F-2 0D . ... : E-2 00 . ... : ... .. . ... : ... .. . ... : F-1 01 . ... : ... .. . ... : ... .. . ...
ROW 45 : ... .. . ... : ... .. . ... : --- .. . ... : ... .. . ... : ... .. . ... : --- .. . ... : ... .. . ... : ... .. . ...
ROW 46 : C-3 0D . ... : G#2 0D . ... : E-2 00 . ... : B-# 03 5 ... : ... .. . ... : F-1 01 . ... : C-4 11 . ... : ... .. . ...
ROW 47 : ... .. . ... : ... .. . ... : --- .. . ... : ... .. . ... : ... .. . ... : --- .. . ... : ... .. . ... : ... .. . ...
ROW 48 : F-3 0D . ... : C-3 0D . ... : E-2 00 . ... : F-# 03 C ... : ... .. . ... : F-1 01 . ... : ... .. . ... : ... .. . ...
ROW 49 : ... .. . ... : ... .. . ... : --- .. . ... : ... .. . ... : ... .. . ... : --- .. . ... : ... .. . ... : ... .. . ...
ROW 4A : G#3 0D . ... : F-3 0D . ... : E-2 00 . ... : B-# 03 7 ... : ... .. . ... : F-1 01 . ... : ... .. . ... : ... .. . ...
ROW 4B : ... .. . ... : ... .. . ... : --- .. . ... : D-# 03 6 ... : ... .. . ... : --- .. . ... : ... .. . ... : ... .. . ...
ROW 4C : C-4 0D . ... : G#3 0D . ... : E-2 00 . ... : 9-# 03 5 ... : ... .. . ... : F-1 01 . ... : F-4 11 . ... : C-3 07 . ...
ROW 4D : ... .. . ... : ... .. . ... : --- .. . ... : E-# 03 6 ... : ... .. . ... : --- .. . ... : ... .. . ... : ... .. . ...
ROW 4E : F-4 0D . ... : C-4 0D . ... : E-2 00 . ... : E-# 03 7 ... : ... .. . ... : F-1 01 . ... : ... .. . ... : ... .. . ...
ROW 4F : ... .. . ... : ... .. . ... : --- .. . ... : ... .. . ... : ... .. . ... : --- .. . ... : ... .. . ... : ... .. . ...
ROW 50 : G#4 0D . ... : F-4 0D . ... : E-2 00 . ... : 9-# 03 3 ... : ... .. . ... : F-1 01 . ... : F-4 11 . ... : ... .. . ...
ROW 51 : ... .. . ... : ... .. . ... : --- .. . ... : ... .. . ... : ... .. . ... : --- .. . ... : ... .. . ... : ... .. . ...
ROW 52 : F-4 0D . ... : G#4 0D . ... : E-2 00 . ... : 7-# 03 5 ... : ... .. . ... : F-1 01 . ... : ... .. . ... : ... .. . ...
ROW 53 : ... .. . ... : ... .. . ... : --- .. . ... : ... .. . ... : ... .. . ... : --- .. . ... : ... .. . ... : ... .. . ...
ROW 54 : C-4 0D . ... : F-4 0D . ... : E-2 00 . ... : 9-# 03 7 ... : ... .. . ... : F-1 01 . ... : ... .. . ... : ... .. . ...
ROW 55 : ... .. . ... : ... .. . ... : --- .. . ... : ... .. . ... : ... .. . ... : --- .. . ... : ... .. . ... : ... .. . ...
ROW 56 : G#3 0D . ... : C-4 0D . ... : E-2 00 . ... : 7-# 03 9 ... : ... .. . ... : F-1 01 . ... : G-4 11 . ... : ... .. . ...
ROW 57 : ... .. . ... : ... .. . ... : --- .. . ... : ... .. . ... : ... .. . ... : --- .. . ... : ... .. . ... : === .. . ...
ROW 58 : F-3 0D . ... : G#3 0D . ... : E-2 00 . ... : F-# 03 F ... : ... .. . ... : F-1 01 . ... : ... .. . ... : ... .. . ...
ROW 59 : ... .. . ... : ... .. . ... : --- .. . ... : ... .. . ... : ... .. . ... : --- .. . ... : ... .. . ... : ... .. . ...
ROW 5A : C-3 0D . ... : F-3 0D . ... : E-2 00 . ... : 8-# 03 4 ... : ... .. . ... : F-1 01 . ... : ... .. . ... : ... .. . ...
ROW 5B : ... .. . ... : ... .. . ... : --- .. . ... : ... .. . ... : ... .. . ... : --- .. . ... : ... .. . ... : ... .. . ...
ROW 5C : G#2 0D . ... : C-3 0D . ... : E-2 00 . ... : A-# 03 6 ... : ... .. . ... : F-1 01 . ... : G#4 11 . ... : ... .. . ...
ROW 5D : ... .. . ... : ... .. . ... : --- .. . ... : A-# 03 7 ... : ... .. . ... : --- .. . ... : ... .. . ... : ... .. . ...
ROW 5E : F-2 0D . ... : G#2 0D . ... : E-2 00 . ... : 5-# 03 8 ... : ... .. . ... : F-1 01 . ... : ... .. . ... : ... .. . ...
ROW 5F : ... .. . ... : ... .. . ... : --- .. . ... : 5-# 03 9 ... : ... .. . ... : --- .. . ... : ... .. . ... : ... .. . ...
ROW 60 : C-2 0D . ... : F-2 0D . ... : G-2 00 . ... : 7-# 03 A ... : ... .. . ... : G#0 01 . ... : G#4 11 . ... : F-3 07 . ...
ROW 61 : ... .. . ... : ... .. . ... : --- .. . ... : ... .. . ... : ... .. . ... : --- .. . ... : ... .. . ... : ... .. . ...
ROW 62 : F-2 0D . ... : C-2 0D . ... : G-2 00 . ... : B-# 03 8 ... : ... .. . ... : G#0 01 . ... : ... .. . ... : ... .. . ...
ROW 63 : ... .. . ... : ... .. . ... : --- .. . ... : ... .. . ... : ... .. . ... : --- .. . ... : ... .. . ... : ... .. . ...
ROW 64 : G#2 0D . ... : F-2 0D . ... : G-2 00 . ... : ... .. . ... : ... .. . ... : G#0 01 . ... : ... .. . ... : ... .. . ...
ROW 65 : ... .. . ... : ... .. . ... : --- .. . ... : ... .. . ... : ... .. . ... : --- .. . ... : ... .. . ... : ... .. . ...
ROW 66 : C-3 0D . ... : G#2 0D . ... : G-2 00 . ... : B-# 03 5 ... : ... .. . ... : G#0 01 . ... : G-4 11 . ... : ... .. . ...
ROW 67 : ... .. . ... : ... .. . ... : --- .. . ... : ... .. . ... : ... .. . ... : --- .. . ... : ... .. . ... : ... .. . ...
ROW 68 : F-3 0D . ... : C-3 0D . ... : G-2 00 . ... : F-# 03 C ... : ... .. . ... : G#0 01 . ... : ... .. . ... : ... .. . ...
ROW 69 : ... .. . ... : ... .. . ... : --- .. . ... : ... .. . ... : ... .. . ... : --- .. . ... : ... .. . ... : ... .. . ...
ROW 6A : G#3 0D . ... : F-3 0D . ... : G-2 00 . ... : B-# 03 7 ... : ... .. . ... : G#0 01 . ... : ... .. . ... : ... .. . ...
ROW 6B : ... .. . ... : ... .. . ... : --- .. . ... : D-# 03 6 ... : ... .. . ... : --- .. . ... : ... .. . ... : ... .. . ...
ROW 6C : C-4 0D . ... : G#3 0D . ... : G-2 00 . ... : 9-# 03 5 ... : ... .. . ... : G#0 01 . ... : F-4 11 . ... : F-3 07 . ...
ROW 6D : ... .. . ... : ... .. . ... : --- .. . ... : E-# 03 6 ... : ... .. . ... : --- .. . ... : ... .. . ... : ... .. . ...
ROW 6E : F-4 0D . ... : C-4 0D . ... : G-2 00 . ... : E-# 03 7 ... : ... .. . ... : G#0 01 . ... : ... .. . ... : G-3 07 . ...
ROW 6F : ... .. . ... : ... .. . ... : --- .. . ... : ... .. . ... : ... .. . ... : --- .. . ... : ... .. . ... : ... .. . ...
ROW 70 : G#4 0D . ... : F-4 0D . ... : G-2 00 . ... : 9-# 03 3 ... : ... .. . ... : G#0 01 . ... : D#4 11 . ... : G#3 07 . ...
ROW 71 : ... .. . ... : ... .. . ... : --- .. . ... : ... .. . ... : ... .. . ... : --- .. . ... : ... .. . ... : ... .. . ...
ROW 72 : F-4 0D . ... : G#4 0D . ... : G-2 00 . ... : 7-# 03 5 ... : ... .. . ... : G#0 01 . ... : ... .. . ... : G-3 07 . ...
ROW 73 : ... .. . ... : ... .. . ... : --- .. . ... : ... .. . ... : ... .. . ... : --- .. . ... : ... .. . ... : ... .. . ...
ROW 74 : C-4 0D . ... : F-4 0D . ... : G-2 00 . ... : 9-# 03 7 ... : ... .. . ... : G#0 01 . ... : D-4 11 . ... : F-3 07 . ...
ROW 75 : ... .. . ... : ... .. . ... : --- .. . ... : ... .. . ... : ... .. . ... : --- .. . ... : ... .. . ... : ... .. . ...
ROW 76 : G#3 0D . ... : C-4 0D . ... : G-2 00 . ... : 7-# 03 9 ... : ... .. . ... : G#0 01 . ... : ... .. . ... : D#3 07 . ...
ROW 77 : ... .. . ... : ... .. . ... : --- .. . ... : ... .. . ... : ... .. . ... : --- .. . ... : ... .. . ... : ... .. . ...
ROW 78 : F-3 0D . ... : G#3 0D . ... : G-2 00 . ... : F-# 03 F ... : ... .. . ... : G#0 01 . ... : D-4 11 . ... : D-3 07 . ...
ROW 79 : ... .. . ... : ... .. . ... : --- .. . ... : ... .. . ... : ... .. . ... : --- .. . ... : ... .. . ... : ... .. . ...
ROW 7A : C-3 0D . ... : F-3 0D . ... : G-2 00 . ... : 8-# 03 4 ... : ... .. . ... : G#0 01 . ... : ... .. . ... : D#3 07 . ...
ROW 7B : ... .. . ... : ... .. . ... : --- .. . ... : ... .. . ... : ... .. . ... : --- .. . ... : ... .. . ... : ... .. . ...
ROW 7C : G#2 0D . ... : C-3 0D . ... : G-2 00 . ... : A-# 03 6 ... : ... .. . ... : G#0 01 . ... : D#4 11 . ... : D-3 07 . ...
ROW 7D : ... .. . ... : ... .. . ... : --- .. . ... : A-# 03 7 ... : ... .. . ... : --- .. . ... : ... .. . ... : ... .. . ...
ROW 7E : F-2 0D . ... : G#2 0D . ... : G-2 00 . ... : 5-# 03 8 ... : ... .. . ... : G#0 01 . ... : ... .. . ... : C-3 07 . ...
ROW 7F : ... .. . ... : ... .. . ... : --- .. . ... : 5-# 03 9 ... : ... .. . ... : --- .. . ... : ... .. . ... : ... .. . ...

PATTERN 05
ROW 00 : C-2 0D F ... : ... .. . ... : C-2 00 . ... : 2-# 03 C ... : ... .. . ... : C-1 01 8 ... : D#4 11 F ... : C-3 07 F ...
ROW 01 : ... .. . ... : ... .. . ... : --- .. . ... : ... .. . ... : ... .. . ... : --- .. . ... : ... .. . ... : ... .. . ...
ROW 02 : D#2 0D . ... : C-2 0D 4 ... : C-2 00 . ... : B-# 03 8 ... : ... .. . ... : C-1 01 . ... : ... .. . ... : ... .. . ...
ROW 03 : ... .. . ... : ... .. . ... : --- .. . ... : ... .. . ... : ... .. . ... : --- .. . ... : ... .. . ... : ... .. . ...
ROW 04 : G-2 0D . ... : D#2 0D . ... : C-2 00 . ... : ... .. . ... : ... .. . ... : C-1 01 . ... : ... .. . ... : ... .. . ...
ROW 05 : ... .. . ... : ... .. . ... : --- .. . ... : ... .. . ... : ... .. . ... : --- .. . ... : ... .. . ... : ... .. . ...
ROW 06 : C-3 0D . ... : G-2 0D . ... : C-2 00 . ... : B-# 03 5 ... : ... .. . ... : C-1 01 . ... : C-4 11 E ... : G-3 07 . ...
ROW 07 : ... .. . ... : ... .. . ... : --- .. . ... : ... .. . ... : ... .. . ... : --- .. . ... : ... .. . ... : ... .. . ...
ROW 08 : D#3 0D . ... : C-3 0D . ... : C-2 00 . ... : F-# 03 C ... : ... .. . ... : C-1 01 . ... : ... .. . ... : ... .. . ...
ROW 09 : ... .. . ... : ... .. . ... : --- .. . ... : ... .. . ... : ... .. . ... : --- .. . ... : ... .. . ... : ... .. . ...
ROW 0A : G-3 0D . ... : D#3 0D . ... : C-2 00 . ... : B-# 03 7 ... : ... .. . ... : C-1 01 . ... : ... .. . ... : ... .. . ...
ROW 0B : ... .. . ... : ... .. . ... : --- .. . ... : D-# 03 6 ... : ... .. . ... : --- .. . ... : ... .. . ... : ... .. . ...
ROW 0C : C-4 0D . ... : G-3 0D . ... : C-2 00 . ... : 9-# 03 5 ... : ... .. . ... : C-1 01 . ... : G-3 11 D ... : C-4 07 . ...
ROW 0D : ... .. . ... : ... .. . ... : --- .. . ... : E-# 03 6 ... : ... .. . ... : --- .. . ... : ... .. . ... : ... .. . ...
ROW 0E : D#4 0D . ... : C-4 0D . ... : C-2 00 . ... : E-# 03 7 ... : ... .. . ... : C-1 01 . ... : ... .. . ... : ... .. . ...
ROW 0F : ... .. . ... : ... .. . ... : --- .. . ... : ... .. . ... : ... .. . ... : --- .. . ... : ... .. . ... : ... .. . ...
ROW 10 : G-4 0D . ... : D#4 0D . ... : C-2 00 . ... : 9-# 03 3 ... : ... .. . ... : C-1 01 . ... : C-3 11 C ... : D#4 07 . ...
ROW 11 : ... .. . ... : ... .. . ... : --- .. . ... : ... .. . ... : ... .. . ... : --- .. . ... : ... .. . ... : ... .. . ...
ROW 12 : D#4 0D . ... : G-4 0D . ... : C-2 00 . ... : 7-# 03 5 ... : ... .. . ... : C-1 01 . ... : ... .. . ... : ... .. . ...
ROW 13 : ... .. . ... : ... .. . ... : --- .. . ... : ... .. . ... : ... .. . ... : --- .. . ... : ... .. . ... : ... .. . ...
ROW 14 : C-4 0D . ... : D#4 0D . ... : C-2 00 . ... : 9-# 03 7 ... : ... .. . ... : C-1 01 . ... : D#3 11 B ... : ... .. . ...
ROW 15 : ... .. . ... : ... .. . ... : --- .. . ... : ... .. . ... : ... .. . ... : --- .. . ... : ... .. . ... : ... .. . ...
ROW 16 : G-3 0D . ... : C-4 0D . ... : C-2 00 . ... : 7-# 03 9 ... : ... .. . ... : C-1 01 . ... : ... .. . ... : ... .. . ...
ROW 17 : ... .. . ... : ... .. . ... : --- .. . ... : ... .. . ... : ... .. . ... : --- .. . ... : ... .. . ... : ... .. . ...
ROW 18 : D#3 0D . ... : G-3 0D . ... : C-2 00 . ... : F-# 03 F ... : ... .. . ... : C-1 01 . ... : D#3 11 A ... : D#4 07 . ...
ROW 19 : ... .. . ... : ... .. . ... : --- .. . ... : ... .. . ... : ... .. . ... : --- .. . ... : ... .. . ... : ... .. . ...
ROW 1A : C-3 0D . ... : D#3 0D . ... : C-2 00 . ... : 8-# 03 4 ... : ... .. . ... : C-1 01 . ... : ... .. . ... : ... .. . ...
ROW 1B : ... .. . ... : ... .. . ... : --- .. . ... : ... .. . ... : ... .. . ... : --- .. . ... : ... .. . ... : ... .. . ...
ROW 1C : G-2 0D . ... : C-3 0D . ... : C-2 00 . ... : A-# 03 6 ... : ... .. . ... : C-1 01 . ... : ... .. . ... : F-4 07 . ...
ROW 1D : ... .. . ... : ... .. . ... : --- .. . ... : A-# 03 7 ... : ... .. . ... : --- .. . ... : ... .. . ... : ... .. . ...
ROW 1E : D#2 0D . ... : G-2 0D . ... : C-2 00 . ... : 5-# 03 8 ... : ... .. . ... : C-1 01 . ... : ... .. . ... : ... .. . ...
ROW 1F : ... .. . ... : ... .. . ... : --- .. . ... : 5-# 03 9 ... : ... .. . ... : --- .. . ... : ... .. . ... : ... .. . ...
ROW 20 : C-2 0D . ... : D#2 0D . ... : C-2 00 . ... : 7-# 03 A ... : ... .. . ... : C-1 01 . ... : C-3 11 9 ... : G-4 07 . ...
ROW 21 : ... .. . ... : ... .. . ... : --- .. . ... : ... .. . ... : ... .. . ... : --- .. . ... : ... .. . ... : ... .. . ...
ROW 22 : D#2 0D . ... : C-2 0D . ... : C-2 00 . ... : B-# 03 8 ... : ... .. . ... : C-1 01 . ... : ... .. . ... : ... .. . ...
ROW 23 : ... .. . ... : ... .. . ... : --- .. . ... : ... .. . ... : ... .. . ... : --- .. . ... : ... .. . ... : ... .. . ...
ROW 24 : G-2 0D . ... : D#2 0D . ... : C-2 00 . ... : ... .. . ... : ... .. . ... : C-1 01 . ... : ... .. . ... : ... .. . ...
ROW 25 : ... .. . ... : ... .. . ... : --- .. . ... : ... .. . ... : ... .. . ... : --- .. . ... : ... .. . ... : ... .. . ...
ROW 26 : C-3 0D . ... : G-2 0D . ... : C-2 00 . ... : B-# 03 5 ... : ... .. . ... : C-1 01 . ... : ... .. . ... : D#4 07 . ...
ROW 27 : ... .. . ... : ... .. . ... : --- .. . ... : ... .. . ... : ... .. . ... : --- .. . ... : ... .. . ... : ... .. . ...
ROW 28 : D#3 0D . ... : C-3 0D . ... : C-2 00 . ... : F-# 03 C ... : ... .. . ... : C-1 01 . ... : ... .. . ... : ... .. . ...
ROW 29 : ... .. . ... : ... .. . ... : --- .. . ... : ... .. . ... : ... .. . ... : --- .. . ... : ... .. . ... : ... .. . ...
ROW 2A : G-3 0D . ... : D#3 0D . ... : C-2 00 . ... : B-# 03 7 ... : ... .. . ... : C-1 01 . ... : ... .. . ... : ... .. . ...
ROW 2B : ... .. . ... : ... .. . ... : --- .. . ... : D-# 03 6 ... : ... .. . ... : --- .. . ... : ... .. . ... : ... .. . ...
ROW 2C : C-4 0D . ... : G-3 0D . ... : C-2 00 . ... : 9-# 03 5 ... : ... .. . ... : C-1 01 . ... : ... .. . ... : D-4 07 . ...
ROW 2D : ... .. . ... : ... .. . ... : --- .. . ... : E-# 03 6 ... : ... .. . ... : --- .. . ... : ... .. . ... : ... .. . ...
ROW 2E : D#4 0D . ... : C-4 0D . ... : C-2 00 . ... : E-# 03 7 ... : ... .. . ... : C-1 01 . ... : ... .. . ... : ... .. . ...
ROW 2F : ... .. . ... : ... .. . ... : --- .. . ... : ... .. . ... : ... .. . ... : --- .. . ... : ... .. . ... : ... .. . ...
ROW 30 : G-4 0D . ... : D#4 0D . ... : C-2 00 . ... : 9-# 03 3 ... : ... .. . ... : C-1 01 . ... : C-3 11 8 ... : C-4 07 . ...
ROW 31 : ... .. . ... : ... .. . ... : --- .. . ... : ... .. . ... : ... .. . ... : --- .. . ... : ... .. . ... : ... .. . ...
ROW 32 : D#4 0D . ... : G-4 0D . ... : C-2 00 . ... : 7-# 03 5 ... : ... .. . ... : C-1 01 . ... : D-3 11 . ... : ... .. . ...
ROW 33 : ... .. . ... : ... .. . ... : --- .. . ... : ... .. . ... : ... .. . ... : --- .. . ... : ... .. . ... : ... .. . ...
ROW 34 : C-4 0D . ... : D#4 0D . ... : C-2 00 . ... : 9-# 03 7 ... : ... .. . ... : C-1 01 . ... : D#3 11 . ... : ... .. . ...
ROW 35 : ... .. . ... : ... .. . ... : --- .. . ... : ... .. . ... : ... .. . ... : --- .. . ... : ... .. . ... : ... .. . ...
ROW 36 : G-3 0D . ... : C-4 0D . ... : C-2 00 . ... : 7-# 03 9 ... : ... .. . ... : C-1 01 . ... : G-3 11 . ... : G-3 07 . ...
ROW 37 : ... .. . ... : ... .. . ... : --- .. . ... : ... .. . ... : ... .. . ... : --- .. . ... : ... .. . ... : ... .. . ...
ROW 38 : D#3 0D . ... : G-3 0D . ... : C-2 00 . ... : F-# 03 F ... : ... .. . ... : C-1 01 . ... : D#3 11 . ... : ... .. . ...
ROW 39 : ... .. . ... : ... .. . ... : --- .. . ... : ... .. . ... : ... .. . ... : --- .. . ... : ... .. . ... : ... .. . ...
ROW 3A : C-3 0D . ... : D#3 0D . ... : C-2 00 . ... : 8-# 03 4 ... : ... .. . ... : C-1 01 . ... : C-3 11 . ... : ... .. . ...
ROW 3B : ... .. . ... : ... .. . ... : --- .. . ... : ... .. . ... : ... .. . ... : --- .. . ... : ... .. . ... : ... .. . ...
ROW 3C : G-2 0D . ... : C-3 0D . ... : C-2 00 . ... : A-# 03 6 ... : ... .. . ... : C-1 01 . ... : D-3 11 . ... : C-4 07 . ...
ROW 3D : ... .. . ... : ... .. . ... : --- .. . ... : A-# 03 7 ... : ... .. . ... : --- .. . ... : ... .. . ... : ... .. . ...
ROW 3E : D#2 0D . ... : G-2 0D . ... : C-2 00 . ... : 5-# 03 8 ... : ... .. . ... : C-1 01 . ... : D#3 11 . ... : ... .. . ...
ROW 3F : ... .. . ... : ... .. . ... : --- .. . ... : 5-# 03 9 ... : ... .. . ... : --- .. . ... : ... .. . ... : ... .. . ...
ROW 40 : C-2 0D . ... : D#2 0D . ... : F-2 00 . ... : 7-# 03 A ... : ... .. . ... : F-1 01 . ... : F-3 11 . ... : F-4 07 . ...
ROW 41 : ... .. . ... : ... .. . ... : --- .. . ... : ... .. . ... : ... .. . ... : --- .. . ... : ... .. . ... : ... .. . ...
ROW 42 : F-2 0D . ... : C-2 0D . ... : F-2 00 . ... : B-# 03 8 ... : ... .. . ... : F-1 01 . ... : G#3 11 . ... : ... .. . ...
ROW 43 : ... .. . ... : ... .. . ... : --- .. . ... : ... .. . ... : ... .. . ... : --- .. . ... : ... .. . ... : ... .. . ...
ROW 44 : G#2 0D . ... : F-2 0D . ... : F-2 00 . ... : ... .. . ... : ... .. . ... : F-1 01 . ... : F-3 11 . ... : ... .. . ...
ROW 45 : ... .. . ... : ... .. . ... : --- .. . ... : ... .. . ... : ... .. . ... : --- .. . ... : ... .. . ... : ... .. . ...
ROW 46 : C-3 0D . ... : G#2 0D . ... : F-2 00 . ... : B-# 03 5 ... : ... .. . ... : F-1 01 . ... : G#3 11 . ... : ... .. . ...
ROW 47 : ... .. . ... : ... .. . ... : --- .. . ... : ... .. . ... : ... .. . ... : --- .. . ... : ... .. . ... : ... .. . ...
ROW 48 : F-3 0D . ... : C-3 0D . ... : F-2 00 . ... : F-# 03 C ... : ... .. . ... : F-1 01 . ... : F-3 11 . ... : ... .. . ...
ROW 49 : ... .. . ... : ... .. . ... : --- .. . ... : ... .. . ... : ... .. . ... : --- .. . ... : ... .. . ... : ... .. . ...
ROW 4A : G#3 0D . ... : F-3 0D . ... : F-2 00 . ... : B-# 03 7 ... : ... .. . ... : F-1 01 . ... : G#3 11 . ... : ... .. . ...
ROW 4B : ... .. . ... : ... .. . ... : --- .. . ... : D-# 03 6 ... : ... .. . ... : --- .. . ... : ... .. . ... : ... .. . ...
ROW 4C : C-4 0D . ... : G#3 0D . ... : F-2 00 . ... : 9-# 03 5 ... : ... .. . ... : F-1 01 . ... : F-3 11 . ... : F-4 07 . ...
ROW 4D : ... .. . ... : ... .. . ... : --- .. . ... : E-# 03 6 ... : ... .. . ... : --- .. . ... : ... .. . ... : ... .. . ...
ROW 4E : F-4 0D . ... : C-4 0D . ... : F-2 00 . ... : E-# 03 7 ... : ... .. . ... : F-1 01 . ... : ... .. . ... : G-4 07 . ...
ROW 4F : ... .. . ... : ... .. . ... : --- .. . ... : ... .. . ... : ... .. . ... : --- .. . ... : ... .. . ... : ... .. . ...
ROW 50 : G#4 0D . ... : F-4 0D . ... : F-2 00 . ... : 9-# 03 3 ... : ... .. . ... : F-1 01 . ... : ... .. . ... : G#4 07 . ...
ROW 51 : ... .. . ... : ... .. . ... : --- .. . ... : ... .. . ... : ... .. . ... : --- .. . ... : ... .. . ... : ... .. . ...
ROW 52 : F-4 0D . ... : G#4 0D . ... : F-2 00 . ... : 7-# 03 5 ... : ... .. . ... : F-1 01 . ... : ... .. . ... : ... .. . ...
ROW 53 : ... .. . ... : ... .. . ... : --- .. . ... : ... .. . ... : ... .. . ... : --- .. . ... : ... .. . ... : ... .. . ...
ROW 54 : C-4 0D . ... : F-4 0D . ... : F-2 00 . ... : 9-# 03 7 ... : ... .. . ... : F-1 01 . ... : ... .. . ... : ... .. . ...
ROW 55 : ... .. . ... : ... .. . ... : --- .. . ... : ... .. . ... : ... .. . ... : --- .. . ... : ... .. . ... : ... .. . ...
ROW 56 : G#3 0D . ... : C-4 0D . ... : F-2 00 . ... : 7-# 03 9 ... : ... .. . ... : F-1 01 . ... : ... .. . ... : G-4 07 . ...
ROW 57 : ... .. . ... : ... .. . ... : --- .. . ... : ... .. . ... : ... .. . ... : --- .. . ... : ... .. . ... : ... .. . ...
ROW 58 : F-3 0D . ... : G#3 0D . ... : F-2 00 . ... : F-# 03 F ... : ... .. . ... : F-1 01 . ... : ... .. . ... : ... .. . ...
ROW 59 : ... .. . ... : ... .. . ... : --- .. . ... : ... .. . ... : ... .. . ... : --- .. . ... : ... .. . ... : ... .. . ...
ROW 5A : C-3 0D . ... : F-3 0D . ... : F-2 00 . ... : 8-# 03 4 ... : ... .. . ... : F-1 01 . ... : ... .. . ... : ... .. . ...
ROW 5B : ... .. . ... : ... .. . ... : --- .. . ... : ... .. . ... : ... .. . ... : --- .. . ... : ... .. . ... : ... .. . ...
ROW 5C : G#2 0D . ... : C-3 0D . ... : F-2 00 . ... : A-# 03 6 ... : ... .. . ... : F-1 01 . ... : ... .. . ... : F-4 07 . ...
ROW 5D : ... .. . ... : ... .. . ... : --- .. . ... : A-# 03 7 ... : ... .. . ... : --- .. . ... : ... .. . ... : ... .. . ...
ROW 5E : F-2 0D . ... : G#2 0D . ... : F-2 00 . ... : 5-# 03 8 ... : ... .. . ... : F-1 01 . ... : ... .. . ... : ... .. . ...
ROW 5F : ... .. . ... : ... .. . ... : --- .. . ... : 5-# 03 9 ... : ... .. . ... : --- .. . ... : ... .. . ... : ... .. . ...
ROW 60 : B-1 0D . ... : F-2 0D . ... : B-2 00 . ... : D-# 03 4 ... : ... .. . ... : B-0 01 . ... : D-5 08 7 ... : D-4 07 F ...
ROW 61 : ... .. . ... : ... .. . ... : --- .. . ... : ... .. . ... : ... .. . ... : --- .. . ... : ... .. . ... : ... .. . ...
ROW 62 : D-2 0D . ... : B-1 0D . ... : B-2 00 . ... : 9-# 03 5 ... : ... .. . ... : B-0 01 . ... : D-4 08 7 ... : ... .. . ...
ROW 63 : ... .. . ... : ... .. . ... : --- .. . ... : ... .. . ... : ... .. . ... : --- .. . ... : ... .. . ... : ... .. . ...
ROW 64 : G-2 0D . ... : D-2 0D . ... : B-2 00 . ... : ... .. . ... : ... .. . ... : B-0 01 . ... : D-5 08 7 ... : ... .. . ...
ROW 65 : ... .. . ... : ... .. . ... : --- .. . ... : ... .. . ... : ... .. . ... : --- .. . ... : ... .. . ... : ... .. . ...
ROW 66 : B-2 0D . ... : G-2 0D . ... : B-2 00 . ... : D-# 03 6 ... : ... .. . ... : B-0 01 . ... : D-4 08 7 ... : ... .. . ...
ROW 67 : ... .. . ... : ... .. . ... : --- .. . ... : ... .. . ... : ... .. . ... : --- .. . ... : ... .. . ... : ... .. . ...
ROW 68 : D-3 0D . ... : B-2 0D . ... : B-2 00 . ... : 9-# 03 7 ... : ... .. . ... : B-0 01 . ... : D-5 08 9 ... : ... .. . ...
ROW 69 : ... .. . ... : ... .. . ... : --- .. . ... : ... .. . ... : ... .. . ... : --- .. . ... : ... .. . ... : ... .. . ...
ROW 6A : G-3 0D . ... : D-3 0D . ... : B-2 00 . ... : ... .. . ... : ... .. . ... : B-0 01 . ... : D-4 08 9 ... : ... .. . ...
ROW 6B : ... .. . ... : ... .. . ... : --- .. . ... : ... .. . ... : ... .. . ... : --- .. . ... : ... .. . ... : ... .. . ...
ROW 6C : B-3 0D . ... : G-3 0D . ... : B-2 00 . ... : D-# 03 8 ... : ... .. . ... : B-0 01 . ... : D-5 08 9 ... : ... .. . ...
ROW 6D : ... .. . ... : ... .. . ... : --- .. . ... : ... .. . ... : ... .. . ... : --- .. . ... : ... .. . ... : ... .. . ...
ROW 6E : D-4 0D . ... : B-3 0D . ... : B-2 00 . ... : 9-# 03 9 ... : ... .. . ... : B-0 01 . ... : D-4 08 9 ... : ... .. . ...
ROW 6F : ... .. . ... : ... .. . ... : --- .. . ... : ... .. . ... : ... .. . ... : --- .. . ... : ... .. . ... : ... .. . ...
ROW 70 : G-4 0D . ... : D-4 0D . ... : B-2 00 . ... : ... .. . ... : ... .. . ... : B-0 01 . ... : G-5 08 C ... : G-4 07 8 ...
ROW 71 : ... .. . ... : ... .. . ... : --- .. . ... : ... .. . ... : ... .. . ... : --- .. . ... : ... .. . ... : ... .. . ...
ROW 72 : D-4 0D . ... : G-4 0D . ... : B-2 00 . ... : D-# 03 A ... : ... .. . ... : B-0 01 . ... : G-4 08 C ... : ... .. . ...
ROW 73 : ... .. . ... : ... .. . ... : --- .. . ... : ... .. . ... : ... .. . ... : --- .. . ... : ... .. . ... : ... .. . ...
ROW 74 : B-3 0D . ... : D-4 0D . ... : B-2 00 . ... : 9-# 03 B ... : ... .. . ... : B-0 01 . ... : G-5 08 C ... : ... .. . ...
ROW 75 : ... .. . ... : ... .. . ... : --- .. . ... : ... .. . ... : ... .. . ... : --- .. . ... : ... .. . ... : ... .. . ...
ROW 76 : G-3 0D . ... : B-3 0D . ... : B-2 00 . ... : ... .. . ... : ... .. . ... : B-0 01 . ... : G-4 08 C ... : ... .. . ...
ROW 77 : ... .. . ... : ... .. . ... : --- .. . ... : ... .. . ... : ... .. . ... : --- .. . ... : ... .. . ... : ... .. . ...
ROW 78 : D-3 0D . ... : G-3 0D . ... : B-2 00 . ... : 6-# 03 C ... : ... .. . ... : B-0 01 . ... : B-5 08 F ... : B-4 07 5 ...
ROW 79 : ... .. . ... : ... .. . ... : --- .. . ... : ... .. . ... : ... .. . ... : --- .. . ... : ... .. . ... : ... .. . ...
ROW 7A : B-2 0D . ... : D-3 0D . ... : B-2 00 . ... : 5-# 03 D ... : ... .. . ... : B-0 01 . ... : B-4 08 F ... : ... .. . ...
ROW 7B : ... .. . ... : ... .. . ... : --- .. . ... : ... .. . ... : ... .. . ... : --- .. . ... : ... .. . ... : ... .. . ...
ROW 7C : G-2 0D . ... : B-2 0D . ... : B-2 00 . ... : 4-# 03 E ... : ... .. . ... : B-0 01 . ... : B-5 08 F ... : ... .. . ...
ROW 7D : ... .. . ... : ... .. . ... : --- .. . ... : ... .. . ... : ... .. . ... : --- .. . ... : ... .. . ... : ... .. . ...
ROW 7E : D-2 0D . ... : G-2 0D . ... : B-2 00 . ... : 3-# 03 F ... : ... .. . ... : B-0 01 . ... : B-4 08 F ... : ... .. . ...
ROW 7F : ... .. . ... : ... .. . ... : --- .. . ... : ... .. . ... : ... .. . ... : --- .. . ... : ... .. . ... : ... .. . ...

PATTERN 06
ROW 00 : C-3 0D F ... : D#2 00 1 ... : C-2 00 . ... : C-# 02 2 ... : ... .. . ... : C-1 01 8 ... : C-5 08 F ... : G-4 07 F ...
ROW 01 : ... .. . ... : ... .. . ... : --- .. . ... : ... .. . ... : ... .. . ... : --- .. . ... : ... .. F ... : ... .. F ...
ROW 02 : D#3 0D . ... : ... .. 2 ... : C-2 00 . ... : C-# 02 4 ... : ... .. . ... : C-1 01 . ... : ... .. E ... : ... .. E ...
ROW 03 : ... .. . ... : ... .. . ... : --- .. . ... : ... .. . ... : ... .. . ... : --- .. . ... : ... .. E ... : ... .. E ...
ROW 04 : G-3 0D . ... : ... .. 3 ... : C-2 00 . ... : C-# 02 6 ... : ... .. . ... : C-1 01 . ... : ... .. D ... : ... .. D ...
ROW 05 : ... .. . ... : ... .. . ... : --- .. . ... : ... .. . ... : ... .. . ... : --- .. . ... : ... .. D ... : ... .. D ...
ROW 06 : B-3 0D . ... : ... .. 4 ... : C-2 00 . ... : B-# 02 8 ... : ... .. . ... : C-1 01 . ... : ... .. C ... : ... .. C ...
ROW 07 : ... .. . ... : ... .. . ... : --- .. . ... : ... .. . ... : ... .. . ... : --- .. . ... : ... .. C ... : ... .. C ...
ROW 08 : C-4 0D . ... : ... .. 5 ... : C-2 00 . ... : 3-# 03 F ... : ... .. . ... : C-1 01 . ... : ... .. B ... : ... .. B ...
ROW 09 : ... .. . ... : ... .. . ... : --- .. . ... : ... .. . ... : ... .. . ... : --- .. . ... : ... .. B ... : ... .. B ...
ROW 0A : D#4 0D . ... : ... .. . ... : C-2 00 . ... : ... .. . ... : ... .. . ... : C-1 01 . ... : ... .. A ... : ... .. A ...
ROW 0B : ... .. . ... : ... .. . ... : --- .. . ... : ... .. . ... : ... .. . ... : --- .. . ... : ... .. A ... : ... .. A ...
ROW 0C : G-4 0D . ... : ... .. . ... : C-2 00 . ... : 9-# 03 C ... : ... .. . ... : C-1 01 . ... : ... .. 9 ... : ... .. 9 ...
ROW 0D : ... .. . ... : ... .. . ... : --- .. . ... : ... .. . ... : ... .. . ... : --- .. . ... : ... .. 9 ... : ... .. 9 ...
ROW 0E : B-4 0D . ... : ... .. . ... : C-2 00 . ... : ... .. . ... : ... .. . ... : C-1 01 . ... : ... .. 8 ... : ... .. 8 ...
ROW 0F : ... .. . ... : ... .. . ... : --- .. . ... : ... .. . ... : ... .. . ... : --- .. . ... : ... .. 8 ... : ... .. 8 ...
ROW 10 : C-5 0D . ... : ... .. . ... : C-2 00 . ... : B-# 03 8 ... : ... .. . ... : C-1 01 . ... : ... .. 7 ... : ... .. 7 ...
ROW 11 : ... .. . ... : ... .. . ... : --- .. . ... : --- .. . ... : ... .. . ... : --- .. . ... : ... .. 7 ... : ... .. 7 ...
ROW 12 : B-4 0D . ... : ... .. . ... : C-2 00 . ... : ... .. . ... : ... .. . ... : C-1 01 . ... : ... .. 6 ... : ... .. 6 ...
ROW 13 : ... .. . ... : ... .. . ... : --- .. . ... : ... .. . ... : ... .. . ... : --- .. . ... : ... .. 6 ... : ... .. 6 ...
ROW 14 : G-4 0D . ... : ... .. . ... : C-2 00 . ... : 9-# 03 C ... : ... .. . ... : C-1 01 . ... : ... .. 5 ... : ... .. 5 ...
ROW 15 : ... .. . ... : ... .. . ... : --- .. . ... : ... .. . ... : ... .. . ... : --- .. . ... : ... .. 5 ... : ... .. 5 ...
ROW 16 : D#4 0D . ... : ... .. . ... : C-2 00 . ... : ... .. . ... : ... .. . ... : C-1 01 . ... : ... .. 4 ... : ... .. 4 ...
ROW 17 : ... .. . ... : ... .. . ... : --- .. . ... : ... .. . ... : ... .. . ... : --- .. . ... : ... .. 4 ... : ... .. 4 ...
ROW 18 : C-4 0D . ... : ... .. . ... : C-2 00 . ... : 3-# 03 F ... : ... .. . ... : C-1 01 . ... : ... .. 3 ... : ... .. 3 ...
ROW 19 : ... .. . ... : ... .. . ... : --- .. . ... : ... .. . ... : ... .. . ... : --- .. . ... : ... .. 3 ... : ... .. 3 ...
ROW 1A : B-3 0D . ... : ... .. . ... : C-2 00 . ... : C-# 02 8 ... : ... .. . ... : C-1 01 . ... : ... .. 2 ... : ... .. 2 ...
ROW 1B : ... .. . ... : ... .. . ... : --- .. . ... : ... .. . ... : ... .. . ... : --- .. . ... : ... .. 2 ... : ... .. 2 ...
ROW 1C : G-3 0D . ... : ... .. . ... : C-2 00 . ... : C-# 02 6 ... : ... .. . ... : C-1 01 . ... : ... .. 1 ... : ... .. 1 ...
ROW 1D : ... .. . ... : ... .. . ... : --- .. . ... : ... .. . ... : ... .. . ... : --- .. . ... : ... .. 1 ... : ... .. 1 ...
ROW 1E : D#3 0D . ... : ... .. . ... : C-2 00 . ... : C-# 02 4 ... : ... .. . ... : C-1 01 . ... : ... .. 0 ... : ... .. 0 ...
ROW 1F : ... .. . ... : ... .. . ... : --- .. . ... : ... .. . ... : ... .. . ... : --- .. . ... : ... .. . ... : ... .. . ...
ROW 20 : C-3 0D . ... : D#3 0D 4 ... : C-2 00 . ... : C-# 02 2 ... : ... .. . ... : C-1 01 . ... : D#2 01 5 ... : C-2 01 1 ...
ROW 21 : ... .. . ... : ... .. . ... : --- .. . ... : ... .. . ... : ... .. . ... : --- .. . ... : ... .. . ... : ... .. . ...
ROW 22 : D#3 0D . ... : C-3 0D . ... : C-2 00 . ... : C-# 02 4 ... : ... .. . ... : C-1 01 . ... : ... .. . ... : ... .. 2 ...
ROW 23 : ... .. . ... : ... .. . ... : --- .. . ... : ... .. . ... : ... .. . ... : --- .. . ... : ... .. . ... : ... .. . ...
ROW 24 : G-3 0D . ... : D#3 0D . ... : C-2 00 . ... : C-# 02 6 ... : ... .. . ... : C-1 01 . ... : ... .. . ... : ... .. 3 ...
ROW 25 : ... .. . ... : ... .. . ... : --- .. . ... : ... .. . ... : ... .. . ... : --- .. . ... : ... .. . ... : ... .. . ...
ROW 26 : B-3 0D . ... : G-3 0D . ... : C-2 00 . ... : B-# 02 8 ... : ... .. . ... : C-1 01 . ... : ... .. . ... : ... .. 4 ...
ROW 27 : ... .. . ... : ... .. . ... : --- .. . ... : ... .. . ... : ... .. . ... : --- .. . ... : ... .. . ... : ... .. . ...
ROW 28 : C-4 0D . ... : B-3 0D . ... : C-2 00 . ... : 3-# 03 F ... : ... .. . ... : C-1 01 . ... : ... .. . ... : ... .. 5 ...
ROW 29 : ... .. . ... : ... .. . ... : --- .. . ... : ... .. . ... : ... .. . ... : --- .. . ... : ... .. . ... : ... .. . ...
ROW 2A : D#4 0D . ... : C-4 0D . ... : C-2 00 . ... : ... .. . ... : ... .. . ... : C-1 01 . ... : ... .. . ... : ... .. . ...
ROW 2B : ... .. . ... : ... .. . ... : --- .. . ... : ... .. . ... : ... .. . ... : --- .. . ... : ... .. . ... : ... .. . ...
ROW 2C : G-4 0D . ... : D#4 0D . ... : C-2 00 . ... : 9-# 03 C ... : ... .. . ... : C-1 01 . ... : ... .. . ... : ... .. . ...
ROW 2D : ... .. . ... : ... .. . ... : --- .. . ... : ... .. . ... : ... .. . ... : --- .. . ... : ... .. . ... : ... .. . ...
ROW 2E : B-4 0D . ... : G-4 0D . ... : C-2 00 . ... : ... .. . ... : ... .. . ... : C-1 01 . ... : ... .. . ... : ... .. . ...
ROW 2F : ... .. . ... : ... .. . ... : --- .. . ... : ... .. . ... : ... .. . ... : --- .. . ... : ... .. . ... : ... .. . ...
ROW 30 : C-5 0D . ... : B-4 0D . ... : C-2 00 . ... : B-# 03 8 ... : ... .. . ... : C-1 01 . ... : ... .. . ... : ... .. . ...
ROW 31 : ... .. . ... : ... .. . ... : --- .. . ... : --- .. . ... : ... .. . ... : --- .. . ... : ... .. . ... : ... .. . ...
ROW 32 : B-4 0D . ... : C-5 0D . ... : C-2 00 . ... : ... .. . ... : ... .. . ... : C-1 01 . ... : ... .. . ... : ... .. . ...
ROW 33 : ... .. . ... : ... .. . ... : --- .. . ... : ... .. . ... : ... .. . ... : --- .. . ... : ... .. . ... : ... .. . ...
ROW 34 : G-4 0D . ... : B-4 0D . ... : C-2 00 . ... : 9-# 03 C ... : ... .. . ... : C-1 01 . ... : ... .. . ... : ... .. . ...
ROW 35 : ... .. . ... : ... .. . ... : --- .. . ... : ... .. . ... : ... .. . ... : --- .. . ... : ... .. . ... : ... .. . ...
ROW 36 : D#4 0D . ... : G-4 0D . ... : C-2 00 . ... : ... .. . ... : ... .. . ... : C-1 01 . ... : ... .. . ... : ... .. . ...
ROW 37 : ... .. . ... : ... .. . ... : --- .. . ... : ... .. . ... : ... .. . ... : --- .. . ... : ... .. . ... : ... .. . ...
ROW 38 : C-4 0D . ... : D#4 0D . ... : C-2 00 . ... : 3-# 03 F ... : ... .. . ... : C-1 01 . ... : ... .. . ... : ... .. . ...
ROW 39 : ... .. . ... : ... .. . ... : --- .. . ... : ... .. . ... : ... .. . ... : --- .. . ... : ... .. . ... : ... .. . ...
ROW 3A : B-3 0D . ... : C-4 0D . ... : C-2 00 . ... : C-# 02 8 ... : ... .. . ... : C-1 01 . ... : ... .. . ... : ... .. . ...
ROW 3B : ... .. . ... : ... .. . ... : --- .. . ... : ... .. . ... : ... .. . ... : --- .. . ... : ... .. . ... : ... .. . ...
ROW 3C : G-3 0D . ... : B-3 0D . ... : C-2 00 . ... : C-# 02 6 ... : ... .. . ... : C-1 01 . ... : ... .. . ... : ... .. . ...
ROW 3D : ... .. . ... : ... .. . ... : --- .. . ... : ... .. . ... : ... .. . ... : --- .. . ... : ... .. . ... : ... .. . ...
ROW 3E : D#3 0D . ... : G-3 0D . ... : C-2 00 . ... : C-# 02 4 ... : ... .. . ... : C-1 01 . ... : ... .. . ... : ... .. . ...
ROW 3F : ... .. . ... : ... .. . ... : --- .. . ... : ... .. . ... : ... .. . ... : --- .. . ... : ... .. . ... : ... .. . ...
ROW 40 : B-2 0D . ... : D#3 0D . ... : B-1 00 . ... : C-# 02 2 ... : ... .. . ... : B-0 01 . ... : D-2 01 2 ... : B-1 01 2 ...
ROW 41 : ... .. . ... : ... .. . ... : --- .. . ... : ... .. . ... : ... .. . ... : --- .. . ... : ... .. . ... : ... .. . ...
ROW 42 : D-3 0D . ... : B-2 0D . ... : B-1 00 . ... : C-# 02 4 ... : ... .. . ... : B-0 01 . ... : ... .. 3 ... : ... .. 3 ...
ROW 43 : ... .. . ... : ... .. . ... : --- .. . ... : ... .. . ... : ... .. . ... : --- .. . ... : ... .. . ... : ... .. . ...
ROW 44 : D#3 0D . ... : D-3 0D . ... : B-1 00 . ... : C-# 02 6 ... : ... .. . ... : B-0 01 . ... : ... .. 4 ... : ... .. 4 ...
ROW 45 : ... .. . ... : ... .. . ... : --- .. . ... : ... .. . ... : ... .. . ... : --- .. . ... : ... .. . ... : ... .. . ...
ROW 46 : G-3 0D . ... : D#3 0D . ... : B-1 00 . ... : B-# 02 8 ... : ... .. . ... : B-0 01 . ... : ... .. 5 ... : ... .. 5 ...
ROW 47 : ... .. . ... : ... .. . ... : --- .. . ... : ... .. . ... : ... .. . ... : --- .. . ... : ... .. . ... : ... .. . ...
ROW 48 : G#3 0D . ... : G-3 0D . ... : B-1 00 . ... : 3-# 03 F ... : ... .. . ... : B-0 01 . ... : ... .. . ... : ... .. . ...
ROW 49 : ... .. . ... : ... .. . ... : --- .. . ... : ... .. . ... : ... .. . ... : --- .. . ... : ... .. . ... : ... .. . ...
ROW 4A : C-4 0D . ... : G#3 0D . ... : B-1 00 . ... : ... .. . ... : ... .. . ... : B-0 01 . ... : ... .. . ... : ... .. . ...
ROW 4B : ... .. . ... : ... .. . ... : --- .. . ... : ... .. . ... : ... .. . ... : --- .. . ... : ... .. . ... : ... .. . ...
ROW 4C : D-4 0D . ... : C-4 0D . ... : B-1 00 . ... : 9-# 03 C ... : ... .. . ... : B-0 01 . ... : ... .. . ... : ... .. . ...
ROW 4D : ... .. . ... : ... .. . ... : --- 00 . ... : ... .. . ... : ... .. . ... : --- 01 . ... : ... .. . ... : ... .. . ...
ROW 4E : D#4 0D . ... : D-4 0D . ... : B-1 00 . ... : ... .. . ... : ... .. . ... : B-0 01 . ... : ... .. . ... : ... .. . ...
ROW 4F : ... .. . ... : ... .. . ... : --- 00 . ... : ... .. . ... : ... .. . ... : --- 01 . ... : ... .. . ... : ... .. . ...
ROW 50 : G-4 0D . ... : D#4 0D . ... : B-1 00 . ... : B-# 03 8 ... : ... .. . ... : B-0 01 . ... : ... .. . ... : ... .. . ...
ROW 51 : ... .. . ... : ... .. . ... : --- 00 . ... : --- .. . ... : ... .. . ... : --- 01 . ... : ... .. . ... : ... .. . ...
ROW 52 : D#4 0D . ... : G-4 0D . ... : B-1 00 . ... : ... .. . ... : ... .. . ... : B-0 01 . ... : ... .. . ... : ... .. . ...
ROW 53 : ... .. . ... : ... .. . ... : --- .. . ... : ... .. . ... : ... .. . ... : --- .. . ... : ... .. . ... : ... .. . ...
ROW 54 : D-4 0D . ... : D#4 0D . ... : B-1 00 . ... : 9-# 03 C ... : ... .. . ... : B-0 01 . ... : ... .. . ... : ... .. . ...
ROW 55 : ... .. . ... : ... .. . ... : --- .. . ... : ... .. . ... : ... .. . ... : --- .. . ... : ... .. . ... : ... .. . ...
ROW 56 : C-4 0D . ... : D-4 0D . ... : B-1 00 . ... : ... .. . ... : ... .. . ... : B-0 01 . ... : ... .. . ... : ... .. . ...
ROW 57 : ... .. . ... : ... .. . ... : --- .. . ... : ... .. . ... : ... .. . ... : --- .. . ... : ... .. . ... : ... .. . ...
ROW 58 : G#3 0D . ... : C-4 0D . ... : B-1 00 . ... : 3-# 03 F ... : ... .. . ... : B-0 01 . ... : ... .. . ... : ... .. . ...
ROW 59 : ... .. . ... : ... .. . ... : --- .. . ... : ... .. . ... : ... .. . ... : --- .. . ... : ... .. . ... : ... .. . ...
ROW 5A : G-3 0D . ... : G#3 0D . ... : B-1 00 . ... : C-# 02 8 ... : ... .. . ... : B-0 01 . ... : ... .. . ... : ... .. . ...
ROW 5B : ... .. . ... : ... .. . ... : --- .. . ... : ... .. . ... : ... .. . ... : --- .. . ... : ... .. . ... : ... .. . ...
ROW 5C : D#3 0D . ... : G-3 0D . ... : B-1 00 . ... : C-# 02 6 ... : ... .. . ... : B-0 01 . ... : ... .. . ... : ... .. . ...
ROW 5D : ... .. . ... : ... .. . ... : --- .. . ... : ... .. . ... : ... .. . ... : --- .. . ... : ... .. . ... : ... .. . ...
ROW 5E : D-3 0D . ... : D#3 0D . ... : B-1 00 . ... : C-# 02 4 ... : ... .. . ... : B-0 01 . ... : ... .. . ... : ... .. . ...
ROW 5F : ... .. . ... : ... .. . ... : --- .. . ... : ... .. . ... : ... .. . ... : --- .. . ... : ... .. . ... : ... .. . ...
ROW 60 : B-2 0D . ... : D-3 0D . ... : B-1 00 . ... : C-# 02 2 ... : ... .. . ... : B-0 01 . ... : G-1 01 2 ... : D-1 01 2 ...
ROW 61 : ... .. . ... : ... .. . ... : --- .. . ... : ... .. . ... : ... .. . ... : --- .. . ... : ... .. . ... : ... .. . ...
ROW 62 : D-3 0D . ... : B-2 0D . ... : B-1 00 . ... : C-# 02 4 ... : ... .. . ... : B-0 01 . ... : ... .. 3 ... : ... .. 3 ...
ROW 63 : ... .. . ... : ... .. . ... : --- .. . ... : ... .. . ... : ... .. . ... : --- .. . ... : ... .. . ... : ... .. . ...
ROW 64 : D#3 0D . ... : D-3 0D . ... : B-1 00 . ... : C-# 02 6 ... : ... .. . ... : B-0 01 . ... : ... .. 4 ... : ... .. 4 ...
ROW 65 : ... .. . ... : ... .. . ... : --- .. . ... : ... .. . ... : ... .. . ... : --- .. . ... : ... .. . ... : ... .. . ...
ROW 66 : G-3 0D . ... : D#3 0D . ... : B-1 00 . ... : B-# 02 8 ... : ... .. . ... : B-0 01 . ... : ... .. 5 ... : ... .. 5 ...
ROW 67 : ... .. . ... : ... .. . ... : --- .. . ... : ... .. . ... : ... .. . ... : --- .. . ... : ... .. . ... : ... .. . ...
ROW 68 : G#3 0D . ... : G-3 0D . ... : B-1 00 . ... : 3-# 03 F ... : ... .. . ... : B-0 01 . ... : ... .. . ... : ... .. . ...
ROW 69 : ... .. . ... : ... .. . ... : --- .. . ... : ... .. . ... : ... .. . ... : --- .. . ... : ... .. . ... : ... .. . ...
ROW 6A : C-4 0D . ... : G#3 0D . ... : B-1 00 . ... : ... .. . ... : ... .. . ... : B-0 01 . ... : ... .. . ... : ... .. . ...
ROW 6B : ... .. . ... : ... .. . ... : --- .. . ... : ... .. . ... : ... .. . ... : --- .. . ... : ... .. . ... : ... .. . ...
ROW 6C : D-4 0D . ... : C-4 0D . ... : B-1 00 . ... : 9-# 03 C ... : ... .. . ... : B-0 01 . ... : ... .. . ... : ... .. . ...
ROW 6D : ... .. . ... : ... .. . ... : --- .. . ... : ... .. . ... : ... .. . ... : --- .. . ... : ... .. . ... : ... .. . ...
ROW 6E : D#4 0D . ... : D-4 0D . ... : B-1 00 . ... : ... .. . ... : ... .. . ... : B-0 01 . ... : ... .. . ... : ... .. . ...
ROW 6F : ... .. . ... : ... .. . ... : --- .. . ... : ... .. . ... : ... .. . ... : --- .. . ... : ... .. . ... : ... .. . ...
ROW 70 : G-4 0D . ... : D#4 0D . ... : B-1 00 . ... : B-# 03 8 ... : ... .. . ... : B-0 01 . ... : ... .. . ... : ... .. . ...
ROW 71 : ... .. . ... : ... .. . ... : --- .. . ... : --- .. . ... : ... .. . ... : --- .. . ... : ... .. . ... : ... .. . ...
ROW 72 : D#4 0D . ... : G-4 0D . ... : B-1 00 . ... : ... .. . ... : ... .. . ... : B-0 01 . ... : ... .. . ... : ... .. . ...
ROW 73 : ... .. . ... : ... .. . ... : --- .. . ... : ... .. . ... : ... .. . ... : --- .. . ... : ... .. . ... : ... .. . ...
ROW 74 : D-4 0D . ... : D#4 0D . ... : B-1 00 . ... : 9-# 03 C ... : ... .. . ... : B-0 01 . ... : ... .. . ... : ... .. . ...
ROW 75 : ... .. . ... : ... .. . ... : --- .. . ... : ... .. . ... : ... .. . ... : --- .. . ... : ... .. . ... : ... .. . ...
ROW 76 : C-4 0D . ... : D-4 0D . ... : B-1 00 . ... : ... .. . ... : ... .. . ... : B-0 01 . ... : ... .. . ... : ... .. . ...
ROW 77 : ... .. . ... : ... .. . ... : --- .. . ... : ... .. . ... : ... .. . ... : --- .. . ... : ... .. . ... : ... .. . ...
ROW 78 : G#3 0D . ... : C-4 0D . ... : B-1 00 . ... : 3-# 03 F ... : ... .. . ... : B-0 01 . ... : ... .. . ... : ... .. . ...
ROW 79 : ... .. . ... : ... .. . ... : --- .. . ... : ... .. . ... : ... .. . ... : --- .. . ... : ... .. . ... : ... .. . ...
ROW 7A : G-3 0D . ... : G#3 0D . ... : B-1 00 . ... : C-# 02 8 ... : ... .. . ... : B-0 01 . ... : ... .. . ... : ... .. . ...
ROW 7B : ... .. . ... : ... .. . ... : --- .. . ... : ... .. . ... : ... .. . ... : --- .. . ... : ... .. . ... : ... .. . ...
ROW 7C : D#3 0D . ... : G-3 0D . ... : B-1 00 . ... : C-# 02 6 ... : ... .. . ... : B-0 01 . ... : ... .. . ... : ... .. . ...
ROW 7D : ... .. . ... : ... .. . ... : --- .. . ... : ... .. . ... : ... .. . ... : --- .. . ... : ... .. . ... : ... .. . ...
ROW 7E : D-3 0D . ... : D#3 0D . ... : B-1 00 . ... : C-# 02 4 ... : ... .. . ... : B-0 01 . ... : ... .. . ... : ... .. . ...
ROW 7F : ... .. . ... : ... .. . ... : --- .. . ... : ... .. . ... : ... .. . ... : --- .. . ... : ... .. . ... : ... .. . ...

PATTERN 07
ROW 00 : C-2 0D F ... : ... .. . ... : C-3 00 . ... : 2-# 03 C ... : ... .. . ... : C-2 01 8 ... : C-4 11 . ... : C-2 01 1 ...
ROW 01 : ... .. . ... : ... .. . ... : --- .. . ... : ... .. . ... : ... .. . ... : --- .. . ... : ... .. . ... : ... .. . ...
ROW 02 : D#2 0D . ... : C-2 0D 4 ... : C-3 00 . ... : B-# 03 8 ... : ... .. . ... : C-2 01 . ... : ... .. . ... : ... .. 2 ...
ROW 03 : ... .. . ... : ... .. . ... : --- .. . ... : ... .. . ... : ... .. . ... : --- .. . ... : ... .. . ... : ... .. . ...
ROW 04 : G-2 0D . ... : D#2 0D . ... : C-3 00 . ... : ... .. . ... : ... .. . ... : C-2 01 . ... : ... .. . ... : ... .. 3 ...
ROW 05 : ... .. . ... : ... .. . ... : --- .. . ... : ... .. . ... : ... .. . ... : --- .. . ... : ... .. . ... : ... .. . ...
ROW 06 : C-3 0D . ... : G-2 0D . ... : C-3 00 . ... : B-# 03 5 ... : ... .. . ... : C-2 01 . ... : ... .. . ... : ... .. 4 ...
ROW 07 : ... .. . ... : ... .. . ... : --- .. . ... : ... .. . ... : ... .. . ... : --- .. . ... : ... .. . ... : ... .. . ...
ROW 08 : D#3 0D . ... : C-3 0D . ... : C-3 00 . ... : F-# 03 C ... : ... .. . ... : C-2 01 . ... : ... .. . ... : ... .. 5 ...
ROW 09 : ... .. . ... : ... .. . ... : --- .. . ... : ... .. . ... : ... .. . ... : --- .. . ... : ... .. . ... : ... .. . ...
ROW 0A : G-3 0D . ... : D#3 0D . ... : C-3 00 . ... : B-# 03 7 ... : ... .. . ... : C-2 01 . ... : ... .. . ... : ... .. . ...
ROW 0B : ... .. . ... : ... .. . ... : --- .. . ... : D-# 03 6 ... : ... .. . ... : --- .. . ... : ... .. . ... : ... .. . ...
ROW 0C : C-4 0D . ... : G-3 0D . ... : C-3 00 . ... : 9-# 03 5 ... : ... .. . ... : C-2 01 . ... : G-4 11 . ... : ... .. . ...
ROW 0D : ... .. . ... : ... .. . ... : --- .. . ... : E-# 03 6 ... : ... .. . ... : --- .. . ... : ... .. . ... : ... .. . ...
ROW 0E : D#4 0D . ... : C-4 0D . ... : C-3 00 . ... : E-# 03 7 ... : ... .. . ... : C-2 01 . ... : ... .. . ... : ... .. . ...
ROW 0F : ... .. . ... : ... .. . ... : --- .. . ... : ... .. . ... : ... .. . ... : --- .. . ... : ... .. . ... : ... .. . ...
ROW 10 : G-4 0D . ... : D#4 0D . ... : C-3 00 . ... : 9-# 03 3 ... : ... .. . ... : C-2 01 . ... : ... .. . ... : ... .. . ...
ROW 11 : ... .. . ... : ... .. . ... : --- .. . ... : ... .. . ... : ... .. . ... : --- .. . ... : ... .. . ... : ... .. . ...
ROW 12 : D#4 0D . ... : G-4 0D . ... : C-3 00 . ... : 7-# 03 5 ... : ... .. . ... : C-2 01 . ... : ... .. . ... : ... .. . ...
ROW 13 : ... .. . ... : ... .. . ... : --- .. . ... : ... .. . ... : ... .. . ... : --- .. . ... : ... .. . ... : ... .. . ...
ROW 14 : C-4 0D . ... : D#4 0D . ... : C-3 00 . ... : 9-# 03 7 ... : ... .. . ... : C-2 01 . ... : ... .. . ... : ... .. . ...
ROW 15 : ... .. . ... : ... .. . ... : --- .. . ... : ... .. . ... : ... .. . ... : --- .. . ... : ... .. . ... : ... .. . ...
ROW 16 : G-3 0D . ... : C-4 0D . ... : C-3 00 . ... : 7-# 03 9 ... : ... .. . ... : C-2 01 . ... : ... .. . ... : ... .. . ...
ROW 17 : ... .. . ... : ... .. . ... : --- .. . ... : ... .. . ... : ... .. . ... : --- .. . ... : ... .. . ... : ... .. . ...
ROW 18 : D#3 0D . ... : G-3 0D . ... : C-3 00 . ... : F-# 03 F ... : ... .. . ... : C-2 01 . ... : D#4 11 . ... : ... .. . ...
ROW 19 : ... .. . ... : ... .. . ... : --- .. . ... : ... .. . ... : ... .. . ... : --- .. . ... : ... .. . ... : ... .. . ...
ROW 1A : C-3 0D . ... : D#3 0D . ... : C-3 00 . ... : 8-# 03 4 ... : ... .. . ... : C-2 01 . ... : ... .. . ... : ... .. . ...
ROW 1B : ... .. . ... : ... .. . ... : --- .. . ... : ... .. . ... : ... .. . ... : --- .. . ... : ... .. . ... : ... .. . ...
ROW 1C : G-2 0D . ... : C-3 0D . ... : C-3 00 . ... : A-# 03 6 ... : ... .. . ... : C-2 01 . ... : ... .. . ... : ... .. . ...
ROW 1D : ... .. . ... : ... .. . ... : --- .. . ... : A-# 03 7 ... : ... .. . ... : --- .. . ... : ... .. . ... : ... .. . ...
ROW 1E : D#2 0D . ... : G-2 0D . ... : C-3 00 . ... : 5-# 03 8 ... : ... .. . ... : C-2 01 . ... : ... .. . ... : ... .. . ...
ROW 1F : ... .. . ... : ... .. . ... : --- .. . ... : 5-# 03 9 ... : ... .. . ... : --- .. . ... : ... .. . ... : ... .. . ...
ROW 20 : C-2 0D . ... : D#2 0D . ... : C-3 00 . ... : 7-# 03 A ... : ... .. . ... : C-2 01 . ... : ... .. . ... : ... .. . ...
ROW 21 : ... .. . ... : ... .. . ... : --- .. . ... : ... .. . ... : ... .. . ... : --- .. . ... : ... .. . ... : ... .. . ...
ROW 22 : D#2 0D . ... : C-2 0D . ... : C-3 00 . ... : B-# 03 8 ... : ... .. . ... : C-2 01 . ... : ... .. . ... : ... .. . ...
ROW 23 : ... .. . ... : ... .. . ... : --- .. . ... : ... .. . ... : ... .. . ... : --- .. . ... : ... .. . ... : ... .. . ...
ROW 24 : G-2 0D . ... : D#2 0D . ... : C-3 00 . ... : ... .. . ... : ... .. . ... : C-2 01 . ... : ... .. . ... : ... .. . ...
ROW 25 : ... .. . ... : ... .. . ... : --- .. . ... : ... .. . ... : ... .. . ... : --- .. . ... : ... .. . ... : ... .. . ...
ROW 26 : C-3 0D . ... : G-2 0D . ... : C-3 00 . ... : B-# 03 5 ... : ... .. . ... : C-2 01 . ... : ... .. . ... : ... .. . ...
ROW 27 : ... .. . ... : ... .. . ... : --- .. . ... : ... .. . ... : ... .. . ... : --- .. . ... : ... .. . ... : ... .. . ...
ROW 28 : D#3 0D . ... : C-3 0D . ... : C-3 00 . ... : F-# 03 C ... : ... .. . ... : C-2 01 . ... : ... .. . ... : ... .. . ...
ROW 29 : ... .. . ... : ... .. . ... : --- .. . ... : ... .. . ... : ... .. . ... : --- .. . ... : ... .. . ... : ... .. . ...
ROW 2A : G-3 0D . ... : D#3 0D . ... : C-3 00 . ... : B-# 03 7 ... : ... .. . ... : C-2 01 . ... : ... .. . ... : ... .. . ...
ROW 2B : ... .. . ... : ... .. . ... : --- .. . ... : D-# 03 6 ... : ... .. . ... : --- .. . ... : ... .. . ... : ... .. . ...
ROW 2C : C-4 0D . ... : G-3 0D . ... : C-3 00 . ... : 9-# 03 5 ... : ... .. . ... : C-2 01 . ... : C-4 11 . ... : ... .. . ...
ROW 2D : ... .. . ... : ... .. . ... : --- .. . ... : E-# 03 6 ... : ... .. . ... : --- .. . ... : ... .. . ... : ... .. . ...
ROW 2E : D#4 0D . ... : C-4 0D . ... : C-3 00 . ... : E-# 03 7 ... : ... .. . ... : C-2 01 . ... : D-4 11 . ... : ... .. . ...
ROW 2F : ... .. . ... : ... .. . ... : --- .. . ... : ... .. . ... : ... .. . ... : --- .. . ... : ... .. . ... : ... .. . ...
ROW 30 : G-4 0D . ... : D#4 0D . ... : C-3 00 . ... : 9-# 03 3 ... : ... .. . ... : C-2 01 . ... : D#4 11 . ... : ... .. . ...
ROW 31 : ... .. . ... : ... .. . ... : --- .. . ... : ... .. . ... : ... .. . ... : --- .. . ... : ... .. . ... : ... .. . ...
ROW 32 : D#4 0D . ... : G-4 0D . ... : C-3 00 . ... : 7-# 03 5 ... : ... .. . ... : C-2 01 . ... : D-4 11 . ... : ... .. . ...
ROW 33 : ... .. . ... : ... .. . ... : --- .. . ... : ... .. . ... : ... .. . ... : --- .. . ... : ... .. . ... : ... .. . ...
ROW 34 : C-4 0D . ... : D#4 0D . ... : C-3 00 . ... : 9-# 03 7 ... : ... .. . ... : C-2 01 . ... : C-4 11 . ... : ... .. . ...
ROW 35 : ... .. . ... : ... .. . ... : --- .. . ... : ... .. . ... : ... .. . ... : --- .. . ... : ... .. . ... : ... .. . ...
ROW 36 : G-3 0D . ... : C-4 0D . ... : C-3 00 . ... : 7-# 03 9 ... : ... .. . ... : C-2 01 . ... : D-4 11 . ... : ... .. . ...
ROW 37 : ... .. . ... : ... .. . ... : --- .. . ... : ... .. . ... : ... .. . ... : --- .. . ... : ... .. . ... : ... .. . ...
ROW 38 : D#3 0D . ... : G-3 0D . ... : C-3 00 . ... : F-# 03 F ... : ... .. . ... : C-2 01 . ... : D#4 11 . ... : ... .. . ...
ROW 39 : ... .. . ... : ... .. . ... : --- .. . ... : ... .. . ... : ... .. . ... : --- .. . ... : ... .. . ... : ... .. . ...
ROW 3A : C-3 0D . ... : D#3 0D . ... : C-3 00 . ... : 8-# 03 4 ... : ... .. . ... : C-2 01 . ... : F-4 11 . ... : ... .. . ...
ROW 3B : ... .. . ... : ... .. . ... : --- .. . ... : ... .. . ... : ... .. . ... : --- .. . ... : ... .. . ... : ... .. . ...
ROW 3C : G-2 0D . ... : C-3 0D . ... : C-3 00 . ... : A-# 03 6 ... : ... .. . ... : C-2 01 . ... : G-4 11 . ... : ... .. . ...
ROW 3D : ... .. . ... : ... .. . ... : --- .. . ... : A-# 03 7 ... : ... .. . ... : --- .. . ... : ... .. . ... : ... .. . ...
ROW 3E : D#2 0D . ... : G-2 0D . ... : C-3 00 . ... : 5-# 03 8 ... : ... .. . ... : C-2 01 . ... : A-4 11 . ... : ... .. . ...
ROW 3F : ... .. . ... : ... .. . ... : --- .. . ... : 5-# 03 9 ... : ... .. . ... : --- .. . ... : ... .. . ... : ... .. . ...
ROW 40 : C-2 0D . ... : D#2 0D . ... : F-3 00 . ... : 7-# 03 A ... : ... .. . ... : F-2 01 . ... : G#4 11 . ... : G#1 01 1 ...
ROW 41 : ... .. . ... : ... .. . ... : --- .. . ... : ... .. . ... : ... .. . ... : --- .. . ... : ... .. . ... : ... .. . ...
ROW 42 : F-2 0D . ... : C-2 0D . ... : F-3 00 . ... : B-# 03 8 ... : ... .. . ... : F-2 01 . ... : ... .. . ... : ... .. 2 ...
ROW 43 : ... .. . ... : ... .. . ... : --- .. . ... : ... .. . ... : ... .. . ... : --- .. . ... : ... .. . ... : ... .. . ...
ROW 44 : G#2 0D . ... : F-2 0D . ... : F-3 00 . ... : ... .. . ... : ... .. . ... : F-2 01 . ... : ... .. . ... : ... .. 3 ...
ROW 45 : ... .. . ... : ... .. . ... : --- .. . ... : ... .. . ... : ... .. . ... : --- .. . ... : ... .. . ... : ... .. . ...
ROW 46 : C-3 0D . ... : G#2 0D . ... : F-3 00 . ... : B-# 03 5 ... : ... .. . ... : F-2 01 . ... : ... .. . ... : ... .. 4 ...
ROW 47 : ... .. . ... : ... .. . ... : --- .. . ... : ... .. . ... : ... .. . ... : --- .. . ... : ... .. . ... : ... .. . ...
ROW 48 : F-3 0D . ... : C-3 0D . ... : F-3 00 . ... : F-# 03 C ... : ... .. . ... : F-2 01 . ... : ... .. . ... : ... .. 5 ...
ROW 49 : ... .. . ... : ... .. . ... : --- .. . ... : ... .. . ... : ... .. . ... : --- .. . ... : ... .. . ... : ... .. . ...
ROW 4A : G#3 0D . ... : F-3 0D . ... : F-3 00 . ... : B-# 03 7 ... : ... .. . ... : F-2 01 . ... : ... .. . ... : ... .. . ...
ROW 4B : ... .. . ... : ... .. . ... : --- .. . ... : D-# 03 6 ... : ... .. . ... : --- .. . ... : ... .. . ... : ... .. . ...
ROW 4C : C-4 0D . ... : G#3 0D . ... : F-3 00 . ... : 9-# 03 5 ... : ... .. . ... : F-2 01 . ... : F-4 11 . ... : ... .. . ...
ROW 4D : ... .. . ... : ... .. . ... : --- .. . ... : E-# 03 6 ... : ... .. . ... : --- .. . ... : ... .. . ... : ... .. . ...
ROW 4E : F-4 0D . ... : C-4 0D . ... : F-3 00 . ... : E-# 03 7 ... : ... .. . ... : F-2 01 . ... : ... .. . ... : ... .. . ...
ROW 4F : ... .. . ... : ... .. . ... : --- .. . ... : ... .. . ... : ... .. . ... : --- .. . ... : ... .. . ... : ... .. . ...
ROW 50 : G#4 0D . ... : F-4 0D . ... : F-3 00 . ... : 9-# 03 3 ... : ... .. . ... : F-2 01 . ... : ... .. . ... : ... .. . ...
ROW 51 : ... .. . ... : ... .. . ... : --- .. . ... : ... .. . ... : ... .. . ... : --- .. . ... : ... .. . ... : ... .. . ...
ROW 52 : F-4 0D . ... : G#4 0D . ... : F-3 00 . ... : 7-# 03 5 ... : ... .. . ... : F-2 01 . ... : ... .. . ... : ... .. . ...
ROW 53 : ... .. . ... : ... .. . ... : --- .. . ... : ... .. . ... : ... .. . ... : --- .. . ... : ... .. . ... : ... .. . ...
ROW 54 : C-4 0D . ... : F-4 0D . ... : F-3 00 . ... : 9-# 03 7 ... : ... .. . ... : F-2 01 . ... : ... .. . ... : ... .. . ...
ROW 55 : ... .. . ... : ... .. . ... : --- .. . ... : ... .. . ... : ... .. . ... : --- .. . ... : ... .. . ... : ... .. . ...
ROW 56 : G#3 0D . ... : C-4 0D . ... : F-3 00 . ... : 7-# 03 9 ... : ... .. . ... : F-2 01 . ... : ... .. . ... : ... .. . ...
ROW 57 : ... .. . ... : ... .. . ... : --- .. . ... : ... .. . ... : ... .. . ... : --- .. . ... : ... .. . ... : ... .. . ...
ROW 58 : F-3 0D . ... : G#3 0D . ... : F-3 00 . ... : F-# 03 F ... : ... .. . ... : F-2 01 . ... : C-4 11 . ... : ... .. . ...
ROW 59 : ... .. . ... : ... .. . ... : --- .. . ... : ... .. . ... : ... .. . ... : --- .. . ... : ... .. . ... : ... .. . ...
ROW 5A : C-3 0D . ... : F-3 0D . ... : F-3 00 . ... : 8-# 03 4 ... : ... .. . ... : F-2 01 . ... : ... .. . ... : ... .. . ...
ROW 5B : ... .. . ... : ... .. . ... : --- .. . ... : ... .. . ... : ... .. . ... : --- .. . ... : ... .. . ... : ... .. . ...
ROW 5C : G#2 0D . ... : C-3 0D . ... : F-3 00 . ... : A-# 03 6 ... : ... .. . ... : F-2 01 . ... : ... .. . ... : ... .. . ...
ROW 5D : ... .. . ... : ... .. . ... : --- .. . ... : A-# 03 7 ... : ... .. . ... : --- .. . ... : ... .. . ... : ... .. . ...
ROW 5E : F-2 0D . ... : G#2 0D . ... : F-3 00 . ... : 5-# 03 8 ... : ... .. . ... : F-2 01 . ... : ... .. . ... : ... .. . ...
ROW 5F : ... .. . ... : ... .. . ... : --- .. . ... : 5-# 03 9 ... : ... .. . ... : --- .. . ... : ... .. . ... : ... .. . ...
ROW 60 : C-2 0D . ... : F-2 0D . ... : G#3 00 . ... : 7-# 03 A ... : ... .. . ... : G#1 01 . ... : ... .. . ... : ... .. . ...
ROW 61 : ... .. . ... : ... .. . ... : --- .. . ... : ... .. . ... : ... .. . ... : --- .. . ... : ... .. . ... : ... .. . ...
ROW 62 : F-2 0D . ... : C-2 0D . ... : G#3 00 . ... : B-# 03 8 ... : ... .. . ... : G#1 01 . ... : ... .. . ... : ... .. . ...
ROW 63 : ... .. . ... : ... .. . ... : --- .. . ... : ... .. . ... : ... .. . ... : --- .. . ... : ... .. . ... : ... .. . ...
ROW 64 : G#2 0D . ... : F-2 0D . ... : G#3 00 . ... : ... .. . ... : ... .. . ... : G#1 01 . ... : ... .. . ... : ... .. . ...
ROW 65 : ... .. . ... : ... .. . ... : --- .. . ... : ... .. . ... : ... .. . ... : --- .. . ... : ... .. . ... : ... .. . ...
ROW 66 : C-3 0D . ... : G#2 0D . ... : G#3 00 . ... : B-# 03 5 ... : ... .. . ... : G#1 01 . ... : ... .. . ... : ... .. . ...
ROW 67 : ... .. . ... : ... .. . ... : --- .. . ... : ... .. . ... : ... .. . ... : --- .. . ... : ... .. . ... : ... .. . ...
ROW 68 : F-3 0D . ... : C-3 0D . ... : G#3 00 . ... : F-# 03 C ... : ... .. . ... : G#1 01 . ... : ... .. . ... : ... .. . ...
ROW 69 : ... .. . ... : ... .. . ... : --- .. . ... : ... .. . ... : ... .. . ... : --- .. . ... : ... .. . ... : ... .. . ...
ROW 6A : G#3 0D . ... : F-3 0D . ... : G#3 00 . ... : B-# 03 7 ... : ... .. . ... : G#1 01 . ... : ... .. . ... : ... .. . ...
ROW 6B : ... .. . ... : ... .. . ... : --- .. . ... : D-# 03 6 ... : ... .. . ... : --- .. . ... : ... .. . ... : ... .. . ...
ROW 6C : C-4 0D . ... : G#3 0D . ... : G#3 00 . ... : 9-# 03 5 ... : ... .. . ... : G#1 01 . ... : C-4 11 . ... : ... .. . ...
ROW 6D : ... .. . ... : ... .. . ... : --- .. . ... : E-# 03 6 ... : ... .. . ... : --- .. . ... : ... .. . ... : ... .. . ...
ROW 6E : F-4 0D . ... : C-4 0D . ... : G#3 00 . ... : E-# 03 7 ... : ... .. . ... : G#1 01 . ... : D-4 11 . ... : ... .. . ...
ROW 6F : ... .. . ... : ... .. . ... : --- .. . ... : ... .. . ... : ... .. . ... : --- .. . ... : ... .. . ... : ... .. . ...
ROW 70 : G#4 0D . ... : F-4 0D . ... : G#3 00 . ... : 9-# 03 3 ... : ... .. . ... : G#1 01 . ... : D#4 11 . ... : ... .. . ...
ROW 71 : ... .. . ... : ... .. . ... : --- .. . ... : ... .. . ... : ... .. . ... : --- .. . ... : ... .. . ... : ... .. . ...
ROW 72 : F-4 0D . ... : G#4 0D . ... : G#3 00 . ... : 7-# 03 5 ... : ... .. . ... : G#1 01 . ... : F-4 11 . ... : ... .. . ...
ROW 73 : ... .. . ... : ... .. . ... : --- .. . ... : ... .. . ... : ... .. . ... : --- .. . ... : ... .. . ... : ... .. . ...
ROW 74 : C-4 0D . ... : F-4 0D . ... : G#3 00 . ... : 9-# 03 7 ... : ... .. . ... : G#1 01 . ... : D#4 11 . ... : ... .. . ...
ROW 75 : ... .. . ... : ... .. . ... : --- .. . ... : ... .. . ... : ... .. . ... : --- .. . ... : ... .. . ... : ... .. . ...
ROW 76 : G#3 0D . ... : C-4 0D . ... : G#3 00 . ... : 7-# 03 9 ... : ... .. . ... : G#1 01 . ... : F-4 11 . ... : ... .. . ...
ROW 77 : ... .. . ... : ... .. . ... : --- .. . ... : ... .. . ... : ... .. . ... : --- .. . ... : ... .. . ... : ... .. . ...
ROW 78 : F-3 0D . ... : G#3 0D . ... : G#3 00 . ... : F-# 03 F ... : ... .. . ... : G#1 01 . ... : G-4 11 . ... : ... .. . ...
ROW 79 : ... .. . ... : ... .. . ... : --- .. . ... : ... .. . ... : ... .. . ... : --- .. . ... : ... .. . ... : ... .. . ...
ROW 7A : C-3 0D . ... : F-3 0D . ... : G#3 00 . ... : 8-# 03 4 ... : ... .. . ... : G#1 01 . ... : G#4 11 . ... : ... .. . ...
ROW 7B : ... .. . ... : ... .. . ... : --- .. . ... : ... .. . ... : ... .. . ... : --- .. . ... : ... .. . ... : ... .. . ...
ROW 7C : G#2 0D . ... : C-3 0D . ... : G#3 00 . ... : A-# 03 6 ... : ... .. . ... : G#1 01 . ... : G-4 11 . ... : ... .. . ...
ROW 7D : ... .. . ... : ... .. . ... : --- .. . ... : A-# 03 7 ... : ... .. . ... : --- .. . ... : ... .. . ... : ... .. . ...
ROW 7E : F-2 0D . ... : G#2 0D . ... : G#3 00 . ... : 5-# 03 8 ... : ... .. . ... : G#1 01 . ... : A-4 11 . ... : ... .. . ...
ROW 7F : ... .. . ... : ... .. . ... : --- .. . ... : 5-# 03 9 ... : ... .. . ... : --- .. . ... : ... .. . ... : ... .. . ...

PATTERN 08
ROW 00 : G#2 0D F ... : ... .. . ... : G#1 00 . ... : C-# 02 2 ... : ... .. . ... : G#0 01 7 ... : C-2 01 2 ... : G#1 01 2 ...
ROW 01 : ... .. . ... : ... .. . ... : --- .. . ... : ... .. . ... : ... .. . ... : --- .. . ... : ... .. . ... : ... .. . ...
ROW 02 : C-3 0D . ... : G#2 0D 4 ... : G#1 00 . ... : C-# 02 4 ... : ... .. . ... : G#0 01 . ... : ... .. 3 ... : ... .. 3 ...
ROW 03 : ... .. . ... : ... .. . ... : --- .. . ... : ... .. . ... : ... .. . ... : --- .. . ... : ... .. . ... : ... .. . ...
ROW 04 : D-3 0D . ... : C-3 0D . ... : G#1 00 . ... : C-# 02 6 ... : ... .. . ... : G#0 01 . ... : ... .. 4 ... : ... .. 4 ...
ROW 05 : ... .. . ... : ... .. . ... : --- .. . ... : ... .. . ... : ... .. . ... : --- .. . ... : ... .. . ... : ... .. . ...
ROW 06 : D#3 0D . ... : D-3 0D . ... : G#1 00 . ... : B-# 02 8 ... : ... .. . ... : G#0 01 . ... : ... .. 5 ... : ... .. 5 ...
ROW 07 : ... .. . ... : ... .. . ... : --- .. . ... : ... .. . ... : ... .. . ... : --- .. . ... : ... .. . ... : ... .. . ...
ROW 08 : G-3 0D . ... : D#3 0D . ... : G#1 00 . ... : 3-# 03 F ... : ... .. . ... : G#0 01 . ... : ... .. . ... : ... .. . ...
ROW 09 : ... .. . ... : ... .. . ... : --- .. . ... : ... .. . ... : ... .. . ... : --- .. . ... : ... .. . ... : ... .. . ...
ROW 0A : G#3 0D . ... : G-3 0D . ... : G#1 00 . ... : ... .. . ... : ... .. . ... : G#0 01 . ... : ... .. . ... : ... .. . ...
ROW 0B : ... .. . ... : ... .. . ... : --- .. . ... : ... .. . ... : ... .. . ... : --- .. . ... : ... .. . ... : ... .. . ...
ROW 0C : C-4 0D . ... : G#3 0D . ... : G#1 00 . ... : 9-# 03 C ... : ... .. . ... : G#0 01 . ... : ... .. . ... : ... .. . ...
ROW 0D : ... .. . ... : ... .. . ... : --- .. . ... : ... .. . ... : ... .. . ... : --- .. . ... : ... .. . ... : ... .. . ...
ROW 0E : D-4 0D . ... : C-4 0D . ... : G#1 00 . ... : ... .. . ... : ... .. . ... : G#0 01 . ... : ... .. . ... : ... .. . ...
ROW 0F : ... .. . ... : ... .. . ... : --- .. . ... : ... .. . ... : ... .. . ... : --- .. . ... : ... .. . ... : ... .. . ...
ROW 10 : D#4 0D . ... : D-4 0D . ... : G#1 00 . ... : B-# 03 8 ... : ... .. . ... : G#0 01 . ... : ... .. . ... : ... .. . ...
ROW 11 : ... .. . ... : ... .. . ... : --- .. . ... : --- .. . ... : ... .. . ... : --- .. . ... : ... .. . ... : ... .. . ...
ROW 12 : D-4 0D . ... : D#4 0D . ... : G#1 00 . ... : ... .. . ... : ... .. . ... : G#0 01 . ... : ... .. . ... : ... .. . ...
ROW 13 : ... .. . ... : ... .. . ... : --- .. . ... : ... .. . ... : ... .. . ... : --- .. . ... : ... .. . ... : ... .. . ...
ROW 14 : C-4 0D . ... : D-4 0D . ... : G#1 00 . ... : 9-# 03 C ... : ... .. . ... : G#0 01 . ... : ... .. . ... : ... .. . ...
ROW 15 : ... .. . ... : ... .. . ... : --- .. . ... : ... .. . ... : ... .. . ... : --- .. . ... : ... .. . ... : ... .. . ...
ROW 16 : G#3 0D . ... : C-4 0D . ... : G#1 00 . ... : ... .. . ... : ... .. . ... : G#0 01 . ... : ... .. . ... : ... .. . ...
ROW 17 : ... .. . ... : ... .. . ... : --- .. . ... : ... .. . ... : ... .. . ... : --- .. . ... : ... .. . ... : ... .. . ...
ROW 18 : G-3 0D . ... : G#3 0D . ... : G#1 00 . ... : 3-# 03 F ... : ... .. . ... : G#0 01 . ... : ... .. . ... : ... .. . ...
ROW 19 : ... .. . ... : ... .. . ... : --- .. . ... : ... .. . ... : ... .. . ... : --- .. . ... : ... .. . ... : ... .. . ...
ROW 1A : D#3 0D . ... : G-3 0D . ... : G#1 00 . ... : C-# 02 8 ... : ... .. . ... : G#0 01 . ... : ... .. . ... : ... .. . ...
ROW 1B : ... .. . ... : ... .. . ... : --- .. . ... : ... .. . ... : ... .. . ... : --- .. . ... : ... .. . ... : ... .. . ...
ROW 1C : D-3 0D . ... : D#3 0D . ... : G#1 00 . ... : C-# 02 6 ... : ... .. . ... : G#0 01 . ... : ... .. . ... : ... .. . ...
ROW 1D : ... .. . ... : ... .. . ... : --- .. . ... : ... .. . ... : ... .. . ... : --- .. . ... : ... .. . ... : ... .. . ...
ROW 1E : C-3 0D . ... : D-3 0D . ... : G#1 00 . ... : C-# 02 4 ... : ... .. . ... : G#0 01 . ... : ... .. . ... : ... .. . ...
ROW 1F : ... .. . ... : ... .. . ... : --- .. . ... : ... .. . ... : ... .. . ... : --- .. . ... : ... .. . ... : ... .. . ...
ROW 20 : G#2 0D . ... : C-3 0D . ... : G#1 00 . ... : C-# 02 2 ... : ... .. . ... : G#0 01 . ... : ... .. . ... : ... .. . ...
ROW 21 : ... .. . ... : ... .. . ... : --- .. . ... : ... .. . ... : ... .. . ... : --- .. . ... : ... .. . ... : ... .. . ...
ROW 22 : C-3 0D . ... : G#2 0D . ... : G#1 00 . ... : C-# 02 4 ... : ... .. . ... : G#0 01 . ... : ... .. . ... : ... .. . ...
ROW 23 : ... .. . ... : ... .. . ... : --- .. . ... : ... .. . ... : ... .. . ... : --- .. . ... : ... .. . ... : ... .. . ...
ROW 24 : D-3 0D . ... : C-3 0D . ... : G#1 00 . ... : C-# 02 6 ... : ... .. . ... : G#0 01 . ... : ... .. . ... : ... .. . ...
ROW 25 : ... .. . ... : ... .. . ... : --- .. . ... : ... .. . ... : ... .. . ... : --- .. . ... : ... .. . ... : ... .. . ...
ROW 26 : D#3 0D . ... : D-3 0D . ... : G#1 00 . ... : B-# 02 8 ... : ... .. . ... : G#0 01 . ... : ... .. . ... : ... .. . ...
ROW 27 : ... .. . ... : ... .. . ... : --- .. . ... : ... .. . ... : ... .. . ... : --- .. . ... : ... .. . ... : ... .. . ...
ROW 28 : G-3 0D . ... : D#3 0D . ... : G#1 00 . ... : 3-# 03 F ... : ... .. . ... : G#0 01 . ... : ... .. . ... : ... .. . ...
ROW 29 : ... .. . ... : ... .. . ... : --- .. . ... : ... .. . ... : ... .. . ... : --- .. . ... : ... .. . ... : ... .. . ...
ROW 2A : G#3 0D . ... : G-3 0D . ... : G#1 00 . ... : ... .. . ... : ... .. . ... : G#0 01 . ... : ... .. . ... : ... .. . ...
ROW 2B : ... .. . ... : ... .. . ... : --- .. . ... : ... .. . ... : ... .. . ... : --- .. . ... : ... .. . ... : ... .. . ...
ROW 2C : C-4 0D . ... : G#3 0D . ... : G#1 00 . ... : 9-# 03 C ... : ... .. . ... : G#0 01 . ... : ... .. . ... : ... .. . ...
ROW 2D : ... .. . ... : ... .. . ... : --- .. . ... : ... .. . ... : ... .. . ... : --- .. . ... : ... .. . ... : ... .. . ...
ROW 2E : D-4 0D . ... : C-4 0D . ... : G#1 00 . ... : ... .. . ... : ... .. . ... : G#0 01 . ... : ... .. . ... : ... .. . ...
ROW 2F : ... .. . ... : ... .. . ... : --- .. . ... : ... .. . ... : ... .. . ... : --- .. . ... : ... .. . ... : ... .. . ...
ROW 30 : D#4 0D . ... : D-4 0D . ... : G#1 00 . ... : B-# 03 8 ... : ... .. . ... : G#0 01 . ... : ... .. . ... : ... .. . ...
ROW 31 : ... .. . ... : ... .. . ... : --- .. . ... : --- .. . ... : ... .. . ... : --- .. . ... : ... .. . ... : ... .. . ...
ROW 32 : D-4 0D . ... : D#4 0D . ... : G#1 00 . ... : ... .. . ... : ... .. . ... : G#0 01 . ... : ... .. . ... : ... .. . ...
ROW 33 : ... .. . ... : ... .. . ... : --- .. . ... : ... .. . ... : ... .. . ... : --- .. . ... : ... .. . ... : ... .. . ...
ROW 34 : C-4 0D . ... : D-4 0D . ... : G#1 00 . ... : 9-# 03 C ... : ... .. . ... : G#0 01 . ... : ... .. . ... : ... .. . ...
ROW 35 : ... .. . ... : ... .. . ... : --- .. . ... : ... .. . ... : ... .. . ... : --- .. . ... : ... .. . ... : ... .. . ...
ROW 36 : G#3 0D . ... : C-4 0D . ... : G#1 00 . ... : ... .. . ... : ... .. . ... : G#0 01 . ... : ... .. . ... : ... .. . ...
ROW 37 : ... .. . ... : ... .. . ... : --- .. . ... : ... .. . ... : ... .. . ... : --- .. . ... : ... .. . ... : ... .. . ...
ROW 38 : G-3 0D . ... : G#3 0D . ... : G#1 00 . ... : 3-# 03 F ... : ... .. . ... : G#0 01 . ... : ... .. . ... : ... .. . ...
ROW 39 : ... .. . ... : ... .. . ... : --- .. . ... : ... .. . ... : ... .. . ... : --- .. . ... : ... .. . ... : ... .. . ...
ROW 3A : D#3 0D . ... : G-3 0D . ... : G#1 00 . ... : C-# 02 8 ... : ... .. . ... : G#0 01 . ... : ... .. . ... : ... .. . ...
ROW 3B : ... .. . ... : ... .. . ... : --- .. . ... : ... .. . ... : ... .. . ... : --- .. . ... : ... .. . ... : ... .. . ...
ROW 3C : D-3 0D . ... : D#3 0D . ... : G#1 00 . ... : C-# 02 6 ... : ... .. . ... : G#0 01 . ... : ... .. . ... : ... .. . ...
ROW 3D : ... .. . ... : ... .. . ... : --- .. . ... : ... .. . ... : ... .. . ... : --- .. . ... : ... .. . ... : ... .. . ...
ROW 3E : C-3 0D . ... : D-3 0D . ... : G#1 00 . ... : C-# 02 4 ... : ... .. . ... : G#0 01 . ... : ... .. . ... : ... .. . ...
ROW 3F : ... .. . ... : ... .. . ... : --- .. . ... : ... .. . ... : ... .. . ... : --- .. . ... : ... .. . ... : ... .. . ...
ROW 40 : G-2 0D . ... : C-3 0D . ... : G-1 00 . ... : C-# 02 2 ... : ... .. . ... : G-0 01 . ... : B-1 01 2 ... : G-1 01 2 ...
ROW 41 : ... .. . ... : ... .. . ... : --- .. . ... : ... .. . ... : ... .. . ... : --- .. . ... : ... .. . ... : ... .. . ...
ROW 42 : B-2 0D . ... : G-2 0D . ... : G-1 00 . ... : C-# 02 4 ... : ... .. . ... : G-0 01 . ... : ... .. 3 ... : ... .. 3 ...
ROW 43 : ... .. . ... : ... .. . ... : --- .. . ... : ... .. . ... : ... .. . ... : --- .. . ... : ... .. . ... : ... .. . ...
ROW 44 : D-3 0D . ... : B-2 0D . ... : G-1 00 . ... : C-# 02 6 ... : ... .. . ... : G-0 01 . ... : ... .. 4 ... : ... .. 4 ...
ROW 45 : ... .. . ... : ... .. . ... : --- .. . ... : ... .. . ... : ... .. . ... : --- .. . ... : ... .. . ... : ... .. . ...
ROW 46 : D#3 0D . ... : D-3 0D . ... : G-1 00 . ... : B-# 02 8 ... : ... .. . ... : G-0 01 . ... : ... .. 5 ... : ... .. 5 ...
ROW 47 : ... .. . ... : ... .. . ... : --- .. . ... : ... .. . ... : ... .. . ... : --- .. . ... : ... .. . ... : ... .. . ...
ROW 48 : F-3 0D . ... : D#3 0D . ... : G-1 00 . ... : 3-# 03 F ... : ... .. . ... : G-0 01 . ... : ... .. . ... : ... .. . ...
ROW 49 : ... .. . ... : ... .. . ... : --- .. . ... : ... .. . ... : ... .. . ... : --- .. . ... : ... .. . ... : ... .. . ...
ROW 4A : G-3 0D . ... : F-3 0D . ... : G-1 00 . ... : ... .. . ... : ... .. . ... : G-0 01 . ... : ... .. . ... : ... .. . ...
ROW 4B : ... .. . ... : ... .. . ... : --- .. . ... : ... .. . ... : ... .. . ... : --- .. . ... : ... .. . ... : ... .. . ...
ROW 4C : B-3 0D . ... : G-3 0D . ... : G-1 00 . ... : 9-# 03 C ... : ... .. . ... : G-0 01 . ... : ... .. . ... : ... .. . ...
ROW 4D : ... .. . ... : ... .. . ... : --- .. . ... : ... .. . ... : ... .. . ... : --- .. . ... : ... .. . ... : ... .. . ...
ROW 4E : D-4 0D . ... : B-3 0D . ... : G-1 00 . ... : ... .. . ... : ... .. . ... : G-0 01 . ... : ... .. . ... : ... .. . ...
ROW 4F : ... .. . ... : ... .. . ... : --- .. . ... : ... .. . ... : ... .. . ... : --- .. . ... : ... .. . ... : ... .. . ...
ROW 50 : G-4 0D . ... : D-4 0D . ... : G-1 00 . ... : B-# 03 8 ... : ... .. . ... : G-0 01 . ... : ... .. . ... : ... .. . ...
ROW 51 : ... .. . ... : ... .. . ... : --- .. . ... : --- .. . ... : ... .. . ... : --- .. . ... : ... .. . ... : ... .. . ...
ROW 52 : D-4 0D . ... : G-4 0D . ... : G-1 00 . ... : ... .. . ... : ... .. . ... : G-0 01 . ... : ... .. . ... : ... .. . ...
ROW 53 : ... .. . ... : ... .. . ... : --- .. . ... : ... .. . ... : ... .. . ... : --- .. . ... : ... .. . ... : ... .. . ...
ROW 54 : B-3 0D . ... : D-4 0D . ... : G-1 00 . ... : 9-# 03 C ... : ... .. . ... : G-0 01 . ... : ... .. . ... : ... .. . ...
ROW 55 : ... .. . ... : ... .. . ... : --- .. . ... : ... .. . ... : ... .. . ... : --- .. . ... : ... .. . ... : ... .. . ...
ROW 56 : G-3 0D . ... : B-3 0D . ... : G-1 00 . ... : ... .. . ... : ... .. . ... : G-0 01 . ... : ... .. . ... : ... .. . ...
ROW 57 : ... .. . ... : ... .. . ... : --- .. . ... : ... .. . ... : ... .. . ... : --- .. . ... : ... .. . ... : ... .. . ...
ROW 58 : F-3 0D . ... : G-3 0D . ... : G-1 00 . ... : 3-# 03 F ... : ... .. . ... : G-0 01 . ... : ... .. . ... : ... .. . ...
ROW 59 : ... .. . ... : ... .. . ... : --- .. . ... : ... .. . ... : ... .. . ... : --- .. . ... : ... .. . ... : ... .. . ...
ROW 5A : D#3 0D . ... : F-3 0D . ... : G-1 00 . ... : C-# 02 8 ... : ... .. . ... : G-0 01 . ... : ... .. . ... : ... .. . ...
ROW 5B : ... .. . ... : ... .. . ... : --- .. . ... : ... .. . ... : ... .. . ... : --- .. . ... : ... .. . ... : ... .. . ...
ROW 5C : D-3 0D . ... : D#3 0D . ... : G-1 00 . ... : C-# 02 6 ... : ... .. . ... : G-0 01 . ... : ... .. . ... : ... .. . ...
ROW 5D : ... .. . ... : ... .. . ... : --- .. . ... : ... .. . ... : ... .. . ... : --- .. . ... : ... .. . ... : ... .. . ...
ROW 5E : B-2 0D . ... : D-3 0D . ... : G-1 00 . ... : C-# 02 4 ... : ... .. . ... : G-0 01 . ... : ... .. . ... : ... .. . ...
ROW 5F : ... .. . ... : ... .. . ... : --- .. . ... : ... .. . ... : ... .. . ... : --- .. . ... : ... .. . ... : ... .. . ...
ROW 60 : G-2 0D . ... : B-2 0D . ... : G-1 00 . ... : D-# 03 4 ... : ... .. . ... : G-0 01 . ... : ... .. . ... : ... .. . ...
ROW 61 : ... .. . ... : ... .. . ... : --- .. . ... : ... .. . ... : ... .. . ... : --- .. . ... : ... .. . ... : ... .. . ...
ROW 62 : B-2 0D . ... : G-2 0D . ... : G-1 00 . ... : 9-# 03 5 ... : ... .. . ... : G-0 01 . ... : ... .. . ... : ... .. . ...
ROW 63 : ... .. . ... : ... .. . ... : --- .. . ... : ... .. . ... : ... .. . ... : --- .. . ... : ... .. . ... : ... .. . ...
ROW 64 : D-3 0D . ... : B-2 0D . ... : G-1 00 . ... : ... .. . ... : ... .. . ... : G-0 01 . ... : ... .. . ... : ... .. . ...
ROW 65 : ... .. . ... : ... .. . ... : --- .. . ... : ... .. . ... : ... .. . ... : --- .. . ... : ... .. . ... : ... .. . ...
ROW 66 : D#3 0D . ... : D-3 0D . ... : G-1 00 . ... : D-# 03 6 ... : ... .. . ... : G-0 01 . ... : ... .. . ... : ... .. . ...
ROW 67 : ... .. . ... : ... .. . ... : --- .. . ... : ... .. . ... : ... .. . ... : --- .. . ... : ... .. . ... : ... .. . ...
ROW 68 : F-3 0D . ... : D#3 0D . ... : G-1 00 . ... : 9-# 03 7 ... : ... .. . ... : G-0 01 . ... : ... .. . ... : ... .. . ...
ROW 69 : ... .. . ... : ... .. . ... : --- .. . ... : ... .. . ... : ... .. . ... : --- .. . ... : ... .. . ... : ... .. . ...
ROW 6A : G-3 0D . ... : F-3 0D . ... : G-1 00 . ... : ... .. . ... : ... .. . ... : G-0 01 . ... : ... .. . ... : ... .. . ...
ROW 6B : ... .. . ... : ... .. . ... : --- .. . ... : ... .. . ... : ... .. . ... : --- .. . ... : ... .. . ... : ... .. . ...
ROW 6C : B-3 0D . ... : G-3 0D . ... : G-1 00 . ... : D-# 03 8 ... : ... .. . ... : G-0 01 . ... : ... .. . ... : ... .. . ...
ROW 6D : ... .. . ... : ... .. . ... : --- .. . ... : ... .. . ... : ... .. . ... : --- .. . ... : ... .. . ... : ... .. . ...
ROW 6E : D-4 0D . ... : B-3 0D . ... : G-1 00 . ... : 9-# 03 9 ... : ... .. . ... : G-0 01 . ... : ... .. . ... : ... .. . ...
ROW 6F : ... .. . ... : ... .. . ... : --- .. . ... : ... .. . ... : ... .. . ... : --- .. . ... : ... .. . ... : ... .. . ...
ROW 70 : G-4 0D . ... : D-4 0D . ... : G-1 00 . ... : ... .. . ... : ... .. . ... : G-0 01 . ... : ... .. . ... : ... .. . ...
ROW 71 : ... .. . ... : ... .. . ... : --- .. . ... : ... .. . ... : ... .. . ... : --- .. . ... : ... .. . ... : ... .. . ...
ROW 72 : D-4 0D . ... : G-4 0D . ... : G-1 00 . ... : D-# 03 A ... : ... .. . ... : G-0 01 . ... : ... .. . ... : ... .. . ...
ROW 73 : ... .. . ... : ... .. . ... : --- .. . ... : ... .. . ... : ... .. . ... : --- .. . ... : ... .. . ... : ... .. . ...
ROW 74 : B-3 0D . ... : D-4 0D . ... : G-1 00 . ... : 9-# 03 B ... : ... .. . ... : G-0 01 . ... : ... .. . ... : ... .. . ...
ROW 75 : ... .. . ... : ... .. . ... : --- .. . ... : ... .. . ... : ... .. . ... : --- .. . ... : ... .. . ... : ... .. . ...
ROW 76 : G-3 0D . ... : B-3 0D . ... : G-1 00 . ... : ... .. . ... : ... .. . ... : G-0 01 . ... : ... .. . ... : ... .. . ...
ROW 77 : ... .. . ... : ... .. . ... : --- .. . ... : ... .. . ... : ... .. . ... : --- .. . ... : ... .. . ... : ... .. . ...
ROW 78 : F-3 0D C ... : G-3 0D 2 ... : G-1 00 . ... : 6-# 03 C ... : ... .. . ... : G-0 01 . ... : G-4 11 F ... : ... .. . ...
ROW 79 : ... .. . ... : ... .. . ... : --- .. . ... : ... .. . ... : ... .. . ... : --- .. . ... : ... .. . ... : ... .. . ...
ROW 7A : D#3 0D . ... : F-3 0D . ... : G-1 00 . ... : 5-# 03 D ... : ... .. . ... : G-0 01 . ... : ... .. . ... : ... .. . ...
ROW 7B : ... .. . ... : ... .. . ... : --- .. . ... : ... .. . ... : ... .. . ... : --- .. . ... : ... .. . ... : ... .. . ...
ROW 7C : D-3 0D . ... : D#3 0D . ... : G-1 00 . ... : 4-# 03 E ... : ... .. . ... : G-0 01 . ... : D-4 11 . ... : ... .. . ...
ROW 7D : ... .. . ... : ... .. . ... : --- .. . ... : ... .. . ... : ... .. . ... : --- .. . ... : ... .. . ... : ... .. . ...
ROW 7E : B-2 0D . ... : D-3 0D . ... : G-1 00 . ... : 3-# 03 F ... : ... .. . ... : G-0 01 . ... : B-3 11 . ... : ... .. . ...
ROW 7F : ... .. . ... : ... .. . ... : --- .. . ... : ... .. . ... : ... .. . ... : --- .. . ... : ... .. . ... : ... .. . ...

PATTERN 09
ROW 00 : D-2 0D . ... : ... .. . ... : F-3 00 . ... : 7-# 03 A ... : ... .. . ... : F-2 01 . ... : G#4 11 . ... : G#1 01 1 ...
ROW 01 : ... .. . ... : ... .. . ... : --- .. . ... : ... .. . ... : ... .. . ... : --- .. . ... : ... .. . ... : ... .. . ...
ROW 02 : F-2 0D . ... : D-2 0D 4 ... : F-3 00 . ... : B-# 03 8 ... : ... .. . ... : F-2 01 . ... : ... .. . ... : ... .. 2 ...
ROW 03 : ... .. . ... : ... .. . ... : --- .. . ... : ... .. . ... : ... .. . ... : --- .. . ... : ... .. . ... : ... .. . ...
ROW 04 : G#2 0D . ... : F-2 0D . ... : F-3 00 . ... : ... .. . ... : ... .. . ... : F-2 01 . ... : ... .. . ... : ... .. 3 ...
ROW 05 : ... .. . ... : ... .. . ... : --- .. . ... : ... .. . ... : ... .. . ... : --- .. . ... : ... .. . ... : ... .. . ...
ROW 06 : D-3 0D . ... : G#2 0D . ... : F-3 00 . ... : B-# 03 5 ... : ... .. . ... : F-2 01 . ... : ... .. . ... : ... .. 4 ...
ROW 07 : ... .. . ... : ... .. . ... : --- .. . ... : ... .. . ... : ... .. . ... : --- .. . ... : ... .. . ... : ... .. . ...
ROW 08 : F-3 0D . ... : D-3 0D . ... : F-3 00 . ... : F-# 03 C ... : ... .. . ... : F-2 01 . ... : ... .. . ... : ... .. 5 ...
ROW 09 : ... .. . ... : ... .. . ... : --- .. . ... : ... .. . ... : ... .. . ... : --- .. . ... : ... .. . ... : ... .. . ...
ROW 0A : G#3 0D . ... : F-3 0D . ... : F-3 00 . ... : B-# 03 7 ... : ... .. . ... : F-2 01 . ... : ... .. . ... : ... .. . ...
ROW 0B : ... .. . ... : ... .. . ... : --- .. . ... : D-# 03 6 ... : ... .. . ... : --- .. . ... : ... .. . ... : ... .. . ...
ROW 0C : D-4 0D . ... : G#3 0D . ... : F-3 00 . ... : 9-# 03 5 ... : ... .. . ... : F-2 01 . ... : F-4 11 . ... : ... .. . ...
ROW 0D : ... .. . ... : ... .. . ... : --- .. . ... : E-# 03 6 ... : ... .. . ... : --- .. . ... : ... .. . ... : ... .. . ...
ROW 0E : F-4 0D . ... : D-4 0D . ... : F-3 00 . ... : E-# 03 7 ... : ... .. . ... : F-2 01 . ... : ... .. . ... : ... .. . ...
ROW 0F : ... .. . ... : ... .. . ... : --- .. . ... : ... .. . ... : ... .. . ... : --- .. . ... : ... .. . ... : ... .. . ...
ROW 10 : G#4 0D . ... : F-4 0D . ... : F-3 00 . ... : 9-# 03 3 ... : ... .. . ... : F-2 01 . ... : ... .. . ... : ... .. . ...
ROW 11 : ... .. . ... : ... .. . ... : --- .. . ... : ... .. . ... : ... .. . ... : --- .. . ... : ... .. . ... : ... .. . ...
ROW 12 : F-4 0D . ... : G#4 0D . ... : F-3 00 . ... : 7-# 03 5 ... : ... .. . ... : F-2 01 . ... : ... .. . ... : ... .. . ...
ROW 13 : ... .. . ... : ... .. . ... : --- .. . ... : ... .. . ... : ... .. . ... : --- .. . ... : ... .. . ... : ... .. . ...
ROW 14 : D-4 0D . ... : F-4 0D . ... : F-3 00 . ... : 9-# 03 7 ... : ... .. . ... : F-2 01 . ... : ... .. . ... : ... .. . ...
ROW 15 : ... .. . ... : ... .. . ... : --- .. . ... : ... .. . ... : ... .. . ... : --- .. . ... : ... .. . ... : ... .. . ...
ROW 16 : G#3 0D . ... : D-4 0D . ... : F-3 00 . ... : 7-# 03 9 ... : ... .. . ... : F-2 01 . ... : ... .. . ... : ... .. . ...
ROW 17 : ... .. . ... : ... .. . ... : --- .. . ... : ... .. . ... : ... .. . ... : --- .. . ... : ... .. . ... : ... .. . ...
ROW 18 : F-3 0D . ... : G#3 0D . ... : F-3 00 . ... : F-# 03 F ... : ... .. . ... : F-2 01 . ... : D-4 11 . ... : ... .. . ...
ROW 19 : ... .. . ... : ... .. . ... : --- .. . ... : ... .. . ... : ... .. . ... : --- .. . ... : ... .. . ... : ... .. . ...
ROW 1A : D-3 0D . ... : F-3 0D . ... : F-3 00 . ... : 8-# 03 4 ... : ... .. . ... : F-2 01 . ... : ... .. . ... : ... .. . ...
ROW 1B : ... .. . ... : ... .. . ... : --- .. . ... : ... .. . ... : ... .. . ... : --- .. . ... : ... .. . ... : ... .. . ...
ROW 1C : G#2 0D . ... : D-3 0D . ... : F-3 00 . ... : A-# 03 6 ... : ... .. . ... : F-2 01 . ... : ... .. . ... : ... .. . ...
ROW 1D : ... .. . ... : ... .. . ... : --- .. . ... : A-# 03 7 ... : ... .. . ... : --- .. . ... : ... .. . ... : ... .. . ...
ROW 1E : F-2 0D . ... : G#2 0D . ... : F-3 00 . ... : 5-# 03 8 ... : ... .. . ... : F-2 01 . ... : ... .. . ... : ... .. . ...
ROW 1F : ... .. . ... : ... .. . ... : --- .. . ... : 5-# 03 9 ... : ... .. . ... : --- .. . ... : ... .. . ... : ... .. . ...
ROW 20 : D-2 0D . ... : F-2 0D . ... : G#3 00 . ... : 7-# 03 A ... : ... .. . ... : G#1 01 . ... : ... .. . ... : ... .. . ...
ROW 21 : ... .. . ... : ... .. . ... : --- .. . ... : ... .. . ... : ... .. . ... : --- .. . ... : ... .. . ... : ... .. . ...
ROW 22 : F-2 0D . ... : D-2 0D . ... : G#3 00 . ... : B-# 03 8 ... : ... .. . ... : G#1 01 . ... : ... .. . ... : ... .. . ...
ROW 23 : ... .. . ... : ... .. . ... : --- .. . ... : ... .. . ... : ... .. . ... : --- .. . ... : ... .. . ... : ... .. . ...
ROW 24 : G#2 0D . ... : F-2 0D . ... : G#3 00 . ... : ... .. . ... : ... .. . ... : G#1 01 . ... : ... .. . ... : ... .. . ...
ROW 25 : ... .. . ... : ... .. . ... : --- .. . ... : ... .. . ... : ... .. . ... : --- .. . ... : ... .. . ... : ... .. . ...
ROW 26 : D-3 0D . ... : G#2 0D . ... : G#3 00 . ... : B-# 03 5 ... : ... .. . ... : G#1 01 . ... : ... .. . ... : ... .. . ...
ROW 27 : ... .. . ... : ... .. . ... : --- .. . ... : ... .. . ... : ... .. . ... : --- .. . ... : ... .. . ... : ... .. . ...
ROW 28 : F-3 0D . ... : D-3 0D . ... : G#3 00 . ... : F-# 03 C ... : ... .. . ... : G#1 01 . ... : ... .. . ... : ... .. . ...
ROW 29 : ... .. . ... : ... .. . ... : --- .. . ... : ... .. . ... : ... .. . ... : --- .. . ... : ... .. . ... : ... .. . ...
ROW 2A : G#3 0D . ... : F-3 0D . ... : G#3 00 . ... : B-# 03 7 ... : ... .. . ... : G#1 01 . ... : ... .. . ... : ... .. . ...
ROW 2B : ... .. . ... : ... .. . ... : --- .. . ... : D-# 03 6 ... : ... .. . ... : --- .. . ... : ... .. . ... : ... .. . ...
ROW 2C : D-4 0D . ... : G#3 0D . ... : G#3 00 . ... : 9-# 03 5 ... : ... .. . ... : G#1 01 . ... : D-4 11 . ... : ... .. . ...
ROW 2D : ... .. . ... : ... .. . ... : --- .. . ... : E-# 03 6 ... : ... .. . ... : --- .. . ... : ... .. . ... : ... .. . ...
ROW 2E : F-4 0D . ... : D-4 0D . ... : G#3 00 . ... : E-# 03 7 ... : ... .. . ... : G#1 01 . ... : D#4 11 . ... : ... .. . ...
ROW 2F : ... .. . ... : ... .. . ... : --- .. . ... : ... .. . ... : ... .. . ... : --- .. . ... : ... .. . ... : ... .. . ...
ROW 30 : G#4 0D . ... : F-4 0D . ... : G#3 00 . ... : 9-# 03 3 ... : ... .. . ... : G#1 01 . ... : F-4 11 . ... : ... .. . ...
ROW 31 : ... .. . ... : ... .. . ... : --- .. . ... : ... .. . ... : ... .. . ... : --- .. . ... : ... .. . ... : ... .. . ...
ROW 32 : F-4 0D . ... : G#4 0D . ... : G#3 00 . ... : 7-# 03 5 ... : ... .. . ... : G#1 01 . ... : G-4 11 . ... : ... .. . ...
ROW 33 : ... .. . ... : ... .. . ... : --- .. . ... : ... .. . ... : ... .. . ... : --- .. . ... : ... .. . ... : ... .. . ...
ROW 34 : D-4 0D . ... : F-4 0D . ... : G#3 00 . ... : 9-# 03 7 ... : ... .. . ... : G#1 01 . ... : G#4 11 . ... : ... .. . ...
ROW 35 : ... .. . ... : ... .. . ... : --- .. . ... : ... .. . ... : ... .. . ... : --- .. . ... : ... .. . ... : ... .. . ...
ROW 36 : G#3 0D . ... : D-4 0D . ... : G#3 00 . ... : 7-# 03 9 ... : ... .. . ... : G#1 01 . ... : G-4 11 . ... : ... .. . ...
ROW 37 : ... .. . ... : ... .. . ... : --- .. . ... : ... .. . ... : ... .. . ... : --- .. . ... : ... .. . ... : ... .. . ...
ROW 38 : F-3 0D . ... : G#3 0D . ... : G#3 00 . ... : F-# 03 F ... : ... .. . ... : G#1 01 . ... : F-4 11 . ... : ... .. . ...
ROW 39 : ... .. . ... : ... .. . ... : --- .. . ... : ... .. . ... : ... .. . ... : --- .. . ... : ... .. . ... : ... .. . ...
ROW 3A : D-3 0D . ... : F-3 0D . ... : G#3 00 . ... : 8-# 03 4 ... : ... .. . ... : G#1 01 . ... : G-4 11 . ... : ... .. . ...
ROW 3B : ... .. . ... : ... .. . ... : --- .. . ... : ... .. . ... : ... .. . ... : --- .. . ... : ... .. . ... : ... .. . ...
ROW 3C : G#2 0D . ... : D-3 0D . ... : G#3 00 . ... : A-# 03 6 ... : ... .. . ... : G#1 01 . ... : F-4 11 . ... : ... .. . ...
ROW 3D : ... .. . ... : ... .. . ... : --- .. . ... : A-# 03 7 ... : ... .. . ... : --- .. . ... : ... .. . ... : ... .. . ...
ROW 3E : F-2 0D . ... : G#2 0D . ... : G#3 00 . ... : 5-# 03 8 ... : ... .. . ... : G#1 01 . ... : G-4 11 . ... : ... .. . ...
ROW 3F : ... .. . ... : ... .. . ... : --- .. . ... : 5-# 03 9 ... : ... .. . ... : --- .. . ... : ... .. . ... : ... .. . ...
ROW 40 : C-2 0D . ... : F-2 0D . ... : C-3 00 . ... : 2-# 03 C ... : ... .. . ... : C-2 01 8 ... : D#4 11 . ... : C-2 01 1 ...
ROW 41 : ... .. . ... : ... .. . ... : --- .. . ... : ... .. . ... : ... .. . ... : --- .. . ... : ... .. . ... : ... .. . ...
ROW 42 : D#2 0D . ... : C-2 0D . ... : C-3 00 . ... : B-# 03 8 ... : ... .. . ... : C-2 01 . ... : ... .. . ... : ... .. 2 ...
ROW 43 : ... .. . ... : ... .. . ... : --- .. . ... : ... .. . ... : ... .. . ... : --- .. . ... : ... .. . ... : ... .. . ...
ROW 44 : G-2 0D . ... : D#2 0D . ... : C-3 00 . ... : ... .. . ... : ... .. . ... : C-2 01 . ... : ... .. . ... : ... .. 3 ...
ROW 45 : ... .. . ... : ... .. . ... : --- .. . ... : ... .. . ... : ... .. . ... : --- .. . ... : ... .. . ... : ... .. . ...
ROW 46 : C-3 0D . ... : G-2 0D . ... : C-3 00 . ... : B-# 03 5 ... : ... .. . ... : C-2 01 . ... : ... .. . ... : ... .. 4 ...
ROW 47 : ... .. . ... : ... .. . ... : --- .. . ... : ... .. . ... : ... .. . ... : --- .. . ... : ... .. . ... : ... .. . ...
ROW 48 : D#3 0D . ... : C-3 0D . ... : C-3 00 . ... : F-# 03 C ... : ... .. . ... : C-2 01 . ... : ... .. . ... : ... .. 5 ...
ROW 49 : ... .. . ... : ... .. . ... : --- .. . ... : ... .. . ... : ... .. . ... : --- .. . ... : ... .. . ... : ... .. . ...
ROW 4A : G-3 0D . ... : D#3 0D . ... : C-3 00 . ... : B-# 03 7 ... : ... .. . ... : C-2 01 . ... : ... .. . ... : ... .. . ...
ROW 4B : ... .. . ... : ... .. . ... : --- .. . ... : D-# 03 6 ... : ... .. . ... : --- .. . ... : ... .. . ... : ... .. . ...
ROW 4C : C-4 0D . ... : G-3 0D . ... : C-3 00 . ... : 9-# 03 5 ... : ... .. . ... : C-2 01 . ... : C-4 11 . ... : ... .. . ...
ROW 4D : ... .. . ... : ... .. . ... : --- .. . ... : E-# 03 6 ... : ... .. . ... : --- .. . ... : ... .. . ... : ... .. . ...
ROW 4E : D#4 0D . ... : C-4 0D . ... : C-3 00 . ... : E-# 03 7 ... : ... .. . ... : C-2 01 . ... : ... .. . ... : ... .. . ...
ROW 4F : ... .. . ... : ... .. . ... : --- .. . ... : ... .. . ... : ... .. . ... : --- .. . ... : ... .. . ... : ... .. . ...
ROW 50 : G-4 0D . ... : D#4 0D . ... : C-3 00 . ... : 9-# 03 3 ... : ... .. . ... : C-2 01 . ... : ... .. . ... : ... .. . ...
ROW 51 : ... .. . ... : ... .. . ... : --- .. . ... : ... .. . ... : ... .. . ... : --- .. . ... : ... .. . ... : ... .. . ...
ROW 52 : D#4 0D . ... : G-4 0D . ... : C-3 00 . ... : 7-# 03 5 ... : ... .. . ... : C-2 01 . ... : ... .. . ... : ... .. . ...
ROW 53 : ... .. . ... : ... .. . ... : --- .. . ... : ... .. . ... : ... .. . ... : --- .. . ... : ... .. . ... : ... .. . ...
ROW 54 : C-4 0D . ... : D#4 0D . ... : C-3 00 . ... : 9-# 03 7 ... : ... .. . ... : C-2 01 . ... : ... .. . ... : ... .. . ...
ROW 55 : ... .. . ... : ... .. . ... : --- .. . ... : ... .. . ... : ... .. . ... : --- .. . ... : ... .. . ... : ... .. . ...
ROW 56 : G-3 0D . ... : C-4 0D . ... : C-3 00 . ... : 7-# 03 9 ... : ... .. . ... : C-2 01 . ... : ... .. . ... : ... .. . ...
ROW 57 : ... .. . ... : ... .. . ... : --- .. . ... : ... .. . ... : ... .. . ... : --- .. . ... : ... .. . ... : ... .. . ...
ROW 58 : D#3 0D . ... : G-3 0D . ... : C-3 00 . ... : F-# 03 F ... : ... .. . ... : C-2 01 . ... : ... .. . ... : ... .. . ...
ROW 59 : ... .. . ... : ... .. . ... : --- .. . ... : ... .. . ... : ... .. . ... : --- .. . ... : ... .. . ... : ... .. . ...
ROW 5A : C-3 0D . ... : D#3 0D . ... : C-3 00 . ... : 8-# 03 4 ... : ... .. . ... : C-2 01 . ... : ... .. . ... : ... .. . ...
ROW 5B : ... .. . ... : ... .. . ... : --- .. . ... : ... .. . ... : ... .. . ... : --- .. . ... : ... .. . ... : ... .. . ...
ROW 5C : G-2 0D . ... : C-3 0D . ... : C-3 00 . ... : A-# 03 6 ... : ... .. . ... : C-2 01 . ... : C-4 11 . ... : ... .. . ...
ROW 5D : ... .. . ... : ... .. . ... : --- .. . ... : A-# 03 7 ... : ... .. . ... : --- .. . ... : ... .. . ... : ... .. . ...
ROW 5E : D#2 0D . ... : G-2 0D . ... : C-3 00 . ... : 5-# 03 8 ... : ... .. . ... : C-2 01 . ... : D-4 11 . ... : ... .. . ...
ROW 5F : ... .. . ... : ... .. . ... : --- .. . ... : 5-# 03 9 ... : ... .. . ... : --- .. . ... : ... .. . ... : ... .. . ...
ROW 60 : C-2 0D . ... : D#2 0D . ... : C-3 00 . ... : D-# 03 4 ... : ... .. . ... : C-2 01 . ... : D#4 11 . ... : ... .. . ...
ROW 61 : ... .. . ... : ... .. . ... : --- .. . ... : ... .. . ... : ... .. . ... : --- .. . ... : ... .. . ... : ... .. . ...
ROW 62 : D#2 0D . ... : C-2 0D . ... : C-3 00 . ... : 9-# 03 5 ... : ... .. . ... : C-2 01 . ... : ... .. . ... : ... .. . ...
ROW 63 : ... .. . ... : ... .. . ... : --- .. . ... : ... .. . ... : ... .. . ... : --- .. . ... : ... .. . ... : ... .. . ...
ROW 64 : G-2 0D . ... : D#2 0D . ... : C-3 00 . ... : ... .. . ... : ... .. . ... : C-2 01 . ... : D-4 11 . ... : ... .. . ...
ROW 65 : ... .. . ... : ... .. . ... : --- .. . ... : ... .. . ... : ... .. . ... : --- .. . ... : ... .. . ... : ... .. . ...
ROW 66 : C-3 0D . ... : G-2 0D . ... : C-3 00 . ... : D-# 03 6 ... : ... .. . ... : C-2 01 . ... : ... .. . ... : ... .. . ...
ROW 67 : ... .. . ... : ... .. . ... : --- .. . ... : ... .. . ... : ... .. . ... : --- .. . ... : ... .. . ... : ... .. . ...
ROW 68 : D#3 0D . ... : C-3 0D . ... : C-3 00 . ... : 9-# 03 7 ... : ... .. . ... : C-2 01 . ... : D#4 11 . ... : ... .. . ...
ROW 69 : ... .. . ... : ... .. . ... : --- .. . ... : ... .. . ... : ... .. . ... : --- .. . ... : ... .. . ... : ... .. . ...
ROW 6A : G-3 0D . ... : D#3 0D . ... : C-3 00 . ... : ... .. . ... : ... .. . ... : C-2 01 . ... : ... .. . ... : ... .. . ...
ROW 6B : ... .. . ... : ... .. . ... : --- .. . ... : ... .. . ... : ... .. . ... : --- .. . ... : ... .. . ... : ... .. . ...
ROW 6C : C-4 0D . ... : G-3 0D . ... : C-3 00 . ... : D-# 03 8 ... : ... .. . ... : C-2 01 . ... : F-4 11 . ... : ... .. . ...
ROW 6D : ... .. . ... : ... .. . ... : --- .. . ... : ... .. . ... : ... .. . ... : --- .. . ... : ... .. . ... : ... .. . ...
ROW 6E : D#4 0D . ... : C-4 0D . ... : C-3 00 . ... : 9-# 03 9 ... : ... .. . ... : C-2 01 . ... : ... .. . ... : ... .. . ...
ROW 6F : ... .. . ... : ... .. . ... : --- .. . ... : ... .. . ... : ... .. . ... : --- .. . ... : ... .. . ... : ... .. . ...
ROW 70 : B-1 0D . ... : D#4 0D . ... : B-2 00 . ... : ... .. . ... : ... .. . ... : B-1 01 . ... : G-4 11 . ... : B-1 01 1 ...
ROW 71 : ... .. . ... : ... .. . ... : --- .. . ... : ... .. . ... : ... .. . ... : --- .. . ... : ... .. . ... : ... .. . ...
ROW 72 : D-2 0D . ... : B-1 0D . ... : B-2 00 . ... : D-# 03 A ... : ... .. . ... : B-1 01 . ... : ... .. . ... : ... .. 2 ...
ROW 73 : ... .. . ... : ... .. . ... : --- .. . ... : ... .. . ... : ... .. . ... : --- .. . ... : ... .. . ... : ... .. . ...
ROW 74 : G-2 0D . ... : D-2 0D . ... : B-2 00 . ... : 9-# 03 B ... : ... .. . ... : B-1 01 . ... : ... .. . ... : ... .. 3 ...
ROW 75 : ... .. . ... : ... .. . ... : --- .. . ... : ... .. . ... : ... .. . ... : --- .. . ... : ... .. . ... : ... .. . ...
ROW 76 : B-2 0D . ... : G-2 0D . ... : B-2 00 . ... : ... .. . ... : ... .. . ... : B-1 01 . ... : ... .. . ... : ... .. 4 ...
ROW 77 : ... .. . ... : ... .. . ... : --- .. . ... : ... .. . ... : ... .. . ... : --- .. . ... : ... .. . ... : ... .. . ...
ROW 78 : D-3 0D . ... : B-2 0D . ... : B-2 00 . ... : 6-# 03 C ... : ... .. . ... : B-1 01 . ... : B-4 11 . ... : ... .. 5 ...
ROW 79 : ... .. . ... : ... .. . ... : --- .. . ... : ... .. . ... : ... .. . ... : --- .. . ... : ... .. . ... : ... .. . ...
ROW 7A : G-3 0D . ... : D-3 0D . ... : B-2 00 . ... : 5-# 03 D ... : ... .. . ... : B-1 01 . ... : ... .. . ... : ... .. . ...
ROW 7B : ... .. . ... : ... .. . ... : --- .. . ... : ... .. . ... : ... .. . ... : --- .. . ... : ... .. . ... : ... .. . ...
ROW 7C : B-3 0D . ... : G-3 0D . ... : B-2 00 . ... : 4-# 03 E ... : ... .. . ... : B-1 01 . ... : B-4 11 . ... : ... .. . ...
ROW 7D : ... .. . ... : ... .. . ... : --- .. . ... : ... .. . ... : ... .. . ... : --- .. . ... : ... .. . ... : ... .. . ...
ROW 7E : D-4 0D . ... : B-3 0D . ... : B-2 00 . ... : 3-# 03 F ... : ... .. . ... : B-1 01 . ... : D-5 11 . ... : ... .. . ...
ROW 7F : ... .. . ... : ... .. . ... : --- .. . ... : ... .. . ... : ... .. . ... : --- .. . ... : ... .. . ... : ... .. . ...

PATTERN 0A
ROW 00 : C-2 0D F ... : ... .. . ... : C-2 00 . ... : 2-# 03 C ... : ... .. . ... : C-1 01 8 ... : D#4 11 F ... : D#5 04 F ...
ROW 01 : ... .. . ... : ... .. . ... : --- .. . ... : ... .. . ... : ... .. . ... : --- .. . ... : ... .. . ... : ... .. E ...
ROW 02 : D#2 0D . ... : C-2 0D 4 ... : C-2 00 . ... : B-# 03 8 ... : ... .. . ... : C-1 01 . ... : ... .. . ... : ... .. E ...
ROW 03 : ... .. . ... : ... .. . ... : --- .. . ... : ... .. . ... : ... .. . ... : --- .. . ... : ... .. . ... : ... .. E ...
ROW 04 : G-2 0D . ... : D#2 0D . ... : C-2 00 . ... : ... .. . ... : ... .. . ... : C-1 01 . ... : D-4 11 . ... : D-5 04 E ...
ROW 05 : ... .. . ... : ... .. . ... : --- .. . ... : ... .. . ... : ... .. . ... : --- .. . ... : ... .. . ... : ... .. E ...
ROW 06 : C-3 0D . ... : G-2 0D . ... : C-2 00 . ... : B-# 03 5 ... : ... .. . ... : C-1 01 . ... : ... .. . ... : ... .. E ...
ROW 07 : ... .. . ... : ... .. . ... : --- .. . ... : ... .. . ... : ... .. . ... : --- .. . ... : ... .. . ... : ... .. E ...
ROW 08 : D#3 0D . ... : C-3 0D . ... : C-2 00 . ... : F-# 03 C ... : ... .. . ... : C-1 01 . ... : C-4 11 . ... : C-5 04 E ...
ROW 09 : ... .. . ... : ... .. . ... : --- .. . ... : ... .. . ... : ... .. . ... : --- .. . ... : ... .. . ... : ... .. E ...
ROW 0A : G-3 0D . ... : D#3 0D . ... : C-2 00 . ... : B-# 03 7 ... : ... .. . ... : C-1 01 . ... : ... .. . ... : ... .. D ...
ROW 0B : ... .. . ... : ... .. . ... : --- .. . ... : D-# 03 6 ... : ... .. . ... : --- .. . ... : ... .. . ... : ... .. D ...
ROW 0C : C-4 0D . ... : G-3 0D . ... : C-2 00 . ... : 9-# 03 5 ... : ... .. . ... : C-1 01 . ... : G-3 11 . ... : G-4 04 D ...
ROW 0D : ... .. . ... : ... .. . ... : --- .. . ... : E-# 03 6 ... : ... .. . ... : --- .. . ... : ... .. . ... : ... .. D ...
ROW 0E : D#4 0D . ... : C-4 0D . ... : C-2 00 . ... : E-# 03 7 ... : ... .. . ... : C-1 01 . ... : ... .. . ... : ... .. D ...
ROW 0F : ... .. . ... : ... .. . ... : --- .. . ... : ... .. . ... : ... .. . ... : --- .. . ... : ... .. . ... : ... .. D ...
ROW 10 : G-4 0D . ... : D#4 0D . ... : C-2 00 . ... : 9-# 03 3 ... : ... .. . ... : C-1 01 . ... : ... .. . ... : ... .. D ...
ROW 11 : ... .. . ... : ... .. . ... : --- .. . ... : ... .. . ... : ... .. . ... : --- .. . ... : ... .. . ... : ... .. D ...
ROW 12 : D#4 0D . ... : G-4 0D . ... : C-2 00 . ... : 7-# 03 5 ... : ... .. . ... : C-1 01 . ... : ... .. . ... : ... .. D ...
ROW 13 : ... .. . ... : ... .. . ... : --- .. . ... : ... .. . ... : ... .. . ... : --- .. . ... : ... .. . ... : ... .. C ...
ROW 14 : C-4 0D . ... : D#4 0D . ... : C-2 00 . ... : 9-# 03 7 ... : ... .. . ... : C-1 01 . ... : C-4 11 . ... : C-5 04 C ...
ROW 15 : ... .. . ... : ... .. . ... : --- .. . ... : ... .. . ... : ... .. . ... : --- .. . ... : ... .. . ... : ... .. C ...
ROW 16 : G-3 0D . ... : C-4 0D . ... : C-2 00 . ... : 7-# 03 9 ... : ... .. . ... : C-1 01 . ... : ... .. . ... : ... .. C ...
ROW 17 : ... .. . ... : ... .. . ... : --- .. . ... : ... .. . ... : ... .. . ... : --- .. . ... : ... .. . ... : ... .. C ...
ROW 18 : D#3 0D . ... : G-3 0D . ... : C-2 00 . ... : F-# 03 F ... : ... .. . ... : C-1 01 . ... : D-4 11 . ... : D-5 04 C ...
ROW 19 : ... .. . ... : ... .. . ... : --- .. . ... : ... .. . ... : ... .. . ... : --- .. . ... : ... .. . ... : ... .. C ...
ROW 1A : C-3 0D . ... : D#3 0D . ... : C-2 00 . ... : 8-# 03 4 ... : ... .. . ... : C-1 01 . ... : ... .. . ... : ... .. C ...
ROW 1B : ... .. . ... : ... .. . ... : --- .. . ... : ... .. . ... : ... .. . ... : --- .. . ... : ... .. . ... : ... .. C ...
ROW 1C : G-2 0D . ... : C-3 0D . ... : C-2 00 . ... : A-# 03 6 ... : ... .. . ... : C-1 01 . ... : D#4 11 . ... : D#5 04 B ...
ROW 1D : ... .. . ... : ... .. . ... : --- .. . ... : A-# 03 7 ... : ... .. . ... : --- .. . ... : ... .. . ... : ... .. B ...
ROW 1E : D#2 0D . ... : G-2 0D . ... : C-2 00 . ... : 5-# 03 8 ... : ... .. . ... : C-1 01 . ... : ... .. . ... : ... .. B ...
ROW 1F : ... .. . ... : ... .. . ... : --- .. . ... : 5-# 03 9 ... : ... .. . ... : --- .. . ... : ... .. . ... : ... .. B ...
ROW 20 : C-2 0D . ... : D#2 0D . ... : C-2 00 . ... : 7-# 03 A ... : ... .. . ... : C-1 01 . ... : G-4 11 . ... : G-5 04 B ...
ROW 21 : ... .. . ... : ... .. . ... : --- .. . ... : ... .. . ... : ... .. . ... : --- .. . ... : ... .. . ... : ... .. B ...
ROW 22 : D#2 0D . ... : C-2 0D . ... : C-2 00 . ... : B-# 03 8 ... : ... .. . ... : C-1 01 . ... : ... .. . ... : ... .. B ...
ROW 23 : ... .. . ... : ... .. . ... : --- .. . ... : ... .. . ... : ... .. . ... : --- .. . ... : ... .. . ... : ... .. B ...
ROW 24 : G-2 0D . ... : D#2 0D . ... : C-2 00 . ... : ... .. . ... : ... .. . ... : C-1 01 . ... : ... .. . ... : ... .. B ...
ROW 25 : ... .. . ... : ... .. . ... : --- .. . ... : ... .. . ... : ... .. . ... : --- .. . ... : ... .. . ... : ... .. A ...
ROW 26 : C-3 0D . ... : G-2 0D . ... : C-2 00 . ... : B-# 03 5 ... : ... .. . ... : C-1 01 . ... : ... .. . ... : ... .. A ...
ROW 27 : ... .. . ... : ... .. . ... : --- .. . ... : ... .. . ... : ... .. . ... : --- .. . ... : ... .. . ... : ... .. A ...
ROW 28 : D#3 0D . ... : C-3 0D . ... : C-2 00 . ... : F-# 03 C ... : ... .. . ... : C-1 01 . ... : G#4 11 . ... : G#5 04 A ...
ROW 29 : ... .. . ... : ... .. . ... : --- .. . ... : ... .. . ... : ... .. . ... : --- .. . ... : ... .. . ... : ... .. A ...
ROW 2A : G-3 0D . ... : D#3 0D . ... : C-2 00 . ... : B-# 03 7 ... : ... .. . ... : C-1 01 . ... : ... .. . ... : ... .. A ...
ROW 2B : ... .. . ... : ... .. . ... : --- .. . ... : D-# 03 6 ... : ... .. . ... : --- .. . ... : ... .. . ... : ... .. A ...
ROW 2C : C-4 0D . ... : G-3 0D . ... : C-2 00 . ... : 9-# 03 5 ... : ... .. . ... : C-1 01 . ... : ... .. . ... : ... .. A ...
ROW 2D : ... .. . ... : ... .. . ... : --- .. . ... : E-# 03 6 ... : ... .. . ... : --- .. . ... : ... .. . ... : ... .. A ...
ROW 2E : D#4 0D . ... : C-4 0D . ... : C-2 00 . ... : E-# 03 7 ... : ... .. . ... : C-1 01 . ... : ... .. . ... : ... .. 9 ...
ROW 2F : ... .. . ... : ... .. . ... : --- .. . ... : ... .. . ... : ... .. . ... : --- .. . ... : ... .. . ... : ... .. 9 ...
ROW 30 : G-4 0D . ... : D#4 0D . ... : C-2 00 . ... : 9-# 03 3 ... : ... .. . ... : C-1 01 . ... : G-4 11 . ... : G-5 04 9 ...
ROW 31 : ... .. . ... : ... .. . ... : --- .. . ... : ... .. . ... : ... .. . ... : --- .. . ... : ... .. . ... : ... .. 9 ...
ROW 32 : D#4 0D . ... : G-4 0D . ... : C-2 00 . ... : 7-# 03 5 ... : ... .. . ... : C-1 01 . ... : F-4 11 . ... : F-5 04 9 ...
ROW 33 : ... .. . ... : ... .. . ... : --- .. . ... : ... .. . ... : ... .. . ... : --- .. . ... : ... .. . ... : ... .. 9 ...
ROW 34 : C-4 0D . ... : D#4 0D . ... : C-2 00 . ... : 9-# 03 7 ... : ... .. . ... : C-1 01 . ... : D#4 11 . ... : D#5 04 9 ...
ROW 35 : ... .. . ... : ... .. . ... : --- .. . ... : ... .. . ... : ... .. . ... : --- .. . ... : ... .. . ... : ... .. 9 ...
ROW 36 : G-3 0D . ... : C-4 0D . ... : C-2 00 . ... : 7-# 03 9 ... : ... .. . ... : C-1 01 . ... : D-4 11 . ... : D-5 04 9 ...
ROW 37 : ... .. . ... : ... .. . ... : --- .. . ... : ... .. . ... : ... .. . ... : --- .. . ... : ... .. . ... : ... .. 8 ...
ROW 38 : D#3 0D . ... : G-3 0D . ... : C-2 00 . ... : F-# 03 F ... : ... .. . ... : C-1 01 . ... : D#4 11 . ... : D#5 04 8 ...
ROW 39 : ... .. . ... : ... .. . ... : --- .. . ... : ... .. . ... : ... .. . ... : --- .. . ... : ... .. . ... : ... .. 8 ...
ROW 3A : C-3 0D . ... : D#3 0D . ... : C-2 00 . ... : 8-# 03 4 ... : ... .. . ... : C-1 01 . ... : D-4 11 . ... : D-5 04 8 ...
ROW 3B : ... .. . ... : ... .. . ... : --- .. . ... : ... .. . ... : ... .. . ... : --- .. . ... : ... .. . ... : ... .. 8 ...
ROW 3C : G-2 0D . ... : C-3 0D . ... : C-2 00 . ... : A-# 03 6 ... : ... .. . ... : C-1 01 . ... : C-4 11 . ... : C-5 04 8 ...
ROW 3D : ... .. . ... : ... .. . ... : --- .. . ... : A-# 03 7 ... : ... .. . ... : --- .. . ... : ... .. . ... : ... .. 8 ...
ROW 3E : D#2 0D . ... : G-2 0D . ... : C-2 00 . ... : 5-# 03 8 ... : ... .. . ... : C-1 01 . ... : D#4 11 . ... : D#5 04 8 ...
ROW 3F : ... .. . ... : ... .. . ... : --- .. . ... : 5-# 03 9 ... : ... .. . ... : --- .. . ... : ... .. . ... : ... .. 8 ...
ROW 40 : C-2 0D . ... : D#2 0D . ... : F-2 00 . ... : 7-# 03 A ... : ... .. . ... : F-1 01 . ... : F-4 11 . ... : F-5 04 7 ...
ROW 41 : ... .. . ... : ... .. . ... : --- .. . ... : ... .. . ... : ... .. . ... : --- .. . ... : ... .. . ... : ... .. 7 ...
ROW 42 : F-2 0D . ... : C-2 0D . ... : F-2 00 . ... : B-# 03 8 ... : ... .. . ... : F-1 01 . ... : ... .. . ... : ... .. 7 ...
ROW 43 : ... .. . ... : ... .. . ... : --- .. . ... : ... .. . ... : ... .. . ... : --- .. . ... : ... .. . ... : ... .. 7 ...
ROW 44 : G#2 0D . ... : F-2 0D . ... : F-2 00 . ... : ... .. . ... : ... .. . ... : F-1 01 . ... : ... .. . ... : ... .. 7 ...
ROW 45 : ... .. . ... : ... .. . ... : --- .. . ... : ... .. . ... : ... .. . ... : --- .. . ... : ... .. . ... : ... .. 7 ...
ROW 46 : C-3 0D . ... : G#2 0D . ... : F-2 00 . ... : B-# 03 5 ... : ... .. . ... : F-1 01 . ... : C-4 11 . ... : C-5 04 7 ...
ROW 47 : ... .. . ... : ... .. . ... : --- .. . ... : ... .. . ... : ... .. . ... : --- .. . ... : ... .. . ... : ... .. 7 ...
ROW 48 : F-3 0D . ... : C-3 0D . ... : F-2 00 . ... : F-# 03 C ... : ... .. . ... : F-1 01 . ... : ... .. . ... : ... .. 7 ...
ROW 49 : ... .. . ... : ... .. . ... : --- .. . ... : ... .. . ... : ... .. . ... : --- .. . ... : ... .. . ... : ... .. 6 ...
ROW 4A : G#3 0D . ... : F-3 0D . ... : F-2 00 . ... : B-# 03 7 ... : ... .. . ... : F-1 01 . ... : ... .. . ... : ... .. 6 ...
ROW 4B : ... .. . ... : ... .. . ... : --- .. . ... : D-# 03 6 ... : ... .. . ... : --- .. . ... : ... .. . ... : ... .. 6 ...
ROW 4C : C-4 0D . ... : G#3 0D . ... : F-2 00 . ... : 9-# 03 5 ... : ... .. . ... : F-1 01 . ... : F-4 11 . ... : F-5 04 6 ...
ROW 4D : ... .. . ... : ... .. . ... : --- .. . ... : E-# 03 6 ... : ... .. . ... : --- .. . ... : ... .. . ... : ... .. 6 ...
ROW 4E : F-4 0D . ... : C-4 0D . ... : F-2 00 . ... : E-# 03 7 ... : ... .. . ... : F-1 01 . ... : ... .. . ... : ... .. 6 ...
ROW 4F : ... .. . ... : ... .. . ... : --- .. . ... : ... .. . ... : ... .. . ... : --- .. . ... : ... .. . ... : ... .. 6 ...
ROW 50 : G#4 0D . ... : F-4 0D . ... : F-2 00 . ... : 9-# 03 3 ... : ... .. . ... : F-1 01 . ... : F-4 11 . ... : F-5 04 6 ...
ROW 51 : ... .. . ... : ... .. . ... : --- .. . ... : ... .. . ... : ... .. . ... : --- .. . ... : ... .. . ... : ... .. 6 ...
ROW 52 : F-4 0D . ... : G#4 0D . ... : F-2 00 . ... : 7-# 03 5 ... : ... .. . ... : F-1 01 . ... : ... .. . ... : ... .. 5 ...
ROW 53 : ... .. . ... : ... .. . ... : --- .. . ... : ... .. . ... : ... .. . ... : --- .. . ... : ... .. . ... : ... .. 5 ...
ROW 54 : C-4 0D . ... : F-4 0D . ... : F-2 00 . ... : 9-# 03 7 ... : ... .. . ... : F-1 01 . ... : ... .. . ... : ... .. 5 ...
ROW 55 : ... .. . ... : ... .. . ... : --- .. . ... : ... .. . ... : ... .. . ... : --- .. . ... : ... .. . ... : ... .. 5 ...
ROW 56 : G#3 0D . ... : C-4 0D . ... : F-2 00 . ... : 7-# 03 9 ... : ... .. . ... : F-1 01 . ... : G-4 11 . ... : G-5 04 5 ...
ROW 57 : ... .. . ... : ... .. . ... : --- .. . ... : ... .. . ... : ... .. . ... : --- .. . ... : ... .. . ... : ... .. 5 ...
ROW 58 : F-3 0D . ... : G#3 0D . ... : F-2 00 . ... : F-# 03 F ... : ... .. . ... : F-1 01 . ... : ... .. . ... : ... .. 5 ...
ROW 59 : ... .. . ... : ... .. . ... : --- .. . ... : ... .. . ... : ... .. . ... : --- .. . ... : ... .. . ... : ... .. 5 ...
ROW 5A : C-3 0D . ... : F-3 0D . ... : F-2 00 . ... : 8-# 03 4 ... : ... .. . ... : F-1 01 . ... : ... .. . ... : ... .. 5 ...
ROW 5B : ... .. . ... : ... .. . ... : --- .. . ... : ... .. . ... : ... .. . ... : --- .. . ... : ... .. . ... : ... .. 4 ...
ROW 5C : G#2 0D . ... : C-3 0D . ... : F-2 00 . ... : A-# 03 6 ... : ... .. . ... : F-1 01 . ... : G#4 11 . ... : G#5 04 4 ...
ROW 5D : ... .. . ... : ... .. . ... : --- .. . ... : A-# 03 7 ... : ... .. . ... : --- .. . ... : ... .. . ... : ... .. 4 ...
ROW 5E : F-2 0D . ... : G#2 0D . ... : F-2 00 . ... : 5-# 03 8 ... : ... .. . ... : F-1 01 . ... : ... .. . ... : ... .. 4 ...
ROW 5F : ... .. . ... : ... .. . ... : --- .. . ... : 5-# 03 9 ... : ... .. . ... : --- .. . ... : ... .. . ... : ... .. 4 ...
ROW 60 : C-2 0D . ... : F-2 0D . ... : G#2 00 . ... : 7-# 03 A ... : ... .. . ... : G#0 01 . ... : G#4 11 . ... : G#5 04 4 ...
ROW 61 : ... .. . ... : ... .. . ... : --- .. . ... : ... .. . ... : ... .. . ... : --- .. . ... : ... .. . ... : ... .. 4 ...
ROW 62 : F-2 0D . ... : C-2 0D . ... : G#2 00 . ... : B-# 03 8 ... : ... .. . ... : G#0 01 . ... : ... .. . ... : ... .. 4 ...
ROW 63 : ... .. . ... : ... .. . ... : --- .. . ... : ... .. . ... : ... .. . ... : --- .. . ... : ... .. . ... : ... .. 4 ...
ROW 64 : G#2 0D . ... : F-2 0D . ... : G#2 00 . ... : ... .. . ... : ... .. . ... : G#0 01 . ... : ... .. . ... : ... .. 3 ...
ROW 65 : ... .. . ... : ... .. . ... : --- .. . ... : ... .. . ... : ... .. . ... : --- .. . ... : ... .. . ... : ... .. 3 ...
ROW 66 : C-3 0D . ... : G#2 0D . ... : G#2 00 . ... : B-# 03 5 ... : ... .. . ... : G#0 01 . ... : G-4 11 . ... : G-5 04 3 ...
ROW 67 : ... .. . ... : ... .. . ... : --- .. . ... : ... .. . ... : ... .. . ... : --- .. . ... : ... .. . ... : ... .. 3 ...
ROW 68 : F-3 0D . ... : C-3 0D . ... : G#2 00 . ... : F-# 03 C ... : ... .. . ... : G#0 01 . ... : ... .. . ... : ... .. 3 ...
ROW 69 : ... .. . ... : ... .. . ... : --- .. . ... : ... .. . ... : ... .. . ... : --- .. . ... : ... .. . ... : ... .. 3 ...
ROW 6A : G#3 0D . ... : F-3 0D . ... : G#2 00 . ... : B-# 03 7 ... : ... .. . ... : G#0 01 . ... : ... .. . ... : ... .. 3 ...
ROW 6B : ... .. . ... : ... .. . ... : --- .. . ... : D-# 03 6 ... : ... .. . ... : --- .. . ... : ... .. . ... : ... .. 3 ...
ROW 6C : C-4 0D . ... : G#3 0D . ... : G#2 00 . ... : 9-# 03 5 ... : ... .. . ... : G#0 01 . ... : F-4 11 . ... : F-5 04 3 ...
ROW 6D : ... .. . ... : ... .. . ... : --- .. . ... : E-# 03 6 ... : ... .. . ... : --- .. . ... : ... .. . ... : ... .. 2 ...
ROW 6E : F-4 0D . ... : C-4 0D . ... : G#2 00 . ... : E-# 03 7 ... : ... .. . ... : G#0 01 . ... : ... .. . ... : ... .. 2 ...
ROW 6F : ... .. . ... : ... .. . ... : --- .. . ... : ... .. . ... : ... .. . ... : --- .. . ... : ... .. . ... : ... .. 2 ...
ROW 70 : G#4 0D . ... : F-4 0D . ... : G#2 00 . ... : 9-# 03 3 ... : ... .. . ... : G#0 01 . ... : D#4 11 . ... : D#5 04 2 ...
ROW 71 : ... .. . ... : ... .. . ... : --- .. . ... : ... .. . ... : ... .. . ... : --- .. . ... : ... .. . ... : ... .. 2 ...
ROW 72 : F-4 0D . ... : G#4 0D . ... : G#2 00 . ... : 7-# 03 5 ... : ... .. . ... : G#0 01 . ... : ... .. . ... : ... .. 2 ...
ROW 73 : ... .. . ... : ... .. . ... : --- .. . ... : ... .. . ... : ... .. . ... : --- .. . ... : ... .. . ... : ... .. 2 ...
ROW 74 : C-4 0D . ... : F-4 0D . ... : G#2 00 . ... : 9-# 03 7 ... : ... .. . ... : G#0 01 . ... : D-4 11 . ... : D-5 04 2 ...
ROW 75 : ... .. . ... : ... .. . ... : --- .. . ... : ... .. . ... : ... .. . ... : --- .. . ... : ... .. . ... : ... .. 2 ...
ROW 76 : G#3 0D . ... : C-4 0D . ... : G#2 00 . ... : 7-# 03 9 ... : ... .. . ... : G#0 01 . ... : ... .. . ... : ... .. 1 ...
ROW 77 : ... .. . ... : ... .. . ... : --- .. . ... : ... .. . ... : ... .. . ... : --- .. . ... : ... .. . ... : ... .. 1 ...
ROW 78 : F-3 0D . ... : G#3 0D . ... : G#2 00 . ... : F-# 03 F ... : ... .. . ... : G#0 01 . ... : D-4 11 . ... : D-5 04 1 ...
ROW 79 : ... .. . ... : ... .. . ... : --- .. . ... : ... .. . ... : ... .. . ... : --- .. . ... : ... .. . ... : ... .. 1 ...
ROW 7A : C-3 0D . ... : F-3 0D . ... : G#2 00 . ... : 8-# 03 4 ... : ... .. . ... : G#0 01 . ... : ... .. . ... : ... .. 1 ...
ROW 7B : ... .. . ... : ... .. . ... : --- .. . ... : ... .. . ... : ... .. . ... : --- .. . ... : ... .. . ... : ... .. 1 ...
ROW 7C : G#2 0D . ... : C-3 0D . ... : G#2 00 . ... : A-# 03 6 ... : ... .. . ... : G#0 01 . ... : D#4 11 . ... : D#5 04 1 ...
ROW 7D : ... .. . ... : ... .. . ... : --- .. . ... : A-# 03 7 ... : ... .. . ... : --- .. . ... : ... .. . ... : ... .. 1 ...
ROW 7E : F-2 0D . ... : G#2 0D . ... : G#2 00 . ... : 5-# 03 8 ... : ... .. . ... : G#0 01 . ... : ... .. . ... : ... .. 1 ...
ROW 7F : ... .. . ... : ... .. . ... : --- .. . ... : 5-# 03 9 ... : ... .. . ... : --- .. . ... : ... .. . ... : ... .. 1 ...

PATTERN 0B
ROW 00 : C-3 0D F ... : D#2 00 1 ... : C-2 00 . ... : C-# 02 2 ... : ... .. . ... : C-1 01 8 ... : C-5 08 F ... : G-4 07 F ...
ROW 01 : ... .. . ... : ... .. . ... : --- .. . ... : ... .. . ... : ... .. . ... : --- .. . ... : ... .. F ... : ... .. F ...
ROW 02 : D#3 0D . ... : ... .. 2 ... : C-2 00 . ... : C-# 02 4 ... : ... .. . ... : C-1 01 . ... : ... .. E ... : ... .. E ...
ROW 03 : ... .. . ... : ... .. . ... : --- .. . ... : ... .. . ... : ... .. . ... : --- .. . ... : ... .. E ... : ... .. E ...
ROW 04 : G-3 0D . ... : ... .. 3 ... : C-2 00 . ... : C-# 02 6 ... : ... .. . ... : C-1 01 . ... : ... .. D ... : ... .. D ...
ROW 05 : ... .. . ... : ... .. . ... : --- .. . ... : ... .. . ... : ... .. . ... : --- .. . ... : ... .. D ... : ... .. D ...
ROW 06 : B-3 0D . ... : ... .. 4 ... : C-2 00 . ... : B-# 02 8 ... : ... .. . ... : C-1 01 . ... : ... .. C ... : ... .. C ...
ROW 07 : ... .. . ... : ... .. . ... : --- .. . ... : ... .. . ... : ... .. . ... : --- .. . ... : ... .. C ... : ... .. C ...
ROW 08 : C-4 0D . ... : ... .. 5 ... : C-2 00 . ... : 3-# 03 F ... : ... .. . ... : C-1 01 . ... : ... .. B ... : ... .. B ...
ROW 09 : ... .. . ... : ... .. . ... : --- .. . ... : ... .. . ... : ... .. . ... : --- .. . ... : ... .. B ... : ... .. B ...
ROW 0A : D#4 0D . ... : ... .. . ... : C-2 00 . ... : ... .. . ... : ... .. . ... : C-1 01 . ... : ... .. A ... : ... .. A ...
ROW 0B : ... .. . ... : ... .. . ... : --- .. . ... : ... .. . ... : ... .. . ... : --- .. . ... : ... .. A ... : ... .. A ...
ROW 0C : G-4 0D . ... : ... .. . ... : C-2 00 . ... : 9-# 03 C ... : ... .. . ... : C-1 01 . ... : ... .. 9 ... : ... .. 9 ...
ROW 0D : ... .. . ... : ... .. . ... : --- .. . ... : ... .. . ... : ... .. . ... : --- .. . ... : ... .. 9 ... : ... .. 9 ...
ROW 0E : B-4 0D . ... : ... .. . ... : C-2 00 . ... : ... .. . ... : ... .. . ... : C-1 01 . ... : ... .. 8 ... : ... .. 8 ...
ROW 0F : ... .. . ... : ... .. . ... : --- .. . ... : ... .. . ... : ... .. . ... : --- .. . ... : ... .. 8 ... : ... .. 8 ...
ROW 10 : C-5 0D . ... : ... .. . ... : C-2 00 . ... : B-# 03 8 ... : ... .. . ... : C-1 01 . ... : ... .. 7 ... : ... .. 7 ...
ROW 11 : ... .. . ... : ... .. . ... : --- .. . ... : --- .. . ... : ... .. . ... : --- .. . ... : ... .. 7 ... : ... .. 7 ...
ROW 12 : B-4 0D . ... : ... .. . ... : C-2 00 . ... : ... .. . ... : ... .. . ... : C-1 01 . ... : ... .. 6 ... : ... .. 6 ...
ROW 13 : ... .. . ... : ... .. . ... : --- .. . ... : ... .. . ... : ... .. . ... : --- .. . ... : ... .. 6 ... : ... .. 6 ...
ROW 14 : G-4 0D . ... : ... .. . ... : C-2 00 . ... : 9-# 03 C ... : ... .. . ... : C-1 01 . ... : ... .. 5 ... : ... .. 5 ...
ROW 15 : ... .. . ... : ... .. . ... : --- .. . ... : ... .. . ... : ... .. . ... : --- .. . ... : ... .. 5 ... : ... .. 5 ...
ROW 16 : D#4 0D . ... : ... .. . ... : C-2 00 . ... : ... .. . ... : ... .. . ... : C-1 01 . ... : ... .. 4 ... : ... .. 4 ...
ROW 17 : ... .. . ... : ... .. . ... : --- .. . ... : ... .. . ... : ... .. . ... : --- .. . ... : ... .. 4 ... : ... .. 4 ...
ROW 18 : C-4 0D . ... : ... .. . ... : C-2 00 . ... : 3-# 03 F ... : ... .. . ... : C-1 01 . ... : ... .. 3 ... : ... .. 3 ...
ROW 19 : ... .. . ... : ... .. . ... : --- .. . ... : ... .. . ... : ... .. . ... : --- .. . ... : ... .. 3 ... : ... .. 3 ...
ROW 1A : B-3 0D . ... : ... .. . ... : C-2 00 . ... : C-# 02 8 ... : ... .. . ... : C-1 01 . ... : ... .. 2 ... : ... .. 2 ...
ROW 1B : ... .. . ... : ... .. . ... : --- .. . ... : ... .. . ... : ... .. . ... : --- .. . ... : ... .. 2 ... : ... .. 2 ...
ROW 1C : G-3 0D . ... : ... .. . ... : C-2 00 . ... : C-# 02 6 ... : ... .. . ... : C-1 01 . ... : ... .. 1 ... : ... .. 1 ...
ROW 1D : ... .. . ... : ... .. . ... : --- .. . ... : ... .. . ... : ... .. . ... : --- .. . ... : ... .. 1 ... : ... .. 1 ...
ROW 1E : D#3 0D . ... : ... .. . ... : C-2 00 . ... : C-# 02 4 ... : ... .. . ... : C-1 01 . ... : ... .. 0 ... : ... .. 0 ...
ROW 1F : ... .. . ... : ... .. . ... : --- .. . ... : ... .. . ... : ... .. . ... : --- .. . ... : ... .. . ... : ... .. . ...
ROW 20 : C-3 0D . ... : D#3 0D 4 ... : C-2 00 . ... : C-# 02 2 ... : ... .. . ... : C-1 01 . ... : D#2 01 5 ... : C-2 01 1 ...
ROW 21 : ... .. . ... : ... .. . ... : --- .. . ... : ... .. . ... : ... .. . ... : --- .. . ... : ... .. . ... : ... .. . ...
ROW 22 : D#3 0D . ... : C-3 0D . ... : C-2 00 . ... : C-# 02 4 ... : ... .. . ... : C-1 01 . ... : ... .. . ... : ... .. 2 ...
ROW 23 : ... .. . ... : ... .. . ... : --- .. . ... : ... .. . ... : ... .. . ... : --- .. . ... : ... .. . ... : ... .. . ...
ROW 24 : G-3 0D . ... : D#3 0D . ... : C-2 00 . ... : C-# 02 6 ... : ... .. . ... : C-1 01 . ... : ... .. . ... : ... .. 3 ...
ROW 25 : ... .. . ... : ... .. . ... : --- .. . ... : ... .. . ... : ... .. . ... : --- .. . ... : ... .. . ... : ... .. . ...
ROW 26 : B-3 0D . ... : G-3 0D . ... : C-2 00 . ... : B-# 02 8 ... : ... .. . ... : C-1 01 . ... : ... .. . ... : ... .. 4 ...
ROW 27 : ... .. . ... : ... .. . ... : --- .. . ... : ... .. . ... : ... .. . ... : --- .. . ... : ... .. . ... : ... .. . ...
ROW 28 : C-4 0D . ... : B-3 0D . ... : C-2 00 . ... : 3-# 03 F ... : ... .. . ... : C-1 01 . ... : ... .. . ... : ... .. 5 ...
ROW 29 : ... .. . ... : ... .. . ... : --- .. . ... : ... .. . ... : ... .. . ... : --- .. . ... : ... .. . ... : ... .. . ...
ROW 2A : D#4 0D . ... : C-4 0D . ... : C-2 00 . ... : ... .. . ... : ... .. . ... : C-1 01 . ... : ... .. . ... : ... .. . ...
ROW 2B : ... .. . ... : ... .. . ... : --- .. . ... : ... .. . ... : ... .. . ... : --- .. . ... : ... .. . ... : ... .. . ...
ROW 2C : G-4 0D . ... : D#4 0D . ... : C-2 00 . ... : 9-# 03 C ... : ... .. . ... : C-1 01 . ... : ... .. . ... : ... .. . ...
ROW 2D : ... .. . ... : ... .. . ... : --- .. . ... : ... .. . ... : ... .. . ... : --- .. . ... : ... .. . ... : ... .. . ...
ROW 2E : B-4 0D . ... : G-4 0D . ... : C-2 00 . ... : ... .. . ... : ... .. . ... : C-1 01 . ... : ... .. . ... : ... .. . ...
ROW 2F : ... .. . ... : ... .. . ... : --- .. . ... : ... .. . ... : ... .. . ... : --- .. . ... : ... .. . ... : ... .. . ...
ROW 30 : C-5 0D . ... : B-4 0D . ... : C-2 00 . ... : B-# 03 8 ... : ... .. . ... : C-1 01 . ... : ... .. . ... : ... .. . ...
ROW 31 : ... .. . ... : ... .. . ... : --- .. . ... : --- .. . ... : ... .. . ... : --- .. . ... : ... .. . ... : ... .. . ...
ROW 32 : B-4 0D . ... : C-5 0D . ... : C-2 00 . ... : ... .. . ... : ... .. . ... : C-1 01 . ... : ... .. . ... : ... .. . ...
ROW 33 : ... .. . ... : ... .. . ... : --- .. . ... : ... .. . ... : ... .. . ... : --- .. . ... : ... .. . ... : ... .. . ...
ROW 34 : G-4 0D . ... : B-4 0D . ... : C-2 00 . ... : 9-# 03 C ... : ... .. . ... : C-1 01 . ... : ... .. . ... : ... .. . ...
ROW 35 : ... .. . ... : ... .. . ... : --- .. . ... : ... .. . ... : ... .. . ... : --- .. . ... : ... .. . ... : ... .. . ...
ROW 36 : D#4 0D . ... : G-4 0D . ... : C-2 00 . ... : ... .. . ... : ... .. . ... : C-1 01 . ... : ... .. . ... : ... .. . ...
ROW 37 : ... .. . ... : ... .. . ... : --- .. . ... : ... .. . ... : ... .. . ... : --- .. . ... : ... .. . ... : ... .. . ...
ROW 38 : C-4 0D . ... : D#4 0D . ... : C-2 00 . ... : 3-# 03 F ... : ... .. . ... : C-1 01 . ... : ... .. . ... : ... .. . ...
ROW 39 : ... .. . ... : ... .. . ... : --- .. . ... : ... .. . ... : ... .. . ... : --- .. . ... : ... .. . ... : ... .. . ...
ROW 3A : B-3 0D . ... : C-4 0D . ... : C-2 00 . ... : C-# 02 8 ... : ... .. . ... : C-1 01 . ... : ... .. . ... : ... .. . ...
ROW 3B : ... .. . ... : ... .. . ... : --- .. . ... : ... .. . ... : ... .. . ... : --- .. . ... : ... .. . ... : ... .. . ...
ROW 3C : G-3 0D . ... : B-3 0D . ... : C-2 00 . ... : C-# 02 6 ... : ... .. . ... : C-1 01 . ... : ... .. . ... : ... .. . ...
ROW 3D : ... .. . ... : ... .. . ... : --- .. . ... : ... .. . ... : ... .. . ... : --- .. . ... : ... .. . ... : ... .. . ...
ROW 3E : D#3 0D . ... : G-3 0D . ... : C-2 00 . ... : C-# 02 4 ... : ... .. . ... : C-1 01 . ... : ... .. . ... : ... .. . ...
ROW 3F : ... .. . ... : ... .. . ... : --- .. . ... : ... .. . ... : ... .. . ... : --- .. . ... : ... .. . ... : ... .. . ...
ROW 40 : C-3 0D . ... : D#3 0D . ... : E-2 00 . ... : C-# 02 2 ... : ... .. . ... : E-1 01 . ... : E-2 01 2 ... : C-2 01 2 ...
ROW 41 : ... .. . ... : ... .. . ... : --- .. . ... : ... .. . ... : ... .. . ... : --- .. . ... : ... .. . ... : ... .. . ...
ROW 42 : E-3 0D . ... : C-3 0D . ... : E-2 00 . ... : C-# 02 4 ... : ... .. . ... : E-1 01 . ... : ... .. 3 ... : ... .. 3 ...
ROW 43 : ... .. . ... : ... .. . ... : --- .. . ... : ... .. . ... : ... .. . ... : --- .. . ... : ... .. . ... : ... .. . ...
ROW 44 : G-3 0D . ... : E-3 0D . ... : E-2 00 . ... : C-# 02 6 ... : ... .. . ... : E-1 01 . ... : ... .. 4 ... : ... .. 4 ...
ROW 45 : ... .. . ... : ... .. . ... : --- .. . ... : ... .. . ... : ... .. . ... : --- .. . ... : ... .. . ... : ... .. . ...
ROW 46 : B-3 0D . ... : G-3 0D . ... : E-2 00 . ... : B-# 02 8 ... : ... .. . ... : E-1 01 . ... : ... .. 5 ... : ... .. 5 ...
ROW 47 : ... .. . ... : ... .. . ... : --- .. . ... : ... .. . ... : ... .. . ... : --- .. . ... : ... .. . ... : ... .. . ...
ROW 48 : C-4 0D . ... : B-3 0D . ... : E-2 00 . ... : 3-# 03 F ... : ... .. . ... : E-1 01 . ... : ... .. . ... : ... .. . ...
ROW 49 : ... .. . ... : ... .. . ... : --- .. . ... : ... .. . ... : ... .. . ... : --- .. . ... : ... .. . ... : ... .. . ...
ROW 4A : E-4 0D . ... : C-4 0D . ... : E-2 00 . ... : ... .. . ... : ... .. . ... : E-1 01 . ... : ... .. . ... : ... .. . ...
ROW 4B : ... .. . ... : ... .. . ... : --- .. . ... : ... .. . ... : ... .. . ... : --- .. . ... : ... .. . ... : ... .. . ...
ROW 4C : G-4 0D . ... : E-4 0D . ... : E-2 00 . ... : 9-# 03 C ... : ... .. . ... : E-1 01 . ... : ... .. . ... : ... .. . ...
ROW 4D : ... .. . ... : ... .. . ... : --- 00 . ... : ... .. . ... : ... .. . ... : --- 01 . ... : ... .. . ... : ... .. . ...
ROW 4E : B-4 0D . ... : G-4 0D . ... : E-2 00 . ... : ... .. . ... : ... .. . ... : E-1 01 . ... : ... .. . ... : ... .. . ...
ROW 4F : ... .. . ... : ... .. . ... : --- 00 . ... : ... .. . ... : ... .. . ... : --- 01 . ... : ... .. . ... : ... .. . ...
ROW 50 : C-5 0D . ... : B-4 0D . ... : E-2 00 . ... : B-# 03 8 ... : ... .. . ... : E-1 01 . ... : ... .. . ... : ... .. . ...
ROW 51 : ... .. . ... : ... .. . ... : --- 00 . ... : --- .. . ... : ... .. . ... : --- 01 . ... : ... .. . ... : ... .. . ...
ROW 52 : B-4 0D . ... : C-5 0D . ... : E-2 00 . ... : ... .. . ... : ... .. . ... : E-1 01 . ... : ... .. . ... : ... .. . ...
ROW 53 : ... .. . ... : ... .. . ... : --- .. . ... : ... .. . ... : ... .. . ... : --- .. . ... : ... .. . ... : ... .. . ...
ROW 54 : G-4 0D . ... : B-4 0D . ... : E-2 00 . ... : 9-# 03 C ... : ... .. . ... : E-1 01 . ... : ... .. . ... : ... .. . ...
ROW 55 : ... .. . ... : ... .. . ... : --- .. . ... : ... .. . ... : ... .. . ... : --- .. . ... : ... .. . ... : ... .. . ...
ROW 56 : E-4 0D . ... : G-4 0D . ... : E-2 00 . ... : ... .. . ... : ... .. . ... : E-1 01 . ... : ... .. . ... : ... .. . ...
ROW 57 : ... .. . ... : ... .. . ... : --- .. . ... : ... .. . ... : ... .. . ... : --- .. . ... : ... .. . ... : ... .. . ...
ROW 58 : C-4 0D . ... : E-4 0D . ... : E-2 00 . ... : 3-# 03 F ... : ... .. . ... : E-1 01 . ... : ... .. . ... : ... .. . ...
ROW 59 : ... .. . ... : ... .. . ... : --- .. . ... : ... .. . ... : ... .. . ... : --- .. . ... : ... .. . ... : ... .. . ...
ROW 5A : B-3 0D . ... : C-4 0D . ... : E-2 00 . ... : C-# 02 8 ... : ... .. . ... : E-1 01 . ... : ... .. . ... : ... .. . ...
ROW 5B : ... .. . ... : ... .. . ... : --- .. . ... : ... .. . ... : ... .. . ... : --- .. . ... : ... .. . ... : ... .. . ...
ROW 5C : G-3 0D . ... : B-3 0D . ... : E-2 00 . ... : C-# 02 6 ... : ... .. . ... : E-1 01 . ... : ... .. . ... : ... .. . ...
ROW 5D : ... .. . ... : ... .. . ... : --- .. . ... : ... .. . ... : ... .. . ... : --- .. . ... : ... .. . ... : ... .. . ...
ROW 5E : E-3 0D . ... : G-3 0D . ... : E-2 00 . ... : C-# 02 4 ... : ... .. . ... : E-1 01 . ... : ... .. . ... : ... .. . ...
ROW 5F : ... .. . ... : ... .. . ... : --- .. . ... : ... .. . ... : ... .. . ... : --- .. . ... : ... .. . ... : ... .. . ...
ROW 60 : C-3 0D . ... : E-3 0D . ... : E-2 00 . ... : C-# 02 2 ... : ... .. . ... : E-1 01 . ... : G-1 01 2 ... : E-1 01 2 ...
ROW 61 : ... .. . ... : ... .. . ... : --- .. . ... : ... .. . ... : ... .. . ... : --- .. . ... : ... .. . ... : ... .. . ...
ROW 62 : E-3 0D . ... : C-3 0D . ... : E-2 00 . ... : C-# 02 4 ... : ... .. . ... : E-1 01 . ... : ... .. 3 ... : ... .. 3 ...
ROW 63 : ... .. . ... : ... .. . ... : --- .. . ... : ... .. . ... : ... .. . ... : --- .. . ... : ... .. . ... : ... .. . ...
ROW 64 : G-3 0D . ... : E-3 0D . ... : E-2 00 . ... : C-# 02 6 ... : ... .. . ... : E-1 01 . ... : ... .. 4 ... : ... .. 4 ...
ROW 65 : ... .. . ... : ... .. . ... : --- .. . ... : ... .. . ... : ... .. . ... : --- .. . ... : ... .. . ... : ... .. . ...
ROW 66 : B-3 0D . ... : G-3 0D . ... : E-2 00 . ... : B-# 02 8 ... : ... .. . ... : E-1 01 . ... : ... .. 5 ... : ... .. 5 ...
ROW 67 : ... .. . ... : ... .. . ... : --- .. . ... : ... .. . ... : ... .. . ... : --- .. . ... : ... .. . ... : ... .. . ...
ROW 68 : C-4 0D . ... : B-3 0D . ... : E-2 00 . ... : 3-# 03 F ... : ... .. . ... : E-1 01 . ... : ... .. . ... : ... .. . ...
ROW 69 : ... .. . ... : ... .. . ... : --- .. . ... : ... .. . ... : ... .. . ... : --- .. . ... : ... .. . ... : ... .. . ...
ROW 6A : E-4 0D . ... : C-4 0D . ... : E-2 00 . ... : ... .. . ... : ... .. . ... : E-1 01 . ... : ... .. . ... : ... .. . ...
ROW 6B : ... .. . ... : ... .. . ... : --- .. . ... : ... .. . ... : ... .. . ... : --- .. . ... : ... .. . ... : ... .. . ...
ROW 6C : G-4 0D . ... : E-4 0D . ... : E-2 00 . ... : 9-# 03 C ... : ... .. . ... : E-1 01 . ... : ... .. . ... : ... .. . ...
ROW 6D : ... .. . ... : ... .. . ... : --- .. . ... : ... .. . ... : ... .. . ... : --- .. . ... : ... .. . ... : ... .. . ...
ROW 6E : B-4 0D . ... : G-4 0D . ... : E-2 00 . ... : ... .. . ... : ... .. . ... : E-1 01 . ... : ... .. . ... : ... .. . ...
ROW 6F : ... .. . ... : ... .. . ... : --- .. . ... : ... .. . ... : ... .. . ... : --- .. . ... : ... .. . ... : ... .. . ...
ROW 70 : C-5 0D . ... : B-4 0D . ... : E-2 00 . ... : B-# 03 8 ... : ... .. . ... : E-1 01 . ... : ... .. . ... : ... .. . ...
ROW 71 : ... .. . ... : ... .. . ... : --- .. . ... : --- .. . ... : ... .. . ... : --- .. . ... : ... .. . ... : ... .. . ...
ROW 72 : B-4 0D . ... : C-5 0D . ... : E-2 00 . ... : ... .. . ... : ... .. . ... : E-1 01 . ... : ... .. . ... : ... .. . ...
ROW 73 : ... .. . ... : ... .. . ... : --- .. . ... : ... .. . ... : ... .. . ... : --- .. . ... : ... .. . ... : ... .. . ...
ROW 74 : G-4 0D . ... : B-4 0D . ... : E-2 00 . ... : 9-# 03 C ... : ... .. . ... : E-1 01 . ... : ... .. . ... : ... .. . ...
ROW 75 : ... .. . ... : ... .. . ... : --- .. . ... : ... .. . ... : ... .. . ... : --- .. . ... : ... .. . ... : ... .. . ...
ROW 76 : E-4 0D . ... : G-4 0D . ... : E-2 00 . ... : ... .. . ... : ... .. . ... : E-1 01 . ... : ... .. . ... : ... .. . ...
ROW 77 : ... .. . ... : ... .. . ... : --- .. . ... : ... .. . ... : ... .. . ... : --- .. . ... : ... .. . ... : ... .. . ...
ROW 78 : C-4 0D . ... : E-4 0D . ... : E-2 00 . ... : 3-# 03 F ... : ... .. . ... : E-1 01 . ... : ... .. . ... : ... .. . ...
ROW 79 : ... .. . ... : ... .. . ... : --- .. . ... : ... .. . ... : ... .. . ... : --- .. . ... : ... .. . ... : ... .. . ...
ROW 7A : B-3 0D . ... : C-4 0D . ... : E-2 00 . ... : C-# 02 8 ... : ... .. . ... : E-1 01 . ... : ... .. . ... : ... .. . ...
ROW 7B : ... .. . ... : ... .. . ... : --- .. . ... : ... .. . ... : ... .. . ... : --- .. . ... : ... .. . ... : ... .. . ...
ROW 7C : G-3 0D . ... : B-3 0D . ... : E-2 00 . ... : C-# 02 6 ... : ... .. . ... : E-1 01 . ... : ... .. . ... : ... .. . ...
ROW 7D : ... .. . ... : ... .. . ... : --- .. . ... : ... .. . ... : ... .. . ... : --- .. . ... : ... .. . ... : ... .. . ...
ROW 7E : E-3 0D . ... : G-3 0D . ... : E-2 00 . ... : C-# 02 4 ... : ... .. . ... : E-1 01 . ... : ... .. . ... : ... .. . ...
ROW 7F : ... .. . ... : ... .. . ... : --- .. . ... : ... .. . ... : ... .. . ... : --- .. . ... : ... .. . ... : ... .. . ...

# End of export
