<?xml version="1.0" encoding="UTF-8"?>
<svg version="1.1" xmlns="http://www.w3.org/2000/svg" width="108" height="120">
<path d="M0 0 C5.20148703 0.60977513 9.47469428 3.03943507 14.078125 5.375 C15.40538605 6.0400354 15.40538605 6.0400354 16.75946045 6.71850586 C18.63694745 7.6606093 20.51299358 8.60558889 22.38769531 9.55322266 C25.19558379 10.97249484 28.00745792 12.38356909 30.8203125 13.79296875 C40.08357087 18.44486272 49.30653375 23.16286481 58.44708252 28.05200195 C63.54021338 30.77556662 68.68642622 33.36836065 73.875 35.90625 C76 37 76 37 77 38 C77.09500548 40.46444057 77.12557985 42.90074626 77.11352539 45.36547852 C77.11367142 46.13615662 77.11381744 46.90683472 77.1139679 47.7008667 C77.1132686 50.26024139 77.10547545 52.8195442 77.09765625 55.37890625 C77.09579213 57.14867615 77.0943682 58.91844656 77.09336853 60.68821716 C77.08954288 65.35551366 77.0797122 70.02277923 77.06866455 74.69006348 C77.05665707 80.285076 77.05204841 85.88009884 77.04621124 91.47512054 C77.03650047 99.98343523 77.01734425 108.49168202 77 117 C53.9 117 30.8 117 7 117 C1.38240828 105.76481656 1.38240828 105.76481656 -0.69921875 100.71875 C-1.17786377 99.56656982 -1.65650879 98.41438965 -2.1496582 97.22729492 C-2.39946442 96.62178802 -2.64927063 96.01628113 -2.90664673 95.39242554 C-4.29173091 92.035625 -5.6882736 88.68361003 -7.0859375 85.33203125 C-7.38786514 84.60776443 -7.68979279 83.88349762 -8.00086975 83.13728333 C-10.57754419 76.97385558 -13.20842659 70.83439784 -15.8515625 64.69921875 C-16.26273819 63.74415436 -16.67391388 62.78908997 -17.09754944 61.80508423 C-18.74512649 57.97984275 -20.39352099 54.15497773 -22.04867554 50.33300781 C-23.20864868 47.65428765 -24.3643974 44.97377847 -25.51953125 42.29296875 C-25.87201935 41.48292892 -26.22450745 40.6728891 -26.587677 39.83830261 C-29 34.2268308 -29 34.2268308 -29 32 C-26 32 -26 32 -24.45703125 33.46875 C-23.64298828 34.47421875 -23.64298828 34.47421875 -22.8125 35.5 C-20.321454 38.47876659 -17.77551343 41.28376938 -15 44 C-11.85175283 47.10619043 -8.91082174 50.30582586 -6.06640625 53.69140625 C-4.41913862 55.53173739 -2.75439937 57.20821647 -0.96484375 58.90234375 C5.88703395 65.54711696 9.05849782 69.84271792 9.64453125 79.75 C10.10846873 83.99171407 11.68051272 86.79778257 13.9765625 90.328125 C15 92 15 92 15 94 C15.66 94 16.32 94 17 94 C17.66 94.7425 18.32 95.485 19 96.25 C23.90915741 101.28834577 30.60959137 103.21696622 37.5 103.5 C45.02267366 103.20165034 52.75260049 100.53892171 58 95 C64.78131929 85.29540523 66.90385856 76.80754909 66 65 C64.46036118 56.5255174 59.83051119 49.84212369 53 44.6875 C49.06849224 42.18382023 45.58093036 41.46577037 41 40.75 C32.83130676 39.23533341 29.89717777 35.3586392 25 29 C22.5669095 26.29157515 20.04580406 23.66497583 17.5402832 21.02368164 C15.35921108 18.67413833 14.02798665 17.08395995 13 14 C12.34 14 11.68 14 11 14 C6.71126781 9.83802836 3.15879379 5.05407007 0 0 Z " fill="#707881" transform="translate(30,2)"/>
<path d="M0 0 C5.46796332 5.04817873 9.46477738 12.50261153 10.05078125 19.9765625 C10.2094058 27.64063269 9.81230644 33.33715935 5.8125 39.9375 C5.47347656 40.56140625 5.13445312 41.1853125 4.78515625 41.828125 C1.02301852 47.98678464 -4.98437709 51.86576353 -11.9296875 53.63671875 C-19.36215462 54.61578312 -26.1544892 53.64010482 -32.44921875 49.421875 C-36.90097883 45.7683048 -39.69833027 42.10731404 -42.1875 36.9375 C-42.54328125 36.21304688 -42.8990625 35.48859375 -43.265625 34.7421875 C-45.66255343 27.44983744 -45.50861327 16.875663 -42.5 9.75 C-38.41049642 2.35469562 -32.88146983 -3.11456295 -24.8125 -5.875 C-15.06994557 -6.57089675 -7.87848715 -6.24388515 0 0 Z " fill="#717881" transform="translate(85.1875,50.0625)"/>
</svg>
